  999
DXF file created by gear template generator. 2019-01-25T11:59:29
  999
G1:Toothspacing=3.14  Teeth=20  Spur gear  Angle=20.0  Addendum=.4
  999
G2:Toothspacing=3.14  Teeth=60  Spur gear  Angle=20.0  Addendum=.4
  0
SECTION
  2
HEADER
  9
$MEASUREMENT
  70
1
  0
ENDSEC
  0
SECTION
  2
TABLES
  0
TABLE
  2
LTYPE
  70
1
  0
LTYPE
  2
Continuous
  3
_
  70
0
  72
65
  73
0
  40
0.0
  0
ENDTAB
  0
TABLE
  2
LAYER
  70
4
  0
LAYER
  2
profile
  70
0
  62
7
  6
Continuous
  0
LAYER
  2
construction
  70
0
  62
5
  6
Continuous
  0
LAYER
  2
grid
  70
0
  62
3
  6
Continuous
  0
LAYER
  2
labels
  70
0
  62
1
  6
Continuous
  0
ENDTAB
  0
TABLE
  2
STYLE
  70
1
  0
STYLE
  2
ARIAL
  3
Arial.ttf
  70
0
  40
0.0
  41
1.0
  50
0.0
  71
0
  42
1.0
  0
ENDTAB
  0
ENDSEC
  0
SECTION
  2
ENTITIES
 0
LINE
 8
b
 10
0.22491
 20
0
 30
0
 11
0.22491
 21
62.44981
 31
 0
 0
LINE
 8
b
 10
1.22491
 20
0
 30
0
 11
1.22491
 21
62.44981
 31
 0
 0
LINE
 8
b
 10
2.22491
 20
0
 30
0
 11
2.22491
 21
62.44981
 31
 0
 0
LINE
 8
b
 10
3.22491
 20
0
 30
0
 11
3.22491
 21
62.44981
 31
 0
 0
LINE
 8
b
 10
4.22491
 20
0
 30
0
 11
4.22491
 21
62.44981
 31
 0
 0
LINE
 8
b
 10
5.22491
 20
0
 30
0
 11
5.22491
 21
62.44981
 31
 0
 0
LINE
 8
b
 10
6.22491
 20
0
 30
0
 11
6.22491
 21
62.44981
 31
 0
 0
LINE
 8
b
 10
7.22491
 20
0
 30
0
 11
7.22491
 21
62.44981
 31
 0
 0
LINE
 8
b
 10
8.22491
 20
0
 30
0
 11
8.22491
 21
62.44981
 31
 0
 0
LINE
 8
b
 10
9.22491
 20
0
 30
0
 11
9.22491
 21
62.44981
 31
 0
 0
LINE
 8
b
 10
10.22491
 20
0
 30
0
 11
10.22491
 21
62.44981
 31
 0
 0
LINE
 8
b
 10
11.22491
 20
0
 30
0
 11
11.22491
 21
62.44981
 31
 0
 0
LINE
 8
b
 10
12.22491
 20
0
 30
0
 11
12.22491
 21
62.44981
 31
 0
 0
LINE
 8
b
 10
13.22491
 20
0
 30
0
 11
13.22491
 21
62.44981
 31
 0
 0
LINE
 8
b
 10
14.22491
 20
0
 30
0
 11
14.22491
 21
62.44981
 31
 0
 0
LINE
 8
b
 10
15.22491
 20
0
 30
0
 11
15.22491
 21
62.44981
 31
 0
 0
LINE
 8
b
 10
16.22491
 20
0
 30
0
 11
16.22491
 21
62.44981
 31
 0
 0
LINE
 8
b
 10
17.22491
 20
0
 30
0
 11
17.22491
 21
62.44981
 31
 0
 0
LINE
 8
b
 10
18.22491
 20
0
 30
0
 11
18.22491
 21
62.44981
 31
 0
 0
LINE
 8
b
 10
19.22491
 20
0
 30
0
 11
19.22491
 21
62.44981
 31
 0
 0
LINE
 8
b
 10
20.22491
 20
0
 30
0
 11
20.22491
 21
62.44981
 31
 0
 0
LINE
 8
b
 10
21.22491
 20
0
 30
0
 11
21.22491
 21
62.44981
 31
 0
 0
LINE
 8
b
 10
22.22491
 20
0
 30
0
 11
22.22491
 21
62.44981
 31
 0
 0
LINE
 8
b
 10
23.22491
 20
0
 30
0
 11
23.22491
 21
62.44981
 31
 0
 0
LINE
 8
b
 10
24.22491
 20
0
 30
0
 11
24.22491
 21
62.44981
 31
 0
 0
LINE
 8
b
 10
25.22491
 20
0
 30
0
 11
25.22491
 21
62.44981
 31
 0
 0
LINE
 8
b
 10
26.22491
 20
0
 30
0
 11
26.22491
 21
62.44981
 31
 0
 0
LINE
 8
b
 10
27.22491
 20
0
 30
0
 11
27.22491
 21
62.44981
 31
 0
 0
LINE
 8
b
 10
28.22491
 20
0
 30
0
 11
28.22491
 21
62.44981
 31
 0
 0
LINE
 8
b
 10
29.22491
 20
0
 30
0
 11
29.22491
 21
62.44981
 31
 0
 0
LINE
 8
b
 10
30.22491
 20
0
 30
0
 11
30.22491
 21
62.44981
 31
 0
 0
LINE
 8
b
 10
31.22491
 20
0
 30
0
 11
31.22491
 21
62.44981
 31
 0
 0
LINE
 8
b
 10
32.22491
 20
0
 30
0
 11
32.22491
 21
62.44981
 31
 0
 0
LINE
 8
b
 10
33.22491
 20
0
 30
0
 11
33.22491
 21
62.44981
 31
 0
 0
LINE
 8
b
 10
34.22491
 20
0
 30
0
 11
34.22491
 21
62.44981
 31
 0
 0
LINE
 8
b
 10
35.22491
 20
0
 30
0
 11
35.22491
 21
62.44981
 31
 0
 0
LINE
 8
b
 10
36.22491
 20
0
 30
0
 11
36.22491
 21
62.44981
 31
 0
 0
LINE
 8
b
 10
37.22491
 20
0
 30
0
 11
37.22491
 21
62.44981
 31
 0
 0
LINE
 8
b
 10
38.22491
 20
0
 30
0
 11
38.22491
 21
62.44981
 31
 0
 0
LINE
 8
b
 10
39.22491
 20
0
 30
0
 11
39.22491
 21
62.44981
 31
 0
 0
LINE
 8
b
 10
40.22491
 20
0
 30
0
 11
40.22491
 21
62.44981
 31
 0
 0
LINE
 8
b
 10
41.22491
 20
0
 30
0
 11
41.22491
 21
62.44981
 31
 0
 0
LINE
 8
b
 10
42.22491
 20
0
 30
0
 11
42.22491
 21
62.44981
 31
 0
 0
LINE
 8
b
 10
43.22491
 20
0
 30
0
 11
43.22491
 21
62.44981
 31
 0
 0
LINE
 8
b
 10
44.22491
 20
0
 30
0
 11
44.22491
 21
62.44981
 31
 0
 0
LINE
 8
b
 10
45.22491
 20
0
 30
0
 11
45.22491
 21
62.44981
 31
 0
 0
LINE
 8
b
 10
46.22491
 20
0
 30
0
 11
46.22491
 21
62.44981
 31
 0
 0
LINE
 8
b
 10
47.22491
 20
0
 30
0
 11
47.22491
 21
62.44981
 31
 0
 0
LINE
 8
b
 10
48.22491
 20
0
 30
0
 11
48.22491
 21
62.44981
 31
 0
 0
LINE
 8
b
 10
49.22491
 20
0
 30
0
 11
49.22491
 21
62.44981
 31
 0
 0
LINE
 8
b
 10
50.22491
 20
0
 30
0
 11
50.22491
 21
62.44981
 31
 0
 0
LINE
 8
b
 10
51.22491
 20
0
 30
0
 11
51.22491
 21
62.44981
 31
 0
 0
LINE
 8
b
 10
52.22491
 20
0
 30
0
 11
52.22491
 21
62.44981
 31
 0
 0
LINE
 8
b
 10
53.22491
 20
0
 30
0
 11
53.22491
 21
62.44981
 31
 0
 0
LINE
 8
b
 10
54.22491
 20
0
 30
0
 11
54.22491
 21
62.44981
 31
 0
 0
LINE
 8
b
 10
55.22491
 20
0
 30
0
 11
55.22491
 21
62.44981
 31
 0
 0
LINE
 8
b
 10
56.22491
 20
0
 30
0
 11
56.22491
 21
62.44981
 31
 0
 0
LINE
 8
b
 10
57.22491
 20
0
 30
0
 11
57.22491
 21
62.44981
 31
 0
 0
LINE
 8
b
 10
58.22491
 20
0
 30
0
 11
58.22491
 21
62.44981
 31
 0
 0
LINE
 8
b
 10
59.22491
 20
0
 30
0
 11
59.22491
 21
62.44981
 31
 0
 0
LINE
 8
b
 10
60.22491
 20
0
 30
0
 11
60.22491
 21
62.44981
 31
 0
 0
LINE
 8
b
 10
61.22491
 20
0
 30
0
 11
61.22491
 21
62.44981
 31
 0
 0
LINE
 8
b
 10
62.22491
 20
0
 30
0
 11
62.22491
 21
62.44981
 31
 0
 0
LINE
 8
b
 10
63.22491
 20
0
 30
0
 11
63.22491
 21
62.44981
 31
 0
 0
LINE
 8
b
 10
64.22491
 20
0
 30
0
 11
64.22491
 21
62.44981
 31
 0
 0
LINE
 8
b
 10
65.22491
 20
0
 30
0
 11
65.22491
 21
62.44981
 31
 0
 0
LINE
 8
b
 10
66.22491
 20
0
 30
0
 11
66.22491
 21
62.44981
 31
 0
 0
LINE
 8
b
 10
67.22491
 20
0
 30
0
 11
67.22491
 21
62.44981
 31
 0
 0
LINE
 8
b
 10
68.22491
 20
0
 30
0
 11
68.22491
 21
62.44981
 31
 0
 0
LINE
 8
b
 10
69.22491
 20
0
 30
0
 11
69.22491
 21
62.44981
 31
 0
 0
LINE
 8
b
 10
70.22491
 20
0
 30
0
 11
70.22491
 21
62.44981
 31
 0
 0
LINE
 8
b
 10
71.22491
 20
0
 30
0
 11
71.22491
 21
62.44981
 31
 0
 0
LINE
 8
b
 10
72.22491
 20
0
 30
0
 11
72.22491
 21
62.44981
 31
 0
 0
LINE
 8
b
 10
73.22491
 20
0
 30
0
 11
73.22491
 21
62.44981
 31
 0
 0
LINE
 8
b
 10
74.22491
 20
0
 30
0
 11
74.22491
 21
62.44981
 31
 0
 0
LINE
 8
b
 10
75.22491
 20
0
 30
0
 11
75.22491
 21
62.44981
 31
 0
 0
LINE
 8
b
 10
76.22491
 20
0
 30
0
 11
76.22491
 21
62.44981
 31
 0
 0
LINE
 8
b
 10
77.22491
 20
0
 30
0
 11
77.22491
 21
62.44981
 31
 0
 0
LINE
 8
b
 10
78.22491
 20
0
 30
0
 11
78.22491
 21
62.44981
 31
 0
 0
LINE
 8
b
 10
79.22491
 20
0
 30
0
 11
79.22491
 21
62.44981
 31
 0
 0
LINE
 8
b
 10
80.22491
 20
0
 30
0
 11
80.22491
 21
62.44981
 31
 0
 0
LINE
 8
b
 10
81.22491
 20
0
 30
0
 11
81.22491
 21
62.44981
 31
 0
 0
LINE
 8
b
 10
82.22491
 20
0
 30
0
 11
82.22491
 21
62.44981
 31
 0
 0
LINE
 8
b
 10
0
 20
0.22491
 30
0
 11
82.44981
 21
0.22491
 31
 0
 0
LINE
 8
b
 10
0
 20
1.22491
 30
0
 11
82.44981
 21
1.22491
 31
 0
 0
LINE
 8
b
 10
0
 20
2.22491
 30
0
 11
82.44981
 21
2.22491
 31
 0
 0
LINE
 8
b
 10
0
 20
3.22491
 30
0
 11
82.44981
 21
3.22491
 31
 0
 0
LINE
 8
b
 10
0
 20
4.22491
 30
0
 11
82.44981
 21
4.22491
 31
 0
 0
LINE
 8
b
 10
0
 20
5.22491
 30
0
 11
82.44981
 21
5.22491
 31
 0
 0
LINE
 8
b
 10
0
 20
6.22491
 30
0
 11
82.44981
 21
6.22491
 31
 0
 0
LINE
 8
b
 10
0
 20
7.22491
 30
0
 11
82.44981
 21
7.22491
 31
 0
 0
LINE
 8
b
 10
0
 20
8.22491
 30
0
 11
82.44981
 21
8.22491
 31
 0
 0
LINE
 8
b
 10
0
 20
9.22491
 30
0
 11
82.44981
 21
9.22491
 31
 0
 0
LINE
 8
b
 10
0
 20
10.22491
 30
0
 11
82.44981
 21
10.22491
 31
 0
 0
LINE
 8
b
 10
0
 20
11.22491
 30
0
 11
82.44981
 21
11.22491
 31
 0
 0
LINE
 8
b
 10
0
 20
12.22491
 30
0
 11
82.44981
 21
12.22491
 31
 0
 0
LINE
 8
b
 10
0
 20
13.22491
 30
0
 11
82.44981
 21
13.22491
 31
 0
 0
LINE
 8
b
 10
0
 20
14.22491
 30
0
 11
82.44981
 21
14.22491
 31
 0
 0
LINE
 8
b
 10
0
 20
15.22491
 30
0
 11
82.44981
 21
15.22491
 31
 0
 0
LINE
 8
b
 10
0
 20
16.22491
 30
0
 11
82.44981
 21
16.22491
 31
 0
 0
LINE
 8
b
 10
0
 20
17.22491
 30
0
 11
82.44981
 21
17.22491
 31
 0
 0
LINE
 8
b
 10
0
 20
18.22491
 30
0
 11
82.44981
 21
18.22491
 31
 0
 0
LINE
 8
b
 10
0
 20
19.22491
 30
0
 11
82.44981
 21
19.22491
 31
 0
 0
LINE
 8
b
 10
0
 20
20.22491
 30
0
 11
82.44981
 21
20.22491
 31
 0
 0
LINE
 8
b
 10
0
 20
21.22491
 30
0
 11
82.44981
 21
21.22491
 31
 0
 0
LINE
 8
b
 10
0
 20
22.22491
 30
0
 11
82.44981
 21
22.22491
 31
 0
 0
LINE
 8
b
 10
0
 20
23.22491
 30
0
 11
82.44981
 21
23.22491
 31
 0
 0
LINE
 8
b
 10
0
 20
24.22491
 30
0
 11
82.44981
 21
24.22491
 31
 0
 0
LINE
 8
b
 10
0
 20
25.22491
 30
0
 11
82.44981
 21
25.22491
 31
 0
 0
LINE
 8
b
 10
0
 20
26.22491
 30
0
 11
82.44981
 21
26.22491
 31
 0
 0
LINE
 8
b
 10
0
 20
27.22491
 30
0
 11
82.44981
 21
27.22491
 31
 0
 0
LINE
 8
b
 10
0
 20
28.22491
 30
0
 11
82.44981
 21
28.22491
 31
 0
 0
LINE
 8
b
 10
0
 20
29.22491
 30
0
 11
82.44981
 21
29.22491
 31
 0
 0
LINE
 8
b
 10
0
 20
30.22491
 30
0
 11
82.44981
 21
30.22491
 31
 0
 0
LINE
 8
b
 10
0
 20
31.22491
 30
0
 11
82.44981
 21
31.22491
 31
 0
 0
LINE
 8
b
 10
0
 20
32.22491
 30
0
 11
82.44981
 21
32.22491
 31
 0
 0
LINE
 8
b
 10
0
 20
33.22491
 30
0
 11
82.44981
 21
33.22491
 31
 0
 0
LINE
 8
b
 10
0
 20
34.22491
 30
0
 11
82.44981
 21
34.22491
 31
 0
 0
LINE
 8
b
 10
0
 20
35.22491
 30
0
 11
82.44981
 21
35.22491
 31
 0
 0
LINE
 8
b
 10
0
 20
36.22491
 30
0
 11
82.44981
 21
36.22491
 31
 0
 0
LINE
 8
b
 10
0
 20
37.22491
 30
0
 11
82.44981
 21
37.22491
 31
 0
 0
LINE
 8
b
 10
0
 20
38.22491
 30
0
 11
82.44981
 21
38.22491
 31
 0
 0
LINE
 8
b
 10
0
 20
39.22491
 30
0
 11
82.44981
 21
39.22491
 31
 0
 0
LINE
 8
b
 10
0
 20
40.22491
 30
0
 11
82.44981
 21
40.22491
 31
 0
 0
LINE
 8
b
 10
0
 20
41.22491
 30
0
 11
82.44981
 21
41.22491
 31
 0
 0
LINE
 8
b
 10
0
 20
42.22491
 30
0
 11
82.44981
 21
42.22491
 31
 0
 0
LINE
 8
b
 10
0
 20
43.22491
 30
0
 11
82.44981
 21
43.22491
 31
 0
 0
LINE
 8
b
 10
0
 20
44.22491
 30
0
 11
82.44981
 21
44.22491
 31
 0
 0
LINE
 8
b
 10
0
 20
45.22491
 30
0
 11
82.44981
 21
45.22491
 31
 0
 0
LINE
 8
b
 10
0
 20
46.22491
 30
0
 11
82.44981
 21
46.22491
 31
 0
 0
LINE
 8
b
 10
0
 20
47.22491
 30
0
 11
82.44981
 21
47.22491
 31
 0
 0
LINE
 8
b
 10
0
 20
48.22491
 30
0
 11
82.44981
 21
48.22491
 31
 0
 0
LINE
 8
b
 10
0
 20
49.22491
 30
0
 11
82.44981
 21
49.22491
 31
 0
 0
LINE
 8
b
 10
0
 20
50.22491
 30
0
 11
82.44981
 21
50.22491
 31
 0
 0
LINE
 8
b
 10
0
 20
51.22491
 30
0
 11
82.44981
 21
51.22491
 31
 0
 0
LINE
 8
b
 10
0
 20
52.22491
 30
0
 11
82.44981
 21
52.22491
 31
 0
 0
LINE
 8
b
 10
0
 20
53.22491
 30
0
 11
82.44981
 21
53.22491
 31
 0
 0
LINE
 8
b
 10
0
 20
54.22491
 30
0
 11
82.44981
 21
54.22491
 31
 0
 0
LINE
 8
b
 10
0
 20
55.22491
 30
0
 11
82.44981
 21
55.22491
 31
 0
 0
LINE
 8
b
 10
0
 20
56.22491
 30
0
 11
82.44981
 21
56.22491
 31
 0
 0
LINE
 8
b
 10
0
 20
57.22491
 30
0
 11
82.44981
 21
57.22491
 31
 0
 0
LINE
 8
b
 10
0
 20
58.22491
 30
0
 11
82.44981
 21
58.22491
 31
 0
 0
LINE
 8
b
 10
0
 20
59.22491
 30
0
 11
82.44981
 21
59.22491
 31
 0
 0
LINE
 8
b
 10
0
 20
60.22491
 30
0
 11
82.44981
 21
60.22491
 31
 0
 0
LINE
 8
b
 10
0
 20
61.22491
 30
0
 11
82.44981
 21
61.22491
 31
 0
 0
LINE
 8
b
 10
0
 20
62.22491
 30
0
 11
82.44981
 21
62.22491
 31
 0
  0
POLYLINE
  8
a
  66
1
  10
0.0
  20
0.0
  70
1
  0
VERTEX
  8
a
  10
19.92687
  20
32.3554
  30
0.0
  70
0
  0
VERTEX
  8
a
  10
19.98148
  20
32.24614
  30
0.0
  70
0
  0
VERTEX
  8
a
  10
20.02708
  20
32.20669
  30
0.0
  70
0
  0
VERTEX
  8
a
  10
20.07113
  20
32.17955
  30
0.0
  70
0
  0
VERTEX
  8
a
  10
20.11437
  20
32.15911
  30
0.0
  70
0
  0
VERTEX
  8
a
  10
20.15707
  20
32.14317
  30
0.0
  70
0
  0
VERTEX
  8
a
  10
20.24143
  20
32.12063
  30
0.0
  70
0
  0
VERTEX
  8
a
  10
20.32482
  20
32.10703
  30
0.0
  70
0
  0
VERTEX
  8
a
  10
20.40752
  20
32.10005
  30
0.0
  70
0
  0
VERTEX
  8
a
  10
20.48971
  20
32.09838
  30
0.0
  70
0
  0
VERTEX
  8
a
  10
20.65336
  20
32.10249
  30
0.0
  70
0
  0
VERTEX
  8
a
  10
20.81867
  20
32.0882
  30
0.0
  70
0
  0
VERTEX
  8
a
  10
20.9851
  20
32.05997
  30
0.0
  70
0
  0
VERTEX
  8
a
  10
21.15222
  20
32.02082
  30
0.0
  70
0
  0
VERTEX
  8
a
  10
21.31978
  20
31.97211
  30
0.0
  70
0
  0
VERTEX
  8
a
  10
21.48756
  20
31.91469
  30
0.0
  70
0
  0
VERTEX
  8
a
  10
21.65538
  20
31.8491
  30
0.0
  70
0
  0
VERTEX
  8
a
  10
21.82305
  20
31.77576
  30
0.0
  70
0
  0
VERTEX
  8
a
  10
21.99042
  20
31.69495
  30
0.0
  70
0
  0
VERTEX
  8
a
  10
22.15733
  20
31.60692
  30
0.0
  70
0
  0
VERTEX
  8
a
  10
22.32361
  20
31.51187
  30
0.0
  70
0
  0
VERTEX
  8
a
  10
22.44783
  20
31.43607
  30
0.0
  70
0
  0
VERTEX
  8
a
  10
22.44783
  20
31.01375
  30
0.0
  70
0
  0
VERTEX
  8
a
  10
22.32361
  20
30.93794
  30
0.0
  70
0
  0
VERTEX
  8
a
  10
22.15733
  20
30.84289
  30
0.0
  70
0
  0
VERTEX
  8
a
  10
21.99042
  20
30.75486
  30
0.0
  70
0
  0
VERTEX
  8
a
  10
21.82305
  20
30.67406
  30
0.0
  70
0
  0
VERTEX
  8
a
  10
21.65538
  20
30.60071
  30
0.0
  70
0
  0
VERTEX
  8
a
  10
21.48756
  20
30.53512
  30
0.0
  70
0
  0
VERTEX
  8
a
  10
21.31978
  20
30.4777
  30
0.0
  70
0
  0
VERTEX
  8
a
  10
21.15222
  20
30.429
  30
0.0
  70
0
  0
VERTEX
  8
a
  10
20.9851
  20
30.38984
  30
0.0
  70
0
  0
VERTEX
  8
a
  10
20.81867
  20
30.36162
  30
0.0
  70
0
  0
VERTEX
  8
a
  10
20.65336
  20
30.34733
  30
0.0
  70
0
  0
VERTEX
  8
a
  10
20.48971
  20
30.35143
  30
0.0
  70
0
  0
VERTEX
  8
a
  10
20.40752
  20
30.34976
  30
0.0
  70
0
  0
VERTEX
  8
a
  10
20.32482
  20
30.34278
  30
0.0
  70
0
  0
VERTEX
  8
a
  10
20.24143
  20
30.32918
  30
0.0
  70
0
  0
VERTEX
  8
a
  10
20.15707
  20
30.30665
  30
0.0
  70
0
  0
VERTEX
  8
a
  10
20.11437
  20
30.2907
  30
0.0
  70
0
  0
VERTEX
  8
a
  10
20.07113
  20
30.27026
  30
0.0
  70
0
  0
VERTEX
  8
a
  10
20.02708
  20
30.24312
  30
0.0
  70
0
  0
VERTEX
  8
a
  10
19.98148
  20
30.20368
  30
0.0
  70
0
  0
VERTEX
  8
a
  10
19.92687
  20
30.09441
  30
0.0
  70
0
  0
VERTEX
  8
a
  10
19.85031
  20
29.61102
  30
0.0
  70
0
  0
VERTEX
  8
a
  10
19.86848
  20
29.49022
  30
0.0
  70
0
  0
VERTEX
  8
a
  10
19.89966
  20
29.43862
  30
0.0
  70
0
  0
VERTEX
  8
a
  10
19.93317
  20
29.39919
  30
0.0
  70
0
  0
VERTEX
  8
a
  10
19.96797
  20
29.36639
  30
0.0
  70
0
  0
VERTEX
  8
a
  10
20.00366
  20
29.33803
  30
0.0
  70
0
  0
VERTEX
  8
a
  10
20.07692
  20
29.29053
  30
0.0
  70
0
  0
VERTEX
  8
a
  10
20.15203
  20
29.25183
  30
0.0
  70
0
  0
VERTEX
  8
a
  10
20.22853
  20
29.21963
  30
0.0
  70
0
  0
VERTEX
  8
a
  10
20.30618
  20
29.19265
  30
0.0
  70
0
  0
VERTEX
  8
a
  10
20.46309
  20
29.14598
  30
0.0
  70
0
  0
VERTEX
  8
a
  10
20.61589
  20
29.08131
  30
0.0
  70
0
  0
VERTEX
  8
a
  10
20.76545
  20
29.00304
  30
0.0
  70
0
  0
VERTEX
  8
a
  10
20.91229
  20
28.91415
  30
0.0
  70
0
  0
VERTEX
  8
a
  10
21.0566
  20
28.81605
  30
0.0
  70
0
  0
VERTEX
  8
a
  10
21.19843
  20
28.7096
  30
0.0
  70
0
  0
VERTEX
  8
a
  10
21.33776
  20
28.59536
  30
0.0
  70
0
  0
VERTEX
  8
a
  10
21.47457
  20
28.47379
  30
0.0
  70
0
  0
VERTEX
  8
a
  10
21.60877
  20
28.34522
  30
0.0
  70
0
  0
VERTEX
  8
a
  10
21.74031
  20
28.20992
  30
0.0
  70
0
  0
VERTEX
  8
a
  10
21.86908
  20
28.06814
  30
0.0
  70
0
  0
VERTEX
  8
a
  10
21.96379
  20
27.95766
  30
0.0
  70
0
  0
VERTEX
  8
a
  10
21.83329
  20
27.55601
  30
0.0
  70
0
  0
VERTEX
  8
a
  10
21.69173
  20
27.5223
  30
0.0
  70
0
  0
VERTEX
  8
a
  10
21.50421
  20
27.48328
  30
0.0
  70
0
  0
VERTEX
  8
a
  10
21.31827
  20
27.45114
  30
0.0
  70
0
  0
VERTEX
  8
a
  10
21.13412
  20
27.42601
  30
0.0
  70
0
  0
VERTEX
  8
a
  10
20.95199
  20
27.40807
  30
0.0
  70
0
  0
VERTEX
  8
a
  10
20.77212
  20
27.39755
  30
0.0
  70
0
  0
VERTEX
  8
a
  10
20.5948
  20
27.39478
  30
0.0
  70
0
  0
VERTEX
  8
a
  10
20.42039
  20
27.40024
  30
0.0
  70
0
  0
VERTEX
  8
a
  10
20.24935
  20
27.41465
  30
0.0
  70
0
  0
VERTEX
  8
a
  10
20.08235
  20
27.43923
  30
0.0
  70
0
  0
VERTEX
  8
a
  10
19.92071
  20
27.47673
  30
0.0
  70
0
  0
VERTEX
  8
a
  10
19.76634
  20
27.5312
  30
0.0
  70
0
  0
VERTEX
  8
a
  10
19.68766
  20
27.55501
  30
0.0
  70
0
  0
VERTEX
  8
a
  10
19.60684
  20
27.57393
  30
0.0
  70
0
  0
VERTEX
  8
a
  10
19.52333
  20
27.58676
  30
0.0
  70
0
  0
VERTEX
  8
a
  10
19.43615
  20
27.5914
  30
0.0
  70
0
  0
VERTEX
  8
a
  10
19.3906
  20
27.58943
  30
0.0
  70
0
  0
VERTEX
  8
a
  10
19.34316
  20
27.58335
  30
0.0
  70
0
  0
VERTEX
  8
a
  10
19.29288
  20
27.57115
  30
0.0
  70
0
  0
VERTEX
  8
a
  10
19.23733
  20
27.54773
  30
0.0
  70
0
  0
VERTEX
  8
a
  10
19.15163
  20
27.46069
  30
0.0
  70
0
  0
VERTEX
  8
a
  10
18.92943
  20
27.02461
  30
0.0
  70
0
  0
VERTEX
  8
a
  10
18.90939
  20
26.90411
  30
0.0
  70
0
  0
VERTEX
  8
a
  10
18.92309
  20
26.8454
  30
0.0
  70
0
  0
VERTEX
  8
a
  10
18.94278
  20
26.79755
  30
0.0
  70
0
  0
VERTEX
  8
a
  10
18.96574
  20
26.7556
  30
0.0
  70
0
  0
VERTEX
  8
a
  10
18.99092
  20
26.7176
  30
0.0
  70
0
  0
VERTEX
  8
a
  10
19.04592
  20
26.64978
  30
0.0
  70
0
  0
VERTEX
  8
a
  10
19.10539
  20
26.58977
  30
0.0
  70
0
  0
VERTEX
  8
a
  10
19.1682
  20
26.53551
  30
0.0
  70
0
  0
VERTEX
  8
a
  10
19.2337
  20
26.48585
  30
0.0
  70
0
  0
VERTEX
  8
a
  10
19.36851
  20
26.39298
  30
0.0
  70
0
  0
VERTEX
  8
a
  10
19.49385
  20
26.28425
  30
0.0
  70
0
  0
VERTEX
  8
a
  10
19.61191
  20
26.16359
  30
0.0
  70
0
  0
VERTEX
  8
a
  10
19.7241
  20
26.03368
  30
0.0
  70
0
  0
VERTEX
  8
a
  10
19.83103
  20
25.89579
  30
0.0
  70
0
  0
VERTEX
  8
a
  10
19.93302
  20
25.75072
  30
0.0
  70
0
  0
VERTEX
  8
a
  10
20.03023
  20
25.59902
  30
0.0
  70
0
  0
VERTEX
  8
a
  10
20.12277
  20
25.44112
  30
0.0
  70
0
  0
VERTEX
  8
a
  10
20.21068
  20
25.27737
  30
0.0
  70
0
  0
VERTEX
  8
a
  10
20.29397
  20
25.10805
  30
0.0
  70
0
  0
VERTEX
  8
a
  10
20.37262
  20
24.93341
  30
0.0
  70
0
  0
VERTEX
  8
a
  10
20.42856
  20
24.79907
  30
0.0
  70
0
  0
VERTEX
  8
a
  10
20.18032
  20
24.45741
  30
0.0
  70
0
  0
VERTEX
  8
a
  10
20.03528
  20
24.46909
  30
0.0
  70
0
  0
VERTEX
  8
a
  10
19.84488
  20
24.48993
  30
0.0
  70
0
  0
VERTEX
  8
a
  10
19.65811
  20
24.51682
  30
0.0
  70
0
  0
VERTEX
  8
a
  10
19.47521
  20
24.54983
  30
0.0
  70
0
  0
VERTEX
  8
a
  10
19.29644
  20
24.58904
  30
0.0
  70
0
  0
VERTEX
  8
a
  10
19.12213
  20
24.63462
  30
0.0
  70
0
  0
VERTEX
  8
a
  10
18.95264
  20
24.68679
  30
0.0
  70
0
  0
VERTEX
  8
a
  10
18.78845
  20
24.74587
  30
0.0
  70
0
  0
VERTEX
  8
a
  10
18.63023
  20
24.81243
  30
0.0
  70
0
  0
VERTEX
  8
a
  10
18.479
  20
24.88742
  30
0.0
  70
0
  0
VERTEX
  8
a
  10
18.33686
  20
24.97302
  30
0.0
  70
0
  0
VERTEX
  8
a
  10
18.20688
  20
25.07254
  30
0.0
  70
0
  0
VERTEX
  8
a
  10
18.1394
  20
25.11949
  30
0.0
  70
0
  0
VERTEX
  8
a
  10
18.06839
  20
25.16246
  30
0.0
  70
0
  0
VERTEX
  8
a
  10
17.99293
  20
25.20047
  30
0.0
  70
0
  0
VERTEX
  8
a
  10
17.91144
  20
25.23182
  30
0.0
  70
0
  0
VERTEX
  8
a
  10
17.86752
  20
25.24403
  30
0.0
  70
0
  0
VERTEX
  8
a
  10
17.82053
  20
25.25291
  30
0.0
  70
0
  0
VERTEX
  8
a
  10
17.76893
  20
25.25684
  30
0.0
  70
0
  0
VERTEX
  8
a
  10
17.70886
  20
25.25173
  30
0.0
  70
0
  0
VERTEX
  8
a
  10
17.60046
  20
25.19543
  30
0.0
  70
0
  0
VERTEX
  8
a
  10
17.25438
  20
24.84936
  30
0.0
  70
0
  0
VERTEX
  8
a
  10
17.19809
  20
24.74095
  30
0.0
  70
0
  0
VERTEX
  8
a
  10
17.19297
  20
24.68088
  30
0.0
  70
0
  0
VERTEX
  8
a
  10
17.19691
  20
24.62929
  30
0.0
  70
0
  0
VERTEX
  8
a
  10
17.20579
  20
24.58229
  30
0.0
  70
0
  0
VERTEX
  8
a
  10
17.21799
  20
24.53837
  30
0.0
  70
0
  0
VERTEX
  8
a
  10
17.24934
  20
24.45688
  30
0.0
  70
0
  0
VERTEX
  8
a
  10
17.28735
  20
24.38142
  30
0.0
  70
0
  0
VERTEX
  8
a
  10
17.33032
  20
24.31041
  30
0.0
  70
0
  0
VERTEX
  8
a
  10
17.37728
  20
24.24294
  30
0.0
  70
0
  0
VERTEX
  8
a
  10
17.47679
  20
24.11296
  30
0.0
  70
0
  0
VERTEX
  8
a
  10
17.5624
  20
23.97082
  30
0.0
  70
0
  0
VERTEX
  8
a
  10
17.63739
  20
23.81959
  30
0.0
  70
0
  0
VERTEX
  8
a
  10
17.70394
  20
23.66136
  30
0.0
  70
0
  0
VERTEX
  8
a
  10
17.76303
  20
23.49718
  30
0.0
  70
0
  0
VERTEX
  8
a
  10
17.81519
  20
23.32769
  30
0.0
  70
0
  0
VERTEX
  8
a
  10
17.86077
  20
23.15337
  30
0.0
  70
0
  0
VERTEX
  8
a
  10
17.89999
  20
22.97461
  30
0.0
  70
0
  0
VERTEX
  8
a
  10
17.93299
  20
22.7917
  30
0.0
  70
0
  0
VERTEX
  8
a
  10
17.95988
  20
22.60493
  30
0.0
  70
0
  0
VERTEX
  8
a
  10
17.98072
  20
22.41454
  30
0.0
  70
0
  0
VERTEX
  8
a
  10
17.99241
  20
22.26949
  30
0.0
  70
0
  0
VERTEX
  8
a
  10
17.65074
  20
22.02126
  30
0.0
  70
0
  0
VERTEX
  8
a
  10
17.51641
  20
22.07719
  30
0.0
  70
0
  0
VERTEX
  8
a
  10
17.34177
  20
22.15585
  30
0.0
  70
0
  0
VERTEX
  8
a
  10
17.17245
  20
22.23914
  30
0.0
  70
0
  0
VERTEX
  8
a
  10
17.0087
  20
22.32704
  30
0.0
  70
0
  0
VERTEX
  8
a
  10
16.8508
  20
22.41958
  30
0.0
  70
0
  0
VERTEX
  8
a
  10
16.6991
  20
22.5168
  30
0.0
  70
0
  0
VERTEX
  8
a
  10
16.55402
  20
22.61878
  30
0.0
  70
0
  0
VERTEX
  8
a
  10
16.41613
  20
22.72572
  30
0.0
  70
0
  0
VERTEX
  8
a
  10
16.28622
  20
22.83791
  30
0.0
  70
0
  0
VERTEX
  8
a
  10
16.16556
  20
22.95596
  30
0.0
  70
0
  0
VERTEX
  8
a
  10
16.05684
  20
23.0813
  30
0.0
  70
0
  0
VERTEX
  8
a
  10
15.96397
  20
23.21611
  30
0.0
  70
0
  0
VERTEX
  8
a
  10
15.91431
  20
23.28162
  30
0.0
  70
0
  0
VERTEX
  8
a
  10
15.86005
  20
23.34443
  30
0.0
  70
0
  0
VERTEX
  8
a
  10
15.80003
  20
23.40389
  30
0.0
  70
0
  0
VERTEX
  8
a
  10
15.73222
  20
23.45889
  30
0.0
  70
0
  0
VERTEX
  8
a
  10
15.69421
  20
23.48407
  30
0.0
  70
0
  0
VERTEX
  8
a
  10
15.65226
  20
23.50704
  30
0.0
  70
0
  0
VERTEX
  8
a
  10
15.60441
  20
23.52672
  30
0.0
  70
0
  0
VERTEX
  8
a
  10
15.5457
  20
23.54043
  30
0.0
  70
0
  0
VERTEX
  8
a
  10
15.42521
  20
23.52038
  30
0.0
  70
0
  0
VERTEX
  8
a
  10
14.98913
  20
23.29819
  30
0.0
  70
0
  0
VERTEX
  8
a
  10
14.90209
  20
23.21249
  30
0.0
  70
0
  0
VERTEX
  8
a
  10
14.87866
  20
23.15693
  30
0.0
  70
0
  0
VERTEX
  8
a
  10
14.86646
  20
23.10665
  30
0.0
  70
0
  0
VERTEX
  8
a
  10
14.86038
  20
23.05921
  30
0.0
  70
0
  0
VERTEX
  8
a
  10
14.85842
  20
23.01367
  30
0.0
  70
0
  0
VERTEX
  8
a
  10
14.86305
  20
22.92648
  30
0.0
  70
0
  0
VERTEX
  8
a
  10
14.87588
  20
22.84297
  30
0.0
  70
0
  0
VERTEX
  8
a
  10
14.8948
  20
22.76215
  30
0.0
  70
0
  0
VERTEX
  8
a
  10
14.91861
  20
22.68347
  30
0.0
  70
0
  0
VERTEX
  8
a
  10
14.97309
  20
22.5291
  30
0.0
  70
0
  0
VERTEX
  8
a
  10
15.01058
  20
22.36747
  30
0.0
  70
0
  0
VERTEX
  8
a
  10
15.03517
  20
22.20046
  30
0.0
  70
0
  0
VERTEX
  8
a
  10
15.04957
  20
22.02942
  30
0.0
  70
0
  0
VERTEX
  8
a
  10
15.05503
  20
21.85501
  30
0.0
  70
0
  0
VERTEX
  8
a
  10
15.05227
  20
21.6777
  30
0.0
  70
0
  0
VERTEX
  8
a
  10
15.04175
  20
21.49783
  30
0.0
  70
0
  0
VERTEX
  8
a
  10
15.0238
  20
21.31569
  30
0.0
  70
0
  0
VERTEX
  8
a
  10
14.99867
  20
21.13154
  30
0.0
  70
0
  0
VERTEX
  8
a
  10
14.96653
  20
20.9456
  30
0.0
  70
0
  0
VERTEX
  8
a
  10
14.92751
  20
20.75809
  30
0.0
  70
0
  0
VERTEX
  8
a
  10
14.89381
  20
20.61653
  30
0.0
  70
0
  0
VERTEX
  8
a
  10
14.49216
  20
20.48602
  30
0.0
  70
0
  0
VERTEX
  8
a
  10
14.38168
  20
20.58073
  30
0.0
  70
0
  0
VERTEX
  8
a
  10
14.23989
  20
20.70951
  30
0.0
  70
0
  0
VERTEX
  8
a
  10
14.1046
  20
20.84104
  30
0.0
  70
0
  0
VERTEX
  8
a
  10
13.97603
  20
20.97525
  30
0.0
  70
0
  0
VERTEX
  8
a
  10
13.85445
  20
21.11205
  30
0.0
  70
0
  0
VERTEX
  8
a
  10
13.74022
  20
21.25139
  30
0.0
  70
0
  0
VERTEX
  8
a
  10
13.63376
  20
21.39321
  30
0.0
  70
0
  0
VERTEX
  8
a
  10
13.53566
  20
21.53752
  30
0.0
  70
0
  0
VERTEX
  8
a
  10
13.44678
  20
21.68436
  30
0.0
  70
0
  0
VERTEX
  8
a
  10
13.36851
  20
21.83392
  30
0.0
  70
0
  0
VERTEX
  8
a
  10
13.30383
  20
21.98673
  30
0.0
  70
0
  0
VERTEX
  8
a
  10
13.25717
  20
22.14364
  30
0.0
  70
0
  0
VERTEX
  8
a
  10
13.23018
  20
22.22128
  30
0.0
  70
0
  0
VERTEX
  8
a
  10
13.19799
  20
22.29779
  30
0.0
  70
0
  0
VERTEX
  8
a
  10
13.15928
  20
22.37289
  30
0.0
  70
0
  0
VERTEX
  8
a
  10
13.11178
  20
22.44615
  30
0.0
  70
0
  0
VERTEX
  8
a
  10
13.08342
  20
22.48184
  30
0.0
  70
0
  0
VERTEX
  8
a
  10
13.05062
  20
22.51665
  30
0.0
  70
0
  0
VERTEX
  8
a
  10
13.01119
  20
22.55016
  30
0.0
  70
0
  0
VERTEX
  8
a
  10
12.95959
  20
22.58133
  30
0.0
  70
0
  0
VERTEX
  8
a
  10
12.8388
  20
22.5995
  30
0.0
  70
0
  0
VERTEX
  8
a
  10
12.3554
  20
22.52294
  30
0.0
  70
0
  0
VERTEX
  8
a
  10
12.24614
  20
22.46833
  30
0.0
  70
0
  0
VERTEX
  8
a
  10
12.20669
  20
22.42274
  30
0.0
  70
0
  0
VERTEX
  8
a
  10
12.17955
  20
22.37868
  30
0.0
  70
0
  0
VERTEX
  8
a
  10
12.15911
  20
22.33545
  30
0.0
  70
0
  0
VERTEX
  8
a
  10
12.14317
  20
22.29274
  30
0.0
  70
0
  0
VERTEX
  8
a
  10
12.12063
  20
22.20838
  30
0.0
  70
0
  0
VERTEX
  8
a
  10
12.10703
  20
22.125
  30
0.0
  70
0
  0
VERTEX
  8
a
  10
12.10005
  20
22.04229
  30
0.0
  70
0
  0
VERTEX
  8
a
  10
12.09838
  20
21.9601
  30
0.0
  70
0
  0
VERTEX
  8
a
  10
12.10249
  20
21.79645
  30
0.0
  70
0
  0
VERTEX
  8
a
  10
12.0882
  20
21.63114
  30
0.0
  70
0
  0
VERTEX
  8
a
  10
12.05997
  20
21.46472
  30
0.0
  70
0
  0
VERTEX
  8
a
  10
12.02082
  20
21.29759
  30
0.0
  70
0
  0
VERTEX
  8
a
  10
11.97211
  20
21.13003
  30
0.0
  70
0
  0
VERTEX
  8
a
  10
11.91469
  20
20.96225
  30
0.0
  70
0
  0
VERTEX
  8
a
  10
11.8491
  20
20.79443
  30
0.0
  70
0
  0
VERTEX
  8
a
  10
11.77576
  20
20.62676
  30
0.0
  70
0
  0
VERTEX
  8
a
  10
11.69495
  20
20.45939
  30
0.0
  70
0
  0
VERTEX
  8
a
  10
11.60692
  20
20.29248
  30
0.0
  70
0
  0
VERTEX
  8
a
  10
11.51187
  20
20.1262
  30
0.0
  70
0
  0
VERTEX
  8
a
  10
11.43607
  20
20.00199
  30
0.0
  70
0
  0
VERTEX
  8
a
  10
11.01375
  20
20.00199
  30
0.0
  70
0
  0
VERTEX
  8
a
  10
10.93794
  20
20.1262
  30
0.0
  70
0
  0
VERTEX
  8
a
  10
10.84289
  20
20.29248
  30
0.0
  70
0
  0
VERTEX
  8
a
  10
10.75486
  20
20.45939
  30
0.0
  70
0
  0
VERTEX
  8
a
  10
10.67406
  20
20.62676
  30
0.0
  70
0
  0
VERTEX
  8
a
  10
10.60071
  20
20.79443
  30
0.0
  70
0
  0
VERTEX
  8
a
  10
10.53512
  20
20.96225
  30
0.0
  70
0
  0
VERTEX
  8
a
  10
10.4777
  20
21.13003
  30
0.0
  70
0
  0
VERTEX
  8
a
  10
10.429
  20
21.29759
  30
0.0
  70
0
  0
VERTEX
  8
a
  10
10.38984
  20
21.46472
  30
0.0
  70
0
  0
VERTEX
  8
a
  10
10.36162
  20
21.63114
  30
0.0
  70
0
  0
VERTEX
  8
a
  10
10.34733
  20
21.79645
  30
0.0
  70
0
  0
VERTEX
  8
a
  10
10.35143
  20
21.9601
  30
0.0
  70
0
  0
VERTEX
  8
a
  10
10.34976
  20
22.04229
  30
0.0
  70
0
  0
VERTEX
  8
a
  10
10.34278
  20
22.125
  30
0.0
  70
0
  0
VERTEX
  8
a
  10
10.32918
  20
22.20838
  30
0.0
  70
0
  0
VERTEX
  8
a
  10
10.30665
  20
22.29274
  30
0.0
  70
0
  0
VERTEX
  8
a
  10
10.2907
  20
22.33545
  30
0.0
  70
0
  0
VERTEX
  8
a
  10
10.27026
  20
22.37868
  30
0.0
  70
0
  0
VERTEX
  8
a
  10
10.24312
  20
22.42274
  30
0.0
  70
0
  0
VERTEX
  8
a
  10
10.20368
  20
22.46833
  30
0.0
  70
0
  0
VERTEX
  8
a
  10
10.09441
  20
22.52294
  30
0.0
  70
0
  0
VERTEX
  8
a
  10
9.61102
  20
22.5995
  30
0.0
  70
0
  0
VERTEX
  8
a
  10
9.49022
  20
22.58133
  30
0.0
  70
0
  0
VERTEX
  8
a
  10
9.43862
  20
22.55016
  30
0.0
  70
0
  0
VERTEX
  8
a
  10
9.39919
  20
22.51665
  30
0.0
  70
0
  0
VERTEX
  8
a
  10
9.36639
  20
22.48184
  30
0.0
  70
0
  0
VERTEX
  8
a
  10
9.33803
  20
22.44615
  30
0.0
  70
0
  0
VERTEX
  8
a
  10
9.29053
  20
22.37289
  30
0.0
  70
0
  0
VERTEX
  8
a
  10
9.25183
  20
22.29779
  30
0.0
  70
0
  0
VERTEX
  8
a
  10
9.21963
  20
22.22128
  30
0.0
  70
0
  0
VERTEX
  8
a
  10
9.19265
  20
22.14364
  30
0.0
  70
0
  0
VERTEX
  8
a
  10
9.14598
  20
21.98673
  30
0.0
  70
0
  0
VERTEX
  8
a
  10
9.08131
  20
21.83392
  30
0.0
  70
0
  0
VERTEX
  8
a
  10
9.00304
  20
21.68436
  30
0.0
  70
0
  0
VERTEX
  8
a
  10
8.91415
  20
21.53752
  30
0.0
  70
0
  0
VERTEX
  8
a
  10
8.81605
  20
21.39321
  30
0.0
  70
0
  0
VERTEX
  8
a
  10
8.7096
  20
21.25139
  30
0.0
  70
0
  0
VERTEX
  8
a
  10
8.59536
  20
21.11205
  30
0.0
  70
0
  0
VERTEX
  8
a
  10
8.47379
  20
20.97525
  30
0.0
  70
0
  0
VERTEX
  8
a
  10
8.34522
  20
20.84104
  30
0.0
  70
0
  0
VERTEX
  8
a
  10
8.20992
  20
20.70951
  30
0.0
  70
0
  0
VERTEX
  8
a
  10
8.06814
  20
20.58073
  30
0.0
  70
0
  0
VERTEX
  8
a
  10
7.95766
  20
20.48602
  30
0.0
  70
0
  0
VERTEX
  8
a
  10
7.55601
  20
20.61653
  30
0.0
  70
0
  0
VERTEX
  8
a
  10
7.5223
  20
20.75809
  30
0.0
  70
0
  0
VERTEX
  8
a
  10
7.48328
  20
20.9456
  30
0.0
  70
0
  0
VERTEX
  8
a
  10
7.45114
  20
21.13154
  30
0.0
  70
0
  0
VERTEX
  8
a
  10
7.42601
  20
21.31569
  30
0.0
  70
0
  0
VERTEX
  8
a
  10
7.40807
  20
21.49783
  30
0.0
  70
0
  0
VERTEX
  8
a
  10
7.39755
  20
21.6777
  30
0.0
  70
0
  0
VERTEX
  8
a
  10
7.39478
  20
21.85501
  30
0.0
  70
0
  0
VERTEX
  8
a
  10
7.40024
  20
22.02942
  30
0.0
  70
0
  0
VERTEX
  8
a
  10
7.41465
  20
22.20046
  30
0.0
  70
0
  0
VERTEX
  8
a
  10
7.43923
  20
22.36747
  30
0.0
  70
0
  0
VERTEX
  8
a
  10
7.47673
  20
22.5291
  30
0.0
  70
0
  0
VERTEX
  8
a
  10
7.5312
  20
22.68347
  30
0.0
  70
0
  0
VERTEX
  8
a
  10
7.55501
  20
22.76215
  30
0.0
  70
0
  0
VERTEX
  8
a
  10
7.57393
  20
22.84297
  30
0.0
  70
0
  0
VERTEX
  8
a
  10
7.58676
  20
22.92648
  30
0.0
  70
0
  0
VERTEX
  8
a
  10
7.5914
  20
23.01367
  30
0.0
  70
0
  0
VERTEX
  8
a
  10
7.58943
  20
23.05921
  30
0.0
  70
0
  0
VERTEX
  8
a
  10
7.58335
  20
23.10665
  30
0.0
  70
0
  0
VERTEX
  8
a
  10
7.57115
  20
23.15693
  30
0.0
  70
0
  0
VERTEX
  8
a
  10
7.54773
  20
23.21249
  30
0.0
  70
0
  0
VERTEX
  8
a
  10
7.46069
  20
23.29819
  30
0.0
  70
0
  0
VERTEX
  8
a
  10
7.02461
  20
23.52038
  30
0.0
  70
0
  0
VERTEX
  8
a
  10
6.90411
  20
23.54043
  30
0.0
  70
0
  0
VERTEX
  8
a
  10
6.8454
  20
23.52672
  30
0.0
  70
0
  0
VERTEX
  8
a
  10
6.79755
  20
23.50704
  30
0.0
  70
0
  0
VERTEX
  8
a
  10
6.7556
  20
23.48407
  30
0.0
  70
0
  0
VERTEX
  8
a
  10
6.7176
  20
23.45889
  30
0.0
  70
0
  0
VERTEX
  8
a
  10
6.64978
  20
23.40389
  30
0.0
  70
0
  0
VERTEX
  8
a
  10
6.58977
  20
23.34443
  30
0.0
  70
0
  0
VERTEX
  8
a
  10
6.53551
  20
23.28162
  30
0.0
  70
0
  0
VERTEX
  8
a
  10
6.48585
  20
23.21611
  30
0.0
  70
0
  0
VERTEX
  8
a
  10
6.39298
  20
23.0813
  30
0.0
  70
0
  0
VERTEX
  8
a
  10
6.28425
  20
22.95596
  30
0.0
  70
0
  0
VERTEX
  8
a
  10
6.16359
  20
22.83791
  30
0.0
  70
0
  0
VERTEX
  8
a
  10
6.03368
  20
22.72572
  30
0.0
  70
0
  0
VERTEX
  8
a
  10
5.89579
  20
22.61878
  30
0.0
  70
0
  0
VERTEX
  8
a
  10
5.75072
  20
22.5168
  30
0.0
  70
0
  0
VERTEX
  8
a
  10
5.59902
  20
22.41958
  30
0.0
  70
0
  0
VERTEX
  8
a
  10
5.44112
  20
22.32704
  30
0.0
  70
0
  0
VERTEX
  8
a
  10
5.27737
  20
22.23914
  30
0.0
  70
0
  0
VERTEX
  8
a
  10
5.10805
  20
22.15585
  30
0.0
  70
0
  0
VERTEX
  8
a
  10
4.93341
  20
22.07719
  30
0.0
  70
0
  0
VERTEX
  8
a
  10
4.79907
  20
22.02126
  30
0.0
  70
0
  0
VERTEX
  8
a
  10
4.45741
  20
22.26949
  30
0.0
  70
0
  0
VERTEX
  8
a
  10
4.46909
  20
22.41454
  30
0.0
  70
0
  0
VERTEX
  8
a
  10
4.48993
  20
22.60493
  30
0.0
  70
0
  0
VERTEX
  8
a
  10
4.51682
  20
22.7917
  30
0.0
  70
0
  0
VERTEX
  8
a
  10
4.54983
  20
22.97461
  30
0.0
  70
0
  0
VERTEX
  8
a
  10
4.58904
  20
23.15337
  30
0.0
  70
0
  0
VERTEX
  8
a
  10
4.63462
  20
23.32769
  30
0.0
  70
0
  0
VERTEX
  8
a
  10
4.68679
  20
23.49718
  30
0.0
  70
0
  0
VERTEX
  8
a
  10
4.74587
  20
23.66136
  30
0.0
  70
0
  0
VERTEX
  8
a
  10
4.81243
  20
23.81959
  30
0.0
  70
0
  0
VERTEX
  8
a
  10
4.88742
  20
23.97082
  30
0.0
  70
0
  0
VERTEX
  8
a
  10
4.97302
  20
24.11296
  30
0.0
  70
0
  0
VERTEX
  8
a
  10
5.07254
  20
24.24294
  30
0.0
  70
0
  0
VERTEX
  8
a
  10
5.11949
  20
24.31041
  30
0.0
  70
0
  0
VERTEX
  8
a
  10
5.16246
  20
24.38142
  30
0.0
  70
0
  0
VERTEX
  8
a
  10
5.20047
  20
24.45688
  30
0.0
  70
0
  0
VERTEX
  8
a
  10
5.23182
  20
24.53837
  30
0.0
  70
0
  0
VERTEX
  8
a
  10
5.24403
  20
24.58229
  30
0.0
  70
0
  0
VERTEX
  8
a
  10
5.25291
  20
24.62929
  30
0.0
  70
0
  0
VERTEX
  8
a
  10
5.25684
  20
24.68088
  30
0.0
  70
0
  0
VERTEX
  8
a
  10
5.25173
  20
24.74095
  30
0.0
  70
0
  0
VERTEX
  8
a
  10
5.19543
  20
24.84936
  30
0.0
  70
0
  0
VERTEX
  8
a
  10
4.84936
  20
25.19543
  30
0.0
  70
0
  0
VERTEX
  8
a
  10
4.74095
  20
25.25173
  30
0.0
  70
0
  0
VERTEX
  8
a
  10
4.68088
  20
25.25684
  30
0.0
  70
0
  0
VERTEX
  8
a
  10
4.62929
  20
25.25291
  30
0.0
  70
0
  0
VERTEX
  8
a
  10
4.58229
  20
25.24403
  30
0.0
  70
0
  0
VERTEX
  8
a
  10
4.53837
  20
25.23182
  30
0.0
  70
0
  0
VERTEX
  8
a
  10
4.45688
  20
25.20047
  30
0.0
  70
0
  0
VERTEX
  8
a
  10
4.38142
  20
25.16246
  30
0.0
  70
0
  0
VERTEX
  8
a
  10
4.31041
  20
25.11949
  30
0.0
  70
0
  0
VERTEX
  8
a
  10
4.24294
  20
25.07254
  30
0.0
  70
0
  0
VERTEX
  8
a
  10
4.11296
  20
24.97302
  30
0.0
  70
0
  0
VERTEX
  8
a
  10
3.97082
  20
24.88742
  30
0.0
  70
0
  0
VERTEX
  8
a
  10
3.81959
  20
24.81243
  30
0.0
  70
0
  0
VERTEX
  8
a
  10
3.66136
  20
24.74587
  30
0.0
  70
0
  0
VERTEX
  8
a
  10
3.49718
  20
24.68679
  30
0.0
  70
0
  0
VERTEX
  8
a
  10
3.32769
  20
24.63462
  30
0.0
  70
0
  0
VERTEX
  8
a
  10
3.15337
  20
24.58904
  30
0.0
  70
0
  0
VERTEX
  8
a
  10
2.97461
  20
24.54983
  30
0.0
  70
0
  0
VERTEX
  8
a
  10
2.7917
  20
24.51682
  30
0.0
  70
0
  0
VERTEX
  8
a
  10
2.60493
  20
24.48993
  30
0.0
  70
0
  0
VERTEX
  8
a
  10
2.41454
  20
24.46909
  30
0.0
  70
0
  0
VERTEX
  8
a
  10
2.26949
  20
24.45741
  30
0.0
  70
0
  0
VERTEX
  8
a
  10
2.02126
  20
24.79907
  30
0.0
  70
0
  0
VERTEX
  8
a
  10
2.07719
  20
24.93341
  30
0.0
  70
0
  0
VERTEX
  8
a
  10
2.15585
  20
25.10805
  30
0.0
  70
0
  0
VERTEX
  8
a
  10
2.23914
  20
25.27737
  30
0.0
  70
0
  0
VERTEX
  8
a
  10
2.32704
  20
25.44112
  30
0.0
  70
0
  0
VERTEX
  8
a
  10
2.41958
  20
25.59902
  30
0.0
  70
0
  0
VERTEX
  8
a
  10
2.5168
  20
25.75072
  30
0.0
  70
0
  0
VERTEX
  8
a
  10
2.61878
  20
25.89579
  30
0.0
  70
0
  0
VERTEX
  8
a
  10
2.72572
  20
26.03368
  30
0.0
  70
0
  0
VERTEX
  8
a
  10
2.83791
  20
26.16359
  30
0.0
  70
0
  0
VERTEX
  8
a
  10
2.95596
  20
26.28425
  30
0.0
  70
0
  0
VERTEX
  8
a
  10
3.0813
  20
26.39298
  30
0.0
  70
0
  0
VERTEX
  8
a
  10
3.21611
  20
26.48585
  30
0.0
  70
0
  0
VERTEX
  8
a
  10
3.28162
  20
26.53551
  30
0.0
  70
0
  0
VERTEX
  8
a
  10
3.34443
  20
26.58977
  30
0.0
  70
0
  0
VERTEX
  8
a
  10
3.40389
  20
26.64978
  30
0.0
  70
0
  0
VERTEX
  8
a
  10
3.45889
  20
26.7176
  30
0.0
  70
0
  0
VERTEX
  8
a
  10
3.48407
  20
26.7556
  30
0.0
  70
0
  0
VERTEX
  8
a
  10
3.50704
  20
26.79755
  30
0.0
  70
0
  0
VERTEX
  8
a
  10
3.52672
  20
26.8454
  30
0.0
  70
0
  0
VERTEX
  8
a
  10
3.54043
  20
26.90411
  30
0.0
  70
0
  0
VERTEX
  8
a
  10
3.52038
  20
27.02461
  30
0.0
  70
0
  0
VERTEX
  8
a
  10
3.29819
  20
27.46069
  30
0.0
  70
0
  0
VERTEX
  8
a
  10
3.21249
  20
27.54773
  30
0.0
  70
0
  0
VERTEX
  8
a
  10
3.15693
  20
27.57115
  30
0.0
  70
0
  0
VERTEX
  8
a
  10
3.10665
  20
27.58335
  30
0.0
  70
0
  0
VERTEX
  8
a
  10
3.05921
  20
27.58943
  30
0.0
  70
0
  0
VERTEX
  8
a
  10
3.01367
  20
27.5914
  30
0.0
  70
0
  0
VERTEX
  8
a
  10
2.92648
  20
27.58676
  30
0.0
  70
0
  0
VERTEX
  8
a
  10
2.84297
  20
27.57393
  30
0.0
  70
0
  0
VERTEX
  8
a
  10
2.76215
  20
27.55501
  30
0.0
  70
0
  0
VERTEX
  8
a
  10
2.68347
  20
27.5312
  30
0.0
  70
0
  0
VERTEX
  8
a
  10
2.5291
  20
27.47673
  30
0.0
  70
0
  0
VERTEX
  8
a
  10
2.36747
  20
27.43923
  30
0.0
  70
0
  0
VERTEX
  8
a
  10
2.20046
  20
27.41465
  30
0.0
  70
0
  0
VERTEX
  8
a
  10
2.02942
  20
27.40024
  30
0.0
  70
0
  0
VERTEX
  8
a
  10
1.85501
  20
27.39478
  30
0.0
  70
0
  0
VERTEX
  8
a
  10
1.6777
  20
27.39755
  30
0.0
  70
0
  0
VERTEX
  8
a
  10
1.49783
  20
27.40807
  30
0.0
  70
0
  0
VERTEX
  8
a
  10
1.31569
  20
27.42601
  30
0.0
  70
0
  0
VERTEX
  8
a
  10
1.13154
  20
27.45114
  30
0.0
  70
0
  0
VERTEX
  8
a
  10
0.9456
  20
27.48328
  30
0.0
  70
0
  0
VERTEX
  8
a
  10
0.75809
  20
27.5223
  30
0.0
  70
0
  0
VERTEX
  8
a
  10
0.61653
  20
27.55601
  30
0.0
  70
0
  0
VERTEX
  8
a
  10
0.48602
  20
27.95766
  30
0.0
  70
0
  0
VERTEX
  8
a
  10
0.58073
  20
28.06814
  30
0.0
  70
0
  0
VERTEX
  8
a
  10
0.70951
  20
28.20992
  30
0.0
  70
0
  0
VERTEX
  8
a
  10
0.84104
  20
28.34522
  30
0.0
  70
0
  0
VERTEX
  8
a
  10
0.97525
  20
28.47379
  30
0.0
  70
0
  0
VERTEX
  8
a
  10
1.11205
  20
28.59536
  30
0.0
  70
0
  0
VERTEX
  8
a
  10
1.25139
  20
28.7096
  30
0.0
  70
0
  0
VERTEX
  8
a
  10
1.39321
  20
28.81605
  30
0.0
  70
0
  0
VERTEX
  8
a
  10
1.53752
  20
28.91415
  30
0.0
  70
0
  0
VERTEX
  8
a
  10
1.68436
  20
29.00304
  30
0.0
  70
0
  0
VERTEX
  8
a
  10
1.83392
  20
29.08131
  30
0.0
  70
0
  0
VERTEX
  8
a
  10
1.98673
  20
29.14598
  30
0.0
  70
0
  0
VERTEX
  8
a
  10
2.14364
  20
29.19265
  30
0.0
  70
0
  0
VERTEX
  8
a
  10
2.22128
  20
29.21963
  30
0.0
  70
0
  0
VERTEX
  8
a
  10
2.29779
  20
29.25183
  30
0.0
  70
0
  0
VERTEX
  8
a
  10
2.37289
  20
29.29053
  30
0.0
  70
0
  0
VERTEX
  8
a
  10
2.44615
  20
29.33803
  30
0.0
  70
0
  0
VERTEX
  8
a
  10
2.48184
  20
29.36639
  30
0.0
  70
0
  0
VERTEX
  8
a
  10
2.51665
  20
29.39919
  30
0.0
  70
0
  0
VERTEX
  8
a
  10
2.55016
  20
29.43862
  30
0.0
  70
0
  0
VERTEX
  8
a
  10
2.58133
  20
29.49022
  30
0.0
  70
0
  0
VERTEX
  8
a
  10
2.5995
  20
29.61102
  30
0.0
  70
0
  0
VERTEX
  8
a
  10
2.52294
  20
30.09441
  30
0.0
  70
0
  0
VERTEX
  8
a
  10
2.46833
  20
30.20368
  30
0.0
  70
0
  0
VERTEX
  8
a
  10
2.42274
  20
30.24312
  30
0.0
  70
0
  0
VERTEX
  8
a
  10
2.37868
  20
30.27026
  30
0.0
  70
0
  0
VERTEX
  8
a
  10
2.33545
  20
30.2907
  30
0.0
  70
0
  0
VERTEX
  8
a
  10
2.29274
  20
30.30665
  30
0.0
  70
0
  0
VERTEX
  8
a
  10
2.20838
  20
30.32918
  30
0.0
  70
0
  0
VERTEX
  8
a
  10
2.125
  20
30.34278
  30
0.0
  70
0
  0
VERTEX
  8
a
  10
2.04229
  20
30.34976
  30
0.0
  70
0
  0
VERTEX
  8
a
  10
1.9601
  20
30.35143
  30
0.0
  70
0
  0
VERTEX
  8
a
  10
1.79645
  20
30.34733
  30
0.0
  70
0
  0
VERTEX
  8
a
  10
1.63114
  20
30.36162
  30
0.0
  70
0
  0
VERTEX
  8
a
  10
1.46472
  20
30.38984
  30
0.0
  70
0
  0
VERTEX
  8
a
  10
1.29759
  20
30.429
  30
0.0
  70
0
  0
VERTEX
  8
a
  10
1.13003
  20
30.4777
  30
0.0
  70
0
  0
VERTEX
  8
a
  10
0.96225
  20
30.53512
  30
0.0
  70
0
  0
VERTEX
  8
a
  10
0.79443
  20
30.60071
  30
0.0
  70
0
  0
VERTEX
  8
a
  10
0.62676
  20
30.67406
  30
0.0
  70
0
  0
VERTEX
  8
a
  10
0.45939
  20
30.75486
  30
0.0
  70
0
  0
VERTEX
  8
a
  10
0.29248
  20
30.84289
  30
0.0
  70
0
  0
VERTEX
  8
a
  10
0.1262
  20
30.93794
  30
0.0
  70
0
  0
VERTEX
  8
a
  10
0.00199
  20
31.01375
  30
0.0
  70
0
  0
VERTEX
  8
a
  10
0.00199
  20
31.43607
  30
0.0
  70
0
  0
VERTEX
  8
a
  10
0.1262
  20
31.51187
  30
0.0
  70
0
  0
VERTEX
  8
a
  10
0.29248
  20
31.60692
  30
0.0
  70
0
  0
VERTEX
  8
a
  10
0.45939
  20
31.69495
  30
0.0
  70
0
  0
VERTEX
  8
a
  10
0.62676
  20
31.77576
  30
0.0
  70
0
  0
VERTEX
  8
a
  10
0.79443
  20
31.8491
  30
0.0
  70
0
  0
VERTEX
  8
a
  10
0.96225
  20
31.91469
  30
0.0
  70
0
  0
VERTEX
  8
a
  10
1.13003
  20
31.97211
  30
0.0
  70
0
  0
VERTEX
  8
a
  10
1.29759
  20
32.02082
  30
0.0
  70
0
  0
VERTEX
  8
a
  10
1.46472
  20
32.05997
  30
0.0
  70
0
  0
VERTEX
  8
a
  10
1.63114
  20
32.0882
  30
0.0
  70
0
  0
VERTEX
  8
a
  10
1.79645
  20
32.10249
  30
0.0
  70
0
  0
VERTEX
  8
a
  10
1.9601
  20
32.09838
  30
0.0
  70
0
  0
VERTEX
  8
a
  10
2.04229
  20
32.10005
  30
0.0
  70
0
  0
VERTEX
  8
a
  10
2.125
  20
32.10703
  30
0.0
  70
0
  0
VERTEX
  8
a
  10
2.20838
  20
32.12063
  30
0.0
  70
0
  0
VERTEX
  8
a
  10
2.29274
  20
32.14317
  30
0.0
  70
0
  0
VERTEX
  8
a
  10
2.33545
  20
32.15911
  30
0.0
  70
0
  0
VERTEX
  8
a
  10
2.37868
  20
32.17955
  30
0.0
  70
0
  0
VERTEX
  8
a
  10
2.42274
  20
32.20669
  30
0.0
  70
0
  0
VERTEX
  8
a
  10
2.46833
  20
32.24614
  30
0.0
  70
0
  0
VERTEX
  8
a
  10
2.52294
  20
32.3554
  30
0.0
  70
0
  0
VERTEX
  8
a
  10
2.5995
  20
32.8388
  30
0.0
  70
0
  0
VERTEX
  8
a
  10
2.58133
  20
32.95959
  30
0.0
  70
0
  0
VERTEX
  8
a
  10
2.55016
  20
33.01119
  30
0.0
  70
0
  0
VERTEX
  8
a
  10
2.51665
  20
33.05062
  30
0.0
  70
0
  0
VERTEX
  8
a
  10
2.48184
  20
33.08342
  30
0.0
  70
0
  0
VERTEX
  8
a
  10
2.44615
  20
33.11178
  30
0.0
  70
0
  0
VERTEX
  8
a
  10
2.37289
  20
33.15928
  30
0.0
  70
0
  0
VERTEX
  8
a
  10
2.29779
  20
33.19799
  30
0.0
  70
0
  0
VERTEX
  8
a
  10
2.22128
  20
33.23018
  30
0.0
  70
0
  0
VERTEX
  8
a
  10
2.14364
  20
33.25717
  30
0.0
  70
0
  0
VERTEX
  8
a
  10
1.98673
  20
33.30383
  30
0.0
  70
0
  0
VERTEX
  8
a
  10
1.83392
  20
33.36851
  30
0.0
  70
0
  0
VERTEX
  8
a
  10
1.68436
  20
33.44678
  30
0.0
  70
0
  0
VERTEX
  8
a
  10
1.53752
  20
33.53566
  30
0.0
  70
0
  0
VERTEX
  8
a
  10
1.39321
  20
33.63376
  30
0.0
  70
0
  0
VERTEX
  8
a
  10
1.25139
  20
33.74022
  30
0.0
  70
0
  0
VERTEX
  8
a
  10
1.11205
  20
33.85445
  30
0.0
  70
0
  0
VERTEX
  8
a
  10
0.97525
  20
33.97603
  30
0.0
  70
0
  0
VERTEX
  8
a
  10
0.84104
  20
34.1046
  30
0.0
  70
0
  0
VERTEX
  8
a
  10
0.70951
  20
34.23989
  30
0.0
  70
0
  0
VERTEX
  8
a
  10
0.58073
  20
34.38168
  30
0.0
  70
0
  0
VERTEX
  8
a
  10
0.48602
  20
34.49216
  30
0.0
  70
0
  0
VERTEX
  8
a
  10
0.61653
  20
34.89381
  30
0.0
  70
0
  0
VERTEX
  8
a
  10
0.75809
  20
34.92751
  30
0.0
  70
0
  0
VERTEX
  8
a
  10
0.9456
  20
34.96653
  30
0.0
  70
0
  0
VERTEX
  8
a
  10
1.13154
  20
34.99867
  30
0.0
  70
0
  0
VERTEX
  8
a
  10
1.31569
  20
35.0238
  30
0.0
  70
0
  0
VERTEX
  8
a
  10
1.49783
  20
35.04175
  30
0.0
  70
0
  0
VERTEX
  8
a
  10
1.6777
  20
35.05227
  30
0.0
  70
0
  0
VERTEX
  8
a
  10
1.85501
  20
35.05503
  30
0.0
  70
0
  0
VERTEX
  8
a
  10
2.02942
  20
35.04957
  30
0.0
  70
0
  0
VERTEX
  8
a
  10
2.20046
  20
35.03517
  30
0.0
  70
0
  0
VERTEX
  8
a
  10
2.36747
  20
35.01058
  30
0.0
  70
0
  0
VERTEX
  8
a
  10
2.5291
  20
34.97309
  30
0.0
  70
0
  0
VERTEX
  8
a
  10
2.68347
  20
34.91861
  30
0.0
  70
0
  0
VERTEX
  8
a
  10
2.76215
  20
34.8948
  30
0.0
  70
0
  0
VERTEX
  8
a
  10
2.84297
  20
34.87588
  30
0.0
  70
0
  0
VERTEX
  8
a
  10
2.92648
  20
34.86305
  30
0.0
  70
0
  0
VERTEX
  8
a
  10
3.01367
  20
34.85842
  30
0.0
  70
0
  0
VERTEX
  8
a
  10
3.05921
  20
34.86038
  30
0.0
  70
0
  0
VERTEX
  8
a
  10
3.10665
  20
34.86646
  30
0.0
  70
0
  0
VERTEX
  8
a
  10
3.15693
  20
34.87866
  30
0.0
  70
0
  0
VERTEX
  8
a
  10
3.21249
  20
34.90209
  30
0.0
  70
0
  0
VERTEX
  8
a
  10
3.29819
  20
34.98913
  30
0.0
  70
0
  0
VERTEX
  8
a
  10
3.52038
  20
35.42521
  30
0.0
  70
0
  0
VERTEX
  8
a
  10
3.54043
  20
35.5457
  30
0.0
  70
0
  0
VERTEX
  8
a
  10
3.52672
  20
35.60441
  30
0.0
  70
0
  0
VERTEX
  8
a
  10
3.50704
  20
35.65226
  30
0.0
  70
0
  0
VERTEX
  8
a
  10
3.48407
  20
35.69421
  30
0.0
  70
0
  0
VERTEX
  8
a
  10
3.45889
  20
35.73222
  30
0.0
  70
0
  0
VERTEX
  8
a
  10
3.40389
  20
35.80003
  30
0.0
  70
0
  0
VERTEX
  8
a
  10
3.34443
  20
35.86005
  30
0.0
  70
0
  0
VERTEX
  8
a
  10
3.28162
  20
35.91431
  30
0.0
  70
0
  0
VERTEX
  8
a
  10
3.21611
  20
35.96397
  30
0.0
  70
0
  0
VERTEX
  8
a
  10
3.0813
  20
36.05684
  30
0.0
  70
0
  0
VERTEX
  8
a
  10
2.95596
  20
36.16556
  30
0.0
  70
0
  0
VERTEX
  8
a
  10
2.83791
  20
36.28622
  30
0.0
  70
0
  0
VERTEX
  8
a
  10
2.72572
  20
36.41613
  30
0.0
  70
0
  0
VERTEX
  8
a
  10
2.61878
  20
36.55402
  30
0.0
  70
0
  0
VERTEX
  8
a
  10
2.5168
  20
36.6991
  30
0.0
  70
0
  0
VERTEX
  8
a
  10
2.41958
  20
36.8508
  30
0.0
  70
0
  0
VERTEX
  8
a
  10
2.32704
  20
37.0087
  30
0.0
  70
0
  0
VERTEX
  8
a
  10
2.23914
  20
37.17245
  30
0.0
  70
0
  0
VERTEX
  8
a
  10
2.15585
  20
37.34177
  30
0.0
  70
0
  0
VERTEX
  8
a
  10
2.07719
  20
37.51641
  30
0.0
  70
0
  0
VERTEX
  8
a
  10
2.02126
  20
37.65074
  30
0.0
  70
0
  0
VERTEX
  8
a
  10
2.26949
  20
37.99241
  30
0.0
  70
0
  0
VERTEX
  8
a
  10
2.41454
  20
37.98072
  30
0.0
  70
0
  0
VERTEX
  8
a
  10
2.60493
  20
37.95988
  30
0.0
  70
0
  0
VERTEX
  8
a
  10
2.7917
  20
37.93299
  30
0.0
  70
0
  0
VERTEX
  8
a
  10
2.97461
  20
37.89999
  30
0.0
  70
0
  0
VERTEX
  8
a
  10
3.15337
  20
37.86077
  30
0.0
  70
0
  0
VERTEX
  8
a
  10
3.32769
  20
37.81519
  30
0.0
  70
0
  0
VERTEX
  8
a
  10
3.49718
  20
37.76303
  30
0.0
  70
0
  0
VERTEX
  8
a
  10
3.66136
  20
37.70394
  30
0.0
  70
0
  0
VERTEX
  8
a
  10
3.81959
  20
37.63739
  30
0.0
  70
0
  0
VERTEX
  8
a
  10
3.97082
  20
37.5624
  30
0.0
  70
0
  0
VERTEX
  8
a
  10
4.11296
  20
37.47679
  30
0.0
  70
0
  0
VERTEX
  8
a
  10
4.24294
  20
37.37728
  30
0.0
  70
0
  0
VERTEX
  8
a
  10
4.31041
  20
37.33032
  30
0.0
  70
0
  0
VERTEX
  8
a
  10
4.38142
  20
37.28735
  30
0.0
  70
0
  0
VERTEX
  8
a
  10
4.45688
  20
37.24934
  30
0.0
  70
0
  0
VERTEX
  8
a
  10
4.53837
  20
37.21799
  30
0.0
  70
0
  0
VERTEX
  8
a
  10
4.58229
  20
37.20579
  30
0.0
  70
0
  0
VERTEX
  8
a
  10
4.62929
  20
37.19691
  30
0.0
  70
0
  0
VERTEX
  8
a
  10
4.68088
  20
37.19297
  30
0.0
  70
0
  0
VERTEX
  8
a
  10
4.74095
  20
37.19809
  30
0.0
  70
0
  0
VERTEX
  8
a
  10
4.84936
  20
37.25438
  30
0.0
  70
0
  0
VERTEX
  8
a
  10
5.19543
  20
37.60046
  30
0.0
  70
0
  0
VERTEX
  8
a
  10
5.25173
  20
37.70886
  30
0.0
  70
0
  0
VERTEX
  8
a
  10
5.25684
  20
37.76893
  30
0.0
  70
0
  0
VERTEX
  8
a
  10
5.25291
  20
37.82053
  30
0.0
  70
0
  0
VERTEX
  8
a
  10
5.24403
  20
37.86752
  30
0.0
  70
0
  0
VERTEX
  8
a
  10
5.23182
  20
37.91144
  30
0.0
  70
0
  0
VERTEX
  8
a
  10
5.20047
  20
37.99293
  30
0.0
  70
0
  0
VERTEX
  8
a
  10
5.16246
  20
38.06839
  30
0.0
  70
0
  0
VERTEX
  8
a
  10
5.11949
  20
38.1394
  30
0.0
  70
0
  0
VERTEX
  8
a
  10
5.07254
  20
38.20688
  30
0.0
  70
0
  0
VERTEX
  8
a
  10
4.97302
  20
38.33686
  30
0.0
  70
0
  0
VERTEX
  8
a
  10
4.88742
  20
38.479
  30
0.0
  70
0
  0
VERTEX
  8
a
  10
4.81243
  20
38.63023
  30
0.0
  70
0
  0
VERTEX
  8
a
  10
4.74587
  20
38.78845
  30
0.0
  70
0
  0
VERTEX
  8
a
  10
4.68679
  20
38.95264
  30
0.0
  70
0
  0
VERTEX
  8
a
  10
4.63462
  20
39.12213
  30
0.0
  70
0
  0
VERTEX
  8
a
  10
4.58904
  20
39.29644
  30
0.0
  70
0
  0
VERTEX
  8
a
  10
4.54983
  20
39.47521
  30
0.0
  70
0
  0
VERTEX
  8
a
  10
4.51682
  20
39.65811
  30
0.0
  70
0
  0
VERTEX
  8
a
  10
4.48993
  20
39.84488
  30
0.0
  70
0
  0
VERTEX
  8
a
  10
4.46909
  20
40.03528
  30
0.0
  70
0
  0
VERTEX
  8
a
  10
4.45741
  20
40.18032
  30
0.0
  70
0
  0
VERTEX
  8
a
  10
4.79907
  20
40.42856
  30
0.0
  70
0
  0
VERTEX
  8
a
  10
4.93341
  20
40.37262
  30
0.0
  70
0
  0
VERTEX
  8
a
  10
5.10805
  20
40.29397
  30
0.0
  70
0
  0
VERTEX
  8
a
  10
5.27737
  20
40.21068
  30
0.0
  70
0
  0
VERTEX
  8
a
  10
5.44112
  20
40.12277
  30
0.0
  70
0
  0
VERTEX
  8
a
  10
5.59902
  20
40.03023
  30
0.0
  70
0
  0
VERTEX
  8
a
  10
5.75072
  20
39.93302
  30
0.0
  70
0
  0
VERTEX
  8
a
  10
5.89579
  20
39.83103
  30
0.0
  70
0
  0
VERTEX
  8
a
  10
6.03368
  20
39.7241
  30
0.0
  70
0
  0
VERTEX
  8
a
  10
6.16359
  20
39.61191
  30
0.0
  70
0
  0
VERTEX
  8
a
  10
6.28425
  20
39.49385
  30
0.0
  70
0
  0
VERTEX
  8
a
  10
6.39298
  20
39.36851
  30
0.0
  70
0
  0
VERTEX
  8
a
  10
6.48585
  20
39.2337
  30
0.0
  70
0
  0
VERTEX
  8
a
  10
6.53551
  20
39.1682
  30
0.0
  70
0
  0
VERTEX
  8
a
  10
6.58977
  20
39.10539
  30
0.0
  70
0
  0
VERTEX
  8
a
  10
6.64978
  20
39.04592
  30
0.0
  70
0
  0
VERTEX
  8
a
  10
6.7176
  20
38.99092
  30
0.0
  70
0
  0
VERTEX
  8
a
  10
6.7556
  20
38.96574
  30
0.0
  70
0
  0
VERTEX
  8
a
  10
6.79755
  20
38.94278
  30
0.0
  70
0
  0
VERTEX
  8
a
  10
6.8454
  20
38.92309
  30
0.0
  70
0
  0
VERTEX
  8
a
  10
6.90411
  20
38.90939
  30
0.0
  70
0
  0
VERTEX
  8
a
  10
7.02461
  20
38.92943
  30
0.0
  70
0
  0
VERTEX
  8
a
  10
7.46069
  20
39.15163
  30
0.0
  70
0
  0
VERTEX
  8
a
  10
7.54773
  20
39.23733
  30
0.0
  70
0
  0
VERTEX
  8
a
  10
7.57115
  20
39.29288
  30
0.0
  70
0
  0
VERTEX
  8
a
  10
7.58335
  20
39.34316
  30
0.0
  70
0
  0
VERTEX
  8
a
  10
7.58943
  20
39.3906
  30
0.0
  70
0
  0
VERTEX
  8
a
  10
7.5914
  20
39.43615
  30
0.0
  70
0
  0
VERTEX
  8
a
  10
7.58676
  20
39.52333
  30
0.0
  70
0
  0
VERTEX
  8
a
  10
7.57393
  20
39.60684
  30
0.0
  70
0
  0
VERTEX
  8
a
  10
7.55501
  20
39.68766
  30
0.0
  70
0
  0
VERTEX
  8
a
  10
7.5312
  20
39.76634
  30
0.0
  70
0
  0
VERTEX
  8
a
  10
7.47673
  20
39.92071
  30
0.0
  70
0
  0
VERTEX
  8
a
  10
7.43923
  20
40.08235
  30
0.0
  70
0
  0
VERTEX
  8
a
  10
7.41465
  20
40.24935
  30
0.0
  70
0
  0
VERTEX
  8
a
  10
7.40024
  20
40.42039
  30
0.0
  70
0
  0
VERTEX
  8
a
  10
7.39478
  20
40.5948
  30
0.0
  70
0
  0
VERTEX
  8
a
  10
7.39755
  20
40.77212
  30
0.0
  70
0
  0
VERTEX
  8
a
  10
7.40807
  20
40.95199
  30
0.0
  70
0
  0
VERTEX
  8
a
  10
7.42601
  20
41.13412
  30
0.0
  70
0
  0
VERTEX
  8
a
  10
7.45114
  20
41.31827
  30
0.0
  70
0
  0
VERTEX
  8
a
  10
7.48328
  20
41.50421
  30
0.0
  70
0
  0
VERTEX
  8
a
  10
7.5223
  20
41.69173
  30
0.0
  70
0
  0
VERTEX
  8
a
  10
7.55601
  20
41.83329
  30
0.0
  70
0
  0
VERTEX
  8
a
  10
7.95766
  20
41.96379
  30
0.0
  70
0
  0
VERTEX
  8
a
  10
8.06814
  20
41.86908
  30
0.0
  70
0
  0
VERTEX
  8
a
  10
8.20992
  20
41.74031
  30
0.0
  70
0
  0
VERTEX
  8
a
  10
8.34522
  20
41.60877
  30
0.0
  70
0
  0
VERTEX
  8
a
  10
8.47379
  20
41.47457
  30
0.0
  70
0
  0
VERTEX
  8
a
  10
8.59536
  20
41.33776
  30
0.0
  70
0
  0
VERTEX
  8
a
  10
8.7096
  20
41.19843
  30
0.0
  70
0
  0
VERTEX
  8
a
  10
8.81605
  20
41.0566
  30
0.0
  70
0
  0
VERTEX
  8
a
  10
8.91415
  20
40.91229
  30
0.0
  70
0
  0
VERTEX
  8
a
  10
9.00304
  20
40.76545
  30
0.0
  70
0
  0
VERTEX
  8
a
  10
9.08131
  20
40.61589
  30
0.0
  70
0
  0
VERTEX
  8
a
  10
9.14598
  20
40.46309
  30
0.0
  70
0
  0
VERTEX
  8
a
  10
9.19265
  20
40.30618
  30
0.0
  70
0
  0
VERTEX
  8
a
  10
9.21963
  20
40.22853
  30
0.0
  70
0
  0
VERTEX
  8
a
  10
9.25183
  20
40.15203
  30
0.0
  70
0
  0
VERTEX
  8
a
  10
9.29053
  20
40.07692
  30
0.0
  70
0
  0
VERTEX
  8
a
  10
9.33803
  20
40.00366
  30
0.0
  70
0
  0
VERTEX
  8
a
  10
9.36639
  20
39.96797
  30
0.0
  70
0
  0
VERTEX
  8
a
  10
9.39919
  20
39.93317
  30
0.0
  70
0
  0
VERTEX
  8
a
  10
9.43862
  20
39.89966
  30
0.0
  70
0
  0
VERTEX
  8
a
  10
9.49022
  20
39.86848
  30
0.0
  70
0
  0
VERTEX
  8
a
  10
9.61102
  20
39.85031
  30
0.0
  70
0
  0
VERTEX
  8
a
  10
10.09441
  20
39.92687
  30
0.0
  70
0
  0
VERTEX
  8
a
  10
10.20368
  20
39.98148
  30
0.0
  70
0
  0
VERTEX
  8
a
  10
10.24312
  20
40.02708
  30
0.0
  70
0
  0
VERTEX
  8
a
  10
10.27026
  20
40.07113
  30
0.0
  70
0
  0
VERTEX
  8
a
  10
10.2907
  20
40.11437
  30
0.0
  70
0
  0
VERTEX
  8
a
  10
10.30665
  20
40.15707
  30
0.0
  70
0
  0
VERTEX
  8
a
  10
10.32918
  20
40.24143
  30
0.0
  70
0
  0
VERTEX
  8
a
  10
10.34278
  20
40.32482
  30
0.0
  70
0
  0
VERTEX
  8
a
  10
10.34976
  20
40.40752
  30
0.0
  70
0
  0
VERTEX
  8
a
  10
10.35143
  20
40.48971
  30
0.0
  70
0
  0
VERTEX
  8
a
  10
10.34733
  20
40.65336
  30
0.0
  70
0
  0
VERTEX
  8
a
  10
10.36162
  20
40.81867
  30
0.0
  70
0
  0
VERTEX
  8
a
  10
10.38984
  20
40.9851
  30
0.0
  70
0
  0
VERTEX
  8
a
  10
10.429
  20
41.15222
  30
0.0
  70
0
  0
VERTEX
  8
a
  10
10.4777
  20
41.31978
  30
0.0
  70
0
  0
VERTEX
  8
a
  10
10.53512
  20
41.48756
  30
0.0
  70
0
  0
VERTEX
  8
a
  10
10.60071
  20
41.65538
  30
0.0
  70
0
  0
VERTEX
  8
a
  10
10.67406
  20
41.82305
  30
0.0
  70
0
  0
VERTEX
  8
a
  10
10.75486
  20
41.99042
  30
0.0
  70
0
  0
VERTEX
  8
a
  10
10.84289
  20
42.15733
  30
0.0
  70
0
  0
VERTEX
  8
a
  10
10.93794
  20
42.32361
  30
0.0
  70
0
  0
VERTEX
  8
a
  10
11.01375
  20
42.44783
  30
0.0
  70
0
  0
VERTEX
  8
a
  10
11.43607
  20
42.44783
  30
0.0
  70
0
  0
VERTEX
  8
a
  10
11.51187
  20
42.32361
  30
0.0
  70
0
  0
VERTEX
  8
a
  10
11.60692
  20
42.15733
  30
0.0
  70
0
  0
VERTEX
  8
a
  10
11.69495
  20
41.99042
  30
0.0
  70
0
  0
VERTEX
  8
a
  10
11.77576
  20
41.82305
  30
0.0
  70
0
  0
VERTEX
  8
a
  10
11.8491
  20
41.65538
  30
0.0
  70
0
  0
VERTEX
  8
a
  10
11.91469
  20
41.48756
  30
0.0
  70
0
  0
VERTEX
  8
a
  10
11.97211
  20
41.31978
  30
0.0
  70
0
  0
VERTEX
  8
a
  10
12.02082
  20
41.15222
  30
0.0
  70
0
  0
VERTEX
  8
a
  10
12.05997
  20
40.9851
  30
0.0
  70
0
  0
VERTEX
  8
a
  10
12.0882
  20
40.81867
  30
0.0
  70
0
  0
VERTEX
  8
a
  10
12.10249
  20
40.65336
  30
0.0
  70
0
  0
VERTEX
  8
a
  10
12.09838
  20
40.48971
  30
0.0
  70
0
  0
VERTEX
  8
a
  10
12.10005
  20
40.40752
  30
0.0
  70
0
  0
VERTEX
  8
a
  10
12.10703
  20
40.32482
  30
0.0
  70
0
  0
VERTEX
  8
a
  10
12.12063
  20
40.24143
  30
0.0
  70
0
  0
VERTEX
  8
a
  10
12.14317
  20
40.15707
  30
0.0
  70
0
  0
VERTEX
  8
a
  10
12.15911
  20
40.11437
  30
0.0
  70
0
  0
VERTEX
  8
a
  10
12.17955
  20
40.07113
  30
0.0
  70
0
  0
VERTEX
  8
a
  10
12.20669
  20
40.02708
  30
0.0
  70
0
  0
VERTEX
  8
a
  10
12.24614
  20
39.98148
  30
0.0
  70
0
  0
VERTEX
  8
a
  10
12.3554
  20
39.92687
  30
0.0
  70
0
  0
VERTEX
  8
a
  10
12.8388
  20
39.85031
  30
0.0
  70
0
  0
VERTEX
  8
a
  10
12.95959
  20
39.86848
  30
0.0
  70
0
  0
VERTEX
  8
a
  10
13.01119
  20
39.89966
  30
0.0
  70
0
  0
VERTEX
  8
a
  10
13.05062
  20
39.93317
  30
0.0
  70
0
  0
VERTEX
  8
a
  10
13.08342
  20
39.96797
  30
0.0
  70
0
  0
VERTEX
  8
a
  10
13.11178
  20
40.00366
  30
0.0
  70
0
  0
VERTEX
  8
a
  10
13.15928
  20
40.07692
  30
0.0
  70
0
  0
VERTEX
  8
a
  10
13.19799
  20
40.15203
  30
0.0
  70
0
  0
VERTEX
  8
a
  10
13.23018
  20
40.22853
  30
0.0
  70
0
  0
VERTEX
  8
a
  10
13.25717
  20
40.30618
  30
0.0
  70
0
  0
VERTEX
  8
a
  10
13.30383
  20
40.46309
  30
0.0
  70
0
  0
VERTEX
  8
a
  10
13.36851
  20
40.61589
  30
0.0
  70
0
  0
VERTEX
  8
a
  10
13.44678
  20
40.76545
  30
0.0
  70
0
  0
VERTEX
  8
a
  10
13.53566
  20
40.91229
  30
0.0
  70
0
  0
VERTEX
  8
a
  10
13.63376
  20
41.0566
  30
0.0
  70
0
  0
VERTEX
  8
a
  10
13.74022
  20
41.19843
  30
0.0
  70
0
  0
VERTEX
  8
a
  10
13.85445
  20
41.33776
  30
0.0
  70
0
  0
VERTEX
  8
a
  10
13.97603
  20
41.47457
  30
0.0
  70
0
  0
VERTEX
  8
a
  10
14.1046
  20
41.60877
  30
0.0
  70
0
  0
VERTEX
  8
a
  10
14.23989
  20
41.74031
  30
0.0
  70
0
  0
VERTEX
  8
a
  10
14.38168
  20
41.86908
  30
0.0
  70
0
  0
VERTEX
  8
a
  10
14.49216
  20
41.96379
  30
0.0
  70
0
  0
VERTEX
  8
a
  10
14.89381
  20
41.83329
  30
0.0
  70
0
  0
VERTEX
  8
a
  10
14.92751
  20
41.69173
  30
0.0
  70
0
  0
VERTEX
  8
a
  10
14.96653
  20
41.50421
  30
0.0
  70
0
  0
VERTEX
  8
a
  10
14.99867
  20
41.31827
  30
0.0
  70
0
  0
VERTEX
  8
a
  10
15.0238
  20
41.13412
  30
0.0
  70
0
  0
VERTEX
  8
a
  10
15.04175
  20
40.95199
  30
0.0
  70
0
  0
VERTEX
  8
a
  10
15.05227
  20
40.77212
  30
0.0
  70
0
  0
VERTEX
  8
a
  10
15.05503
  20
40.5948
  30
0.0
  70
0
  0
VERTEX
  8
a
  10
15.04957
  20
40.42039
  30
0.0
  70
0
  0
VERTEX
  8
a
  10
15.03517
  20
40.24935
  30
0.0
  70
0
  0
VERTEX
  8
a
  10
15.01058
  20
40.08235
  30
0.0
  70
0
  0
VERTEX
  8
a
  10
14.97309
  20
39.92071
  30
0.0
  70
0
  0
VERTEX
  8
a
  10
14.91861
  20
39.76634
  30
0.0
  70
0
  0
VERTEX
  8
a
  10
14.8948
  20
39.68766
  30
0.0
  70
0
  0
VERTEX
  8
a
  10
14.87588
  20
39.60684
  30
0.0
  70
0
  0
VERTEX
  8
a
  10
14.86305
  20
39.52333
  30
0.0
  70
0
  0
VERTEX
  8
a
  10
14.85842
  20
39.43615
  30
0.0
  70
0
  0
VERTEX
  8
a
  10
14.86038
  20
39.3906
  30
0.0
  70
0
  0
VERTEX
  8
a
  10
14.86646
  20
39.34316
  30
0.0
  70
0
  0
VERTEX
  8
a
  10
14.87866
  20
39.29288
  30
0.0
  70
0
  0
VERTEX
  8
a
  10
14.90209
  20
39.23733
  30
0.0
  70
0
  0
VERTEX
  8
a
  10
14.98913
  20
39.15163
  30
0.0
  70
0
  0
VERTEX
  8
a
  10
15.42521
  20
38.92943
  30
0.0
  70
0
  0
VERTEX
  8
a
  10
15.5457
  20
38.90939
  30
0.0
  70
0
  0
VERTEX
  8
a
  10
15.60441
  20
38.92309
  30
0.0
  70
0
  0
VERTEX
  8
a
  10
15.65226
  20
38.94278
  30
0.0
  70
0
  0
VERTEX
  8
a
  10
15.69421
  20
38.96574
  30
0.0
  70
0
  0
VERTEX
  8
a
  10
15.73222
  20
38.99092
  30
0.0
  70
0
  0
VERTEX
  8
a
  10
15.80003
  20
39.04592
  30
0.0
  70
0
  0
VERTEX
  8
a
  10
15.86005
  20
39.10539
  30
0.0
  70
0
  0
VERTEX
  8
a
  10
15.91431
  20
39.1682
  30
0.0
  70
0
  0
VERTEX
  8
a
  10
15.96397
  20
39.2337
  30
0.0
  70
0
  0
VERTEX
  8
a
  10
16.05684
  20
39.36851
  30
0.0
  70
0
  0
VERTEX
  8
a
  10
16.16556
  20
39.49385
  30
0.0
  70
0
  0
VERTEX
  8
a
  10
16.28622
  20
39.61191
  30
0.0
  70
0
  0
VERTEX
  8
a
  10
16.41613
  20
39.7241
  30
0.0
  70
0
  0
VERTEX
  8
a
  10
16.55402
  20
39.83103
  30
0.0
  70
0
  0
VERTEX
  8
a
  10
16.6991
  20
39.93302
  30
0.0
  70
0
  0
VERTEX
  8
a
  10
16.8508
  20
40.03023
  30
0.0
  70
0
  0
VERTEX
  8
a
  10
17.0087
  20
40.12277
  30
0.0
  70
0
  0
VERTEX
  8
a
  10
17.17245
  20
40.21068
  30
0.0
  70
0
  0
VERTEX
  8
a
  10
17.34177
  20
40.29397
  30
0.0
  70
0
  0
VERTEX
  8
a
  10
17.51641
  20
40.37262
  30
0.0
  70
0
  0
VERTEX
  8
a
  10
17.65074
  20
40.42856
  30
0.0
  70
0
  0
VERTEX
  8
a
  10
17.99241
  20
40.18032
  30
0.0
  70
0
  0
VERTEX
  8
a
  10
17.98072
  20
40.03528
  30
0.0
  70
0
  0
VERTEX
  8
a
  10
17.95988
  20
39.84488
  30
0.0
  70
0
  0
VERTEX
  8
a
  10
17.93299
  20
39.65811
  30
0.0
  70
0
  0
VERTEX
  8
a
  10
17.89999
  20
39.47521
  30
0.0
  70
0
  0
VERTEX
  8
a
  10
17.86077
  20
39.29644
  30
0.0
  70
0
  0
VERTEX
  8
a
  10
17.81519
  20
39.12213
  30
0.0
  70
0
  0
VERTEX
  8
a
  10
17.76303
  20
38.95264
  30
0.0
  70
0
  0
VERTEX
  8
a
  10
17.70394
  20
38.78845
  30
0.0
  70
0
  0
VERTEX
  8
a
  10
17.63739
  20
38.63023
  30
0.0
  70
0
  0
VERTEX
  8
a
  10
17.5624
  20
38.479
  30
0.0
  70
0
  0
VERTEX
  8
a
  10
17.47679
  20
38.33686
  30
0.0
  70
0
  0
VERTEX
  8
a
  10
17.37728
  20
38.20688
  30
0.0
  70
0
  0
VERTEX
  8
a
  10
17.33032
  20
38.1394
  30
0.0
  70
0
  0
VERTEX
  8
a
  10
17.28735
  20
38.06839
  30
0.0
  70
0
  0
VERTEX
  8
a
  10
17.24934
  20
37.99293
  30
0.0
  70
0
  0
VERTEX
  8
a
  10
17.21799
  20
37.91144
  30
0.0
  70
0
  0
VERTEX
  8
a
  10
17.20579
  20
37.86752
  30
0.0
  70
0
  0
VERTEX
  8
a
  10
17.19691
  20
37.82053
  30
0.0
  70
0
  0
VERTEX
  8
a
  10
17.19297
  20
37.76893
  30
0.0
  70
0
  0
VERTEX
  8
a
  10
17.19809
  20
37.70886
  30
0.0
  70
0
  0
VERTEX
  8
a
  10
17.25438
  20
37.60046
  30
0.0
  70
0
  0
VERTEX
  8
a
  10
17.60046
  20
37.25438
  30
0.0
  70
0
  0
VERTEX
  8
a
  10
17.70886
  20
37.19809
  30
0.0
  70
0
  0
VERTEX
  8
a
  10
17.76893
  20
37.19297
  30
0.0
  70
0
  0
VERTEX
  8
a
  10
17.82053
  20
37.19691
  30
0.0
  70
0
  0
VERTEX
  8
a
  10
17.86752
  20
37.20579
  30
0.0
  70
0
  0
VERTEX
  8
a
  10
17.91144
  20
37.21799
  30
0.0
  70
0
  0
VERTEX
  8
a
  10
17.99293
  20
37.24934
  30
0.0
  70
0
  0
VERTEX
  8
a
  10
18.06839
  20
37.28735
  30
0.0
  70
0
  0
VERTEX
  8
a
  10
18.1394
  20
37.33032
  30
0.0
  70
0
  0
VERTEX
  8
a
  10
18.20688
  20
37.37728
  30
0.0
  70
0
  0
VERTEX
  8
a
  10
18.33686
  20
37.47679
  30
0.0
  70
0
  0
VERTEX
  8
a
  10
18.479
  20
37.5624
  30
0.0
  70
0
  0
VERTEX
  8
a
  10
18.63023
  20
37.63739
  30
0.0
  70
0
  0
VERTEX
  8
a
  10
18.78845
  20
37.70394
  30
0.0
  70
0
  0
VERTEX
  8
a
  10
18.95264
  20
37.76303
  30
0.0
  70
0
  0
VERTEX
  8
a
  10
19.12213
  20
37.81519
  30
0.0
  70
0
  0
VERTEX
  8
a
  10
19.29644
  20
37.86077
  30
0.0
  70
0
  0
VERTEX
  8
a
  10
19.47521
  20
37.89999
  30
0.0
  70
0
  0
VERTEX
  8
a
  10
19.65811
  20
37.93299
  30
0.0
  70
0
  0
VERTEX
  8
a
  10
19.84488
  20
37.95988
  30
0.0
  70
0
  0
VERTEX
  8
a
  10
20.03528
  20
37.98072
  30
0.0
  70
0
  0
VERTEX
  8
a
  10
20.18032
  20
37.99241
  30
0.0
  70
0
  0
VERTEX
  8
a
  10
20.42856
  20
37.65074
  30
0.0
  70
0
  0
VERTEX
  8
a
  10
20.37262
  20
37.51641
  30
0.0
  70
0
  0
VERTEX
  8
a
  10
20.29397
  20
37.34177
  30
0.0
  70
0
  0
VERTEX
  8
a
  10
20.21068
  20
37.17245
  30
0.0
  70
0
  0
VERTEX
  8
a
  10
20.12277
  20
37.0087
  30
0.0
  70
0
  0
VERTEX
  8
a
  10
20.03023
  20
36.8508
  30
0.0
  70
0
  0
VERTEX
  8
a
  10
19.93302
  20
36.6991
  30
0.0
  70
0
  0
VERTEX
  8
a
  10
19.83103
  20
36.55402
  30
0.0
  70
0
  0
VERTEX
  8
a
  10
19.7241
  20
36.41613
  30
0.0
  70
0
  0
VERTEX
  8
a
  10
19.61191
  20
36.28622
  30
0.0
  70
0
  0
VERTEX
  8
a
  10
19.49385
  20
36.16556
  30
0.0
  70
0
  0
VERTEX
  8
a
  10
19.36851
  20
36.05684
  30
0.0
  70
0
  0
VERTEX
  8
a
  10
19.2337
  20
35.96397
  30
0.0
  70
0
  0
VERTEX
  8
a
  10
19.1682
  20
35.91431
  30
0.0
  70
0
  0
VERTEX
  8
a
  10
19.10539
  20
35.86005
  30
0.0
  70
0
  0
VERTEX
  8
a
  10
19.04592
  20
35.80003
  30
0.0
  70
0
  0
VERTEX
  8
a
  10
18.99092
  20
35.73222
  30
0.0
  70
0
  0
VERTEX
  8
a
  10
18.96574
  20
35.69421
  30
0.0
  70
0
  0
VERTEX
  8
a
  10
18.94278
  20
35.65226
  30
0.0
  70
0
  0
VERTEX
  8
a
  10
18.92309
  20
35.60441
  30
0.0
  70
0
  0
VERTEX
  8
a
  10
18.90939
  20
35.5457
  30
0.0
  70
0
  0
VERTEX
  8
a
  10
18.92943
  20
35.42521
  30
0.0
  70
0
  0
VERTEX
  8
a
  10
19.15163
  20
34.98913
  30
0.0
  70
0
  0
VERTEX
  8
a
  10
19.23733
  20
34.90209
  30
0.0
  70
0
  0
VERTEX
  8
a
  10
19.29288
  20
34.87866
  30
0.0
  70
0
  0
VERTEX
  8
a
  10
19.34316
  20
34.86646
  30
0.0
  70
0
  0
VERTEX
  8
a
  10
19.3906
  20
34.86038
  30
0.0
  70
0
  0
VERTEX
  8
a
  10
19.43615
  20
34.85842
  30
0.0
  70
0
  0
VERTEX
  8
a
  10
19.52333
  20
34.86305
  30
0.0
  70
0
  0
VERTEX
  8
a
  10
19.60684
  20
34.87588
  30
0.0
  70
0
  0
VERTEX
  8
a
  10
19.68766
  20
34.8948
  30
0.0
  70
0
  0
VERTEX
  8
a
  10
19.76634
  20
34.91861
  30
0.0
  70
0
  0
VERTEX
  8
a
  10
19.92071
  20
34.97309
  30
0.0
  70
0
  0
VERTEX
  8
a
  10
20.08235
  20
35.01058
  30
0.0
  70
0
  0
VERTEX
  8
a
  10
20.24935
  20
35.03517
  30
0.0
  70
0
  0
VERTEX
  8
a
  10
20.42039
  20
35.04957
  30
0.0
  70
0
  0
VERTEX
  8
a
  10
20.5948
  20
35.05503
  30
0.0
  70
0
  0
VERTEX
  8
a
  10
20.77212
  20
35.05227
  30
0.0
  70
0
  0
VERTEX
  8
a
  10
20.95199
  20
35.04175
  30
0.0
  70
0
  0
VERTEX
  8
a
  10
21.13412
  20
35.0238
  30
0.0
  70
0
  0
VERTEX
  8
a
  10
21.31827
  20
34.99867
  30
0.0
  70
0
  0
VERTEX
  8
a
  10
21.50421
  20
34.96653
  30
0.0
  70
0
  0
VERTEX
  8
a
  10
21.69173
  20
34.92751
  30
0.0
  70
0
  0
VERTEX
  8
a
  10
21.83329
  20
34.89381
  30
0.0
  70
0
  0
VERTEX
  8
a
  10
21.96379
  20
34.49216
  30
0.0
  70
0
  0
VERTEX
  8
a
  10
21.86908
  20
34.38168
  30
0.0
  70
0
  0
VERTEX
  8
a
  10
21.74031
  20
34.23989
  30
0.0
  70
0
  0
VERTEX
  8
a
  10
21.60877
  20
34.1046
  30
0.0
  70
0
  0
VERTEX
  8
a
  10
21.47457
  20
33.97603
  30
0.0
  70
0
  0
VERTEX
  8
a
  10
21.33776
  20
33.85445
  30
0.0
  70
0
  0
VERTEX
  8
a
  10
21.19843
  20
33.74022
  30
0.0
  70
0
  0
VERTEX
  8
a
  10
21.0566
  20
33.63376
  30
0.0
  70
0
  0
VERTEX
  8
a
  10
20.91229
  20
33.53566
  30
0.0
  70
0
  0
VERTEX
  8
a
  10
20.76545
  20
33.44678
  30
0.0
  70
0
  0
VERTEX
  8
a
  10
20.61589
  20
33.36851
  30
0.0
  70
0
  0
VERTEX
  8
a
  10
20.46309
  20
33.30383
  30
0.0
  70
0
  0
VERTEX
  8
a
  10
20.30618
  20
33.25717
  30
0.0
  70
0
  0
VERTEX
  8
a
  10
20.22853
  20
33.23018
  30
0.0
  70
0
  0
VERTEX
  8
a
  10
20.15203
  20
33.19799
  30
0.0
  70
0
  0
VERTEX
  8
a
  10
20.07692
  20
33.15928
  30
0.0
  70
0
  0
VERTEX
  8
a
  10
20.00366
  20
33.11178
  30
0.0
  70
0
  0
VERTEX
  8
a
  10
19.96797
  20
33.08342
  30
0.0
  70
0
  0
VERTEX
  8
a
  10
19.93317
  20
33.05062
  30
0.0
  70
0
  0
VERTEX
  8
a
  10
19.89966
  20
33.01119
  30
0.0
  70
0
  0
VERTEX
  8
a
  10
19.86848
  20
32.95959
  30
0.0
  70
0
  0
VERTEX
  8
a
  10
19.85031
  20
32.8388
  30
0.0
  70
0
  0
SEQEND
  0
CIRCLE
  8
a
  10
11.22491
  20
31.22491
  30
0.0
  40
0.5
 0
LINE
 8
c
 10
19.89196
 20
29.85218
 30
0
 11
22.31162
 21
29.46894
 31
 0
 0
LINE
 8
c
 10
19.04357
 20
27.2411
 30
0
 11
21.22637
 21
26.12891
 31
 0
 0
LINE
 8
c
 10
17.42983
 20
25.01998
 30
0
 11
19.16211
 21
23.2877
 31
 0
 0
LINE
 8
c
 10
15.20872
 20
23.40624
 30
0
 11
16.32091
 21
21.22344
 31
 0
 0
LINE
 8
c
 10
12.59763
 20
22.55785
 30
0
 11
12.98087
 21
20.1382
 31
 0
 0
LINE
 8
c
 10
9.85218
 20
22.55785
 30
0
 11
9.46894
 21
20.1382
 31
 0
 0
LINE
 8
c
 10
7.2411
 20
23.40624
 30
0
 11
6.12891
 21
21.22344
 31
 0
 0
LINE
 8
c
 10
5.01998
 20
25.01998
 30
0
 11
3.2877
 21
23.2877
 31
 0
 0
LINE
 8
c
 10
3.40624
 20
27.2411
 30
0
 11
1.22344
 21
26.12891
 31
 0
 0
LINE
 8
c
 10
2.55785
 20
29.85218
 30
0
 11
0.1382
 21
29.46894
 31
 0
 0
LINE
 8
c
 10
2.55785
 20
32.59763
 30
0
 11
0.1382
 21
32.98087
 31
 0
 0
LINE
 8
c
 10
3.40624
 20
35.20872
 30
0
 11
1.22344
 21
36.32091
 31
 0
 0
LINE
 8
c
 10
5.01998
 20
37.42983
 30
0
 11
3.2877
 21
39.16211
 31
 0
 0
LINE
 8
c
 10
7.2411
 20
39.04357
 30
0
 11
6.12891
 21
41.22637
 31
 0
 0
LINE
 8
c
 10
9.85218
 20
39.89196
 30
0
 11
9.46894
 21
42.31162
 31
 0
 0
LINE
 8
c
 10
12.59763
 20
39.89196
 30
0
 11
12.98087
 21
42.31162
 31
 0
 0
LINE
 8
c
 10
15.20872
 20
39.04357
 30
0
 11
16.32091
 21
41.22637
 31
 0
 0
LINE
 8
c
 10
17.42983
 20
37.42983
 30
0
 11
19.16211
 21
39.16211
 31
 0
 0
LINE
 8
c
 10
19.04357
 20
35.20872
 30
0
 11
21.22637
 21
36.32091
 31
 0
 0
LINE
 8
c
 10
19.89196
 20
32.59763
 30
0
 11
22.31162
 21
32.98087
 31
 0
  0
CIRCLE
  8
c
  10
11.22491
  20
31.22491
  30
0.0
  40
10
 0
LINE
 8
a
 10
7.48327
 20
31.22491
 30
0
 11
14.96654
 21
31.22491
 31
 0
 0
LINE
 8
a
 10
11.22491
 20
27.48327
 30
0
 11
11.22491
 21
34.96654
 31
 0
  0
POLYLINE
  8
a
  66
1
  10
0.0
  20
0.0
  70
1
  0
VERTEX
  8
a
  10
22.45266
  20
31.62956
  30
0.0
  70
0
  0
VERTEX
  8
a
  10
22.35091
  20
31.65282
  30
0.0
  70
0
  0
VERTEX
  8
a
  10
22.2492
  20
31.67787
  30
0.0
  70
0
  0
VERTEX
  8
a
  10
22.04593
  20
31.73292
  30
0.0
  70
0
  0
VERTEX
  8
a
  10
21.64004
  20
31.8609
  30
0.0
  70
0
  0
VERTEX
  8
a
  10
21.23519
  20
32.01022
  30
0.0
  70
0
  0
VERTEX
  8
a
  10
20.83157
  20
32.17886
  30
0.0
  70
0
  0
VERTEX
  8
a
  10
20.42942
  20
32.3655
  30
0.0
  70
0
  0
VERTEX
  8
a
  10
20.02895
  20
32.56913
  30
0.0
  70
0
  0
VERTEX
  8
a
  10
20.05933
  20
33.14891
  30
0.0
  70
0
  0
VERTEX
  8
a
  10
20.47889
  20
33.30957
  30
0.0
  70
0
  0
VERTEX
  8
a
  10
20.89835
  20
33.45314
  30
0.0
  70
0
  0
VERTEX
  8
a
  10
21.31739
  20
33.57868
  30
0.0
  70
0
  0
VERTEX
  8
a
  10
21.73563
  20
33.68486
  30
0.0
  70
0
  0
VERTEX
  8
a
  10
22.15268
  20
33.76971
  30
0.0
  70
0
  0
VERTEX
  8
a
  10
22.36059
  20
33.80322
  30
0.0
  70
0
  0
VERTEX
  8
a
  10
22.46435
  20
33.81749
  30
0.0
  70
0
  0
VERTEX
  8
a
  10
22.56798
  20
33.82999
  30
0.0
  70
0
  0
VERTEX
  8
a
  10
22.65257
  20
34.63486
  30
0.0
  70
0
  0
VERTEX
  8
a
  10
22.55381
  20
34.66863
  30
0.0
  70
0
  0
VERTEX
  8
a
  10
22.45528
  20
34.70417
  30
0.0
  70
0
  0
VERTEX
  8
a
  10
22.25888
  20
34.78017
  30
0.0
  70
0
  0
VERTEX
  8
a
  10
21.86859
  20
34.94988
  30
0.0
  70
0
  0
VERTEX
  8
a
  10
21.48156
  20
35.14069
  30
0.0
  70
0
  0
VERTEX
  8
a
  10
21.09779
  20
35.35061
  30
0.0
  70
0
  0
VERTEX
  8
a
  10
20.71734
  20
35.57826
  30
0.0
  70
0
  0
VERTEX
  8
a
  10
20.34035
  20
35.82263
  30
0.0
  70
0
  0
VERTEX
  8
a
  10
20.43117
  20
36.39606
  30
0.0
  70
0
  0
VERTEX
  8
a
  10
20.86523
  20
36.51198
  30
0.0
  70
0
  0
VERTEX
  8
a
  10
21.2974
  20
36.61092
  30
0.0
  70
0
  0
VERTEX
  8
a
  10
21.72726
  20
36.69197
  30
0.0
  70
0
  0
VERTEX
  8
a
  10
22.15431
  20
36.75385
  30
0.0
  70
0
  0
VERTEX
  8
a
  10
22.57794
  20
36.79465
  30
0.0
  70
0
  0
VERTEX
  8
a
  10
22.78822
  20
36.80623
  30
0.0
  70
0
  0
VERTEX
  8
a
  10
22.89291
  20
36.80959
  30
0.0
  70
0
  0
VERTEX
  8
a
  10
22.99727
  20
36.81118
  30
0.0
  70
0
  0
VERTEX
  8
a
  10
23.16553
  20
37.6028
  30
0.0
  70
0
  0
VERTEX
  8
a
  10
23.07084
  20
37.64671
  30
0.0
  70
0
  0
VERTEX
  8
a
  10
22.97657
  20
37.69235
  30
0.0
  70
0
  0
VERTEX
  8
a
  10
22.78919
  20
37.78847
  30
0.0
  70
0
  0
VERTEX
  8
a
  10
22.41878
  20
37.99804
  30
0.0
  70
0
  0
VERTEX
  8
a
  10
22.05381
  20
38.22827
  30
0.0
  70
0
  0
VERTEX
  8
a
  10
21.69408
  20
38.47715
  30
0.0
  70
0
  0
VERTEX
  8
a
  10
21.33952
  20
38.74332
  30
0.0
  70
0
  0
VERTEX
  8
a
  10
20.99013
  20
39.02576
  30
0.0
  70
0
  0
VERTEX
  8
a
  10
21.1404
  20
39.58656
  30
0.0
  70
0
  0
VERTEX
  8
a
  10
21.58419
  20
39.65647
  30
0.0
  70
0
  0
VERTEX
  8
a
  10
22.02434
  20
39.7097
  30
0.0
  70
0
  0
VERTEX
  8
a
  10
22.46031
  20
39.74537
  30
0.0
  70
0
  0
VERTEX
  8
a
  10
22.8915
  20
39.76226
  30
0.0
  70
0
  0
VERTEX
  8
a
  10
23.31707
  20
39.75856
  30
0.0
  70
0
  0
VERTEX
  8
a
  10
23.5274
  20
39.7481
  30
0.0
  70
0
  0
VERTEX
  8
a
  10
23.63187
  20
39.74049
  30
0.0
  70
0
  0
VERTEX
  8
a
  10
23.73583
  20
39.73117
  30
0.0
  70
0
  0
VERTEX
  8
a
  10
23.98592
  20
40.50087
  30
0.0
  70
0
  0
VERTEX
  8
a
  10
23.89634
  20
40.55443
  30
0.0
  70
0
  0
VERTEX
  8
a
  10
23.80735
  20
40.60968
  30
0.0
  70
0
  0
VERTEX
  8
a
  10
23.63104
  20
40.72485
  30
0.0
  70
0
  0
VERTEX
  8
a
  10
23.28456
  20
40.972
  30
0.0
  70
0
  0
VERTEX
  8
a
  10
22.94566
  20
41.23911
  30
0.0
  70
0
  0
VERTEX
  8
a
  10
22.61392
  20
41.52423
  30
0.0
  70
0
  0
VERTEX
  8
a
  10
22.28912
  20
41.826
  30
0.0
  70
0
  0
VERTEX
  8
a
  10
21.97117
  20
42.14342
  30
0.0
  70
0
  0
VERTEX
  8
a
  10
22.17924
  20
42.68544
  30
0.0
  70
0
  0
VERTEX
  8
a
  10
22.62791
  20
42.70858
  30
0.0
  70
0
  0
VERTEX
  8
a
  10
23.0712
  20
42.71551
  30
0.0
  70
0
  0
VERTEX
  8
a
  10
23.50852
  20
42.70541
  30
0.0
  70
0
  0
VERTEX
  8
a
  10
23.93911
  20
42.67714
  30
0.0
  70
0
  0
VERTEX
  8
a
  10
24.36196
  20
42.62897
  30
0.0
  70
0
  0
VERTEX
  8
a
  10
24.57005
  20
42.59659
  30
0.0
  70
0
  0
VERTEX
  8
a
  10
24.67315
  20
42.5781
  30
0.0
  70
0
  0
VERTEX
  8
a
  10
24.77556
  20
42.55797
  30
0.0
  70
0
  0
VERTEX
  8
a
  10
25.10474
  20
43.2973
  30
0.0
  70
0
  0
VERTEX
  8
a
  10
25.02124
  20
43.35994
  30
0.0
  70
0
  0
VERTEX
  8
a
  10
24.93852
  20
43.42419
  30
0.0
  70
0
  0
VERTEX
  8
a
  10
24.77522
  20
43.55716
  30
0.0
  70
0
  0
VERTEX
  8
a
  10
24.45647
  20
43.83917
  30
0.0
  70
0
  0
VERTEX
  8
a
  10
24.14735
  20
44.14024
  30
0.0
  70
0
  0
VERTEX
  8
a
  10
23.84722
  20
44.45847
  30
0.0
  70
0
  0
VERTEX
  8
a
  10
23.55575
  20
44.79254
  30
0.0
  70
0
  0
VERTEX
  8
a
  10
23.27272
  20
45.14145
  30
0.0
  70
0
  0
VERTEX
  8
a
  10
23.5363
  20
45.65876
  30
0.0
  70
0
  0
VERTEX
  8
a
  10
23.98493
  20
45.63487
  30
0.0
  70
0
  0
VERTEX
  8
a
  10
24.42653
  20
45.59542
  30
0.0
  70
0
  0
VERTEX
  8
a
  10
24.86039
  20
45.53967
  30
0.0
  70
0
  0
VERTEX
  8
a
  10
25.28567
  20
45.46655
  30
0.0
  70
0
  0
VERTEX
  8
a
  10
25.70117
  20
45.37444
  30
0.0
  70
0
  0
VERTEX
  8
a
  10
25.90473
  20
45.32049
  30
0.0
  70
0
  0
VERTEX
  8
a
  10
26.00534
  20
45.29132
  30
0.0
  70
0
  0
VERTEX
  8
a
  10
26.10508
  20
45.26059
  30
0.0
  70
0
  0
VERTEX
  8
a
  10
26.50974
  20
45.96147
  30
0.0
  70
0
  0
VERTEX
  8
a
  10
26.43325
  20
46.03249
  30
0.0
  70
0
  0
VERTEX
  8
a
  10
26.35769
  20
46.10503
  30
0.0
  70
0
  0
VERTEX
  8
a
  10
26.20918
  20
46.25434
  30
0.0
  70
0
  0
VERTEX
  8
a
  10
25.92166
  20
46.56813
  30
0.0
  70
0
  0
VERTEX
  8
a
  10
25.6457
  20
46.89986
  30
0.0
  70
0
  0
VERTEX
  8
a
  10
25.38049
  20
47.24773
  30
0.0
  70
0
  0
VERTEX
  8
a
  10
25.12553
  20
47.61043
  30
0.0
  70
0
  0
VERTEX
  8
a
  10
24.88052
  20
47.98702
  30
0.0
  70
0
  0
VERTEX
  8
a
  10
25.19673
  20
48.47393
  30
0.0
  70
0
  0
VERTEX
  8
a
  10
25.64041
  20
48.40328
  30
0.0
  70
0
  0
VERTEX
  8
a
  10
26.07546
  20
48.31789
  30
0.0
  70
0
  0
VERTEX
  8
a
  10
26.50112
  20
48.21709
  30
0.0
  70
0
  0
VERTEX
  8
a
  10
26.91642
  20
48.09992
  30
0.0
  70
0
  0
VERTEX
  8
a
  10
27.32002
  20
47.96489
  30
0.0
  70
0
  0
VERTEX
  8
a
  10
27.51683
  20
47.88995
  30
0.0
  70
0
  0
VERTEX
  8
a
  10
27.61383
  20
47.85043
  30
0.0
  70
0
  0
VERTEX
  8
a
  10
27.70982
  20
47.80944
  30
0.0
  70
0
  0
VERTEX
  8
a
  10
28.18552
  20
48.46418
  30
0.0
  70
0
  0
VERTEX
  8
a
  10
28.11687
  20
48.54281
  30
0.0
  70
0
  0
VERTEX
  8
a
  10
28.04931
  20
48.62285
  30
0.0
  70
0
  0
VERTEX
  8
a
  10
27.91722
  20
48.78687
  30
0.0
  70
0
  0
VERTEX
  8
a
  10
27.66408
  20
49.12898
  30
0.0
  70
0
  0
VERTEX
  8
a
  10
27.42431
  20
49.48775
  30
0.0
  70
0
  0
VERTEX
  8
a
  10
27.1969
  20
49.86143
  30
0.0
  70
0
  0
VERTEX
  8
a
  10
26.98126
  20
50.2488
  30
0.0
  70
0
  0
VERTEX
  8
a
  10
26.77696
  20
50.64893
  30
0.0
  70
0
  0
VERTEX
  8
a
  10
27.14233
  20
51.10013
  30
0.0
  70
0
  0
VERTEX
  8
a
  10
27.57619
  20
50.98349
  30
0.0
  70
0
  0
VERTEX
  8
a
  10
27.99993
  20
50.85309
  30
0.0
  70
0
  0
VERTEX
  8
a
  10
28.41273
  20
50.70835
  30
0.0
  70
0
  0
VERTEX
  8
a
  10
28.81351
  20
50.54841
  30
0.0
  70
0
  0
VERTEX
  8
a
  10
29.20078
  20
50.37193
  30
0.0
  70
0
  0
VERTEX
  8
a
  10
29.38867
  20
50.27682
  30
0.0
  70
0
  0
VERTEX
  8
a
  10
29.48102
  20
50.22738
  30
0.0
  70
0
  0
VERTEX
  8
a
  10
29.57219
  20
50.17658
  30
0.0
  70
0
  0
VERTEX
  8
a
  10
30.11373
  20
50.77801
  30
0.0
  70
0
  0
VERTEX
  8
a
  10
30.05367
  20
50.86338
  30
0.0
  70
0
  0
VERTEX
  8
a
  10
29.99485
  20
50.95005
  30
0.0
  70
0
  0
VERTEX
  8
a
  10
29.88063
  20
51.12698
  30
0.0
  70
0
  0
VERTEX
  8
a
  10
29.66463
  20
51.49368
  30
0.0
  70
0
  0
VERTEX
  8
a
  10
29.46368
  20
51.87554
  30
0.0
  70
0
  0
VERTEX
  8
a
  10
29.27658
  20
52.27095
  30
0.0
  70
0
  0
VERTEX
  8
a
  10
29.1026
  20
52.67874
  30
0.0
  70
0
  0
VERTEX
  8
a
  10
28.94125
  20
53.09803
  30
0.0
  70
0
  0
VERTEX
  8
a
  10
29.35178
  20
53.50856
  30
0.0
  70
0
  0
VERTEX
  8
a
  10
29.77108
  20
53.34721
  30
0.0
  70
0
  0
VERTEX
  8
a
  10
30.17887
  20
53.17323
  30
0.0
  70
0
  0
VERTEX
  8
a
  10
30.57427
  20
52.98614
  30
0.0
  70
0
  0
VERTEX
  8
a
  10
30.95613
  20
52.78518
  30
0.0
  70
0
  0
VERTEX
  8
a
  10
31.32284
  20
52.56918
  30
0.0
  70
0
  0
VERTEX
  8
a
  10
31.49976
  20
52.45496
  30
0.0
  70
0
  0
VERTEX
  8
a
  10
31.58643
  20
52.39614
  30
0.0
  70
0
  0
VERTEX
  8
a
  10
31.6718
  20
52.33609
  30
0.0
  70
0
  0
VERTEX
  8
a
  10
32.27323
  20
52.87762
  30
0.0
  70
0
  0
VERTEX
  8
a
  10
32.22243
  20
52.9688
  30
0.0
  70
0
  0
VERTEX
  8
a
  10
32.17299
  20
53.06114
  30
0.0
  70
0
  0
VERTEX
  8
a
  10
32.07789
  20
53.24904
  30
0.0
  70
0
  0
VERTEX
  8
a
  10
31.90141
  20
53.63631
  30
0.0
  70
0
  0
VERTEX
  8
a
  10
31.74147
  20
54.03709
  30
0.0
  70
0
  0
VERTEX
  8
a
  10
31.59673
  20
54.44988
  30
0.0
  70
0
  0
VERTEX
  8
a
  10
31.46633
  20
54.87362
  30
0.0
  70
0
  0
VERTEX
  8
a
  10
31.34969
  20
55.30748
  30
0.0
  70
0
  0
VERTEX
  8
a
  10
31.80088
  20
55.67285
  30
0.0
  70
0
  0
VERTEX
  8
a
  10
32.20101
  20
55.46856
  30
0.0
  70
0
  0
VERTEX
  8
a
  10
32.58838
  20
55.25291
  30
0.0
  70
0
  0
VERTEX
  8
a
  10
32.96206
  20
55.02551
  30
0.0
  70
0
  0
VERTEX
  8
a
  10
33.32083
  20
54.78573
  30
0.0
  70
0
  0
VERTEX
  8
a
  10
33.66295
  20
54.53259
  30
0.0
  70
0
  0
VERTEX
  8
a
  10
33.82696
  20
54.4005
  30
0.0
  70
0
  0
VERTEX
  8
a
  10
33.90701
  20
54.33294
  30
0.0
  70
0
  0
VERTEX
  8
a
  10
33.98563
  20
54.26429
  30
0.0
  70
0
  0
VERTEX
  8
a
  10
34.64038
  20
54.73999
  30
0.0
  70
0
  0
VERTEX
  8
a
  10
34.59939
  20
54.83598
  30
0.0
  70
0
  0
VERTEX
  8
a
  10
34.55987
  20
54.93299
  30
0.0
  70
0
  0
VERTEX
  8
a
  10
34.48493
  20
55.12979
  30
0.0
  70
0
  0
VERTEX
  8
a
  10
34.34989
  20
55.53339
  30
0.0
  70
0
  0
VERTEX
  8
a
  10
34.23272
  20
55.94869
  30
0.0
  70
0
  0
VERTEX
  8
a
  10
34.13192
  20
56.37435
  30
0.0
  70
0
  0
VERTEX
  8
a
  10
34.04653
  20
56.8094
  30
0.0
  70
0
  0
VERTEX
  8
a
  10
33.97588
  20
57.25308
  30
0.0
  70
0
  0
VERTEX
  8
a
  10
34.4628
  20
57.56929
  30
0.0
  70
0
  0
VERTEX
  8
a
  10
34.83938
  20
57.32429
  30
0.0
  70
0
  0
VERTEX
  8
a
  10
35.20209
  20
57.06933
  30
0.0
  70
0
  0
VERTEX
  8
a
  10
35.54995
  20
56.80411
  30
0.0
  70
0
  0
VERTEX
  8
a
  10
35.88169
  20
56.52815
  30
0.0
  70
0
  0
VERTEX
  8
a
  10
36.19547
  20
56.24063
  30
0.0
  70
0
  0
VERTEX
  8
a
  10
36.34478
  20
56.09212
  30
0.0
  70
0
  0
VERTEX
  8
a
  10
36.41733
  20
56.01657
  30
0.0
  70
0
  0
VERTEX
  8
a
  10
36.48834
  20
55.94008
  30
0.0
  70
0
  0
VERTEX
  8
a
  10
37.18922
  20
56.34473
  30
0.0
  70
0
  0
VERTEX
  8
a
  10
37.15849
  20
56.44448
  30
0.0
  70
0
  0
VERTEX
  8
a
  10
37.12933
  20
56.54508
  30
0.0
  70
0
  0
VERTEX
  8
a
  10
37.07537
  20
56.74864
  30
0.0
  70
0
  0
VERTEX
  8
a
  10
36.98326
  20
57.16415
  30
0.0
  70
0
  0
VERTEX
  8
a
  10
36.91014
  20
57.58942
  30
0.0
  70
0
  0
VERTEX
  8
a
  10
36.85439
  20
58.02329
  30
0.0
  70
0
  0
VERTEX
  8
a
  10
36.81494
  20
58.46488
  30
0.0
  70
0
  0
VERTEX
  8
a
  10
36.79106
  20
58.91351
  30
0.0
  70
0
  0
VERTEX
  8
a
  10
37.30836
  20
59.17709
  30
0.0
  70
0
  0
VERTEX
  8
a
  10
37.65727
  20
58.89407
  30
0.0
  70
0
  0
VERTEX
  8
a
  10
37.99134
  20
58.60259
  30
0.0
  70
0
  0
VERTEX
  8
a
  10
38.30957
  20
58.30247
  30
0.0
  70
0
  0
VERTEX
  8
a
  10
38.61065
  20
57.99334
  30
0.0
  70
0
  0
VERTEX
  8
a
  10
38.89266
  20
57.6746
  30
0.0
  70
0
  0
VERTEX
  8
a
  10
39.02563
  20
57.51129
  30
0.0
  70
0
  0
VERTEX
  8
a
  10
39.08988
  20
57.42857
  30
0.0
  70
0
  0
VERTEX
  8
a
  10
39.15251
  20
57.34508
  30
0.0
  70
0
  0
VERTEX
  8
a
  10
39.89185
  20
57.67425
  30
0.0
  70
0
  0
VERTEX
  8
a
  10
39.87171
  20
57.77666
  30
0.0
  70
0
  0
VERTEX
  8
a
  10
39.85322
  20
57.87976
  30
0.0
  70
0
  0
VERTEX
  8
a
  10
39.82084
  20
58.08785
  30
0.0
  70
0
  0
VERTEX
  8
a
  10
39.77267
  20
58.51071
  30
0.0
  70
0
  0
VERTEX
  8
a
  10
39.7444
  20
58.94129
  30
0.0
  70
0
  0
VERTEX
  8
a
  10
39.73431
  20
59.37861
  30
0.0
  70
0
  0
VERTEX
  8
a
  10
39.74124
  20
59.82191
  30
0.0
  70
0
  0
VERTEX
  8
a
  10
39.76438
  20
60.27058
  30
0.0
  70
0
  0
VERTEX
  8
a
  10
40.30639
  20
60.47864
  30
0.0
  70
0
  0
VERTEX
  8
a
  10
40.62381
  20
60.1607
  30
0.0
  70
0
  0
VERTEX
  8
a
  10
40.92558
  20
59.8359
  30
0.0
  70
0
  0
VERTEX
  8
a
  10
41.2107
  20
59.50415
  30
0.0
  70
0
  0
VERTEX
  8
a
  10
41.47781
  20
59.16525
  30
0.0
  70
0
  0
VERTEX
  8
a
  10
41.72496
  20
58.81878
  30
0.0
  70
0
  0
VERTEX
  8
a
  10
41.84013
  20
58.64247
  30
0.0
  70
0
  0
VERTEX
  8
a
  10
41.89538
  20
58.55348
  30
0.0
  70
0
  0
VERTEX
  8
a
  10
41.94895
  20
58.4639
  30
0.0
  70
0
  0
VERTEX
  8
a
  10
42.71864
  20
58.71399
  30
0.0
  70
0
  0
VERTEX
  8
a
  10
42.70932
  20
58.81794
  30
0.0
  70
0
  0
VERTEX
  8
a
  10
42.70171
  20
58.92241
  30
0.0
  70
0
  0
VERTEX
  8
a
  10
42.69126
  20
59.13274
  30
0.0
  70
0
  0
VERTEX
  8
a
  10
42.68755
  20
59.55832
  30
0.0
  70
0
  0
VERTEX
  8
a
  10
42.70445
  20
59.9895
  30
0.0
  70
0
  0
VERTEX
  8
a
  10
42.74012
  20
60.42548
  30
0.0
  70
0
  0
VERTEX
  8
a
  10
42.79334
  20
60.86562
  30
0.0
  70
0
  0
VERTEX
  8
a
  10
42.86326
  20
61.30941
  30
0.0
  70
0
  0
VERTEX
  8
a
  10
43.42405
  20
61.45968
  30
0.0
  70
0
  0
VERTEX
  8
a
  10
43.7065
  20
61.1103
  30
0.0
  70
0
  0
VERTEX
  8
a
  10
43.97267
  20
60.75574
  30
0.0
  70
0
  0
VERTEX
  8
a
  10
44.22155
  20
60.396
  30
0.0
  70
0
  0
VERTEX
  8
a
  10
44.45177
  20
60.03104
  30
0.0
  70
0
  0
VERTEX
  8
a
  10
44.66135
  20
59.66063
  30
0.0
  70
0
  0
VERTEX
  8
a
  10
44.75746
  20
59.47325
  30
0.0
  70
0
  0
VERTEX
  8
a
  10
44.8031
  20
59.37897
  30
0.0
  70
0
  0
VERTEX
  8
a
  10
44.84701
  20
59.28428
  30
0.0
  70
0
  0
VERTEX
  8
a
  10
45.63863
  20
59.45254
  30
0.0
  70
0
  0
VERTEX
  8
a
  10
45.64023
  20
59.55691
  30
0.0
  70
0
  0
VERTEX
  8
a
  10
45.64358
  20
59.6616
  30
0.0
  70
0
  0
VERTEX
  8
a
  10
45.65517
  20
59.87187
  30
0.0
  70
0
  0
VERTEX
  8
a
  10
45.69597
  20
60.2955
  30
0.0
  70
0
  0
VERTEX
  8
a
  10
45.75784
  20
60.72255
  30
0.0
  70
0
  0
VERTEX
  8
a
  10
45.83889
  20
61.15241
  30
0.0
  70
0
  0
VERTEX
  8
a
  10
45.93783
  20
61.58458
  30
0.0
  70
0
  0
VERTEX
  8
a
  10
46.05375
  20
62.01864
  30
0.0
  70
0
  0
VERTEX
  8
a
  10
46.62718
  20
62.10946
  30
0.0
  70
0
  0
VERTEX
  8
a
  10
46.87156
  20
61.73247
  30
0.0
  70
0
  0
VERTEX
  8
a
  10
47.09921
  20
61.35203
  30
0.0
  70
0
  0
VERTEX
  8
a
  10
47.30912
  20
60.96825
  30
0.0
  70
0
  0
VERTEX
  8
a
  10
47.49994
  20
60.58122
  30
0.0
  70
0
  0
VERTEX
  8
a
  10
47.66965
  20
60.19093
  30
0.0
  70
0
  0
VERTEX
  8
a
  10
47.74564
  20
59.99453
  30
0.0
  70
0
  0
VERTEX
  8
a
  10
47.78118
  20
59.896
  30
0.0
  70
0
  0
VERTEX
  8
a
  10
47.81495
  20
59.79724
  30
0.0
  70
0
  0
VERTEX
  8
a
  10
48.61982
  20
59.88184
  30
0.0
  70
0
  0
VERTEX
  8
a
  10
48.63232
  20
59.98546
  30
0.0
  70
0
  0
VERTEX
  8
a
  10
48.6466
  20
60.08923
  30
0.0
  70
0
  0
VERTEX
  8
a
  10
48.6801
  20
60.29714
  30
0.0
  70
0
  0
VERTEX
  8
a
  10
48.76496
  20
60.71418
  30
0.0
  70
0
  0
VERTEX
  8
a
  10
48.87113
  20
61.13243
  30
0.0
  70
0
  0
VERTEX
  8
a
  10
48.99667
  20
61.55146
  30
0.0
  70
0
  0
VERTEX
  8
a
  10
49.14025
  20
61.97092
  30
0.0
  70
0
  0
VERTEX
  8
a
  10
49.3009
  20
62.39048
  30
0.0
  70
0
  0
VERTEX
  8
a
  10
49.88068
  20
62.42087
  30
0.0
  70
0
  0
VERTEX
  8
a
  10
50.08432
  20
62.0204
  30
0.0
  70
0
  0
VERTEX
  8
a
  10
50.27095
  20
61.61824
  30
0.0
  70
0
  0
VERTEX
  8
a
  10
50.4396
  20
61.21463
  30
0.0
  70
0
  0
VERTEX
  8
a
  10
50.58891
  20
60.80977
  30
0.0
  70
0
  0
VERTEX
  8
a
  10
50.7169
  20
60.40388
  30
0.0
  70
0
  0
VERTEX
  8
a
  10
50.77195
  20
60.20061
  30
0.0
  70
0
  0
VERTEX
  8
a
  10
50.79699
  20
60.0989
  30
0.0
  70
0
  0
VERTEX
  8
a
  10
50.82025
  20
59.99715
  30
0.0
  70
0
  0
VERTEX
  8
a
  10
51.62956
  20
59.99715
  30
0.0
  70
0
  0
VERTEX
  8
a
  10
51.65282
  20
60.0989
  30
0.0
  70
0
  0
VERTEX
  8
a
  10
51.67787
  20
60.20061
  30
0.0
  70
0
  0
VERTEX
  8
a
  10
51.73292
  20
60.40388
  30
0.0
  70
0
  0
VERTEX
  8
a
  10
51.8609
  20
60.80977
  30
0.0
  70
0
  0
VERTEX
  8
a
  10
52.01022
  20
61.21463
  30
0.0
  70
0
  0
VERTEX
  8
a
  10
52.17886
  20
61.61824
  30
0.0
  70
0
  0
VERTEX
  8
a
  10
52.3655
  20
62.0204
  30
0.0
  70
0
  0
VERTEX
  8
a
  10
52.56913
  20
62.42087
  30
0.0
  70
0
  0
VERTEX
  8
a
  10
53.14891
  20
62.39048
  30
0.0
  70
0
  0
VERTEX
  8
a
  10
53.30957
  20
61.97092
  30
0.0
  70
0
  0
VERTEX
  8
a
  10
53.45314
  20
61.55146
  30
0.0
  70
0
  0
VERTEX
  8
a
  10
53.57868
  20
61.13243
  30
0.0
  70
0
  0
VERTEX
  8
a
  10
53.68486
  20
60.71418
  30
0.0
  70
0
  0
VERTEX
  8
a
  10
53.76971
  20
60.29714
  30
0.0
  70
0
  0
VERTEX
  8
a
  10
53.80322
  20
60.08923
  30
0.0
  70
0
  0
VERTEX
  8
a
  10
53.81749
  20
59.98546
  30
0.0
  70
0
  0
VERTEX
  8
a
  10
53.82999
  20
59.88184
  30
0.0
  70
0
  0
VERTEX
  8
a
  10
54.63486
  20
59.79724
  30
0.0
  70
0
  0
VERTEX
  8
a
  10
54.66863
  20
59.896
  30
0.0
  70
0
  0
VERTEX
  8
a
  10
54.70417
  20
59.99453
  30
0.0
  70
0
  0
VERTEX
  8
a
  10
54.78017
  20
60.19093
  30
0.0
  70
0
  0
VERTEX
  8
a
  10
54.94988
  20
60.58122
  30
0.0
  70
0
  0
VERTEX
  8
a
  10
55.14069
  20
60.96825
  30
0.0
  70
0
  0
VERTEX
  8
a
  10
55.35061
  20
61.35203
  30
0.0
  70
0
  0
VERTEX
  8
a
  10
55.57826
  20
61.73247
  30
0.0
  70
0
  0
VERTEX
  8
a
  10
55.82263
  20
62.10946
  30
0.0
  70
0
  0
VERTEX
  8
a
  10
56.39606
  20
62.01864
  30
0.0
  70
0
  0
VERTEX
  8
a
  10
56.51198
  20
61.58458
  30
0.0
  70
0
  0
VERTEX
  8
a
  10
56.61092
  20
61.15241
  30
0.0
  70
0
  0
VERTEX
  8
a
  10
56.69197
  20
60.72255
  30
0.0
  70
0
  0
VERTEX
  8
a
  10
56.75385
  20
60.2955
  30
0.0
  70
0
  0
VERTEX
  8
a
  10
56.79465
  20
59.87187
  30
0.0
  70
0
  0
VERTEX
  8
a
  10
56.80623
  20
59.6616
  30
0.0
  70
0
  0
VERTEX
  8
a
  10
56.80959
  20
59.55691
  30
0.0
  70
0
  0
VERTEX
  8
a
  10
56.81118
  20
59.45254
  30
0.0
  70
0
  0
VERTEX
  8
a
  10
57.6028
  20
59.28428
  30
0.0
  70
0
  0
VERTEX
  8
a
  10
57.64671
  20
59.37897
  30
0.0
  70
0
  0
VERTEX
  8
a
  10
57.69235
  20
59.47325
  30
0.0
  70
0
  0
VERTEX
  8
a
  10
57.78847
  20
59.66063
  30
0.0
  70
0
  0
VERTEX
  8
a
  10
57.99804
  20
60.03104
  30
0.0
  70
0
  0
VERTEX
  8
a
  10
58.22827
  20
60.396
  30
0.0
  70
0
  0
VERTEX
  8
a
  10
58.47715
  20
60.75574
  30
0.0
  70
0
  0
VERTEX
  8
a
  10
58.74332
  20
61.1103
  30
0.0
  70
0
  0
VERTEX
  8
a
  10
59.02576
  20
61.45968
  30
0.0
  70
0
  0
VERTEX
  8
a
  10
59.58656
  20
61.30941
  30
0.0
  70
0
  0
VERTEX
  8
a
  10
59.65647
  20
60.86562
  30
0.0
  70
0
  0
VERTEX
  8
a
  10
59.7097
  20
60.42548
  30
0.0
  70
0
  0
VERTEX
  8
a
  10
59.74537
  20
59.9895
  30
0.0
  70
0
  0
VERTEX
  8
a
  10
59.76226
  20
59.55832
  30
0.0
  70
0
  0
VERTEX
  8
a
  10
59.75856
  20
59.13274
  30
0.0
  70
0
  0
VERTEX
  8
a
  10
59.7481
  20
58.92241
  30
0.0
  70
0
  0
VERTEX
  8
a
  10
59.74049
  20
58.81794
  30
0.0
  70
0
  0
VERTEX
  8
a
  10
59.73117
  20
58.71399
  30
0.0
  70
0
  0
VERTEX
  8
a
  10
60.50087
  20
58.4639
  30
0.0
  70
0
  0
VERTEX
  8
a
  10
60.55443
  20
58.55348
  30
0.0
  70
0
  0
VERTEX
  8
a
  10
60.60968
  20
58.64247
  30
0.0
  70
0
  0
VERTEX
  8
a
  10
60.72485
  20
58.81878
  30
0.0
  70
0
  0
VERTEX
  8
a
  10
60.972
  20
59.16525
  30
0.0
  70
0
  0
VERTEX
  8
a
  10
61.23911
  20
59.50415
  30
0.0
  70
0
  0
VERTEX
  8
a
  10
61.52423
  20
59.8359
  30
0.0
  70
0
  0
VERTEX
  8
a
  10
61.826
  20
60.1607
  30
0.0
  70
0
  0
VERTEX
  8
a
  10
62.14342
  20
60.47864
  30
0.0
  70
0
  0
VERTEX
  8
a
  10
62.68544
  20
60.27058
  30
0.0
  70
0
  0
VERTEX
  8
a
  10
62.70858
  20
59.82191
  30
0.0
  70
0
  0
VERTEX
  8
a
  10
62.71551
  20
59.37861
  30
0.0
  70
0
  0
VERTEX
  8
a
  10
62.70541
  20
58.94129
  30
0.0
  70
0
  0
VERTEX
  8
a
  10
62.67714
  20
58.51071
  30
0.0
  70
0
  0
VERTEX
  8
a
  10
62.62897
  20
58.08785
  30
0.0
  70
0
  0
VERTEX
  8
a
  10
62.59659
  20
57.87976
  30
0.0
  70
0
  0
VERTEX
  8
a
  10
62.5781
  20
57.77666
  30
0.0
  70
0
  0
VERTEX
  8
a
  10
62.55797
  20
57.67425
  30
0.0
  70
0
  0
VERTEX
  8
a
  10
63.2973
  20
57.34508
  30
0.0
  70
0
  0
VERTEX
  8
a
  10
63.35994
  20
57.42857
  30
0.0
  70
0
  0
VERTEX
  8
a
  10
63.42419
  20
57.51129
  30
0.0
  70
0
  0
VERTEX
  8
a
  10
63.55716
  20
57.6746
  30
0.0
  70
0
  0
VERTEX
  8
a
  10
63.83917
  20
57.99334
  30
0.0
  70
0
  0
VERTEX
  8
a
  10
64.14024
  20
58.30247
  30
0.0
  70
0
  0
VERTEX
  8
a
  10
64.45847
  20
58.60259
  30
0.0
  70
0
  0
VERTEX
  8
a
  10
64.79254
  20
58.89407
  30
0.0
  70
0
  0
VERTEX
  8
a
  10
65.14145
  20
59.17709
  30
0.0
  70
0
  0
VERTEX
  8
a
  10
65.65876
  20
58.91351
  30
0.0
  70
0
  0
VERTEX
  8
a
  10
65.63487
  20
58.46488
  30
0.0
  70
0
  0
VERTEX
  8
a
  10
65.59542
  20
58.02329
  30
0.0
  70
0
  0
VERTEX
  8
a
  10
65.53967
  20
57.58942
  30
0.0
  70
0
  0
VERTEX
  8
a
  10
65.46655
  20
57.16415
  30
0.0
  70
0
  0
VERTEX
  8
a
  10
65.37444
  20
56.74864
  30
0.0
  70
0
  0
VERTEX
  8
a
  10
65.32049
  20
56.54508
  30
0.0
  70
0
  0
VERTEX
  8
a
  10
65.29132
  20
56.44448
  30
0.0
  70
0
  0
VERTEX
  8
a
  10
65.26059
  20
56.34473
  30
0.0
  70
0
  0
VERTEX
  8
a
  10
65.96147
  20
55.94008
  30
0.0
  70
0
  0
VERTEX
  8
a
  10
66.03249
  20
56.01657
  30
0.0
  70
0
  0
VERTEX
  8
a
  10
66.10503
  20
56.09212
  30
0.0
  70
0
  0
VERTEX
  8
a
  10
66.25434
  20
56.24063
  30
0.0
  70
0
  0
VERTEX
  8
a
  10
66.56813
  20
56.52815
  30
0.0
  70
0
  0
VERTEX
  8
a
  10
66.89986
  20
56.80411
  30
0.0
  70
0
  0
VERTEX
  8
a
  10
67.24773
  20
57.06933
  30
0.0
  70
0
  0
VERTEX
  8
a
  10
67.61043
  20
57.32429
  30
0.0
  70
0
  0
VERTEX
  8
a
  10
67.98702
  20
57.56929
  30
0.0
  70
0
  0
VERTEX
  8
a
  10
68.47393
  20
57.25308
  30
0.0
  70
0
  0
VERTEX
  8
a
  10
68.40328
  20
56.8094
  30
0.0
  70
0
  0
VERTEX
  8
a
  10
68.31789
  20
56.37435
  30
0.0
  70
0
  0
VERTEX
  8
a
  10
68.21709
  20
55.94869
  30
0.0
  70
0
  0
VERTEX
  8
a
  10
68.09992
  20
55.53339
  30
0.0
  70
0
  0
VERTEX
  8
a
  10
67.96489
  20
55.12979
  30
0.0
  70
0
  0
VERTEX
  8
a
  10
67.88995
  20
54.93299
  30
0.0
  70
0
  0
VERTEX
  8
a
  10
67.85043
  20
54.83598
  30
0.0
  70
0
  0
VERTEX
  8
a
  10
67.80944
  20
54.73999
  30
0.0
  70
0
  0
VERTEX
  8
a
  10
68.46418
  20
54.26429
  30
0.0
  70
0
  0
VERTEX
  8
a
  10
68.54281
  20
54.33294
  30
0.0
  70
0
  0
VERTEX
  8
a
  10
68.62285
  20
54.4005
  30
0.0
  70
0
  0
VERTEX
  8
a
  10
68.78687
  20
54.53259
  30
0.0
  70
0
  0
VERTEX
  8
a
  10
69.12898
  20
54.78573
  30
0.0
  70
0
  0
VERTEX
  8
a
  10
69.48775
  20
55.02551
  30
0.0
  70
0
  0
VERTEX
  8
a
  10
69.86143
  20
55.25291
  30
0.0
  70
0
  0
VERTEX
  8
a
  10
70.2488
  20
55.46856
  30
0.0
  70
0
  0
VERTEX
  8
a
  10
70.64893
  20
55.67285
  30
0.0
  70
0
  0
VERTEX
  8
a
  10
71.10013
  20
55.30748
  30
0.0
  70
0
  0
VERTEX
  8
a
  10
70.98349
  20
54.87362
  30
0.0
  70
0
  0
VERTEX
  8
a
  10
70.85309
  20
54.44988
  30
0.0
  70
0
  0
VERTEX
  8
a
  10
70.70835
  20
54.03709
  30
0.0
  70
0
  0
VERTEX
  8
a
  10
70.54841
  20
53.63631
  30
0.0
  70
0
  0
VERTEX
  8
a
  10
70.37193
  20
53.24904
  30
0.0
  70
0
  0
VERTEX
  8
a
  10
70.27682
  20
53.06114
  30
0.0
  70
0
  0
VERTEX
  8
a
  10
70.22738
  20
52.9688
  30
0.0
  70
0
  0
VERTEX
  8
a
  10
70.17658
  20
52.87762
  30
0.0
  70
0
  0
VERTEX
  8
a
  10
70.77801
  20
52.33609
  30
0.0
  70
0
  0
VERTEX
  8
a
  10
70.86338
  20
52.39614
  30
0.0
  70
0
  0
VERTEX
  8
a
  10
70.95005
  20
52.45496
  30
0.0
  70
0
  0
VERTEX
  8
a
  10
71.12698
  20
52.56918
  30
0.0
  70
0
  0
VERTEX
  8
a
  10
71.49368
  20
52.78518
  30
0.0
  70
0
  0
VERTEX
  8
a
  10
71.87554
  20
52.98614
  30
0.0
  70
0
  0
VERTEX
  8
a
  10
72.27095
  20
53.17323
  30
0.0
  70
0
  0
VERTEX
  8
a
  10
72.67874
  20
53.34721
  30
0.0
  70
0
  0
VERTEX
  8
a
  10
73.09803
  20
53.50856
  30
0.0
  70
0
  0
VERTEX
  8
a
  10
73.50856
  20
53.09803
  30
0.0
  70
0
  0
VERTEX
  8
a
  10
73.34721
  20
52.67874
  30
0.0
  70
0
  0
VERTEX
  8
a
  10
73.17323
  20
52.27095
  30
0.0
  70
0
  0
VERTEX
  8
a
  10
72.98614
  20
51.87554
  30
0.0
  70
0
  0
VERTEX
  8
a
  10
72.78518
  20
51.49368
  30
0.0
  70
0
  0
VERTEX
  8
a
  10
72.56918
  20
51.12698
  30
0.0
  70
0
  0
VERTEX
  8
a
  10
72.45496
  20
50.95005
  30
0.0
  70
0
  0
VERTEX
  8
a
  10
72.39614
  20
50.86338
  30
0.0
  70
0
  0
VERTEX
  8
a
  10
72.33609
  20
50.77801
  30
0.0
  70
0
  0
VERTEX
  8
a
  10
72.87762
  20
50.17658
  30
0.0
  70
0
  0
VERTEX
  8
a
  10
72.9688
  20
50.22738
  30
0.0
  70
0
  0
VERTEX
  8
a
  10
73.06114
  20
50.27682
  30
0.0
  70
0
  0
VERTEX
  8
a
  10
73.24904
  20
50.37193
  30
0.0
  70
0
  0
VERTEX
  8
a
  10
73.63631
  20
50.54841
  30
0.0
  70
0
  0
VERTEX
  8
a
  10
74.03709
  20
50.70835
  30
0.0
  70
0
  0
VERTEX
  8
a
  10
74.44988
  20
50.85309
  30
0.0
  70
0
  0
VERTEX
  8
a
  10
74.87362
  20
50.98349
  30
0.0
  70
0
  0
VERTEX
  8
a
  10
75.30748
  20
51.10013
  30
0.0
  70
0
  0
VERTEX
  8
a
  10
75.67285
  20
50.64893
  30
0.0
  70
0
  0
VERTEX
  8
a
  10
75.46856
  20
50.2488
  30
0.0
  70
0
  0
VERTEX
  8
a
  10
75.25291
  20
49.86143
  30
0.0
  70
0
  0
VERTEX
  8
a
  10
75.02551
  20
49.48775
  30
0.0
  70
0
  0
VERTEX
  8
a
  10
74.78573
  20
49.12898
  30
0.0
  70
0
  0
VERTEX
  8
a
  10
74.53259
  20
48.78687
  30
0.0
  70
0
  0
VERTEX
  8
a
  10
74.4005
  20
48.62285
  30
0.0
  70
0
  0
VERTEX
  8
a
  10
74.33294
  20
48.54281
  30
0.0
  70
0
  0
VERTEX
  8
a
  10
74.26429
  20
48.46418
  30
0.0
  70
0
  0
VERTEX
  8
a
  10
74.73999
  20
47.80944
  30
0.0
  70
0
  0
VERTEX
  8
a
  10
74.83598
  20
47.85043
  30
0.0
  70
0
  0
VERTEX
  8
a
  10
74.93299
  20
47.88995
  30
0.0
  70
0
  0
VERTEX
  8
a
  10
75.12979
  20
47.96489
  30
0.0
  70
0
  0
VERTEX
  8
a
  10
75.53339
  20
48.09992
  30
0.0
  70
0
  0
VERTEX
  8
a
  10
75.94869
  20
48.21709
  30
0.0
  70
0
  0
VERTEX
  8
a
  10
76.37435
  20
48.31789
  30
0.0
  70
0
  0
VERTEX
  8
a
  10
76.8094
  20
48.40328
  30
0.0
  70
0
  0
VERTEX
  8
a
  10
77.25308
  20
48.47393
  30
0.0
  70
0
  0
VERTEX
  8
a
  10
77.56929
  20
47.98702
  30
0.0
  70
0
  0
VERTEX
  8
a
  10
77.32429
  20
47.61043
  30
0.0
  70
0
  0
VERTEX
  8
a
  10
77.06933
  20
47.24773
  30
0.0
  70
0
  0
VERTEX
  8
a
  10
76.80411
  20
46.89986
  30
0.0
  70
0
  0
VERTEX
  8
a
  10
76.52815
  20
46.56813
  30
0.0
  70
0
  0
VERTEX
  8
a
  10
76.24063
  20
46.25434
  30
0.0
  70
0
  0
VERTEX
  8
a
  10
76.09212
  20
46.10503
  30
0.0
  70
0
  0
VERTEX
  8
a
  10
76.01657
  20
46.03249
  30
0.0
  70
0
  0
VERTEX
  8
a
  10
75.94008
  20
45.96147
  30
0.0
  70
0
  0
VERTEX
  8
a
  10
76.34473
  20
45.26059
  30
0.0
  70
0
  0
VERTEX
  8
a
  10
76.44448
  20
45.29132
  30
0.0
  70
0
  0
VERTEX
  8
a
  10
76.54508
  20
45.32049
  30
0.0
  70
0
  0
VERTEX
  8
a
  10
76.74864
  20
45.37444
  30
0.0
  70
0
  0
VERTEX
  8
a
  10
77.16415
  20
45.46655
  30
0.0
  70
0
  0
VERTEX
  8
a
  10
77.58942
  20
45.53967
  30
0.0
  70
0
  0
VERTEX
  8
a
  10
78.02329
  20
45.59542
  30
0.0
  70
0
  0
VERTEX
  8
a
  10
78.46488
  20
45.63487
  30
0.0
  70
0
  0
VERTEX
  8
a
  10
78.91351
  20
45.65876
  30
0.0
  70
0
  0
VERTEX
  8
a
  10
79.17709
  20
45.14145
  30
0.0
  70
0
  0
VERTEX
  8
a
  10
78.89407
  20
44.79254
  30
0.0
  70
0
  0
VERTEX
  8
a
  10
78.60259
  20
44.45847
  30
0.0
  70
0
  0
VERTEX
  8
a
  10
78.30247
  20
44.14024
  30
0.0
  70
0
  0
VERTEX
  8
a
  10
77.99334
  20
43.83917
  30
0.0
  70
0
  0
VERTEX
  8
a
  10
77.6746
  20
43.55716
  30
0.0
  70
0
  0
VERTEX
  8
a
  10
77.51129
  20
43.42419
  30
0.0
  70
0
  0
VERTEX
  8
a
  10
77.42857
  20
43.35994
  30
0.0
  70
0
  0
VERTEX
  8
a
  10
77.34508
  20
43.2973
  30
0.0
  70
0
  0
VERTEX
  8
a
  10
77.67425
  20
42.55797
  30
0.0
  70
0
  0
VERTEX
  8
a
  10
77.77666
  20
42.5781
  30
0.0
  70
0
  0
VERTEX
  8
a
  10
77.87976
  20
42.59659
  30
0.0
  70
0
  0
VERTEX
  8
a
  10
78.08785
  20
42.62897
  30
0.0
  70
0
  0
VERTEX
  8
a
  10
78.51071
  20
42.67714
  30
0.0
  70
0
  0
VERTEX
  8
a
  10
78.94129
  20
42.70541
  30
0.0
  70
0
  0
VERTEX
  8
a
  10
79.37861
  20
42.71551
  30
0.0
  70
0
  0
VERTEX
  8
a
  10
79.82191
  20
42.70858
  30
0.0
  70
0
  0
VERTEX
  8
a
  10
80.27058
  20
42.68544
  30
0.0
  70
0
  0
VERTEX
  8
a
  10
80.47864
  20
42.14342
  30
0.0
  70
0
  0
VERTEX
  8
a
  10
80.1607
  20
41.826
  30
0.0
  70
0
  0
VERTEX
  8
a
  10
79.8359
  20
41.52423
  30
0.0
  70
0
  0
VERTEX
  8
a
  10
79.50415
  20
41.23911
  30
0.0
  70
0
  0
VERTEX
  8
a
  10
79.16525
  20
40.972
  30
0.0
  70
0
  0
VERTEX
  8
a
  10
78.81878
  20
40.72485
  30
0.0
  70
0
  0
VERTEX
  8
a
  10
78.64247
  20
40.60968
  30
0.0
  70
0
  0
VERTEX
  8
a
  10
78.55348
  20
40.55443
  30
0.0
  70
0
  0
VERTEX
  8
a
  10
78.4639
  20
40.50087
  30
0.0
  70
0
  0
VERTEX
  8
a
  10
78.71399
  20
39.73117
  30
0.0
  70
0
  0
VERTEX
  8
a
  10
78.81794
  20
39.74049
  30
0.0
  70
0
  0
VERTEX
  8
a
  10
78.92241
  20
39.7481
  30
0.0
  70
0
  0
VERTEX
  8
a
  10
79.13274
  20
39.75856
  30
0.0
  70
0
  0
VERTEX
  8
a
  10
79.55832
  20
39.76226
  30
0.0
  70
0
  0
VERTEX
  8
a
  10
79.9895
  20
39.74537
  30
0.0
  70
0
  0
VERTEX
  8
a
  10
80.42548
  20
39.7097
  30
0.0
  70
0
  0
VERTEX
  8
a
  10
80.86562
  20
39.65647
  30
0.0
  70
0
  0
VERTEX
  8
a
  10
81.30941
  20
39.58656
  30
0.0
  70
0
  0
VERTEX
  8
a
  10
81.45968
  20
39.02576
  30
0.0
  70
0
  0
VERTEX
  8
a
  10
81.1103
  20
38.74332
  30
0.0
  70
0
  0
VERTEX
  8
a
  10
80.75574
  20
38.47715
  30
0.0
  70
0
  0
VERTEX
  8
a
  10
80.396
  20
38.22827
  30
0.0
  70
0
  0
VERTEX
  8
a
  10
80.03104
  20
37.99804
  30
0.0
  70
0
  0
VERTEX
  8
a
  10
79.66063
  20
37.78847
  30
0.0
  70
0
  0
VERTEX
  8
a
  10
79.47325
  20
37.69235
  30
0.0
  70
0
  0
VERTEX
  8
a
  10
79.37897
  20
37.64671
  30
0.0
  70
0
  0
VERTEX
  8
a
  10
79.28428
  20
37.6028
  30
0.0
  70
0
  0
VERTEX
  8
a
  10
79.45254
  20
36.81118
  30
0.0
  70
0
  0
VERTEX
  8
a
  10
79.55691
  20
36.80959
  30
0.0
  70
0
  0
VERTEX
  8
a
  10
79.6616
  20
36.80623
  30
0.0
  70
0
  0
VERTEX
  8
a
  10
79.87187
  20
36.79465
  30
0.0
  70
0
  0
VERTEX
  8
a
  10
80.2955
  20
36.75385
  30
0.0
  70
0
  0
VERTEX
  8
a
  10
80.72255
  20
36.69197
  30
0.0
  70
0
  0
VERTEX
  8
a
  10
81.15241
  20
36.61092
  30
0.0
  70
0
  0
VERTEX
  8
a
  10
81.58458
  20
36.51198
  30
0.0
  70
0
  0
VERTEX
  8
a
  10
82.01864
  20
36.39606
  30
0.0
  70
0
  0
VERTEX
  8
a
  10
82.10946
  20
35.82263
  30
0.0
  70
0
  0
VERTEX
  8
a
  10
81.73247
  20
35.57826
  30
0.0
  70
0
  0
VERTEX
  8
a
  10
81.35203
  20
35.35061
  30
0.0
  70
0
  0
VERTEX
  8
a
  10
80.96825
  20
35.14069
  30
0.0
  70
0
  0
VERTEX
  8
a
  10
80.58122
  20
34.94988
  30
0.0
  70
0
  0
VERTEX
  8
a
  10
80.19093
  20
34.78017
  30
0.0
  70
0
  0
VERTEX
  8
a
  10
79.99453
  20
34.70417
  30
0.0
  70
0
  0
VERTEX
  8
a
  10
79.896
  20
34.66863
  30
0.0
  70
0
  0
VERTEX
  8
a
  10
79.79724
  20
34.63486
  30
0.0
  70
0
  0
VERTEX
  8
a
  10
79.88184
  20
33.82999
  30
0.0
  70
0
  0
VERTEX
  8
a
  10
79.98546
  20
33.81749
  30
0.0
  70
0
  0
VERTEX
  8
a
  10
80.08923
  20
33.80322
  30
0.0
  70
0
  0
VERTEX
  8
a
  10
80.29714
  20
33.76971
  30
0.0
  70
0
  0
VERTEX
  8
a
  10
80.71418
  20
33.68486
  30
0.0
  70
0
  0
VERTEX
  8
a
  10
81.13243
  20
33.57868
  30
0.0
  70
0
  0
VERTEX
  8
a
  10
81.55146
  20
33.45314
  30
0.0
  70
0
  0
VERTEX
  8
a
  10
81.97092
  20
33.30957
  30
0.0
  70
0
  0
VERTEX
  8
a
  10
82.39048
  20
33.14891
  30
0.0
  70
0
  0
VERTEX
  8
a
  10
82.42087
  20
32.56913
  30
0.0
  70
0
  0
VERTEX
  8
a
  10
82.0204
  20
32.3655
  30
0.0
  70
0
  0
VERTEX
  8
a
  10
81.61824
  20
32.17886
  30
0.0
  70
0
  0
VERTEX
  8
a
  10
81.21463
  20
32.01022
  30
0.0
  70
0
  0
VERTEX
  8
a
  10
80.80977
  20
31.8609
  30
0.0
  70
0
  0
VERTEX
  8
a
  10
80.40388
  20
31.73292
  30
0.0
  70
0
  0
VERTEX
  8
a
  10
80.20061
  20
31.67787
  30
0.0
  70
0
  0
VERTEX
  8
a
  10
80.0989
  20
31.65282
  30
0.0
  70
0
  0
VERTEX
  8
a
  10
79.99715
  20
31.62956
  30
0.0
  70
0
  0
VERTEX
  8
a
  10
79.99715
  20
30.82025
  30
0.0
  70
0
  0
VERTEX
  8
a
  10
80.0989
  20
30.79699
  30
0.0
  70
0
  0
VERTEX
  8
a
  10
80.20061
  20
30.77195
  30
0.0
  70
0
  0
VERTEX
  8
a
  10
80.40388
  20
30.7169
  30
0.0
  70
0
  0
VERTEX
  8
a
  10
80.80977
  20
30.58891
  30
0.0
  70
0
  0
VERTEX
  8
a
  10
81.21463
  20
30.4396
  30
0.0
  70
0
  0
VERTEX
  8
a
  10
81.61824
  20
30.27095
  30
0.0
  70
0
  0
VERTEX
  8
a
  10
82.0204
  20
30.08432
  30
0.0
  70
0
  0
VERTEX
  8
a
  10
82.42087
  20
29.88068
  30
0.0
  70
0
  0
VERTEX
  8
a
  10
82.39048
  20
29.3009
  30
0.0
  70
0
  0
VERTEX
  8
a
  10
81.97092
  20
29.14025
  30
0.0
  70
0
  0
VERTEX
  8
a
  10
81.55146
  20
28.99667
  30
0.0
  70
0
  0
VERTEX
  8
a
  10
81.13243
  20
28.87113
  30
0.0
  70
0
  0
VERTEX
  8
a
  10
80.71418
  20
28.76496
  30
0.0
  70
0
  0
VERTEX
  8
a
  10
80.29714
  20
28.6801
  30
0.0
  70
0
  0
VERTEX
  8
a
  10
80.08923
  20
28.6466
  30
0.0
  70
0
  0
VERTEX
  8
a
  10
79.98546
  20
28.63232
  30
0.0
  70
0
  0
VERTEX
  8
a
  10
79.88184
  20
28.61982
  30
0.0
  70
0
  0
VERTEX
  8
a
  10
79.79724
  20
27.81495
  30
0.0
  70
0
  0
VERTEX
  8
a
  10
79.896
  20
27.78118
  30
0.0
  70
0
  0
VERTEX
  8
a
  10
79.99453
  20
27.74564
  30
0.0
  70
0
  0
VERTEX
  8
a
  10
80.19093
  20
27.66965
  30
0.0
  70
0
  0
VERTEX
  8
a
  10
80.58122
  20
27.49994
  30
0.0
  70
0
  0
VERTEX
  8
a
  10
80.96825
  20
27.30912
  30
0.0
  70
0
  0
VERTEX
  8
a
  10
81.35203
  20
27.09921
  30
0.0
  70
0
  0
VERTEX
  8
a
  10
81.73247
  20
26.87156
  30
0.0
  70
0
  0
VERTEX
  8
a
  10
82.10946
  20
26.62718
  30
0.0
  70
0
  0
VERTEX
  8
a
  10
82.01864
  20
26.05375
  30
0.0
  70
0
  0
VERTEX
  8
a
  10
81.58458
  20
25.93783
  30
0.0
  70
0
  0
VERTEX
  8
a
  10
81.15241
  20
25.83889
  30
0.0
  70
0
  0
VERTEX
  8
a
  10
80.72255
  20
25.75784
  30
0.0
  70
0
  0
VERTEX
  8
a
  10
80.2955
  20
25.69597
  30
0.0
  70
0
  0
VERTEX
  8
a
  10
79.87187
  20
25.65517
  30
0.0
  70
0
  0
VERTEX
  8
a
  10
79.6616
  20
25.64358
  30
0.0
  70
0
  0
VERTEX
  8
a
  10
79.55691
  20
25.64023
  30
0.0
  70
0
  0
VERTEX
  8
a
  10
79.45254
  20
25.63863
  30
0.0
  70
0
  0
VERTEX
  8
a
  10
79.28428
  20
24.84701
  30
0.0
  70
0
  0
VERTEX
  8
a
  10
79.37897
  20
24.8031
  30
0.0
  70
0
  0
VERTEX
  8
a
  10
79.47325
  20
24.75746
  30
0.0
  70
0
  0
VERTEX
  8
a
  10
79.66063
  20
24.66135
  30
0.0
  70
0
  0
VERTEX
  8
a
  10
80.03104
  20
24.45177
  30
0.0
  70
0
  0
VERTEX
  8
a
  10
80.396
  20
24.22155
  30
0.0
  70
0
  0
VERTEX
  8
a
  10
80.75574
  20
23.97267
  30
0.0
  70
0
  0
VERTEX
  8
a
  10
81.1103
  20
23.7065
  30
0.0
  70
0
  0
VERTEX
  8
a
  10
81.45968
  20
23.42405
  30
0.0
  70
0
  0
VERTEX
  8
a
  10
81.30941
  20
22.86326
  30
0.0
  70
0
  0
VERTEX
  8
a
  10
80.86562
  20
22.79334
  30
0.0
  70
0
  0
VERTEX
  8
a
  10
80.42548
  20
22.74012
  30
0.0
  70
0
  0
VERTEX
  8
a
  10
79.9895
  20
22.70445
  30
0.0
  70
0
  0
VERTEX
  8
a
  10
79.55832
  20
22.68755
  30
0.0
  70
0
  0
VERTEX
  8
a
  10
79.13274
  20
22.69126
  30
0.0
  70
0
  0
VERTEX
  8
a
  10
78.92241
  20
22.70171
  30
0.0
  70
0
  0
VERTEX
  8
a
  10
78.81794
  20
22.70932
  30
0.0
  70
0
  0
VERTEX
  8
a
  10
78.71399
  20
22.71864
  30
0.0
  70
0
  0
VERTEX
  8
a
  10
78.4639
  20
21.94895
  30
0.0
  70
0
  0
VERTEX
  8
a
  10
78.55348
  20
21.89538
  30
0.0
  70
0
  0
VERTEX
  8
a
  10
78.64247
  20
21.84013
  30
0.0
  70
0
  0
VERTEX
  8
a
  10
78.81878
  20
21.72496
  30
0.0
  70
0
  0
VERTEX
  8
a
  10
79.16525
  20
21.47781
  30
0.0
  70
0
  0
VERTEX
  8
a
  10
79.50415
  20
21.2107
  30
0.0
  70
0
  0
VERTEX
  8
a
  10
79.8359
  20
20.92558
  30
0.0
  70
0
  0
VERTEX
  8
a
  10
80.1607
  20
20.62381
  30
0.0
  70
0
  0
VERTEX
  8
a
  10
80.47864
  20
20.30639
  30
0.0
  70
0
  0
VERTEX
  8
a
  10
80.27058
  20
19.76438
  30
0.0
  70
0
  0
VERTEX
  8
a
  10
79.82191
  20
19.74124
  30
0.0
  70
0
  0
VERTEX
  8
a
  10
79.37861
  20
19.73431
  30
0.0
  70
0
  0
VERTEX
  8
a
  10
78.94129
  20
19.7444
  30
0.0
  70
0
  0
VERTEX
  8
a
  10
78.51071
  20
19.77267
  30
0.0
  70
0
  0
VERTEX
  8
a
  10
78.08785
  20
19.82084
  30
0.0
  70
0
  0
VERTEX
  8
a
  10
77.87976
  20
19.85322
  30
0.0
  70
0
  0
VERTEX
  8
a
  10
77.77666
  20
19.87171
  30
0.0
  70
0
  0
VERTEX
  8
a
  10
77.67425
  20
19.89185
  30
0.0
  70
0
  0
VERTEX
  8
a
  10
77.34508
  20
19.15251
  30
0.0
  70
0
  0
VERTEX
  8
a
  10
77.42857
  20
19.08988
  30
0.0
  70
0
  0
VERTEX
  8
a
  10
77.51129
  20
19.02563
  30
0.0
  70
0
  0
VERTEX
  8
a
  10
77.6746
  20
18.89266
  30
0.0
  70
0
  0
VERTEX
  8
a
  10
77.99334
  20
18.61065
  30
0.0
  70
0
  0
VERTEX
  8
a
  10
78.30247
  20
18.30957
  30
0.0
  70
0
  0
VERTEX
  8
a
  10
78.60259
  20
17.99134
  30
0.0
  70
0
  0
VERTEX
  8
a
  10
78.89407
  20
17.65727
  30
0.0
  70
0
  0
VERTEX
  8
a
  10
79.17709
  20
17.30836
  30
0.0
  70
0
  0
VERTEX
  8
a
  10
78.91351
  20
16.79106
  30
0.0
  70
0
  0
VERTEX
  8
a
  10
78.46488
  20
16.81494
  30
0.0
  70
0
  0
VERTEX
  8
a
  10
78.02329
  20
16.85439
  30
0.0
  70
0
  0
VERTEX
  8
a
  10
77.58942
  20
16.91014
  30
0.0
  70
0
  0
VERTEX
  8
a
  10
77.16415
  20
16.98326
  30
0.0
  70
0
  0
VERTEX
  8
a
  10
76.74864
  20
17.07537
  30
0.0
  70
0
  0
VERTEX
  8
a
  10
76.54508
  20
17.12933
  30
0.0
  70
0
  0
VERTEX
  8
a
  10
76.44448
  20
17.15849
  30
0.0
  70
0
  0
VERTEX
  8
a
  10
76.34473
  20
17.18922
  30
0.0
  70
0
  0
VERTEX
  8
a
  10
75.94008
  20
16.48834
  30
0.0
  70
0
  0
VERTEX
  8
a
  10
76.01657
  20
16.41733
  30
0.0
  70
0
  0
VERTEX
  8
a
  10
76.09212
  20
16.34478
  30
0.0
  70
0
  0
VERTEX
  8
a
  10
76.24063
  20
16.19547
  30
0.0
  70
0
  0
VERTEX
  8
a
  10
76.52815
  20
15.88169
  30
0.0
  70
0
  0
VERTEX
  8
a
  10
76.80411
  20
15.54995
  30
0.0
  70
0
  0
VERTEX
  8
a
  10
77.06933
  20
15.20209
  30
0.0
  70
0
  0
VERTEX
  8
a
  10
77.32429
  20
14.83938
  30
0.0
  70
0
  0
VERTEX
  8
a
  10
77.56929
  20
14.4628
  30
0.0
  70
0
  0
VERTEX
  8
a
  10
77.25308
  20
13.97588
  30
0.0
  70
0
  0
VERTEX
  8
a
  10
76.8094
  20
14.04653
  30
0.0
  70
0
  0
VERTEX
  8
a
  10
76.37435
  20
14.13192
  30
0.0
  70
0
  0
VERTEX
  8
a
  10
75.94869
  20
14.23272
  30
0.0
  70
0
  0
VERTEX
  8
a
  10
75.53339
  20
14.34989
  30
0.0
  70
0
  0
VERTEX
  8
a
  10
75.12979
  20
14.48493
  30
0.0
  70
0
  0
VERTEX
  8
a
  10
74.93299
  20
14.55987
  30
0.0
  70
0
  0
VERTEX
  8
a
  10
74.83598
  20
14.59939
  30
0.0
  70
0
  0
VERTEX
  8
a
  10
74.73999
  20
14.64038
  30
0.0
  70
0
  0
VERTEX
  8
a
  10
74.26429
  20
13.98563
  30
0.0
  70
0
  0
VERTEX
  8
a
  10
74.33294
  20
13.90701
  30
0.0
  70
0
  0
VERTEX
  8
a
  10
74.4005
  20
13.82696
  30
0.0
  70
0
  0
VERTEX
  8
a
  10
74.53259
  20
13.66295
  30
0.0
  70
0
  0
VERTEX
  8
a
  10
74.78573
  20
13.32083
  30
0.0
  70
0
  0
VERTEX
  8
a
  10
75.02551
  20
12.96206
  30
0.0
  70
0
  0
VERTEX
  8
a
  10
75.25291
  20
12.58838
  30
0.0
  70
0
  0
VERTEX
  8
a
  10
75.46856
  20
12.20101
  30
0.0
  70
0
  0
VERTEX
  8
a
  10
75.67285
  20
11.80088
  30
0.0
  70
0
  0
VERTEX
  8
a
  10
75.30748
  20
11.34969
  30
0.0
  70
0
  0
VERTEX
  8
a
  10
74.87362
  20
11.46633
  30
0.0
  70
0
  0
VERTEX
  8
a
  10
74.44988
  20
11.59673
  30
0.0
  70
0
  0
VERTEX
  8
a
  10
74.03709
  20
11.74147
  30
0.0
  70
0
  0
VERTEX
  8
a
  10
73.63631
  20
11.90141
  30
0.0
  70
0
  0
VERTEX
  8
a
  10
73.24904
  20
12.07789
  30
0.0
  70
0
  0
VERTEX
  8
a
  10
73.06114
  20
12.17299
  30
0.0
  70
0
  0
VERTEX
  8
a
  10
72.9688
  20
12.22243
  30
0.0
  70
0
  0
VERTEX
  8
a
  10
72.87762
  20
12.27323
  30
0.0
  70
0
  0
VERTEX
  8
a
  10
72.33609
  20
11.6718
  30
0.0
  70
0
  0
VERTEX
  8
a
  10
72.39614
  20
11.58643
  30
0.0
  70
0
  0
VERTEX
  8
a
  10
72.45496
  20
11.49976
  30
0.0
  70
0
  0
VERTEX
  8
a
  10
72.56918
  20
11.32284
  30
0.0
  70
0
  0
VERTEX
  8
a
  10
72.78518
  20
10.95613
  30
0.0
  70
0
  0
VERTEX
  8
a
  10
72.98614
  20
10.57427
  30
0.0
  70
0
  0
VERTEX
  8
a
  10
73.17323
  20
10.17887
  30
0.0
  70
0
  0
VERTEX
  8
a
  10
73.34721
  20
9.77108
  30
0.0
  70
0
  0
VERTEX
  8
a
  10
73.50856
  20
9.35178
  30
0.0
  70
0
  0
VERTEX
  8
a
  10
73.09803
  20
8.94125
  30
0.0
  70
0
  0
VERTEX
  8
a
  10
72.67874
  20
9.1026
  30
0.0
  70
0
  0
VERTEX
  8
a
  10
72.27095
  20
9.27658
  30
0.0
  70
0
  0
VERTEX
  8
a
  10
71.87554
  20
9.46368
  30
0.0
  70
0
  0
VERTEX
  8
a
  10
71.49368
  20
9.66463
  30
0.0
  70
0
  0
VERTEX
  8
a
  10
71.12698
  20
9.88063
  30
0.0
  70
0
  0
VERTEX
  8
a
  10
70.95005
  20
9.99485
  30
0.0
  70
0
  0
VERTEX
  8
a
  10
70.86338
  20
10.05367
  30
0.0
  70
0
  0
VERTEX
  8
a
  10
70.77801
  20
10.11373
  30
0.0
  70
0
  0
VERTEX
  8
a
  10
70.17658
  20
9.57219
  30
0.0
  70
0
  0
VERTEX
  8
a
  10
70.22738
  20
9.48102
  30
0.0
  70
0
  0
VERTEX
  8
a
  10
70.27682
  20
9.38867
  30
0.0
  70
0
  0
VERTEX
  8
a
  10
70.37193
  20
9.20078
  30
0.0
  70
0
  0
VERTEX
  8
a
  10
70.54841
  20
8.81351
  30
0.0
  70
0
  0
VERTEX
  8
a
  10
70.70835
  20
8.41273
  30
0.0
  70
0
  0
VERTEX
  8
a
  10
70.85309
  20
7.99993
  30
0.0
  70
0
  0
VERTEX
  8
a
  10
70.98349
  20
7.57619
  30
0.0
  70
0
  0
VERTEX
  8
a
  10
71.10013
  20
7.14233
  30
0.0
  70
0
  0
VERTEX
  8
a
  10
70.64893
  20
6.77696
  30
0.0
  70
0
  0
VERTEX
  8
a
  10
70.2488
  20
6.98126
  30
0.0
  70
0
  0
VERTEX
  8
a
  10
69.86143
  20
7.1969
  30
0.0
  70
0
  0
VERTEX
  8
a
  10
69.48775
  20
7.42431
  30
0.0
  70
0
  0
VERTEX
  8
a
  10
69.12898
  20
7.66408
  30
0.0
  70
0
  0
VERTEX
  8
a
  10
68.78687
  20
7.91722
  30
0.0
  70
0
  0
VERTEX
  8
a
  10
68.62285
  20
8.04931
  30
0.0
  70
0
  0
VERTEX
  8
a
  10
68.54281
  20
8.11687
  30
0.0
  70
0
  0
VERTEX
  8
a
  10
68.46418
  20
8.18552
  30
0.0
  70
0
  0
VERTEX
  8
a
  10
67.80944
  20
7.70982
  30
0.0
  70
0
  0
VERTEX
  8
a
  10
67.85043
  20
7.61383
  30
0.0
  70
0
  0
VERTEX
  8
a
  10
67.88995
  20
7.51683
  30
0.0
  70
0
  0
VERTEX
  8
a
  10
67.96489
  20
7.32002
  30
0.0
  70
0
  0
VERTEX
  8
a
  10
68.09992
  20
6.91642
  30
0.0
  70
0
  0
VERTEX
  8
a
  10
68.21709
  20
6.50112
  30
0.0
  70
0
  0
VERTEX
  8
a
  10
68.31789
  20
6.07546
  30
0.0
  70
0
  0
VERTEX
  8
a
  10
68.40328
  20
5.64041
  30
0.0
  70
0
  0
VERTEX
  8
a
  10
68.47393
  20
5.19673
  30
0.0
  70
0
  0
VERTEX
  8
a
  10
67.98702
  20
4.88052
  30
0.0
  70
0
  0
VERTEX
  8
a
  10
67.61043
  20
5.12553
  30
0.0
  70
0
  0
VERTEX
  8
a
  10
67.24773
  20
5.38049
  30
0.0
  70
0
  0
VERTEX
  8
a
  10
66.89986
  20
5.6457
  30
0.0
  70
0
  0
VERTEX
  8
a
  10
66.56813
  20
5.92166
  30
0.0
  70
0
  0
VERTEX
  8
a
  10
66.25434
  20
6.20918
  30
0.0
  70
0
  0
VERTEX
  8
a
  10
66.10503
  20
6.35769
  30
0.0
  70
0
  0
VERTEX
  8
a
  10
66.03249
  20
6.43325
  30
0.0
  70
0
  0
VERTEX
  8
a
  10
65.96147
  20
6.50974
  30
0.0
  70
0
  0
VERTEX
  8
a
  10
65.26059
  20
6.10508
  30
0.0
  70
0
  0
VERTEX
  8
a
  10
65.29132
  20
6.00534
  30
0.0
  70
0
  0
VERTEX
  8
a
  10
65.32049
  20
5.90473
  30
0.0
  70
0
  0
VERTEX
  8
a
  10
65.37444
  20
5.70117
  30
0.0
  70
0
  0
VERTEX
  8
a
  10
65.46655
  20
5.28567
  30
0.0
  70
0
  0
VERTEX
  8
a
  10
65.53967
  20
4.86039
  30
0.0
  70
0
  0
VERTEX
  8
a
  10
65.59542
  20
4.42653
  30
0.0
  70
0
  0
VERTEX
  8
a
  10
65.63487
  20
3.98493
  30
0.0
  70
0
  0
VERTEX
  8
a
  10
65.65876
  20
3.5363
  30
0.0
  70
0
  0
VERTEX
  8
a
  10
65.14145
  20
3.27272
  30
0.0
  70
0
  0
VERTEX
  8
a
  10
64.79254
  20
3.55575
  30
0.0
  70
0
  0
VERTEX
  8
a
  10
64.45847
  20
3.84722
  30
0.0
  70
0
  0
VERTEX
  8
a
  10
64.14024
  20
4.14735
  30
0.0
  70
0
  0
VERTEX
  8
a
  10
63.83917
  20
4.45647
  30
0.0
  70
0
  0
VERTEX
  8
a
  10
63.55716
  20
4.77522
  30
0.0
  70
0
  0
VERTEX
  8
a
  10
63.42419
  20
4.93852
  30
0.0
  70
0
  0
VERTEX
  8
a
  10
63.35994
  20
5.02124
  30
0.0
  70
0
  0
VERTEX
  8
a
  10
63.2973
  20
5.10474
  30
0.0
  70
0
  0
VERTEX
  8
a
  10
62.55797
  20
4.77556
  30
0.0
  70
0
  0
VERTEX
  8
a
  10
62.5781
  20
4.67315
  30
0.0
  70
0
  0
VERTEX
  8
a
  10
62.59659
  20
4.57005
  30
0.0
  70
0
  0
VERTEX
  8
a
  10
62.62897
  20
4.36196
  30
0.0
  70
0
  0
VERTEX
  8
a
  10
62.67714
  20
3.93911
  30
0.0
  70
0
  0
VERTEX
  8
a
  10
62.70541
  20
3.50852
  30
0.0
  70
0
  0
VERTEX
  8
a
  10
62.71551
  20
3.0712
  30
0.0
  70
0
  0
VERTEX
  8
a
  10
62.70858
  20
2.62791
  30
0.0
  70
0
  0
VERTEX
  8
a
  10
62.68544
  20
2.17924
  30
0.0
  70
0
  0
VERTEX
  8
a
  10
62.14342
  20
1.97117
  30
0.0
  70
0
  0
VERTEX
  8
a
  10
61.826
  20
2.28912
  30
0.0
  70
0
  0
VERTEX
  8
a
  10
61.52423
  20
2.61392
  30
0.0
  70
0
  0
VERTEX
  8
a
  10
61.23911
  20
2.94566
  30
0.0
  70
0
  0
VERTEX
  8
a
  10
60.972
  20
3.28456
  30
0.0
  70
0
  0
VERTEX
  8
a
  10
60.72485
  20
3.63104
  30
0.0
  70
0
  0
VERTEX
  8
a
  10
60.60968
  20
3.80735
  30
0.0
  70
0
  0
VERTEX
  8
a
  10
60.55443
  20
3.89634
  30
0.0
  70
0
  0
VERTEX
  8
a
  10
60.50087
  20
3.98592
  30
0.0
  70
0
  0
VERTEX
  8
a
  10
59.73117
  20
3.73583
  30
0.0
  70
0
  0
VERTEX
  8
a
  10
59.74049
  20
3.63187
  30
0.0
  70
0
  0
VERTEX
  8
a
  10
59.7481
  20
3.5274
  30
0.0
  70
0
  0
VERTEX
  8
a
  10
59.75856
  20
3.31707
  30
0.0
  70
0
  0
VERTEX
  8
a
  10
59.76226
  20
2.8915
  30
0.0
  70
0
  0
VERTEX
  8
a
  10
59.74537
  20
2.46031
  30
0.0
  70
0
  0
VERTEX
  8
a
  10
59.7097
  20
2.02434
  30
0.0
  70
0
  0
VERTEX
  8
a
  10
59.65647
  20
1.58419
  30
0.0
  70
0
  0
VERTEX
  8
a
  10
59.58656
  20
1.1404
  30
0.0
  70
0
  0
VERTEX
  8
a
  10
59.02576
  20
0.99013
  30
0.0
  70
0
  0
VERTEX
  8
a
  10
58.74332
  20
1.33952
  30
0.0
  70
0
  0
VERTEX
  8
a
  10
58.47715
  20
1.69408
  30
0.0
  70
0
  0
VERTEX
  8
a
  10
58.22827
  20
2.05381
  30
0.0
  70
0
  0
VERTEX
  8
a
  10
57.99804
  20
2.41878
  30
0.0
  70
0
  0
VERTEX
  8
a
  10
57.78847
  20
2.78919
  30
0.0
  70
0
  0
VERTEX
  8
a
  10
57.69235
  20
2.97657
  30
0.0
  70
0
  0
VERTEX
  8
a
  10
57.64671
  20
3.07084
  30
0.0
  70
0
  0
VERTEX
  8
a
  10
57.6028
  20
3.16553
  30
0.0
  70
0
  0
VERTEX
  8
a
  10
56.81118
  20
2.99727
  30
0.0
  70
0
  0
VERTEX
  8
a
  10
56.80959
  20
2.89291
  30
0.0
  70
0
  0
VERTEX
  8
a
  10
56.80623
  20
2.78822
  30
0.0
  70
0
  0
VERTEX
  8
a
  10
56.79465
  20
2.57794
  30
0.0
  70
0
  0
VERTEX
  8
a
  10
56.75385
  20
2.15431
  30
0.0
  70
0
  0
VERTEX
  8
a
  10
56.69197
  20
1.72726
  30
0.0
  70
0
  0
VERTEX
  8
a
  10
56.61092
  20
1.2974
  30
0.0
  70
0
  0
VERTEX
  8
a
  10
56.51198
  20
0.86523
  30
0.0
  70
0
  0
VERTEX
  8
a
  10
56.39606
  20
0.43117
  30
0.0
  70
0
  0
VERTEX
  8
a
  10
55.82263
  20
0.34035
  30
0.0
  70
0
  0
VERTEX
  8
a
  10
55.57826
  20
0.71734
  30
0.0
  70
0
  0
VERTEX
  8
a
  10
55.35061
  20
1.09779
  30
0.0
  70
0
  0
VERTEX
  8
a
  10
55.14069
  20
1.48156
  30
0.0
  70
0
  0
VERTEX
  8
a
  10
54.94988
  20
1.86859
  30
0.0
  70
0
  0
VERTEX
  8
a
  10
54.78017
  20
2.25888
  30
0.0
  70
0
  0
VERTEX
  8
a
  10
54.70417
  20
2.45528
  30
0.0
  70
0
  0
VERTEX
  8
a
  10
54.66863
  20
2.55381
  30
0.0
  70
0
  0
VERTEX
  8
a
  10
54.63486
  20
2.65257
  30
0.0
  70
0
  0
VERTEX
  8
a
  10
53.82999
  20
2.56798
  30
0.0
  70
0
  0
VERTEX
  8
a
  10
53.81749
  20
2.46435
  30
0.0
  70
0
  0
VERTEX
  8
a
  10
53.80322
  20
2.36059
  30
0.0
  70
0
  0
VERTEX
  8
a
  10
53.76971
  20
2.15268
  30
0.0
  70
0
  0
VERTEX
  8
a
  10
53.68486
  20
1.73563
  30
0.0
  70
0
  0
VERTEX
  8
a
  10
53.57868
  20
1.31739
  30
0.0
  70
0
  0
VERTEX
  8
a
  10
53.45314
  20
0.89835
  30
0.0
  70
0
  0
VERTEX
  8
a
  10
53.30957
  20
0.47889
  30
0.0
  70
0
  0
VERTEX
  8
a
  10
53.14891
  20
0.05933
  30
0.0
  70
0
  0
VERTEX
  8
a
  10
52.56913
  20
0.02895
  30
0.0
  70
0
  0
VERTEX
  8
a
  10
52.3655
  20
0.42942
  30
0.0
  70
0
  0
VERTEX
  8
a
  10
52.17886
  20
0.83157
  30
0.0
  70
0
  0
VERTEX
  8
a
  10
52.01022
  20
1.23519
  30
0.0
  70
0
  0
VERTEX
  8
a
  10
51.8609
  20
1.64004
  30
0.0
  70
0
  0
VERTEX
  8
a
  10
51.73292
  20
2.04593
  30
0.0
  70
0
  0
VERTEX
  8
a
  10
51.67787
  20
2.2492
  30
0.0
  70
0
  0
VERTEX
  8
a
  10
51.65282
  20
2.35091
  30
0.0
  70
0
  0
VERTEX
  8
a
  10
51.62956
  20
2.45266
  30
0.0
  70
0
  0
VERTEX
  8
a
  10
50.82025
  20
2.45266
  30
0.0
  70
0
  0
VERTEX
  8
a
  10
50.79699
  20
2.35091
  30
0.0
  70
0
  0
VERTEX
  8
a
  10
50.77195
  20
2.2492
  30
0.0
  70
0
  0
VERTEX
  8
a
  10
50.7169
  20
2.04593
  30
0.0
  70
0
  0
VERTEX
  8
a
  10
50.58891
  20
1.64004
  30
0.0
  70
0
  0
VERTEX
  8
a
  10
50.4396
  20
1.23519
  30
0.0
  70
0
  0
VERTEX
  8
a
  10
50.27095
  20
0.83157
  30
0.0
  70
0
  0
VERTEX
  8
a
  10
50.08432
  20
0.42942
  30
0.0
  70
0
  0
VERTEX
  8
a
  10
49.88068
  20
0.02895
  30
0.0
  70
0
  0
VERTEX
  8
a
  10
49.3009
  20
0.05933
  30
0.0
  70
0
  0
VERTEX
  8
a
  10
49.14025
  20
0.47889
  30
0.0
  70
0
  0
VERTEX
  8
a
  10
48.99667
  20
0.89835
  30
0.0
  70
0
  0
VERTEX
  8
a
  10
48.87113
  20
1.31739
  30
0.0
  70
0
  0
VERTEX
  8
a
  10
48.76496
  20
1.73563
  30
0.0
  70
0
  0
VERTEX
  8
a
  10
48.6801
  20
2.15268
  30
0.0
  70
0
  0
VERTEX
  8
a
  10
48.6466
  20
2.36059
  30
0.0
  70
0
  0
VERTEX
  8
a
  10
48.63232
  20
2.46435
  30
0.0
  70
0
  0
VERTEX
  8
a
  10
48.61982
  20
2.56798
  30
0.0
  70
0
  0
VERTEX
  8
a
  10
47.81495
  20
2.65257
  30
0.0
  70
0
  0
VERTEX
  8
a
  10
47.78118
  20
2.55381
  30
0.0
  70
0
  0
VERTEX
  8
a
  10
47.74564
  20
2.45528
  30
0.0
  70
0
  0
VERTEX
  8
a
  10
47.66965
  20
2.25888
  30
0.0
  70
0
  0
VERTEX
  8
a
  10
47.49994
  20
1.86859
  30
0.0
  70
0
  0
VERTEX
  8
a
  10
47.30912
  20
1.48156
  30
0.0
  70
0
  0
VERTEX
  8
a
  10
47.09921
  20
1.09779
  30
0.0
  70
0
  0
VERTEX
  8
a
  10
46.87156
  20
0.71734
  30
0.0
  70
0
  0
VERTEX
  8
a
  10
46.62718
  20
0.34035
  30
0.0
  70
0
  0
VERTEX
  8
a
  10
46.05375
  20
0.43117
  30
0.0
  70
0
  0
VERTEX
  8
a
  10
45.93783
  20
0.86523
  30
0.0
  70
0
  0
VERTEX
  8
a
  10
45.83889
  20
1.2974
  30
0.0
  70
0
  0
VERTEX
  8
a
  10
45.75784
  20
1.72726
  30
0.0
  70
0
  0
VERTEX
  8
a
  10
45.69597
  20
2.15431
  30
0.0
  70
0
  0
VERTEX
  8
a
  10
45.65517
  20
2.57794
  30
0.0
  70
0
  0
VERTEX
  8
a
  10
45.64358
  20
2.78822
  30
0.0
  70
0
  0
VERTEX
  8
a
  10
45.64023
  20
2.89291
  30
0.0
  70
0
  0
VERTEX
  8
a
  10
45.63863
  20
2.99727
  30
0.0
  70
0
  0
VERTEX
  8
a
  10
44.84701
  20
3.16553
  30
0.0
  70
0
  0
VERTEX
  8
a
  10
44.8031
  20
3.07084
  30
0.0
  70
0
  0
VERTEX
  8
a
  10
44.75746
  20
2.97657
  30
0.0
  70
0
  0
VERTEX
  8
a
  10
44.66135
  20
2.78919
  30
0.0
  70
0
  0
VERTEX
  8
a
  10
44.45177
  20
2.41878
  30
0.0
  70
0
  0
VERTEX
  8
a
  10
44.22155
  20
2.05381
  30
0.0
  70
0
  0
VERTEX
  8
a
  10
43.97267
  20
1.69408
  30
0.0
  70
0
  0
VERTEX
  8
a
  10
43.7065
  20
1.33952
  30
0.0
  70
0
  0
VERTEX
  8
a
  10
43.42405
  20
0.99013
  30
0.0
  70
0
  0
VERTEX
  8
a
  10
42.86326
  20
1.1404
  30
0.0
  70
0
  0
VERTEX
  8
a
  10
42.79334
  20
1.58419
  30
0.0
  70
0
  0
VERTEX
  8
a
  10
42.74012
  20
2.02434
  30
0.0
  70
0
  0
VERTEX
  8
a
  10
42.70445
  20
2.46031
  30
0.0
  70
0
  0
VERTEX
  8
a
  10
42.68755
  20
2.8915
  30
0.0
  70
0
  0
VERTEX
  8
a
  10
42.69126
  20
3.31707
  30
0.0
  70
0
  0
VERTEX
  8
a
  10
42.70171
  20
3.5274
  30
0.0
  70
0
  0
VERTEX
  8
a
  10
42.70932
  20
3.63187
  30
0.0
  70
0
  0
VERTEX
  8
a
  10
42.71864
  20
3.73583
  30
0.0
  70
0
  0
VERTEX
  8
a
  10
41.94895
  20
3.98592
  30
0.0
  70
0
  0
VERTEX
  8
a
  10
41.89538
  20
3.89634
  30
0.0
  70
0
  0
VERTEX
  8
a
  10
41.84013
  20
3.80735
  30
0.0
  70
0
  0
VERTEX
  8
a
  10
41.72496
  20
3.63104
  30
0.0
  70
0
  0
VERTEX
  8
a
  10
41.47781
  20
3.28456
  30
0.0
  70
0
  0
VERTEX
  8
a
  10
41.2107
  20
2.94566
  30
0.0
  70
0
  0
VERTEX
  8
a
  10
40.92558
  20
2.61392
  30
0.0
  70
0
  0
VERTEX
  8
a
  10
40.62381
  20
2.28912
  30
0.0
  70
0
  0
VERTEX
  8
a
  10
40.30639
  20
1.97117
  30
0.0
  70
0
  0
VERTEX
  8
a
  10
39.76438
  20
2.17924
  30
0.0
  70
0
  0
VERTEX
  8
a
  10
39.74124
  20
2.62791
  30
0.0
  70
0
  0
VERTEX
  8
a
  10
39.73431
  20
3.0712
  30
0.0
  70
0
  0
VERTEX
  8
a
  10
39.7444
  20
3.50852
  30
0.0
  70
0
  0
VERTEX
  8
a
  10
39.77267
  20
3.93911
  30
0.0
  70
0
  0
VERTEX
  8
a
  10
39.82084
  20
4.36196
  30
0.0
  70
0
  0
VERTEX
  8
a
  10
39.85322
  20
4.57005
  30
0.0
  70
0
  0
VERTEX
  8
a
  10
39.87171
  20
4.67315
  30
0.0
  70
0
  0
VERTEX
  8
a
  10
39.89185
  20
4.77556
  30
0.0
  70
0
  0
VERTEX
  8
a
  10
39.15251
  20
5.10474
  30
0.0
  70
0
  0
VERTEX
  8
a
  10
39.08988
  20
5.02124
  30
0.0
  70
0
  0
VERTEX
  8
a
  10
39.02563
  20
4.93852
  30
0.0
  70
0
  0
VERTEX
  8
a
  10
38.89266
  20
4.77522
  30
0.0
  70
0
  0
VERTEX
  8
a
  10
38.61065
  20
4.45647
  30
0.0
  70
0
  0
VERTEX
  8
a
  10
38.30957
  20
4.14735
  30
0.0
  70
0
  0
VERTEX
  8
a
  10
37.99134
  20
3.84722
  30
0.0
  70
0
  0
VERTEX
  8
a
  10
37.65727
  20
3.55575
  30
0.0
  70
0
  0
VERTEX
  8
a
  10
37.30836
  20
3.27272
  30
0.0
  70
0
  0
VERTEX
  8
a
  10
36.79106
  20
3.5363
  30
0.0
  70
0
  0
VERTEX
  8
a
  10
36.81494
  20
3.98493
  30
0.0
  70
0
  0
VERTEX
  8
a
  10
36.85439
  20
4.42653
  30
0.0
  70
0
  0
VERTEX
  8
a
  10
36.91014
  20
4.86039
  30
0.0
  70
0
  0
VERTEX
  8
a
  10
36.98326
  20
5.28567
  30
0.0
  70
0
  0
VERTEX
  8
a
  10
37.07537
  20
5.70117
  30
0.0
  70
0
  0
VERTEX
  8
a
  10
37.12933
  20
5.90473
  30
0.0
  70
0
  0
VERTEX
  8
a
  10
37.15849
  20
6.00534
  30
0.0
  70
0
  0
VERTEX
  8
a
  10
37.18922
  20
6.10508
  30
0.0
  70
0
  0
VERTEX
  8
a
  10
36.48834
  20
6.50974
  30
0.0
  70
0
  0
VERTEX
  8
a
  10
36.41733
  20
6.43325
  30
0.0
  70
0
  0
VERTEX
  8
a
  10
36.34478
  20
6.35769
  30
0.0
  70
0
  0
VERTEX
  8
a
  10
36.19547
  20
6.20918
  30
0.0
  70
0
  0
VERTEX
  8
a
  10
35.88169
  20
5.92166
  30
0.0
  70
0
  0
VERTEX
  8
a
  10
35.54995
  20
5.6457
  30
0.0
  70
0
  0
VERTEX
  8
a
  10
35.20209
  20
5.38049
  30
0.0
  70
0
  0
VERTEX
  8
a
  10
34.83938
  20
5.12553
  30
0.0
  70
0
  0
VERTEX
  8
a
  10
34.4628
  20
4.88052
  30
0.0
  70
0
  0
VERTEX
  8
a
  10
33.97588
  20
5.19673
  30
0.0
  70
0
  0
VERTEX
  8
a
  10
34.04653
  20
5.64041
  30
0.0
  70
0
  0
VERTEX
  8
a
  10
34.13192
  20
6.07546
  30
0.0
  70
0
  0
VERTEX
  8
a
  10
34.23272
  20
6.50112
  30
0.0
  70
0
  0
VERTEX
  8
a
  10
34.34989
  20
6.91642
  30
0.0
  70
0
  0
VERTEX
  8
a
  10
34.48493
  20
7.32002
  30
0.0
  70
0
  0
VERTEX
  8
a
  10
34.55987
  20
7.51683
  30
0.0
  70
0
  0
VERTEX
  8
a
  10
34.59939
  20
7.61383
  30
0.0
  70
0
  0
VERTEX
  8
a
  10
34.64038
  20
7.70982
  30
0.0
  70
0
  0
VERTEX
  8
a
  10
33.98563
  20
8.18552
  30
0.0
  70
0
  0
VERTEX
  8
a
  10
33.90701
  20
8.11687
  30
0.0
  70
0
  0
VERTEX
  8
a
  10
33.82696
  20
8.04931
  30
0.0
  70
0
  0
VERTEX
  8
a
  10
33.66295
  20
7.91722
  30
0.0
  70
0
  0
VERTEX
  8
a
  10
33.32083
  20
7.66408
  30
0.0
  70
0
  0
VERTEX
  8
a
  10
32.96206
  20
7.42431
  30
0.0
  70
0
  0
VERTEX
  8
a
  10
32.58838
  20
7.1969
  30
0.0
  70
0
  0
VERTEX
  8
a
  10
32.20101
  20
6.98126
  30
0.0
  70
0
  0
VERTEX
  8
a
  10
31.80088
  20
6.77696
  30
0.0
  70
0
  0
VERTEX
  8
a
  10
31.34969
  20
7.14233
  30
0.0
  70
0
  0
VERTEX
  8
a
  10
31.46633
  20
7.57619
  30
0.0
  70
0
  0
VERTEX
  8
a
  10
31.59673
  20
7.99993
  30
0.0
  70
0
  0
VERTEX
  8
a
  10
31.74147
  20
8.41273
  30
0.0
  70
0
  0
VERTEX
  8
a
  10
31.90141
  20
8.81351
  30
0.0
  70
0
  0
VERTEX
  8
a
  10
32.07789
  20
9.20078
  30
0.0
  70
0
  0
VERTEX
  8
a
  10
32.17299
  20
9.38867
  30
0.0
  70
0
  0
VERTEX
  8
a
  10
32.22243
  20
9.48102
  30
0.0
  70
0
  0
VERTEX
  8
a
  10
32.27323
  20
9.57219
  30
0.0
  70
0
  0
VERTEX
  8
a
  10
31.6718
  20
10.11373
  30
0.0
  70
0
  0
VERTEX
  8
a
  10
31.58643
  20
10.05367
  30
0.0
  70
0
  0
VERTEX
  8
a
  10
31.49976
  20
9.99485
  30
0.0
  70
0
  0
VERTEX
  8
a
  10
31.32284
  20
9.88063
  30
0.0
  70
0
  0
VERTEX
  8
a
  10
30.95613
  20
9.66463
  30
0.0
  70
0
  0
VERTEX
  8
a
  10
30.57427
  20
9.46368
  30
0.0
  70
0
  0
VERTEX
  8
a
  10
30.17887
  20
9.27658
  30
0.0
  70
0
  0
VERTEX
  8
a
  10
29.77108
  20
9.1026
  30
0.0
  70
0
  0
VERTEX
  8
a
  10
29.35178
  20
8.94125
  30
0.0
  70
0
  0
VERTEX
  8
a
  10
28.94125
  20
9.35178
  30
0.0
  70
0
  0
VERTEX
  8
a
  10
29.1026
  20
9.77108
  30
0.0
  70
0
  0
VERTEX
  8
a
  10
29.27658
  20
10.17887
  30
0.0
  70
0
  0
VERTEX
  8
a
  10
29.46368
  20
10.57427
  30
0.0
  70
0
  0
VERTEX
  8
a
  10
29.66463
  20
10.95613
  30
0.0
  70
0
  0
VERTEX
  8
a
  10
29.88063
  20
11.32284
  30
0.0
  70
0
  0
VERTEX
  8
a
  10
29.99485
  20
11.49976
  30
0.0
  70
0
  0
VERTEX
  8
a
  10
30.05367
  20
11.58643
  30
0.0
  70
0
  0
VERTEX
  8
a
  10
30.11373
  20
11.6718
  30
0.0
  70
0
  0
VERTEX
  8
a
  10
29.57219
  20
12.27323
  30
0.0
  70
0
  0
VERTEX
  8
a
  10
29.48102
  20
12.22243
  30
0.0
  70
0
  0
VERTEX
  8
a
  10
29.38867
  20
12.17299
  30
0.0
  70
0
  0
VERTEX
  8
a
  10
29.20078
  20
12.07789
  30
0.0
  70
0
  0
VERTEX
  8
a
  10
28.81351
  20
11.90141
  30
0.0
  70
0
  0
VERTEX
  8
a
  10
28.41273
  20
11.74147
  30
0.0
  70
0
  0
VERTEX
  8
a
  10
27.99993
  20
11.59673
  30
0.0
  70
0
  0
VERTEX
  8
a
  10
27.57619
  20
11.46633
  30
0.0
  70
0
  0
VERTEX
  8
a
  10
27.14233
  20
11.34969
  30
0.0
  70
0
  0
VERTEX
  8
a
  10
26.77696
  20
11.80088
  30
0.0
  70
0
  0
VERTEX
  8
a
  10
26.98126
  20
12.20101
  30
0.0
  70
0
  0
VERTEX
  8
a
  10
27.1969
  20
12.58838
  30
0.0
  70
0
  0
VERTEX
  8
a
  10
27.42431
  20
12.96206
  30
0.0
  70
0
  0
VERTEX
  8
a
  10
27.66408
  20
13.32083
  30
0.0
  70
0
  0
VERTEX
  8
a
  10
27.91722
  20
13.66295
  30
0.0
  70
0
  0
VERTEX
  8
a
  10
28.04931
  20
13.82696
  30
0.0
  70
0
  0
VERTEX
  8
a
  10
28.11687
  20
13.90701
  30
0.0
  70
0
  0
VERTEX
  8
a
  10
28.18552
  20
13.98563
  30
0.0
  70
0
  0
VERTEX
  8
a
  10
27.70982
  20
14.64038
  30
0.0
  70
0
  0
VERTEX
  8
a
  10
27.61383
  20
14.59939
  30
0.0
  70
0
  0
VERTEX
  8
a
  10
27.51683
  20
14.55987
  30
0.0
  70
0
  0
VERTEX
  8
a
  10
27.32002
  20
14.48493
  30
0.0
  70
0
  0
VERTEX
  8
a
  10
26.91642
  20
14.34989
  30
0.0
  70
0
  0
VERTEX
  8
a
  10
26.50112
  20
14.23272
  30
0.0
  70
0
  0
VERTEX
  8
a
  10
26.07546
  20
14.13192
  30
0.0
  70
0
  0
VERTEX
  8
a
  10
25.64041
  20
14.04653
  30
0.0
  70
0
  0
VERTEX
  8
a
  10
25.19673
  20
13.97588
  30
0.0
  70
0
  0
VERTEX
  8
a
  10
24.88052
  20
14.4628
  30
0.0
  70
0
  0
VERTEX
  8
a
  10
25.12553
  20
14.83938
  30
0.0
  70
0
  0
VERTEX
  8
a
  10
25.38049
  20
15.20209
  30
0.0
  70
0
  0
VERTEX
  8
a
  10
25.6457
  20
15.54995
  30
0.0
  70
0
  0
VERTEX
  8
a
  10
25.92166
  20
15.88169
  30
0.0
  70
0
  0
VERTEX
  8
a
  10
26.20918
  20
16.19547
  30
0.0
  70
0
  0
VERTEX
  8
a
  10
26.35769
  20
16.34478
  30
0.0
  70
0
  0
VERTEX
  8
a
  10
26.43325
  20
16.41733
  30
0.0
  70
0
  0
VERTEX
  8
a
  10
26.50974
  20
16.48834
  30
0.0
  70
0
  0
VERTEX
  8
a
  10
26.10508
  20
17.18922
  30
0.0
  70
0
  0
VERTEX
  8
a
  10
26.00534
  20
17.15849
  30
0.0
  70
0
  0
VERTEX
  8
a
  10
25.90473
  20
17.12933
  30
0.0
  70
0
  0
VERTEX
  8
a
  10
25.70117
  20
17.07537
  30
0.0
  70
0
  0
VERTEX
  8
a
  10
25.28567
  20
16.98326
  30
0.0
  70
0
  0
VERTEX
  8
a
  10
24.86039
  20
16.91014
  30
0.0
  70
0
  0
VERTEX
  8
a
  10
24.42653
  20
16.85439
  30
0.0
  70
0
  0
VERTEX
  8
a
  10
23.98493
  20
16.81494
  30
0.0
  70
0
  0
VERTEX
  8
a
  10
23.5363
  20
16.79106
  30
0.0
  70
0
  0
VERTEX
  8
a
  10
23.27272
  20
17.30836
  30
0.0
  70
0
  0
VERTEX
  8
a
  10
23.55575
  20
17.65727
  30
0.0
  70
0
  0
VERTEX
  8
a
  10
23.84722
  20
17.99134
  30
0.0
  70
0
  0
VERTEX
  8
a
  10
24.14735
  20
18.30957
  30
0.0
  70
0
  0
VERTEX
  8
a
  10
24.45647
  20
18.61065
  30
0.0
  70
0
  0
VERTEX
  8
a
  10
24.77522
  20
18.89266
  30
0.0
  70
0
  0
VERTEX
  8
a
  10
24.93852
  20
19.02563
  30
0.0
  70
0
  0
VERTEX
  8
a
  10
25.02124
  20
19.08988
  30
0.0
  70
0
  0
VERTEX
  8
a
  10
25.10474
  20
19.15251
  30
0.0
  70
0
  0
VERTEX
  8
a
  10
24.77556
  20
19.89185
  30
0.0
  70
0
  0
VERTEX
  8
a
  10
24.67315
  20
19.87171
  30
0.0
  70
0
  0
VERTEX
  8
a
  10
24.57005
  20
19.85322
  30
0.0
  70
0
  0
VERTEX
  8
a
  10
24.36196
  20
19.82084
  30
0.0
  70
0
  0
VERTEX
  8
a
  10
23.93911
  20
19.77267
  30
0.0
  70
0
  0
VERTEX
  8
a
  10
23.50852
  20
19.7444
  30
0.0
  70
0
  0
VERTEX
  8
a
  10
23.0712
  20
19.73431
  30
0.0
  70
0
  0
VERTEX
  8
a
  10
22.62791
  20
19.74124
  30
0.0
  70
0
  0
VERTEX
  8
a
  10
22.17924
  20
19.76438
  30
0.0
  70
0
  0
VERTEX
  8
a
  10
21.97117
  20
20.30639
  30
0.0
  70
0
  0
VERTEX
  8
a
  10
22.28912
  20
20.62381
  30
0.0
  70
0
  0
VERTEX
  8
a
  10
22.61392
  20
20.92558
  30
0.0
  70
0
  0
VERTEX
  8
a
  10
22.94566
  20
21.2107
  30
0.0
  70
0
  0
VERTEX
  8
a
  10
23.28456
  20
21.47781
  30
0.0
  70
0
  0
VERTEX
  8
a
  10
23.63104
  20
21.72496
  30
0.0
  70
0
  0
VERTEX
  8
a
  10
23.80735
  20
21.84013
  30
0.0
  70
0
  0
VERTEX
  8
a
  10
23.89634
  20
21.89538
  30
0.0
  70
0
  0
VERTEX
  8
a
  10
23.98592
  20
21.94895
  30
0.0
  70
0
  0
VERTEX
  8
a
  10
23.73583
  20
22.71864
  30
0.0
  70
0
  0
VERTEX
  8
a
  10
23.63187
  20
22.70932
  30
0.0
  70
0
  0
VERTEX
  8
a
  10
23.5274
  20
22.70171
  30
0.0
  70
0
  0
VERTEX
  8
a
  10
23.31707
  20
22.69126
  30
0.0
  70
0
  0
VERTEX
  8
a
  10
22.8915
  20
22.68755
  30
0.0
  70
0
  0
VERTEX
  8
a
  10
22.46031
  20
22.70445
  30
0.0
  70
0
  0
VERTEX
  8
a
  10
22.02434
  20
22.74012
  30
0.0
  70
0
  0
VERTEX
  8
a
  10
21.58419
  20
22.79334
  30
0.0
  70
0
  0
VERTEX
  8
a
  10
21.1404
  20
22.86326
  30
0.0
  70
0
  0
VERTEX
  8
a
  10
20.99013
  20
23.42405
  30
0.0
  70
0
  0
VERTEX
  8
a
  10
21.33952
  20
23.7065
  30
0.0
  70
0
  0
VERTEX
  8
a
  10
21.69408
  20
23.97267
  30
0.0
  70
0
  0
VERTEX
  8
a
  10
22.05381
  20
24.22155
  30
0.0
  70
0
  0
VERTEX
  8
a
  10
22.41878
  20
24.45177
  30
0.0
  70
0
  0
VERTEX
  8
a
  10
22.78919
  20
24.66135
  30
0.0
  70
0
  0
VERTEX
  8
a
  10
22.97657
  20
24.75746
  30
0.0
  70
0
  0
VERTEX
  8
a
  10
23.07084
  20
24.8031
  30
0.0
  70
0
  0
VERTEX
  8
a
  10
23.16553
  20
24.84701
  30
0.0
  70
0
  0
VERTEX
  8
a
  10
22.99727
  20
25.63863
  30
0.0
  70
0
  0
VERTEX
  8
a
  10
22.89291
  20
25.64023
  30
0.0
  70
0
  0
VERTEX
  8
a
  10
22.78822
  20
25.64358
  30
0.0
  70
0
  0
VERTEX
  8
a
  10
22.57794
  20
25.65517
  30
0.0
  70
0
  0
VERTEX
  8
a
  10
22.15431
  20
25.69597
  30
0.0
  70
0
  0
VERTEX
  8
a
  10
21.72726
  20
25.75784
  30
0.0
  70
0
  0
VERTEX
  8
a
  10
21.2974
  20
25.83889
  30
0.0
  70
0
  0
VERTEX
  8
a
  10
20.86523
  20
25.93783
  30
0.0
  70
0
  0
VERTEX
  8
a
  10
20.43117
  20
26.05375
  30
0.0
  70
0
  0
VERTEX
  8
a
  10
20.34035
  20
26.62718
  30
0.0
  70
0
  0
VERTEX
  8
a
  10
20.71734
  20
26.87156
  30
0.0
  70
0
  0
VERTEX
  8
a
  10
21.09779
  20
27.09921
  30
0.0
  70
0
  0
VERTEX
  8
a
  10
21.48156
  20
27.30912
  30
0.0
  70
0
  0
VERTEX
  8
a
  10
21.86859
  20
27.49994
  30
0.0
  70
0
  0
VERTEX
  8
a
  10
22.25888
  20
27.66965
  30
0.0
  70
0
  0
VERTEX
  8
a
  10
22.45528
  20
27.74564
  30
0.0
  70
0
  0
VERTEX
  8
a
  10
22.55381
  20
27.78118
  30
0.0
  70
0
  0
VERTEX
  8
a
  10
22.65257
  20
27.81495
  30
0.0
  70
0
  0
VERTEX
  8
a
  10
22.56798
  20
28.61982
  30
0.0
  70
0
  0
VERTEX
  8
a
  10
22.46435
  20
28.63232
  30
0.0
  70
0
  0
VERTEX
  8
a
  10
22.36059
  20
28.6466
  30
0.0
  70
0
  0
VERTEX
  8
a
  10
22.15268
  20
28.6801
  30
0.0
  70
0
  0
VERTEX
  8
a
  10
21.73563
  20
28.76496
  30
0.0
  70
0
  0
VERTEX
  8
a
  10
21.31739
  20
28.87113
  30
0.0
  70
0
  0
VERTEX
  8
a
  10
20.89835
  20
28.99667
  30
0.0
  70
0
  0
VERTEX
  8
a
  10
20.47889
  20
29.14025
  30
0.0
  70
0
  0
VERTEX
  8
a
  10
20.05933
  20
29.3009
  30
0.0
  70
0
  0
VERTEX
  8
a
  10
20.02895
  20
29.88068
  30
0.0
  70
0
  0
VERTEX
  8
a
  10
20.42942
  20
30.08432
  30
0.0
  70
0
  0
VERTEX
  8
a
  10
20.83157
  20
30.27095
  30
0.0
  70
0
  0
VERTEX
  8
a
  10
21.23519
  20
30.4396
  30
0.0
  70
0
  0
VERTEX
  8
a
  10
21.64004
  20
30.58891
  30
0.0
  70
0
  0
VERTEX
  8
a
  10
22.04593
  20
30.7169
  30
0.0
  70
0
  0
VERTEX
  8
a
  10
22.2492
  20
30.77195
  30
0.0
  70
0
  0
VERTEX
  8
a
  10
22.35091
  20
30.79699
  30
0.0
  70
0
  0
VERTEX
  8
a
  10
22.45266
  20
30.82025
  30
0.0
  70
0
  0
SEQEND
  0
CIRCLE
  8
a
  10
51.22491
  20
31.22491
  30
0.0
  40
0.5
 0
LINE
 8
c
 10
22.48925
 20
32.73088
 30
0
 11
20.04279
 21
32.85909
 31
 0
 0
LINE
 8
c
 10
22.80408
 20
35.72632
 30
0
 11
20.38443
 21
36.10956
 31
 0
 0
LINE
 8
c
 10
23.4303
 20
38.67245
 30
0
 11
21.06396
 21
39.30651
 31
 0
 0
LINE
 8
c
 10
24.36104
 20
41.53698
 30
0
 11
22.07395
 21
42.41491
 31
 0
 0
LINE
 8
c
 10
25.58611
 20
44.28853
 30
0
 11
23.40331
 21
45.40072
 31
 0
 0
LINE
 8
c
 10
27.09208
 20
46.89695
 30
0
 11
25.0375
 21
48.23121
 31
 0
 0
LINE
 8
c
 10
28.86246
 20
49.33366
 30
0
 11
26.9586
 21
50.87538
 31
 0
 0
LINE
 8
c
 10
30.87784
 20
51.57197
 30
0
 11
29.14556
 21
53.30425
 31
 0
 0
LINE
 8
c
 10
33.11615
 20
53.58735
 30
0
 11
31.57444
 21
55.49122
 31
 0
 0
LINE
 8
c
 10
35.55287
 20
55.35773
 30
0
 11
34.2186
 21
57.41232
 31
 0
 0
LINE
 8
c
 10
38.16129
 20
56.8637
 30
0
 11
37.0491
 21
59.0465
 31
 0
 0
LINE
 8
c
 10
40.91284
 20
58.08877
 30
0
 11
40.0349
 21
60.37587
 31
 0
 0
LINE
 8
c
 10
43.77736
 20
59.01951
 30
0
 11
43.14331
 21
61.38585
 31
 0
 0
LINE
 8
c
 10
46.72349
 20
59.64573
 30
0
 11
46.34026
 21
62.06538
 31
 0
 0
LINE
 8
c
 10
49.71893
 20
59.96056
 30
0
 11
49.59072
 21
62.40702
 31
 0
 0
LINE
 8
c
 10
52.73088
 20
59.96056
 30
0
 11
52.85909
 21
62.40702
 31
 0
 0
LINE
 8
c
 10
55.72632
 20
59.64573
 30
0
 11
56.10956
 21
62.06538
 31
 0
 0
LINE
 8
c
 10
58.67245
 20
59.01951
 30
0
 11
59.30651
 21
61.38585
 31
 0
 0
LINE
 8
c
 10
61.53698
 20
58.08877
 30
0
 11
62.41491
 21
60.37587
 31
 0
 0
LINE
 8
c
 10
64.28853
 20
56.8637
 30
0
 11
65.40072
 21
59.0465
 31
 0
 0
LINE
 8
c
 10
66.89695
 20
55.35773
 30
0
 11
68.23121
 21
57.41232
 31
 0
 0
LINE
 8
c
 10
69.33366
 20
53.58735
 30
0
 11
70.87538
 21
55.49122
 31
 0
 0
LINE
 8
c
 10
71.57197
 20
51.57197
 30
0
 11
73.30425
 21
53.30425
 31
 0
 0
LINE
 8
c
 10
73.58735
 20
49.33366
 30
0
 11
75.49122
 21
50.87538
 31
 0
 0
LINE
 8
c
 10
75.35773
 20
46.89695
 30
0
 11
77.41232
 21
48.23121
 31
 0
 0
LINE
 8
c
 10
76.8637
 20
44.28853
 30
0
 11
79.0465
 21
45.40072
 31
 0
 0
LINE
 8
c
 10
78.08877
 20
41.53698
 30
0
 11
80.37587
 21
42.41491
 31
 0
 0
LINE
 8
c
 10
79.01951
 20
38.67245
 30
0
 11
81.38585
 21
39.30651
 31
 0
 0
LINE
 8
c
 10
79.64573
 20
35.72632
 30
0
 11
82.06538
 21
36.10956
 31
 0
 0
LINE
 8
c
 10
79.96056
 20
32.73088
 30
0
 11
82.40702
 21
32.85909
 31
 0
 0
LINE
 8
c
 10
79.96056
 20
29.71893
 30
0
 11
82.40702
 21
29.59072
 31
 0
 0
LINE
 8
c
 10
79.64573
 20
26.72349
 30
0
 11
82.06538
 21
26.34026
 31
 0
 0
LINE
 8
c
 10
79.01951
 20
23.77736
 30
0
 11
81.38585
 21
23.14331
 31
 0
 0
LINE
 8
c
 10
78.08877
 20
20.91284
 30
0
 11
80.37587
 21
20.0349
 31
 0
 0
LINE
 8
c
 10
76.8637
 20
18.16129
 30
0
 11
79.0465
 21
17.0491
 31
 0
 0
LINE
 8
c
 10
75.35773
 20
15.55287
 30
0
 11
77.41232
 21
14.2186
 31
 0
 0
LINE
 8
c
 10
73.58735
 20
13.11615
 30
0
 11
75.49122
 21
11.57444
 31
 0
 0
LINE
 8
c
 10
71.57197
 20
10.87784
 30
0
 11
73.30425
 21
9.14556
 31
 0
 0
LINE
 8
c
 10
69.33366
 20
8.86246
 30
0
 11
70.87538
 21
6.9586
 31
 0
 0
LINE
 8
c
 10
66.89695
 20
7.09208
 30
0
 11
68.23121
 21
5.0375
 31
 0
 0
LINE
 8
c
 10
64.28853
 20
5.58611
 30
0
 11
65.40072
 21
3.40331
 31
 0
 0
LINE
 8
c
 10
61.53698
 20
4.36104
 30
0
 11
62.41491
 21
2.07395
 31
 0
 0
LINE
 8
c
 10
58.67245
 20
3.4303
 30
0
 11
59.30651
 21
1.06396
 31
 0
 0
LINE
 8
c
 10
55.72632
 20
2.80408
 30
0
 11
56.10956
 21
0.38443
 31
 0
 0
LINE
 8
c
 10
52.73088
 20
2.48925
 30
0
 11
52.85909
 21
0.04279
 31
 0
 0
LINE
 8
c
 10
49.71893
 20
2.48925
 30
0
 11
49.59072
 21
0.04279
 31
 0
 0
LINE
 8
c
 10
46.72349
 20
2.80408
 30
0
 11
46.34026
 21
0.38443
 31
 0
 0
LINE
 8
c
 10
43.77736
 20
3.4303
 30
0
 11
43.14331
 21
1.06396
 31
 0
 0
LINE
 8
c
 10
40.91284
 20
4.36104
 30
0
 11
40.0349
 21
2.07395
 31
 0
 0
LINE
 8
c
 10
38.16129
 20
5.58611
 30
0
 11
37.0491
 21
3.40331
 31
 0
 0
LINE
 8
c
 10
35.55287
 20
7.09208
 30
0
 11
34.2186
 21
5.0375
 31
 0
 0
LINE
 8
c
 10
33.11615
 20
8.86246
 30
0
 11
31.57444
 21
6.9586
 31
 0
 0
LINE
 8
c
 10
30.87784
 20
10.87784
 30
0
 11
29.14556
 21
9.14556
 31
 0
 0
LINE
 8
c
 10
28.86246
 20
13.11615
 30
0
 11
26.9586
 21
11.57444
 31
 0
 0
LINE
 8
c
 10
27.09208
 20
15.55287
 30
0
 11
25.0375
 21
14.2186
 31
 0
 0
LINE
 8
c
 10
25.58611
 20
18.16129
 30
0
 11
23.40331
 21
17.0491
 31
 0
 0
LINE
 8
c
 10
24.36104
 20
20.91284
 30
0
 11
22.07395
 21
20.0349
 31
 0
 0
LINE
 8
c
 10
23.4303
 20
23.77736
 30
0
 11
21.06396
 21
23.14331
 31
 0
 0
LINE
 8
c
 10
22.80408
 20
26.72349
 30
0
 11
20.38443
 21
26.34026
 31
 0
 0
LINE
 8
c
 10
22.48925
 20
29.71893
 30
0
 11
20.04279
 21
29.59072
 31
 0
  0
CIRCLE
  8
c
  10
51.22491
  20
31.22491
  30
0.0
  40
30
 0
LINE
 8
a
 10
40.8166
 20
31.22491
 30
0
 11
61.63321
 21
31.22491
 31
 0
 0
LINE
 8
a
 10
51.22491
 20
20.8166
 30
0
 11
51.22491
 21
41.63321
 31
 0
  0
TEXT
  8
labels
  10
0.0
  20
0.0
  30
0.0
  40
0.1
  1
G1:Toothspacing=3.14  Teeth=20  Spur gear  Angle=20.0  Addendum=.4
  41
1.0
  7
ARIAL
  0
TEXT
  8
labels
  10
0.0
  20
-0.2
  30
0.0
  40
0.1
  1
G2:Toothspacing=3.14  Teeth=60  Spur gear  Angle=20.0  Addendum=.4
  41
1.0
  7
ARIAL
  0
ENDSEC
  0
EOF
