  999
DXF file created by gear template generator. 2019-01-25T12:00:14
  999
G1:Toothspacing=3.14  Teeth=20  Spur gear  Angle=20.0  Addendum=.4
  0
SECTION
  2
HEADER
  9
$MEASUREMENT
  70
1
  0
ENDSEC
  0
SECTION
  2
TABLES
  0
TABLE
  2
LTYPE
  70
1
  0
LTYPE
  2
Continuous
  3
_
  70
0
  72
65
  73
0
  40
0.0
  0
ENDTAB
  0
TABLE
  2
LAYER
  70
4
  0
LAYER
  2
profile
  70
0
  62
7
  6
Continuous
  0
LAYER
  2
construction
  70
0
  62
5
  6
Continuous
  0
LAYER
  2
grid
  70
0
  62
3
  6
Continuous
  0
LAYER
  2
labels
  70
0
  62
1
  6
Continuous
  0
ENDTAB
  0
TABLE
  2
STYLE
  70
1
  0
STYLE
  2
ARIAL
  3
Arial.ttf
  70
0
  40
0.0
  41
1.0
  50
0.0
  71
0
  42
1.0
  0
ENDTAB
  0
ENDSEC
  0
SECTION
  2
ENTITIES
 0
LINE
 8
b
 10
0.22491
 20
0
 30
0
 11
0.22491
 21
22.44981
 31
 0
 0
LINE
 8
b
 10
1.22491
 20
0
 30
0
 11
1.22491
 21
22.44981
 31
 0
 0
LINE
 8
b
 10
2.22491
 20
0
 30
0
 11
2.22491
 21
22.44981
 31
 0
 0
LINE
 8
b
 10
3.22491
 20
0
 30
0
 11
3.22491
 21
22.44981
 31
 0
 0
LINE
 8
b
 10
4.22491
 20
0
 30
0
 11
4.22491
 21
22.44981
 31
 0
 0
LINE
 8
b
 10
5.22491
 20
0
 30
0
 11
5.22491
 21
22.44981
 31
 0
 0
LINE
 8
b
 10
6.22491
 20
0
 30
0
 11
6.22491
 21
22.44981
 31
 0
 0
LINE
 8
b
 10
7.22491
 20
0
 30
0
 11
7.22491
 21
22.44981
 31
 0
 0
LINE
 8
b
 10
8.22491
 20
0
 30
0
 11
8.22491
 21
22.44981
 31
 0
 0
LINE
 8
b
 10
9.22491
 20
0
 30
0
 11
9.22491
 21
22.44981
 31
 0
 0
LINE
 8
b
 10
10.22491
 20
0
 30
0
 11
10.22491
 21
22.44981
 31
 0
 0
LINE
 8
b
 10
11.22491
 20
0
 30
0
 11
11.22491
 21
22.44981
 31
 0
 0
LINE
 8
b
 10
12.22491
 20
0
 30
0
 11
12.22491
 21
22.44981
 31
 0
 0
LINE
 8
b
 10
13.22491
 20
0
 30
0
 11
13.22491
 21
22.44981
 31
 0
 0
LINE
 8
b
 10
14.22491
 20
0
 30
0
 11
14.22491
 21
22.44981
 31
 0
 0
LINE
 8
b
 10
15.22491
 20
0
 30
0
 11
15.22491
 21
22.44981
 31
 0
 0
LINE
 8
b
 10
16.22491
 20
0
 30
0
 11
16.22491
 21
22.44981
 31
 0
 0
LINE
 8
b
 10
17.22491
 20
0
 30
0
 11
17.22491
 21
22.44981
 31
 0
 0
LINE
 8
b
 10
18.22491
 20
0
 30
0
 11
18.22491
 21
22.44981
 31
 0
 0
LINE
 8
b
 10
19.22491
 20
0
 30
0
 11
19.22491
 21
22.44981
 31
 0
 0
LINE
 8
b
 10
20.22491
 20
0
 30
0
 11
20.22491
 21
22.44981
 31
 0
 0
LINE
 8
b
 10
21.22491
 20
0
 30
0
 11
21.22491
 21
22.44981
 31
 0
 0
LINE
 8
b
 10
22.22491
 20
0
 30
0
 11
22.22491
 21
22.44981
 31
 0
 0
LINE
 8
b
 10
0
 20
0.22491
 30
0
 11
22.44981
 21
0.22491
 31
 0
 0
LINE
 8
b
 10
0
 20
1.22491
 30
0
 11
22.44981
 21
1.22491
 31
 0
 0
LINE
 8
b
 10
0
 20
2.22491
 30
0
 11
22.44981
 21
2.22491
 31
 0
 0
LINE
 8
b
 10
0
 20
3.22491
 30
0
 11
22.44981
 21
3.22491
 31
 0
 0
LINE
 8
b
 10
0
 20
4.22491
 30
0
 11
22.44981
 21
4.22491
 31
 0
 0
LINE
 8
b
 10
0
 20
5.22491
 30
0
 11
22.44981
 21
5.22491
 31
 0
 0
LINE
 8
b
 10
0
 20
6.22491
 30
0
 11
22.44981
 21
6.22491
 31
 0
 0
LINE
 8
b
 10
0
 20
7.22491
 30
0
 11
22.44981
 21
7.22491
 31
 0
 0
LINE
 8
b
 10
0
 20
8.22491
 30
0
 11
22.44981
 21
8.22491
 31
 0
 0
LINE
 8
b
 10
0
 20
9.22491
 30
0
 11
22.44981
 21
9.22491
 31
 0
 0
LINE
 8
b
 10
0
 20
10.22491
 30
0
 11
22.44981
 21
10.22491
 31
 0
 0
LINE
 8
b
 10
0
 20
11.22491
 30
0
 11
22.44981
 21
11.22491
 31
 0
 0
LINE
 8
b
 10
0
 20
12.22491
 30
0
 11
22.44981
 21
12.22491
 31
 0
 0
LINE
 8
b
 10
0
 20
13.22491
 30
0
 11
22.44981
 21
13.22491
 31
 0
 0
LINE
 8
b
 10
0
 20
14.22491
 30
0
 11
22.44981
 21
14.22491
 31
 0
 0
LINE
 8
b
 10
0
 20
15.22491
 30
0
 11
22.44981
 21
15.22491
 31
 0
 0
LINE
 8
b
 10
0
 20
16.22491
 30
0
 11
22.44981
 21
16.22491
 31
 0
 0
LINE
 8
b
 10
0
 20
17.22491
 30
0
 11
22.44981
 21
17.22491
 31
 0
 0
LINE
 8
b
 10
0
 20
18.22491
 30
0
 11
22.44981
 21
18.22491
 31
 0
 0
LINE
 8
b
 10
0
 20
19.22491
 30
0
 11
22.44981
 21
19.22491
 31
 0
 0
LINE
 8
b
 10
0
 20
20.22491
 30
0
 11
22.44981
 21
20.22491
 31
 0
 0
LINE
 8
b
 10
0
 20
21.22491
 30
0
 11
22.44981
 21
21.22491
 31
 0
 0
LINE
 8
b
 10
0
 20
22.22491
 30
0
 11
22.44981
 21
22.22491
 31
 0
  0
POLYLINE
  8
a
  66
1
  10
0.0
  20
0.0
  70
1
  0
VERTEX
  8
a
  10
19.92687
  20
12.3554
  30
0.0
  70
0
  0
VERTEX
  8
a
  10
19.98148
  20
12.24614
  30
0.0
  70
0
  0
VERTEX
  8
a
  10
20.02708
  20
12.20669
  30
0.0
  70
0
  0
VERTEX
  8
a
  10
20.07113
  20
12.17955
  30
0.0
  70
0
  0
VERTEX
  8
a
  10
20.11437
  20
12.15911
  30
0.0
  70
0
  0
VERTEX
  8
a
  10
20.15707
  20
12.14317
  30
0.0
  70
0
  0
VERTEX
  8
a
  10
20.24143
  20
12.12063
  30
0.0
  70
0
  0
VERTEX
  8
a
  10
20.32482
  20
12.10703
  30
0.0
  70
0
  0
VERTEX
  8
a
  10
20.40752
  20
12.10005
  30
0.0
  70
0
  0
VERTEX
  8
a
  10
20.48971
  20
12.09838
  30
0.0
  70
0
  0
VERTEX
  8
a
  10
20.65336
  20
12.10249
  30
0.0
  70
0
  0
VERTEX
  8
a
  10
20.81867
  20
12.0882
  30
0.0
  70
0
  0
VERTEX
  8
a
  10
20.9851
  20
12.05997
  30
0.0
  70
0
  0
VERTEX
  8
a
  10
21.15222
  20
12.02082
  30
0.0
  70
0
  0
VERTEX
  8
a
  10
21.31978
  20
11.97211
  30
0.0
  70
0
  0
VERTEX
  8
a
  10
21.48756
  20
11.91469
  30
0.0
  70
0
  0
VERTEX
  8
a
  10
21.65538
  20
11.8491
  30
0.0
  70
0
  0
VERTEX
  8
a
  10
21.82305
  20
11.77576
  30
0.0
  70
0
  0
VERTEX
  8
a
  10
21.99042
  20
11.69495
  30
0.0
  70
0
  0
VERTEX
  8
a
  10
22.15733
  20
11.60692
  30
0.0
  70
0
  0
VERTEX
  8
a
  10
22.32361
  20
11.51187
  30
0.0
  70
0
  0
VERTEX
  8
a
  10
22.44783
  20
11.43607
  30
0.0
  70
0
  0
VERTEX
  8
a
  10
22.44783
  20
11.01375
  30
0.0
  70
0
  0
VERTEX
  8
a
  10
22.32361
  20
10.93794
  30
0.0
  70
0
  0
VERTEX
  8
a
  10
22.15733
  20
10.84289
  30
0.0
  70
0
  0
VERTEX
  8
a
  10
21.99042
  20
10.75486
  30
0.0
  70
0
  0
VERTEX
  8
a
  10
21.82305
  20
10.67406
  30
0.0
  70
0
  0
VERTEX
  8
a
  10
21.65538
  20
10.60071
  30
0.0
  70
0
  0
VERTEX
  8
a
  10
21.48756
  20
10.53512
  30
0.0
  70
0
  0
VERTEX
  8
a
  10
21.31978
  20
10.4777
  30
0.0
  70
0
  0
VERTEX
  8
a
  10
21.15222
  20
10.429
  30
0.0
  70
0
  0
VERTEX
  8
a
  10
20.9851
  20
10.38984
  30
0.0
  70
0
  0
VERTEX
  8
a
  10
20.81867
  20
10.36162
  30
0.0
  70
0
  0
VERTEX
  8
a
  10
20.65336
  20
10.34733
  30
0.0
  70
0
  0
VERTEX
  8
a
  10
20.48971
  20
10.35143
  30
0.0
  70
0
  0
VERTEX
  8
a
  10
20.40752
  20
10.34976
  30
0.0
  70
0
  0
VERTEX
  8
a
  10
20.32482
  20
10.34278
  30
0.0
  70
0
  0
VERTEX
  8
a
  10
20.24143
  20
10.32918
  30
0.0
  70
0
  0
VERTEX
  8
a
  10
20.15707
  20
10.30665
  30
0.0
  70
0
  0
VERTEX
  8
a
  10
20.11437
  20
10.2907
  30
0.0
  70
0
  0
VERTEX
  8
a
  10
20.07113
  20
10.27026
  30
0.0
  70
0
  0
VERTEX
  8
a
  10
20.02708
  20
10.24312
  30
0.0
  70
0
  0
VERTEX
  8
a
  10
19.98148
  20
10.20368
  30
0.0
  70
0
  0
VERTEX
  8
a
  10
19.92687
  20
10.09441
  30
0.0
  70
0
  0
VERTEX
  8
a
  10
19.85031
  20
9.61102
  30
0.0
  70
0
  0
VERTEX
  8
a
  10
19.86848
  20
9.49022
  30
0.0
  70
0
  0
VERTEX
  8
a
  10
19.89966
  20
9.43862
  30
0.0
  70
0
  0
VERTEX
  8
a
  10
19.93317
  20
9.39919
  30
0.0
  70
0
  0
VERTEX
  8
a
  10
19.96797
  20
9.36639
  30
0.0
  70
0
  0
VERTEX
  8
a
  10
20.00366
  20
9.33803
  30
0.0
  70
0
  0
VERTEX
  8
a
  10
20.07692
  20
9.29053
  30
0.0
  70
0
  0
VERTEX
  8
a
  10
20.15203
  20
9.25183
  30
0.0
  70
0
  0
VERTEX
  8
a
  10
20.22853
  20
9.21963
  30
0.0
  70
0
  0
VERTEX
  8
a
  10
20.30618
  20
9.19265
  30
0.0
  70
0
  0
VERTEX
  8
a
  10
20.46309
  20
9.14598
  30
0.0
  70
0
  0
VERTEX
  8
a
  10
20.61589
  20
9.08131
  30
0.0
  70
0
  0
VERTEX
  8
a
  10
20.76545
  20
9.00304
  30
0.0
  70
0
  0
VERTEX
  8
a
  10
20.91229
  20
8.91415
  30
0.0
  70
0
  0
VERTEX
  8
a
  10
21.0566
  20
8.81605
  30
0.0
  70
0
  0
VERTEX
  8
a
  10
21.19843
  20
8.7096
  30
0.0
  70
0
  0
VERTEX
  8
a
  10
21.33776
  20
8.59536
  30
0.0
  70
0
  0
VERTEX
  8
a
  10
21.47457
  20
8.47379
  30
0.0
  70
0
  0
VERTEX
  8
a
  10
21.60877
  20
8.34522
  30
0.0
  70
0
  0
VERTEX
  8
a
  10
21.74031
  20
8.20992
  30
0.0
  70
0
  0
VERTEX
  8
a
  10
21.86908
  20
8.06814
  30
0.0
  70
0
  0
VERTEX
  8
a
  10
21.96379
  20
7.95766
  30
0.0
  70
0
  0
VERTEX
  8
a
  10
21.83329
  20
7.55601
  30
0.0
  70
0
  0
VERTEX
  8
a
  10
21.69173
  20
7.5223
  30
0.0
  70
0
  0
VERTEX
  8
a
  10
21.50421
  20
7.48328
  30
0.0
  70
0
  0
VERTEX
  8
a
  10
21.31827
  20
7.45114
  30
0.0
  70
0
  0
VERTEX
  8
a
  10
21.13412
  20
7.42601
  30
0.0
  70
0
  0
VERTEX
  8
a
  10
20.95199
  20
7.40807
  30
0.0
  70
0
  0
VERTEX
  8
a
  10
20.77212
  20
7.39755
  30
0.0
  70
0
  0
VERTEX
  8
a
  10
20.5948
  20
7.39478
  30
0.0
  70
0
  0
VERTEX
  8
a
  10
20.42039
  20
7.40024
  30
0.0
  70
0
  0
VERTEX
  8
a
  10
20.24935
  20
7.41465
  30
0.0
  70
0
  0
VERTEX
  8
a
  10
20.08235
  20
7.43923
  30
0.0
  70
0
  0
VERTEX
  8
a
  10
19.92071
  20
7.47673
  30
0.0
  70
0
  0
VERTEX
  8
a
  10
19.76634
  20
7.5312
  30
0.0
  70
0
  0
VERTEX
  8
a
  10
19.68766
  20
7.55501
  30
0.0
  70
0
  0
VERTEX
  8
a
  10
19.60684
  20
7.57393
  30
0.0
  70
0
  0
VERTEX
  8
a
  10
19.52333
  20
7.58676
  30
0.0
  70
0
  0
VERTEX
  8
a
  10
19.43615
  20
7.5914
  30
0.0
  70
0
  0
VERTEX
  8
a
  10
19.3906
  20
7.58943
  30
0.0
  70
0
  0
VERTEX
  8
a
  10
19.34316
  20
7.58335
  30
0.0
  70
0
  0
VERTEX
  8
a
  10
19.29288
  20
7.57115
  30
0.0
  70
0
  0
VERTEX
  8
a
  10
19.23733
  20
7.54773
  30
0.0
  70
0
  0
VERTEX
  8
a
  10
19.15163
  20
7.46069
  30
0.0
  70
0
  0
VERTEX
  8
a
  10
18.92943
  20
7.02461
  30
0.0
  70
0
  0
VERTEX
  8
a
  10
18.90939
  20
6.90411
  30
0.0
  70
0
  0
VERTEX
  8
a
  10
18.92309
  20
6.8454
  30
0.0
  70
0
  0
VERTEX
  8
a
  10
18.94278
  20
6.79755
  30
0.0
  70
0
  0
VERTEX
  8
a
  10
18.96574
  20
6.7556
  30
0.0
  70
0
  0
VERTEX
  8
a
  10
18.99092
  20
6.7176
  30
0.0
  70
0
  0
VERTEX
  8
a
  10
19.04592
  20
6.64978
  30
0.0
  70
0
  0
VERTEX
  8
a
  10
19.10539
  20
6.58977
  30
0.0
  70
0
  0
VERTEX
  8
a
  10
19.1682
  20
6.53551
  30
0.0
  70
0
  0
VERTEX
  8
a
  10
19.2337
  20
6.48585
  30
0.0
  70
0
  0
VERTEX
  8
a
  10
19.36851
  20
6.39298
  30
0.0
  70
0
  0
VERTEX
  8
a
  10
19.49385
  20
6.28425
  30
0.0
  70
0
  0
VERTEX
  8
a
  10
19.61191
  20
6.16359
  30
0.0
  70
0
  0
VERTEX
  8
a
  10
19.7241
  20
6.03368
  30
0.0
  70
0
  0
VERTEX
  8
a
  10
19.83103
  20
5.89579
  30
0.0
  70
0
  0
VERTEX
  8
a
  10
19.93302
  20
5.75072
  30
0.0
  70
0
  0
VERTEX
  8
a
  10
20.03023
  20
5.59902
  30
0.0
  70
0
  0
VERTEX
  8
a
  10
20.12277
  20
5.44112
  30
0.0
  70
0
  0
VERTEX
  8
a
  10
20.21068
  20
5.27737
  30
0.0
  70
0
  0
VERTEX
  8
a
  10
20.29397
  20
5.10805
  30
0.0
  70
0
  0
VERTEX
  8
a
  10
20.37262
  20
4.93341
  30
0.0
  70
0
  0
VERTEX
  8
a
  10
20.42856
  20
4.79907
  30
0.0
  70
0
  0
VERTEX
  8
a
  10
20.18032
  20
4.45741
  30
0.0
  70
0
  0
VERTEX
  8
a
  10
20.03528
  20
4.46909
  30
0.0
  70
0
  0
VERTEX
  8
a
  10
19.84488
  20
4.48993
  30
0.0
  70
0
  0
VERTEX
  8
a
  10
19.65811
  20
4.51682
  30
0.0
  70
0
  0
VERTEX
  8
a
  10
19.47521
  20
4.54983
  30
0.0
  70
0
  0
VERTEX
  8
a
  10
19.29644
  20
4.58904
  30
0.0
  70
0
  0
VERTEX
  8
a
  10
19.12213
  20
4.63462
  30
0.0
  70
0
  0
VERTEX
  8
a
  10
18.95264
  20
4.68679
  30
0.0
  70
0
  0
VERTEX
  8
a
  10
18.78845
  20
4.74587
  30
0.0
  70
0
  0
VERTEX
  8
a
  10
18.63023
  20
4.81243
  30
0.0
  70
0
  0
VERTEX
  8
a
  10
18.479
  20
4.88742
  30
0.0
  70
0
  0
VERTEX
  8
a
  10
18.33686
  20
4.97302
  30
0.0
  70
0
  0
VERTEX
  8
a
  10
18.20688
  20
5.07254
  30
0.0
  70
0
  0
VERTEX
  8
a
  10
18.1394
  20
5.11949
  30
0.0
  70
0
  0
VERTEX
  8
a
  10
18.06839
  20
5.16246
  30
0.0
  70
0
  0
VERTEX
  8
a
  10
17.99293
  20
5.20047
  30
0.0
  70
0
  0
VERTEX
  8
a
  10
17.91144
  20
5.23182
  30
0.0
  70
0
  0
VERTEX
  8
a
  10
17.86752
  20
5.24403
  30
0.0
  70
0
  0
VERTEX
  8
a
  10
17.82053
  20
5.25291
  30
0.0
  70
0
  0
VERTEX
  8
a
  10
17.76893
  20
5.25684
  30
0.0
  70
0
  0
VERTEX
  8
a
  10
17.70886
  20
5.25173
  30
0.0
  70
0
  0
VERTEX
  8
a
  10
17.60046
  20
5.19543
  30
0.0
  70
0
  0
VERTEX
  8
a
  10
17.25438
  20
4.84936
  30
0.0
  70
0
  0
VERTEX
  8
a
  10
17.19809
  20
4.74095
  30
0.0
  70
0
  0
VERTEX
  8
a
  10
17.19297
  20
4.68088
  30
0.0
  70
0
  0
VERTEX
  8
a
  10
17.19691
  20
4.62929
  30
0.0
  70
0
  0
VERTEX
  8
a
  10
17.20579
  20
4.58229
  30
0.0
  70
0
  0
VERTEX
  8
a
  10
17.21799
  20
4.53837
  30
0.0
  70
0
  0
VERTEX
  8
a
  10
17.24934
  20
4.45688
  30
0.0
  70
0
  0
VERTEX
  8
a
  10
17.28735
  20
4.38142
  30
0.0
  70
0
  0
VERTEX
  8
a
  10
17.33032
  20
4.31041
  30
0.0
  70
0
  0
VERTEX
  8
a
  10
17.37728
  20
4.24294
  30
0.0
  70
0
  0
VERTEX
  8
a
  10
17.47679
  20
4.11296
  30
0.0
  70
0
  0
VERTEX
  8
a
  10
17.5624
  20
3.97082
  30
0.0
  70
0
  0
VERTEX
  8
a
  10
17.63739
  20
3.81959
  30
0.0
  70
0
  0
VERTEX
  8
a
  10
17.70394
  20
3.66136
  30
0.0
  70
0
  0
VERTEX
  8
a
  10
17.76303
  20
3.49718
  30
0.0
  70
0
  0
VERTEX
  8
a
  10
17.81519
  20
3.32769
  30
0.0
  70
0
  0
VERTEX
  8
a
  10
17.86077
  20
3.15337
  30
0.0
  70
0
  0
VERTEX
  8
a
  10
17.89999
  20
2.97461
  30
0.0
  70
0
  0
VERTEX
  8
a
  10
17.93299
  20
2.7917
  30
0.0
  70
0
  0
VERTEX
  8
a
  10
17.95988
  20
2.60493
  30
0.0
  70
0
  0
VERTEX
  8
a
  10
17.98072
  20
2.41454
  30
0.0
  70
0
  0
VERTEX
  8
a
  10
17.99241
  20
2.26949
  30
0.0
  70
0
  0
VERTEX
  8
a
  10
17.65074
  20
2.02126
  30
0.0
  70
0
  0
VERTEX
  8
a
  10
17.51641
  20
2.07719
  30
0.0
  70
0
  0
VERTEX
  8
a
  10
17.34177
  20
2.15585
  30
0.0
  70
0
  0
VERTEX
  8
a
  10
17.17245
  20
2.23914
  30
0.0
  70
0
  0
VERTEX
  8
a
  10
17.0087
  20
2.32704
  30
0.0
  70
0
  0
VERTEX
  8
a
  10
16.8508
  20
2.41958
  30
0.0
  70
0
  0
VERTEX
  8
a
  10
16.6991
  20
2.5168
  30
0.0
  70
0
  0
VERTEX
  8
a
  10
16.55402
  20
2.61878
  30
0.0
  70
0
  0
VERTEX
  8
a
  10
16.41613
  20
2.72572
  30
0.0
  70
0
  0
VERTEX
  8
a
  10
16.28622
  20
2.83791
  30
0.0
  70
0
  0
VERTEX
  8
a
  10
16.16556
  20
2.95596
  30
0.0
  70
0
  0
VERTEX
  8
a
  10
16.05684
  20
3.0813
  30
0.0
  70
0
  0
VERTEX
  8
a
  10
15.96397
  20
3.21611
  30
0.0
  70
0
  0
VERTEX
  8
a
  10
15.91431
  20
3.28162
  30
0.0
  70
0
  0
VERTEX
  8
a
  10
15.86005
  20
3.34443
  30
0.0
  70
0
  0
VERTEX
  8
a
  10
15.80003
  20
3.40389
  30
0.0
  70
0
  0
VERTEX
  8
a
  10
15.73222
  20
3.45889
  30
0.0
  70
0
  0
VERTEX
  8
a
  10
15.69421
  20
3.48407
  30
0.0
  70
0
  0
VERTEX
  8
a
  10
15.65226
  20
3.50704
  30
0.0
  70
0
  0
VERTEX
  8
a
  10
15.60441
  20
3.52672
  30
0.0
  70
0
  0
VERTEX
  8
a
  10
15.5457
  20
3.54043
  30
0.0
  70
0
  0
VERTEX
  8
a
  10
15.42521
  20
3.52038
  30
0.0
  70
0
  0
VERTEX
  8
a
  10
14.98913
  20
3.29819
  30
0.0
  70
0
  0
VERTEX
  8
a
  10
14.90209
  20
3.21249
  30
0.0
  70
0
  0
VERTEX
  8
a
  10
14.87866
  20
3.15693
  30
0.0
  70
0
  0
VERTEX
  8
a
  10
14.86646
  20
3.10665
  30
0.0
  70
0
  0
VERTEX
  8
a
  10
14.86038
  20
3.05921
  30
0.0
  70
0
  0
VERTEX
  8
a
  10
14.85842
  20
3.01367
  30
0.0
  70
0
  0
VERTEX
  8
a
  10
14.86305
  20
2.92648
  30
0.0
  70
0
  0
VERTEX
  8
a
  10
14.87588
  20
2.84297
  30
0.0
  70
0
  0
VERTEX
  8
a
  10
14.8948
  20
2.76215
  30
0.0
  70
0
  0
VERTEX
  8
a
  10
14.91861
  20
2.68347
  30
0.0
  70
0
  0
VERTEX
  8
a
  10
14.97309
  20
2.5291
  30
0.0
  70
0
  0
VERTEX
  8
a
  10
15.01058
  20
2.36747
  30
0.0
  70
0
  0
VERTEX
  8
a
  10
15.03517
  20
2.20046
  30
0.0
  70
0
  0
VERTEX
  8
a
  10
15.04957
  20
2.02942
  30
0.0
  70
0
  0
VERTEX
  8
a
  10
15.05503
  20
1.85501
  30
0.0
  70
0
  0
VERTEX
  8
a
  10
15.05227
  20
1.6777
  30
0.0
  70
0
  0
VERTEX
  8
a
  10
15.04175
  20
1.49783
  30
0.0
  70
0
  0
VERTEX
  8
a
  10
15.0238
  20
1.31569
  30
0.0
  70
0
  0
VERTEX
  8
a
  10
14.99867
  20
1.13154
  30
0.0
  70
0
  0
VERTEX
  8
a
  10
14.96653
  20
0.9456
  30
0.0
  70
0
  0
VERTEX
  8
a
  10
14.92751
  20
0.75809
  30
0.0
  70
0
  0
VERTEX
  8
a
  10
14.89381
  20
0.61653
  30
0.0
  70
0
  0
VERTEX
  8
a
  10
14.49216
  20
0.48602
  30
0.0
  70
0
  0
VERTEX
  8
a
  10
14.38168
  20
0.58073
  30
0.0
  70
0
  0
VERTEX
  8
a
  10
14.23989
  20
0.70951
  30
0.0
  70
0
  0
VERTEX
  8
a
  10
14.1046
  20
0.84104
  30
0.0
  70
0
  0
VERTEX
  8
a
  10
13.97603
  20
0.97525
  30
0.0
  70
0
  0
VERTEX
  8
a
  10
13.85445
  20
1.11205
  30
0.0
  70
0
  0
VERTEX
  8
a
  10
13.74022
  20
1.25139
  30
0.0
  70
0
  0
VERTEX
  8
a
  10
13.63376
  20
1.39321
  30
0.0
  70
0
  0
VERTEX
  8
a
  10
13.53566
  20
1.53752
  30
0.0
  70
0
  0
VERTEX
  8
a
  10
13.44678
  20
1.68436
  30
0.0
  70
0
  0
VERTEX
  8
a
  10
13.36851
  20
1.83392
  30
0.0
  70
0
  0
VERTEX
  8
a
  10
13.30383
  20
1.98673
  30
0.0
  70
0
  0
VERTEX
  8
a
  10
13.25717
  20
2.14364
  30
0.0
  70
0
  0
VERTEX
  8
a
  10
13.23018
  20
2.22128
  30
0.0
  70
0
  0
VERTEX
  8
a
  10
13.19799
  20
2.29779
  30
0.0
  70
0
  0
VERTEX
  8
a
  10
13.15928
  20
2.37289
  30
0.0
  70
0
  0
VERTEX
  8
a
  10
13.11178
  20
2.44615
  30
0.0
  70
0
  0
VERTEX
  8
a
  10
13.08342
  20
2.48184
  30
0.0
  70
0
  0
VERTEX
  8
a
  10
13.05062
  20
2.51665
  30
0.0
  70
0
  0
VERTEX
  8
a
  10
13.01119
  20
2.55016
  30
0.0
  70
0
  0
VERTEX
  8
a
  10
12.95959
  20
2.58133
  30
0.0
  70
0
  0
VERTEX
  8
a
  10
12.8388
  20
2.5995
  30
0.0
  70
0
  0
VERTEX
  8
a
  10
12.3554
  20
2.52294
  30
0.0
  70
0
  0
VERTEX
  8
a
  10
12.24614
  20
2.46833
  30
0.0
  70
0
  0
VERTEX
  8
a
  10
12.20669
  20
2.42274
  30
0.0
  70
0
  0
VERTEX
  8
a
  10
12.17955
  20
2.37868
  30
0.0
  70
0
  0
VERTEX
  8
a
  10
12.15911
  20
2.33545
  30
0.0
  70
0
  0
VERTEX
  8
a
  10
12.14317
  20
2.29274
  30
0.0
  70
0
  0
VERTEX
  8
a
  10
12.12063
  20
2.20838
  30
0.0
  70
0
  0
VERTEX
  8
a
  10
12.10703
  20
2.125
  30
0.0
  70
0
  0
VERTEX
  8
a
  10
12.10005
  20
2.04229
  30
0.0
  70
0
  0
VERTEX
  8
a
  10
12.09838
  20
1.9601
  30
0.0
  70
0
  0
VERTEX
  8
a
  10
12.10249
  20
1.79645
  30
0.0
  70
0
  0
VERTEX
  8
a
  10
12.0882
  20
1.63114
  30
0.0
  70
0
  0
VERTEX
  8
a
  10
12.05997
  20
1.46472
  30
0.0
  70
0
  0
VERTEX
  8
a
  10
12.02082
  20
1.29759
  30
0.0
  70
0
  0
VERTEX
  8
a
  10
11.97211
  20
1.13003
  30
0.0
  70
0
  0
VERTEX
  8
a
  10
11.91469
  20
0.96225
  30
0.0
  70
0
  0
VERTEX
  8
a
  10
11.8491
  20
0.79443
  30
0.0
  70
0
  0
VERTEX
  8
a
  10
11.77576
  20
0.62676
  30
0.0
  70
0
  0
VERTEX
  8
a
  10
11.69495
  20
0.45939
  30
0.0
  70
0
  0
VERTEX
  8
a
  10
11.60692
  20
0.29248
  30
0.0
  70
0
  0
VERTEX
  8
a
  10
11.51187
  20
0.1262
  30
0.0
  70
0
  0
VERTEX
  8
a
  10
11.43607
  20
0.00199
  30
0.0
  70
0
  0
VERTEX
  8
a
  10
11.01375
  20
0.00199
  30
0.0
  70
0
  0
VERTEX
  8
a
  10
10.93794
  20
0.1262
  30
0.0
  70
0
  0
VERTEX
  8
a
  10
10.84289
  20
0.29248
  30
0.0
  70
0
  0
VERTEX
  8
a
  10
10.75486
  20
0.45939
  30
0.0
  70
0
  0
VERTEX
  8
a
  10
10.67406
  20
0.62676
  30
0.0
  70
0
  0
VERTEX
  8
a
  10
10.60071
  20
0.79443
  30
0.0
  70
0
  0
VERTEX
  8
a
  10
10.53512
  20
0.96225
  30
0.0
  70
0
  0
VERTEX
  8
a
  10
10.4777
  20
1.13003
  30
0.0
  70
0
  0
VERTEX
  8
a
  10
10.429
  20
1.29759
  30
0.0
  70
0
  0
VERTEX
  8
a
  10
10.38984
  20
1.46472
  30
0.0
  70
0
  0
VERTEX
  8
a
  10
10.36162
  20
1.63114
  30
0.0
  70
0
  0
VERTEX
  8
a
  10
10.34733
  20
1.79645
  30
0.0
  70
0
  0
VERTEX
  8
a
  10
10.35143
  20
1.9601
  30
0.0
  70
0
  0
VERTEX
  8
a
  10
10.34976
  20
2.04229
  30
0.0
  70
0
  0
VERTEX
  8
a
  10
10.34278
  20
2.125
  30
0.0
  70
0
  0
VERTEX
  8
a
  10
10.32918
  20
2.20838
  30
0.0
  70
0
  0
VERTEX
  8
a
  10
10.30665
  20
2.29274
  30
0.0
  70
0
  0
VERTEX
  8
a
  10
10.2907
  20
2.33545
  30
0.0
  70
0
  0
VERTEX
  8
a
  10
10.27026
  20
2.37868
  30
0.0
  70
0
  0
VERTEX
  8
a
  10
10.24312
  20
2.42274
  30
0.0
  70
0
  0
VERTEX
  8
a
  10
10.20368
  20
2.46833
  30
0.0
  70
0
  0
VERTEX
  8
a
  10
10.09441
  20
2.52294
  30
0.0
  70
0
  0
VERTEX
  8
a
  10
9.61102
  20
2.5995
  30
0.0
  70
0
  0
VERTEX
  8
a
  10
9.49022
  20
2.58133
  30
0.0
  70
0
  0
VERTEX
  8
a
  10
9.43862
  20
2.55016
  30
0.0
  70
0
  0
VERTEX
  8
a
  10
9.39919
  20
2.51665
  30
0.0
  70
0
  0
VERTEX
  8
a
  10
9.36639
  20
2.48184
  30
0.0
  70
0
  0
VERTEX
  8
a
  10
9.33803
  20
2.44615
  30
0.0
  70
0
  0
VERTEX
  8
a
  10
9.29053
  20
2.37289
  30
0.0
  70
0
  0
VERTEX
  8
a
  10
9.25183
  20
2.29779
  30
0.0
  70
0
  0
VERTEX
  8
a
  10
9.21963
  20
2.22128
  30
0.0
  70
0
  0
VERTEX
  8
a
  10
9.19265
  20
2.14364
  30
0.0
  70
0
  0
VERTEX
  8
a
  10
9.14598
  20
1.98673
  30
0.0
  70
0
  0
VERTEX
  8
a
  10
9.08131
  20
1.83392
  30
0.0
  70
0
  0
VERTEX
  8
a
  10
9.00304
  20
1.68436
  30
0.0
  70
0
  0
VERTEX
  8
a
  10
8.91415
  20
1.53752
  30
0.0
  70
0
  0
VERTEX
  8
a
  10
8.81605
  20
1.39321
  30
0.0
  70
0
  0
VERTEX
  8
a
  10
8.7096
  20
1.25139
  30
0.0
  70
0
  0
VERTEX
  8
a
  10
8.59536
  20
1.11205
  30
0.0
  70
0
  0
VERTEX
  8
a
  10
8.47379
  20
0.97525
  30
0.0
  70
0
  0
VERTEX
  8
a
  10
8.34522
  20
0.84104
  30
0.0
  70
0
  0
VERTEX
  8
a
  10
8.20992
  20
0.70951
  30
0.0
  70
0
  0
VERTEX
  8
a
  10
8.06814
  20
0.58073
  30
0.0
  70
0
  0
VERTEX
  8
a
  10
7.95766
  20
0.48602
  30
0.0
  70
0
  0
VERTEX
  8
a
  10
7.55601
  20
0.61653
  30
0.0
  70
0
  0
VERTEX
  8
a
  10
7.5223
  20
0.75809
  30
0.0
  70
0
  0
VERTEX
  8
a
  10
7.48328
  20
0.9456
  30
0.0
  70
0
  0
VERTEX
  8
a
  10
7.45114
  20
1.13154
  30
0.0
  70
0
  0
VERTEX
  8
a
  10
7.42601
  20
1.31569
  30
0.0
  70
0
  0
VERTEX
  8
a
  10
7.40807
  20
1.49783
  30
0.0
  70
0
  0
VERTEX
  8
a
  10
7.39755
  20
1.6777
  30
0.0
  70
0
  0
VERTEX
  8
a
  10
7.39478
  20
1.85501
  30
0.0
  70
0
  0
VERTEX
  8
a
  10
7.40024
  20
2.02942
  30
0.0
  70
0
  0
VERTEX
  8
a
  10
7.41465
  20
2.20046
  30
0.0
  70
0
  0
VERTEX
  8
a
  10
7.43923
  20
2.36747
  30
0.0
  70
0
  0
VERTEX
  8
a
  10
7.47673
  20
2.5291
  30
0.0
  70
0
  0
VERTEX
  8
a
  10
7.5312
  20
2.68347
  30
0.0
  70
0
  0
VERTEX
  8
a
  10
7.55501
  20
2.76215
  30
0.0
  70
0
  0
VERTEX
  8
a
  10
7.57393
  20
2.84297
  30
0.0
  70
0
  0
VERTEX
  8
a
  10
7.58676
  20
2.92648
  30
0.0
  70
0
  0
VERTEX
  8
a
  10
7.5914
  20
3.01367
  30
0.0
  70
0
  0
VERTEX
  8
a
  10
7.58943
  20
3.05921
  30
0.0
  70
0
  0
VERTEX
  8
a
  10
7.58335
  20
3.10665
  30
0.0
  70
0
  0
VERTEX
  8
a
  10
7.57115
  20
3.15693
  30
0.0
  70
0
  0
VERTEX
  8
a
  10
7.54773
  20
3.21249
  30
0.0
  70
0
  0
VERTEX
  8
a
  10
7.46069
  20
3.29819
  30
0.0
  70
0
  0
VERTEX
  8
a
  10
7.02461
  20
3.52038
  30
0.0
  70
0
  0
VERTEX
  8
a
  10
6.90411
  20
3.54043
  30
0.0
  70
0
  0
VERTEX
  8
a
  10
6.8454
  20
3.52672
  30
0.0
  70
0
  0
VERTEX
  8
a
  10
6.79755
  20
3.50704
  30
0.0
  70
0
  0
VERTEX
  8
a
  10
6.7556
  20
3.48407
  30
0.0
  70
0
  0
VERTEX
  8
a
  10
6.7176
  20
3.45889
  30
0.0
  70
0
  0
VERTEX
  8
a
  10
6.64978
  20
3.40389
  30
0.0
  70
0
  0
VERTEX
  8
a
  10
6.58977
  20
3.34443
  30
0.0
  70
0
  0
VERTEX
  8
a
  10
6.53551
  20
3.28162
  30
0.0
  70
0
  0
VERTEX
  8
a
  10
6.48585
  20
3.21611
  30
0.0
  70
0
  0
VERTEX
  8
a
  10
6.39298
  20
3.0813
  30
0.0
  70
0
  0
VERTEX
  8
a
  10
6.28425
  20
2.95596
  30
0.0
  70
0
  0
VERTEX
  8
a
  10
6.16359
  20
2.83791
  30
0.0
  70
0
  0
VERTEX
  8
a
  10
6.03368
  20
2.72572
  30
0.0
  70
0
  0
VERTEX
  8
a
  10
5.89579
  20
2.61878
  30
0.0
  70
0
  0
VERTEX
  8
a
  10
5.75072
  20
2.5168
  30
0.0
  70
0
  0
VERTEX
  8
a
  10
5.59902
  20
2.41958
  30
0.0
  70
0
  0
VERTEX
  8
a
  10
5.44112
  20
2.32704
  30
0.0
  70
0
  0
VERTEX
  8
a
  10
5.27737
  20
2.23914
  30
0.0
  70
0
  0
VERTEX
  8
a
  10
5.10805
  20
2.15585
  30
0.0
  70
0
  0
VERTEX
  8
a
  10
4.93341
  20
2.07719
  30
0.0
  70
0
  0
VERTEX
  8
a
  10
4.79907
  20
2.02126
  30
0.0
  70
0
  0
VERTEX
  8
a
  10
4.45741
  20
2.26949
  30
0.0
  70
0
  0
VERTEX
  8
a
  10
4.46909
  20
2.41454
  30
0.0
  70
0
  0
VERTEX
  8
a
  10
4.48993
  20
2.60493
  30
0.0
  70
0
  0
VERTEX
  8
a
  10
4.51682
  20
2.7917
  30
0.0
  70
0
  0
VERTEX
  8
a
  10
4.54983
  20
2.97461
  30
0.0
  70
0
  0
VERTEX
  8
a
  10
4.58904
  20
3.15337
  30
0.0
  70
0
  0
VERTEX
  8
a
  10
4.63462
  20
3.32769
  30
0.0
  70
0
  0
VERTEX
  8
a
  10
4.68679
  20
3.49718
  30
0.0
  70
0
  0
VERTEX
  8
a
  10
4.74587
  20
3.66136
  30
0.0
  70
0
  0
VERTEX
  8
a
  10
4.81243
  20
3.81959
  30
0.0
  70
0
  0
VERTEX
  8
a
  10
4.88742
  20
3.97082
  30
0.0
  70
0
  0
VERTEX
  8
a
  10
4.97302
  20
4.11296
  30
0.0
  70
0
  0
VERTEX
  8
a
  10
5.07254
  20
4.24294
  30
0.0
  70
0
  0
VERTEX
  8
a
  10
5.11949
  20
4.31041
  30
0.0
  70
0
  0
VERTEX
  8
a
  10
5.16246
  20
4.38142
  30
0.0
  70
0
  0
VERTEX
  8
a
  10
5.20047
  20
4.45688
  30
0.0
  70
0
  0
VERTEX
  8
a
  10
5.23182
  20
4.53837
  30
0.0
  70
0
  0
VERTEX
  8
a
  10
5.24403
  20
4.58229
  30
0.0
  70
0
  0
VERTEX
  8
a
  10
5.25291
  20
4.62929
  30
0.0
  70
0
  0
VERTEX
  8
a
  10
5.25684
  20
4.68088
  30
0.0
  70
0
  0
VERTEX
  8
a
  10
5.25173
  20
4.74095
  30
0.0
  70
0
  0
VERTEX
  8
a
  10
5.19543
  20
4.84936
  30
0.0
  70
0
  0
VERTEX
  8
a
  10
4.84936
  20
5.19543
  30
0.0
  70
0
  0
VERTEX
  8
a
  10
4.74095
  20
5.25173
  30
0.0
  70
0
  0
VERTEX
  8
a
  10
4.68088
  20
5.25684
  30
0.0
  70
0
  0
VERTEX
  8
a
  10
4.62929
  20
5.25291
  30
0.0
  70
0
  0
VERTEX
  8
a
  10
4.58229
  20
5.24403
  30
0.0
  70
0
  0
VERTEX
  8
a
  10
4.53837
  20
5.23182
  30
0.0
  70
0
  0
VERTEX
  8
a
  10
4.45688
  20
5.20047
  30
0.0
  70
0
  0
VERTEX
  8
a
  10
4.38142
  20
5.16246
  30
0.0
  70
0
  0
VERTEX
  8
a
  10
4.31041
  20
5.11949
  30
0.0
  70
0
  0
VERTEX
  8
a
  10
4.24294
  20
5.07254
  30
0.0
  70
0
  0
VERTEX
  8
a
  10
4.11296
  20
4.97302
  30
0.0
  70
0
  0
VERTEX
  8
a
  10
3.97082
  20
4.88742
  30
0.0
  70
0
  0
VERTEX
  8
a
  10
3.81959
  20
4.81243
  30
0.0
  70
0
  0
VERTEX
  8
a
  10
3.66136
  20
4.74587
  30
0.0
  70
0
  0
VERTEX
  8
a
  10
3.49718
  20
4.68679
  30
0.0
  70
0
  0
VERTEX
  8
a
  10
3.32769
  20
4.63462
  30
0.0
  70
0
  0
VERTEX
  8
a
  10
3.15337
  20
4.58904
  30
0.0
  70
0
  0
VERTEX
  8
a
  10
2.97461
  20
4.54983
  30
0.0
  70
0
  0
VERTEX
  8
a
  10
2.7917
  20
4.51682
  30
0.0
  70
0
  0
VERTEX
  8
a
  10
2.60493
  20
4.48993
  30
0.0
  70
0
  0
VERTEX
  8
a
  10
2.41454
  20
4.46909
  30
0.0
  70
0
  0
VERTEX
  8
a
  10
2.26949
  20
4.45741
  30
0.0
  70
0
  0
VERTEX
  8
a
  10
2.02126
  20
4.79907
  30
0.0
  70
0
  0
VERTEX
  8
a
  10
2.07719
  20
4.93341
  30
0.0
  70
0
  0
VERTEX
  8
a
  10
2.15585
  20
5.10805
  30
0.0
  70
0
  0
VERTEX
  8
a
  10
2.23914
  20
5.27737
  30
0.0
  70
0
  0
VERTEX
  8
a
  10
2.32704
  20
5.44112
  30
0.0
  70
0
  0
VERTEX
  8
a
  10
2.41958
  20
5.59902
  30
0.0
  70
0
  0
VERTEX
  8
a
  10
2.5168
  20
5.75072
  30
0.0
  70
0
  0
VERTEX
  8
a
  10
2.61878
  20
5.89579
  30
0.0
  70
0
  0
VERTEX
  8
a
  10
2.72572
  20
6.03368
  30
0.0
  70
0
  0
VERTEX
  8
a
  10
2.83791
  20
6.16359
  30
0.0
  70
0
  0
VERTEX
  8
a
  10
2.95596
  20
6.28425
  30
0.0
  70
0
  0
VERTEX
  8
a
  10
3.0813
  20
6.39298
  30
0.0
  70
0
  0
VERTEX
  8
a
  10
3.21611
  20
6.48585
  30
0.0
  70
0
  0
VERTEX
  8
a
  10
3.28162
  20
6.53551
  30
0.0
  70
0
  0
VERTEX
  8
a
  10
3.34443
  20
6.58977
  30
0.0
  70
0
  0
VERTEX
  8
a
  10
3.40389
  20
6.64978
  30
0.0
  70
0
  0
VERTEX
  8
a
  10
3.45889
  20
6.7176
  30
0.0
  70
0
  0
VERTEX
  8
a
  10
3.48407
  20
6.7556
  30
0.0
  70
0
  0
VERTEX
  8
a
  10
3.50704
  20
6.79755
  30
0.0
  70
0
  0
VERTEX
  8
a
  10
3.52672
  20
6.8454
  30
0.0
  70
0
  0
VERTEX
  8
a
  10
3.54043
  20
6.90411
  30
0.0
  70
0
  0
VERTEX
  8
a
  10
3.52038
  20
7.02461
  30
0.0
  70
0
  0
VERTEX
  8
a
  10
3.29819
  20
7.46069
  30
0.0
  70
0
  0
VERTEX
  8
a
  10
3.21249
  20
7.54773
  30
0.0
  70
0
  0
VERTEX
  8
a
  10
3.15693
  20
7.57115
  30
0.0
  70
0
  0
VERTEX
  8
a
  10
3.10665
  20
7.58335
  30
0.0
  70
0
  0
VERTEX
  8
a
  10
3.05921
  20
7.58943
  30
0.0
  70
0
  0
VERTEX
  8
a
  10
3.01367
  20
7.5914
  30
0.0
  70
0
  0
VERTEX
  8
a
  10
2.92648
  20
7.58676
  30
0.0
  70
0
  0
VERTEX
  8
a
  10
2.84297
  20
7.57393
  30
0.0
  70
0
  0
VERTEX
  8
a
  10
2.76215
  20
7.55501
  30
0.0
  70
0
  0
VERTEX
  8
a
  10
2.68347
  20
7.5312
  30
0.0
  70
0
  0
VERTEX
  8
a
  10
2.5291
  20
7.47673
  30
0.0
  70
0
  0
VERTEX
  8
a
  10
2.36747
  20
7.43923
  30
0.0
  70
0
  0
VERTEX
  8
a
  10
2.20046
  20
7.41465
  30
0.0
  70
0
  0
VERTEX
  8
a
  10
2.02942
  20
7.40024
  30
0.0
  70
0
  0
VERTEX
  8
a
  10
1.85501
  20
7.39478
  30
0.0
  70
0
  0
VERTEX
  8
a
  10
1.6777
  20
7.39755
  30
0.0
  70
0
  0
VERTEX
  8
a
  10
1.49783
  20
7.40807
  30
0.0
  70
0
  0
VERTEX
  8
a
  10
1.31569
  20
7.42601
  30
0.0
  70
0
  0
VERTEX
  8
a
  10
1.13154
  20
7.45114
  30
0.0
  70
0
  0
VERTEX
  8
a
  10
0.9456
  20
7.48328
  30
0.0
  70
0
  0
VERTEX
  8
a
  10
0.75809
  20
7.5223
  30
0.0
  70
0
  0
VERTEX
  8
a
  10
0.61653
  20
7.55601
  30
0.0
  70
0
  0
VERTEX
  8
a
  10
0.48602
  20
7.95766
  30
0.0
  70
0
  0
VERTEX
  8
a
  10
0.58073
  20
8.06814
  30
0.0
  70
0
  0
VERTEX
  8
a
  10
0.70951
  20
8.20992
  30
0.0
  70
0
  0
VERTEX
  8
a
  10
0.84104
  20
8.34522
  30
0.0
  70
0
  0
VERTEX
  8
a
  10
0.97525
  20
8.47379
  30
0.0
  70
0
  0
VERTEX
  8
a
  10
1.11205
  20
8.59536
  30
0.0
  70
0
  0
VERTEX
  8
a
  10
1.25139
  20
8.7096
  30
0.0
  70
0
  0
VERTEX
  8
a
  10
1.39321
  20
8.81605
  30
0.0
  70
0
  0
VERTEX
  8
a
  10
1.53752
  20
8.91415
  30
0.0
  70
0
  0
VERTEX
  8
a
  10
1.68436
  20
9.00304
  30
0.0
  70
0
  0
VERTEX
  8
a
  10
1.83392
  20
9.08131
  30
0.0
  70
0
  0
VERTEX
  8
a
  10
1.98673
  20
9.14598
  30
0.0
  70
0
  0
VERTEX
  8
a
  10
2.14364
  20
9.19265
  30
0.0
  70
0
  0
VERTEX
  8
a
  10
2.22128
  20
9.21963
  30
0.0
  70
0
  0
VERTEX
  8
a
  10
2.29779
  20
9.25183
  30
0.0
  70
0
  0
VERTEX
  8
a
  10
2.37289
  20
9.29053
  30
0.0
  70
0
  0
VERTEX
  8
a
  10
2.44615
  20
9.33803
  30
0.0
  70
0
  0
VERTEX
  8
a
  10
2.48184
  20
9.36639
  30
0.0
  70
0
  0
VERTEX
  8
a
  10
2.51665
  20
9.39919
  30
0.0
  70
0
  0
VERTEX
  8
a
  10
2.55016
  20
9.43862
  30
0.0
  70
0
  0
VERTEX
  8
a
  10
2.58133
  20
9.49022
  30
0.0
  70
0
  0
VERTEX
  8
a
  10
2.5995
  20
9.61102
  30
0.0
  70
0
  0
VERTEX
  8
a
  10
2.52294
  20
10.09441
  30
0.0
  70
0
  0
VERTEX
  8
a
  10
2.46833
  20
10.20368
  30
0.0
  70
0
  0
VERTEX
  8
a
  10
2.42274
  20
10.24312
  30
0.0
  70
0
  0
VERTEX
  8
a
  10
2.37868
  20
10.27026
  30
0.0
  70
0
  0
VERTEX
  8
a
  10
2.33545
  20
10.2907
  30
0.0
  70
0
  0
VERTEX
  8
a
  10
2.29274
  20
10.30665
  30
0.0
  70
0
  0
VERTEX
  8
a
  10
2.20838
  20
10.32918
  30
0.0
  70
0
  0
VERTEX
  8
a
  10
2.125
  20
10.34278
  30
0.0
  70
0
  0
VERTEX
  8
a
  10
2.04229
  20
10.34976
  30
0.0
  70
0
  0
VERTEX
  8
a
  10
1.9601
  20
10.35143
  30
0.0
  70
0
  0
VERTEX
  8
a
  10
1.79645
  20
10.34733
  30
0.0
  70
0
  0
VERTEX
  8
a
  10
1.63114
  20
10.36162
  30
0.0
  70
0
  0
VERTEX
  8
a
  10
1.46472
  20
10.38984
  30
0.0
  70
0
  0
VERTEX
  8
a
  10
1.29759
  20
10.429
  30
0.0
  70
0
  0
VERTEX
  8
a
  10
1.13003
  20
10.4777
  30
0.0
  70
0
  0
VERTEX
  8
a
  10
0.96225
  20
10.53512
  30
0.0
  70
0
  0
VERTEX
  8
a
  10
0.79443
  20
10.60071
  30
0.0
  70
0
  0
VERTEX
  8
a
  10
0.62676
  20
10.67406
  30
0.0
  70
0
  0
VERTEX
  8
a
  10
0.45939
  20
10.75486
  30
0.0
  70
0
  0
VERTEX
  8
a
  10
0.29248
  20
10.84289
  30
0.0
  70
0
  0
VERTEX
  8
a
  10
0.1262
  20
10.93794
  30
0.0
  70
0
  0
VERTEX
  8
a
  10
0.00199
  20
11.01375
  30
0.0
  70
0
  0
VERTEX
  8
a
  10
0.00199
  20
11.43607
  30
0.0
  70
0
  0
VERTEX
  8
a
  10
0.1262
  20
11.51187
  30
0.0
  70
0
  0
VERTEX
  8
a
  10
0.29248
  20
11.60692
  30
0.0
  70
0
  0
VERTEX
  8
a
  10
0.45939
  20
11.69495
  30
0.0
  70
0
  0
VERTEX
  8
a
  10
0.62676
  20
11.77576
  30
0.0
  70
0
  0
VERTEX
  8
a
  10
0.79443
  20
11.8491
  30
0.0
  70
0
  0
VERTEX
  8
a
  10
0.96225
  20
11.91469
  30
0.0
  70
0
  0
VERTEX
  8
a
  10
1.13003
  20
11.97211
  30
0.0
  70
0
  0
VERTEX
  8
a
  10
1.29759
  20
12.02082
  30
0.0
  70
0
  0
VERTEX
  8
a
  10
1.46472
  20
12.05997
  30
0.0
  70
0
  0
VERTEX
  8
a
  10
1.63114
  20
12.0882
  30
0.0
  70
0
  0
VERTEX
  8
a
  10
1.79645
  20
12.10249
  30
0.0
  70
0
  0
VERTEX
  8
a
  10
1.9601
  20
12.09838
  30
0.0
  70
0
  0
VERTEX
  8
a
  10
2.04229
  20
12.10005
  30
0.0
  70
0
  0
VERTEX
  8
a
  10
2.125
  20
12.10703
  30
0.0
  70
0
  0
VERTEX
  8
a
  10
2.20838
  20
12.12063
  30
0.0
  70
0
  0
VERTEX
  8
a
  10
2.29274
  20
12.14317
  30
0.0
  70
0
  0
VERTEX
  8
a
  10
2.33545
  20
12.15911
  30
0.0
  70
0
  0
VERTEX
  8
a
  10
2.37868
  20
12.17955
  30
0.0
  70
0
  0
VERTEX
  8
a
  10
2.42274
  20
12.20669
  30
0.0
  70
0
  0
VERTEX
  8
a
  10
2.46833
  20
12.24614
  30
0.0
  70
0
  0
VERTEX
  8
a
  10
2.52294
  20
12.3554
  30
0.0
  70
0
  0
VERTEX
  8
a
  10
2.5995
  20
12.8388
  30
0.0
  70
0
  0
VERTEX
  8
a
  10
2.58133
  20
12.95959
  30
0.0
  70
0
  0
VERTEX
  8
a
  10
2.55016
  20
13.01119
  30
0.0
  70
0
  0
VERTEX
  8
a
  10
2.51665
  20
13.05062
  30
0.0
  70
0
  0
VERTEX
  8
a
  10
2.48184
  20
13.08342
  30
0.0
  70
0
  0
VERTEX
  8
a
  10
2.44615
  20
13.11178
  30
0.0
  70
0
  0
VERTEX
  8
a
  10
2.37289
  20
13.15928
  30
0.0
  70
0
  0
VERTEX
  8
a
  10
2.29779
  20
13.19799
  30
0.0
  70
0
  0
VERTEX
  8
a
  10
2.22128
  20
13.23018
  30
0.0
  70
0
  0
VERTEX
  8
a
  10
2.14364
  20
13.25717
  30
0.0
  70
0
  0
VERTEX
  8
a
  10
1.98673
  20
13.30383
  30
0.0
  70
0
  0
VERTEX
  8
a
  10
1.83392
  20
13.36851
  30
0.0
  70
0
  0
VERTEX
  8
a
  10
1.68436
  20
13.44678
  30
0.0
  70
0
  0
VERTEX
  8
a
  10
1.53752
  20
13.53566
  30
0.0
  70
0
  0
VERTEX
  8
a
  10
1.39321
  20
13.63376
  30
0.0
  70
0
  0
VERTEX
  8
a
  10
1.25139
  20
13.74022
  30
0.0
  70
0
  0
VERTEX
  8
a
  10
1.11205
  20
13.85445
  30
0.0
  70
0
  0
VERTEX
  8
a
  10
0.97525
  20
13.97603
  30
0.0
  70
0
  0
VERTEX
  8
a
  10
0.84104
  20
14.1046
  30
0.0
  70
0
  0
VERTEX
  8
a
  10
0.70951
  20
14.23989
  30
0.0
  70
0
  0
VERTEX
  8
a
  10
0.58073
  20
14.38168
  30
0.0
  70
0
  0
VERTEX
  8
a
  10
0.48602
  20
14.49216
  30
0.0
  70
0
  0
VERTEX
  8
a
  10
0.61653
  20
14.89381
  30
0.0
  70
0
  0
VERTEX
  8
a
  10
0.75809
  20
14.92751
  30
0.0
  70
0
  0
VERTEX
  8
a
  10
0.9456
  20
14.96653
  30
0.0
  70
0
  0
VERTEX
  8
a
  10
1.13154
  20
14.99867
  30
0.0
  70
0
  0
VERTEX
  8
a
  10
1.31569
  20
15.0238
  30
0.0
  70
0
  0
VERTEX
  8
a
  10
1.49783
  20
15.04175
  30
0.0
  70
0
  0
VERTEX
  8
a
  10
1.6777
  20
15.05227
  30
0.0
  70
0
  0
VERTEX
  8
a
  10
1.85501
  20
15.05503
  30
0.0
  70
0
  0
VERTEX
  8
a
  10
2.02942
  20
15.04957
  30
0.0
  70
0
  0
VERTEX
  8
a
  10
2.20046
  20
15.03517
  30
0.0
  70
0
  0
VERTEX
  8
a
  10
2.36747
  20
15.01058
  30
0.0
  70
0
  0
VERTEX
  8
a
  10
2.5291
  20
14.97309
  30
0.0
  70
0
  0
VERTEX
  8
a
  10
2.68347
  20
14.91861
  30
0.0
  70
0
  0
VERTEX
  8
a
  10
2.76215
  20
14.8948
  30
0.0
  70
0
  0
VERTEX
  8
a
  10
2.84297
  20
14.87588
  30
0.0
  70
0
  0
VERTEX
  8
a
  10
2.92648
  20
14.86305
  30
0.0
  70
0
  0
VERTEX
  8
a
  10
3.01367
  20
14.85842
  30
0.0
  70
0
  0
VERTEX
  8
a
  10
3.05921
  20
14.86038
  30
0.0
  70
0
  0
VERTEX
  8
a
  10
3.10665
  20
14.86646
  30
0.0
  70
0
  0
VERTEX
  8
a
  10
3.15693
  20
14.87866
  30
0.0
  70
0
  0
VERTEX
  8
a
  10
3.21249
  20
14.90209
  30
0.0
  70
0
  0
VERTEX
  8
a
  10
3.29819
  20
14.98913
  30
0.0
  70
0
  0
VERTEX
  8
a
  10
3.52038
  20
15.42521
  30
0.0
  70
0
  0
VERTEX
  8
a
  10
3.54043
  20
15.5457
  30
0.0
  70
0
  0
VERTEX
  8
a
  10
3.52672
  20
15.60441
  30
0.0
  70
0
  0
VERTEX
  8
a
  10
3.50704
  20
15.65226
  30
0.0
  70
0
  0
VERTEX
  8
a
  10
3.48407
  20
15.69421
  30
0.0
  70
0
  0
VERTEX
  8
a
  10
3.45889
  20
15.73222
  30
0.0
  70
0
  0
VERTEX
  8
a
  10
3.40389
  20
15.80003
  30
0.0
  70
0
  0
VERTEX
  8
a
  10
3.34443
  20
15.86005
  30
0.0
  70
0
  0
VERTEX
  8
a
  10
3.28162
  20
15.91431
  30
0.0
  70
0
  0
VERTEX
  8
a
  10
3.21611
  20
15.96397
  30
0.0
  70
0
  0
VERTEX
  8
a
  10
3.0813
  20
16.05684
  30
0.0
  70
0
  0
VERTEX
  8
a
  10
2.95596
  20
16.16556
  30
0.0
  70
0
  0
VERTEX
  8
a
  10
2.83791
  20
16.28622
  30
0.0
  70
0
  0
VERTEX
  8
a
  10
2.72572
  20
16.41613
  30
0.0
  70
0
  0
VERTEX
  8
a
  10
2.61878
  20
16.55402
  30
0.0
  70
0
  0
VERTEX
  8
a
  10
2.5168
  20
16.6991
  30
0.0
  70
0
  0
VERTEX
  8
a
  10
2.41958
  20
16.8508
  30
0.0
  70
0
  0
VERTEX
  8
a
  10
2.32704
  20
17.0087
  30
0.0
  70
0
  0
VERTEX
  8
a
  10
2.23914
  20
17.17245
  30
0.0
  70
0
  0
VERTEX
  8
a
  10
2.15585
  20
17.34177
  30
0.0
  70
0
  0
VERTEX
  8
a
  10
2.07719
  20
17.51641
  30
0.0
  70
0
  0
VERTEX
  8
a
  10
2.02126
  20
17.65074
  30
0.0
  70
0
  0
VERTEX
  8
a
  10
2.26949
  20
17.99241
  30
0.0
  70
0
  0
VERTEX
  8
a
  10
2.41454
  20
17.98072
  30
0.0
  70
0
  0
VERTEX
  8
a
  10
2.60493
  20
17.95988
  30
0.0
  70
0
  0
VERTEX
  8
a
  10
2.7917
  20
17.93299
  30
0.0
  70
0
  0
VERTEX
  8
a
  10
2.97461
  20
17.89999
  30
0.0
  70
0
  0
VERTEX
  8
a
  10
3.15337
  20
17.86077
  30
0.0
  70
0
  0
VERTEX
  8
a
  10
3.32769
  20
17.81519
  30
0.0
  70
0
  0
VERTEX
  8
a
  10
3.49718
  20
17.76303
  30
0.0
  70
0
  0
VERTEX
  8
a
  10
3.66136
  20
17.70394
  30
0.0
  70
0
  0
VERTEX
  8
a
  10
3.81959
  20
17.63739
  30
0.0
  70
0
  0
VERTEX
  8
a
  10
3.97082
  20
17.5624
  30
0.0
  70
0
  0
VERTEX
  8
a
  10
4.11296
  20
17.47679
  30
0.0
  70
0
  0
VERTEX
  8
a
  10
4.24294
  20
17.37728
  30
0.0
  70
0
  0
VERTEX
  8
a
  10
4.31041
  20
17.33032
  30
0.0
  70
0
  0
VERTEX
  8
a
  10
4.38142
  20
17.28735
  30
0.0
  70
0
  0
VERTEX
  8
a
  10
4.45688
  20
17.24934
  30
0.0
  70
0
  0
VERTEX
  8
a
  10
4.53837
  20
17.21799
  30
0.0
  70
0
  0
VERTEX
  8
a
  10
4.58229
  20
17.20579
  30
0.0
  70
0
  0
VERTEX
  8
a
  10
4.62929
  20
17.19691
  30
0.0
  70
0
  0
VERTEX
  8
a
  10
4.68088
  20
17.19297
  30
0.0
  70
0
  0
VERTEX
  8
a
  10
4.74095
  20
17.19809
  30
0.0
  70
0
  0
VERTEX
  8
a
  10
4.84936
  20
17.25438
  30
0.0
  70
0
  0
VERTEX
  8
a
  10
5.19543
  20
17.60046
  30
0.0
  70
0
  0
VERTEX
  8
a
  10
5.25173
  20
17.70886
  30
0.0
  70
0
  0
VERTEX
  8
a
  10
5.25684
  20
17.76893
  30
0.0
  70
0
  0
VERTEX
  8
a
  10
5.25291
  20
17.82053
  30
0.0
  70
0
  0
VERTEX
  8
a
  10
5.24403
  20
17.86752
  30
0.0
  70
0
  0
VERTEX
  8
a
  10
5.23182
  20
17.91144
  30
0.0
  70
0
  0
VERTEX
  8
a
  10
5.20047
  20
17.99293
  30
0.0
  70
0
  0
VERTEX
  8
a
  10
5.16246
  20
18.06839
  30
0.0
  70
0
  0
VERTEX
  8
a
  10
5.11949
  20
18.1394
  30
0.0
  70
0
  0
VERTEX
  8
a
  10
5.07254
  20
18.20688
  30
0.0
  70
0
  0
VERTEX
  8
a
  10
4.97302
  20
18.33686
  30
0.0
  70
0
  0
VERTEX
  8
a
  10
4.88742
  20
18.479
  30
0.0
  70
0
  0
VERTEX
  8
a
  10
4.81243
  20
18.63023
  30
0.0
  70
0
  0
VERTEX
  8
a
  10
4.74587
  20
18.78845
  30
0.0
  70
0
  0
VERTEX
  8
a
  10
4.68679
  20
18.95264
  30
0.0
  70
0
  0
VERTEX
  8
a
  10
4.63462
  20
19.12213
  30
0.0
  70
0
  0
VERTEX
  8
a
  10
4.58904
  20
19.29644
  30
0.0
  70
0
  0
VERTEX
  8
a
  10
4.54983
  20
19.47521
  30
0.0
  70
0
  0
VERTEX
  8
a
  10
4.51682
  20
19.65811
  30
0.0
  70
0
  0
VERTEX
  8
a
  10
4.48993
  20
19.84488
  30
0.0
  70
0
  0
VERTEX
  8
a
  10
4.46909
  20
20.03528
  30
0.0
  70
0
  0
VERTEX
  8
a
  10
4.45741
  20
20.18032
  30
0.0
  70
0
  0
VERTEX
  8
a
  10
4.79907
  20
20.42856
  30
0.0
  70
0
  0
VERTEX
  8
a
  10
4.93341
  20
20.37262
  30
0.0
  70
0
  0
VERTEX
  8
a
  10
5.10805
  20
20.29397
  30
0.0
  70
0
  0
VERTEX
  8
a
  10
5.27737
  20
20.21068
  30
0.0
  70
0
  0
VERTEX
  8
a
  10
5.44112
  20
20.12277
  30
0.0
  70
0
  0
VERTEX
  8
a
  10
5.59902
  20
20.03023
  30
0.0
  70
0
  0
VERTEX
  8
a
  10
5.75072
  20
19.93302
  30
0.0
  70
0
  0
VERTEX
  8
a
  10
5.89579
  20
19.83103
  30
0.0
  70
0
  0
VERTEX
  8
a
  10
6.03368
  20
19.7241
  30
0.0
  70
0
  0
VERTEX
  8
a
  10
6.16359
  20
19.61191
  30
0.0
  70
0
  0
VERTEX
  8
a
  10
6.28425
  20
19.49385
  30
0.0
  70
0
  0
VERTEX
  8
a
  10
6.39298
  20
19.36851
  30
0.0
  70
0
  0
VERTEX
  8
a
  10
6.48585
  20
19.2337
  30
0.0
  70
0
  0
VERTEX
  8
a
  10
6.53551
  20
19.1682
  30
0.0
  70
0
  0
VERTEX
  8
a
  10
6.58977
  20
19.10539
  30
0.0
  70
0
  0
VERTEX
  8
a
  10
6.64978
  20
19.04592
  30
0.0
  70
0
  0
VERTEX
  8
a
  10
6.7176
  20
18.99092
  30
0.0
  70
0
  0
VERTEX
  8
a
  10
6.7556
  20
18.96574
  30
0.0
  70
0
  0
VERTEX
  8
a
  10
6.79755
  20
18.94278
  30
0.0
  70
0
  0
VERTEX
  8
a
  10
6.8454
  20
18.92309
  30
0.0
  70
0
  0
VERTEX
  8
a
  10
6.90411
  20
18.90939
  30
0.0
  70
0
  0
VERTEX
  8
a
  10
7.02461
  20
18.92943
  30
0.0
  70
0
  0
VERTEX
  8
a
  10
7.46069
  20
19.15163
  30
0.0
  70
0
  0
VERTEX
  8
a
  10
7.54773
  20
19.23733
  30
0.0
  70
0
  0
VERTEX
  8
a
  10
7.57115
  20
19.29288
  30
0.0
  70
0
  0
VERTEX
  8
a
  10
7.58335
  20
19.34316
  30
0.0
  70
0
  0
VERTEX
  8
a
  10
7.58943
  20
19.3906
  30
0.0
  70
0
  0
VERTEX
  8
a
  10
7.5914
  20
19.43615
  30
0.0
  70
0
  0
VERTEX
  8
a
  10
7.58676
  20
19.52333
  30
0.0
  70
0
  0
VERTEX
  8
a
  10
7.57393
  20
19.60684
  30
0.0
  70
0
  0
VERTEX
  8
a
  10
7.55501
  20
19.68766
  30
0.0
  70
0
  0
VERTEX
  8
a
  10
7.5312
  20
19.76634
  30
0.0
  70
0
  0
VERTEX
  8
a
  10
7.47673
  20
19.92071
  30
0.0
  70
0
  0
VERTEX
  8
a
  10
7.43923
  20
20.08235
  30
0.0
  70
0
  0
VERTEX
  8
a
  10
7.41465
  20
20.24935
  30
0.0
  70
0
  0
VERTEX
  8
a
  10
7.40024
  20
20.42039
  30
0.0
  70
0
  0
VERTEX
  8
a
  10
7.39478
  20
20.5948
  30
0.0
  70
0
  0
VERTEX
  8
a
  10
7.39755
  20
20.77212
  30
0.0
  70
0
  0
VERTEX
  8
a
  10
7.40807
  20
20.95199
  30
0.0
  70
0
  0
VERTEX
  8
a
  10
7.42601
  20
21.13412
  30
0.0
  70
0
  0
VERTEX
  8
a
  10
7.45114
  20
21.31827
  30
0.0
  70
0
  0
VERTEX
  8
a
  10
7.48328
  20
21.50421
  30
0.0
  70
0
  0
VERTEX
  8
a
  10
7.5223
  20
21.69173
  30
0.0
  70
0
  0
VERTEX
  8
a
  10
7.55601
  20
21.83329
  30
0.0
  70
0
  0
VERTEX
  8
a
  10
7.95766
  20
21.96379
  30
0.0
  70
0
  0
VERTEX
  8
a
  10
8.06814
  20
21.86908
  30
0.0
  70
0
  0
VERTEX
  8
a
  10
8.20992
  20
21.74031
  30
0.0
  70
0
  0
VERTEX
  8
a
  10
8.34522
  20
21.60877
  30
0.0
  70
0
  0
VERTEX
  8
a
  10
8.47379
  20
21.47457
  30
0.0
  70
0
  0
VERTEX
  8
a
  10
8.59536
  20
21.33776
  30
0.0
  70
0
  0
VERTEX
  8
a
  10
8.7096
  20
21.19843
  30
0.0
  70
0
  0
VERTEX
  8
a
  10
8.81605
  20
21.0566
  30
0.0
  70
0
  0
VERTEX
  8
a
  10
8.91415
  20
20.91229
  30
0.0
  70
0
  0
VERTEX
  8
a
  10
9.00304
  20
20.76545
  30
0.0
  70
0
  0
VERTEX
  8
a
  10
9.08131
  20
20.61589
  30
0.0
  70
0
  0
VERTEX
  8
a
  10
9.14598
  20
20.46309
  30
0.0
  70
0
  0
VERTEX
  8
a
  10
9.19265
  20
20.30618
  30
0.0
  70
0
  0
VERTEX
  8
a
  10
9.21963
  20
20.22853
  30
0.0
  70
0
  0
VERTEX
  8
a
  10
9.25183
  20
20.15203
  30
0.0
  70
0
  0
VERTEX
  8
a
  10
9.29053
  20
20.07692
  30
0.0
  70
0
  0
VERTEX
  8
a
  10
9.33803
  20
20.00366
  30
0.0
  70
0
  0
VERTEX
  8
a
  10
9.36639
  20
19.96797
  30
0.0
  70
0
  0
VERTEX
  8
a
  10
9.39919
  20
19.93317
  30
0.0
  70
0
  0
VERTEX
  8
a
  10
9.43862
  20
19.89966
  30
0.0
  70
0
  0
VERTEX
  8
a
  10
9.49022
  20
19.86848
  30
0.0
  70
0
  0
VERTEX
  8
a
  10
9.61102
  20
19.85031
  30
0.0
  70
0
  0
VERTEX
  8
a
  10
10.09441
  20
19.92687
  30
0.0
  70
0
  0
VERTEX
  8
a
  10
10.20368
  20
19.98148
  30
0.0
  70
0
  0
VERTEX
  8
a
  10
10.24312
  20
20.02708
  30
0.0
  70
0
  0
VERTEX
  8
a
  10
10.27026
  20
20.07113
  30
0.0
  70
0
  0
VERTEX
  8
a
  10
10.2907
  20
20.11437
  30
0.0
  70
0
  0
VERTEX
  8
a
  10
10.30665
  20
20.15707
  30
0.0
  70
0
  0
VERTEX
  8
a
  10
10.32918
  20
20.24143
  30
0.0
  70
0
  0
VERTEX
  8
a
  10
10.34278
  20
20.32482
  30
0.0
  70
0
  0
VERTEX
  8
a
  10
10.34976
  20
20.40752
  30
0.0
  70
0
  0
VERTEX
  8
a
  10
10.35143
  20
20.48971
  30
0.0
  70
0
  0
VERTEX
  8
a
  10
10.34733
  20
20.65336
  30
0.0
  70
0
  0
VERTEX
  8
a
  10
10.36162
  20
20.81867
  30
0.0
  70
0
  0
VERTEX
  8
a
  10
10.38984
  20
20.9851
  30
0.0
  70
0
  0
VERTEX
  8
a
  10
10.429
  20
21.15222
  30
0.0
  70
0
  0
VERTEX
  8
a
  10
10.4777
  20
21.31978
  30
0.0
  70
0
  0
VERTEX
  8
a
  10
10.53512
  20
21.48756
  30
0.0
  70
0
  0
VERTEX
  8
a
  10
10.60071
  20
21.65538
  30
0.0
  70
0
  0
VERTEX
  8
a
  10
10.67406
  20
21.82305
  30
0.0
  70
0
  0
VERTEX
  8
a
  10
10.75486
  20
21.99042
  30
0.0
  70
0
  0
VERTEX
  8
a
  10
10.84289
  20
22.15733
  30
0.0
  70
0
  0
VERTEX
  8
a
  10
10.93794
  20
22.32361
  30
0.0
  70
0
  0
VERTEX
  8
a
  10
11.01375
  20
22.44783
  30
0.0
  70
0
  0
VERTEX
  8
a
  10
11.43607
  20
22.44783
  30
0.0
  70
0
  0
VERTEX
  8
a
  10
11.51187
  20
22.32361
  30
0.0
  70
0
  0
VERTEX
  8
a
  10
11.60692
  20
22.15733
  30
0.0
  70
0
  0
VERTEX
  8
a
  10
11.69495
  20
21.99042
  30
0.0
  70
0
  0
VERTEX
  8
a
  10
11.77576
  20
21.82305
  30
0.0
  70
0
  0
VERTEX
  8
a
  10
11.8491
  20
21.65538
  30
0.0
  70
0
  0
VERTEX
  8
a
  10
11.91469
  20
21.48756
  30
0.0
  70
0
  0
VERTEX
  8
a
  10
11.97211
  20
21.31978
  30
0.0
  70
0
  0
VERTEX
  8
a
  10
12.02082
  20
21.15222
  30
0.0
  70
0
  0
VERTEX
  8
a
  10
12.05997
  20
20.9851
  30
0.0
  70
0
  0
VERTEX
  8
a
  10
12.0882
  20
20.81867
  30
0.0
  70
0
  0
VERTEX
  8
a
  10
12.10249
  20
20.65336
  30
0.0
  70
0
  0
VERTEX
  8
a
  10
12.09838
  20
20.48971
  30
0.0
  70
0
  0
VERTEX
  8
a
  10
12.10005
  20
20.40752
  30
0.0
  70
0
  0
VERTEX
  8
a
  10
12.10703
  20
20.32482
  30
0.0
  70
0
  0
VERTEX
  8
a
  10
12.12063
  20
20.24143
  30
0.0
  70
0
  0
VERTEX
  8
a
  10
12.14317
  20
20.15707
  30
0.0
  70
0
  0
VERTEX
  8
a
  10
12.15911
  20
20.11437
  30
0.0
  70
0
  0
VERTEX
  8
a
  10
12.17955
  20
20.07113
  30
0.0
  70
0
  0
VERTEX
  8
a
  10
12.20669
  20
20.02708
  30
0.0
  70
0
  0
VERTEX
  8
a
  10
12.24614
  20
19.98148
  30
0.0
  70
0
  0
VERTEX
  8
a
  10
12.3554
  20
19.92687
  30
0.0
  70
0
  0
VERTEX
  8
a
  10
12.8388
  20
19.85031
  30
0.0
  70
0
  0
VERTEX
  8
a
  10
12.95959
  20
19.86848
  30
0.0
  70
0
  0
VERTEX
  8
a
  10
13.01119
  20
19.89966
  30
0.0
  70
0
  0
VERTEX
  8
a
  10
13.05062
  20
19.93317
  30
0.0
  70
0
  0
VERTEX
  8
a
  10
13.08342
  20
19.96797
  30
0.0
  70
0
  0
VERTEX
  8
a
  10
13.11178
  20
20.00366
  30
0.0
  70
0
  0
VERTEX
  8
a
  10
13.15928
  20
20.07692
  30
0.0
  70
0
  0
VERTEX
  8
a
  10
13.19799
  20
20.15203
  30
0.0
  70
0
  0
VERTEX
  8
a
  10
13.23018
  20
20.22853
  30
0.0
  70
0
  0
VERTEX
  8
a
  10
13.25717
  20
20.30618
  30
0.0
  70
0
  0
VERTEX
  8
a
  10
13.30383
  20
20.46309
  30
0.0
  70
0
  0
VERTEX
  8
a
  10
13.36851
  20
20.61589
  30
0.0
  70
0
  0
VERTEX
  8
a
  10
13.44678
  20
20.76545
  30
0.0
  70
0
  0
VERTEX
  8
a
  10
13.53566
  20
20.91229
  30
0.0
  70
0
  0
VERTEX
  8
a
  10
13.63376
  20
21.0566
  30
0.0
  70
0
  0
VERTEX
  8
a
  10
13.74022
  20
21.19843
  30
0.0
  70
0
  0
VERTEX
  8
a
  10
13.85445
  20
21.33776
  30
0.0
  70
0
  0
VERTEX
  8
a
  10
13.97603
  20
21.47457
  30
0.0
  70
0
  0
VERTEX
  8
a
  10
14.1046
  20
21.60877
  30
0.0
  70
0
  0
VERTEX
  8
a
  10
14.23989
  20
21.74031
  30
0.0
  70
0
  0
VERTEX
  8
a
  10
14.38168
  20
21.86908
  30
0.0
  70
0
  0
VERTEX
  8
a
  10
14.49216
  20
21.96379
  30
0.0
  70
0
  0
VERTEX
  8
a
  10
14.89381
  20
21.83329
  30
0.0
  70
0
  0
VERTEX
  8
a
  10
14.92751
  20
21.69173
  30
0.0
  70
0
  0
VERTEX
  8
a
  10
14.96653
  20
21.50421
  30
0.0
  70
0
  0
VERTEX
  8
a
  10
14.99867
  20
21.31827
  30
0.0
  70
0
  0
VERTEX
  8
a
  10
15.0238
  20
21.13412
  30
0.0
  70
0
  0
VERTEX
  8
a
  10
15.04175
  20
20.95199
  30
0.0
  70
0
  0
VERTEX
  8
a
  10
15.05227
  20
20.77212
  30
0.0
  70
0
  0
VERTEX
  8
a
  10
15.05503
  20
20.5948
  30
0.0
  70
0
  0
VERTEX
  8
a
  10
15.04957
  20
20.42039
  30
0.0
  70
0
  0
VERTEX
  8
a
  10
15.03517
  20
20.24935
  30
0.0
  70
0
  0
VERTEX
  8
a
  10
15.01058
  20
20.08235
  30
0.0
  70
0
  0
VERTEX
  8
a
  10
14.97309
  20
19.92071
  30
0.0
  70
0
  0
VERTEX
  8
a
  10
14.91861
  20
19.76634
  30
0.0
  70
0
  0
VERTEX
  8
a
  10
14.8948
  20
19.68766
  30
0.0
  70
0
  0
VERTEX
  8
a
  10
14.87588
  20
19.60684
  30
0.0
  70
0
  0
VERTEX
  8
a
  10
14.86305
  20
19.52333
  30
0.0
  70
0
  0
VERTEX
  8
a
  10
14.85842
  20
19.43615
  30
0.0
  70
0
  0
VERTEX
  8
a
  10
14.86038
  20
19.3906
  30
0.0
  70
0
  0
VERTEX
  8
a
  10
14.86646
  20
19.34316
  30
0.0
  70
0
  0
VERTEX
  8
a
  10
14.87866
  20
19.29288
  30
0.0
  70
0
  0
VERTEX
  8
a
  10
14.90209
  20
19.23733
  30
0.0
  70
0
  0
VERTEX
  8
a
  10
14.98913
  20
19.15163
  30
0.0
  70
0
  0
VERTEX
  8
a
  10
15.42521
  20
18.92943
  30
0.0
  70
0
  0
VERTEX
  8
a
  10
15.5457
  20
18.90939
  30
0.0
  70
0
  0
VERTEX
  8
a
  10
15.60441
  20
18.92309
  30
0.0
  70
0
  0
VERTEX
  8
a
  10
15.65226
  20
18.94278
  30
0.0
  70
0
  0
VERTEX
  8
a
  10
15.69421
  20
18.96574
  30
0.0
  70
0
  0
VERTEX
  8
a
  10
15.73222
  20
18.99092
  30
0.0
  70
0
  0
VERTEX
  8
a
  10
15.80003
  20
19.04592
  30
0.0
  70
0
  0
VERTEX
  8
a
  10
15.86005
  20
19.10539
  30
0.0
  70
0
  0
VERTEX
  8
a
  10
15.91431
  20
19.1682
  30
0.0
  70
0
  0
VERTEX
  8
a
  10
15.96397
  20
19.2337
  30
0.0
  70
0
  0
VERTEX
  8
a
  10
16.05684
  20
19.36851
  30
0.0
  70
0
  0
VERTEX
  8
a
  10
16.16556
  20
19.49385
  30
0.0
  70
0
  0
VERTEX
  8
a
  10
16.28622
  20
19.61191
  30
0.0
  70
0
  0
VERTEX
  8
a
  10
16.41613
  20
19.7241
  30
0.0
  70
0
  0
VERTEX
  8
a
  10
16.55402
  20
19.83103
  30
0.0
  70
0
  0
VERTEX
  8
a
  10
16.6991
  20
19.93302
  30
0.0
  70
0
  0
VERTEX
  8
a
  10
16.8508
  20
20.03023
  30
0.0
  70
0
  0
VERTEX
  8
a
  10
17.0087
  20
20.12277
  30
0.0
  70
0
  0
VERTEX
  8
a
  10
17.17245
  20
20.21068
  30
0.0
  70
0
  0
VERTEX
  8
a
  10
17.34177
  20
20.29397
  30
0.0
  70
0
  0
VERTEX
  8
a
  10
17.51641
  20
20.37262
  30
0.0
  70
0
  0
VERTEX
  8
a
  10
17.65074
  20
20.42856
  30
0.0
  70
0
  0
VERTEX
  8
a
  10
17.99241
  20
20.18032
  30
0.0
  70
0
  0
VERTEX
  8
a
  10
17.98072
  20
20.03528
  30
0.0
  70
0
  0
VERTEX
  8
a
  10
17.95988
  20
19.84488
  30
0.0
  70
0
  0
VERTEX
  8
a
  10
17.93299
  20
19.65811
  30
0.0
  70
0
  0
VERTEX
  8
a
  10
17.89999
  20
19.47521
  30
0.0
  70
0
  0
VERTEX
  8
a
  10
17.86077
  20
19.29644
  30
0.0
  70
0
  0
VERTEX
  8
a
  10
17.81519
  20
19.12213
  30
0.0
  70
0
  0
VERTEX
  8
a
  10
17.76303
  20
18.95264
  30
0.0
  70
0
  0
VERTEX
  8
a
  10
17.70394
  20
18.78845
  30
0.0
  70
0
  0
VERTEX
  8
a
  10
17.63739
  20
18.63023
  30
0.0
  70
0
  0
VERTEX
  8
a
  10
17.5624
  20
18.479
  30
0.0
  70
0
  0
VERTEX
  8
a
  10
17.47679
  20
18.33686
  30
0.0
  70
0
  0
VERTEX
  8
a
  10
17.37728
  20
18.20688
  30
0.0
  70
0
  0
VERTEX
  8
a
  10
17.33032
  20
18.1394
  30
0.0
  70
0
  0
VERTEX
  8
a
  10
17.28735
  20
18.06839
  30
0.0
  70
0
  0
VERTEX
  8
a
  10
17.24934
  20
17.99293
  30
0.0
  70
0
  0
VERTEX
  8
a
  10
17.21799
  20
17.91144
  30
0.0
  70
0
  0
VERTEX
  8
a
  10
17.20579
  20
17.86752
  30
0.0
  70
0
  0
VERTEX
  8
a
  10
17.19691
  20
17.82053
  30
0.0
  70
0
  0
VERTEX
  8
a
  10
17.19297
  20
17.76893
  30
0.0
  70
0
  0
VERTEX
  8
a
  10
17.19809
  20
17.70886
  30
0.0
  70
0
  0
VERTEX
  8
a
  10
17.25438
  20
17.60046
  30
0.0
  70
0
  0
VERTEX
  8
a
  10
17.60046
  20
17.25438
  30
0.0
  70
0
  0
VERTEX
  8
a
  10
17.70886
  20
17.19809
  30
0.0
  70
0
  0
VERTEX
  8
a
  10
17.76893
  20
17.19297
  30
0.0
  70
0
  0
VERTEX
  8
a
  10
17.82053
  20
17.19691
  30
0.0
  70
0
  0
VERTEX
  8
a
  10
17.86752
  20
17.20579
  30
0.0
  70
0
  0
VERTEX
  8
a
  10
17.91144
  20
17.21799
  30
0.0
  70
0
  0
VERTEX
  8
a
  10
17.99293
  20
17.24934
  30
0.0
  70
0
  0
VERTEX
  8
a
  10
18.06839
  20
17.28735
  30
0.0
  70
0
  0
VERTEX
  8
a
  10
18.1394
  20
17.33032
  30
0.0
  70
0
  0
VERTEX
  8
a
  10
18.20688
  20
17.37728
  30
0.0
  70
0
  0
VERTEX
  8
a
  10
18.33686
  20
17.47679
  30
0.0
  70
0
  0
VERTEX
  8
a
  10
18.479
  20
17.5624
  30
0.0
  70
0
  0
VERTEX
  8
a
  10
18.63023
  20
17.63739
  30
0.0
  70
0
  0
VERTEX
  8
a
  10
18.78845
  20
17.70394
  30
0.0
  70
0
  0
VERTEX
  8
a
  10
18.95264
  20
17.76303
  30
0.0
  70
0
  0
VERTEX
  8
a
  10
19.12213
  20
17.81519
  30
0.0
  70
0
  0
VERTEX
  8
a
  10
19.29644
  20
17.86077
  30
0.0
  70
0
  0
VERTEX
  8
a
  10
19.47521
  20
17.89999
  30
0.0
  70
0
  0
VERTEX
  8
a
  10
19.65811
  20
17.93299
  30
0.0
  70
0
  0
VERTEX
  8
a
  10
19.84488
  20
17.95988
  30
0.0
  70
0
  0
VERTEX
  8
a
  10
20.03528
  20
17.98072
  30
0.0
  70
0
  0
VERTEX
  8
a
  10
20.18032
  20
17.99241
  30
0.0
  70
0
  0
VERTEX
  8
a
  10
20.42856
  20
17.65074
  30
0.0
  70
0
  0
VERTEX
  8
a
  10
20.37262
  20
17.51641
  30
0.0
  70
0
  0
VERTEX
  8
a
  10
20.29397
  20
17.34177
  30
0.0
  70
0
  0
VERTEX
  8
a
  10
20.21068
  20
17.17245
  30
0.0
  70
0
  0
VERTEX
  8
a
  10
20.12277
  20
17.0087
  30
0.0
  70
0
  0
VERTEX
  8
a
  10
20.03023
  20
16.8508
  30
0.0
  70
0
  0
VERTEX
  8
a
  10
19.93302
  20
16.6991
  30
0.0
  70
0
  0
VERTEX
  8
a
  10
19.83103
  20
16.55402
  30
0.0
  70
0
  0
VERTEX
  8
a
  10
19.7241
  20
16.41613
  30
0.0
  70
0
  0
VERTEX
  8
a
  10
19.61191
  20
16.28622
  30
0.0
  70
0
  0
VERTEX
  8
a
  10
19.49385
  20
16.16556
  30
0.0
  70
0
  0
VERTEX
  8
a
  10
19.36851
  20
16.05684
  30
0.0
  70
0
  0
VERTEX
  8
a
  10
19.2337
  20
15.96397
  30
0.0
  70
0
  0
VERTEX
  8
a
  10
19.1682
  20
15.91431
  30
0.0
  70
0
  0
VERTEX
  8
a
  10
19.10539
  20
15.86005
  30
0.0
  70
0
  0
VERTEX
  8
a
  10
19.04592
  20
15.80003
  30
0.0
  70
0
  0
VERTEX
  8
a
  10
18.99092
  20
15.73222
  30
0.0
  70
0
  0
VERTEX
  8
a
  10
18.96574
  20
15.69421
  30
0.0
  70
0
  0
VERTEX
  8
a
  10
18.94278
  20
15.65226
  30
0.0
  70
0
  0
VERTEX
  8
a
  10
18.92309
  20
15.60441
  30
0.0
  70
0
  0
VERTEX
  8
a
  10
18.90939
  20
15.5457
  30
0.0
  70
0
  0
VERTEX
  8
a
  10
18.92943
  20
15.42521
  30
0.0
  70
0
  0
VERTEX
  8
a
  10
19.15163
  20
14.98913
  30
0.0
  70
0
  0
VERTEX
  8
a
  10
19.23733
  20
14.90209
  30
0.0
  70
0
  0
VERTEX
  8
a
  10
19.29288
  20
14.87866
  30
0.0
  70
0
  0
VERTEX
  8
a
  10
19.34316
  20
14.86646
  30
0.0
  70
0
  0
VERTEX
  8
a
  10
19.3906
  20
14.86038
  30
0.0
  70
0
  0
VERTEX
  8
a
  10
19.43615
  20
14.85842
  30
0.0
  70
0
  0
VERTEX
  8
a
  10
19.52333
  20
14.86305
  30
0.0
  70
0
  0
VERTEX
  8
a
  10
19.60684
  20
14.87588
  30
0.0
  70
0
  0
VERTEX
  8
a
  10
19.68766
  20
14.8948
  30
0.0
  70
0
  0
VERTEX
  8
a
  10
19.76634
  20
14.91861
  30
0.0
  70
0
  0
VERTEX
  8
a
  10
19.92071
  20
14.97309
  30
0.0
  70
0
  0
VERTEX
  8
a
  10
20.08235
  20
15.01058
  30
0.0
  70
0
  0
VERTEX
  8
a
  10
20.24935
  20
15.03517
  30
0.0
  70
0
  0
VERTEX
  8
a
  10
20.42039
  20
15.04957
  30
0.0
  70
0
  0
VERTEX
  8
a
  10
20.5948
  20
15.05503
  30
0.0
  70
0
  0
VERTEX
  8
a
  10
20.77212
  20
15.05227
  30
0.0
  70
0
  0
VERTEX
  8
a
  10
20.95199
  20
15.04175
  30
0.0
  70
0
  0
VERTEX
  8
a
  10
21.13412
  20
15.0238
  30
0.0
  70
0
  0
VERTEX
  8
a
  10
21.31827
  20
14.99867
  30
0.0
  70
0
  0
VERTEX
  8
a
  10
21.50421
  20
14.96653
  30
0.0
  70
0
  0
VERTEX
  8
a
  10
21.69173
  20
14.92751
  30
0.0
  70
0
  0
VERTEX
  8
a
  10
21.83329
  20
14.89381
  30
0.0
  70
0
  0
VERTEX
  8
a
  10
21.96379
  20
14.49216
  30
0.0
  70
0
  0
VERTEX
  8
a
  10
21.86908
  20
14.38168
  30
0.0
  70
0
  0
VERTEX
  8
a
  10
21.74031
  20
14.23989
  30
0.0
  70
0
  0
VERTEX
  8
a
  10
21.60877
  20
14.1046
  30
0.0
  70
0
  0
VERTEX
  8
a
  10
21.47457
  20
13.97603
  30
0.0
  70
0
  0
VERTEX
  8
a
  10
21.33776
  20
13.85445
  30
0.0
  70
0
  0
VERTEX
  8
a
  10
21.19843
  20
13.74022
  30
0.0
  70
0
  0
VERTEX
  8
a
  10
21.0566
  20
13.63376
  30
0.0
  70
0
  0
VERTEX
  8
a
  10
20.91229
  20
13.53566
  30
0.0
  70
0
  0
VERTEX
  8
a
  10
20.76545
  20
13.44678
  30
0.0
  70
0
  0
VERTEX
  8
a
  10
20.61589
  20
13.36851
  30
0.0
  70
0
  0
VERTEX
  8
a
  10
20.46309
  20
13.30383
  30
0.0
  70
0
  0
VERTEX
  8
a
  10
20.30618
  20
13.25717
  30
0.0
  70
0
  0
VERTEX
  8
a
  10
20.22853
  20
13.23018
  30
0.0
  70
0
  0
VERTEX
  8
a
  10
20.15203
  20
13.19799
  30
0.0
  70
0
  0
VERTEX
  8
a
  10
20.07692
  20
13.15928
  30
0.0
  70
0
  0
VERTEX
  8
a
  10
20.00366
  20
13.11178
  30
0.0
  70
0
  0
VERTEX
  8
a
  10
19.96797
  20
13.08342
  30
0.0
  70
0
  0
VERTEX
  8
a
  10
19.93317
  20
13.05062
  30
0.0
  70
0
  0
VERTEX
  8
a
  10
19.89966
  20
13.01119
  30
0.0
  70
0
  0
VERTEX
  8
a
  10
19.86848
  20
12.95959
  30
0.0
  70
0
  0
VERTEX
  8
a
  10
19.85031
  20
12.8388
  30
0.0
  70
0
  0
SEQEND
  0
CIRCLE
  8
a
  10
11.22491
  20
11.22491
  30
0.0
  40
0.5
 0
LINE
 8
c
 10
19.89196
 20
9.85218
 30
0
 11
22.31162
 21
9.46894
 31
 0
 0
LINE
 8
c
 10
19.04357
 20
7.2411
 30
0
 11
21.22637
 21
6.12891
 31
 0
 0
LINE
 8
c
 10
17.42983
 20
5.01998
 30
0
 11
19.16211
 21
3.2877
 31
 0
 0
LINE
 8
c
 10
15.20872
 20
3.40624
 30
0
 11
16.32091
 21
1.22344
 31
 0
 0
LINE
 8
c
 10
12.59763
 20
2.55785
 30
0
 11
12.98087
 21
0.1382
 31
 0
 0
LINE
 8
c
 10
9.85218
 20
2.55785
 30
0
 11
9.46894
 21
0.1382
 31
 0
 0
LINE
 8
c
 10
7.2411
 20
3.40624
 30
0
 11
6.12891
 21
1.22344
 31
 0
 0
LINE
 8
c
 10
5.01998
 20
5.01998
 30
0
 11
3.2877
 21
3.2877
 31
 0
 0
LINE
 8
c
 10
3.40624
 20
7.2411
 30
0
 11
1.22344
 21
6.12891
 31
 0
 0
LINE
 8
c
 10
2.55785
 20
9.85218
 30
0
 11
0.1382
 21
9.46894
 31
 0
 0
LINE
 8
c
 10
2.55785
 20
12.59763
 30
0
 11
0.1382
 21
12.98087
 31
 0
 0
LINE
 8
c
 10
3.40624
 20
15.20872
 30
0
 11
1.22344
 21
16.32091
 31
 0
 0
LINE
 8
c
 10
5.01998
 20
17.42983
 30
0
 11
3.2877
 21
19.16211
 31
 0
 0
LINE
 8
c
 10
7.2411
 20
19.04357
 30
0
 11
6.12891
 21
21.22637
 31
 0
 0
LINE
 8
c
 10
9.85218
 20
19.89196
 30
0
 11
9.46894
 21
22.31162
 31
 0
 0
LINE
 8
c
 10
12.59763
 20
19.89196
 30
0
 11
12.98087
 21
22.31162
 31
 0
 0
LINE
 8
c
 10
15.20872
 20
19.04357
 30
0
 11
16.32091
 21
21.22637
 31
 0
 0
LINE
 8
c
 10
17.42983
 20
17.42983
 30
0
 11
19.16211
 21
19.16211
 31
 0
 0
LINE
 8
c
 10
19.04357
 20
15.20872
 30
0
 11
21.22637
 21
16.32091
 31
 0
 0
LINE
 8
c
 10
19.89196
 20
12.59763
 30
0
 11
22.31162
 21
12.98087
 31
 0
  0
CIRCLE
  8
c
  10
11.22491
  20
11.22491
  30
0.0
  40
10
 0
LINE
 8
a
 10
7.48327
 20
11.22491
 30
0
 11
14.96654
 21
11.22491
 31
 0
 0
LINE
 8
a
 10
11.22491
 20
7.48327
 30
0
 11
11.22491
 21
14.96654
 31
 0
  0
TEXT
  8
labels
  10
0.0
  20
0.0
  30
0.0
  40
0.1
  1
G1:Toothspacing=3.14  Teeth=20  Spur gear  Angle=20.0  Addendum=.4
  41
1.0
  7
ARIAL
  0
ENDSEC
  0
EOF
