  999
DXF file created by gear template generator. 2018-12-28T18:12:40
  999
G1:Toothspacing=3.14  Teeth=20  Spur gear  Angle=20.0  Addendum=.2
  0
SECTION
  2
HEADER
  9
$MEASUREMENT
  70
1
  0
ENDSEC
  0
SECTION
  2
TABLES
  0
TABLE
  2
LTYPE
  70
1
  0
LTYPE
  2
Continuous
  3
_
  70
0
  72
65
  73
0
  40
0.0
  0
ENDTAB
  0
TABLE
  2
LAYER
  70
4
  0
LAYER
  2
profile
  70
0
  62
7
  6
Continuous
  0
LAYER
  2
construction
  70
0
  62
5
  6
Continuous
  0
LAYER
  2
grid
  70
0
  62
3
  6
Continuous
  0
LAYER
  2
labels
  70
0
  62
1
  6
Continuous
  0
ENDTAB
  0
TABLE
  2
STYLE
  70
1
  0
STYLE
  2
ARIAL
  3
Arial.ttf
  70
0
  40
0.0
  41
1.0
  50
0.0
  71
0
  42
1.0
  0
ENDTAB
  0
ENDSEC
  0
SECTION
  2
ENTITIES
 0
LINE
 8
b
 10
0.75367
 20
0
 30
0
 11
0.75367
 21
21.50734
 31
 0
 0
LINE
 8
b
 10
1.75367
 20
0
 30
0
 11
1.75367
 21
21.50734
 31
 0
 0
LINE
 8
b
 10
2.75367
 20
0
 30
0
 11
2.75367
 21
21.50734
 31
 0
 0
LINE
 8
b
 10
3.75367
 20
0
 30
0
 11
3.75367
 21
21.50734
 31
 0
 0
LINE
 8
b
 10
4.75367
 20
0
 30
0
 11
4.75367
 21
21.50734
 31
 0
 0
LINE
 8
b
 10
5.75367
 20
0
 30
0
 11
5.75367
 21
21.50734
 31
 0
 0
LINE
 8
b
 10
6.75367
 20
0
 30
0
 11
6.75367
 21
21.50734
 31
 0
 0
LINE
 8
b
 10
7.75367
 20
0
 30
0
 11
7.75367
 21
21.50734
 31
 0
 0
LINE
 8
b
 10
8.75367
 20
0
 30
0
 11
8.75367
 21
21.50734
 31
 0
 0
LINE
 8
b
 10
9.75367
 20
0
 30
0
 11
9.75367
 21
21.50734
 31
 0
 0
LINE
 8
b
 10
10.75367
 20
0
 30
0
 11
10.75367
 21
21.50734
 31
 0
 0
LINE
 8
b
 10
11.75367
 20
0
 30
0
 11
11.75367
 21
21.50734
 31
 0
 0
LINE
 8
b
 10
12.75367
 20
0
 30
0
 11
12.75367
 21
21.50734
 31
 0
 0
LINE
 8
b
 10
13.75367
 20
0
 30
0
 11
13.75367
 21
21.50734
 31
 0
 0
LINE
 8
b
 10
14.75367
 20
0
 30
0
 11
14.75367
 21
21.50734
 31
 0
 0
LINE
 8
b
 10
15.75367
 20
0
 30
0
 11
15.75367
 21
21.50734
 31
 0
 0
LINE
 8
b
 10
16.75367
 20
0
 30
0
 11
16.75367
 21
21.50734
 31
 0
 0
LINE
 8
b
 10
17.75367
 20
0
 30
0
 11
17.75367
 21
21.50734
 31
 0
 0
LINE
 8
b
 10
18.75367
 20
0
 30
0
 11
18.75367
 21
21.50734
 31
 0
 0
LINE
 8
b
 10
19.75367
 20
0
 30
0
 11
19.75367
 21
21.50734
 31
 0
 0
LINE
 8
b
 10
20.75367
 20
0
 30
0
 11
20.75367
 21
21.50734
 31
 0
 0
LINE
 8
b
 10
0
 20
0.75367
 30
0
 11
21.50734
 21
0.75367
 31
 0
 0
LINE
 8
b
 10
0
 20
1.75367
 30
0
 11
21.50734
 21
1.75367
 31
 0
 0
LINE
 8
b
 10
0
 20
2.75367
 30
0
 11
21.50734
 21
2.75367
 31
 0
 0
LINE
 8
b
 10
0
 20
3.75367
 30
0
 11
21.50734
 21
3.75367
 31
 0
 0
LINE
 8
b
 10
0
 20
4.75367
 30
0
 11
21.50734
 21
4.75367
 31
 0
 0
LINE
 8
b
 10
0
 20
5.75367
 30
0
 11
21.50734
 21
5.75367
 31
 0
 0
LINE
 8
b
 10
0
 20
6.75367
 30
0
 11
21.50734
 21
6.75367
 31
 0
 0
LINE
 8
b
 10
0
 20
7.75367
 30
0
 11
21.50734
 21
7.75367
 31
 0
 0
LINE
 8
b
 10
0
 20
8.75367
 30
0
 11
21.50734
 21
8.75367
 31
 0
 0
LINE
 8
b
 10
0
 20
9.75367
 30
0
 11
21.50734
 21
9.75367
 31
 0
 0
LINE
 8
b
 10
0
 20
10.75367
 30
0
 11
21.50734
 21
10.75367
 31
 0
 0
LINE
 8
b
 10
0
 20
11.75367
 30
0
 11
21.50734
 21
11.75367
 31
 0
 0
LINE
 8
b
 10
0
 20
12.75367
 30
0
 11
21.50734
 21
12.75367
 31
 0
 0
LINE
 8
b
 10
0
 20
13.75367
 30
0
 11
21.50734
 21
13.75367
 31
 0
 0
LINE
 8
b
 10
0
 20
14.75367
 30
0
 11
21.50734
 21
14.75367
 31
 0
 0
LINE
 8
b
 10
0
 20
15.75367
 30
0
 11
21.50734
 21
15.75367
 31
 0
 0
LINE
 8
b
 10
0
 20
16.75367
 30
0
 11
21.50734
 21
16.75367
 31
 0
 0
LINE
 8
b
 10
0
 20
17.75367
 30
0
 11
21.50734
 21
17.75367
 31
 0
 0
LINE
 8
b
 10
0
 20
18.75367
 30
0
 11
21.50734
 21
18.75367
 31
 0
 0
LINE
 8
b
 10
0
 20
19.75367
 30
0
 11
21.50734
 21
19.75367
 31
 0
 0
LINE
 8
b
 10
0
 20
20.75367
 30
0
 11
21.50734
 21
20.75367
 31
 0
  0
POLYLINE
  8
a
  66
1
  10
0.0
  20
0.0
  70
1
  0
VERTEX
  8
a
  10
19.93419
  20
9.65246
  30
0.0
  70
0
  0
VERTEX
  8
a
  10
19.89596
  20
9.13765
  30
0.0
  70
0
  0
VERTEX
  8
a
  10
19.92824
  20
9.10402
  30
0.0
  70
0
  0
VERTEX
  8
a
  10
19.96194
  20
9.07861
  30
0.0
  70
0
  0
VERTEX
  8
a
  10
20.03044
  20
9.03435
  30
0.0
  70
0
  0
VERTEX
  8
a
  10
20.10281
  20
9.01127
  30
0.0
  70
0
  0
VERTEX
  8
a
  10
20.1744
  20
8.98412
  30
0.0
  70
0
  0
VERTEX
  8
a
  10
20.31581
  20
8.92081
  30
0.0
  70
0
  0
VERTEX
  8
a
  10
20.45517
  20
8.84772
  30
0.0
  70
0
  0
VERTEX
  8
a
  10
20.59264
  20
8.76627
  30
0.0
  70
0
  0
VERTEX
  8
a
  10
20.72826
  20
8.67728
  30
0.0
  70
0
  0
VERTEX
  8
a
  10
20.86203
  20
8.58132
  30
0.0
  70
0
  0
VERTEX
  8
a
  10
20.99391
  20
8.4788
  30
0.0
  70
0
  0
VERTEX
  8
a
  10
21.12387
  20
8.37003
  30
0.0
  70
0
  0
VERTEX
  8
a
  10
21.22002
  20
8.2845
  30
0.0
  70
0
  0
VERTEX
  8
a
  10
20.95722
  20
7.35825
  30
0.0
  70
0
  0
VERTEX
  8
a
  10
20.83048
  20
7.33597
  30
0.0
  70
0
  0
VERTEX
  8
a
  10
20.66276
  20
7.31165
  30
0.0
  70
0
  0
VERTEX
  8
a
  10
20.49669
  20
7.29367
  30
0.0
  70
0
  0
VERTEX
  8
a
  10
20.33246
  20
7.28226
  30
0.0
  70
0
  0
VERTEX
  8
a
  10
20.17031
  20
7.27776
  30
0.0
  70
0
  0
VERTEX
  8
a
  10
20.01055
  20
7.28064
  30
0.0
  70
0
  0
VERTEX
  8
a
  10
19.85357
  20
7.29163
  30
0.0
  70
0
  0
VERTEX
  8
a
  10
19.69998
  20
7.31201
  30
0.0
  70
0
  0
VERTEX
  8
a
  10
19.62479
  20
7.32651
  30
0.0
  70
0
  0
VERTEX
  8
a
  10
19.55109
  20
7.34487
  30
0.0
  70
0
  0
VERTEX
  8
a
  10
19.46955
  20
7.34318
  30
0.0
  70
0
  0
VERTEX
  8
a
  10
19.42753
  20
7.33926
  30
0.0
  70
0
  0
VERTEX
  8
a
  10
19.38239
  20
7.32759
  30
0.0
  70
0
  0
VERTEX
  8
a
  10
19.14457
  20
6.86942
  30
0.0
  70
0
  0
VERTEX
  8
a
  10
19.14457
  20
6.86942
  30
0.0
  70
0
  0
VERTEX
  8
a
  10
18.94913
  20
6.39162
  30
0.0
  70
0
  0
VERTEX
  8
a
  10
18.96943
  20
6.34966
  30
0.0
  70
0
  0
VERTEX
  8
a
  10
18.99363
  20
6.31508
  30
0.0
  70
0
  0
VERTEX
  8
a
  10
19.0451
  20
6.25182
  30
0.0
  70
0
  0
VERTEX
  8
a
  10
19.1068
  20
6.20751
  30
0.0
  70
0
  0
VERTEX
  8
a
  10
19.1665
  20
6.15956
  30
0.0
  70
0
  0
VERTEX
  8
a
  10
19.28142
  20
6.05565
  30
0.0
  70
0
  0
VERTEX
  8
a
  10
19.39137
  20
5.94307
  30
0.0
  70
0
  0
VERTEX
  8
a
  10
19.49694
  20
5.82313
  30
0.0
  70
0
  0
VERTEX
  8
a
  10
19.59843
  20
5.69659
  30
0.0
  70
0
  0
VERTEX
  8
a
  10
19.696
  20
5.56399
  30
0.0
  70
0
  0
VERTEX
  8
a
  10
19.78975
  20
5.42573
  30
0.0
  70
0
  0
VERTEX
  8
a
  10
19.87973
  20
5.28213
  30
0.0
  70
0
  0
VERTEX
  8
a
  10
19.94475
  20
5.17107
  30
0.0
  70
0
  0
VERTEX
  8
a
  10
19.40858
  20
4.37136
  30
0.0
  70
0
  0
VERTEX
  8
a
  10
19.28115
  20
4.38934
  30
0.0
  70
0
  0
VERTEX
  8
a
  10
19.11414
  20
4.41804
  30
0.0
  70
0
  0
VERTEX
  8
a
  10
18.95063
  20
4.45225
  30
0.0
  70
0
  0
VERTEX
  8
a
  10
18.79091
  20
4.49216
  30
0.0
  70
0
  0
VERTEX
  8
a
  10
18.63531
  20
4.53798
  30
0.0
  70
0
  0
VERTEX
  8
a
  10
18.48426
  20
4.59009
  30
0.0
  70
0
  0
VERTEX
  8
a
  10
18.33836
  20
4.64905
  30
0.0
  70
0
  0
VERTEX
  8
a
  10
18.19859
  20
4.7159
  30
0.0
  70
0
  0
VERTEX
  8
a
  10
18.13156
  20
4.75292
  30
0.0
  70
0
  0
VERTEX
  8
a
  10
18.06714
  20
4.79316
  30
0.0
  70
0
  0
VERTEX
  8
a
  10
17.98907
  20
4.81675
  30
0.0
  70
0
  0
VERTEX
  8
a
  10
17.94789
  20
4.826
  30
0.0
  70
0
  0
VERTEX
  8
a
  10
17.90136
  20
4.82885
  30
0.0
  70
0
  0
VERTEX
  8
a
  10
17.53359
  20
4.46659
  30
0.0
  70
0
  0
VERTEX
  8
a
  10
17.53359
  20
4.46659
  30
0.0
  70
0
  0
VERTEX
  8
a
  10
17.20007
  20
4.07258
  30
0.0
  70
0
  0
VERTEX
  8
a
  10
17.20641
  20
4.0264
  30
0.0
  70
0
  0
VERTEX
  8
a
  10
17.21874
  20
3.98603
  30
0.0
  70
0
  0
VERTEX
  8
a
  10
17.24814
  20
3.90996
  30
0.0
  70
0
  0
VERTEX
  8
a
  10
17.29313
  20
3.84876
  30
0.0
  70
0
  0
VERTEX
  8
a
  10
17.33509
  20
3.78471
  30
0.0
  70
0
  0
VERTEX
  8
a
  10
17.41227
  20
3.65037
  30
0.0
  70
0
  0
VERTEX
  8
a
  10
17.48206
  20
3.50932
  30
0.0
  70
0
  0
VERTEX
  8
a
  10
17.5454
  20
3.36262
  30
0.0
  70
0
  0
VERTEX
  8
a
  10
17.60281
  20
3.21092
  30
0.0
  70
0
  0
VERTEX
  8
a
  10
17.65463
  20
3.05466
  30
0.0
  70
0
  0
VERTEX
  8
a
  10
17.70107
  20
2.8942
  30
0.0
  70
0
  0
VERTEX
  8
a
  10
17.74227
  20
2.72981
  30
0.0
  70
0
  0
VERTEX
  8
a
  10
17.76979
  20
2.6041
  30
0.0
  70
0
  0
VERTEX
  8
a
  10
17.01274
  20
2.00922
  30
0.0
  70
0
  0
VERTEX
  8
a
  10
16.8971
  20
2.06569
  30
0.0
  70
0
  0
VERTEX
  8
a
  10
16.74713
  20
2.1446
  30
0.0
  70
0
  0
VERTEX
  8
a
  10
16.6022
  20
2.22767
  30
0.0
  70
0
  0
VERTEX
  8
a
  10
16.46263
  20
2.31497
  30
0.0
  70
0
  0
VERTEX
  8
a
  10
16.3288
  20
2.40664
  30
0.0
  70
0
  0
VERTEX
  8
a
  10
16.20125
  20
2.50287
  30
0.0
  70
0
  0
VERTEX
  8
a
  10
16.08071
  20
2.60403
  30
0.0
  70
0
  0
VERTEX
  8
a
  10
15.96843
  20
2.7108
  30
0.0
  70
0
  0
VERTEX
  8
a
  10
15.91612
  20
2.76672
  30
0.0
  70
0
  0
VERTEX
  8
a
  10
15.86729
  20
2.8249
  30
0.0
  70
0
  0
VERTEX
  8
a
  10
15.80033
  20
2.87146
  30
0.0
  70
0
  0
VERTEX
  8
a
  10
15.76403
  20
2.89299
  30
0.0
  70
0
  0
VERTEX
  8
a
  10
15.72066
  20
2.91007
  30
0.0
  70
0
  0
VERTEX
  8
a
  10
15.25894
  20
2.67919
  30
0.0
  70
0
  0
VERTEX
  8
a
  10
15.25894
  20
2.67919
  30
0.0
  70
0
  0
VERTEX
  8
a
  10
14.81999
  20
2.40753
  30
0.0
  70
0
  0
VERTEX
  8
a
  10
14.81175
  20
2.36165
  30
0.0
  70
0
  0
VERTEX
  8
a
  10
14.811
  20
2.31945
  30
0.0
  70
0
  0
VERTEX
  8
a
  10
14.81546
  20
2.23802
  30
0.0
  70
0
  0
VERTEX
  8
a
  10
14.83933
  20
2.1659
  30
0.0
  70
0
  0
VERTEX
  8
a
  10
14.85944
  20
2.09202
  30
0.0
  70
0
  0
VERTEX
  8
a
  10
14.89134
  20
1.94041
  30
0.0
  70
0
  0
VERTEX
  8
a
  10
14.91412
  20
1.7847
  30
0.0
  70
0
  0
VERTEX
  8
a
  10
14.92903
  20
1.62561
  30
0.0
  70
0
  0
VERTEX
  8
a
  10
14.93675
  20
1.46358
  30
0.0
  70
0
  0
VERTEX
  8
a
  10
14.93775
  20
1.29896
  30
0.0
  70
0
  0
VERTEX
  8
a
  10
14.93233
  20
1.132
  30
0.0
  70
0
  0
VERTEX
  8
a
  10
14.92071
  20
0.96293
  30
0.0
  70
0
  0
VERTEX
  8
a
  10
14.90804
  20
0.83487
  30
0.0
  70
0
  0
VERTEX
  8
a
  10
14.00421
  20
0.50304
  30
0.0
  70
0
  0
VERTEX
  8
a
  10
13.91169
  20
0.59248
  30
0.0
  70
0
  0
VERTEX
  8
a
  10
13.79344
  20
0.71387
  30
0.0
  70
0
  0
VERTEX
  8
a
  10
13.68127
  20
0.83766
  30
0.0
  70
0
  0
VERTEX
  8
a
  10
13.57551
  20
0.96382
  30
0.0
  70
0
  0
VERTEX
  8
a
  10
13.47656
  20
1.09236
  30
0.0
  70
0
  0
VERTEX
  8
a
  10
13.38499
  20
1.2233
  30
0.0
  70
0
  0
VERTEX
  8
a
  10
13.30161
  20
1.35676
  30
0.0
  70
0
  0
VERTEX
  8
a
  10
13.22782
  20
1.493
  30
0.0
  70
0
  0
VERTEX
  8
a
  10
13.19535
  20
1.56234
  30
0.0
  70
0
  0
VERTEX
  8
a
  10
13.16689
  20
1.63277
  30
0.0
  70
0
  0
VERTEX
  8
a
  10
13.11759
  20
1.69774
  30
0.0
  70
0
  0
VERTEX
  8
a
  10
13.08972
  20
1.72943
  30
0.0
  70
0
  0
VERTEX
  8
a
  10
13.05375
  20
1.75908
  30
0.0
  70
0
  0
VERTEX
  8
a
  10
12.54329
  20
1.68218
  30
0.0
  70
0
  0
VERTEX
  8
a
  10
12.54329
  20
1.68218
  30
0.0
  70
0
  0
VERTEX
  8
a
  10
12.04187
  20
1.55946
  30
0.0
  70
0
  0
VERTEX
  8
a
  10
12.01986
  20
1.51836
  30
0.0
  70
0
  0
VERTEX
  8
a
  10
12.00611
  20
1.47846
  30
0.0
  70
0
  0
VERTEX
  8
a
  10
11.98518
  20
1.39964
  30
0.0
  70
0
  0
VERTEX
  8
a
  10
11.98559
  20
1.32368
  30
0.0
  70
0
  0
VERTEX
  8
a
  10
11.9819
  20
1.2472
  30
0.0
  70
0
  0
VERTEX
  8
a
  10
11.96538
  20
1.09315
  30
0.0
  70
0
  0
VERTEX
  8
a
  10
11.93893
  20
0.93802
  30
0.0
  70
0
  0
VERTEX
  8
a
  10
11.90394
  20
0.78211
  30
0.0
  70
0
  0
VERTEX
  8
a
  10
11.86122
  20
0.62563
  30
0.0
  70
0
  0
VERTEX
  8
a
  10
11.8113
  20
0.46875
  30
0.0
  70
0
  0
VERTEX
  8
a
  10
11.75455
  20
0.31164
  30
0.0
  70
0
  0
VERTEX
  8
a
  10
11.69126
  20
0.15444
  30
0.0
  70
0
  0
VERTEX
  8
a
  10
11.63964
  20
0.03656
  30
0.0
  70
0
  0
VERTEX
  8
a
  10
10.6775
  20
0.00027
  30
0.0
  70
0
  0
VERTEX
  8
a
  10
10.61715
  20
0.11393
  30
0.0
  70
0
  0
VERTEX
  8
a
  10
10.54219
  20
0.26592
  30
0.0
  70
0
  0
VERTEX
  8
a
  10
10.47377
  20
0.41831
  30
0.0
  70
0
  0
VERTEX
  8
a
  10
10.41217
  20
0.57098
  30
0.0
  70
0
  0
VERTEX
  8
a
  10
10.35779
  20
0.72379
  30
0.0
  70
0
  0
VERTEX
  8
a
  10
10.31115
  20
0.87663
  30
0.0
  70
0
  0
VERTEX
  8
a
  10
10.2731
  20
1.02932
  30
0.0
  70
0
  0
VERTEX
  8
a
  10
10.24502
  20
1.18169
  30
0.0
  70
0
  0
VERTEX
  8
a
  10
10.23557
  20
1.25768
  30
0.0
  70
0
  0
VERTEX
  8
a
  10
10.23026
  20
1.33345
  30
0.0
  70
0
  0
VERTEX
  8
a
  10
10.20346
  20
1.41047
  30
0.0
  70
0
  0
VERTEX
  8
a
  10
10.18674
  20
1.44922
  30
0.0
  70
0
  0
VERTEX
  8
a
  10
10.1617
  20
1.48854
  30
0.0
  70
0
  0
VERTEX
  8
a
  10
9.65246
  20
1.57315
  30
0.0
  70
0
  0
VERTEX
  8
a
  10
9.65246
  20
1.57315
  30
0.0
  70
0
  0
VERTEX
  8
a
  10
9.13765
  20
1.61138
  30
0.0
  70
0
  0
VERTEX
  8
a
  10
9.10402
  20
1.5791
  30
0.0
  70
0
  0
VERTEX
  8
a
  10
9.07861
  20
1.5454
  30
0.0
  70
0
  0
VERTEX
  8
a
  10
9.03435
  20
1.4769
  30
0.0
  70
0
  0
VERTEX
  8
a
  10
9.01127
  20
1.40453
  30
0.0
  70
0
  0
VERTEX
  8
a
  10
8.98412
  20
1.33294
  30
0.0
  70
0
  0
VERTEX
  8
a
  10
8.92081
  20
1.19153
  30
0.0
  70
0
  0
VERTEX
  8
a
  10
8.84772
  20
1.05217
  30
0.0
  70
0
  0
VERTEX
  8
a
  10
8.76627
  20
0.9147
  30
0.0
  70
0
  0
VERTEX
  8
a
  10
8.67728
  20
0.77908
  30
0.0
  70
0
  0
VERTEX
  8
a
  10
8.58132
  20
0.64531
  30
0.0
  70
0
  0
VERTEX
  8
a
  10
8.4788
  20
0.51342
  30
0.0
  70
0
  0
VERTEX
  8
a
  10
8.37003
  20
0.38347
  30
0.0
  70
0
  0
VERTEX
  8
a
  10
8.2845
  20
0.28731
  30
0.0
  70
0
  0
VERTEX
  8
a
  10
7.35825
  20
0.55011
  30
0.0
  70
0
  0
VERTEX
  8
a
  10
7.33597
  20
0.67686
  30
0.0
  70
0
  0
VERTEX
  8
a
  10
7.31165
  20
0.84457
  30
0.0
  70
0
  0
VERTEX
  8
a
  10
7.29367
  20
1.01065
  30
0.0
  70
0
  0
VERTEX
  8
a
  10
7.28226
  20
1.17488
  30
0.0
  70
0
  0
VERTEX
  8
a
  10
7.27776
  20
1.33703
  30
0.0
  70
0
  0
VERTEX
  8
a
  10
7.28064
  20
1.49679
  30
0.0
  70
0
  0
VERTEX
  8
a
  10
7.29163
  20
1.65377
  30
0.0
  70
0
  0
VERTEX
  8
a
  10
7.31201
  20
1.80736
  30
0.0
  70
0
  0
VERTEX
  8
a
  10
7.32651
  20
1.88254
  30
0.0
  70
0
  0
VERTEX
  8
a
  10
7.34487
  20
1.95625
  30
0.0
  70
0
  0
VERTEX
  8
a
  10
7.34318
  20
2.03779
  30
0.0
  70
0
  0
VERTEX
  8
a
  10
7.33926
  20
2.07981
  30
0.0
  70
0
  0
VERTEX
  8
a
  10
7.32759
  20
2.12494
  30
0.0
  70
0
  0
VERTEX
  8
a
  10
6.86942
  20
2.36277
  30
0.0
  70
0
  0
VERTEX
  8
a
  10
6.86942
  20
2.36277
  30
0.0
  70
0
  0
VERTEX
  8
a
  10
6.39162
  20
2.55821
  30
0.0
  70
0
  0
VERTEX
  8
a
  10
6.34966
  20
2.5379
  30
0.0
  70
0
  0
VERTEX
  8
a
  10
6.31508
  20
2.5137
  30
0.0
  70
0
  0
VERTEX
  8
a
  10
6.25182
  20
2.46223
  30
0.0
  70
0
  0
VERTEX
  8
a
  10
6.20751
  20
2.40054
  30
0.0
  70
0
  0
VERTEX
  8
a
  10
6.15956
  20
2.34084
  30
0.0
  70
0
  0
VERTEX
  8
a
  10
6.05565
  20
2.22592
  30
0.0
  70
0
  0
VERTEX
  8
a
  10
5.94307
  20
2.11596
  30
0.0
  70
0
  0
VERTEX
  8
a
  10
5.82313
  20
2.01039
  30
0.0
  70
0
  0
VERTEX
  8
a
  10
5.69659
  20
1.90891
  30
0.0
  70
0
  0
VERTEX
  8
a
  10
5.56399
  20
1.81134
  30
0.0
  70
0
  0
VERTEX
  8
a
  10
5.42573
  20
1.71759
  30
0.0
  70
0
  0
VERTEX
  8
a
  10
5.28213
  20
1.62761
  30
0.0
  70
0
  0
VERTEX
  8
a
  10
5.17107
  20
1.56259
  30
0.0
  70
0
  0
VERTEX
  8
a
  10
4.37136
  20
2.09875
  30
0.0
  70
0
  0
VERTEX
  8
a
  10
4.38934
  20
2.22618
  30
0.0
  70
0
  0
VERTEX
  8
a
  10
4.41804
  20
2.3932
  30
0.0
  70
0
  0
VERTEX
  8
a
  10
4.45225
  20
2.5567
  30
0.0
  70
0
  0
VERTEX
  8
a
  10
4.49216
  20
2.71642
  30
0.0
  70
0
  0
VERTEX
  8
a
  10
4.53798
  20
2.87202
  30
0.0
  70
0
  0
VERTEX
  8
a
  10
4.59009
  20
3.02308
  30
0.0
  70
0
  0
VERTEX
  8
a
  10
4.64905
  20
3.16898
  30
0.0
  70
0
  0
VERTEX
  8
a
  10
4.7159
  20
3.30875
  30
0.0
  70
0
  0
VERTEX
  8
a
  10
4.75292
  20
3.37578
  30
0.0
  70
0
  0
VERTEX
  8
a
  10
4.79316
  20
3.4402
  30
0.0
  70
0
  0
VERTEX
  8
a
  10
4.81675
  20
3.51827
  30
0.0
  70
0
  0
VERTEX
  8
a
  10
4.826
  20
3.55945
  30
0.0
  70
0
  0
VERTEX
  8
a
  10
4.82885
  20
3.60598
  30
0.0
  70
0
  0
VERTEX
  8
a
  10
4.46659
  20
3.97375
  30
0.0
  70
0
  0
VERTEX
  8
a
  10
4.46659
  20
3.97375
  30
0.0
  70
0
  0
VERTEX
  8
a
  10
4.07258
  20
4.30727
  30
0.0
  70
0
  0
VERTEX
  8
a
  10
4.0264
  20
4.30093
  30
0.0
  70
0
  0
VERTEX
  8
a
  10
3.98603
  20
4.28859
  30
0.0
  70
0
  0
VERTEX
  8
a
  10
3.90996
  20
4.25919
  30
0.0
  70
0
  0
VERTEX
  8
a
  10
3.84876
  20
4.21421
  30
0.0
  70
0
  0
VERTEX
  8
a
  10
3.78471
  20
4.17225
  30
0.0
  70
0
  0
VERTEX
  8
a
  10
3.65037
  20
4.09506
  30
0.0
  70
0
  0
VERTEX
  8
a
  10
3.50932
  20
4.02528
  30
0.0
  70
0
  0
VERTEX
  8
a
  10
3.36262
  20
3.96194
  30
0.0
  70
0
  0
VERTEX
  8
a
  10
3.21092
  20
3.90453
  30
0.0
  70
0
  0
VERTEX
  8
a
  10
3.05466
  20
3.85271
  30
0.0
  70
0
  0
VERTEX
  8
a
  10
2.8942
  20
3.80627
  30
0.0
  70
0
  0
VERTEX
  8
a
  10
2.72981
  20
3.76507
  30
0.0
  70
0
  0
VERTEX
  8
a
  10
2.6041
  20
3.73755
  30
0.0
  70
0
  0
VERTEX
  8
a
  10
2.00922
  20
4.4946
  30
0.0
  70
0
  0
VERTEX
  8
a
  10
2.06569
  20
4.61023
  30
0.0
  70
0
  0
VERTEX
  8
a
  10
2.1446
  20
4.76021
  30
0.0
  70
0
  0
VERTEX
  8
a
  10
2.22767
  20
4.90514
  30
0.0
  70
0
  0
VERTEX
  8
a
  10
2.31497
  20
5.04471
  30
0.0
  70
0
  0
VERTEX
  8
a
  10
2.40664
  20
5.17853
  30
0.0
  70
0
  0
VERTEX
  8
a
  10
2.50287
  20
5.30609
  30
0.0
  70
0
  0
VERTEX
  8
a
  10
2.60403
  20
5.42663
  30
0.0
  70
0
  0
VERTEX
  8
a
  10
2.7108
  20
5.5389
  30
0.0
  70
0
  0
VERTEX
  8
a
  10
2.76672
  20
5.59121
  30
0.0
  70
0
  0
VERTEX
  8
a
  10
2.8249
  20
5.64005
  30
0.0
  70
0
  0
VERTEX
  8
a
  10
2.87146
  20
5.707
  30
0.0
  70
0
  0
VERTEX
  8
a
  10
2.89299
  20
5.7433
  30
0.0
  70
0
  0
VERTEX
  8
a
  10
2.91007
  20
5.78668
  30
0.0
  70
0
  0
VERTEX
  8
a
  10
2.67919
  20
6.24839
  30
0.0
  70
0
  0
VERTEX
  8
a
  10
2.67919
  20
6.24839
  30
0.0
  70
0
  0
VERTEX
  8
a
  10
2.40753
  20
6.68735
  30
0.0
  70
0
  0
VERTEX
  8
a
  10
2.36165
  20
6.69559
  30
0.0
  70
0
  0
VERTEX
  8
a
  10
2.31945
  20
6.69633
  30
0.0
  70
0
  0
VERTEX
  8
a
  10
2.23802
  20
6.69188
  30
0.0
  70
0
  0
VERTEX
  8
a
  10
2.1659
  20
6.66801
  30
0.0
  70
0
  0
VERTEX
  8
a
  10
2.09202
  20
6.64789
  30
0.0
  70
0
  0
VERTEX
  8
a
  10
1.94041
  20
6.616
  30
0.0
  70
0
  0
VERTEX
  8
a
  10
1.7847
  20
6.59321
  30
0.0
  70
0
  0
VERTEX
  8
a
  10
1.62561
  20
6.57831
  30
0.0
  70
0
  0
VERTEX
  8
a
  10
1.46358
  20
6.57058
  30
0.0
  70
0
  0
VERTEX
  8
a
  10
1.29896
  20
6.56959
  30
0.0
  70
0
  0
VERTEX
  8
a
  10
1.132
  20
6.57501
  30
0.0
  70
0
  0
VERTEX
  8
a
  10
0.96293
  20
6.58662
  30
0.0
  70
0
  0
VERTEX
  8
a
  10
0.83487
  20
6.59929
  30
0.0
  70
0
  0
VERTEX
  8
a
  10
0.50304
  20
7.50312
  30
0.0
  70
0
  0
VERTEX
  8
a
  10
0.59248
  20
7.59565
  30
0.0
  70
0
  0
VERTEX
  8
a
  10
0.71387
  20
7.7139
  30
0.0
  70
0
  0
VERTEX
  8
a
  10
0.83766
  20
7.82606
  30
0.0
  70
0
  0
VERTEX
  8
a
  10
0.96382
  20
7.93183
  30
0.0
  70
0
  0
VERTEX
  8
a
  10
1.09236
  20
8.03077
  30
0.0
  70
0
  0
VERTEX
  8
a
  10
1.2233
  20
8.12235
  30
0.0
  70
0
  0
VERTEX
  8
a
  10
1.35676
  20
8.20573
  30
0.0
  70
0
  0
VERTEX
  8
a
  10
1.493
  20
8.27952
  30
0.0
  70
0
  0
VERTEX
  8
a
  10
1.56234
  20
8.31198
  30
0.0
  70
0
  0
VERTEX
  8
a
  10
1.63277
  20
8.34045
  30
0.0
  70
0
  0
VERTEX
  8
a
  10
1.69774
  20
8.38974
  30
0.0
  70
0
  0
VERTEX
  8
a
  10
1.72943
  20
8.41761
  30
0.0
  70
0
  0
VERTEX
  8
a
  10
1.75908
  20
8.45359
  30
0.0
  70
0
  0
VERTEX
  8
a
  10
1.68218
  20
8.96405
  30
0.0
  70
0
  0
VERTEX
  8
a
  10
1.68218
  20
8.96405
  30
0.0
  70
0
  0
VERTEX
  8
a
  10
1.55946
  20
9.46547
  30
0.0
  70
0
  0
VERTEX
  8
a
  10
1.51836
  20
9.48748
  30
0.0
  70
0
  0
VERTEX
  8
a
  10
1.47846
  20
9.50123
  30
0.0
  70
0
  0
VERTEX
  8
a
  10
1.39964
  20
9.52216
  30
0.0
  70
0
  0
VERTEX
  8
a
  10
1.32368
  20
9.52174
  30
0.0
  70
0
  0
VERTEX
  8
a
  10
1.2472
  20
9.52544
  30
0.0
  70
0
  0
VERTEX
  8
a
  10
1.09315
  20
9.54196
  30
0.0
  70
0
  0
VERTEX
  8
a
  10
0.93802
  20
9.56841
  30
0.0
  70
0
  0
VERTEX
  8
a
  10
0.78211
  20
9.60339
  30
0.0
  70
0
  0
VERTEX
  8
a
  10
0.62563
  20
9.64611
  30
0.0
  70
0
  0
VERTEX
  8
a
  10
0.46875
  20
9.69604
  30
0.0
  70
0
  0
VERTEX
  8
a
  10
0.31164
  20
9.75279
  30
0.0
  70
0
  0
VERTEX
  8
a
  10
0.15444
  20
9.81608
  30
0.0
  70
0
  0
VERTEX
  8
a
  10
0.03656
  20
9.8677
  30
0.0
  70
0
  0
VERTEX
  8
a
  10
0.00027
  20
10.82983
  30
0.0
  70
0
  0
VERTEX
  8
a
  10
0.11393
  20
10.89019
  30
0.0
  70
0
  0
VERTEX
  8
a
  10
0.26592
  20
10.96514
  30
0.0
  70
0
  0
VERTEX
  8
a
  10
0.41831
  20
11.03357
  30
0.0
  70
0
  0
VERTEX
  8
a
  10
0.57098
  20
11.09516
  30
0.0
  70
0
  0
VERTEX
  8
a
  10
0.72379
  20
11.14955
  30
0.0
  70
0
  0
VERTEX
  8
a
  10
0.87663
  20
11.19618
  30
0.0
  70
0
  0
VERTEX
  8
a
  10
1.02932
  20
11.23424
  30
0.0
  70
0
  0
VERTEX
  8
a
  10
1.18169
  20
11.26231
  30
0.0
  70
0
  0
VERTEX
  8
a
  10
1.25768
  20
11.27176
  30
0.0
  70
0
  0
VERTEX
  8
a
  10
1.33345
  20
11.27707
  30
0.0
  70
0
  0
VERTEX
  8
a
  10
1.41047
  20
11.30388
  30
0.0
  70
0
  0
VERTEX
  8
a
  10
1.44922
  20
11.32059
  30
0.0
  70
0
  0
VERTEX
  8
a
  10
1.48854
  20
11.34564
  30
0.0
  70
0
  0
VERTEX
  8
a
  10
1.57315
  20
11.85488
  30
0.0
  70
0
  0
VERTEX
  8
a
  10
1.57315
  20
11.85488
  30
0.0
  70
0
  0
VERTEX
  8
a
  10
1.61138
  20
12.36968
  30
0.0
  70
0
  0
VERTEX
  8
a
  10
1.5791
  20
12.40332
  30
0.0
  70
0
  0
VERTEX
  8
a
  10
1.5454
  20
12.42872
  30
0.0
  70
0
  0
VERTEX
  8
a
  10
1.4769
  20
12.47298
  30
0.0
  70
0
  0
VERTEX
  8
a
  10
1.40453
  20
12.49606
  30
0.0
  70
0
  0
VERTEX
  8
a
  10
1.33294
  20
12.52321
  30
0.0
  70
0
  0
VERTEX
  8
a
  10
1.19153
  20
12.58653
  30
0.0
  70
0
  0
VERTEX
  8
a
  10
1.05217
  20
12.65962
  30
0.0
  70
0
  0
VERTEX
  8
a
  10
0.9147
  20
12.74107
  30
0.0
  70
0
  0
VERTEX
  8
a
  10
0.77908
  20
12.83006
  30
0.0
  70
0
  0
VERTEX
  8
a
  10
0.64531
  20
12.92601
  30
0.0
  70
0
  0
VERTEX
  8
a
  10
0.51342
  20
13.02854
  30
0.0
  70
0
  0
VERTEX
  8
a
  10
0.38347
  20
13.13731
  30
0.0
  70
0
  0
VERTEX
  8
a
  10
0.28731
  20
13.22283
  30
0.0
  70
0
  0
VERTEX
  8
a
  10
0.55011
  20
14.14909
  30
0.0
  70
0
  0
VERTEX
  8
a
  10
0.67686
  20
14.17137
  30
0.0
  70
0
  0
VERTEX
  8
a
  10
0.84457
  20
14.19569
  30
0.0
  70
0
  0
VERTEX
  8
a
  10
1.01065
  20
14.21367
  30
0.0
  70
0
  0
VERTEX
  8
a
  10
1.17488
  20
14.22508
  30
0.0
  70
0
  0
VERTEX
  8
a
  10
1.33703
  20
14.22958
  30
0.0
  70
0
  0
VERTEX
  8
a
  10
1.49679
  20
14.2267
  30
0.0
  70
0
  0
VERTEX
  8
a
  10
1.65377
  20
14.21571
  30
0.0
  70
0
  0
VERTEX
  8
a
  10
1.80736
  20
14.19532
  30
0.0
  70
0
  0
VERTEX
  8
a
  10
1.88254
  20
14.18083
  30
0.0
  70
0
  0
VERTEX
  8
a
  10
1.95625
  20
14.16246
  30
0.0
  70
0
  0
VERTEX
  8
a
  10
2.03779
  20
14.16415
  30
0.0
  70
0
  0
VERTEX
  8
a
  10
2.07981
  20
14.16808
  30
0.0
  70
0
  0
VERTEX
  8
a
  10
2.12494
  20
14.17975
  30
0.0
  70
0
  0
VERTEX
  8
a
  10
2.36277
  20
14.63792
  30
0.0
  70
0
  0
VERTEX
  8
a
  10
2.36277
  20
14.63792
  30
0.0
  70
0
  0
VERTEX
  8
a
  10
2.55821
  20
15.11571
  30
0.0
  70
0
  0
VERTEX
  8
a
  10
2.5379
  20
15.15768
  30
0.0
  70
0
  0
VERTEX
  8
a
  10
2.5137
  20
15.19225
  30
0.0
  70
0
  0
VERTEX
  8
a
  10
2.46223
  20
15.25551
  30
0.0
  70
0
  0
VERTEX
  8
a
  10
2.40054
  20
15.29983
  30
0.0
  70
0
  0
VERTEX
  8
a
  10
2.34084
  20
15.34777
  30
0.0
  70
0
  0
VERTEX
  8
a
  10
2.22592
  20
15.45169
  30
0.0
  70
0
  0
VERTEX
  8
a
  10
2.11596
  20
15.56426
  30
0.0
  70
0
  0
VERTEX
  8
a
  10
2.01039
  20
15.68421
  30
0.0
  70
0
  0
VERTEX
  8
a
  10
1.90891
  20
15.81075
  30
0.0
  70
0
  0
VERTEX
  8
a
  10
1.81134
  20
15.94335
  30
0.0
  70
0
  0
VERTEX
  8
a
  10
1.71759
  20
16.08161
  30
0.0
  70
0
  0
VERTEX
  8
a
  10
1.62761
  20
16.22521
  30
0.0
  70
0
  0
VERTEX
  8
a
  10
1.56259
  20
16.33626
  30
0.0
  70
0
  0
VERTEX
  8
a
  10
2.09875
  20
17.13598
  30
0.0
  70
0
  0
VERTEX
  8
a
  10
2.22618
  20
17.118
  30
0.0
  70
0
  0
VERTEX
  8
a
  10
2.3932
  20
17.0893
  30
0.0
  70
0
  0
VERTEX
  8
a
  10
2.5567
  20
17.05508
  30
0.0
  70
0
  0
VERTEX
  8
a
  10
2.71642
  20
17.01518
  30
0.0
  70
0
  0
VERTEX
  8
a
  10
2.87202
  20
16.96936
  30
0.0
  70
0
  0
VERTEX
  8
a
  10
3.02308
  20
16.91725
  30
0.0
  70
0
  0
VERTEX
  8
a
  10
3.16898
  20
16.85829
  30
0.0
  70
0
  0
VERTEX
  8
a
  10
3.30875
  20
16.79144
  30
0.0
  70
0
  0
VERTEX
  8
a
  10
3.37578
  20
16.75442
  30
0.0
  70
0
  0
VERTEX
  8
a
  10
3.4402
  20
16.71418
  30
0.0
  70
0
  0
VERTEX
  8
a
  10
3.51827
  20
16.69059
  30
0.0
  70
0
  0
VERTEX
  8
a
  10
3.55945
  20
16.68133
  30
0.0
  70
0
  0
VERTEX
  8
a
  10
3.60598
  20
16.67849
  30
0.0
  70
0
  0
VERTEX
  8
a
  10
3.97375
  20
17.04074
  30
0.0
  70
0
  0
VERTEX
  8
a
  10
3.97375
  20
17.04074
  30
0.0
  70
0
  0
VERTEX
  8
a
  10
4.30727
  20
17.43475
  30
0.0
  70
0
  0
VERTEX
  8
a
  10
4.30093
  20
17.48094
  30
0.0
  70
0
  0
VERTEX
  8
a
  10
4.28859
  20
17.5213
  30
0.0
  70
0
  0
VERTEX
  8
a
  10
4.25919
  20
17.59737
  30
0.0
  70
0
  0
VERTEX
  8
a
  10
4.21421
  20
17.65858
  30
0.0
  70
0
  0
VERTEX
  8
a
  10
4.17225
  20
17.72263
  30
0.0
  70
0
  0
VERTEX
  8
a
  10
4.09506
  20
17.85697
  30
0.0
  70
0
  0
VERTEX
  8
a
  10
4.02528
  20
17.99801
  30
0.0
  70
0
  0
VERTEX
  8
a
  10
3.96194
  20
18.14471
  30
0.0
  70
0
  0
VERTEX
  8
a
  10
3.90453
  20
18.29642
  30
0.0
  70
0
  0
VERTEX
  8
a
  10
3.85271
  20
18.45268
  30
0.0
  70
0
  0
VERTEX
  8
a
  10
3.80627
  20
18.61314
  30
0.0
  70
0
  0
VERTEX
  8
a
  10
3.76507
  20
18.77752
  30
0.0
  70
0
  0
VERTEX
  8
a
  10
3.73755
  20
18.90323
  30
0.0
  70
0
  0
VERTEX
  8
a
  10
4.4946
  20
19.49812
  30
0.0
  70
0
  0
VERTEX
  8
a
  10
4.61023
  20
19.44165
  30
0.0
  70
0
  0
VERTEX
  8
a
  10
4.76021
  20
19.36274
  30
0.0
  70
0
  0
VERTEX
  8
a
  10
4.90514
  20
19.27967
  30
0.0
  70
0
  0
VERTEX
  8
a
  10
5.04471
  20
19.19237
  30
0.0
  70
0
  0
VERTEX
  8
a
  10
5.17853
  20
19.1007
  30
0.0
  70
0
  0
VERTEX
  8
a
  10
5.30609
  20
19.00447
  30
0.0
  70
0
  0
VERTEX
  8
a
  10
5.42663
  20
18.9033
  30
0.0
  70
0
  0
VERTEX
  8
a
  10
5.5389
  20
18.79654
  30
0.0
  70
0
  0
VERTEX
  8
a
  10
5.59121
  20
18.74062
  30
0.0
  70
0
  0
VERTEX
  8
a
  10
5.64005
  20
18.68244
  30
0.0
  70
0
  0
VERTEX
  8
a
  10
5.707
  20
18.63588
  30
0.0
  70
0
  0
VERTEX
  8
a
  10
5.7433
  20
18.61435
  30
0.0
  70
0
  0
VERTEX
  8
a
  10
5.78668
  20
18.59726
  30
0.0
  70
0
  0
VERTEX
  8
a
  10
6.24839
  20
18.82814
  30
0.0
  70
0
  0
VERTEX
  8
a
  10
6.24839
  20
18.82814
  30
0.0
  70
0
  0
VERTEX
  8
a
  10
6.68735
  20
19.0998
  30
0.0
  70
0
  0
VERTEX
  8
a
  10
6.69559
  20
19.14569
  30
0.0
  70
0
  0
VERTEX
  8
a
  10
6.69633
  20
19.18789
  30
0.0
  70
0
  0
VERTEX
  8
a
  10
6.69188
  20
19.26932
  30
0.0
  70
0
  0
VERTEX
  8
a
  10
6.66801
  20
19.34143
  30
0.0
  70
0
  0
VERTEX
  8
a
  10
6.64789
  20
19.41531
  30
0.0
  70
0
  0
VERTEX
  8
a
  10
6.616
  20
19.56693
  30
0.0
  70
0
  0
VERTEX
  8
a
  10
6.59321
  20
19.72264
  30
0.0
  70
0
  0
VERTEX
  8
a
  10
6.57831
  20
19.88173
  30
0.0
  70
0
  0
VERTEX
  8
a
  10
6.57058
  20
20.04375
  30
0.0
  70
0
  0
VERTEX
  8
a
  10
6.56959
  20
20.20838
  30
0.0
  70
0
  0
VERTEX
  8
a
  10
6.57501
  20
20.37534
  30
0.0
  70
0
  0
VERTEX
  8
a
  10
6.58662
  20
20.5444
  30
0.0
  70
0
  0
VERTEX
  8
a
  10
6.59929
  20
20.67247
  30
0.0
  70
0
  0
VERTEX
  8
a
  10
7.50312
  20
21.00429
  30
0.0
  70
0
  0
VERTEX
  8
a
  10
7.59565
  20
20.91485
  30
0.0
  70
0
  0
VERTEX
  8
a
  10
7.7139
  20
20.79346
  30
0.0
  70
0
  0
VERTEX
  8
a
  10
7.82606
  20
20.66967
  30
0.0
  70
0
  0
VERTEX
  8
a
  10
7.93183
  20
20.54351
  30
0.0
  70
0
  0
VERTEX
  8
a
  10
8.03077
  20
20.41498
  30
0.0
  70
0
  0
VERTEX
  8
a
  10
8.12235
  20
20.28404
  30
0.0
  70
0
  0
VERTEX
  8
a
  10
8.20573
  20
20.15058
  30
0.0
  70
0
  0
VERTEX
  8
a
  10
8.27952
  20
20.01434
  30
0.0
  70
0
  0
VERTEX
  8
a
  10
8.31198
  20
19.94499
  30
0.0
  70
0
  0
VERTEX
  8
a
  10
8.34045
  20
19.87457
  30
0.0
  70
0
  0
VERTEX
  8
a
  10
8.38974
  20
19.8096
  30
0.0
  70
0
  0
VERTEX
  8
a
  10
8.41761
  20
19.77791
  30
0.0
  70
0
  0
VERTEX
  8
a
  10
8.45359
  20
19.74825
  30
0.0
  70
0
  0
VERTEX
  8
a
  10
8.96405
  20
19.82516
  30
0.0
  70
0
  0
VERTEX
  8
a
  10
8.96405
  20
19.82516
  30
0.0
  70
0
  0
VERTEX
  8
a
  10
9.46547
  20
19.94788
  30
0.0
  70
0
  0
VERTEX
  8
a
  10
9.48748
  20
19.98897
  30
0.0
  70
0
  0
VERTEX
  8
a
  10
9.50123
  20
20.02887
  30
0.0
  70
0
  0
VERTEX
  8
a
  10
9.52216
  20
20.1077
  30
0.0
  70
0
  0
VERTEX
  8
a
  10
9.52174
  20
20.18366
  30
0.0
  70
0
  0
VERTEX
  8
a
  10
9.52544
  20
20.26014
  30
0.0
  70
0
  0
VERTEX
  8
a
  10
9.54196
  20
20.41419
  30
0.0
  70
0
  0
VERTEX
  8
a
  10
9.56841
  20
20.56932
  30
0.0
  70
0
  0
VERTEX
  8
a
  10
9.60339
  20
20.72523
  30
0.0
  70
0
  0
VERTEX
  8
a
  10
9.64611
  20
20.88171
  30
0.0
  70
0
  0
VERTEX
  8
a
  10
9.69604
  20
21.03858
  30
0.0
  70
0
  0
VERTEX
  8
a
  10
9.75279
  20
21.19569
  30
0.0
  70
0
  0
VERTEX
  8
a
  10
9.81608
  20
21.3529
  30
0.0
  70
0
  0
VERTEX
  8
a
  10
9.8677
  20
21.47078
  30
0.0
  70
0
  0
VERTEX
  8
a
  10
10.82983
  20
21.50707
  30
0.0
  70
0
  0
VERTEX
  8
a
  10
10.89019
  20
21.39341
  30
0.0
  70
0
  0
VERTEX
  8
a
  10
10.96514
  20
21.24142
  30
0.0
  70
0
  0
VERTEX
  8
a
  10
11.03357
  20
21.08903
  30
0.0
  70
0
  0
VERTEX
  8
a
  10
11.09516
  20
20.93636
  30
0.0
  70
0
  0
VERTEX
  8
a
  10
11.14955
  20
20.78354
  30
0.0
  70
0
  0
VERTEX
  8
a
  10
11.19618
  20
20.63071
  30
0.0
  70
0
  0
VERTEX
  8
a
  10
11.23424
  20
20.47802
  30
0.0
  70
0
  0
VERTEX
  8
a
  10
11.26231
  20
20.32565
  30
0.0
  70
0
  0
VERTEX
  8
a
  10
11.27176
  20
20.24966
  30
0.0
  70
0
  0
VERTEX
  8
a
  10
11.27707
  20
20.17389
  30
0.0
  70
0
  0
VERTEX
  8
a
  10
11.30388
  20
20.09686
  30
0.0
  70
0
  0
VERTEX
  8
a
  10
11.32059
  20
20.05811
  30
0.0
  70
0
  0
VERTEX
  8
a
  10
11.34564
  20
20.01879
  30
0.0
  70
0
  0
VERTEX
  8
a
  10
11.85488
  20
19.93419
  30
0.0
  70
0
  0
VERTEX
  8
a
  10
11.85488
  20
19.93419
  30
0.0
  70
0
  0
VERTEX
  8
a
  10
12.36968
  20
19.89596
  30
0.0
  70
0
  0
VERTEX
  8
a
  10
12.40332
  20
19.92824
  30
0.0
  70
0
  0
VERTEX
  8
a
  10
12.42872
  20
19.96194
  30
0.0
  70
0
  0
VERTEX
  8
a
  10
12.47298
  20
20.03044
  30
0.0
  70
0
  0
VERTEX
  8
a
  10
12.49606
  20
20.10281
  30
0.0
  70
0
  0
VERTEX
  8
a
  10
12.52321
  20
20.1744
  30
0.0
  70
0
  0
VERTEX
  8
a
  10
12.58653
  20
20.31581
  30
0.0
  70
0
  0
VERTEX
  8
a
  10
12.65962
  20
20.45517
  30
0.0
  70
0
  0
VERTEX
  8
a
  10
12.74107
  20
20.59264
  30
0.0
  70
0
  0
VERTEX
  8
a
  10
12.83006
  20
20.72826
  30
0.0
  70
0
  0
VERTEX
  8
a
  10
12.92601
  20
20.86203
  30
0.0
  70
0
  0
VERTEX
  8
a
  10
13.02854
  20
20.99391
  30
0.0
  70
0
  0
VERTEX
  8
a
  10
13.13731
  20
21.12387
  30
0.0
  70
0
  0
VERTEX
  8
a
  10
13.22283
  20
21.22002
  30
0.0
  70
0
  0
VERTEX
  8
a
  10
14.14909
  20
20.95722
  30
0.0
  70
0
  0
VERTEX
  8
a
  10
14.17137
  20
20.83048
  30
0.0
  70
0
  0
VERTEX
  8
a
  10
14.19569
  20
20.66276
  30
0.0
  70
0
  0
VERTEX
  8
a
  10
14.21367
  20
20.49669
  30
0.0
  70
0
  0
VERTEX
  8
a
  10
14.22508
  20
20.33246
  30
0.0
  70
0
  0
VERTEX
  8
a
  10
14.22958
  20
20.17031
  30
0.0
  70
0
  0
VERTEX
  8
a
  10
14.2267
  20
20.01055
  30
0.0
  70
0
  0
VERTEX
  8
a
  10
14.21571
  20
19.85357
  30
0.0
  70
0
  0
VERTEX
  8
a
  10
14.19532
  20
19.69998
  30
0.0
  70
0
  0
VERTEX
  8
a
  10
14.18083
  20
19.62479
  30
0.0
  70
0
  0
VERTEX
  8
a
  10
14.16246
  20
19.55109
  30
0.0
  70
0
  0
VERTEX
  8
a
  10
14.16415
  20
19.46955
  30
0.0
  70
0
  0
VERTEX
  8
a
  10
14.16808
  20
19.42753
  30
0.0
  70
0
  0
VERTEX
  8
a
  10
14.17975
  20
19.38239
  30
0.0
  70
0
  0
VERTEX
  8
a
  10
14.63792
  20
19.14457
  30
0.0
  70
0
  0
VERTEX
  8
a
  10
14.63792
  20
19.14457
  30
0.0
  70
0
  0
VERTEX
  8
a
  10
15.11571
  20
18.94913
  30
0.0
  70
0
  0
VERTEX
  8
a
  10
15.15768
  20
18.96943
  30
0.0
  70
0
  0
VERTEX
  8
a
  10
15.19225
  20
18.99363
  30
0.0
  70
0
  0
VERTEX
  8
a
  10
15.25551
  20
19.0451
  30
0.0
  70
0
  0
VERTEX
  8
a
  10
15.29983
  20
19.1068
  30
0.0
  70
0
  0
VERTEX
  8
a
  10
15.34777
  20
19.1665
  30
0.0
  70
0
  0
VERTEX
  8
a
  10
15.45169
  20
19.28142
  30
0.0
  70
0
  0
VERTEX
  8
a
  10
15.56426
  20
19.39137
  30
0.0
  70
0
  0
VERTEX
  8
a
  10
15.68421
  20
19.49694
  30
0.0
  70
0
  0
VERTEX
  8
a
  10
15.81075
  20
19.59843
  30
0.0
  70
0
  0
VERTEX
  8
a
  10
15.94335
  20
19.696
  30
0.0
  70
0
  0
VERTEX
  8
a
  10
16.08161
  20
19.78975
  30
0.0
  70
0
  0
VERTEX
  8
a
  10
16.22521
  20
19.87973
  30
0.0
  70
0
  0
VERTEX
  8
a
  10
16.33626
  20
19.94475
  30
0.0
  70
0
  0
VERTEX
  8
a
  10
17.13598
  20
19.40858
  30
0.0
  70
0
  0
VERTEX
  8
a
  10
17.118
  20
19.28115
  30
0.0
  70
0
  0
VERTEX
  8
a
  10
17.0893
  20
19.11414
  30
0.0
  70
0
  0
VERTEX
  8
a
  10
17.05508
  20
18.95063
  30
0.0
  70
0
  0
VERTEX
  8
a
  10
17.01518
  20
18.79091
  30
0.0
  70
0
  0
VERTEX
  8
a
  10
16.96936
  20
18.63531
  30
0.0
  70
0
  0
VERTEX
  8
a
  10
16.91725
  20
18.48426
  30
0.0
  70
0
  0
VERTEX
  8
a
  10
16.85829
  20
18.33836
  30
0.0
  70
0
  0
VERTEX
  8
a
  10
16.79144
  20
18.19859
  30
0.0
  70
0
  0
VERTEX
  8
a
  10
16.75442
  20
18.13156
  30
0.0
  70
0
  0
VERTEX
  8
a
  10
16.71418
  20
18.06714
  30
0.0
  70
0
  0
VERTEX
  8
a
  10
16.69059
  20
17.98907
  30
0.0
  70
0
  0
VERTEX
  8
a
  10
16.68133
  20
17.94789
  30
0.0
  70
0
  0
VERTEX
  8
a
  10
16.67849
  20
17.90136
  30
0.0
  70
0
  0
VERTEX
  8
a
  10
17.04074
  20
17.53359
  30
0.0
  70
0
  0
VERTEX
  8
a
  10
17.04074
  20
17.53359
  30
0.0
  70
0
  0
VERTEX
  8
a
  10
17.43475
  20
17.20007
  30
0.0
  70
0
  0
VERTEX
  8
a
  10
17.48094
  20
17.20641
  30
0.0
  70
0
  0
VERTEX
  8
a
  10
17.5213
  20
17.21874
  30
0.0
  70
0
  0
VERTEX
  8
a
  10
17.59737
  20
17.24814
  30
0.0
  70
0
  0
VERTEX
  8
a
  10
17.65858
  20
17.29313
  30
0.0
  70
0
  0
VERTEX
  8
a
  10
17.72263
  20
17.33509
  30
0.0
  70
0
  0
VERTEX
  8
a
  10
17.85697
  20
17.41227
  30
0.0
  70
0
  0
VERTEX
  8
a
  10
17.99801
  20
17.48206
  30
0.0
  70
0
  0
VERTEX
  8
a
  10
18.14471
  20
17.5454
  30
0.0
  70
0
  0
VERTEX
  8
a
  10
18.29642
  20
17.60281
  30
0.0
  70
0
  0
VERTEX
  8
a
  10
18.45268
  20
17.65463
  30
0.0
  70
0
  0
VERTEX
  8
a
  10
18.61314
  20
17.70107
  30
0.0
  70
0
  0
VERTEX
  8
a
  10
18.77752
  20
17.74227
  30
0.0
  70
0
  0
VERTEX
  8
a
  10
18.90323
  20
17.76979
  30
0.0
  70
0
  0
VERTEX
  8
a
  10
19.49812
  20
17.01274
  30
0.0
  70
0
  0
VERTEX
  8
a
  10
19.44165
  20
16.8971
  30
0.0
  70
0
  0
VERTEX
  8
a
  10
19.36274
  20
16.74713
  30
0.0
  70
0
  0
VERTEX
  8
a
  10
19.27967
  20
16.6022
  30
0.0
  70
0
  0
VERTEX
  8
a
  10
19.19237
  20
16.46263
  30
0.0
  70
0
  0
VERTEX
  8
a
  10
19.1007
  20
16.3288
  30
0.0
  70
0
  0
VERTEX
  8
a
  10
19.00447
  20
16.20125
  30
0.0
  70
0
  0
VERTEX
  8
a
  10
18.9033
  20
16.08071
  30
0.0
  70
0
  0
VERTEX
  8
a
  10
18.79654
  20
15.96843
  30
0.0
  70
0
  0
VERTEX
  8
a
  10
18.74062
  20
15.91612
  30
0.0
  70
0
  0
VERTEX
  8
a
  10
18.68244
  20
15.86729
  30
0.0
  70
0
  0
VERTEX
  8
a
  10
18.63588
  20
15.80033
  30
0.0
  70
0
  0
VERTEX
  8
a
  10
18.61435
  20
15.76403
  30
0.0
  70
0
  0
VERTEX
  8
a
  10
18.59726
  20
15.72066
  30
0.0
  70
0
  0
VERTEX
  8
a
  10
18.82814
  20
15.25894
  30
0.0
  70
0
  0
VERTEX
  8
a
  10
18.82814
  20
15.25894
  30
0.0
  70
0
  0
VERTEX
  8
a
  10
19.0998
  20
14.81999
  30
0.0
  70
0
  0
VERTEX
  8
a
  10
19.14569
  20
14.81175
  30
0.0
  70
0
  0
VERTEX
  8
a
  10
19.18789
  20
14.811
  30
0.0
  70
0
  0
VERTEX
  8
a
  10
19.26932
  20
14.81546
  30
0.0
  70
0
  0
VERTEX
  8
a
  10
19.34143
  20
14.83933
  30
0.0
  70
0
  0
VERTEX
  8
a
  10
19.41531
  20
14.85944
  30
0.0
  70
0
  0
VERTEX
  8
a
  10
19.56693
  20
14.89134
  30
0.0
  70
0
  0
VERTEX
  8
a
  10
19.72264
  20
14.91412
  30
0.0
  70
0
  0
VERTEX
  8
a
  10
19.88173
  20
14.92903
  30
0.0
  70
0
  0
VERTEX
  8
a
  10
20.04375
  20
14.93675
  30
0.0
  70
0
  0
VERTEX
  8
a
  10
20.20838
  20
14.93775
  30
0.0
  70
0
  0
VERTEX
  8
a
  10
20.37534
  20
14.93233
  30
0.0
  70
0
  0
VERTEX
  8
a
  10
20.5444
  20
14.92071
  30
0.0
  70
0
  0
VERTEX
  8
a
  10
20.67247
  20
14.90804
  30
0.0
  70
0
  0
VERTEX
  8
a
  10
21.00429
  20
14.00421
  30
0.0
  70
0
  0
VERTEX
  8
a
  10
20.91485
  20
13.91169
  30
0.0
  70
0
  0
VERTEX
  8
a
  10
20.79346
  20
13.79344
  30
0.0
  70
0
  0
VERTEX
  8
a
  10
20.66967
  20
13.68127
  30
0.0
  70
0
  0
VERTEX
  8
a
  10
20.54351
  20
13.57551
  30
0.0
  70
0
  0
VERTEX
  8
a
  10
20.41498
  20
13.47656
  30
0.0
  70
0
  0
VERTEX
  8
a
  10
20.28404
  20
13.38499
  30
0.0
  70
0
  0
VERTEX
  8
a
  10
20.15058
  20
13.30161
  30
0.0
  70
0
  0
VERTEX
  8
a
  10
20.01434
  20
13.22782
  30
0.0
  70
0
  0
VERTEX
  8
a
  10
19.94499
  20
13.19535
  30
0.0
  70
0
  0
VERTEX
  8
a
  10
19.87457
  20
13.16689
  30
0.0
  70
0
  0
VERTEX
  8
a
  10
19.8096
  20
13.11759
  30
0.0
  70
0
  0
VERTEX
  8
a
  10
19.77791
  20
13.08972
  30
0.0
  70
0
  0
VERTEX
  8
a
  10
19.74825
  20
13.05375
  30
0.0
  70
0
  0
VERTEX
  8
a
  10
19.82516
  20
12.54329
  30
0.0
  70
0
  0
VERTEX
  8
a
  10
19.82516
  20
12.54329
  30
0.0
  70
0
  0
VERTEX
  8
a
  10
19.94788
  20
12.04187
  30
0.0
  70
0
  0
VERTEX
  8
a
  10
19.98897
  20
12.01986
  30
0.0
  70
0
  0
VERTEX
  8
a
  10
20.02887
  20
12.00611
  30
0.0
  70
0
  0
VERTEX
  8
a
  10
20.1077
  20
11.98518
  30
0.0
  70
0
  0
VERTEX
  8
a
  10
20.18366
  20
11.98559
  30
0.0
  70
0
  0
VERTEX
  8
a
  10
20.26014
  20
11.9819
  30
0.0
  70
0
  0
VERTEX
  8
a
  10
20.41419
  20
11.96538
  30
0.0
  70
0
  0
VERTEX
  8
a
  10
20.56932
  20
11.93893
  30
0.0
  70
0
  0
VERTEX
  8
a
  10
20.72523
  20
11.90394
  30
0.0
  70
0
  0
VERTEX
  8
a
  10
20.88171
  20
11.86122
  30
0.0
  70
0
  0
VERTEX
  8
a
  10
21.03858
  20
11.8113
  30
0.0
  70
0
  0
VERTEX
  8
a
  10
21.19569
  20
11.75455
  30
0.0
  70
0
  0
VERTEX
  8
a
  10
21.3529
  20
11.69126
  30
0.0
  70
0
  0
VERTEX
  8
a
  10
21.47078
  20
11.63964
  30
0.0
  70
0
  0
VERTEX
  8
a
  10
21.50707
  20
10.6775
  30
0.0
  70
0
  0
VERTEX
  8
a
  10
21.39341
  20
10.61715
  30
0.0
  70
0
  0
VERTEX
  8
a
  10
21.24142
  20
10.54219
  30
0.0
  70
0
  0
VERTEX
  8
a
  10
21.08903
  20
10.47377
  30
0.0
  70
0
  0
VERTEX
  8
a
  10
20.93636
  20
10.41217
  30
0.0
  70
0
  0
VERTEX
  8
a
  10
20.78354
  20
10.35779
  30
0.0
  70
0
  0
VERTEX
  8
a
  10
20.63071
  20
10.31115
  30
0.0
  70
0
  0
VERTEX
  8
a
  10
20.47802
  20
10.2731
  30
0.0
  70
0
  0
VERTEX
  8
a
  10
20.32565
  20
10.24502
  30
0.0
  70
0
  0
VERTEX
  8
a
  10
20.24966
  20
10.23557
  30
0.0
  70
0
  0
VERTEX
  8
a
  10
20.17389
  20
10.23026
  30
0.0
  70
0
  0
VERTEX
  8
a
  10
20.09686
  20
10.20346
  30
0.0
  70
0
  0
VERTEX
  8
a
  10
20.05811
  20
10.18674
  30
0.0
  70
0
  0
VERTEX
  8
a
  10
20.01879
  20
10.1617
  30
0.0
  70
0
  0
VERTEX
  8
a
  10
19.93419
  20
9.65246
  30
0.0
  70
0
  0
SEQEND
  0
CIRCLE
  8
a
  10
10.75367
  20
10.75367
  30
0.0
  40
0.5
 0
LINE
 8
c
 10
19.14457
 20
6.86942
 30
0
 11
20.51245
 21
6.23621
 31
 0
 0
LINE
 8
c
 10
17.53359
 20
4.46659
 30
0
 11
18.63885
 21
3.44168
 31
 0
 0
LINE
 8
c
 10
15.25894
 20
2.67919
 30
0
 11
15.99339
 21
1.36289
 31
 0
 0
LINE
 8
c
 10
12.54329
 20
1.68218
 30
0
 11
12.83503
 21
0.20335
 31
 0
 0
LINE
 8
c
 10
9.65246
 20
1.57315
 30
0
 11
9.47294
 21
0.07654
 31
 0
 0
LINE
 8
c
 10
6.86942
 20
2.36277
 30
0
 11
6.23621
 21
0.99488
 31
 0
 0
LINE
 8
c
 10
4.46659
 20
3.97375
 30
0
 11
3.44168
 21
2.86848
 31
 0
 0
LINE
 8
c
 10
2.67919
 20
6.24839
 30
0
 11
1.36289
 21
5.51394
 31
 0
 0
LINE
 8
c
 10
1.68218
 20
8.96405
 30
0
 11
0.20335
 21
8.6723
 31
 0
 0
LINE
 8
c
 10
1.57315
 20
11.85488
 30
0
 11
0.07654
 21
12.0344
 31
 0
 0
LINE
 8
c
 10
2.36277
 20
14.63792
 30
0
 11
0.99488
 21
15.27113
 31
 0
 0
LINE
 8
c
 10
3.97375
 20
17.04074
 30
0
 11
2.86848
 21
18.06566
 31
 0
 0
LINE
 8
c
 10
6.24839
 20
18.82814
 30
0
 11
5.51394
 21
20.14444
 31
 0
 0
LINE
 8
c
 10
8.96405
 20
19.82516
 30
0
 11
8.6723
 21
21.30399
 31
 0
 0
LINE
 8
c
 10
11.85488
 20
19.93419
 30
0
 11
12.0344
 21
21.4308
 31
 0
 0
LINE
 8
c
 10
14.63792
 20
19.14457
 30
0
 11
15.27113
 21
20.51245
 31
 0
 0
LINE
 8
c
 10
17.04074
 20
17.53359
 30
0
 11
18.06566
 21
18.63885
 31
 0
 0
LINE
 8
c
 10
18.82814
 20
15.25894
 30
0
 11
20.14444
 21
15.99339
 31
 0
 0
LINE
 8
c
 10
19.82516
 20
12.54329
 30
0
 11
21.30399
 21
12.83503
 31
 0
 0
LINE
 8
c
 10
19.93419
 20
9.65246
 30
0
 11
21.4308
 21
9.47294
 31
 0
  0
CIRCLE
  8
c
  10
10.75367
  20
10.75367
  30
0.0
  40
10
 0
LINE
 8
a
 10
7.16911
 20
10.75367
 30
0
 11
14.33822
 21
10.75367
 31
 0
 0
LINE
 8
a
 10
10.75367
 20
7.16911
 30
0
 11
10.75367
 21
14.33822
 31
 0
  0
TEXT
  8
labels
  10
0.0
  20
0.0
  30
0.0
  40
0.1
  1
G1:Toothspacing=3.14  Teeth=20  Spur gear  Angle=20.0  Addendum=.2
  41
1.0
  7
ARIAL
  0
ENDSEC
  0
EOF
