  999
DXF file created by gear template generator. 2019-01-25T10:09:06
  999
G1:Toothspacing=3.14  Teeth=20  Spur gear  Angle=20.0  Addendum=.4
  0
SECTION
  2
HEADER
  9
$MEASUREMENT
  70
1
  0
ENDSEC
  0
SECTION
  2
TABLES
  0
TABLE
  2
LTYPE
  70
1
  0
LTYPE
  2
Continuous
  3
_
  70
0
  72
65
  73
0
  40
0.0
  0
ENDTAB
  0
TABLE
  2
LAYER
  70
4
  0
LAYER
  2
profile
  70
0
  62
7
  6
Continuous
  0
LAYER
  2
construction
  70
0
  62
5
  6
Continuous
  0
LAYER
  2
grid
  70
0
  62
3
  6
Continuous
  0
LAYER
  2
labels
  70
0
  62
1
  6
Continuous
  0
ENDTAB
  0
TABLE
  2
STYLE
  70
1
  0
STYLE
  2
ARIAL
  3
Arial.ttf
  70
0
  40
0.0
  41
1.0
  50
0.0
  71
0
  42
1.0
  0
ENDTAB
  0
ENDSEC
  0
SECTION
  2
ENTITIES
 0
LINE
 8
b
 10
0.16208
 20
0
 30
0
 11
0.16208
 21
22.32415
 31
 0
 0
LINE
 8
b
 10
1.16208
 20
0
 30
0
 11
1.16208
 21
22.32415
 31
 0
 0
LINE
 8
b
 10
2.16208
 20
0
 30
0
 11
2.16208
 21
22.32415
 31
 0
 0
LINE
 8
b
 10
3.16208
 20
0
 30
0
 11
3.16208
 21
22.32415
 31
 0
 0
LINE
 8
b
 10
4.16208
 20
0
 30
0
 11
4.16208
 21
22.32415
 31
 0
 0
LINE
 8
b
 10
5.16208
 20
0
 30
0
 11
5.16208
 21
22.32415
 31
 0
 0
LINE
 8
b
 10
6.16208
 20
0
 30
0
 11
6.16208
 21
22.32415
 31
 0
 0
LINE
 8
b
 10
7.16208
 20
0
 30
0
 11
7.16208
 21
22.32415
 31
 0
 0
LINE
 8
b
 10
8.16208
 20
0
 30
0
 11
8.16208
 21
22.32415
 31
 0
 0
LINE
 8
b
 10
9.16208
 20
0
 30
0
 11
9.16208
 21
22.32415
 31
 0
 0
LINE
 8
b
 10
10.16208
 20
0
 30
0
 11
10.16208
 21
22.32415
 31
 0
 0
LINE
 8
b
 10
11.16208
 20
0
 30
0
 11
11.16208
 21
22.32415
 31
 0
 0
LINE
 8
b
 10
12.16208
 20
0
 30
0
 11
12.16208
 21
22.32415
 31
 0
 0
LINE
 8
b
 10
13.16208
 20
0
 30
0
 11
13.16208
 21
22.32415
 31
 0
 0
LINE
 8
b
 10
14.16208
 20
0
 30
0
 11
14.16208
 21
22.32415
 31
 0
 0
LINE
 8
b
 10
15.16208
 20
0
 30
0
 11
15.16208
 21
22.32415
 31
 0
 0
LINE
 8
b
 10
16.16208
 20
0
 30
0
 11
16.16208
 21
22.32415
 31
 0
 0
LINE
 8
b
 10
17.16208
 20
0
 30
0
 11
17.16208
 21
22.32415
 31
 0
 0
LINE
 8
b
 10
18.16208
 20
0
 30
0
 11
18.16208
 21
22.32415
 31
 0
 0
LINE
 8
b
 10
19.16208
 20
0
 30
0
 11
19.16208
 21
22.32415
 31
 0
 0
LINE
 8
b
 10
20.16208
 20
0
 30
0
 11
20.16208
 21
22.32415
 31
 0
 0
LINE
 8
b
 10
21.16208
 20
0
 30
0
 11
21.16208
 21
22.32415
 31
 0
 0
LINE
 8
b
 10
22.16208
 20
0
 30
0
 11
22.16208
 21
22.32415
 31
 0
 0
LINE
 8
b
 10
0
 20
0.16208
 30
0
 11
22.32415
 21
0.16208
 31
 0
 0
LINE
 8
b
 10
0
 20
1.16208
 30
0
 11
22.32415
 21
1.16208
 31
 0
 0
LINE
 8
b
 10
0
 20
2.16208
 30
0
 11
22.32415
 21
2.16208
 31
 0
 0
LINE
 8
b
 10
0
 20
3.16208
 30
0
 11
22.32415
 21
3.16208
 31
 0
 0
LINE
 8
b
 10
0
 20
4.16208
 30
0
 11
22.32415
 21
4.16208
 31
 0
 0
LINE
 8
b
 10
0
 20
5.16208
 30
0
 11
22.32415
 21
5.16208
 31
 0
 0
LINE
 8
b
 10
0
 20
6.16208
 30
0
 11
22.32415
 21
6.16208
 31
 0
 0
LINE
 8
b
 10
0
 20
7.16208
 30
0
 11
22.32415
 21
7.16208
 31
 0
 0
LINE
 8
b
 10
0
 20
8.16208
 30
0
 11
22.32415
 21
8.16208
 31
 0
 0
LINE
 8
b
 10
0
 20
9.16208
 30
0
 11
22.32415
 21
9.16208
 31
 0
 0
LINE
 8
b
 10
0
 20
10.16208
 30
0
 11
22.32415
 21
10.16208
 31
 0
 0
LINE
 8
b
 10
0
 20
11.16208
 30
0
 11
22.32415
 21
11.16208
 31
 0
 0
LINE
 8
b
 10
0
 20
12.16208
 30
0
 11
22.32415
 21
12.16208
 31
 0
 0
LINE
 8
b
 10
0
 20
13.16208
 30
0
 11
22.32415
 21
13.16208
 31
 0
 0
LINE
 8
b
 10
0
 20
14.16208
 30
0
 11
22.32415
 21
14.16208
 31
 0
 0
LINE
 8
b
 10
0
 20
15.16208
 30
0
 11
22.32415
 21
15.16208
 31
 0
 0
LINE
 8
b
 10
0
 20
16.16208
 30
0
 11
22.32415
 21
16.16208
 31
 0
 0
LINE
 8
b
 10
0
 20
17.16208
 30
0
 11
22.32415
 21
17.16208
 31
 0
 0
LINE
 8
b
 10
0
 20
18.16208
 30
0
 11
22.32415
 21
18.16208
 31
 0
 0
LINE
 8
b
 10
0
 20
19.16208
 30
0
 11
22.32415
 21
19.16208
 31
 0
 0
LINE
 8
b
 10
0
 20
20.16208
 30
0
 11
22.32415
 21
20.16208
 31
 0
 0
LINE
 8
b
 10
0
 20
21.16208
 30
0
 11
22.32415
 21
21.16208
 31
 0
 0
LINE
 8
b
 10
0
 20
22.16208
 30
0
 11
22.32415
 21
22.16208
 31
 0
  0
POLYLINE
  8
a
  66
1
  10
0.0
  20
0.0
  70
1
  0
VERTEX
  8
a
  10
19.89119
  20
12.54463
  30
0.0
  70
0
  0
VERTEX
  8
a
  10
19.9791
  20
12.18927
  30
0.0
  70
0
  0
VERTEX
  8
a
  10
20.02251
  20
12.15046
  30
0.0
  70
0
  0
VERTEX
  8
a
  10
20.06443
  20
12.1236
  30
0.0
  70
0
  0
VERTEX
  8
a
  10
20.10556
  20
12.10324
  30
0.0
  70
0
  0
VERTEX
  8
a
  10
20.14617
  20
12.08723
  30
0.0
  70
0
  0
VERTEX
  8
a
  10
20.22637
  20
12.06422
  30
0.0
  70
0
  0
VERTEX
  8
a
  10
20.30563
  20
12.04981
  30
0.0
  70
0
  0
VERTEX
  8
a
  10
20.38424
  20
12.04174
  30
0.0
  70
0
  0
VERTEX
  8
a
  10
20.46234
  20
12.03874
  30
0.0
  70
0
  0
VERTEX
  8
a
  10
20.61798
  20
12.0385
  30
0.0
  70
0
  0
VERTEX
  8
a
  10
20.775
  20
12.02274
  30
0.0
  70
0
  0
VERTEX
  8
a
  10
20.93296
  20
11.99494
  30
0.0
  70
0
  0
VERTEX
  8
a
  10
21.09154
  20
11.95742
  30
0.0
  70
0
  0
VERTEX
  8
a
  10
21.2505
  20
11.91132
  30
0.0
  70
0
  0
VERTEX
  8
a
  10
21.40967
  20
11.85735
  30
0.0
  70
0
  0
VERTEX
  8
a
  10
21.56888
  20
11.796
  30
0.0
  70
0
  0
VERTEX
  8
a
  10
21.72799
  20
11.72762
  30
0.0
  70
0
  0
VERTEX
  8
a
  10
21.88685
  20
11.65248
  30
0.0
  70
0
  0
VERTEX
  8
a
  10
22.04533
  20
11.57079
  30
0.0
  70
0
  0
VERTEX
  8
a
  10
22.20329
  20
11.48273
  30
0.0
  70
0
  0
VERTEX
  8
a
  10
22.32134
  20
11.4126
  30
0.0
  70
0
  0
VERTEX
  8
a
  10
22.32134
  20
10.91155
  30
0.0
  70
0
  0
VERTEX
  8
a
  10
22.20329
  20
10.84142
  30
0.0
  70
0
  0
VERTEX
  8
a
  10
22.04533
  20
10.75336
  30
0.0
  70
0
  0
VERTEX
  8
a
  10
21.88685
  20
10.67167
  30
0.0
  70
0
  0
VERTEX
  8
a
  10
21.72799
  20
10.59653
  30
0.0
  70
0
  0
VERTEX
  8
a
  10
21.56888
  20
10.52815
  30
0.0
  70
0
  0
VERTEX
  8
a
  10
21.40967
  20
10.4668
  30
0.0
  70
0
  0
VERTEX
  8
a
  10
21.2505
  20
10.41283
  30
0.0
  70
0
  0
VERTEX
  8
a
  10
21.09154
  20
10.36673
  30
0.0
  70
0
  0
VERTEX
  8
a
  10
20.93296
  20
10.32921
  30
0.0
  70
0
  0
VERTEX
  8
a
  10
20.775
  20
10.30141
  30
0.0
  70
0
  0
VERTEX
  8
a
  10
20.61798
  20
10.28565
  30
0.0
  70
0
  0
VERTEX
  8
a
  10
20.46234
  20
10.28541
  30
0.0
  70
0
  0
VERTEX
  8
a
  10
20.38424
  20
10.28241
  30
0.0
  70
0
  0
VERTEX
  8
a
  10
20.30563
  20
10.27434
  30
0.0
  70
0
  0
VERTEX
  8
a
  10
20.22637
  20
10.25993
  30
0.0
  70
0
  0
VERTEX
  8
a
  10
20.14617
  20
10.23692
  30
0.0
  70
0
  0
VERTEX
  8
a
  10
20.10556
  20
10.22091
  30
0.0
  70
0
  0
VERTEX
  8
a
  10
20.06443
  20
10.20055
  30
0.0
  70
0
  0
VERTEX
  8
a
  10
20.02251
  20
10.17369
  30
0.0
  70
0
  0
VERTEX
  8
a
  10
19.9791
  20
10.13488
  30
0.0
  70
0
  0
VERTEX
  8
a
  10
19.89119
  20
9.77952
  30
0.0
  70
0
  0
VERTEX
  8
a
  10
19.89119
  20
9.77952
  30
0.0
  70
0
  0
VERTEX
  8
a
  10
19.86499
  20
9.41439
  30
0.0
  70
0
  0
VERTEX
  8
a
  10
19.89428
  20
9.36406
  30
0.0
  70
0
  0
VERTEX
  8
a
  10
19.92585
  20
9.32556
  30
0.0
  70
0
  0
VERTEX
  8
a
  10
19.95867
  20
9.29349
  30
0.0
  70
0
  0
VERTEX
  8
a
  10
19.99235
  20
9.26571
  30
0.0
  70
0
  0
VERTEX
  8
a
  10
20.06151
  20
9.21905
  30
0.0
  70
0
  0
VERTEX
  8
a
  10
20.13244
  20
9.18085
  30
0.0
  70
0
  0
VERTEX
  8
a
  10
20.2047
  20
9.14888
  30
0.0
  70
0
  0
VERTEX
  8
a
  10
20.27806
  20
9.12189
  30
0.0
  70
0
  0
VERTEX
  8
a
  10
20.42601
  20
9.07357
  30
0.0
  70
0
  0
VERTEX
  8
a
  10
20.57047
  20
9.01005
  30
0.0
  70
0
  0
VERTEX
  8
a
  10
20.71211
  20
8.93481
  30
0.0
  70
0
  0
VERTEX
  8
a
  10
20.85133
  20
8.85012
  30
0.0
  70
0
  0
VERTEX
  8
a
  10
20.98827
  20
8.75716
  30
0.0
  70
0
  0
VERTEX
  8
a
  10
21.12297
  20
8.65664
  30
0.0
  70
0
  0
VERTEX
  8
a
  10
21.25543
  20
8.5491
  30
0.0
  70
0
  0
VERTEX
  8
a
  10
21.38562
  20
8.4349
  30
0.0
  70
0
  0
VERTEX
  8
a
  10
21.51349
  20
8.31434
  30
0.0
  70
0
  0
VERTEX
  8
a
  10
21.63896
  20
8.18768
  30
0.0
  70
0
  0
VERTEX
  8
a
  10
21.76198
  20
8.05512
  30
0.0
  70
0
  0
VERTEX
  8
a
  10
21.85258
  20
7.95193
  30
0.0
  70
0
  0
VERTEX
  8
a
  10
21.69775
  20
7.47541
  30
0.0
  70
0
  0
VERTEX
  8
a
  10
21.5638
  20
7.44519
  30
0.0
  70
0
  0
VERTEX
  8
a
  10
21.38636
  20
7.41025
  30
0.0
  70
0
  0
VERTEX
  8
a
  10
21.2104
  20
7.38153
  30
0.0
  70
0
  0
VERTEX
  8
a
  10
21.03609
  20
7.35916
  30
0.0
  70
0
  0
VERTEX
  8
a
  10
20.86364
  20
7.34329
  30
0.0
  70
0
  0
VERTEX
  8
a
  10
20.69326
  20
7.33415
  30
0.0
  70
0
  0
VERTEX
  8
a
  10
20.52521
  20
7.33201
  30
0.0
  70
0
  0
VERTEX
  8
a
  10
20.35978
  20
7.33729
  30
0.0
  70
0
  0
VERTEX
  8
a
  10
20.19737
  20
7.3506
  30
0.0
  70
0
  0
VERTEX
  8
a
  10
20.03855
  20
7.37298
  30
0.0
  70
0
  0
VERTEX
  8
a
  10
19.88434
  20
7.40651
  30
0.0
  70
0
  0
VERTEX
  8
a
  10
19.73625
  20
7.45438
  30
0.0
  70
0
  0
VERTEX
  8
a
  10
19.66104
  20
7.47566
  30
0.0
  70
0
  0
VERTEX
  8
a
  10
19.58379
  20
7.49228
  30
0.0
  70
0
  0
VERTEX
  8
a
  10
19.50395
  20
7.50306
  30
0.0
  70
0
  0
VERTEX
  8
a
  10
19.42057
  20
7.50596
  30
0.0
  70
0
  0
VERTEX
  8
a
  10
19.377
  20
7.50328
  30
0.0
  70
0
  0
VERTEX
  8
a
  10
19.33159
  20
7.49663
  30
0.0
  70
0
  0
VERTEX
  8
a
  10
19.28343
  20
7.48404
  30
0.0
  70
0
  0
VERTEX
  8
a
  10
19.23015
  20
7.46054
  30
0.0
  70
0
  0
VERTEX
  8
a
  10
19.03672
  20
7.14974
  30
0.0
  70
0
  0
VERTEX
  8
a
  10
19.03672
  20
7.14974
  30
0.0
  70
0
  0
VERTEX
  8
a
  10
18.89897
  20
6.81058
  30
0.0
  70
0
  0
VERTEX
  8
a
  10
18.91128
  20
6.75366
  30
0.0
  70
0
  0
VERTEX
  8
a
  10
18.92941
  20
6.7073
  30
0.0
  70
0
  0
VERTEX
  8
a
  10
18.95071
  20
6.66665
  30
0.0
  70
0
  0
VERTEX
  8
a
  10
18.97415
  20
6.62982
  30
0.0
  70
0
  0
VERTEX
  8
a
  10
19.02551
  20
6.56407
  30
0.0
  70
0
  0
VERTEX
  8
a
  10
19.08116
  20
6.50582
  30
0.0
  70
0
  0
VERTEX
  8
a
  10
19.14001
  20
6.45309
  30
0.0
  70
0
  0
VERTEX
  8
a
  10
19.20144
  20
6.40476
  30
0.0
  70
0
  0
VERTEX
  8
a
  10
19.32721
  20
6.31308
  30
0.0
  70
0
  0
VERTEX
  8
a
  10
19.44498
  20
6.20803
  30
0.0
  70
0
  0
VERTEX
  8
a
  10
19.55644
  20
6.09269
  30
0.0
  70
0
  0
VERTEX
  8
a
  10
19.66267
  20
5.96913
  30
0.0
  70
0
  0
VERTEX
  8
a
  10
19.76418
  20
5.8384
  30
0.0
  70
0
  0
VERTEX
  8
a
  10
19.86123
  20
5.70118
  30
0.0
  70
0
  0
VERTEX
  8
a
  10
19.95397
  20
5.55797
  30
0.0
  70
0
  0
VERTEX
  8
a
  10
20.0425
  20
5.40912
  30
0.0
  70
0
  0
VERTEX
  8
a
  10
20.12685
  20
5.25496
  30
0.0
  70
0
  0
VERTEX
  8
a
  10
20.20705
  20
5.09572
  30
0.0
  70
0
  0
VERTEX
  8
a
  10
20.28308
  20
4.93163
  30
0.0
  70
0
  0
VERTEX
  8
a
  10
20.33736
  20
4.8055
  30
0.0
  70
0
  0
VERTEX
  8
a
  10
20.04286
  20
4.40015
  30
0.0
  70
0
  0
VERTEX
  8
a
  10
19.90612
  20
4.41279
  30
0.0
  70
0
  0
VERTEX
  8
a
  10
19.72657
  20
4.4344
  30
0.0
  70
0
  0
VERTEX
  8
a
  10
19.55035
  20
4.46146
  30
0.0
  70
0
  0
VERTEX
  8
a
  10
19.37766
  20
4.49405
  30
0.0
  70
0
  0
VERTEX
  8
a
  10
19.20874
  20
4.53225
  30
0.0
  70
0
  0
VERTEX
  8
a
  10
19.04388
  20
4.5762
  30
0.0
  70
0
  0
VERTEX
  8
a
  10
18.88339
  20
4.6261
  30
0.0
  70
0
  0
VERTEX
  8
a
  10
18.72769
  20
4.68224
  30
0.0
  70
0
  0
VERTEX
  8
a
  10
18.57734
  20
4.74509
  30
0.0
  70
0
  0
VERTEX
  8
a
  10
18.43321
  20
4.81545
  30
0.0
  70
0
  0
VERTEX
  8
a
  10
18.29691
  20
4.89499
  30
0.0
  70
0
  0
VERTEX
  8
a
  10
18.17086
  20
4.98628
  30
0.0
  70
0
  0
VERTEX
  8
a
  10
18.10591
  20
5.02976
  30
0.0
  70
0
  0
VERTEX
  8
a
  10
18.03757
  20
5.06944
  30
0.0
  70
0
  0
VERTEX
  8
a
  10
17.96497
  20
5.10436
  30
0.0
  70
0
  0
VERTEX
  8
a
  10
17.88657
  20
5.13289
  30
0.0
  70
0
  0
VERTEX
  8
a
  10
17.8443
  20
5.14381
  30
0.0
  70
0
  0
VERTEX
  8
a
  10
17.79906
  20
5.15151
  30
0.0
  70
0
  0
VERTEX
  8
a
  10
17.74936
  20
5.15442
  30
0.0
  70
0
  0
VERTEX
  8
a
  10
17.69143
  20
5.14854
  30
0.0
  70
0
  0
VERTEX
  8
a
  10
17.41143
  20
4.91272
  30
0.0
  70
0
  0
VERTEX
  8
a
  10
17.41143
  20
4.91272
  30
0.0
  70
0
  0
VERTEX
  8
a
  10
17.17561
  20
4.63272
  30
0.0
  70
0
  0
VERTEX
  8
a
  10
17.16973
  20
4.57479
  30
0.0
  70
0
  0
VERTEX
  8
a
  10
17.17264
  20
4.52509
  30
0.0
  70
0
  0
VERTEX
  8
a
  10
17.18034
  20
4.47985
  30
0.0
  70
0
  0
VERTEX
  8
a
  10
17.19126
  20
4.43758
  30
0.0
  70
0
  0
VERTEX
  8
a
  10
17.21979
  20
4.35918
  30
0.0
  70
0
  0
VERTEX
  8
a
  10
17.25471
  20
4.28658
  30
0.0
  70
0
  0
VERTEX
  8
a
  10
17.29439
  20
4.21824
  30
0.0
  70
0
  0
VERTEX
  8
a
  10
17.33787
  20
4.1533
  30
0.0
  70
0
  0
VERTEX
  8
a
  10
17.42916
  20
4.02724
  30
0.0
  70
0
  0
VERTEX
  8
a
  10
17.5087
  20
3.89094
  30
0.0
  70
0
  0
VERTEX
  8
a
  10
17.57906
  20
3.74681
  30
0.0
  70
0
  0
VERTEX
  8
a
  10
17.64191
  20
3.59646
  30
0.0
  70
0
  0
VERTEX
  8
a
  10
17.69805
  20
3.44076
  30
0.0
  70
0
  0
VERTEX
  8
a
  10
17.74795
  20
3.28027
  30
0.0
  70
0
  0
VERTEX
  8
a
  10
17.7919
  20
3.11541
  30
0.0
  70
0
  0
VERTEX
  8
a
  10
17.8301
  20
2.94649
  30
0.0
  70
0
  0
VERTEX
  8
a
  10
17.86269
  20
2.7738
  30
0.0
  70
0
  0
VERTEX
  8
a
  10
17.88975
  20
2.59758
  30
0.0
  70
0
  0
VERTEX
  8
a
  10
17.91136
  20
2.41803
  30
0.0
  70
0
  0
VERTEX
  8
a
  10
17.924
  20
2.28129
  30
0.0
  70
0
  0
VERTEX
  8
a
  10
17.51865
  20
1.98679
  30
0.0
  70
0
  0
VERTEX
  8
a
  10
17.39252
  20
2.04107
  30
0.0
  70
0
  0
VERTEX
  8
a
  10
17.22843
  20
2.1171
  30
0.0
  70
0
  0
VERTEX
  8
a
  10
17.06919
  20
2.1973
  30
0.0
  70
0
  0
VERTEX
  8
a
  10
16.91503
  20
2.28165
  30
0.0
  70
0
  0
VERTEX
  8
a
  10
16.76618
  20
2.37018
  30
0.0
  70
0
  0
VERTEX
  8
a
  10
16.62297
  20
2.46292
  30
0.0
  70
0
  0
VERTEX
  8
a
  10
16.48575
  20
2.55997
  30
0.0
  70
0
  0
VERTEX
  8
a
  10
16.35502
  20
2.66148
  30
0.0
  70
0
  0
VERTEX
  8
a
  10
16.23146
  20
2.76771
  30
0.0
  70
0
  0
VERTEX
  8
a
  10
16.11612
  20
2.87917
  30
0.0
  70
0
  0
VERTEX
  8
a
  10
16.01107
  20
2.99694
  30
0.0
  70
0
  0
VERTEX
  8
a
  10
15.9194
  20
3.12271
  30
0.0
  70
0
  0
VERTEX
  8
a
  10
15.87106
  20
3.18414
  30
0.0
  70
0
  0
VERTEX
  8
a
  10
15.81833
  20
3.24299
  30
0.0
  70
0
  0
VERTEX
  8
a
  10
15.76008
  20
3.29864
  30
0.0
  70
0
  0
VERTEX
  8
a
  10
15.69433
  20
3.35
  30
0.0
  70
0
  0
VERTEX
  8
a
  10
15.6575
  20
3.37344
  30
0.0
  70
0
  0
VERTEX
  8
a
  10
15.61685
  20
3.39474
  30
0.0
  70
0
  0
VERTEX
  8
a
  10
15.57049
  20
3.41287
  30
0.0
  70
0
  0
VERTEX
  8
a
  10
15.51357
  20
3.42518
  30
0.0
  70
0
  0
VERTEX
  8
a
  10
15.17441
  20
3.28743
  30
0.0
  70
0
  0
VERTEX
  8
a
  10
15.17441
  20
3.28743
  30
0.0
  70
0
  0
VERTEX
  8
a
  10
14.86361
  20
3.094
  30
0.0
  70
0
  0
VERTEX
  8
a
  10
14.84011
  20
3.04072
  30
0.0
  70
0
  0
VERTEX
  8
a
  10
14.82752
  20
2.99256
  30
0.0
  70
0
  0
VERTEX
  8
a
  10
14.82087
  20
2.94715
  30
0.0
  70
0
  0
VERTEX
  8
a
  10
14.81819
  20
2.90358
  30
0.0
  70
0
  0
VERTEX
  8
a
  10
14.82109
  20
2.8202
  30
0.0
  70
0
  0
VERTEX
  8
a
  10
14.83187
  20
2.74036
  30
0.0
  70
0
  0
VERTEX
  8
a
  10
14.84849
  20
2.66311
  30
0.0
  70
0
  0
VERTEX
  8
a
  10
14.86977
  20
2.5879
  30
0.0
  70
0
  0
VERTEX
  8
a
  10
14.91764
  20
2.43981
  30
0.0
  70
0
  0
VERTEX
  8
a
  10
14.95117
  20
2.2856
  30
0.0
  70
0
  0
VERTEX
  8
a
  10
14.97355
  20
2.12678
  30
0.0
  70
0
  0
VERTEX
  8
a
  10
14.98686
  20
1.96437
  30
0.0
  70
0
  0
VERTEX
  8
a
  10
14.99214
  20
1.79894
  30
0.0
  70
0
  0
VERTEX
  8
a
  10
14.99
  20
1.63089
  30
0.0
  70
0
  0
VERTEX
  8
a
  10
14.98086
  20
1.46051
  30
0.0
  70
0
  0
VERTEX
  8
a
  10
14.96499
  20
1.28806
  30
0.0
  70
0
  0
VERTEX
  8
a
  10
14.94262
  20
1.11375
  30
0.0
  70
0
  0
VERTEX
  8
a
  10
14.9139
  20
0.93779
  30
0.0
  70
0
  0
VERTEX
  8
a
  10
14.87896
  20
0.76035
  30
0.0
  70
0
  0
VERTEX
  8
a
  10
14.84874
  20
0.6264
  30
0.0
  70
0
  0
VERTEX
  8
a
  10
14.37222
  20
0.47157
  30
0.0
  70
0
  0
VERTEX
  8
a
  10
14.26903
  20
0.56217
  30
0.0
  70
0
  0
VERTEX
  8
a
  10
14.13647
  20
0.68519
  30
0.0
  70
0
  0
VERTEX
  8
a
  10
14.00981
  20
0.81066
  30
0.0
  70
0
  0
VERTEX
  8
a
  10
13.88926
  20
0.93853
  30
0.0
  70
0
  0
VERTEX
  8
a
  10
13.77505
  20
1.06872
  30
0.0
  70
0
  0
VERTEX
  8
a
  10
13.66751
  20
1.20118
  30
0.0
  70
0
  0
VERTEX
  8
a
  10
13.56699
  20
1.33588
  30
0.0
  70
0
  0
VERTEX
  8
a
  10
13.47403
  20
1.47282
  30
0.0
  70
0
  0
VERTEX
  8
a
  10
13.38934
  20
1.61204
  30
0.0
  70
0
  0
VERTEX
  8
a
  10
13.3141
  20
1.75368
  30
0.0
  70
0
  0
VERTEX
  8
a
  10
13.25058
  20
1.89814
  30
0.0
  70
0
  0
VERTEX
  8
a
  10
13.20226
  20
2.04609
  30
0.0
  70
0
  0
VERTEX
  8
a
  10
13.17527
  20
2.11945
  30
0.0
  70
0
  0
VERTEX
  8
a
  10
13.14331
  20
2.19171
  30
0.0
  70
0
  0
VERTEX
  8
a
  10
13.1051
  20
2.26264
  30
0.0
  70
0
  0
VERTEX
  8
a
  10
13.05844
  20
2.3318
  30
0.0
  70
0
  0
VERTEX
  8
a
  10
13.03066
  20
2.36548
  30
0.0
  70
0
  0
VERTEX
  8
a
  10
12.99859
  20
2.3983
  30
0.0
  70
0
  0
VERTEX
  8
a
  10
12.96009
  20
2.42987
  30
0.0
  70
0
  0
VERTEX
  8
a
  10
12.90976
  20
2.45916
  30
0.0
  70
0
  0
VERTEX
  8
a
  10
12.54463
  20
2.43296
  30
0.0
  70
0
  0
VERTEX
  8
a
  10
12.54463
  20
2.43296
  30
0.0
  70
0
  0
VERTEX
  8
a
  10
12.18927
  20
2.34505
  30
0.0
  70
0
  0
VERTEX
  8
a
  10
12.15046
  20
2.30164
  30
0.0
  70
0
  0
VERTEX
  8
a
  10
12.1236
  20
2.25972
  30
0.0
  70
0
  0
VERTEX
  8
a
  10
12.10324
  20
2.21859
  30
0.0
  70
0
  0
VERTEX
  8
a
  10
12.08723
  20
2.17798
  30
0.0
  70
0
  0
VERTEX
  8
a
  10
12.06422
  20
2.09778
  30
0.0
  70
0
  0
VERTEX
  8
a
  10
12.04981
  20
2.01852
  30
0.0
  70
0
  0
VERTEX
  8
a
  10
12.04174
  20
1.93991
  30
0.0
  70
0
  0
VERTEX
  8
a
  10
12.03874
  20
1.86181
  30
0.0
  70
0
  0
VERTEX
  8
a
  10
12.0385
  20
1.70617
  30
0.0
  70
0
  0
VERTEX
  8
a
  10
12.02274
  20
1.54915
  30
0.0
  70
0
  0
VERTEX
  8
a
  10
11.99494
  20
1.39119
  30
0.0
  70
0
  0
VERTEX
  8
a
  10
11.95742
  20
1.23261
  30
0.0
  70
0
  0
VERTEX
  8
a
  10
11.91132
  20
1.07365
  30
0.0
  70
0
  0
VERTEX
  8
a
  10
11.85735
  20
0.91448
  30
0.0
  70
0
  0
VERTEX
  8
a
  10
11.796
  20
0.75527
  30
0.0
  70
0
  0
VERTEX
  8
a
  10
11.72762
  20
0.59616
  30
0.0
  70
0
  0
VERTEX
  8
a
  10
11.65248
  20
0.4373
  30
0.0
  70
0
  0
VERTEX
  8
a
  10
11.57079
  20
0.27882
  30
0.0
  70
0
  0
VERTEX
  8
a
  10
11.48273
  20
0.12086
  30
0.0
  70
0
  0
VERTEX
  8
a
  10
11.4126
  20
0.00281
  30
0.0
  70
0
  0
VERTEX
  8
a
  10
10.91155
  20
0.00281
  30
0.0
  70
0
  0
VERTEX
  8
a
  10
10.84142
  20
0.12086
  30
0.0
  70
0
  0
VERTEX
  8
a
  10
10.75336
  20
0.27882
  30
0.0
  70
0
  0
VERTEX
  8
a
  10
10.67167
  20
0.4373
  30
0.0
  70
0
  0
VERTEX
  8
a
  10
10.59653
  20
0.59616
  30
0.0
  70
0
  0
VERTEX
  8
a
  10
10.52815
  20
0.75527
  30
0.0
  70
0
  0
VERTEX
  8
a
  10
10.4668
  20
0.91448
  30
0.0
  70
0
  0
VERTEX
  8
a
  10
10.41283
  20
1.07365
  30
0.0
  70
0
  0
VERTEX
  8
a
  10
10.36673
  20
1.23261
  30
0.0
  70
0
  0
VERTEX
  8
a
  10
10.32921
  20
1.39119
  30
0.0
  70
0
  0
VERTEX
  8
a
  10
10.30141
  20
1.54915
  30
0.0
  70
0
  0
VERTEX
  8
a
  10
10.28565
  20
1.70617
  30
0.0
  70
0
  0
VERTEX
  8
a
  10
10.28541
  20
1.86181
  30
0.0
  70
0
  0
VERTEX
  8
a
  10
10.28241
  20
1.93991
  30
0.0
  70
0
  0
VERTEX
  8
a
  10
10.27434
  20
2.01852
  30
0.0
  70
0
  0
VERTEX
  8
a
  10
10.25993
  20
2.09778
  30
0.0
  70
0
  0
VERTEX
  8
a
  10
10.23692
  20
2.17798
  30
0.0
  70
0
  0
VERTEX
  8
a
  10
10.22091
  20
2.21859
  30
0.0
  70
0
  0
VERTEX
  8
a
  10
10.20055
  20
2.25972
  30
0.0
  70
0
  0
VERTEX
  8
a
  10
10.17369
  20
2.30164
  30
0.0
  70
0
  0
VERTEX
  8
a
  10
10.13488
  20
2.34505
  30
0.0
  70
0
  0
VERTEX
  8
a
  10
9.77952
  20
2.43296
  30
0.0
  70
0
  0
VERTEX
  8
a
  10
9.77952
  20
2.43296
  30
0.0
  70
0
  0
VERTEX
  8
a
  10
9.41439
  20
2.45916
  30
0.0
  70
0
  0
VERTEX
  8
a
  10
9.36406
  20
2.42987
  30
0.0
  70
0
  0
VERTEX
  8
a
  10
9.32556
  20
2.3983
  30
0.0
  70
0
  0
VERTEX
  8
a
  10
9.29349
  20
2.36548
  30
0.0
  70
0
  0
VERTEX
  8
a
  10
9.26571
  20
2.3318
  30
0.0
  70
0
  0
VERTEX
  8
a
  10
9.21905
  20
2.26264
  30
0.0
  70
0
  0
VERTEX
  8
a
  10
9.18085
  20
2.19171
  30
0.0
  70
0
  0
VERTEX
  8
a
  10
9.14888
  20
2.11945
  30
0.0
  70
0
  0
VERTEX
  8
a
  10
9.12189
  20
2.04609
  30
0.0
  70
0
  0
VERTEX
  8
a
  10
9.07357
  20
1.89814
  30
0.0
  70
0
  0
VERTEX
  8
a
  10
9.01005
  20
1.75368
  30
0.0
  70
0
  0
VERTEX
  8
a
  10
8.93481
  20
1.61204
  30
0.0
  70
0
  0
VERTEX
  8
a
  10
8.85012
  20
1.47282
  30
0.0
  70
0
  0
VERTEX
  8
a
  10
8.75716
  20
1.33588
  30
0.0
  70
0
  0
VERTEX
  8
a
  10
8.65664
  20
1.20118
  30
0.0
  70
0
  0
VERTEX
  8
a
  10
8.5491
  20
1.06872
  30
0.0
  70
0
  0
VERTEX
  8
a
  10
8.4349
  20
0.93853
  30
0.0
  70
0
  0
VERTEX
  8
a
  10
8.31434
  20
0.81066
  30
0.0
  70
0
  0
VERTEX
  8
a
  10
8.18768
  20
0.68519
  30
0.0
  70
0
  0
VERTEX
  8
a
  10
8.05512
  20
0.56217
  30
0.0
  70
0
  0
VERTEX
  8
a
  10
7.95193
  20
0.47157
  30
0.0
  70
0
  0
VERTEX
  8
a
  10
7.47541
  20
0.6264
  30
0.0
  70
0
  0
VERTEX
  8
a
  10
7.44519
  20
0.76035
  30
0.0
  70
0
  0
VERTEX
  8
a
  10
7.41025
  20
0.93779
  30
0.0
  70
0
  0
VERTEX
  8
a
  10
7.38153
  20
1.11375
  30
0.0
  70
0
  0
VERTEX
  8
a
  10
7.35916
  20
1.28806
  30
0.0
  70
0
  0
VERTEX
  8
a
  10
7.34329
  20
1.46051
  30
0.0
  70
0
  0
VERTEX
  8
a
  10
7.33415
  20
1.63089
  30
0.0
  70
0
  0
VERTEX
  8
a
  10
7.33201
  20
1.79894
  30
0.0
  70
0
  0
VERTEX
  8
a
  10
7.33729
  20
1.96437
  30
0.0
  70
0
  0
VERTEX
  8
a
  10
7.3506
  20
2.12678
  30
0.0
  70
0
  0
VERTEX
  8
a
  10
7.37298
  20
2.2856
  30
0.0
  70
0
  0
VERTEX
  8
a
  10
7.40651
  20
2.43981
  30
0.0
  70
0
  0
VERTEX
  8
a
  10
7.45438
  20
2.5879
  30
0.0
  70
0
  0
VERTEX
  8
a
  10
7.47566
  20
2.66311
  30
0.0
  70
0
  0
VERTEX
  8
a
  10
7.49228
  20
2.74036
  30
0.0
  70
0
  0
VERTEX
  8
a
  10
7.50306
  20
2.8202
  30
0.0
  70
0
  0
VERTEX
  8
a
  10
7.50596
  20
2.90358
  30
0.0
  70
0
  0
VERTEX
  8
a
  10
7.50328
  20
2.94715
  30
0.0
  70
0
  0
VERTEX
  8
a
  10
7.49663
  20
2.99256
  30
0.0
  70
0
  0
VERTEX
  8
a
  10
7.48404
  20
3.04072
  30
0.0
  70
0
  0
VERTEX
  8
a
  10
7.46054
  20
3.094
  30
0.0
  70
0
  0
VERTEX
  8
a
  10
7.14974
  20
3.28743
  30
0.0
  70
0
  0
VERTEX
  8
a
  10
7.14974
  20
3.28743
  30
0.0
  70
0
  0
VERTEX
  8
a
  10
6.81058
  20
3.42518
  30
0.0
  70
0
  0
VERTEX
  8
a
  10
6.75366
  20
3.41287
  30
0.0
  70
0
  0
VERTEX
  8
a
  10
6.7073
  20
3.39474
  30
0.0
  70
0
  0
VERTEX
  8
a
  10
6.66665
  20
3.37344
  30
0.0
  70
0
  0
VERTEX
  8
a
  10
6.62982
  20
3.35
  30
0.0
  70
0
  0
VERTEX
  8
a
  10
6.56407
  20
3.29864
  30
0.0
  70
0
  0
VERTEX
  8
a
  10
6.50582
  20
3.24299
  30
0.0
  70
0
  0
VERTEX
  8
a
  10
6.45309
  20
3.18414
  30
0.0
  70
0
  0
VERTEX
  8
a
  10
6.40476
  20
3.12271
  30
0.0
  70
0
  0
VERTEX
  8
a
  10
6.31308
  20
2.99694
  30
0.0
  70
0
  0
VERTEX
  8
a
  10
6.20803
  20
2.87917
  30
0.0
  70
0
  0
VERTEX
  8
a
  10
6.09269
  20
2.76771
  30
0.0
  70
0
  0
VERTEX
  8
a
  10
5.96913
  20
2.66148
  30
0.0
  70
0
  0
VERTEX
  8
a
  10
5.8384
  20
2.55997
  30
0.0
  70
0
  0
VERTEX
  8
a
  10
5.70118
  20
2.46292
  30
0.0
  70
0
  0
VERTEX
  8
a
  10
5.55797
  20
2.37018
  30
0.0
  70
0
  0
VERTEX
  8
a
  10
5.40912
  20
2.28165
  30
0.0
  70
0
  0
VERTEX
  8
a
  10
5.25496
  20
2.1973
  30
0.0
  70
0
  0
VERTEX
  8
a
  10
5.09572
  20
2.1171
  30
0.0
  70
0
  0
VERTEX
  8
a
  10
4.93163
  20
2.04107
  30
0.0
  70
0
  0
VERTEX
  8
a
  10
4.8055
  20
1.98679
  30
0.0
  70
0
  0
VERTEX
  8
a
  10
4.40015
  20
2.28129
  30
0.0
  70
0
  0
VERTEX
  8
a
  10
4.41279
  20
2.41803
  30
0.0
  70
0
  0
VERTEX
  8
a
  10
4.4344
  20
2.59758
  30
0.0
  70
0
  0
VERTEX
  8
a
  10
4.46146
  20
2.7738
  30
0.0
  70
0
  0
VERTEX
  8
a
  10
4.49405
  20
2.94649
  30
0.0
  70
0
  0
VERTEX
  8
a
  10
4.53225
  20
3.11541
  30
0.0
  70
0
  0
VERTEX
  8
a
  10
4.5762
  20
3.28027
  30
0.0
  70
0
  0
VERTEX
  8
a
  10
4.6261
  20
3.44076
  30
0.0
  70
0
  0
VERTEX
  8
a
  10
4.68224
  20
3.59646
  30
0.0
  70
0
  0
VERTEX
  8
a
  10
4.74509
  20
3.74681
  30
0.0
  70
0
  0
VERTEX
  8
a
  10
4.81545
  20
3.89094
  30
0.0
  70
0
  0
VERTEX
  8
a
  10
4.89499
  20
4.02724
  30
0.0
  70
0
  0
VERTEX
  8
a
  10
4.98628
  20
4.1533
  30
0.0
  70
0
  0
VERTEX
  8
a
  10
5.02976
  20
4.21824
  30
0.0
  70
0
  0
VERTEX
  8
a
  10
5.06944
  20
4.28658
  30
0.0
  70
0
  0
VERTEX
  8
a
  10
5.10436
  20
4.35918
  30
0.0
  70
0
  0
VERTEX
  8
a
  10
5.13289
  20
4.43758
  30
0.0
  70
0
  0
VERTEX
  8
a
  10
5.14381
  20
4.47985
  30
0.0
  70
0
  0
VERTEX
  8
a
  10
5.15151
  20
4.52509
  30
0.0
  70
0
  0
VERTEX
  8
a
  10
5.15442
  20
4.57479
  30
0.0
  70
0
  0
VERTEX
  8
a
  10
5.14854
  20
4.63272
  30
0.0
  70
0
  0
VERTEX
  8
a
  10
4.91272
  20
4.91272
  30
0.0
  70
0
  0
VERTEX
  8
a
  10
4.91272
  20
4.91272
  30
0.0
  70
0
  0
VERTEX
  8
a
  10
4.63272
  20
5.14854
  30
0.0
  70
0
  0
VERTEX
  8
a
  10
4.57479
  20
5.15442
  30
0.0
  70
0
  0
VERTEX
  8
a
  10
4.52509
  20
5.15151
  30
0.0
  70
0
  0
VERTEX
  8
a
  10
4.47985
  20
5.14381
  30
0.0
  70
0
  0
VERTEX
  8
a
  10
4.43758
  20
5.13289
  30
0.0
  70
0
  0
VERTEX
  8
a
  10
4.35918
  20
5.10436
  30
0.0
  70
0
  0
VERTEX
  8
a
  10
4.28658
  20
5.06944
  30
0.0
  70
0
  0
VERTEX
  8
a
  10
4.21824
  20
5.02976
  30
0.0
  70
0
  0
VERTEX
  8
a
  10
4.1533
  20
4.98628
  30
0.0
  70
0
  0
VERTEX
  8
a
  10
4.02724
  20
4.89499
  30
0.0
  70
0
  0
VERTEX
  8
a
  10
3.89094
  20
4.81545
  30
0.0
  70
0
  0
VERTEX
  8
a
  10
3.74681
  20
4.74509
  30
0.0
  70
0
  0
VERTEX
  8
a
  10
3.59646
  20
4.68224
  30
0.0
  70
0
  0
VERTEX
  8
a
  10
3.44076
  20
4.6261
  30
0.0
  70
0
  0
VERTEX
  8
a
  10
3.28027
  20
4.5762
  30
0.0
  70
0
  0
VERTEX
  8
a
  10
3.11541
  20
4.53225
  30
0.0
  70
0
  0
VERTEX
  8
a
  10
2.94649
  20
4.49405
  30
0.0
  70
0
  0
VERTEX
  8
a
  10
2.7738
  20
4.46146
  30
0.0
  70
0
  0
VERTEX
  8
a
  10
2.59758
  20
4.4344
  30
0.0
  70
0
  0
VERTEX
  8
a
  10
2.41803
  20
4.41279
  30
0.0
  70
0
  0
VERTEX
  8
a
  10
2.28129
  20
4.40015
  30
0.0
  70
0
  0
VERTEX
  8
a
  10
1.98679
  20
4.8055
  30
0.0
  70
0
  0
VERTEX
  8
a
  10
2.04107
  20
4.93163
  30
0.0
  70
0
  0
VERTEX
  8
a
  10
2.1171
  20
5.09572
  30
0.0
  70
0
  0
VERTEX
  8
a
  10
2.1973
  20
5.25496
  30
0.0
  70
0
  0
VERTEX
  8
a
  10
2.28165
  20
5.40912
  30
0.0
  70
0
  0
VERTEX
  8
a
  10
2.37018
  20
5.55797
  30
0.0
  70
0
  0
VERTEX
  8
a
  10
2.46292
  20
5.70118
  30
0.0
  70
0
  0
VERTEX
  8
a
  10
2.55997
  20
5.8384
  30
0.0
  70
0
  0
VERTEX
  8
a
  10
2.66148
  20
5.96913
  30
0.0
  70
0
  0
VERTEX
  8
a
  10
2.76771
  20
6.09269
  30
0.0
  70
0
  0
VERTEX
  8
a
  10
2.87917
  20
6.20803
  30
0.0
  70
0
  0
VERTEX
  8
a
  10
2.99694
  20
6.31308
  30
0.0
  70
0
  0
VERTEX
  8
a
  10
3.12271
  20
6.40476
  30
0.0
  70
0
  0
VERTEX
  8
a
  10
3.18414
  20
6.45309
  30
0.0
  70
0
  0
VERTEX
  8
a
  10
3.24299
  20
6.50582
  30
0.0
  70
0
  0
VERTEX
  8
a
  10
3.29864
  20
6.56407
  30
0.0
  70
0
  0
VERTEX
  8
a
  10
3.35
  20
6.62982
  30
0.0
  70
0
  0
VERTEX
  8
a
  10
3.37344
  20
6.66665
  30
0.0
  70
0
  0
VERTEX
  8
a
  10
3.39474
  20
6.7073
  30
0.0
  70
0
  0
VERTEX
  8
a
  10
3.41287
  20
6.75366
  30
0.0
  70
0
  0
VERTEX
  8
a
  10
3.42518
  20
6.81058
  30
0.0
  70
0
  0
VERTEX
  8
a
  10
3.28743
  20
7.14974
  30
0.0
  70
0
  0
VERTEX
  8
a
  10
3.28743
  20
7.14974
  30
0.0
  70
0
  0
VERTEX
  8
a
  10
3.094
  20
7.46054
  30
0.0
  70
0
  0
VERTEX
  8
a
  10
3.04072
  20
7.48404
  30
0.0
  70
0
  0
VERTEX
  8
a
  10
2.99256
  20
7.49663
  30
0.0
  70
0
  0
VERTEX
  8
a
  10
2.94715
  20
7.50328
  30
0.0
  70
0
  0
VERTEX
  8
a
  10
2.90358
  20
7.50596
  30
0.0
  70
0
  0
VERTEX
  8
a
  10
2.8202
  20
7.50306
  30
0.0
  70
0
  0
VERTEX
  8
a
  10
2.74036
  20
7.49228
  30
0.0
  70
0
  0
VERTEX
  8
a
  10
2.66311
  20
7.47566
  30
0.0
  70
0
  0
VERTEX
  8
a
  10
2.5879
  20
7.45438
  30
0.0
  70
0
  0
VERTEX
  8
a
  10
2.43981
  20
7.40651
  30
0.0
  70
0
  0
VERTEX
  8
a
  10
2.2856
  20
7.37298
  30
0.0
  70
0
  0
VERTEX
  8
a
  10
2.12678
  20
7.3506
  30
0.0
  70
0
  0
VERTEX
  8
a
  10
1.96437
  20
7.33729
  30
0.0
  70
0
  0
VERTEX
  8
a
  10
1.79894
  20
7.33201
  30
0.0
  70
0
  0
VERTEX
  8
a
  10
1.63089
  20
7.33415
  30
0.0
  70
0
  0
VERTEX
  8
a
  10
1.46051
  20
7.34329
  30
0.0
  70
0
  0
VERTEX
  8
a
  10
1.28806
  20
7.35916
  30
0.0
  70
0
  0
VERTEX
  8
a
  10
1.11375
  20
7.38153
  30
0.0
  70
0
  0
VERTEX
  8
a
  10
0.93779
  20
7.41025
  30
0.0
  70
0
  0
VERTEX
  8
a
  10
0.76035
  20
7.44519
  30
0.0
  70
0
  0
VERTEX
  8
a
  10
0.6264
  20
7.47541
  30
0.0
  70
0
  0
VERTEX
  8
a
  10
0.47157
  20
7.95193
  30
0.0
  70
0
  0
VERTEX
  8
a
  10
0.56217
  20
8.05512
  30
0.0
  70
0
  0
VERTEX
  8
a
  10
0.68519
  20
8.18768
  30
0.0
  70
0
  0
VERTEX
  8
a
  10
0.81066
  20
8.31434
  30
0.0
  70
0
  0
VERTEX
  8
a
  10
0.93853
  20
8.4349
  30
0.0
  70
0
  0
VERTEX
  8
a
  10
1.06872
  20
8.5491
  30
0.0
  70
0
  0
VERTEX
  8
a
  10
1.20118
  20
8.65664
  30
0.0
  70
0
  0
VERTEX
  8
a
  10
1.33588
  20
8.75716
  30
0.0
  70
0
  0
VERTEX
  8
a
  10
1.47282
  20
8.85012
  30
0.0
  70
0
  0
VERTEX
  8
a
  10
1.61204
  20
8.93481
  30
0.0
  70
0
  0
VERTEX
  8
a
  10
1.75368
  20
9.01005
  30
0.0
  70
0
  0
VERTEX
  8
a
  10
1.89814
  20
9.07357
  30
0.0
  70
0
  0
VERTEX
  8
a
  10
2.04609
  20
9.12189
  30
0.0
  70
0
  0
VERTEX
  8
a
  10
2.11945
  20
9.14888
  30
0.0
  70
0
  0
VERTEX
  8
a
  10
2.19171
  20
9.18085
  30
0.0
  70
0
  0
VERTEX
  8
a
  10
2.26264
  20
9.21905
  30
0.0
  70
0
  0
VERTEX
  8
a
  10
2.3318
  20
9.26571
  30
0.0
  70
0
  0
VERTEX
  8
a
  10
2.36548
  20
9.29349
  30
0.0
  70
0
  0
VERTEX
  8
a
  10
2.3983
  20
9.32556
  30
0.0
  70
0
  0
VERTEX
  8
a
  10
2.42987
  20
9.36406
  30
0.0
  70
0
  0
VERTEX
  8
a
  10
2.45916
  20
9.41439
  30
0.0
  70
0
  0
VERTEX
  8
a
  10
2.43296
  20
9.77952
  30
0.0
  70
0
  0
VERTEX
  8
a
  10
2.43296
  20
9.77952
  30
0.0
  70
0
  0
VERTEX
  8
a
  10
2.34505
  20
10.13488
  30
0.0
  70
0
  0
VERTEX
  8
a
  10
2.30164
  20
10.17369
  30
0.0
  70
0
  0
VERTEX
  8
a
  10
2.25972
  20
10.20055
  30
0.0
  70
0
  0
VERTEX
  8
a
  10
2.21859
  20
10.22091
  30
0.0
  70
0
  0
VERTEX
  8
a
  10
2.17798
  20
10.23692
  30
0.0
  70
0
  0
VERTEX
  8
a
  10
2.09778
  20
10.25993
  30
0.0
  70
0
  0
VERTEX
  8
a
  10
2.01852
  20
10.27434
  30
0.0
  70
0
  0
VERTEX
  8
a
  10
1.93991
  20
10.28241
  30
0.0
  70
0
  0
VERTEX
  8
a
  10
1.86181
  20
10.28541
  30
0.0
  70
0
  0
VERTEX
  8
a
  10
1.70617
  20
10.28565
  30
0.0
  70
0
  0
VERTEX
  8
a
  10
1.54915
  20
10.30141
  30
0.0
  70
0
  0
VERTEX
  8
a
  10
1.39119
  20
10.32921
  30
0.0
  70
0
  0
VERTEX
  8
a
  10
1.23261
  20
10.36673
  30
0.0
  70
0
  0
VERTEX
  8
a
  10
1.07365
  20
10.41283
  30
0.0
  70
0
  0
VERTEX
  8
a
  10
0.91448
  20
10.4668
  30
0.0
  70
0
  0
VERTEX
  8
a
  10
0.75527
  20
10.52815
  30
0.0
  70
0
  0
VERTEX
  8
a
  10
0.59616
  20
10.59653
  30
0.0
  70
0
  0
VERTEX
  8
a
  10
0.4373
  20
10.67167
  30
0.0
  70
0
  0
VERTEX
  8
a
  10
0.27882
  20
10.75336
  30
0.0
  70
0
  0
VERTEX
  8
a
  10
0.12086
  20
10.84142
  30
0.0
  70
0
  0
VERTEX
  8
a
  10
0.00281
  20
10.91155
  30
0.0
  70
0
  0
VERTEX
  8
a
  10
0.00281
  20
11.4126
  30
0.0
  70
0
  0
VERTEX
  8
a
  10
0.12086
  20
11.48273
  30
0.0
  70
0
  0
VERTEX
  8
a
  10
0.27882
  20
11.57079
  30
0.0
  70
0
  0
VERTEX
  8
a
  10
0.4373
  20
11.65248
  30
0.0
  70
0
  0
VERTEX
  8
a
  10
0.59616
  20
11.72762
  30
0.0
  70
0
  0
VERTEX
  8
a
  10
0.75527
  20
11.796
  30
0.0
  70
0
  0
VERTEX
  8
a
  10
0.91448
  20
11.85735
  30
0.0
  70
0
  0
VERTEX
  8
a
  10
1.07365
  20
11.91132
  30
0.0
  70
0
  0
VERTEX
  8
a
  10
1.23261
  20
11.95742
  30
0.0
  70
0
  0
VERTEX
  8
a
  10
1.39119
  20
11.99494
  30
0.0
  70
0
  0
VERTEX
  8
a
  10
1.54915
  20
12.02274
  30
0.0
  70
0
  0
VERTEX
  8
a
  10
1.70617
  20
12.0385
  30
0.0
  70
0
  0
VERTEX
  8
a
  10
1.86181
  20
12.03874
  30
0.0
  70
0
  0
VERTEX
  8
a
  10
1.93991
  20
12.04174
  30
0.0
  70
0
  0
VERTEX
  8
a
  10
2.01852
  20
12.04981
  30
0.0
  70
0
  0
VERTEX
  8
a
  10
2.09778
  20
12.06422
  30
0.0
  70
0
  0
VERTEX
  8
a
  10
2.17798
  20
12.08723
  30
0.0
  70
0
  0
VERTEX
  8
a
  10
2.21859
  20
12.10324
  30
0.0
  70
0
  0
VERTEX
  8
a
  10
2.25972
  20
12.1236
  30
0.0
  70
0
  0
VERTEX
  8
a
  10
2.30164
  20
12.15046
  30
0.0
  70
0
  0
VERTEX
  8
a
  10
2.34505
  20
12.18927
  30
0.0
  70
0
  0
VERTEX
  8
a
  10
2.43296
  20
12.54463
  30
0.0
  70
0
  0
VERTEX
  8
a
  10
2.43296
  20
12.54463
  30
0.0
  70
0
  0
VERTEX
  8
a
  10
2.45916
  20
12.90976
  30
0.0
  70
0
  0
VERTEX
  8
a
  10
2.42987
  20
12.96009
  30
0.0
  70
0
  0
VERTEX
  8
a
  10
2.3983
  20
12.99859
  30
0.0
  70
0
  0
VERTEX
  8
a
  10
2.36548
  20
13.03066
  30
0.0
  70
0
  0
VERTEX
  8
a
  10
2.3318
  20
13.05844
  30
0.0
  70
0
  0
VERTEX
  8
a
  10
2.26264
  20
13.1051
  30
0.0
  70
0
  0
VERTEX
  8
a
  10
2.19171
  20
13.14331
  30
0.0
  70
0
  0
VERTEX
  8
a
  10
2.11945
  20
13.17527
  30
0.0
  70
0
  0
VERTEX
  8
a
  10
2.04609
  20
13.20226
  30
0.0
  70
0
  0
VERTEX
  8
a
  10
1.89814
  20
13.25058
  30
0.0
  70
0
  0
VERTEX
  8
a
  10
1.75368
  20
13.3141
  30
0.0
  70
0
  0
VERTEX
  8
a
  10
1.61204
  20
13.38934
  30
0.0
  70
0
  0
VERTEX
  8
a
  10
1.47282
  20
13.47403
  30
0.0
  70
0
  0
VERTEX
  8
a
  10
1.33588
  20
13.56699
  30
0.0
  70
0
  0
VERTEX
  8
a
  10
1.20118
  20
13.66751
  30
0.0
  70
0
  0
VERTEX
  8
a
  10
1.06872
  20
13.77505
  30
0.0
  70
0
  0
VERTEX
  8
a
  10
0.93853
  20
13.88926
  30
0.0
  70
0
  0
VERTEX
  8
a
  10
0.81066
  20
14.00981
  30
0.0
  70
0
  0
VERTEX
  8
a
  10
0.68519
  20
14.13647
  30
0.0
  70
0
  0
VERTEX
  8
a
  10
0.56217
  20
14.26903
  30
0.0
  70
0
  0
VERTEX
  8
a
  10
0.47157
  20
14.37222
  30
0.0
  70
0
  0
VERTEX
  8
a
  10
0.6264
  20
14.84874
  30
0.0
  70
0
  0
VERTEX
  8
a
  10
0.76035
  20
14.87896
  30
0.0
  70
0
  0
VERTEX
  8
a
  10
0.93779
  20
14.9139
  30
0.0
  70
0
  0
VERTEX
  8
a
  10
1.11375
  20
14.94262
  30
0.0
  70
0
  0
VERTEX
  8
a
  10
1.28806
  20
14.96499
  30
0.0
  70
0
  0
VERTEX
  8
a
  10
1.46051
  20
14.98086
  30
0.0
  70
0
  0
VERTEX
  8
a
  10
1.63089
  20
14.99
  30
0.0
  70
0
  0
VERTEX
  8
a
  10
1.79894
  20
14.99214
  30
0.0
  70
0
  0
VERTEX
  8
a
  10
1.96437
  20
14.98686
  30
0.0
  70
0
  0
VERTEX
  8
a
  10
2.12678
  20
14.97355
  30
0.0
  70
0
  0
VERTEX
  8
a
  10
2.2856
  20
14.95117
  30
0.0
  70
0
  0
VERTEX
  8
a
  10
2.43981
  20
14.91764
  30
0.0
  70
0
  0
VERTEX
  8
a
  10
2.5879
  20
14.86977
  30
0.0
  70
0
  0
VERTEX
  8
a
  10
2.66311
  20
14.84849
  30
0.0
  70
0
  0
VERTEX
  8
a
  10
2.74036
  20
14.83187
  30
0.0
  70
0
  0
VERTEX
  8
a
  10
2.8202
  20
14.82109
  30
0.0
  70
0
  0
VERTEX
  8
a
  10
2.90358
  20
14.81819
  30
0.0
  70
0
  0
VERTEX
  8
a
  10
2.94715
  20
14.82087
  30
0.0
  70
0
  0
VERTEX
  8
a
  10
2.99256
  20
14.82752
  30
0.0
  70
0
  0
VERTEX
  8
a
  10
3.04072
  20
14.84011
  30
0.0
  70
0
  0
VERTEX
  8
a
  10
3.094
  20
14.86361
  30
0.0
  70
0
  0
VERTEX
  8
a
  10
3.28743
  20
15.17441
  30
0.0
  70
0
  0
VERTEX
  8
a
  10
3.28743
  20
15.17441
  30
0.0
  70
0
  0
VERTEX
  8
a
  10
3.42518
  20
15.51357
  30
0.0
  70
0
  0
VERTEX
  8
a
  10
3.41287
  20
15.57049
  30
0.0
  70
0
  0
VERTEX
  8
a
  10
3.39474
  20
15.61685
  30
0.0
  70
0
  0
VERTEX
  8
a
  10
3.37344
  20
15.6575
  30
0.0
  70
0
  0
VERTEX
  8
a
  10
3.35
  20
15.69433
  30
0.0
  70
0
  0
VERTEX
  8
a
  10
3.29864
  20
15.76008
  30
0.0
  70
0
  0
VERTEX
  8
a
  10
3.24299
  20
15.81833
  30
0.0
  70
0
  0
VERTEX
  8
a
  10
3.18414
  20
15.87106
  30
0.0
  70
0
  0
VERTEX
  8
a
  10
3.12271
  20
15.9194
  30
0.0
  70
0
  0
VERTEX
  8
a
  10
2.99694
  20
16.01107
  30
0.0
  70
0
  0
VERTEX
  8
a
  10
2.87917
  20
16.11612
  30
0.0
  70
0
  0
VERTEX
  8
a
  10
2.76771
  20
16.23146
  30
0.0
  70
0
  0
VERTEX
  8
a
  10
2.66148
  20
16.35502
  30
0.0
  70
0
  0
VERTEX
  8
a
  10
2.55997
  20
16.48575
  30
0.0
  70
0
  0
VERTEX
  8
a
  10
2.46292
  20
16.62297
  30
0.0
  70
0
  0
VERTEX
  8
a
  10
2.37018
  20
16.76618
  30
0.0
  70
0
  0
VERTEX
  8
a
  10
2.28165
  20
16.91503
  30
0.0
  70
0
  0
VERTEX
  8
a
  10
2.1973
  20
17.06919
  30
0.0
  70
0
  0
VERTEX
  8
a
  10
2.1171
  20
17.22843
  30
0.0
  70
0
  0
VERTEX
  8
a
  10
2.04107
  20
17.39252
  30
0.0
  70
0
  0
VERTEX
  8
a
  10
1.98679
  20
17.51865
  30
0.0
  70
0
  0
VERTEX
  8
a
  10
2.28129
  20
17.924
  30
0.0
  70
0
  0
VERTEX
  8
a
  10
2.41803
  20
17.91136
  30
0.0
  70
0
  0
VERTEX
  8
a
  10
2.59758
  20
17.88975
  30
0.0
  70
0
  0
VERTEX
  8
a
  10
2.7738
  20
17.86269
  30
0.0
  70
0
  0
VERTEX
  8
a
  10
2.94649
  20
17.8301
  30
0.0
  70
0
  0
VERTEX
  8
a
  10
3.11541
  20
17.7919
  30
0.0
  70
0
  0
VERTEX
  8
a
  10
3.28027
  20
17.74795
  30
0.0
  70
0
  0
VERTEX
  8
a
  10
3.44076
  20
17.69805
  30
0.0
  70
0
  0
VERTEX
  8
a
  10
3.59646
  20
17.64191
  30
0.0
  70
0
  0
VERTEX
  8
a
  10
3.74681
  20
17.57906
  30
0.0
  70
0
  0
VERTEX
  8
a
  10
3.89094
  20
17.5087
  30
0.0
  70
0
  0
VERTEX
  8
a
  10
4.02724
  20
17.42916
  30
0.0
  70
0
  0
VERTEX
  8
a
  10
4.1533
  20
17.33787
  30
0.0
  70
0
  0
VERTEX
  8
a
  10
4.21824
  20
17.29439
  30
0.0
  70
0
  0
VERTEX
  8
a
  10
4.28658
  20
17.25471
  30
0.0
  70
0
  0
VERTEX
  8
a
  10
4.35918
  20
17.21979
  30
0.0
  70
0
  0
VERTEX
  8
a
  10
4.43758
  20
17.19126
  30
0.0
  70
0
  0
VERTEX
  8
a
  10
4.47985
  20
17.18034
  30
0.0
  70
0
  0
VERTEX
  8
a
  10
4.52509
  20
17.17264
  30
0.0
  70
0
  0
VERTEX
  8
a
  10
4.57479
  20
17.16973
  30
0.0
  70
0
  0
VERTEX
  8
a
  10
4.63272
  20
17.17561
  30
0.0
  70
0
  0
VERTEX
  8
a
  10
4.91272
  20
17.41143
  30
0.0
  70
0
  0
VERTEX
  8
a
  10
4.91272
  20
17.41143
  30
0.0
  70
0
  0
VERTEX
  8
a
  10
5.14854
  20
17.69143
  30
0.0
  70
0
  0
VERTEX
  8
a
  10
5.15442
  20
17.74936
  30
0.0
  70
0
  0
VERTEX
  8
a
  10
5.15151
  20
17.79906
  30
0.0
  70
0
  0
VERTEX
  8
a
  10
5.14381
  20
17.8443
  30
0.0
  70
0
  0
VERTEX
  8
a
  10
5.13289
  20
17.88657
  30
0.0
  70
0
  0
VERTEX
  8
a
  10
5.10436
  20
17.96497
  30
0.0
  70
0
  0
VERTEX
  8
a
  10
5.06944
  20
18.03757
  30
0.0
  70
0
  0
VERTEX
  8
a
  10
5.02976
  20
18.10591
  30
0.0
  70
0
  0
VERTEX
  8
a
  10
4.98628
  20
18.17086
  30
0.0
  70
0
  0
VERTEX
  8
a
  10
4.89499
  20
18.29691
  30
0.0
  70
0
  0
VERTEX
  8
a
  10
4.81545
  20
18.43321
  30
0.0
  70
0
  0
VERTEX
  8
a
  10
4.74509
  20
18.57734
  30
0.0
  70
0
  0
VERTEX
  8
a
  10
4.68224
  20
18.72769
  30
0.0
  70
0
  0
VERTEX
  8
a
  10
4.6261
  20
18.88339
  30
0.0
  70
0
  0
VERTEX
  8
a
  10
4.5762
  20
19.04388
  30
0.0
  70
0
  0
VERTEX
  8
a
  10
4.53225
  20
19.20874
  30
0.0
  70
0
  0
VERTEX
  8
a
  10
4.49405
  20
19.37766
  30
0.0
  70
0
  0
VERTEX
  8
a
  10
4.46146
  20
19.55035
  30
0.0
  70
0
  0
VERTEX
  8
a
  10
4.4344
  20
19.72657
  30
0.0
  70
0
  0
VERTEX
  8
a
  10
4.41279
  20
19.90612
  30
0.0
  70
0
  0
VERTEX
  8
a
  10
4.40015
  20
20.04286
  30
0.0
  70
0
  0
VERTEX
  8
a
  10
4.8055
  20
20.33736
  30
0.0
  70
0
  0
VERTEX
  8
a
  10
4.93163
  20
20.28308
  30
0.0
  70
0
  0
VERTEX
  8
a
  10
5.09572
  20
20.20705
  30
0.0
  70
0
  0
VERTEX
  8
a
  10
5.25496
  20
20.12685
  30
0.0
  70
0
  0
VERTEX
  8
a
  10
5.40912
  20
20.0425
  30
0.0
  70
0
  0
VERTEX
  8
a
  10
5.55797
  20
19.95397
  30
0.0
  70
0
  0
VERTEX
  8
a
  10
5.70118
  20
19.86123
  30
0.0
  70
0
  0
VERTEX
  8
a
  10
5.8384
  20
19.76418
  30
0.0
  70
0
  0
VERTEX
  8
a
  10
5.96913
  20
19.66267
  30
0.0
  70
0
  0
VERTEX
  8
a
  10
6.09269
  20
19.55644
  30
0.0
  70
0
  0
VERTEX
  8
a
  10
6.20803
  20
19.44498
  30
0.0
  70
0
  0
VERTEX
  8
a
  10
6.31308
  20
19.32721
  30
0.0
  70
0
  0
VERTEX
  8
a
  10
6.40476
  20
19.20144
  30
0.0
  70
0
  0
VERTEX
  8
a
  10
6.45309
  20
19.14001
  30
0.0
  70
0
  0
VERTEX
  8
a
  10
6.50582
  20
19.08116
  30
0.0
  70
0
  0
VERTEX
  8
a
  10
6.56407
  20
19.02551
  30
0.0
  70
0
  0
VERTEX
  8
a
  10
6.62982
  20
18.97415
  30
0.0
  70
0
  0
VERTEX
  8
a
  10
6.66665
  20
18.95071
  30
0.0
  70
0
  0
VERTEX
  8
a
  10
6.7073
  20
18.92941
  30
0.0
  70
0
  0
VERTEX
  8
a
  10
6.75366
  20
18.91128
  30
0.0
  70
0
  0
VERTEX
  8
a
  10
6.81058
  20
18.89897
  30
0.0
  70
0
  0
VERTEX
  8
a
  10
7.14974
  20
19.03672
  30
0.0
  70
0
  0
VERTEX
  8
a
  10
7.14974
  20
19.03672
  30
0.0
  70
0
  0
VERTEX
  8
a
  10
7.46054
  20
19.23015
  30
0.0
  70
0
  0
VERTEX
  8
a
  10
7.48404
  20
19.28343
  30
0.0
  70
0
  0
VERTEX
  8
a
  10
7.49663
  20
19.33159
  30
0.0
  70
0
  0
VERTEX
  8
a
  10
7.50328
  20
19.377
  30
0.0
  70
0
  0
VERTEX
  8
a
  10
7.50596
  20
19.42057
  30
0.0
  70
0
  0
VERTEX
  8
a
  10
7.50306
  20
19.50395
  30
0.0
  70
0
  0
VERTEX
  8
a
  10
7.49228
  20
19.58379
  30
0.0
  70
0
  0
VERTEX
  8
a
  10
7.47566
  20
19.66104
  30
0.0
  70
0
  0
VERTEX
  8
a
  10
7.45438
  20
19.73625
  30
0.0
  70
0
  0
VERTEX
  8
a
  10
7.40651
  20
19.88434
  30
0.0
  70
0
  0
VERTEX
  8
a
  10
7.37298
  20
20.03855
  30
0.0
  70
0
  0
VERTEX
  8
a
  10
7.3506
  20
20.19737
  30
0.0
  70
0
  0
VERTEX
  8
a
  10
7.33729
  20
20.35978
  30
0.0
  70
0
  0
VERTEX
  8
a
  10
7.33201
  20
20.52521
  30
0.0
  70
0
  0
VERTEX
  8
a
  10
7.33415
  20
20.69326
  30
0.0
  70
0
  0
VERTEX
  8
a
  10
7.34329
  20
20.86364
  30
0.0
  70
0
  0
VERTEX
  8
a
  10
7.35916
  20
21.03609
  30
0.0
  70
0
  0
VERTEX
  8
a
  10
7.38153
  20
21.2104
  30
0.0
  70
0
  0
VERTEX
  8
a
  10
7.41025
  20
21.38636
  30
0.0
  70
0
  0
VERTEX
  8
a
  10
7.44519
  20
21.5638
  30
0.0
  70
0
  0
VERTEX
  8
a
  10
7.47541
  20
21.69775
  30
0.0
  70
0
  0
VERTEX
  8
a
  10
7.95193
  20
21.85258
  30
0.0
  70
0
  0
VERTEX
  8
a
  10
8.05512
  20
21.76198
  30
0.0
  70
0
  0
VERTEX
  8
a
  10
8.18768
  20
21.63896
  30
0.0
  70
0
  0
VERTEX
  8
a
  10
8.31434
  20
21.51349
  30
0.0
  70
0
  0
VERTEX
  8
a
  10
8.4349
  20
21.38562
  30
0.0
  70
0
  0
VERTEX
  8
a
  10
8.5491
  20
21.25543
  30
0.0
  70
0
  0
VERTEX
  8
a
  10
8.65664
  20
21.12297
  30
0.0
  70
0
  0
VERTEX
  8
a
  10
8.75716
  20
20.98827
  30
0.0
  70
0
  0
VERTEX
  8
a
  10
8.85012
  20
20.85133
  30
0.0
  70
0
  0
VERTEX
  8
a
  10
8.93481
  20
20.71211
  30
0.0
  70
0
  0
VERTEX
  8
a
  10
9.01005
  20
20.57047
  30
0.0
  70
0
  0
VERTEX
  8
a
  10
9.07357
  20
20.42601
  30
0.0
  70
0
  0
VERTEX
  8
a
  10
9.12189
  20
20.27806
  30
0.0
  70
0
  0
VERTEX
  8
a
  10
9.14888
  20
20.2047
  30
0.0
  70
0
  0
VERTEX
  8
a
  10
9.18085
  20
20.13244
  30
0.0
  70
0
  0
VERTEX
  8
a
  10
9.21905
  20
20.06151
  30
0.0
  70
0
  0
VERTEX
  8
a
  10
9.26571
  20
19.99235
  30
0.0
  70
0
  0
VERTEX
  8
a
  10
9.29349
  20
19.95867
  30
0.0
  70
0
  0
VERTEX
  8
a
  10
9.32556
  20
19.92585
  30
0.0
  70
0
  0
VERTEX
  8
a
  10
9.36406
  20
19.89428
  30
0.0
  70
0
  0
VERTEX
  8
a
  10
9.41439
  20
19.86499
  30
0.0
  70
0
  0
VERTEX
  8
a
  10
9.77952
  20
19.89119
  30
0.0
  70
0
  0
VERTEX
  8
a
  10
9.77952
  20
19.89119
  30
0.0
  70
0
  0
VERTEX
  8
a
  10
10.13488
  20
19.9791
  30
0.0
  70
0
  0
VERTEX
  8
a
  10
10.17369
  20
20.02251
  30
0.0
  70
0
  0
VERTEX
  8
a
  10
10.20055
  20
20.06443
  30
0.0
  70
0
  0
VERTEX
  8
a
  10
10.22091
  20
20.10556
  30
0.0
  70
0
  0
VERTEX
  8
a
  10
10.23692
  20
20.14617
  30
0.0
  70
0
  0
VERTEX
  8
a
  10
10.25993
  20
20.22637
  30
0.0
  70
0
  0
VERTEX
  8
a
  10
10.27434
  20
20.30563
  30
0.0
  70
0
  0
VERTEX
  8
a
  10
10.28241
  20
20.38424
  30
0.0
  70
0
  0
VERTEX
  8
a
  10
10.28541
  20
20.46234
  30
0.0
  70
0
  0
VERTEX
  8
a
  10
10.28565
  20
20.61798
  30
0.0
  70
0
  0
VERTEX
  8
a
  10
10.30141
  20
20.775
  30
0.0
  70
0
  0
VERTEX
  8
a
  10
10.32921
  20
20.93296
  30
0.0
  70
0
  0
VERTEX
  8
a
  10
10.36673
  20
21.09154
  30
0.0
  70
0
  0
VERTEX
  8
a
  10
10.41283
  20
21.2505
  30
0.0
  70
0
  0
VERTEX
  8
a
  10
10.4668
  20
21.40967
  30
0.0
  70
0
  0
VERTEX
  8
a
  10
10.52815
  20
21.56888
  30
0.0
  70
0
  0
VERTEX
  8
a
  10
10.59653
  20
21.72799
  30
0.0
  70
0
  0
VERTEX
  8
a
  10
10.67167
  20
21.88685
  30
0.0
  70
0
  0
VERTEX
  8
a
  10
10.75336
  20
22.04533
  30
0.0
  70
0
  0
VERTEX
  8
a
  10
10.84142
  20
22.20329
  30
0.0
  70
0
  0
VERTEX
  8
a
  10
10.91155
  20
22.32134
  30
0.0
  70
0
  0
VERTEX
  8
a
  10
11.4126
  20
22.32134
  30
0.0
  70
0
  0
VERTEX
  8
a
  10
11.48273
  20
22.20329
  30
0.0
  70
0
  0
VERTEX
  8
a
  10
11.57079
  20
22.04533
  30
0.0
  70
0
  0
VERTEX
  8
a
  10
11.65248
  20
21.88685
  30
0.0
  70
0
  0
VERTEX
  8
a
  10
11.72762
  20
21.72799
  30
0.0
  70
0
  0
VERTEX
  8
a
  10
11.796
  20
21.56888
  30
0.0
  70
0
  0
VERTEX
  8
a
  10
11.85735
  20
21.40967
  30
0.0
  70
0
  0
VERTEX
  8
a
  10
11.91132
  20
21.2505
  30
0.0
  70
0
  0
VERTEX
  8
a
  10
11.95742
  20
21.09154
  30
0.0
  70
0
  0
VERTEX
  8
a
  10
11.99494
  20
20.93296
  30
0.0
  70
0
  0
VERTEX
  8
a
  10
12.02274
  20
20.775
  30
0.0
  70
0
  0
VERTEX
  8
a
  10
12.0385
  20
20.61798
  30
0.0
  70
0
  0
VERTEX
  8
a
  10
12.03874
  20
20.46234
  30
0.0
  70
0
  0
VERTEX
  8
a
  10
12.04174
  20
20.38424
  30
0.0
  70
0
  0
VERTEX
  8
a
  10
12.04981
  20
20.30563
  30
0.0
  70
0
  0
VERTEX
  8
a
  10
12.06422
  20
20.22637
  30
0.0
  70
0
  0
VERTEX
  8
a
  10
12.08723
  20
20.14617
  30
0.0
  70
0
  0
VERTEX
  8
a
  10
12.10324
  20
20.10556
  30
0.0
  70
0
  0
VERTEX
  8
a
  10
12.1236
  20
20.06443
  30
0.0
  70
0
  0
VERTEX
  8
a
  10
12.15046
  20
20.02251
  30
0.0
  70
0
  0
VERTEX
  8
a
  10
12.18927
  20
19.9791
  30
0.0
  70
0
  0
VERTEX
  8
a
  10
12.54463
  20
19.89119
  30
0.0
  70
0
  0
VERTEX
  8
a
  10
12.54463
  20
19.89119
  30
0.0
  70
0
  0
VERTEX
  8
a
  10
12.90976
  20
19.86499
  30
0.0
  70
0
  0
VERTEX
  8
a
  10
12.96009
  20
19.89428
  30
0.0
  70
0
  0
VERTEX
  8
a
  10
12.99859
  20
19.92585
  30
0.0
  70
0
  0
VERTEX
  8
a
  10
13.03066
  20
19.95867
  30
0.0
  70
0
  0
VERTEX
  8
a
  10
13.05844
  20
19.99235
  30
0.0
  70
0
  0
VERTEX
  8
a
  10
13.1051
  20
20.06151
  30
0.0
  70
0
  0
VERTEX
  8
a
  10
13.14331
  20
20.13244
  30
0.0
  70
0
  0
VERTEX
  8
a
  10
13.17527
  20
20.2047
  30
0.0
  70
0
  0
VERTEX
  8
a
  10
13.20226
  20
20.27806
  30
0.0
  70
0
  0
VERTEX
  8
a
  10
13.25058
  20
20.42601
  30
0.0
  70
0
  0
VERTEX
  8
a
  10
13.3141
  20
20.57047
  30
0.0
  70
0
  0
VERTEX
  8
a
  10
13.38934
  20
20.71211
  30
0.0
  70
0
  0
VERTEX
  8
a
  10
13.47403
  20
20.85133
  30
0.0
  70
0
  0
VERTEX
  8
a
  10
13.56699
  20
20.98827
  30
0.0
  70
0
  0
VERTEX
  8
a
  10
13.66751
  20
21.12297
  30
0.0
  70
0
  0
VERTEX
  8
a
  10
13.77505
  20
21.25543
  30
0.0
  70
0
  0
VERTEX
  8
a
  10
13.88926
  20
21.38562
  30
0.0
  70
0
  0
VERTEX
  8
a
  10
14.00981
  20
21.51349
  30
0.0
  70
0
  0
VERTEX
  8
a
  10
14.13647
  20
21.63896
  30
0.0
  70
0
  0
VERTEX
  8
a
  10
14.26903
  20
21.76198
  30
0.0
  70
0
  0
VERTEX
  8
a
  10
14.37222
  20
21.85258
  30
0.0
  70
0
  0
VERTEX
  8
a
  10
14.84874
  20
21.69775
  30
0.0
  70
0
  0
VERTEX
  8
a
  10
14.87896
  20
21.5638
  30
0.0
  70
0
  0
VERTEX
  8
a
  10
14.9139
  20
21.38636
  30
0.0
  70
0
  0
VERTEX
  8
a
  10
14.94262
  20
21.2104
  30
0.0
  70
0
  0
VERTEX
  8
a
  10
14.96499
  20
21.03609
  30
0.0
  70
0
  0
VERTEX
  8
a
  10
14.98086
  20
20.86364
  30
0.0
  70
0
  0
VERTEX
  8
a
  10
14.99
  20
20.69326
  30
0.0
  70
0
  0
VERTEX
  8
a
  10
14.99214
  20
20.52521
  30
0.0
  70
0
  0
VERTEX
  8
a
  10
14.98686
  20
20.35978
  30
0.0
  70
0
  0
VERTEX
  8
a
  10
14.97355
  20
20.19737
  30
0.0
  70
0
  0
VERTEX
  8
a
  10
14.95117
  20
20.03855
  30
0.0
  70
0
  0
VERTEX
  8
a
  10
14.91764
  20
19.88434
  30
0.0
  70
0
  0
VERTEX
  8
a
  10
14.86977
  20
19.73625
  30
0.0
  70
0
  0
VERTEX
  8
a
  10
14.84849
  20
19.66104
  30
0.0
  70
0
  0
VERTEX
  8
a
  10
14.83187
  20
19.58379
  30
0.0
  70
0
  0
VERTEX
  8
a
  10
14.82109
  20
19.50395
  30
0.0
  70
0
  0
VERTEX
  8
a
  10
14.81819
  20
19.42057
  30
0.0
  70
0
  0
VERTEX
  8
a
  10
14.82087
  20
19.377
  30
0.0
  70
0
  0
VERTEX
  8
a
  10
14.82752
  20
19.33159
  30
0.0
  70
0
  0
VERTEX
  8
a
  10
14.84011
  20
19.28343
  30
0.0
  70
0
  0
VERTEX
  8
a
  10
14.86361
  20
19.23015
  30
0.0
  70
0
  0
VERTEX
  8
a
  10
15.17441
  20
19.03672
  30
0.0
  70
0
  0
VERTEX
  8
a
  10
15.17441
  20
19.03672
  30
0.0
  70
0
  0
VERTEX
  8
a
  10
15.51357
  20
18.89897
  30
0.0
  70
0
  0
VERTEX
  8
a
  10
15.57049
  20
18.91128
  30
0.0
  70
0
  0
VERTEX
  8
a
  10
15.61685
  20
18.92941
  30
0.0
  70
0
  0
VERTEX
  8
a
  10
15.6575
  20
18.95071
  30
0.0
  70
0
  0
VERTEX
  8
a
  10
15.69433
  20
18.97415
  30
0.0
  70
0
  0
VERTEX
  8
a
  10
15.76008
  20
19.02551
  30
0.0
  70
0
  0
VERTEX
  8
a
  10
15.81833
  20
19.08116
  30
0.0
  70
0
  0
VERTEX
  8
a
  10
15.87106
  20
19.14001
  30
0.0
  70
0
  0
VERTEX
  8
a
  10
15.9194
  20
19.20144
  30
0.0
  70
0
  0
VERTEX
  8
a
  10
16.01107
  20
19.32721
  30
0.0
  70
0
  0
VERTEX
  8
a
  10
16.11612
  20
19.44498
  30
0.0
  70
0
  0
VERTEX
  8
a
  10
16.23146
  20
19.55644
  30
0.0
  70
0
  0
VERTEX
  8
a
  10
16.35502
  20
19.66267
  30
0.0
  70
0
  0
VERTEX
  8
a
  10
16.48575
  20
19.76418
  30
0.0
  70
0
  0
VERTEX
  8
a
  10
16.62297
  20
19.86123
  30
0.0
  70
0
  0
VERTEX
  8
a
  10
16.76618
  20
19.95397
  30
0.0
  70
0
  0
VERTEX
  8
a
  10
16.91503
  20
20.0425
  30
0.0
  70
0
  0
VERTEX
  8
a
  10
17.06919
  20
20.12685
  30
0.0
  70
0
  0
VERTEX
  8
a
  10
17.22843
  20
20.20705
  30
0.0
  70
0
  0
VERTEX
  8
a
  10
17.39252
  20
20.28308
  30
0.0
  70
0
  0
VERTEX
  8
a
  10
17.51865
  20
20.33736
  30
0.0
  70
0
  0
VERTEX
  8
a
  10
17.924
  20
20.04286
  30
0.0
  70
0
  0
VERTEX
  8
a
  10
17.91136
  20
19.90612
  30
0.0
  70
0
  0
VERTEX
  8
a
  10
17.88975
  20
19.72657
  30
0.0
  70
0
  0
VERTEX
  8
a
  10
17.86269
  20
19.55035
  30
0.0
  70
0
  0
VERTEX
  8
a
  10
17.8301
  20
19.37766
  30
0.0
  70
0
  0
VERTEX
  8
a
  10
17.7919
  20
19.20874
  30
0.0
  70
0
  0
VERTEX
  8
a
  10
17.74795
  20
19.04388
  30
0.0
  70
0
  0
VERTEX
  8
a
  10
17.69805
  20
18.88339
  30
0.0
  70
0
  0
VERTEX
  8
a
  10
17.64191
  20
18.72769
  30
0.0
  70
0
  0
VERTEX
  8
a
  10
17.57906
  20
18.57734
  30
0.0
  70
0
  0
VERTEX
  8
a
  10
17.5087
  20
18.43321
  30
0.0
  70
0
  0
VERTEX
  8
a
  10
17.42916
  20
18.29691
  30
0.0
  70
0
  0
VERTEX
  8
a
  10
17.33787
  20
18.17086
  30
0.0
  70
0
  0
VERTEX
  8
a
  10
17.29439
  20
18.10591
  30
0.0
  70
0
  0
VERTEX
  8
a
  10
17.25471
  20
18.03757
  30
0.0
  70
0
  0
VERTEX
  8
a
  10
17.21979
  20
17.96497
  30
0.0
  70
0
  0
VERTEX
  8
a
  10
17.19126
  20
17.88657
  30
0.0
  70
0
  0
VERTEX
  8
a
  10
17.18034
  20
17.8443
  30
0.0
  70
0
  0
VERTEX
  8
a
  10
17.17264
  20
17.79906
  30
0.0
  70
0
  0
VERTEX
  8
a
  10
17.16973
  20
17.74936
  30
0.0
  70
0
  0
VERTEX
  8
a
  10
17.17561
  20
17.69143
  30
0.0
  70
0
  0
VERTEX
  8
a
  10
17.41143
  20
17.41143
  30
0.0
  70
0
  0
VERTEX
  8
a
  10
17.41143
  20
17.41143
  30
0.0
  70
0
  0
VERTEX
  8
a
  10
17.69143
  20
17.17561
  30
0.0
  70
0
  0
VERTEX
  8
a
  10
17.74936
  20
17.16973
  30
0.0
  70
0
  0
VERTEX
  8
a
  10
17.79906
  20
17.17264
  30
0.0
  70
0
  0
VERTEX
  8
a
  10
17.8443
  20
17.18034
  30
0.0
  70
0
  0
VERTEX
  8
a
  10
17.88657
  20
17.19126
  30
0.0
  70
0
  0
VERTEX
  8
a
  10
17.96497
  20
17.21979
  30
0.0
  70
0
  0
VERTEX
  8
a
  10
18.03757
  20
17.25471
  30
0.0
  70
0
  0
VERTEX
  8
a
  10
18.10591
  20
17.29439
  30
0.0
  70
0
  0
VERTEX
  8
a
  10
18.17086
  20
17.33787
  30
0.0
  70
0
  0
VERTEX
  8
a
  10
18.29691
  20
17.42916
  30
0.0
  70
0
  0
VERTEX
  8
a
  10
18.43321
  20
17.5087
  30
0.0
  70
0
  0
VERTEX
  8
a
  10
18.57734
  20
17.57906
  30
0.0
  70
0
  0
VERTEX
  8
a
  10
18.72769
  20
17.64191
  30
0.0
  70
0
  0
VERTEX
  8
a
  10
18.88339
  20
17.69805
  30
0.0
  70
0
  0
VERTEX
  8
a
  10
19.04388
  20
17.74795
  30
0.0
  70
0
  0
VERTEX
  8
a
  10
19.20874
  20
17.7919
  30
0.0
  70
0
  0
VERTEX
  8
a
  10
19.37766
  20
17.8301
  30
0.0
  70
0
  0
VERTEX
  8
a
  10
19.55035
  20
17.86269
  30
0.0
  70
0
  0
VERTEX
  8
a
  10
19.72657
  20
17.88975
  30
0.0
  70
0
  0
VERTEX
  8
a
  10
19.90612
  20
17.91136
  30
0.0
  70
0
  0
VERTEX
  8
a
  10
20.04286
  20
17.924
  30
0.0
  70
0
  0
VERTEX
  8
a
  10
20.33736
  20
17.51865
  30
0.0
  70
0
  0
VERTEX
  8
a
  10
20.28308
  20
17.39252
  30
0.0
  70
0
  0
VERTEX
  8
a
  10
20.20705
  20
17.22843
  30
0.0
  70
0
  0
VERTEX
  8
a
  10
20.12685
  20
17.06919
  30
0.0
  70
0
  0
VERTEX
  8
a
  10
20.0425
  20
16.91503
  30
0.0
  70
0
  0
VERTEX
  8
a
  10
19.95397
  20
16.76618
  30
0.0
  70
0
  0
VERTEX
  8
a
  10
19.86123
  20
16.62297
  30
0.0
  70
0
  0
VERTEX
  8
a
  10
19.76418
  20
16.48575
  30
0.0
  70
0
  0
VERTEX
  8
a
  10
19.66267
  20
16.35502
  30
0.0
  70
0
  0
VERTEX
  8
a
  10
19.55644
  20
16.23146
  30
0.0
  70
0
  0
VERTEX
  8
a
  10
19.44498
  20
16.11612
  30
0.0
  70
0
  0
VERTEX
  8
a
  10
19.32721
  20
16.01107
  30
0.0
  70
0
  0
VERTEX
  8
a
  10
19.20144
  20
15.9194
  30
0.0
  70
0
  0
VERTEX
  8
a
  10
19.14001
  20
15.87106
  30
0.0
  70
0
  0
VERTEX
  8
a
  10
19.08116
  20
15.81833
  30
0.0
  70
0
  0
VERTEX
  8
a
  10
19.02551
  20
15.76008
  30
0.0
  70
0
  0
VERTEX
  8
a
  10
18.97415
  20
15.69433
  30
0.0
  70
0
  0
VERTEX
  8
a
  10
18.95071
  20
15.6575
  30
0.0
  70
0
  0
VERTEX
  8
a
  10
18.92941
  20
15.61685
  30
0.0
  70
0
  0
VERTEX
  8
a
  10
18.91128
  20
15.57049
  30
0.0
  70
0
  0
VERTEX
  8
a
  10
18.89897
  20
15.51357
  30
0.0
  70
0
  0
VERTEX
  8
a
  10
19.03672
  20
15.17441
  30
0.0
  70
0
  0
VERTEX
  8
a
  10
19.03672
  20
15.17441
  30
0.0
  70
0
  0
VERTEX
  8
a
  10
19.23015
  20
14.86361
  30
0.0
  70
0
  0
VERTEX
  8
a
  10
19.28343
  20
14.84011
  30
0.0
  70
0
  0
VERTEX
  8
a
  10
19.33159
  20
14.82752
  30
0.0
  70
0
  0
VERTEX
  8
a
  10
19.377
  20
14.82087
  30
0.0
  70
0
  0
VERTEX
  8
a
  10
19.42057
  20
14.81819
  30
0.0
  70
0
  0
VERTEX
  8
a
  10
19.50395
  20
14.82109
  30
0.0
  70
0
  0
VERTEX
  8
a
  10
19.58379
  20
14.83187
  30
0.0
  70
0
  0
VERTEX
  8
a
  10
19.66104
  20
14.84849
  30
0.0
  70
0
  0
VERTEX
  8
a
  10
19.73625
  20
14.86977
  30
0.0
  70
0
  0
VERTEX
  8
a
  10
19.88434
  20
14.91764
  30
0.0
  70
0
  0
VERTEX
  8
a
  10
20.03855
  20
14.95117
  30
0.0
  70
0
  0
VERTEX
  8
a
  10
20.19737
  20
14.97355
  30
0.0
  70
0
  0
VERTEX
  8
a
  10
20.35978
  20
14.98686
  30
0.0
  70
0
  0
VERTEX
  8
a
  10
20.52521
  20
14.99214
  30
0.0
  70
0
  0
VERTEX
  8
a
  10
20.69326
  20
14.99
  30
0.0
  70
0
  0
VERTEX
  8
a
  10
20.86364
  20
14.98086
  30
0.0
  70
0
  0
VERTEX
  8
a
  10
21.03609
  20
14.96499
  30
0.0
  70
0
  0
VERTEX
  8
a
  10
21.2104
  20
14.94262
  30
0.0
  70
0
  0
VERTEX
  8
a
  10
21.38636
  20
14.9139
  30
0.0
  70
0
  0
VERTEX
  8
a
  10
21.5638
  20
14.87896
  30
0.0
  70
0
  0
VERTEX
  8
a
  10
21.69775
  20
14.84874
  30
0.0
  70
0
  0
VERTEX
  8
a
  10
21.85258
  20
14.37222
  30
0.0
  70
0
  0
VERTEX
  8
a
  10
21.76198
  20
14.26903
  30
0.0
  70
0
  0
VERTEX
  8
a
  10
21.63896
  20
14.13647
  30
0.0
  70
0
  0
VERTEX
  8
a
  10
21.51349
  20
14.00981
  30
0.0
  70
0
  0
VERTEX
  8
a
  10
21.38562
  20
13.88926
  30
0.0
  70
0
  0
VERTEX
  8
a
  10
21.25543
  20
13.77505
  30
0.0
  70
0
  0
VERTEX
  8
a
  10
21.12297
  20
13.66751
  30
0.0
  70
0
  0
VERTEX
  8
a
  10
20.98827
  20
13.56699
  30
0.0
  70
0
  0
VERTEX
  8
a
  10
20.85133
  20
13.47403
  30
0.0
  70
0
  0
VERTEX
  8
a
  10
20.71211
  20
13.38934
  30
0.0
  70
0
  0
VERTEX
  8
a
  10
20.57047
  20
13.3141
  30
0.0
  70
0
  0
VERTEX
  8
a
  10
20.42601
  20
13.25058
  30
0.0
  70
0
  0
VERTEX
  8
a
  10
20.27806
  20
13.20226
  30
0.0
  70
0
  0
VERTEX
  8
a
  10
20.2047
  20
13.17527
  30
0.0
  70
0
  0
VERTEX
  8
a
  10
20.13244
  20
13.14331
  30
0.0
  70
0
  0
VERTEX
  8
a
  10
20.06151
  20
13.1051
  30
0.0
  70
0
  0
VERTEX
  8
a
  10
19.99235
  20
13.05844
  30
0.0
  70
0
  0
VERTEX
  8
a
  10
19.95867
  20
13.03066
  30
0.0
  70
0
  0
VERTEX
  8
a
  10
19.92585
  20
12.99859
  30
0.0
  70
0
  0
VERTEX
  8
a
  10
19.89428
  20
12.96009
  30
0.0
  70
0
  0
VERTEX
  8
a
  10
19.86499
  20
12.90976
  30
0.0
  70
0
  0
VERTEX
  8
a
  10
19.89119
  20
12.54463
  30
0.0
  70
0
  0
SEQEND
  0
CIRCLE
  8
a
  10
11.16208
  20
11.16208
  30
0.0
  40
0.5
 0
LINE
 8
c
 10
19.89119
 20
9.77952
 30
0
 11
22.18673
 21
9.41594
 31
 0
 0
LINE
 8
c
 10
19.03672
 20
7.14974
 30
0
 11
21.10756
 21
6.0946
 31
 0
 0
LINE
 8
c
 10
17.41143
 20
4.91272
 30
0
 11
19.05485
 21
3.2693
 31
 0
 0
LINE
 8
c
 10
15.17441
 20
3.28743
 30
0
 11
16.22955
 21
1.21659
 31
 0
 0
LINE
 8
c
 10
12.54463
 20
2.43296
 30
0
 11
12.90821
 21
0.13742
 31
 0
 0
LINE
 8
c
 10
9.77952
 20
2.43296
 30
0
 11
9.41594
 21
0.13742
 31
 0
 0
LINE
 8
c
 10
7.14974
 20
3.28743
 30
0
 11
6.0946
 21
1.21659
 31
 0
 0
LINE
 8
c
 10
4.91272
 20
4.91272
 30
0
 11
3.2693
 21
3.2693
 31
 0
 0
LINE
 8
c
 10
3.28743
 20
7.14974
 30
0
 11
1.21659
 21
6.0946
 31
 0
 0
LINE
 8
c
 10
2.43296
 20
9.77952
 30
0
 11
0.13742
 21
9.41594
 31
 0
 0
LINE
 8
c
 10
2.43296
 20
12.54463
 30
0
 11
0.13742
 21
12.90821
 31
 0
 0
LINE
 8
c
 10
3.28743
 20
15.17441
 30
0
 11
1.21659
 21
16.22955
 31
 0
 0
LINE
 8
c
 10
4.91272
 20
17.41143
 30
0
 11
3.2693
 21
19.05485
 31
 0
 0
LINE
 8
c
 10
7.14974
 20
19.03672
 30
0
 11
6.0946
 21
21.10756
 31
 0
 0
LINE
 8
c
 10
9.77952
 20
19.89119
 30
0
 11
9.41594
 21
22.18673
 31
 0
 0
LINE
 8
c
 10
12.54463
 20
19.89119
 30
0
 11
12.90821
 21
22.18673
 31
 0
 0
LINE
 8
c
 10
15.17441
 20
19.03672
 30
0
 11
16.22955
 21
21.10756
 31
 0
 0
LINE
 8
c
 10
17.41143
 20
17.41143
 30
0
 11
19.05485
 21
19.05485
 31
 0
 0
LINE
 8
c
 10
19.03672
 20
15.17441
 30
0
 11
21.10756
 21
16.22955
 31
 0
 0
LINE
 8
c
 10
19.89119
 20
12.54463
 30
0
 11
22.18673
 21
12.90821
 31
 0
  0
CIRCLE
  8
c
  10
11.16208
  20
11.16208
  30
0.0
  40
10
 0
LINE
 8
a
 10
7.44138
 20
11.16208
 30
0
 11
14.88277
 21
11.16208
 31
 0
 0
LINE
 8
a
 10
11.16208
 20
7.44138
 30
0
 11
11.16208
 21
14.88277
 31
 0
  0
TEXT
  8
labels
  10
0.0
  20
0.0
  30
0.0
  40
0.1
  1
G1:Toothspacing=3.14  Teeth=20  Spur gear  Angle=20.0  Addendum=.4
  41
1.0
  7
ARIAL
  0
ENDSEC
  0
EOF
