  999
DXF file created by gear template generator. 2019-01-25T12:18:12
  999
G2:Toothspacing=3.14  Teeth=40  Spur gear  Angle=20.0  Addendum=.4
  0
SECTION
  2
HEADER
  9
$MEASUREMENT
  70
1
  0
ENDSEC
  0
SECTION
  2
TABLES
  0
TABLE
  2
LTYPE
  70
1
  0
LTYPE
  2
Continuous
  3
_
  70
0
  72
65
  73
0
  40
0.0
  0
ENDTAB
  0
TABLE
  2
LAYER
  70
4
  0
LAYER
  2
profile
  70
0
  62
7
  6
Continuous
  0
LAYER
  2
construction
  70
0
  62
5
  6
Continuous
  0
LAYER
  2
grid
  70
0
  62
3
  6
Continuous
  0
LAYER
  2
labels
  70
0
  62
1
  6
Continuous
  0
ENDTAB
  0
TABLE
  2
STYLE
  70
1
  0
STYLE
  2
ARIAL
  3
Arial.ttf
  70
0
  40
0.0
  41
1.0
  50
0.0
  71
0
  42
1.0
  0
ENDTAB
  0
ENDSEC
  0
SECTION
  2
ENTITIES
 0
LINE
 8
b
 10
0.22491
 20
0
 30
0
 11
0.22491
 21
42.44981
 31
 0
 0
LINE
 8
b
 10
1.22491
 20
0
 30
0
 11
1.22491
 21
42.44981
 31
 0
 0
LINE
 8
b
 10
2.22491
 20
0
 30
0
 11
2.22491
 21
42.44981
 31
 0
 0
LINE
 8
b
 10
3.22491
 20
0
 30
0
 11
3.22491
 21
42.44981
 31
 0
 0
LINE
 8
b
 10
4.22491
 20
0
 30
0
 11
4.22491
 21
42.44981
 31
 0
 0
LINE
 8
b
 10
5.22491
 20
0
 30
0
 11
5.22491
 21
42.44981
 31
 0
 0
LINE
 8
b
 10
6.22491
 20
0
 30
0
 11
6.22491
 21
42.44981
 31
 0
 0
LINE
 8
b
 10
7.22491
 20
0
 30
0
 11
7.22491
 21
42.44981
 31
 0
 0
LINE
 8
b
 10
8.22491
 20
0
 30
0
 11
8.22491
 21
42.44981
 31
 0
 0
LINE
 8
b
 10
9.22491
 20
0
 30
0
 11
9.22491
 21
42.44981
 31
 0
 0
LINE
 8
b
 10
10.22491
 20
0
 30
0
 11
10.22491
 21
42.44981
 31
 0
 0
LINE
 8
b
 10
11.22491
 20
0
 30
0
 11
11.22491
 21
42.44981
 31
 0
 0
LINE
 8
b
 10
12.22491
 20
0
 30
0
 11
12.22491
 21
42.44981
 31
 0
 0
LINE
 8
b
 10
13.22491
 20
0
 30
0
 11
13.22491
 21
42.44981
 31
 0
 0
LINE
 8
b
 10
14.22491
 20
0
 30
0
 11
14.22491
 21
42.44981
 31
 0
 0
LINE
 8
b
 10
15.22491
 20
0
 30
0
 11
15.22491
 21
42.44981
 31
 0
 0
LINE
 8
b
 10
16.22491
 20
0
 30
0
 11
16.22491
 21
42.44981
 31
 0
 0
LINE
 8
b
 10
17.22491
 20
0
 30
0
 11
17.22491
 21
42.44981
 31
 0
 0
LINE
 8
b
 10
18.22491
 20
0
 30
0
 11
18.22491
 21
42.44981
 31
 0
 0
LINE
 8
b
 10
19.22491
 20
0
 30
0
 11
19.22491
 21
42.44981
 31
 0
 0
LINE
 8
b
 10
20.22491
 20
0
 30
0
 11
20.22491
 21
42.44981
 31
 0
 0
LINE
 8
b
 10
21.22491
 20
0
 30
0
 11
21.22491
 21
42.44981
 31
 0
 0
LINE
 8
b
 10
22.22491
 20
0
 30
0
 11
22.22491
 21
42.44981
 31
 0
 0
LINE
 8
b
 10
23.22491
 20
0
 30
0
 11
23.22491
 21
42.44981
 31
 0
 0
LINE
 8
b
 10
24.22491
 20
0
 30
0
 11
24.22491
 21
42.44981
 31
 0
 0
LINE
 8
b
 10
25.22491
 20
0
 30
0
 11
25.22491
 21
42.44981
 31
 0
 0
LINE
 8
b
 10
26.22491
 20
0
 30
0
 11
26.22491
 21
42.44981
 31
 0
 0
LINE
 8
b
 10
27.22491
 20
0
 30
0
 11
27.22491
 21
42.44981
 31
 0
 0
LINE
 8
b
 10
28.22491
 20
0
 30
0
 11
28.22491
 21
42.44981
 31
 0
 0
LINE
 8
b
 10
29.22491
 20
0
 30
0
 11
29.22491
 21
42.44981
 31
 0
 0
LINE
 8
b
 10
30.22491
 20
0
 30
0
 11
30.22491
 21
42.44981
 31
 0
 0
LINE
 8
b
 10
31.22491
 20
0
 30
0
 11
31.22491
 21
42.44981
 31
 0
 0
LINE
 8
b
 10
32.22491
 20
0
 30
0
 11
32.22491
 21
42.44981
 31
 0
 0
LINE
 8
b
 10
33.22491
 20
0
 30
0
 11
33.22491
 21
42.44981
 31
 0
 0
LINE
 8
b
 10
34.22491
 20
0
 30
0
 11
34.22491
 21
42.44981
 31
 0
 0
LINE
 8
b
 10
35.22491
 20
0
 30
0
 11
35.22491
 21
42.44981
 31
 0
 0
LINE
 8
b
 10
36.22491
 20
0
 30
0
 11
36.22491
 21
42.44981
 31
 0
 0
LINE
 8
b
 10
37.22491
 20
0
 30
0
 11
37.22491
 21
42.44981
 31
 0
 0
LINE
 8
b
 10
38.22491
 20
0
 30
0
 11
38.22491
 21
42.44981
 31
 0
 0
LINE
 8
b
 10
39.22491
 20
0
 30
0
 11
39.22491
 21
42.44981
 31
 0
 0
LINE
 8
b
 10
40.22491
 20
0
 30
0
 11
40.22491
 21
42.44981
 31
 0
 0
LINE
 8
b
 10
41.22491
 20
0
 30
0
 11
41.22491
 21
42.44981
 31
 0
 0
LINE
 8
b
 10
42.22491
 20
0
 30
0
 11
42.22491
 21
42.44981
 31
 0
 0
LINE
 8
b
 10
0
 20
0.22491
 30
0
 11
42.44981
 21
0.22491
 31
 0
 0
LINE
 8
b
 10
0
 20
1.22491
 30
0
 11
42.44981
 21
1.22491
 31
 0
 0
LINE
 8
b
 10
0
 20
2.22491
 30
0
 11
42.44981
 21
2.22491
 31
 0
 0
LINE
 8
b
 10
0
 20
3.22491
 30
0
 11
42.44981
 21
3.22491
 31
 0
 0
LINE
 8
b
 10
0
 20
4.22491
 30
0
 11
42.44981
 21
4.22491
 31
 0
 0
LINE
 8
b
 10
0
 20
5.22491
 30
0
 11
42.44981
 21
5.22491
 31
 0
 0
LINE
 8
b
 10
0
 20
6.22491
 30
0
 11
42.44981
 21
6.22491
 31
 0
 0
LINE
 8
b
 10
0
 20
7.22491
 30
0
 11
42.44981
 21
7.22491
 31
 0
 0
LINE
 8
b
 10
0
 20
8.22491
 30
0
 11
42.44981
 21
8.22491
 31
 0
 0
LINE
 8
b
 10
0
 20
9.22491
 30
0
 11
42.44981
 21
9.22491
 31
 0
 0
LINE
 8
b
 10
0
 20
10.22491
 30
0
 11
42.44981
 21
10.22491
 31
 0
 0
LINE
 8
b
 10
0
 20
11.22491
 30
0
 11
42.44981
 21
11.22491
 31
 0
 0
LINE
 8
b
 10
0
 20
12.22491
 30
0
 11
42.44981
 21
12.22491
 31
 0
 0
LINE
 8
b
 10
0
 20
13.22491
 30
0
 11
42.44981
 21
13.22491
 31
 0
 0
LINE
 8
b
 10
0
 20
14.22491
 30
0
 11
42.44981
 21
14.22491
 31
 0
 0
LINE
 8
b
 10
0
 20
15.22491
 30
0
 11
42.44981
 21
15.22491
 31
 0
 0
LINE
 8
b
 10
0
 20
16.22491
 30
0
 11
42.44981
 21
16.22491
 31
 0
 0
LINE
 8
b
 10
0
 20
17.22491
 30
0
 11
42.44981
 21
17.22491
 31
 0
 0
LINE
 8
b
 10
0
 20
18.22491
 30
0
 11
42.44981
 21
18.22491
 31
 0
 0
LINE
 8
b
 10
0
 20
19.22491
 30
0
 11
42.44981
 21
19.22491
 31
 0
 0
LINE
 8
b
 10
0
 20
20.22491
 30
0
 11
42.44981
 21
20.22491
 31
 0
 0
LINE
 8
b
 10
0
 20
21.22491
 30
0
 11
42.44981
 21
21.22491
 31
 0
 0
LINE
 8
b
 10
0
 20
22.22491
 30
0
 11
42.44981
 21
22.22491
 31
 0
 0
LINE
 8
b
 10
0
 20
23.22491
 30
0
 11
42.44981
 21
23.22491
 31
 0
 0
LINE
 8
b
 10
0
 20
24.22491
 30
0
 11
42.44981
 21
24.22491
 31
 0
 0
LINE
 8
b
 10
0
 20
25.22491
 30
0
 11
42.44981
 21
25.22491
 31
 0
 0
LINE
 8
b
 10
0
 20
26.22491
 30
0
 11
42.44981
 21
26.22491
 31
 0
 0
LINE
 8
b
 10
0
 20
27.22491
 30
0
 11
42.44981
 21
27.22491
 31
 0
 0
LINE
 8
b
 10
0
 20
28.22491
 30
0
 11
42.44981
 21
28.22491
 31
 0
 0
LINE
 8
b
 10
0
 20
29.22491
 30
0
 11
42.44981
 21
29.22491
 31
 0
 0
LINE
 8
b
 10
0
 20
30.22491
 30
0
 11
42.44981
 21
30.22491
 31
 0
 0
LINE
 8
b
 10
0
 20
31.22491
 30
0
 11
42.44981
 21
31.22491
 31
 0
 0
LINE
 8
b
 10
0
 20
32.22491
 30
0
 11
42.44981
 21
32.22491
 31
 0
 0
LINE
 8
b
 10
0
 20
33.22491
 30
0
 11
42.44981
 21
33.22491
 31
 0
 0
LINE
 8
b
 10
0
 20
34.22491
 30
0
 11
42.44981
 21
34.22491
 31
 0
 0
LINE
 8
b
 10
0
 20
35.22491
 30
0
 11
42.44981
 21
35.22491
 31
 0
 0
LINE
 8
b
 10
0
 20
36.22491
 30
0
 11
42.44981
 21
36.22491
 31
 0
 0
LINE
 8
b
 10
0
 20
37.22491
 30
0
 11
42.44981
 21
37.22491
 31
 0
 0
LINE
 8
b
 10
0
 20
38.22491
 30
0
 11
42.44981
 21
38.22491
 31
 0
 0
LINE
 8
b
 10
0
 20
39.22491
 30
0
 11
42.44981
 21
39.22491
 31
 0
 0
LINE
 8
b
 10
0
 20
40.22491
 30
0
 11
42.44981
 21
40.22491
 31
 0
 0
LINE
 8
b
 10
0
 20
41.22491
 30
0
 11
42.44981
 21
41.22491
 31
 0
 0
LINE
 8
b
 10
0
 20
42.22491
 30
0
 11
42.44981
 21
42.22491
 31
 0
  0
POLYLINE
  8
a
  66
1
  10
0.0
  20
0.0
  70
1
  0
VERTEX
  8
a
  10
2.45064
  20
21.40151
  30
0.0
  70
0
  0
VERTEX
  8
a
  10
2.39421
  20
21.68573
  30
0.0
  70
0
  0
VERTEX
  8
a
  10
2.33311
  20
21.6926
  30
0.0
  70
0
  0
VERTEX
  8
a
  10
2.27207
  20
21.70144
  30
0.0
  70
0
  0
VERTEX
  8
a
  10
2.1501
  20
21.72358
  30
0.0
  70
0
  0
VERTEX
  8
a
  10
2.02829
  20
21.75052
  30
0.0
  70
0
  0
VERTEX
  8
a
  10
1.90662
  20
21.78153
  30
0.0
  70
0
  0
VERTEX
  8
a
  10
1.66374
  20
21.8541
  30
0.0
  70
0
  0
VERTEX
  8
a
  10
1.42152
  20
21.93905
  30
0.0
  70
0
  0
VERTEX
  8
a
  10
1.18003
  20
22.03511
  30
0.0
  70
0
  0
VERTEX
  8
a
  10
0.93937
  20
22.1414
  30
0.0
  70
0
  0
VERTEX
  8
a
  10
0.69965
  20
22.25732
  30
0.0
  70
0
  0
VERTEX
  8
a
  10
0.46095
  20
22.38238
  30
0.0
  70
0
  0
VERTEX
  8
a
  10
0.2234
  20
22.51623
  30
0.0
  70
0
  0
VERTEX
  8
a
  10
0.04604
  20
22.6222
  30
0.0
  70
0
  0
VERTEX
  8
a
  10
0.08821
  20
23.15792
  30
0.0
  70
0
  0
VERTEX
  8
a
  10
0.27995
  20
23.23484
  30
0.0
  70
0
  0
VERTEX
  8
a
  10
0.53552
  20
23.32988
  30
0.0
  70
0
  0
VERTEX
  8
a
  10
0.79084
  20
23.41607
  30
0.0
  70
0
  0
VERTEX
  8
a
  10
1.04575
  20
23.49305
  30
0.0
  70
0
  0
VERTEX
  8
a
  10
1.30007
  20
23.56039
  30
0.0
  70
0
  0
VERTEX
  8
a
  10
1.55361
  20
23.61749
  30
0.0
  70
0
  0
VERTEX
  8
a
  10
1.80614
  20
23.66351
  30
0.0
  70
0
  0
VERTEX
  8
a
  10
2.05739
  20
23.69718
  30
0.0
  70
0
  0
VERTEX
  8
a
  10
2.18241
  20
23.70878
  30
0.0
  70
0
  0
VERTEX
  8
a
  10
2.30694
  20
23.71633
  30
0.0
  70
0
  0
VERTEX
  8
a
  10
2.43086
  20
23.71912
  30
0.0
  70
0
  0
VERTEX
  8
a
  10
2.49254
  20
23.7183
  30
0.0
  70
0
  0
VERTEX
  8
a
  10
2.55396
  20
23.71553
  30
0.0
  70
0
  0
VERTEX
  8
a
  10
2.65416
  20
23.98742
  30
0.0
  70
0
  0
VERTEX
  8
a
  10
2.70941
  20
24.33628
  30
0.0
  70
0
  0
VERTEX
  8
a
  10
2.69813
  20
24.62582
  30
0.0
  70
0
  0
VERTEX
  8
a
  10
2.63886
  20
24.64217
  30
0.0
  70
0
  0
VERTEX
  8
a
  10
2.57996
  20
24.66045
  30
0.0
  70
0
  0
VERTEX
  8
a
  10
2.46296
  20
24.70139
  30
0.0
  70
0
  0
VERTEX
  8
a
  10
2.34686
  20
24.74706
  30
0.0
  70
0
  0
VERTEX
  8
a
  10
2.23154
  20
24.79672
  30
0.0
  70
0
  0
VERTEX
  8
a
  10
2.003
  20
24.90639
  30
0.0
  70
0
  0
VERTEX
  8
a
  10
1.77704
  20
25.02819
  30
0.0
  70
0
  0
VERTEX
  8
a
  10
1.55356
  20
25.16084
  30
0.0
  70
0
  0
VERTEX
  8
a
  10
1.33249
  20
25.30347
  30
0.0
  70
0
  0
VERTEX
  8
a
  10
1.11385
  20
25.45546
  30
0.0
  70
0
  0
VERTEX
  8
a
  10
0.89766
  20
25.61633
  30
0.0
  70
0
  0
VERTEX
  8
a
  10
0.68397
  20
25.78569
  30
0.0
  70
0
  0
VERTEX
  8
a
  10
0.52538
  20
25.9181
  30
0.0
  70
0
  0
VERTEX
  8
a
  10
0.65082
  20
26.44063
  30
0.0
  70
0
  0
VERTEX
  8
a
  10
0.85224
  20
26.48661
  30
0.0
  70
0
  0
VERTEX
  8
a
  10
1.11953
  20
26.5405
  30
0.0
  70
0
  0
VERTEX
  8
a
  10
1.38519
  20
26.58568
  30
0.0
  70
0
  0
VERTEX
  8
a
  10
1.64901
  20
26.62185
  30
0.0
  70
0
  0
VERTEX
  8
a
  10
1.91073
  20
26.64857
  30
0.0
  70
0
  0
VERTEX
  8
a
  10
2.17008
  20
26.6653
  30
0.0
  70
0
  0
VERTEX
  8
a
  10
2.4267
  20
26.67125
  30
0.0
  70
0
  0
VERTEX
  8
a
  10
2.68012
  20
26.66521
  30
0.0
  70
0
  0
VERTEX
  8
a
  10
2.80542
  20
26.6571
  30
0.0
  70
0
  0
VERTEX
  8
a
  10
2.92959
  20
26.64508
  30
0.0
  70
0
  0
VERTEX
  8
a
  10
3.05243
  20
26.62844
  30
0.0
  70
0
  0
VERTEX
  8
a
  10
3.11322
  20
26.61799
  30
0.0
  70
0
  0
VERTEX
  8
a
  10
3.17345
  20
26.60565
  30
0.0
  70
0
  0
VERTEX
  8
a
  10
3.31495
  20
26.85851
  30
0.0
  70
0
  0
VERTEX
  8
a
  10
3.4241
  20
27.19443
  30
0.0
  70
0
  0
VERTEX
  8
a
  10
3.45825
  20
27.48218
  30
0.0
  70
0
  0
VERTEX
  8
a
  10
3.40227
  20
27.50759
  30
0.0
  70
0
  0
VERTEX
  8
a
  10
3.34694
  20
27.53487
  30
0.0
  70
0
  0
VERTEX
  8
a
  10
3.23779
  20
27.59361
  30
0.0
  70
0
  0
VERTEX
  8
a
  10
3.13026
  20
27.65687
  30
0.0
  70
0
  0
VERTEX
  8
a
  10
3.02413
  20
27.72396
  30
0.0
  70
0
  0
VERTEX
  8
a
  10
2.81556
  20
27.86803
  30
0.0
  70
0
  0
VERTEX
  8
a
  10
2.61145
  20
28.02368
  30
0.0
  70
0
  0
VERTEX
  8
a
  10
2.41146
  20
28.18966
  30
0.0
  70
0
  0
VERTEX
  8
a
  10
2.21543
  20
28.36512
  30
0.0
  70
0
  0
VERTEX
  8
a
  10
2.02326
  20
28.54944
  30
0.0
  70
0
  0
VERTEX
  8
a
  10
1.83489
  20
28.74215
  30
0.0
  70
0
  0
VERTEX
  8
a
  10
1.65033
  20
28.94285
  30
0.0
  70
0
  0
VERTEX
  8
a
  10
1.5144
  20
29.09844
  30
0.0
  70
0
  0
VERTEX
  8
a
  10
1.72004
  20
29.59491
  30
0.0
  70
0
  0
VERTEX
  8
a
  10
1.92618
  20
29.60881
  30
0.0
  70
0
  0
VERTEX
  8
a
  10
2.19861
  20
29.62023
  30
0.0
  70
0
  0
VERTEX
  8
a
  10
2.46806
  20
29.6233
  30
0.0
  70
0
  0
VERTEX
  8
a
  10
2.73429
  20
29.61775
  30
0.0
  70
0
  0
VERTEX
  8
a
  10
2.99697
  20
29.6032
  30
0.0
  70
0
  0
VERTEX
  8
a
  10
3.25574
  20
29.57915
  30
0.0
  70
0
  0
VERTEX
  8
a
  10
3.51013
  20
29.54488
  30
0.0
  70
0
  0
VERTEX
  8
a
  10
3.75949
  20
29.49927
  30
0.0
  70
0
  0
VERTEX
  8
a
  10
3.88197
  20
29.47166
  30
0.0
  70
0
  0
VERTEX
  8
a
  10
4.00274
  20
29.44037
  30
0.0
  70
0
  0
VERTEX
  8
a
  10
4.12146
  20
29.40472
  30
0.0
  70
0
  0
VERTEX
  8
a
  10
4.17987
  20
29.38489
  30
0.0
  70
0
  0
VERTEX
  8
a
  10
4.23742
  20
29.36327
  30
0.0
  70
0
  0
VERTEX
  8
a
  10
4.41674
  20
29.59089
  30
0.0
  70
0
  0
VERTEX
  8
a
  10
4.57709
  20
29.9056
  30
0.0
  70
0
  0
VERTEX
  8
a
  10
4.65584
  20
30.18446
  30
0.0
  70
0
  0
VERTEX
  8
a
  10
4.60452
  20
30.21832
  30
0.0
  70
0
  0
VERTEX
  8
a
  10
4.55415
  20
30.25391
  30
0.0
  70
0
  0
VERTEX
  8
a
  10
4.45552
  20
30.329
  30
0.0
  70
0
  0
VERTEX
  8
a
  10
4.35922
  20
30.40831
  30
0.0
  70
0
  0
VERTEX
  8
a
  10
4.26489
  20
30.49118
  30
0.0
  70
0
  0
VERTEX
  8
a
  10
4.08143
  20
30.6661
  30
0.0
  70
0
  0
VERTEX
  8
a
  10
3.90417
  20
30.85177
  30
0.0
  70
0
  0
VERTEX
  8
a
  10
3.73261
  20
31.04698
  30
0.0
  70
0
  0
VERTEX
  8
a
  10
3.56644
  20
31.25095
  30
0.0
  70
0
  0
VERTEX
  8
a
  10
3.40547
  20
31.46306
  30
0.0
  70
0
  0
VERTEX
  8
a
  10
3.24957
  20
31.68286
  30
0.0
  70
0
  0
VERTEX
  8
a
  10
3.09868
  20
31.90997
  30
0.0
  70
0
  0
VERTEX
  8
a
  10
2.98876
  20
32.08491
  30
0.0
  70
0
  0
VERTEX
  8
a
  10
3.26954
  20
32.5431
  30
0.0
  70
0
  0
VERTEX
  8
a
  10
3.47531
  20
32.52458
  30
0.0
  70
0
  0
VERTEX
  8
a
  10
3.74617
  20
32.49323
  30
0.0
  70
0
  0
VERTEX
  8
a
  10
4.01279
  20
32.45412
  30
0.0
  70
0
  0
VERTEX
  8
a
  10
4.27486
  20
32.40699
  30
0.0
  70
0
  0
VERTEX
  8
a
  10
4.53204
  20
32.35153
  30
0.0
  70
0
  0
VERTEX
  8
a
  10
4.78386
  20
32.28729
  30
0.0
  70
0
  0
VERTEX
  8
a
  10
5.02976
  20
32.21365
  30
0.0
  70
0
  0
VERTEX
  8
a
  10
5.26891
  20
32.12959
  30
0.0
  70
0
  0
VERTEX
  8
a
  10
5.38557
  20
32.08317
  30
0.0
  70
0
  0
VERTEX
  8
a
  10
5.49996
  20
32.03336
  30
0.0
  70
0
  0
VERTEX
  8
a
  10
5.61164
  20
31.97958
  30
0.0
  70
0
  0
VERTEX
  8
a
  10
5.66622
  20
31.95086
  30
0.0
  70
0
  0
VERTEX
  8
a
  10
5.71969
  20
31.92051
  30
0.0
  70
0
  0
VERTEX
  8
a
  10
5.9324
  20
32.11727
  30
0.0
  70
0
  0
VERTEX
  8
a
  10
6.14001
  20
32.40302
  30
0.0
  70
0
  0
VERTEX
  8
a
  10
6.26141
  20
32.66612
  30
0.0
  70
0
  0
VERTEX
  8
a
  10
6.21602
  20
32.70759
  30
0.0
  70
0
  0
VERTEX
  8
a
  10
6.17184
  20
32.75063
  30
0.0
  70
0
  0
VERTEX
  8
a
  10
6.08618
  20
32.84023
  30
0.0
  70
0
  0
VERTEX
  8
a
  10
6.00347
  20
32.93362
  30
0.0
  70
0
  0
VERTEX
  8
a
  10
5.92326
  20
33.03023
  30
0.0
  70
0
  0
VERTEX
  8
a
  10
5.76942
  20
33.2317
  30
0.0
  70
0
  0
VERTEX
  8
a
  10
5.62339
  20
33.4428
  30
0.0
  70
0
  0
VERTEX
  8
a
  10
5.48448
  20
33.66245
  30
0.0
  70
0
  0
VERTEX
  8
a
  10
5.35227
  20
33.8899
  30
0.0
  70
0
  0
VERTEX
  8
a
  10
5.22646
  20
34.12459
  30
0.0
  70
0
  0
VERTEX
  8
a
  10
5.10686
  20
34.36607
  30
0.0
  70
0
  0
VERTEX
  8
a
  10
4.99335
  20
34.61399
  30
0.0
  70
0
  0
VERTEX
  8
a
  10
4.91216
  20
34.80397
  30
0.0
  70
0
  0
VERTEX
  8
a
  10
5.26115
  20
35.21259
  30
0.0
  70
0
  0
VERTEX
  8
a
  10
5.46149
  20
35.16211
  30
0.0
  70
0
  0
VERTEX
  8
a
  10
5.72412
  20
35.08878
  30
0.0
  70
0
  0
VERTEX
  8
a
  10
5.98133
  20
35.00843
  30
0.0
  70
0
  0
VERTEX
  8
a
  10
6.23281
  20
34.92089
  30
0.0
  70
0
  0
VERTEX
  8
a
  10
6.47814
  20
34.82588
  30
0.0
  70
0
  0
VERTEX
  8
a
  10
6.71682
  20
34.72304
  30
0.0
  70
0
  0
VERTEX
  8
a
  10
6.94817
  20
34.61184
  30
0.0
  70
0
  0
VERTEX
  8
a
  10
7.17123
  20
34.49141
  30
0.0
  70
0
  0
VERTEX
  8
a
  10
7.27919
  20
34.4273
  30
0.0
  70
0
  0
VERTEX
  8
a
  10
7.38437
  20
34.36022
  30
0.0
  70
0
  0
VERTEX
  8
a
  10
7.48626
  20
34.28963
  30
0.0
  70
0
  0
VERTEX
  8
a
  10
7.53568
  20
34.25272
  30
0.0
  70
0
  0
VERTEX
  8
a
  10
7.58374
  20
34.21438
  30
0.0
  70
0
  0
VERTEX
  8
a
  10
7.82462
  20
34.37544
  30
0.0
  70
0
  0
VERTEX
  8
a
  10
8.07438
  20
34.62519
  30
0.0
  70
0
  0
VERTEX
  8
a
  10
8.23544
  20
34.86607
  30
0.0
  70
0
  0
VERTEX
  8
a
  10
8.1971
  20
34.91413
  30
0.0
  70
0
  0
VERTEX
  8
a
  10
8.16019
  20
34.96355
  30
0.0
  70
0
  0
VERTEX
  8
a
  10
8.0896
  20
35.06544
  30
0.0
  70
0
  0
VERTEX
  8
a
  10
8.02251
  20
35.17063
  30
0.0
  70
0
  0
VERTEX
  8
a
  10
7.95841
  20
35.27859
  30
0.0
  70
0
  0
VERTEX
  8
a
  10
7.83798
  20
35.50164
  30
0.0
  70
0
  0
VERTEX
  8
a
  10
7.72677
  20
35.733
  30
0.0
  70
0
  0
VERTEX
  8
a
  10
7.62393
  20
35.97167
  30
0.0
  70
0
  0
VERTEX
  8
a
  10
7.52893
  20
36.217
  30
0.0
  70
0
  0
VERTEX
  8
a
  10
7.44138
  20
36.46848
  30
0.0
  70
0
  0
VERTEX
  8
a
  10
7.36103
  20
36.7257
  30
0.0
  70
0
  0
VERTEX
  8
a
  10
7.2877
  20
36.98832
  30
0.0
  70
0
  0
VERTEX
  8
a
  10
7.23723
  20
37.18866
  30
0.0
  70
0
  0
VERTEX
  8
a
  10
7.64585
  20
37.53766
  30
0.0
  70
0
  0
VERTEX
  8
a
  10
7.83582
  20
37.45646
  30
0.0
  70
0
  0
VERTEX
  8
a
  10
8.08374
  20
37.34295
  30
0.0
  70
0
  0
VERTEX
  8
a
  10
8.32523
  20
37.22336
  30
0.0
  70
0
  0
VERTEX
  8
a
  10
8.55991
  20
37.09755
  30
0.0
  70
0
  0
VERTEX
  8
a
  10
8.78736
  20
36.96533
  30
0.0
  70
0
  0
VERTEX
  8
a
  10
9.00701
  20
36.82642
  30
0.0
  70
0
  0
VERTEX
  8
a
  10
9.21812
  20
36.6804
  30
0.0
  70
0
  0
VERTEX
  8
a
  10
9.41959
  20
36.52655
  30
0.0
  70
0
  0
VERTEX
  8
a
  10
9.51619
  20
36.44635
  30
0.0
  70
0
  0
VERTEX
  8
a
  10
9.60959
  20
36.36364
  30
0.0
  70
0
  0
VERTEX
  8
a
  10
9.69918
  20
36.27798
  30
0.0
  70
0
  0
VERTEX
  8
a
  10
9.74222
  20
36.23379
  30
0.0
  70
0
  0
VERTEX
  8
a
  10
9.78369
  20
36.1884
  30
0.0
  70
0
  0
VERTEX
  8
a
  10
10.0468
  20
36.3098
  30
0.0
  70
0
  0
VERTEX
  8
a
  10
10.33255
  20
36.51741
  30
0.0
  70
0
  0
VERTEX
  8
a
  10
10.52931
  20
36.73013
  30
0.0
  70
0
  0
VERTEX
  8
a
  10
10.49896
  20
36.78359
  30
0.0
  70
0
  0
VERTEX
  8
a
  10
10.47023
  20
36.83818
  30
0.0
  70
0
  0
VERTEX
  8
a
  10
10.41645
  20
36.94986
  30
0.0
  70
0
  0
VERTEX
  8
a
  10
10.36665
  20
37.06424
  30
0.0
  70
0
  0
VERTEX
  8
a
  10
10.32022
  20
37.1809
  30
0.0
  70
0
  0
VERTEX
  8
a
  10
10.23617
  20
37.42005
  30
0.0
  70
0
  0
VERTEX
  8
a
  10
10.16252
  20
37.66595
  30
0.0
  70
0
  0
VERTEX
  8
a
  10
10.09829
  20
37.91778
  30
0.0
  70
0
  0
VERTEX
  8
a
  10
10.04283
  20
38.17495
  30
0.0
  70
0
  0
VERTEX
  8
a
  10
9.9957
  20
38.43703
  30
0.0
  70
0
  0
VERTEX
  8
a
  10
9.95658
  20
38.70365
  30
0.0
  70
0
  0
VERTEX
  8
a
  10
9.92524
  20
38.97451
  30
0.0
  70
0
  0
VERTEX
  8
a
  10
9.90672
  20
39.18028
  30
0.0
  70
0
  0
VERTEX
  8
a
  10
10.36491
  20
39.46105
  30
0.0
  70
0
  0
VERTEX
  8
a
  10
10.53984
  20
39.35114
  30
0.0
  70
0
  0
VERTEX
  8
a
  10
10.76695
  20
39.20024
  30
0.0
  70
0
  0
VERTEX
  8
a
  10
10.98675
  20
39.04434
  30
0.0
  70
0
  0
VERTEX
  8
a
  10
11.19887
  20
38.88337
  30
0.0
  70
0
  0
VERTEX
  8
a
  10
11.40283
  20
38.7172
  30
0.0
  70
0
  0
VERTEX
  8
a
  10
11.59805
  20
38.54564
  30
0.0
  70
0
  0
VERTEX
  8
a
  10
11.78371
  20
38.36839
  30
0.0
  70
0
  0
VERTEX
  8
a
  10
11.95864
  20
38.18492
  30
0.0
  70
0
  0
VERTEX
  8
a
  10
12.0415
  20
38.09059
  30
0.0
  70
0
  0
VERTEX
  8
a
  10
12.12081
  20
37.99429
  30
0.0
  70
0
  0
VERTEX
  8
a
  10
12.1959
  20
37.89567
  30
0.0
  70
0
  0
VERTEX
  8
a
  10
12.2315
  20
37.84529
  30
0.0
  70
0
  0
VERTEX
  8
a
  10
12.26536
  20
37.79398
  30
0.0
  70
0
  0
VERTEX
  8
a
  10
12.54421
  20
37.87272
  30
0.0
  70
0
  0
VERTEX
  8
a
  10
12.85893
  20
38.03307
  30
0.0
  70
0
  0
VERTEX
  8
a
  10
13.08654
  20
38.21239
  30
0.0
  70
0
  0
VERTEX
  8
a
  10
13.06493
  20
38.26995
  30
0.0
  70
0
  0
VERTEX
  8
a
  10
13.04509
  20
38.32835
  30
0.0
  70
0
  0
VERTEX
  8
a
  10
13.00945
  20
38.44707
  30
0.0
  70
0
  0
VERTEX
  8
a
  10
12.97815
  20
38.56784
  30
0.0
  70
0
  0
VERTEX
  8
a
  10
12.95054
  20
38.69032
  30
0.0
  70
0
  0
VERTEX
  8
a
  10
12.90493
  20
38.93968
  30
0.0
  70
0
  0
VERTEX
  8
a
  10
12.87066
  20
39.19407
  30
0.0
  70
0
  0
VERTEX
  8
a
  10
12.84661
  20
39.45285
  30
0.0
  70
0
  0
VERTEX
  8
a
  10
12.83207
  20
39.71553
  30
0.0
  70
0
  0
VERTEX
  8
a
  10
12.82652
  20
39.98175
  30
0.0
  70
0
  0
VERTEX
  8
a
  10
12.82959
  20
40.25121
  30
0.0
  70
0
  0
VERTEX
  8
a
  10
12.841
  20
40.52364
  30
0.0
  70
0
  0
VERTEX
  8
a
  10
12.8549
  20
40.72977
  30
0.0
  70
0
  0
VERTEX
  8
a
  10
13.35137
  20
40.93542
  30
0.0
  70
0
  0
VERTEX
  8
a
  10
13.50696
  20
40.79949
  30
0.0
  70
0
  0
VERTEX
  8
a
  10
13.70767
  20
40.61492
  30
0.0
  70
0
  0
VERTEX
  8
a
  10
13.90037
  20
40.42656
  30
0.0
  70
0
  0
VERTEX
  8
a
  10
14.0847
  20
40.23438
  30
0.0
  70
0
  0
VERTEX
  8
a
  10
14.26015
  20
40.03835
  30
0.0
  70
0
  0
VERTEX
  8
a
  10
14.42613
  20
39.83837
  30
0.0
  70
0
  0
VERTEX
  8
a
  10
14.58178
  20
39.63425
  30
0.0
  70
0
  0
VERTEX
  8
a
  10
14.72585
  20
39.42568
  30
0.0
  70
0
  0
VERTEX
  8
a
  10
14.79294
  20
39.31955
  30
0.0
  70
0
  0
VERTEX
  8
a
  10
14.85621
  20
39.21202
  30
0.0
  70
0
  0
VERTEX
  8
a
  10
14.91495
  20
39.10287
  30
0.0
  70
0
  0
VERTEX
  8
a
  10
14.94222
  20
39.04755
  30
0.0
  70
0
  0
VERTEX
  8
a
  10
14.96764
  20
38.99157
  30
0.0
  70
0
  0
VERTEX
  8
a
  10
15.25538
  20
39.02572
  30
0.0
  70
0
  0
VERTEX
  8
a
  10
15.5913
  20
39.13487
  30
0.0
  70
0
  0
VERTEX
  8
a
  10
15.84416
  20
39.27637
  30
0.0
  70
0
  0
VERTEX
  8
a
  10
15.83182
  20
39.3366
  30
0.0
  70
0
  0
VERTEX
  8
a
  10
15.82137
  20
39.39739
  30
0.0
  70
0
  0
VERTEX
  8
a
  10
15.80473
  20
39.52022
  30
0.0
  70
0
  0
VERTEX
  8
a
  10
15.79271
  20
39.6444
  30
0.0
  70
0
  0
VERTEX
  8
a
  10
15.78461
  20
39.76969
  30
0.0
  70
0
  0
VERTEX
  8
a
  10
15.77857
  20
40.02311
  30
0.0
  70
0
  0
VERTEX
  8
a
  10
15.78451
  20
40.27973
  30
0.0
  70
0
  0
VERTEX
  8
a
  10
15.80124
  20
40.53908
  30
0.0
  70
0
  0
VERTEX
  8
a
  10
15.82797
  20
40.80081
  30
0.0
  70
0
  0
VERTEX
  8
a
  10
15.86413
  20
41.06462
  30
0.0
  70
0
  0
VERTEX
  8
a
  10
15.90932
  20
41.33028
  30
0.0
  70
0
  0
VERTEX
  8
a
  10
15.96321
  20
41.59757
  30
0.0
  70
0
  0
VERTEX
  8
a
  10
16.00918
  20
41.79899
  30
0.0
  70
0
  0
VERTEX
  8
a
  10
16.53171
  20
41.92444
  30
0.0
  70
0
  0
VERTEX
  8
a
  10
16.66412
  20
41.76584
  30
0.0
  70
0
  0
VERTEX
  8
a
  10
16.83348
  20
41.55215
  30
0.0
  70
0
  0
VERTEX
  8
a
  10
16.99435
  20
41.33596
  30
0.0
  70
0
  0
VERTEX
  8
a
  10
17.14634
  20
41.11732
  30
0.0
  70
0
  0
VERTEX
  8
a
  10
17.28897
  20
40.89626
  30
0.0
  70
0
  0
VERTEX
  8
a
  10
17.42162
  20
40.67277
  30
0.0
  70
0
  0
VERTEX
  8
a
  10
17.54342
  20
40.44682
  30
0.0
  70
0
  0
VERTEX
  8
a
  10
17.65309
  20
40.21828
  30
0.0
  70
0
  0
VERTEX
  8
a
  10
17.70275
  20
40.10296
  30
0.0
  70
0
  0
VERTEX
  8
a
  10
17.74842
  20
39.98686
  30
0.0
  70
0
  0
VERTEX
  8
a
  10
17.78936
  20
39.86986
  30
0.0
  70
0
  0
VERTEX
  8
a
  10
17.80765
  20
39.81095
  30
0.0
  70
0
  0
VERTEX
  8
a
  10
17.82399
  20
39.75168
  30
0.0
  70
0
  0
VERTEX
  8
a
  10
18.11354
  20
39.7404
  30
0.0
  70
0
  0
VERTEX
  8
a
  10
18.46239
  20
39.79565
  30
0.0
  70
0
  0
VERTEX
  8
a
  10
18.73428
  20
39.89586
  30
0.0
  70
0
  0
VERTEX
  8
a
  10
18.73151
  20
39.95728
  30
0.0
  70
0
  0
VERTEX
  8
a
  10
18.7307
  20
40.01895
  30
0.0
  70
0
  0
VERTEX
  8
a
  10
18.73348
  20
40.14288
  30
0.0
  70
0
  0
VERTEX
  8
a
  10
18.74104
  20
40.2674
  30
0.0
  70
0
  0
VERTEX
  8
a
  10
18.75263
  20
40.39243
  30
0.0
  70
0
  0
VERTEX
  8
a
  10
18.78631
  20
40.64367
  30
0.0
  70
0
  0
VERTEX
  8
a
  10
18.83233
  20
40.8962
  30
0.0
  70
0
  0
VERTEX
  8
a
  10
18.88942
  20
41.14974
  30
0.0
  70
0
  0
VERTEX
  8
a
  10
18.95676
  20
41.40406
  30
0.0
  70
0
  0
VERTEX
  8
a
  10
19.03375
  20
41.65897
  30
0.0
  70
0
  0
VERTEX
  8
a
  10
19.11994
  20
41.91429
  30
0.0
  70
0
  0
VERTEX
  8
a
  10
19.21498
  20
42.16986
  30
0.0
  70
0
  0
VERTEX
  8
a
  10
19.29189
  20
42.36161
  30
0.0
  70
0
  0
VERTEX
  8
a
  10
19.82761
  20
42.40377
  30
0.0
  70
0
  0
VERTEX
  8
a
  10
19.93358
  20
42.22642
  30
0.0
  70
0
  0
VERTEX
  8
a
  10
20.06743
  20
41.98886
  30
0.0
  70
0
  0
VERTEX
  8
a
  10
20.1925
  20
41.75017
  30
0.0
  70
0
  0
VERTEX
  8
a
  10
20.30841
  20
41.51044
  30
0.0
  70
0
  0
VERTEX
  8
a
  10
20.41471
  20
41.26979
  30
0.0
  70
0
  0
VERTEX
  8
a
  10
20.51076
  20
41.0283
  30
0.0
  70
0
  0
VERTEX
  8
a
  10
20.59572
  20
40.78607
  30
0.0
  70
0
  0
VERTEX
  8
a
  10
20.66829
  20
40.54319
  30
0.0
  70
0
  0
VERTEX
  8
a
  10
20.6993
  20
40.42152
  30
0.0
  70
0
  0
VERTEX
  8
a
  10
20.72624
  20
40.29971
  30
0.0
  70
0
  0
VERTEX
  8
a
  10
20.74837
  20
40.17775
  30
0.0
  70
0
  0
VERTEX
  8
a
  10
20.75722
  20
40.1167
  30
0.0
  70
0
  0
VERTEX
  8
a
  10
20.76409
  20
40.05561
  30
0.0
  70
0
  0
VERTEX
  8
a
  10
21.0483
  20
39.99917
  30
0.0
  70
0
  0
VERTEX
  8
a
  10
21.40151
  20
39.99917
  30
0.0
  70
0
  0
VERTEX
  8
a
  10
21.68573
  20
40.05561
  30
0.0
  70
0
  0
VERTEX
  8
a
  10
21.6926
  20
40.1167
  30
0.0
  70
0
  0
VERTEX
  8
a
  10
21.70144
  20
40.17775
  30
0.0
  70
0
  0
VERTEX
  8
a
  10
21.72358
  20
40.29971
  30
0.0
  70
0
  0
VERTEX
  8
a
  10
21.75052
  20
40.42152
  30
0.0
  70
0
  0
VERTEX
  8
a
  10
21.78153
  20
40.54319
  30
0.0
  70
0
  0
VERTEX
  8
a
  10
21.8541
  20
40.78607
  30
0.0
  70
0
  0
VERTEX
  8
a
  10
21.93905
  20
41.0283
  30
0.0
  70
0
  0
VERTEX
  8
a
  10
22.03511
  20
41.26979
  30
0.0
  70
0
  0
VERTEX
  8
a
  10
22.1414
  20
41.51044
  30
0.0
  70
0
  0
VERTEX
  8
a
  10
22.25732
  20
41.75017
  30
0.0
  70
0
  0
VERTEX
  8
a
  10
22.38238
  20
41.98886
  30
0.0
  70
0
  0
VERTEX
  8
a
  10
22.51623
  20
42.22642
  30
0.0
  70
0
  0
VERTEX
  8
a
  10
22.6222
  20
42.40377
  30
0.0
  70
0
  0
VERTEX
  8
a
  10
23.15792
  20
42.36161
  30
0.0
  70
0
  0
VERTEX
  8
a
  10
23.23484
  20
42.16986
  30
0.0
  70
0
  0
VERTEX
  8
a
  10
23.32988
  20
41.91429
  30
0.0
  70
0
  0
VERTEX
  8
a
  10
23.41607
  20
41.65897
  30
0.0
  70
0
  0
VERTEX
  8
a
  10
23.49305
  20
41.40406
  30
0.0
  70
0
  0
VERTEX
  8
a
  10
23.56039
  20
41.14974
  30
0.0
  70
0
  0
VERTEX
  8
a
  10
23.61749
  20
40.8962
  30
0.0
  70
0
  0
VERTEX
  8
a
  10
23.66351
  20
40.64367
  30
0.0
  70
0
  0
VERTEX
  8
a
  10
23.69718
  20
40.39243
  30
0.0
  70
0
  0
VERTEX
  8
a
  10
23.70878
  20
40.2674
  30
0.0
  70
0
  0
VERTEX
  8
a
  10
23.71633
  20
40.14288
  30
0.0
  70
0
  0
VERTEX
  8
a
  10
23.71912
  20
40.01895
  30
0.0
  70
0
  0
VERTEX
  8
a
  10
23.7183
  20
39.95728
  30
0.0
  70
0
  0
VERTEX
  8
a
  10
23.71553
  20
39.89586
  30
0.0
  70
0
  0
VERTEX
  8
a
  10
23.98742
  20
39.79565
  30
0.0
  70
0
  0
VERTEX
  8
a
  10
24.33628
  20
39.7404
  30
0.0
  70
0
  0
VERTEX
  8
a
  10
24.62582
  20
39.75168
  30
0.0
  70
0
  0
VERTEX
  8
a
  10
24.64217
  20
39.81095
  30
0.0
  70
0
  0
VERTEX
  8
a
  10
24.66045
  20
39.86986
  30
0.0
  70
0
  0
VERTEX
  8
a
  10
24.70139
  20
39.98686
  30
0.0
  70
0
  0
VERTEX
  8
a
  10
24.74706
  20
40.10296
  30
0.0
  70
0
  0
VERTEX
  8
a
  10
24.79672
  20
40.21828
  30
0.0
  70
0
  0
VERTEX
  8
a
  10
24.90639
  20
40.44682
  30
0.0
  70
0
  0
VERTEX
  8
a
  10
25.02819
  20
40.67277
  30
0.0
  70
0
  0
VERTEX
  8
a
  10
25.16084
  20
40.89626
  30
0.0
  70
0
  0
VERTEX
  8
a
  10
25.30347
  20
41.11732
  30
0.0
  70
0
  0
VERTEX
  8
a
  10
25.45546
  20
41.33596
  30
0.0
  70
0
  0
VERTEX
  8
a
  10
25.61633
  20
41.55215
  30
0.0
  70
0
  0
VERTEX
  8
a
  10
25.78569
  20
41.76584
  30
0.0
  70
0
  0
VERTEX
  8
a
  10
25.9181
  20
41.92444
  30
0.0
  70
0
  0
VERTEX
  8
a
  10
26.44063
  20
41.79899
  30
0.0
  70
0
  0
VERTEX
  8
a
  10
26.48661
  20
41.59757
  30
0.0
  70
0
  0
VERTEX
  8
a
  10
26.5405
  20
41.33028
  30
0.0
  70
0
  0
VERTEX
  8
a
  10
26.58568
  20
41.06462
  30
0.0
  70
0
  0
VERTEX
  8
a
  10
26.62185
  20
40.80081
  30
0.0
  70
0
  0
VERTEX
  8
a
  10
26.64857
  20
40.53908
  30
0.0
  70
0
  0
VERTEX
  8
a
  10
26.6653
  20
40.27973
  30
0.0
  70
0
  0
VERTEX
  8
a
  10
26.67125
  20
40.02311
  30
0.0
  70
0
  0
VERTEX
  8
a
  10
26.66521
  20
39.76969
  30
0.0
  70
0
  0
VERTEX
  8
a
  10
26.6571
  20
39.6444
  30
0.0
  70
0
  0
VERTEX
  8
a
  10
26.64508
  20
39.52022
  30
0.0
  70
0
  0
VERTEX
  8
a
  10
26.62844
  20
39.39739
  30
0.0
  70
0
  0
VERTEX
  8
a
  10
26.61799
  20
39.3366
  30
0.0
  70
0
  0
VERTEX
  8
a
  10
26.60565
  20
39.27637
  30
0.0
  70
0
  0
VERTEX
  8
a
  10
26.85851
  20
39.13487
  30
0.0
  70
0
  0
VERTEX
  8
a
  10
27.19443
  20
39.02572
  30
0.0
  70
0
  0
VERTEX
  8
a
  10
27.48218
  20
38.99157
  30
0.0
  70
0
  0
VERTEX
  8
a
  10
27.50759
  20
39.04755
  30
0.0
  70
0
  0
VERTEX
  8
a
  10
27.53487
  20
39.10287
  30
0.0
  70
0
  0
VERTEX
  8
a
  10
27.59361
  20
39.21202
  30
0.0
  70
0
  0
VERTEX
  8
a
  10
27.65687
  20
39.31955
  30
0.0
  70
0
  0
VERTEX
  8
a
  10
27.72396
  20
39.42568
  30
0.0
  70
0
  0
VERTEX
  8
a
  10
27.86803
  20
39.63425
  30
0.0
  70
0
  0
VERTEX
  8
a
  10
28.02368
  20
39.83837
  30
0.0
  70
0
  0
VERTEX
  8
a
  10
28.18966
  20
40.03835
  30
0.0
  70
0
  0
VERTEX
  8
a
  10
28.36512
  20
40.23438
  30
0.0
  70
0
  0
VERTEX
  8
a
  10
28.54944
  20
40.42656
  30
0.0
  70
0
  0
VERTEX
  8
a
  10
28.74215
  20
40.61492
  30
0.0
  70
0
  0
VERTEX
  8
a
  10
28.94285
  20
40.79949
  30
0.0
  70
0
  0
VERTEX
  8
a
  10
29.09844
  20
40.93542
  30
0.0
  70
0
  0
VERTEX
  8
a
  10
29.59491
  20
40.72977
  30
0.0
  70
0
  0
VERTEX
  8
a
  10
29.60881
  20
40.52364
  30
0.0
  70
0
  0
VERTEX
  8
a
  10
29.62023
  20
40.25121
  30
0.0
  70
0
  0
VERTEX
  8
a
  10
29.6233
  20
39.98175
  30
0.0
  70
0
  0
VERTEX
  8
a
  10
29.61775
  20
39.71553
  30
0.0
  70
0
  0
VERTEX
  8
a
  10
29.6032
  20
39.45285
  30
0.0
  70
0
  0
VERTEX
  8
a
  10
29.57915
  20
39.19407
  30
0.0
  70
0
  0
VERTEX
  8
a
  10
29.54488
  20
38.93968
  30
0.0
  70
0
  0
VERTEX
  8
a
  10
29.49927
  20
38.69032
  30
0.0
  70
0
  0
VERTEX
  8
a
  10
29.47166
  20
38.56784
  30
0.0
  70
0
  0
VERTEX
  8
a
  10
29.44037
  20
38.44707
  30
0.0
  70
0
  0
VERTEX
  8
a
  10
29.40472
  20
38.32835
  30
0.0
  70
0
  0
VERTEX
  8
a
  10
29.38489
  20
38.26995
  30
0.0
  70
0
  0
VERTEX
  8
a
  10
29.36327
  20
38.21239
  30
0.0
  70
0
  0
VERTEX
  8
a
  10
29.59089
  20
38.03307
  30
0.0
  70
0
  0
VERTEX
  8
a
  10
29.9056
  20
37.87272
  30
0.0
  70
0
  0
VERTEX
  8
a
  10
30.18446
  20
37.79398
  30
0.0
  70
0
  0
VERTEX
  8
a
  10
30.21832
  20
37.84529
  30
0.0
  70
0
  0
VERTEX
  8
a
  10
30.25391
  20
37.89567
  30
0.0
  70
0
  0
VERTEX
  8
a
  10
30.329
  20
37.99429
  30
0.0
  70
0
  0
VERTEX
  8
a
  10
30.40831
  20
38.09059
  30
0.0
  70
0
  0
VERTEX
  8
a
  10
30.49118
  20
38.18492
  30
0.0
  70
0
  0
VERTEX
  8
a
  10
30.6661
  20
38.36839
  30
0.0
  70
0
  0
VERTEX
  8
a
  10
30.85177
  20
38.54564
  30
0.0
  70
0
  0
VERTEX
  8
a
  10
31.04698
  20
38.7172
  30
0.0
  70
0
  0
VERTEX
  8
a
  10
31.25095
  20
38.88337
  30
0.0
  70
0
  0
VERTEX
  8
a
  10
31.46306
  20
39.04434
  30
0.0
  70
0
  0
VERTEX
  8
a
  10
31.68286
  20
39.20024
  30
0.0
  70
0
  0
VERTEX
  8
a
  10
31.90997
  20
39.35114
  30
0.0
  70
0
  0
VERTEX
  8
a
  10
32.08491
  20
39.46105
  30
0.0
  70
0
  0
VERTEX
  8
a
  10
32.5431
  20
39.18028
  30
0.0
  70
0
  0
VERTEX
  8
a
  10
32.52458
  20
38.97451
  30
0.0
  70
0
  0
VERTEX
  8
a
  10
32.49323
  20
38.70365
  30
0.0
  70
0
  0
VERTEX
  8
a
  10
32.45412
  20
38.43703
  30
0.0
  70
0
  0
VERTEX
  8
a
  10
32.40699
  20
38.17495
  30
0.0
  70
0
  0
VERTEX
  8
a
  10
32.35153
  20
37.91778
  30
0.0
  70
0
  0
VERTEX
  8
a
  10
32.28729
  20
37.66595
  30
0.0
  70
0
  0
VERTEX
  8
a
  10
32.21365
  20
37.42005
  30
0.0
  70
0
  0
VERTEX
  8
a
  10
32.12959
  20
37.1809
  30
0.0
  70
0
  0
VERTEX
  8
a
  10
32.08317
  20
37.06424
  30
0.0
  70
0
  0
VERTEX
  8
a
  10
32.03336
  20
36.94986
  30
0.0
  70
0
  0
VERTEX
  8
a
  10
31.97958
  20
36.83818
  30
0.0
  70
0
  0
VERTEX
  8
a
  10
31.95086
  20
36.78359
  30
0.0
  70
0
  0
VERTEX
  8
a
  10
31.92051
  20
36.73013
  30
0.0
  70
0
  0
VERTEX
  8
a
  10
32.11727
  20
36.51741
  30
0.0
  70
0
  0
VERTEX
  8
a
  10
32.40302
  20
36.3098
  30
0.0
  70
0
  0
VERTEX
  8
a
  10
32.66612
  20
36.1884
  30
0.0
  70
0
  0
VERTEX
  8
a
  10
32.70759
  20
36.23379
  30
0.0
  70
0
  0
VERTEX
  8
a
  10
32.75063
  20
36.27798
  30
0.0
  70
0
  0
VERTEX
  8
a
  10
32.84023
  20
36.36364
  30
0.0
  70
0
  0
VERTEX
  8
a
  10
32.93362
  20
36.44635
  30
0.0
  70
0
  0
VERTEX
  8
a
  10
33.03023
  20
36.52655
  30
0.0
  70
0
  0
VERTEX
  8
a
  10
33.2317
  20
36.6804
  30
0.0
  70
0
  0
VERTEX
  8
a
  10
33.4428
  20
36.82642
  30
0.0
  70
0
  0
VERTEX
  8
a
  10
33.66245
  20
36.96533
  30
0.0
  70
0
  0
VERTEX
  8
a
  10
33.8899
  20
37.09755
  30
0.0
  70
0
  0
VERTEX
  8
a
  10
34.12459
  20
37.22336
  30
0.0
  70
0
  0
VERTEX
  8
a
  10
34.36607
  20
37.34295
  30
0.0
  70
0
  0
VERTEX
  8
a
  10
34.61399
  20
37.45646
  30
0.0
  70
0
  0
VERTEX
  8
a
  10
34.80397
  20
37.53766
  30
0.0
  70
0
  0
VERTEX
  8
a
  10
35.21259
  20
37.18866
  30
0.0
  70
0
  0
VERTEX
  8
a
  10
35.16211
  20
36.98832
  30
0.0
  70
0
  0
VERTEX
  8
a
  10
35.08878
  20
36.7257
  30
0.0
  70
0
  0
VERTEX
  8
a
  10
35.00843
  20
36.46848
  30
0.0
  70
0
  0
VERTEX
  8
a
  10
34.92089
  20
36.217
  30
0.0
  70
0
  0
VERTEX
  8
a
  10
34.82588
  20
35.97167
  30
0.0
  70
0
  0
VERTEX
  8
a
  10
34.72304
  20
35.733
  30
0.0
  70
0
  0
VERTEX
  8
a
  10
34.61184
  20
35.50164
  30
0.0
  70
0
  0
VERTEX
  8
a
  10
34.49141
  20
35.27859
  30
0.0
  70
0
  0
VERTEX
  8
a
  10
34.4273
  20
35.17063
  30
0.0
  70
0
  0
VERTEX
  8
a
  10
34.36022
  20
35.06544
  30
0.0
  70
0
  0
VERTEX
  8
a
  10
34.28963
  20
34.96355
  30
0.0
  70
0
  0
VERTEX
  8
a
  10
34.25272
  20
34.91413
  30
0.0
  70
0
  0
VERTEX
  8
a
  10
34.21438
  20
34.86607
  30
0.0
  70
0
  0
VERTEX
  8
a
  10
34.37544
  20
34.62519
  30
0.0
  70
0
  0
VERTEX
  8
a
  10
34.62519
  20
34.37544
  30
0.0
  70
0
  0
VERTEX
  8
a
  10
34.86607
  20
34.21438
  30
0.0
  70
0
  0
VERTEX
  8
a
  10
34.91413
  20
34.25272
  30
0.0
  70
0
  0
VERTEX
  8
a
  10
34.96355
  20
34.28963
  30
0.0
  70
0
  0
VERTEX
  8
a
  10
35.06544
  20
34.36022
  30
0.0
  70
0
  0
VERTEX
  8
a
  10
35.17063
  20
34.4273
  30
0.0
  70
0
  0
VERTEX
  8
a
  10
35.27859
  20
34.49141
  30
0.0
  70
0
  0
VERTEX
  8
a
  10
35.50164
  20
34.61184
  30
0.0
  70
0
  0
VERTEX
  8
a
  10
35.733
  20
34.72304
  30
0.0
  70
0
  0
VERTEX
  8
a
  10
35.97167
  20
34.82588
  30
0.0
  70
0
  0
VERTEX
  8
a
  10
36.217
  20
34.92089
  30
0.0
  70
0
  0
VERTEX
  8
a
  10
36.46848
  20
35.00843
  30
0.0
  70
0
  0
VERTEX
  8
a
  10
36.7257
  20
35.08878
  30
0.0
  70
0
  0
VERTEX
  8
a
  10
36.98832
  20
35.16211
  30
0.0
  70
0
  0
VERTEX
  8
a
  10
37.18866
  20
35.21259
  30
0.0
  70
0
  0
VERTEX
  8
a
  10
37.53766
  20
34.80397
  30
0.0
  70
0
  0
VERTEX
  8
a
  10
37.45646
  20
34.61399
  30
0.0
  70
0
  0
VERTEX
  8
a
  10
37.34295
  20
34.36607
  30
0.0
  70
0
  0
VERTEX
  8
a
  10
37.22336
  20
34.12459
  30
0.0
  70
0
  0
VERTEX
  8
a
  10
37.09755
  20
33.8899
  30
0.0
  70
0
  0
VERTEX
  8
a
  10
36.96533
  20
33.66245
  30
0.0
  70
0
  0
VERTEX
  8
a
  10
36.82642
  20
33.4428
  30
0.0
  70
0
  0
VERTEX
  8
a
  10
36.6804
  20
33.2317
  30
0.0
  70
0
  0
VERTEX
  8
a
  10
36.52655
  20
33.03023
  30
0.0
  70
0
  0
VERTEX
  8
a
  10
36.44635
  20
32.93362
  30
0.0
  70
0
  0
VERTEX
  8
a
  10
36.36364
  20
32.84023
  30
0.0
  70
0
  0
VERTEX
  8
a
  10
36.27798
  20
32.75063
  30
0.0
  70
0
  0
VERTEX
  8
a
  10
36.23379
  20
32.70759
  30
0.0
  70
0
  0
VERTEX
  8
a
  10
36.1884
  20
32.66612
  30
0.0
  70
0
  0
VERTEX
  8
a
  10
36.3098
  20
32.40302
  30
0.0
  70
0
  0
VERTEX
  8
a
  10
36.51741
  20
32.11727
  30
0.0
  70
0
  0
VERTEX
  8
a
  10
36.73013
  20
31.92051
  30
0.0
  70
0
  0
VERTEX
  8
a
  10
36.78359
  20
31.95086
  30
0.0
  70
0
  0
VERTEX
  8
a
  10
36.83818
  20
31.97958
  30
0.0
  70
0
  0
VERTEX
  8
a
  10
36.94986
  20
32.03336
  30
0.0
  70
0
  0
VERTEX
  8
a
  10
37.06424
  20
32.08317
  30
0.0
  70
0
  0
VERTEX
  8
a
  10
37.1809
  20
32.12959
  30
0.0
  70
0
  0
VERTEX
  8
a
  10
37.42005
  20
32.21365
  30
0.0
  70
0
  0
VERTEX
  8
a
  10
37.66595
  20
32.28729
  30
0.0
  70
0
  0
VERTEX
  8
a
  10
37.91778
  20
32.35153
  30
0.0
  70
0
  0
VERTEX
  8
a
  10
38.17495
  20
32.40699
  30
0.0
  70
0
  0
VERTEX
  8
a
  10
38.43703
  20
32.45412
  30
0.0
  70
0
  0
VERTEX
  8
a
  10
38.70365
  20
32.49323
  30
0.0
  70
0
  0
VERTEX
  8
a
  10
38.97451
  20
32.52458
  30
0.0
  70
0
  0
VERTEX
  8
a
  10
39.18028
  20
32.5431
  30
0.0
  70
0
  0
VERTEX
  8
a
  10
39.46105
  20
32.08491
  30
0.0
  70
0
  0
VERTEX
  8
a
  10
39.35114
  20
31.90997
  30
0.0
  70
0
  0
VERTEX
  8
a
  10
39.20024
  20
31.68286
  30
0.0
  70
0
  0
VERTEX
  8
a
  10
39.04434
  20
31.46306
  30
0.0
  70
0
  0
VERTEX
  8
a
  10
38.88337
  20
31.25095
  30
0.0
  70
0
  0
VERTEX
  8
a
  10
38.7172
  20
31.04698
  30
0.0
  70
0
  0
VERTEX
  8
a
  10
38.54564
  20
30.85177
  30
0.0
  70
0
  0
VERTEX
  8
a
  10
38.36839
  20
30.6661
  30
0.0
  70
0
  0
VERTEX
  8
a
  10
38.18492
  20
30.49118
  30
0.0
  70
0
  0
VERTEX
  8
a
  10
38.09059
  20
30.40831
  30
0.0
  70
0
  0
VERTEX
  8
a
  10
37.99429
  20
30.329
  30
0.0
  70
0
  0
VERTEX
  8
a
  10
37.89567
  20
30.25391
  30
0.0
  70
0
  0
VERTEX
  8
a
  10
37.84529
  20
30.21832
  30
0.0
  70
0
  0
VERTEX
  8
a
  10
37.79398
  20
30.18446
  30
0.0
  70
0
  0
VERTEX
  8
a
  10
37.87272
  20
29.9056
  30
0.0
  70
0
  0
VERTEX
  8
a
  10
38.03307
  20
29.59089
  30
0.0
  70
0
  0
VERTEX
  8
a
  10
38.21239
  20
29.36327
  30
0.0
  70
0
  0
VERTEX
  8
a
  10
38.26995
  20
29.38489
  30
0.0
  70
0
  0
VERTEX
  8
a
  10
38.32835
  20
29.40472
  30
0.0
  70
0
  0
VERTEX
  8
a
  10
38.44707
  20
29.44037
  30
0.0
  70
0
  0
VERTEX
  8
a
  10
38.56784
  20
29.47166
  30
0.0
  70
0
  0
VERTEX
  8
a
  10
38.69032
  20
29.49927
  30
0.0
  70
0
  0
VERTEX
  8
a
  10
38.93968
  20
29.54488
  30
0.0
  70
0
  0
VERTEX
  8
a
  10
39.19407
  20
29.57915
  30
0.0
  70
0
  0
VERTEX
  8
a
  10
39.45285
  20
29.6032
  30
0.0
  70
0
  0
VERTEX
  8
a
  10
39.71553
  20
29.61775
  30
0.0
  70
0
  0
VERTEX
  8
a
  10
39.98175
  20
29.6233
  30
0.0
  70
0
  0
VERTEX
  8
a
  10
40.25121
  20
29.62023
  30
0.0
  70
0
  0
VERTEX
  8
a
  10
40.52364
  20
29.60881
  30
0.0
  70
0
  0
VERTEX
  8
a
  10
40.72977
  20
29.59491
  30
0.0
  70
0
  0
VERTEX
  8
a
  10
40.93542
  20
29.09844
  30
0.0
  70
0
  0
VERTEX
  8
a
  10
40.79949
  20
28.94285
  30
0.0
  70
0
  0
VERTEX
  8
a
  10
40.61492
  20
28.74215
  30
0.0
  70
0
  0
VERTEX
  8
a
  10
40.42656
  20
28.54944
  30
0.0
  70
0
  0
VERTEX
  8
a
  10
40.23438
  20
28.36512
  30
0.0
  70
0
  0
VERTEX
  8
a
  10
40.03835
  20
28.18966
  30
0.0
  70
0
  0
VERTEX
  8
a
  10
39.83837
  20
28.02368
  30
0.0
  70
0
  0
VERTEX
  8
a
  10
39.63425
  20
27.86803
  30
0.0
  70
0
  0
VERTEX
  8
a
  10
39.42568
  20
27.72396
  30
0.0
  70
0
  0
VERTEX
  8
a
  10
39.31955
  20
27.65687
  30
0.0
  70
0
  0
VERTEX
  8
a
  10
39.21202
  20
27.59361
  30
0.0
  70
0
  0
VERTEX
  8
a
  10
39.10287
  20
27.53487
  30
0.0
  70
0
  0
VERTEX
  8
a
  10
39.04755
  20
27.50759
  30
0.0
  70
0
  0
VERTEX
  8
a
  10
38.99157
  20
27.48218
  30
0.0
  70
0
  0
VERTEX
  8
a
  10
39.02572
  20
27.19443
  30
0.0
  70
0
  0
VERTEX
  8
a
  10
39.13487
  20
26.85851
  30
0.0
  70
0
  0
VERTEX
  8
a
  10
39.27637
  20
26.60565
  30
0.0
  70
0
  0
VERTEX
  8
a
  10
39.3366
  20
26.61799
  30
0.0
  70
0
  0
VERTEX
  8
a
  10
39.39739
  20
26.62844
  30
0.0
  70
0
  0
VERTEX
  8
a
  10
39.52022
  20
26.64508
  30
0.0
  70
0
  0
VERTEX
  8
a
  10
39.6444
  20
26.6571
  30
0.0
  70
0
  0
VERTEX
  8
a
  10
39.76969
  20
26.66521
  30
0.0
  70
0
  0
VERTEX
  8
a
  10
40.02311
  20
26.67125
  30
0.0
  70
0
  0
VERTEX
  8
a
  10
40.27973
  20
26.6653
  30
0.0
  70
0
  0
VERTEX
  8
a
  10
40.53908
  20
26.64857
  30
0.0
  70
0
  0
VERTEX
  8
a
  10
40.80081
  20
26.62185
  30
0.0
  70
0
  0
VERTEX
  8
a
  10
41.06462
  20
26.58568
  30
0.0
  70
0
  0
VERTEX
  8
a
  10
41.33028
  20
26.5405
  30
0.0
  70
0
  0
VERTEX
  8
a
  10
41.59757
  20
26.48661
  30
0.0
  70
0
  0
VERTEX
  8
a
  10
41.79899
  20
26.44063
  30
0.0
  70
0
  0
VERTEX
  8
a
  10
41.92444
  20
25.9181
  30
0.0
  70
0
  0
VERTEX
  8
a
  10
41.76584
  20
25.78569
  30
0.0
  70
0
  0
VERTEX
  8
a
  10
41.55215
  20
25.61633
  30
0.0
  70
0
  0
VERTEX
  8
a
  10
41.33596
  20
25.45546
  30
0.0
  70
0
  0
VERTEX
  8
a
  10
41.11732
  20
25.30347
  30
0.0
  70
0
  0
VERTEX
  8
a
  10
40.89626
  20
25.16084
  30
0.0
  70
0
  0
VERTEX
  8
a
  10
40.67277
  20
25.02819
  30
0.0
  70
0
  0
VERTEX
  8
a
  10
40.44682
  20
24.90639
  30
0.0
  70
0
  0
VERTEX
  8
a
  10
40.21828
  20
24.79672
  30
0.0
  70
0
  0
VERTEX
  8
a
  10
40.10296
  20
24.74706
  30
0.0
  70
0
  0
VERTEX
  8
a
  10
39.98686
  20
24.70139
  30
0.0
  70
0
  0
VERTEX
  8
a
  10
39.86986
  20
24.66045
  30
0.0
  70
0
  0
VERTEX
  8
a
  10
39.81095
  20
24.64217
  30
0.0
  70
0
  0
VERTEX
  8
a
  10
39.75168
  20
24.62582
  30
0.0
  70
0
  0
VERTEX
  8
a
  10
39.7404
  20
24.33628
  30
0.0
  70
0
  0
VERTEX
  8
a
  10
39.79565
  20
23.98742
  30
0.0
  70
0
  0
VERTEX
  8
a
  10
39.89586
  20
23.71553
  30
0.0
  70
0
  0
VERTEX
  8
a
  10
39.95728
  20
23.7183
  30
0.0
  70
0
  0
VERTEX
  8
a
  10
40.01895
  20
23.71912
  30
0.0
  70
0
  0
VERTEX
  8
a
  10
40.14288
  20
23.71633
  30
0.0
  70
0
  0
VERTEX
  8
a
  10
40.2674
  20
23.70878
  30
0.0
  70
0
  0
VERTEX
  8
a
  10
40.39243
  20
23.69718
  30
0.0
  70
0
  0
VERTEX
  8
a
  10
40.64367
  20
23.66351
  30
0.0
  70
0
  0
VERTEX
  8
a
  10
40.8962
  20
23.61749
  30
0.0
  70
0
  0
VERTEX
  8
a
  10
41.14974
  20
23.56039
  30
0.0
  70
0
  0
VERTEX
  8
a
  10
41.40406
  20
23.49305
  30
0.0
  70
0
  0
VERTEX
  8
a
  10
41.65897
  20
23.41607
  30
0.0
  70
0
  0
VERTEX
  8
a
  10
41.91429
  20
23.32988
  30
0.0
  70
0
  0
VERTEX
  8
a
  10
42.16986
  20
23.23484
  30
0.0
  70
0
  0
VERTEX
  8
a
  10
42.36161
  20
23.15792
  30
0.0
  70
0
  0
VERTEX
  8
a
  10
42.40377
  20
22.6222
  30
0.0
  70
0
  0
VERTEX
  8
a
  10
42.22642
  20
22.51623
  30
0.0
  70
0
  0
VERTEX
  8
a
  10
41.98886
  20
22.38238
  30
0.0
  70
0
  0
VERTEX
  8
a
  10
41.75017
  20
22.25732
  30
0.0
  70
0
  0
VERTEX
  8
a
  10
41.51044
  20
22.1414
  30
0.0
  70
0
  0
VERTEX
  8
a
  10
41.26979
  20
22.03511
  30
0.0
  70
0
  0
VERTEX
  8
a
  10
41.0283
  20
21.93905
  30
0.0
  70
0
  0
VERTEX
  8
a
  10
40.78607
  20
21.8541
  30
0.0
  70
0
  0
VERTEX
  8
a
  10
40.54319
  20
21.78153
  30
0.0
  70
0
  0
VERTEX
  8
a
  10
40.42152
  20
21.75052
  30
0.0
  70
0
  0
VERTEX
  8
a
  10
40.29971
  20
21.72358
  30
0.0
  70
0
  0
VERTEX
  8
a
  10
40.17775
  20
21.70144
  30
0.0
  70
0
  0
VERTEX
  8
a
  10
40.1167
  20
21.6926
  30
0.0
  70
0
  0
VERTEX
  8
a
  10
40.05561
  20
21.68573
  30
0.0
  70
0
  0
VERTEX
  8
a
  10
39.99917
  20
21.40151
  30
0.0
  70
0
  0
VERTEX
  8
a
  10
39.99917
  20
21.0483
  30
0.0
  70
0
  0
VERTEX
  8
a
  10
40.05561
  20
20.76409
  30
0.0
  70
0
  0
VERTEX
  8
a
  10
40.1167
  20
20.75722
  30
0.0
  70
0
  0
VERTEX
  8
a
  10
40.17775
  20
20.74837
  30
0.0
  70
0
  0
VERTEX
  8
a
  10
40.29971
  20
20.72624
  30
0.0
  70
0
  0
VERTEX
  8
a
  10
40.42152
  20
20.6993
  30
0.0
  70
0
  0
VERTEX
  8
a
  10
40.54319
  20
20.66829
  30
0.0
  70
0
  0
VERTEX
  8
a
  10
40.78607
  20
20.59572
  30
0.0
  70
0
  0
VERTEX
  8
a
  10
41.0283
  20
20.51076
  30
0.0
  70
0
  0
VERTEX
  8
a
  10
41.26979
  20
20.41471
  30
0.0
  70
0
  0
VERTEX
  8
a
  10
41.51044
  20
20.30841
  30
0.0
  70
0
  0
VERTEX
  8
a
  10
41.75017
  20
20.1925
  30
0.0
  70
0
  0
VERTEX
  8
a
  10
41.98886
  20
20.06743
  30
0.0
  70
0
  0
VERTEX
  8
a
  10
42.22642
  20
19.93358
  30
0.0
  70
0
  0
VERTEX
  8
a
  10
42.40377
  20
19.82761
  30
0.0
  70
0
  0
VERTEX
  8
a
  10
42.36161
  20
19.29189
  30
0.0
  70
0
  0
VERTEX
  8
a
  10
42.16986
  20
19.21498
  30
0.0
  70
0
  0
VERTEX
  8
a
  10
41.91429
  20
19.11994
  30
0.0
  70
0
  0
VERTEX
  8
a
  10
41.65897
  20
19.03375
  30
0.0
  70
0
  0
VERTEX
  8
a
  10
41.40406
  20
18.95676
  30
0.0
  70
0
  0
VERTEX
  8
a
  10
41.14974
  20
18.88942
  30
0.0
  70
0
  0
VERTEX
  8
a
  10
40.8962
  20
18.83233
  30
0.0
  70
0
  0
VERTEX
  8
a
  10
40.64367
  20
18.78631
  30
0.0
  70
0
  0
VERTEX
  8
a
  10
40.39243
  20
18.75263
  30
0.0
  70
0
  0
VERTEX
  8
a
  10
40.2674
  20
18.74104
  30
0.0
  70
0
  0
VERTEX
  8
a
  10
40.14288
  20
18.73348
  30
0.0
  70
0
  0
VERTEX
  8
a
  10
40.01895
  20
18.7307
  30
0.0
  70
0
  0
VERTEX
  8
a
  10
39.95728
  20
18.73151
  30
0.0
  70
0
  0
VERTEX
  8
a
  10
39.89586
  20
18.73428
  30
0.0
  70
0
  0
VERTEX
  8
a
  10
39.79565
  20
18.46239
  30
0.0
  70
0
  0
VERTEX
  8
a
  10
39.7404
  20
18.11354
  30
0.0
  70
0
  0
VERTEX
  8
a
  10
39.75168
  20
17.82399
  30
0.0
  70
0
  0
VERTEX
  8
a
  10
39.81095
  20
17.80765
  30
0.0
  70
0
  0
VERTEX
  8
a
  10
39.86986
  20
17.78936
  30
0.0
  70
0
  0
VERTEX
  8
a
  10
39.98686
  20
17.74842
  30
0.0
  70
0
  0
VERTEX
  8
a
  10
40.10296
  20
17.70275
  30
0.0
  70
0
  0
VERTEX
  8
a
  10
40.21828
  20
17.65309
  30
0.0
  70
0
  0
VERTEX
  8
a
  10
40.44682
  20
17.54342
  30
0.0
  70
0
  0
VERTEX
  8
a
  10
40.67277
  20
17.42162
  30
0.0
  70
0
  0
VERTEX
  8
a
  10
40.89626
  20
17.28897
  30
0.0
  70
0
  0
VERTEX
  8
a
  10
41.11732
  20
17.14634
  30
0.0
  70
0
  0
VERTEX
  8
a
  10
41.33596
  20
16.99435
  30
0.0
  70
0
  0
VERTEX
  8
a
  10
41.55215
  20
16.83348
  30
0.0
  70
0
  0
VERTEX
  8
a
  10
41.76584
  20
16.66412
  30
0.0
  70
0
  0
VERTEX
  8
a
  10
41.92444
  20
16.53171
  30
0.0
  70
0
  0
VERTEX
  8
a
  10
41.79899
  20
16.00918
  30
0.0
  70
0
  0
VERTEX
  8
a
  10
41.59757
  20
15.96321
  30
0.0
  70
0
  0
VERTEX
  8
a
  10
41.33028
  20
15.90932
  30
0.0
  70
0
  0
VERTEX
  8
a
  10
41.06462
  20
15.86413
  30
0.0
  70
0
  0
VERTEX
  8
a
  10
40.80081
  20
15.82797
  30
0.0
  70
0
  0
VERTEX
  8
a
  10
40.53908
  20
15.80124
  30
0.0
  70
0
  0
VERTEX
  8
a
  10
40.27973
  20
15.78451
  30
0.0
  70
0
  0
VERTEX
  8
a
  10
40.02311
  20
15.77857
  30
0.0
  70
0
  0
VERTEX
  8
a
  10
39.76969
  20
15.78461
  30
0.0
  70
0
  0
VERTEX
  8
a
  10
39.6444
  20
15.79271
  30
0.0
  70
0
  0
VERTEX
  8
a
  10
39.52022
  20
15.80473
  30
0.0
  70
0
  0
VERTEX
  8
a
  10
39.39739
  20
15.82137
  30
0.0
  70
0
  0
VERTEX
  8
a
  10
39.3366
  20
15.83182
  30
0.0
  70
0
  0
VERTEX
  8
a
  10
39.27637
  20
15.84416
  30
0.0
  70
0
  0
VERTEX
  8
a
  10
39.13487
  20
15.5913
  30
0.0
  70
0
  0
VERTEX
  8
a
  10
39.02572
  20
15.25538
  30
0.0
  70
0
  0
VERTEX
  8
a
  10
38.99157
  20
14.96764
  30
0.0
  70
0
  0
VERTEX
  8
a
  10
39.04755
  20
14.94222
  30
0.0
  70
0
  0
VERTEX
  8
a
  10
39.10287
  20
14.91495
  30
0.0
  70
0
  0
VERTEX
  8
a
  10
39.21202
  20
14.85621
  30
0.0
  70
0
  0
VERTEX
  8
a
  10
39.31955
  20
14.79294
  30
0.0
  70
0
  0
VERTEX
  8
a
  10
39.42568
  20
14.72585
  30
0.0
  70
0
  0
VERTEX
  8
a
  10
39.63425
  20
14.58178
  30
0.0
  70
0
  0
VERTEX
  8
a
  10
39.83837
  20
14.42613
  30
0.0
  70
0
  0
VERTEX
  8
a
  10
40.03835
  20
14.26015
  30
0.0
  70
0
  0
VERTEX
  8
a
  10
40.23438
  20
14.0847
  30
0.0
  70
0
  0
VERTEX
  8
a
  10
40.42656
  20
13.90037
  30
0.0
  70
0
  0
VERTEX
  8
a
  10
40.61492
  20
13.70767
  30
0.0
  70
0
  0
VERTEX
  8
a
  10
40.79949
  20
13.50696
  30
0.0
  70
0
  0
VERTEX
  8
a
  10
40.93542
  20
13.35137
  30
0.0
  70
0
  0
VERTEX
  8
a
  10
40.72977
  20
12.8549
  30
0.0
  70
0
  0
VERTEX
  8
a
  10
40.52364
  20
12.841
  30
0.0
  70
0
  0
VERTEX
  8
a
  10
40.25121
  20
12.82959
  30
0.0
  70
0
  0
VERTEX
  8
a
  10
39.98175
  20
12.82652
  30
0.0
  70
0
  0
VERTEX
  8
a
  10
39.71553
  20
12.83207
  30
0.0
  70
0
  0
VERTEX
  8
a
  10
39.45285
  20
12.84661
  30
0.0
  70
0
  0
VERTEX
  8
a
  10
39.19407
  20
12.87066
  30
0.0
  70
0
  0
VERTEX
  8
a
  10
38.93968
  20
12.90493
  30
0.0
  70
0
  0
VERTEX
  8
a
  10
38.69032
  20
12.95054
  30
0.0
  70
0
  0
VERTEX
  8
a
  10
38.56784
  20
12.97815
  30
0.0
  70
0
  0
VERTEX
  8
a
  10
38.44707
  20
13.00945
  30
0.0
  70
0
  0
VERTEX
  8
a
  10
38.32835
  20
13.04509
  30
0.0
  70
0
  0
VERTEX
  8
a
  10
38.26995
  20
13.06493
  30
0.0
  70
0
  0
VERTEX
  8
a
  10
38.21239
  20
13.08654
  30
0.0
  70
0
  0
VERTEX
  8
a
  10
38.03307
  20
12.85893
  30
0.0
  70
0
  0
VERTEX
  8
a
  10
37.87272
  20
12.54421
  30
0.0
  70
0
  0
VERTEX
  8
a
  10
37.79398
  20
12.26536
  30
0.0
  70
0
  0
VERTEX
  8
a
  10
37.84529
  20
12.2315
  30
0.0
  70
0
  0
VERTEX
  8
a
  10
37.89567
  20
12.1959
  30
0.0
  70
0
  0
VERTEX
  8
a
  10
37.99429
  20
12.12081
  30
0.0
  70
0
  0
VERTEX
  8
a
  10
38.09059
  20
12.0415
  30
0.0
  70
0
  0
VERTEX
  8
a
  10
38.18492
  20
11.95864
  30
0.0
  70
0
  0
VERTEX
  8
a
  10
38.36839
  20
11.78371
  30
0.0
  70
0
  0
VERTEX
  8
a
  10
38.54564
  20
11.59805
  30
0.0
  70
0
  0
VERTEX
  8
a
  10
38.7172
  20
11.40283
  30
0.0
  70
0
  0
VERTEX
  8
a
  10
38.88337
  20
11.19887
  30
0.0
  70
0
  0
VERTEX
  8
a
  10
39.04434
  20
10.98675
  30
0.0
  70
0
  0
VERTEX
  8
a
  10
39.20024
  20
10.76695
  30
0.0
  70
0
  0
VERTEX
  8
a
  10
39.35114
  20
10.53984
  30
0.0
  70
0
  0
VERTEX
  8
a
  10
39.46105
  20
10.36491
  30
0.0
  70
0
  0
VERTEX
  8
a
  10
39.18028
  20
9.90672
  30
0.0
  70
0
  0
VERTEX
  8
a
  10
38.97451
  20
9.92524
  30
0.0
  70
0
  0
VERTEX
  8
a
  10
38.70365
  20
9.95658
  30
0.0
  70
0
  0
VERTEX
  8
a
  10
38.43703
  20
9.9957
  30
0.0
  70
0
  0
VERTEX
  8
a
  10
38.17495
  20
10.04283
  30
0.0
  70
0
  0
VERTEX
  8
a
  10
37.91778
  20
10.09829
  30
0.0
  70
0
  0
VERTEX
  8
a
  10
37.66595
  20
10.16252
  30
0.0
  70
0
  0
VERTEX
  8
a
  10
37.42005
  20
10.23617
  30
0.0
  70
0
  0
VERTEX
  8
a
  10
37.1809
  20
10.32022
  30
0.0
  70
0
  0
VERTEX
  8
a
  10
37.06424
  20
10.36665
  30
0.0
  70
0
  0
VERTEX
  8
a
  10
36.94986
  20
10.41645
  30
0.0
  70
0
  0
VERTEX
  8
a
  10
36.83818
  20
10.47023
  30
0.0
  70
0
  0
VERTEX
  8
a
  10
36.78359
  20
10.49896
  30
0.0
  70
0
  0
VERTEX
  8
a
  10
36.73013
  20
10.52931
  30
0.0
  70
0
  0
VERTEX
  8
a
  10
36.51741
  20
10.33255
  30
0.0
  70
0
  0
VERTEX
  8
a
  10
36.3098
  20
10.0468
  30
0.0
  70
0
  0
VERTEX
  8
a
  10
36.1884
  20
9.78369
  30
0.0
  70
0
  0
VERTEX
  8
a
  10
36.23379
  20
9.74222
  30
0.0
  70
0
  0
VERTEX
  8
a
  10
36.27798
  20
9.69918
  30
0.0
  70
0
  0
VERTEX
  8
a
  10
36.36364
  20
9.60959
  30
0.0
  70
0
  0
VERTEX
  8
a
  10
36.44635
  20
9.51619
  30
0.0
  70
0
  0
VERTEX
  8
a
  10
36.52655
  20
9.41959
  30
0.0
  70
0
  0
VERTEX
  8
a
  10
36.6804
  20
9.21812
  30
0.0
  70
0
  0
VERTEX
  8
a
  10
36.82642
  20
9.00701
  30
0.0
  70
0
  0
VERTEX
  8
a
  10
36.96533
  20
8.78736
  30
0.0
  70
0
  0
VERTEX
  8
a
  10
37.09755
  20
8.55991
  30
0.0
  70
0
  0
VERTEX
  8
a
  10
37.22336
  20
8.32523
  30
0.0
  70
0
  0
VERTEX
  8
a
  10
37.34295
  20
8.08374
  30
0.0
  70
0
  0
VERTEX
  8
a
  10
37.45646
  20
7.83582
  30
0.0
  70
0
  0
VERTEX
  8
a
  10
37.53766
  20
7.64585
  30
0.0
  70
0
  0
VERTEX
  8
a
  10
37.18866
  20
7.23723
  30
0.0
  70
0
  0
VERTEX
  8
a
  10
36.98832
  20
7.2877
  30
0.0
  70
0
  0
VERTEX
  8
a
  10
36.7257
  20
7.36103
  30
0.0
  70
0
  0
VERTEX
  8
a
  10
36.46848
  20
7.44138
  30
0.0
  70
0
  0
VERTEX
  8
a
  10
36.217
  20
7.52893
  30
0.0
  70
0
  0
VERTEX
  8
a
  10
35.97167
  20
7.62393
  30
0.0
  70
0
  0
VERTEX
  8
a
  10
35.733
  20
7.72677
  30
0.0
  70
0
  0
VERTEX
  8
a
  10
35.50164
  20
7.83798
  30
0.0
  70
0
  0
VERTEX
  8
a
  10
35.27859
  20
7.95841
  30
0.0
  70
0
  0
VERTEX
  8
a
  10
35.17063
  20
8.02251
  30
0.0
  70
0
  0
VERTEX
  8
a
  10
35.06544
  20
8.0896
  30
0.0
  70
0
  0
VERTEX
  8
a
  10
34.96355
  20
8.16019
  30
0.0
  70
0
  0
VERTEX
  8
a
  10
34.91413
  20
8.1971
  30
0.0
  70
0
  0
VERTEX
  8
a
  10
34.86607
  20
8.23544
  30
0.0
  70
0
  0
VERTEX
  8
a
  10
34.62519
  20
8.07438
  30
0.0
  70
0
  0
VERTEX
  8
a
  10
34.37544
  20
7.82462
  30
0.0
  70
0
  0
VERTEX
  8
a
  10
34.21438
  20
7.58374
  30
0.0
  70
0
  0
VERTEX
  8
a
  10
34.25272
  20
7.53568
  30
0.0
  70
0
  0
VERTEX
  8
a
  10
34.28963
  20
7.48626
  30
0.0
  70
0
  0
VERTEX
  8
a
  10
34.36022
  20
7.38437
  30
0.0
  70
0
  0
VERTEX
  8
a
  10
34.4273
  20
7.27919
  30
0.0
  70
0
  0
VERTEX
  8
a
  10
34.49141
  20
7.17123
  30
0.0
  70
0
  0
VERTEX
  8
a
  10
34.61184
  20
6.94817
  30
0.0
  70
0
  0
VERTEX
  8
a
  10
34.72304
  20
6.71682
  30
0.0
  70
0
  0
VERTEX
  8
a
  10
34.82588
  20
6.47814
  30
0.0
  70
0
  0
VERTEX
  8
a
  10
34.92089
  20
6.23281
  30
0.0
  70
0
  0
VERTEX
  8
a
  10
35.00843
  20
5.98133
  30
0.0
  70
0
  0
VERTEX
  8
a
  10
35.08878
  20
5.72412
  30
0.0
  70
0
  0
VERTEX
  8
a
  10
35.16211
  20
5.46149
  30
0.0
  70
0
  0
VERTEX
  8
a
  10
35.21259
  20
5.26115
  30
0.0
  70
0
  0
VERTEX
  8
a
  10
34.80397
  20
4.91216
  30
0.0
  70
0
  0
VERTEX
  8
a
  10
34.61399
  20
4.99335
  30
0.0
  70
0
  0
VERTEX
  8
a
  10
34.36607
  20
5.10686
  30
0.0
  70
0
  0
VERTEX
  8
a
  10
34.12459
  20
5.22646
  30
0.0
  70
0
  0
VERTEX
  8
a
  10
33.8899
  20
5.35227
  30
0.0
  70
0
  0
VERTEX
  8
a
  10
33.66245
  20
5.48448
  30
0.0
  70
0
  0
VERTEX
  8
a
  10
33.4428
  20
5.62339
  30
0.0
  70
0
  0
VERTEX
  8
a
  10
33.2317
  20
5.76942
  30
0.0
  70
0
  0
VERTEX
  8
a
  10
33.03023
  20
5.92326
  30
0.0
  70
0
  0
VERTEX
  8
a
  10
32.93362
  20
6.00347
  30
0.0
  70
0
  0
VERTEX
  8
a
  10
32.84023
  20
6.08618
  30
0.0
  70
0
  0
VERTEX
  8
a
  10
32.75063
  20
6.17184
  30
0.0
  70
0
  0
VERTEX
  8
a
  10
32.70759
  20
6.21602
  30
0.0
  70
0
  0
VERTEX
  8
a
  10
32.66612
  20
6.26141
  30
0.0
  70
0
  0
VERTEX
  8
a
  10
32.40302
  20
6.14001
  30
0.0
  70
0
  0
VERTEX
  8
a
  10
32.11727
  20
5.9324
  30
0.0
  70
0
  0
VERTEX
  8
a
  10
31.92051
  20
5.71969
  30
0.0
  70
0
  0
VERTEX
  8
a
  10
31.95086
  20
5.66622
  30
0.0
  70
0
  0
VERTEX
  8
a
  10
31.97958
  20
5.61164
  30
0.0
  70
0
  0
VERTEX
  8
a
  10
32.03336
  20
5.49996
  30
0.0
  70
0
  0
VERTEX
  8
a
  10
32.08317
  20
5.38557
  30
0.0
  70
0
  0
VERTEX
  8
a
  10
32.12959
  20
5.26891
  30
0.0
  70
0
  0
VERTEX
  8
a
  10
32.21365
  20
5.02976
  30
0.0
  70
0
  0
VERTEX
  8
a
  10
32.28729
  20
4.78386
  30
0.0
  70
0
  0
VERTEX
  8
a
  10
32.35153
  20
4.53204
  30
0.0
  70
0
  0
VERTEX
  8
a
  10
32.40699
  20
4.27486
  30
0.0
  70
0
  0
VERTEX
  8
a
  10
32.45412
  20
4.01279
  30
0.0
  70
0
  0
VERTEX
  8
a
  10
32.49323
  20
3.74617
  30
0.0
  70
0
  0
VERTEX
  8
a
  10
32.52458
  20
3.47531
  30
0.0
  70
0
  0
VERTEX
  8
a
  10
32.5431
  20
3.26954
  30
0.0
  70
0
  0
VERTEX
  8
a
  10
32.08491
  20
2.98876
  30
0.0
  70
0
  0
VERTEX
  8
a
  10
31.90997
  20
3.09868
  30
0.0
  70
0
  0
VERTEX
  8
a
  10
31.68286
  20
3.24957
  30
0.0
  70
0
  0
VERTEX
  8
a
  10
31.46306
  20
3.40547
  30
0.0
  70
0
  0
VERTEX
  8
a
  10
31.25095
  20
3.56644
  30
0.0
  70
0
  0
VERTEX
  8
a
  10
31.04698
  20
3.73261
  30
0.0
  70
0
  0
VERTEX
  8
a
  10
30.85177
  20
3.90417
  30
0.0
  70
0
  0
VERTEX
  8
a
  10
30.6661
  20
4.08143
  30
0.0
  70
0
  0
VERTEX
  8
a
  10
30.49118
  20
4.26489
  30
0.0
  70
0
  0
VERTEX
  8
a
  10
30.40831
  20
4.35922
  30
0.0
  70
0
  0
VERTEX
  8
a
  10
30.329
  20
4.45552
  30
0.0
  70
0
  0
VERTEX
  8
a
  10
30.25391
  20
4.55415
  30
0.0
  70
0
  0
VERTEX
  8
a
  10
30.21832
  20
4.60452
  30
0.0
  70
0
  0
VERTEX
  8
a
  10
30.18446
  20
4.65584
  30
0.0
  70
0
  0
VERTEX
  8
a
  10
29.9056
  20
4.57709
  30
0.0
  70
0
  0
VERTEX
  8
a
  10
29.59089
  20
4.41674
  30
0.0
  70
0
  0
VERTEX
  8
a
  10
29.36327
  20
4.23742
  30
0.0
  70
0
  0
VERTEX
  8
a
  10
29.38489
  20
4.17987
  30
0.0
  70
0
  0
VERTEX
  8
a
  10
29.40472
  20
4.12146
  30
0.0
  70
0
  0
VERTEX
  8
a
  10
29.44037
  20
4.00274
  30
0.0
  70
0
  0
VERTEX
  8
a
  10
29.47166
  20
3.88197
  30
0.0
  70
0
  0
VERTEX
  8
a
  10
29.49927
  20
3.75949
  30
0.0
  70
0
  0
VERTEX
  8
a
  10
29.54488
  20
3.51013
  30
0.0
  70
0
  0
VERTEX
  8
a
  10
29.57915
  20
3.25574
  30
0.0
  70
0
  0
VERTEX
  8
a
  10
29.6032
  20
2.99697
  30
0.0
  70
0
  0
VERTEX
  8
a
  10
29.61775
  20
2.73429
  30
0.0
  70
0
  0
VERTEX
  8
a
  10
29.6233
  20
2.46806
  30
0.0
  70
0
  0
VERTEX
  8
a
  10
29.62023
  20
2.19861
  30
0.0
  70
0
  0
VERTEX
  8
a
  10
29.60881
  20
1.92618
  30
0.0
  70
0
  0
VERTEX
  8
a
  10
29.59491
  20
1.72004
  30
0.0
  70
0
  0
VERTEX
  8
a
  10
29.09844
  20
1.5144
  30
0.0
  70
0
  0
VERTEX
  8
a
  10
28.94285
  20
1.65033
  30
0.0
  70
0
  0
VERTEX
  8
a
  10
28.74215
  20
1.83489
  30
0.0
  70
0
  0
VERTEX
  8
a
  10
28.54944
  20
2.02326
  30
0.0
  70
0
  0
VERTEX
  8
a
  10
28.36512
  20
2.21543
  30
0.0
  70
0
  0
VERTEX
  8
a
  10
28.18966
  20
2.41146
  30
0.0
  70
0
  0
VERTEX
  8
a
  10
28.02368
  20
2.61145
  30
0.0
  70
0
  0
VERTEX
  8
a
  10
27.86803
  20
2.81556
  30
0.0
  70
0
  0
VERTEX
  8
a
  10
27.72396
  20
3.02413
  30
0.0
  70
0
  0
VERTEX
  8
a
  10
27.65687
  20
3.13026
  30
0.0
  70
0
  0
VERTEX
  8
a
  10
27.59361
  20
3.23779
  30
0.0
  70
0
  0
VERTEX
  8
a
  10
27.53487
  20
3.34694
  30
0.0
  70
0
  0
VERTEX
  8
a
  10
27.50759
  20
3.40227
  30
0.0
  70
0
  0
VERTEX
  8
a
  10
27.48218
  20
3.45825
  30
0.0
  70
0
  0
VERTEX
  8
a
  10
27.19443
  20
3.4241
  30
0.0
  70
0
  0
VERTEX
  8
a
  10
26.85851
  20
3.31495
  30
0.0
  70
0
  0
VERTEX
  8
a
  10
26.60565
  20
3.17345
  30
0.0
  70
0
  0
VERTEX
  8
a
  10
26.61799
  20
3.11322
  30
0.0
  70
0
  0
VERTEX
  8
a
  10
26.62844
  20
3.05243
  30
0.0
  70
0
  0
VERTEX
  8
a
  10
26.64508
  20
2.92959
  30
0.0
  70
0
  0
VERTEX
  8
a
  10
26.6571
  20
2.80542
  30
0.0
  70
0
  0
VERTEX
  8
a
  10
26.66521
  20
2.68012
  30
0.0
  70
0
  0
VERTEX
  8
a
  10
26.67125
  20
2.4267
  30
0.0
  70
0
  0
VERTEX
  8
a
  10
26.6653
  20
2.17008
  30
0.0
  70
0
  0
VERTEX
  8
a
  10
26.64857
  20
1.91073
  30
0.0
  70
0
  0
VERTEX
  8
a
  10
26.62185
  20
1.64901
  30
0.0
  70
0
  0
VERTEX
  8
a
  10
26.58568
  20
1.38519
  30
0.0
  70
0
  0
VERTEX
  8
a
  10
26.5405
  20
1.11953
  30
0.0
  70
0
  0
VERTEX
  8
a
  10
26.48661
  20
0.85224
  30
0.0
  70
0
  0
VERTEX
  8
a
  10
26.44063
  20
0.65082
  30
0.0
  70
0
  0
VERTEX
  8
a
  10
25.9181
  20
0.52538
  30
0.0
  70
0
  0
VERTEX
  8
a
  10
25.78569
  20
0.68397
  30
0.0
  70
0
  0
VERTEX
  8
a
  10
25.61633
  20
0.89766
  30
0.0
  70
0
  0
VERTEX
  8
a
  10
25.45546
  20
1.11385
  30
0.0
  70
0
  0
VERTEX
  8
a
  10
25.30347
  20
1.33249
  30
0.0
  70
0
  0
VERTEX
  8
a
  10
25.16084
  20
1.55356
  30
0.0
  70
0
  0
VERTEX
  8
a
  10
25.02819
  20
1.77704
  30
0.0
  70
0
  0
VERTEX
  8
a
  10
24.90639
  20
2.003
  30
0.0
  70
0
  0
VERTEX
  8
a
  10
24.79672
  20
2.23154
  30
0.0
  70
0
  0
VERTEX
  8
a
  10
24.74706
  20
2.34686
  30
0.0
  70
0
  0
VERTEX
  8
a
  10
24.70139
  20
2.46296
  30
0.0
  70
0
  0
VERTEX
  8
a
  10
24.66045
  20
2.57996
  30
0.0
  70
0
  0
VERTEX
  8
a
  10
24.64217
  20
2.63886
  30
0.0
  70
0
  0
VERTEX
  8
a
  10
24.62582
  20
2.69813
  30
0.0
  70
0
  0
VERTEX
  8
a
  10
24.33628
  20
2.70941
  30
0.0
  70
0
  0
VERTEX
  8
a
  10
23.98742
  20
2.65416
  30
0.0
  70
0
  0
VERTEX
  8
a
  10
23.71553
  20
2.55396
  30
0.0
  70
0
  0
VERTEX
  8
a
  10
23.7183
  20
2.49254
  30
0.0
  70
0
  0
VERTEX
  8
a
  10
23.71912
  20
2.43086
  30
0.0
  70
0
  0
VERTEX
  8
a
  10
23.71633
  20
2.30694
  30
0.0
  70
0
  0
VERTEX
  8
a
  10
23.70878
  20
2.18241
  30
0.0
  70
0
  0
VERTEX
  8
a
  10
23.69718
  20
2.05739
  30
0.0
  70
0
  0
VERTEX
  8
a
  10
23.66351
  20
1.80614
  30
0.0
  70
0
  0
VERTEX
  8
a
  10
23.61749
  20
1.55361
  30
0.0
  70
0
  0
VERTEX
  8
a
  10
23.56039
  20
1.30007
  30
0.0
  70
0
  0
VERTEX
  8
a
  10
23.49305
  20
1.04575
  30
0.0
  70
0
  0
VERTEX
  8
a
  10
23.41607
  20
0.79084
  30
0.0
  70
0
  0
VERTEX
  8
a
  10
23.32988
  20
0.53552
  30
0.0
  70
0
  0
VERTEX
  8
a
  10
23.23484
  20
0.27995
  30
0.0
  70
0
  0
VERTEX
  8
a
  10
23.15792
  20
0.08821
  30
0.0
  70
0
  0
VERTEX
  8
a
  10
22.6222
  20
0.04604
  30
0.0
  70
0
  0
VERTEX
  8
a
  10
22.51623
  20
0.2234
  30
0.0
  70
0
  0
VERTEX
  8
a
  10
22.38238
  20
0.46095
  30
0.0
  70
0
  0
VERTEX
  8
a
  10
22.25732
  20
0.69965
  30
0.0
  70
0
  0
VERTEX
  8
a
  10
22.1414
  20
0.93937
  30
0.0
  70
0
  0
VERTEX
  8
a
  10
22.03511
  20
1.18003
  30
0.0
  70
0
  0
VERTEX
  8
a
  10
21.93905
  20
1.42152
  30
0.0
  70
0
  0
VERTEX
  8
a
  10
21.8541
  20
1.66374
  30
0.0
  70
0
  0
VERTEX
  8
a
  10
21.78153
  20
1.90662
  30
0.0
  70
0
  0
VERTEX
  8
a
  10
21.75052
  20
2.02829
  30
0.0
  70
0
  0
VERTEX
  8
a
  10
21.72358
  20
2.1501
  30
0.0
  70
0
  0
VERTEX
  8
a
  10
21.70144
  20
2.27207
  30
0.0
  70
0
  0
VERTEX
  8
a
  10
21.6926
  20
2.33311
  30
0.0
  70
0
  0
VERTEX
  8
a
  10
21.68573
  20
2.39421
  30
0.0
  70
0
  0
VERTEX
  8
a
  10
21.40151
  20
2.45064
  30
0.0
  70
0
  0
VERTEX
  8
a
  10
21.0483
  20
2.45064
  30
0.0
  70
0
  0
VERTEX
  8
a
  10
20.76409
  20
2.39421
  30
0.0
  70
0
  0
VERTEX
  8
a
  10
20.75722
  20
2.33311
  30
0.0
  70
0
  0
VERTEX
  8
a
  10
20.74837
  20
2.27207
  30
0.0
  70
0
  0
VERTEX
  8
a
  10
20.72624
  20
2.1501
  30
0.0
  70
0
  0
VERTEX
  8
a
  10
20.6993
  20
2.02829
  30
0.0
  70
0
  0
VERTEX
  8
a
  10
20.66829
  20
1.90662
  30
0.0
  70
0
  0
VERTEX
  8
a
  10
20.59572
  20
1.66374
  30
0.0
  70
0
  0
VERTEX
  8
a
  10
20.51076
  20
1.42152
  30
0.0
  70
0
  0
VERTEX
  8
a
  10
20.41471
  20
1.18003
  30
0.0
  70
0
  0
VERTEX
  8
a
  10
20.30841
  20
0.93937
  30
0.0
  70
0
  0
VERTEX
  8
a
  10
20.1925
  20
0.69965
  30
0.0
  70
0
  0
VERTEX
  8
a
  10
20.06743
  20
0.46095
  30
0.0
  70
0
  0
VERTEX
  8
a
  10
19.93358
  20
0.2234
  30
0.0
  70
0
  0
VERTEX
  8
a
  10
19.82761
  20
0.04604
  30
0.0
  70
0
  0
VERTEX
  8
a
  10
19.29189
  20
0.08821
  30
0.0
  70
0
  0
VERTEX
  8
a
  10
19.21498
  20
0.27995
  30
0.0
  70
0
  0
VERTEX
  8
a
  10
19.11994
  20
0.53552
  30
0.0
  70
0
  0
VERTEX
  8
a
  10
19.03375
  20
0.79084
  30
0.0
  70
0
  0
VERTEX
  8
a
  10
18.95676
  20
1.04575
  30
0.0
  70
0
  0
VERTEX
  8
a
  10
18.88942
  20
1.30007
  30
0.0
  70
0
  0
VERTEX
  8
a
  10
18.83233
  20
1.55361
  30
0.0
  70
0
  0
VERTEX
  8
a
  10
18.78631
  20
1.80614
  30
0.0
  70
0
  0
VERTEX
  8
a
  10
18.75263
  20
2.05739
  30
0.0
  70
0
  0
VERTEX
  8
a
  10
18.74104
  20
2.18241
  30
0.0
  70
0
  0
VERTEX
  8
a
  10
18.73348
  20
2.30694
  30
0.0
  70
0
  0
VERTEX
  8
a
  10
18.7307
  20
2.43086
  30
0.0
  70
0
  0
VERTEX
  8
a
  10
18.73151
  20
2.49254
  30
0.0
  70
0
  0
VERTEX
  8
a
  10
18.73428
  20
2.55396
  30
0.0
  70
0
  0
VERTEX
  8
a
  10
18.46239
  20
2.65416
  30
0.0
  70
0
  0
VERTEX
  8
a
  10
18.11354
  20
2.70941
  30
0.0
  70
0
  0
VERTEX
  8
a
  10
17.82399
  20
2.69813
  30
0.0
  70
0
  0
VERTEX
  8
a
  10
17.80765
  20
2.63886
  30
0.0
  70
0
  0
VERTEX
  8
a
  10
17.78936
  20
2.57996
  30
0.0
  70
0
  0
VERTEX
  8
a
  10
17.74842
  20
2.46296
  30
0.0
  70
0
  0
VERTEX
  8
a
  10
17.70275
  20
2.34686
  30
0.0
  70
0
  0
VERTEX
  8
a
  10
17.65309
  20
2.23154
  30
0.0
  70
0
  0
VERTEX
  8
a
  10
17.54342
  20
2.003
  30
0.0
  70
0
  0
VERTEX
  8
a
  10
17.42162
  20
1.77704
  30
0.0
  70
0
  0
VERTEX
  8
a
  10
17.28897
  20
1.55356
  30
0.0
  70
0
  0
VERTEX
  8
a
  10
17.14634
  20
1.33249
  30
0.0
  70
0
  0
VERTEX
  8
a
  10
16.99435
  20
1.11385
  30
0.0
  70
0
  0
VERTEX
  8
a
  10
16.83348
  20
0.89766
  30
0.0
  70
0
  0
VERTEX
  8
a
  10
16.66412
  20
0.68397
  30
0.0
  70
0
  0
VERTEX
  8
a
  10
16.53171
  20
0.52538
  30
0.0
  70
0
  0
VERTEX
  8
a
  10
16.00918
  20
0.65082
  30
0.0
  70
0
  0
VERTEX
  8
a
  10
15.96321
  20
0.85224
  30
0.0
  70
0
  0
VERTEX
  8
a
  10
15.90932
  20
1.11953
  30
0.0
  70
0
  0
VERTEX
  8
a
  10
15.86413
  20
1.38519
  30
0.0
  70
0
  0
VERTEX
  8
a
  10
15.82797
  20
1.64901
  30
0.0
  70
0
  0
VERTEX
  8
a
  10
15.80124
  20
1.91073
  30
0.0
  70
0
  0
VERTEX
  8
a
  10
15.78451
  20
2.17008
  30
0.0
  70
0
  0
VERTEX
  8
a
  10
15.77857
  20
2.4267
  30
0.0
  70
0
  0
VERTEX
  8
a
  10
15.78461
  20
2.68012
  30
0.0
  70
0
  0
VERTEX
  8
a
  10
15.79271
  20
2.80542
  30
0.0
  70
0
  0
VERTEX
  8
a
  10
15.80473
  20
2.92959
  30
0.0
  70
0
  0
VERTEX
  8
a
  10
15.82137
  20
3.05243
  30
0.0
  70
0
  0
VERTEX
  8
a
  10
15.83182
  20
3.11322
  30
0.0
  70
0
  0
VERTEX
  8
a
  10
15.84416
  20
3.17345
  30
0.0
  70
0
  0
VERTEX
  8
a
  10
15.5913
  20
3.31495
  30
0.0
  70
0
  0
VERTEX
  8
a
  10
15.25538
  20
3.4241
  30
0.0
  70
0
  0
VERTEX
  8
a
  10
14.96764
  20
3.45825
  30
0.0
  70
0
  0
VERTEX
  8
a
  10
14.94222
  20
3.40227
  30
0.0
  70
0
  0
VERTEX
  8
a
  10
14.91495
  20
3.34694
  30
0.0
  70
0
  0
VERTEX
  8
a
  10
14.85621
  20
3.23779
  30
0.0
  70
0
  0
VERTEX
  8
a
  10
14.79294
  20
3.13026
  30
0.0
  70
0
  0
VERTEX
  8
a
  10
14.72585
  20
3.02413
  30
0.0
  70
0
  0
VERTEX
  8
a
  10
14.58178
  20
2.81556
  30
0.0
  70
0
  0
VERTEX
  8
a
  10
14.42613
  20
2.61145
  30
0.0
  70
0
  0
VERTEX
  8
a
  10
14.26015
  20
2.41146
  30
0.0
  70
0
  0
VERTEX
  8
a
  10
14.0847
  20
2.21543
  30
0.0
  70
0
  0
VERTEX
  8
a
  10
13.90037
  20
2.02326
  30
0.0
  70
0
  0
VERTEX
  8
a
  10
13.70767
  20
1.83489
  30
0.0
  70
0
  0
VERTEX
  8
a
  10
13.50696
  20
1.65033
  30
0.0
  70
0
  0
VERTEX
  8
a
  10
13.35137
  20
1.5144
  30
0.0
  70
0
  0
VERTEX
  8
a
  10
12.8549
  20
1.72004
  30
0.0
  70
0
  0
VERTEX
  8
a
  10
12.841
  20
1.92618
  30
0.0
  70
0
  0
VERTEX
  8
a
  10
12.82959
  20
2.19861
  30
0.0
  70
0
  0
VERTEX
  8
a
  10
12.82652
  20
2.46806
  30
0.0
  70
0
  0
VERTEX
  8
a
  10
12.83207
  20
2.73429
  30
0.0
  70
0
  0
VERTEX
  8
a
  10
12.84661
  20
2.99697
  30
0.0
  70
0
  0
VERTEX
  8
a
  10
12.87066
  20
3.25574
  30
0.0
  70
0
  0
VERTEX
  8
a
  10
12.90493
  20
3.51013
  30
0.0
  70
0
  0
VERTEX
  8
a
  10
12.95054
  20
3.75949
  30
0.0
  70
0
  0
VERTEX
  8
a
  10
12.97815
  20
3.88197
  30
0.0
  70
0
  0
VERTEX
  8
a
  10
13.00945
  20
4.00274
  30
0.0
  70
0
  0
VERTEX
  8
a
  10
13.04509
  20
4.12146
  30
0.0
  70
0
  0
VERTEX
  8
a
  10
13.06493
  20
4.17987
  30
0.0
  70
0
  0
VERTEX
  8
a
  10
13.08654
  20
4.23742
  30
0.0
  70
0
  0
VERTEX
  8
a
  10
12.85893
  20
4.41674
  30
0.0
  70
0
  0
VERTEX
  8
a
  10
12.54421
  20
4.57709
  30
0.0
  70
0
  0
VERTEX
  8
a
  10
12.26536
  20
4.65584
  30
0.0
  70
0
  0
VERTEX
  8
a
  10
12.2315
  20
4.60452
  30
0.0
  70
0
  0
VERTEX
  8
a
  10
12.1959
  20
4.55415
  30
0.0
  70
0
  0
VERTEX
  8
a
  10
12.12081
  20
4.45552
  30
0.0
  70
0
  0
VERTEX
  8
a
  10
12.0415
  20
4.35922
  30
0.0
  70
0
  0
VERTEX
  8
a
  10
11.95864
  20
4.26489
  30
0.0
  70
0
  0
VERTEX
  8
a
  10
11.78371
  20
4.08143
  30
0.0
  70
0
  0
VERTEX
  8
a
  10
11.59805
  20
3.90417
  30
0.0
  70
0
  0
VERTEX
  8
a
  10
11.40283
  20
3.73261
  30
0.0
  70
0
  0
VERTEX
  8
a
  10
11.19887
  20
3.56644
  30
0.0
  70
0
  0
VERTEX
  8
a
  10
10.98675
  20
3.40547
  30
0.0
  70
0
  0
VERTEX
  8
a
  10
10.76695
  20
3.24957
  30
0.0
  70
0
  0
VERTEX
  8
a
  10
10.53984
  20
3.09868
  30
0.0
  70
0
  0
VERTEX
  8
a
  10
10.36491
  20
2.98876
  30
0.0
  70
0
  0
VERTEX
  8
a
  10
9.90672
  20
3.26954
  30
0.0
  70
0
  0
VERTEX
  8
a
  10
9.92524
  20
3.47531
  30
0.0
  70
0
  0
VERTEX
  8
a
  10
9.95658
  20
3.74617
  30
0.0
  70
0
  0
VERTEX
  8
a
  10
9.9957
  20
4.01279
  30
0.0
  70
0
  0
VERTEX
  8
a
  10
10.04283
  20
4.27486
  30
0.0
  70
0
  0
VERTEX
  8
a
  10
10.09829
  20
4.53204
  30
0.0
  70
0
  0
VERTEX
  8
a
  10
10.16252
  20
4.78386
  30
0.0
  70
0
  0
VERTEX
  8
a
  10
10.23617
  20
5.02976
  30
0.0
  70
0
  0
VERTEX
  8
a
  10
10.32022
  20
5.26891
  30
0.0
  70
0
  0
VERTEX
  8
a
  10
10.36665
  20
5.38557
  30
0.0
  70
0
  0
VERTEX
  8
a
  10
10.41645
  20
5.49996
  30
0.0
  70
0
  0
VERTEX
  8
a
  10
10.47023
  20
5.61164
  30
0.0
  70
0
  0
VERTEX
  8
a
  10
10.49896
  20
5.66622
  30
0.0
  70
0
  0
VERTEX
  8
a
  10
10.52931
  20
5.71969
  30
0.0
  70
0
  0
VERTEX
  8
a
  10
10.33255
  20
5.9324
  30
0.0
  70
0
  0
VERTEX
  8
a
  10
10.0468
  20
6.14001
  30
0.0
  70
0
  0
VERTEX
  8
a
  10
9.78369
  20
6.26141
  30
0.0
  70
0
  0
VERTEX
  8
a
  10
9.74222
  20
6.21602
  30
0.0
  70
0
  0
VERTEX
  8
a
  10
9.69918
  20
6.17184
  30
0.0
  70
0
  0
VERTEX
  8
a
  10
9.60959
  20
6.08618
  30
0.0
  70
0
  0
VERTEX
  8
a
  10
9.51619
  20
6.00347
  30
0.0
  70
0
  0
VERTEX
  8
a
  10
9.41959
  20
5.92326
  30
0.0
  70
0
  0
VERTEX
  8
a
  10
9.21812
  20
5.76942
  30
0.0
  70
0
  0
VERTEX
  8
a
  10
9.00701
  20
5.62339
  30
0.0
  70
0
  0
VERTEX
  8
a
  10
8.78736
  20
5.48448
  30
0.0
  70
0
  0
VERTEX
  8
a
  10
8.55991
  20
5.35227
  30
0.0
  70
0
  0
VERTEX
  8
a
  10
8.32523
  20
5.22646
  30
0.0
  70
0
  0
VERTEX
  8
a
  10
8.08374
  20
5.10686
  30
0.0
  70
0
  0
VERTEX
  8
a
  10
7.83582
  20
4.99335
  30
0.0
  70
0
  0
VERTEX
  8
a
  10
7.64585
  20
4.91216
  30
0.0
  70
0
  0
VERTEX
  8
a
  10
7.23723
  20
5.26115
  30
0.0
  70
0
  0
VERTEX
  8
a
  10
7.2877
  20
5.46149
  30
0.0
  70
0
  0
VERTEX
  8
a
  10
7.36103
  20
5.72412
  30
0.0
  70
0
  0
VERTEX
  8
a
  10
7.44138
  20
5.98133
  30
0.0
  70
0
  0
VERTEX
  8
a
  10
7.52893
  20
6.23281
  30
0.0
  70
0
  0
VERTEX
  8
a
  10
7.62393
  20
6.47814
  30
0.0
  70
0
  0
VERTEX
  8
a
  10
7.72677
  20
6.71682
  30
0.0
  70
0
  0
VERTEX
  8
a
  10
7.83798
  20
6.94817
  30
0.0
  70
0
  0
VERTEX
  8
a
  10
7.95841
  20
7.17123
  30
0.0
  70
0
  0
VERTEX
  8
a
  10
8.02251
  20
7.27919
  30
0.0
  70
0
  0
VERTEX
  8
a
  10
8.0896
  20
7.38437
  30
0.0
  70
0
  0
VERTEX
  8
a
  10
8.16019
  20
7.48626
  30
0.0
  70
0
  0
VERTEX
  8
a
  10
8.1971
  20
7.53568
  30
0.0
  70
0
  0
VERTEX
  8
a
  10
8.23544
  20
7.58374
  30
0.0
  70
0
  0
VERTEX
  8
a
  10
8.07438
  20
7.82462
  30
0.0
  70
0
  0
VERTEX
  8
a
  10
7.82462
  20
8.07438
  30
0.0
  70
0
  0
VERTEX
  8
a
  10
7.58374
  20
8.23544
  30
0.0
  70
0
  0
VERTEX
  8
a
  10
7.53568
  20
8.1971
  30
0.0
  70
0
  0
VERTEX
  8
a
  10
7.48626
  20
8.16019
  30
0.0
  70
0
  0
VERTEX
  8
a
  10
7.38437
  20
8.0896
  30
0.0
  70
0
  0
VERTEX
  8
a
  10
7.27919
  20
8.02251
  30
0.0
  70
0
  0
VERTEX
  8
a
  10
7.17123
  20
7.95841
  30
0.0
  70
0
  0
VERTEX
  8
a
  10
6.94817
  20
7.83798
  30
0.0
  70
0
  0
VERTEX
  8
a
  10
6.71682
  20
7.72677
  30
0.0
  70
0
  0
VERTEX
  8
a
  10
6.47814
  20
7.62393
  30
0.0
  70
0
  0
VERTEX
  8
a
  10
6.23281
  20
7.52893
  30
0.0
  70
0
  0
VERTEX
  8
a
  10
5.98133
  20
7.44138
  30
0.0
  70
0
  0
VERTEX
  8
a
  10
5.72412
  20
7.36103
  30
0.0
  70
0
  0
VERTEX
  8
a
  10
5.46149
  20
7.2877
  30
0.0
  70
0
  0
VERTEX
  8
a
  10
5.26115
  20
7.23723
  30
0.0
  70
0
  0
VERTEX
  8
a
  10
4.91216
  20
7.64585
  30
0.0
  70
0
  0
VERTEX
  8
a
  10
4.99335
  20
7.83582
  30
0.0
  70
0
  0
VERTEX
  8
a
  10
5.10686
  20
8.08374
  30
0.0
  70
0
  0
VERTEX
  8
a
  10
5.22646
  20
8.32523
  30
0.0
  70
0
  0
VERTEX
  8
a
  10
5.35227
  20
8.55991
  30
0.0
  70
0
  0
VERTEX
  8
a
  10
5.48448
  20
8.78736
  30
0.0
  70
0
  0
VERTEX
  8
a
  10
5.62339
  20
9.00701
  30
0.0
  70
0
  0
VERTEX
  8
a
  10
5.76942
  20
9.21812
  30
0.0
  70
0
  0
VERTEX
  8
a
  10
5.92326
  20
9.41959
  30
0.0
  70
0
  0
VERTEX
  8
a
  10
6.00347
  20
9.51619
  30
0.0
  70
0
  0
VERTEX
  8
a
  10
6.08618
  20
9.60959
  30
0.0
  70
0
  0
VERTEX
  8
a
  10
6.17184
  20
9.69918
  30
0.0
  70
0
  0
VERTEX
  8
a
  10
6.21602
  20
9.74222
  30
0.0
  70
0
  0
VERTEX
  8
a
  10
6.26141
  20
9.78369
  30
0.0
  70
0
  0
VERTEX
  8
a
  10
6.14001
  20
10.0468
  30
0.0
  70
0
  0
VERTEX
  8
a
  10
5.9324
  20
10.33255
  30
0.0
  70
0
  0
VERTEX
  8
a
  10
5.71969
  20
10.52931
  30
0.0
  70
0
  0
VERTEX
  8
a
  10
5.66622
  20
10.49896
  30
0.0
  70
0
  0
VERTEX
  8
a
  10
5.61164
  20
10.47023
  30
0.0
  70
0
  0
VERTEX
  8
a
  10
5.49996
  20
10.41645
  30
0.0
  70
0
  0
VERTEX
  8
a
  10
5.38557
  20
10.36665
  30
0.0
  70
0
  0
VERTEX
  8
a
  10
5.26891
  20
10.32022
  30
0.0
  70
0
  0
VERTEX
  8
a
  10
5.02976
  20
10.23617
  30
0.0
  70
0
  0
VERTEX
  8
a
  10
4.78386
  20
10.16252
  30
0.0
  70
0
  0
VERTEX
  8
a
  10
4.53204
  20
10.09829
  30
0.0
  70
0
  0
VERTEX
  8
a
  10
4.27486
  20
10.04283
  30
0.0
  70
0
  0
VERTEX
  8
a
  10
4.01279
  20
9.9957
  30
0.0
  70
0
  0
VERTEX
  8
a
  10
3.74617
  20
9.95658
  30
0.0
  70
0
  0
VERTEX
  8
a
  10
3.47531
  20
9.92524
  30
0.0
  70
0
  0
VERTEX
  8
a
  10
3.26954
  20
9.90672
  30
0.0
  70
0
  0
VERTEX
  8
a
  10
2.98876
  20
10.36491
  30
0.0
  70
0
  0
VERTEX
  8
a
  10
3.09868
  20
10.53984
  30
0.0
  70
0
  0
VERTEX
  8
a
  10
3.24957
  20
10.76695
  30
0.0
  70
0
  0
VERTEX
  8
a
  10
3.40547
  20
10.98675
  30
0.0
  70
0
  0
VERTEX
  8
a
  10
3.56644
  20
11.19887
  30
0.0
  70
0
  0
VERTEX
  8
a
  10
3.73261
  20
11.40283
  30
0.0
  70
0
  0
VERTEX
  8
a
  10
3.90417
  20
11.59805
  30
0.0
  70
0
  0
VERTEX
  8
a
  10
4.08143
  20
11.78371
  30
0.0
  70
0
  0
VERTEX
  8
a
  10
4.26489
  20
11.95864
  30
0.0
  70
0
  0
VERTEX
  8
a
  10
4.35922
  20
12.0415
  30
0.0
  70
0
  0
VERTEX
  8
a
  10
4.45552
  20
12.12081
  30
0.0
  70
0
  0
VERTEX
  8
a
  10
4.55415
  20
12.1959
  30
0.0
  70
0
  0
VERTEX
  8
a
  10
4.60452
  20
12.2315
  30
0.0
  70
0
  0
VERTEX
  8
a
  10
4.65584
  20
12.26536
  30
0.0
  70
0
  0
VERTEX
  8
a
  10
4.57709
  20
12.54421
  30
0.0
  70
0
  0
VERTEX
  8
a
  10
4.41674
  20
12.85893
  30
0.0
  70
0
  0
VERTEX
  8
a
  10
4.23742
  20
13.08654
  30
0.0
  70
0
  0
VERTEX
  8
a
  10
4.17987
  20
13.06493
  30
0.0
  70
0
  0
VERTEX
  8
a
  10
4.12146
  20
13.04509
  30
0.0
  70
0
  0
VERTEX
  8
a
  10
4.00274
  20
13.00945
  30
0.0
  70
0
  0
VERTEX
  8
a
  10
3.88197
  20
12.97815
  30
0.0
  70
0
  0
VERTEX
  8
a
  10
3.75949
  20
12.95054
  30
0.0
  70
0
  0
VERTEX
  8
a
  10
3.51013
  20
12.90493
  30
0.0
  70
0
  0
VERTEX
  8
a
  10
3.25574
  20
12.87066
  30
0.0
  70
0
  0
VERTEX
  8
a
  10
2.99697
  20
12.84661
  30
0.0
  70
0
  0
VERTEX
  8
a
  10
2.73429
  20
12.83207
  30
0.0
  70
0
  0
VERTEX
  8
a
  10
2.46806
  20
12.82652
  30
0.0
  70
0
  0
VERTEX
  8
a
  10
2.19861
  20
12.82959
  30
0.0
  70
0
  0
VERTEX
  8
a
  10
1.92618
  20
12.841
  30
0.0
  70
0
  0
VERTEX
  8
a
  10
1.72004
  20
12.8549
  30
0.0
  70
0
  0
VERTEX
  8
a
  10
1.5144
  20
13.35137
  30
0.0
  70
0
  0
VERTEX
  8
a
  10
1.65033
  20
13.50696
  30
0.0
  70
0
  0
VERTEX
  8
a
  10
1.83489
  20
13.70767
  30
0.0
  70
0
  0
VERTEX
  8
a
  10
2.02326
  20
13.90037
  30
0.0
  70
0
  0
VERTEX
  8
a
  10
2.21543
  20
14.0847
  30
0.0
  70
0
  0
VERTEX
  8
a
  10
2.41146
  20
14.26015
  30
0.0
  70
0
  0
VERTEX
  8
a
  10
2.61145
  20
14.42613
  30
0.0
  70
0
  0
VERTEX
  8
a
  10
2.81556
  20
14.58178
  30
0.0
  70
0
  0
VERTEX
  8
a
  10
3.02413
  20
14.72585
  30
0.0
  70
0
  0
VERTEX
  8
a
  10
3.13026
  20
14.79294
  30
0.0
  70
0
  0
VERTEX
  8
a
  10
3.23779
  20
14.85621
  30
0.0
  70
0
  0
VERTEX
  8
a
  10
3.34694
  20
14.91495
  30
0.0
  70
0
  0
VERTEX
  8
a
  10
3.40227
  20
14.94222
  30
0.0
  70
0
  0
VERTEX
  8
a
  10
3.45825
  20
14.96764
  30
0.0
  70
0
  0
VERTEX
  8
a
  10
3.4241
  20
15.25538
  30
0.0
  70
0
  0
VERTEX
  8
a
  10
3.31495
  20
15.5913
  30
0.0
  70
0
  0
VERTEX
  8
a
  10
3.17345
  20
15.84416
  30
0.0
  70
0
  0
VERTEX
  8
a
  10
3.11322
  20
15.83182
  30
0.0
  70
0
  0
VERTEX
  8
a
  10
3.05243
  20
15.82137
  30
0.0
  70
0
  0
VERTEX
  8
a
  10
2.92959
  20
15.80473
  30
0.0
  70
0
  0
VERTEX
  8
a
  10
2.80542
  20
15.79271
  30
0.0
  70
0
  0
VERTEX
  8
a
  10
2.68012
  20
15.78461
  30
0.0
  70
0
  0
VERTEX
  8
a
  10
2.4267
  20
15.77857
  30
0.0
  70
0
  0
VERTEX
  8
a
  10
2.17008
  20
15.78451
  30
0.0
  70
0
  0
VERTEX
  8
a
  10
1.91073
  20
15.80124
  30
0.0
  70
0
  0
VERTEX
  8
a
  10
1.64901
  20
15.82797
  30
0.0
  70
0
  0
VERTEX
  8
a
  10
1.38519
  20
15.86413
  30
0.0
  70
0
  0
VERTEX
  8
a
  10
1.11953
  20
15.90932
  30
0.0
  70
0
  0
VERTEX
  8
a
  10
0.85224
  20
15.96321
  30
0.0
  70
0
  0
VERTEX
  8
a
  10
0.65082
  20
16.00918
  30
0.0
  70
0
  0
VERTEX
  8
a
  10
0.52538
  20
16.53171
  30
0.0
  70
0
  0
VERTEX
  8
a
  10
0.68397
  20
16.66412
  30
0.0
  70
0
  0
VERTEX
  8
a
  10
0.89766
  20
16.83348
  30
0.0
  70
0
  0
VERTEX
  8
a
  10
1.11385
  20
16.99435
  30
0.0
  70
0
  0
VERTEX
  8
a
  10
1.33249
  20
17.14634
  30
0.0
  70
0
  0
VERTEX
  8
a
  10
1.55356
  20
17.28897
  30
0.0
  70
0
  0
VERTEX
  8
a
  10
1.77704
  20
17.42162
  30
0.0
  70
0
  0
VERTEX
  8
a
  10
2.003
  20
17.54342
  30
0.0
  70
0
  0
VERTEX
  8
a
  10
2.23154
  20
17.65309
  30
0.0
  70
0
  0
VERTEX
  8
a
  10
2.34686
  20
17.70275
  30
0.0
  70
0
  0
VERTEX
  8
a
  10
2.46296
  20
17.74842
  30
0.0
  70
0
  0
VERTEX
  8
a
  10
2.57996
  20
17.78936
  30
0.0
  70
0
  0
VERTEX
  8
a
  10
2.63886
  20
17.80765
  30
0.0
  70
0
  0
VERTEX
  8
a
  10
2.69813
  20
17.82399
  30
0.0
  70
0
  0
VERTEX
  8
a
  10
2.70941
  20
18.11354
  30
0.0
  70
0
  0
VERTEX
  8
a
  10
2.65416
  20
18.46239
  30
0.0
  70
0
  0
VERTEX
  8
a
  10
2.55396
  20
18.73428
  30
0.0
  70
0
  0
VERTEX
  8
a
  10
2.49254
  20
18.73151
  30
0.0
  70
0
  0
VERTEX
  8
a
  10
2.43086
  20
18.7307
  30
0.0
  70
0
  0
VERTEX
  8
a
  10
2.30694
  20
18.73348
  30
0.0
  70
0
  0
VERTEX
  8
a
  10
2.18241
  20
18.74104
  30
0.0
  70
0
  0
VERTEX
  8
a
  10
2.05739
  20
18.75263
  30
0.0
  70
0
  0
VERTEX
  8
a
  10
1.80614
  20
18.78631
  30
0.0
  70
0
  0
VERTEX
  8
a
  10
1.55361
  20
18.83233
  30
0.0
  70
0
  0
VERTEX
  8
a
  10
1.30007
  20
18.88942
  30
0.0
  70
0
  0
VERTEX
  8
a
  10
1.04575
  20
18.95676
  30
0.0
  70
0
  0
VERTEX
  8
a
  10
0.79084
  20
19.03375
  30
0.0
  70
0
  0
VERTEX
  8
a
  10
0.53552
  20
19.11994
  30
0.0
  70
0
  0
VERTEX
  8
a
  10
0.27995
  20
19.21498
  30
0.0
  70
0
  0
VERTEX
  8
a
  10
0.08821
  20
19.29189
  30
0.0
  70
0
  0
VERTEX
  8
a
  10
0.04604
  20
19.82761
  30
0.0
  70
0
  0
VERTEX
  8
a
  10
0.2234
  20
19.93358
  30
0.0
  70
0
  0
VERTEX
  8
a
  10
0.46095
  20
20.06743
  30
0.0
  70
0
  0
VERTEX
  8
a
  10
0.69965
  20
20.1925
  30
0.0
  70
0
  0
VERTEX
  8
a
  10
0.93937
  20
20.30841
  30
0.0
  70
0
  0
VERTEX
  8
a
  10
1.18003
  20
20.41471
  30
0.0
  70
0
  0
VERTEX
  8
a
  10
1.42152
  20
20.51076
  30
0.0
  70
0
  0
VERTEX
  8
a
  10
1.66374
  20
20.59572
  30
0.0
  70
0
  0
VERTEX
  8
a
  10
1.90662
  20
20.66829
  30
0.0
  70
0
  0
VERTEX
  8
a
  10
2.02829
  20
20.6993
  30
0.0
  70
0
  0
VERTEX
  8
a
  10
2.1501
  20
20.72624
  30
0.0
  70
0
  0
VERTEX
  8
a
  10
2.27207
  20
20.74837
  30
0.0
  70
0
  0
VERTEX
  8
a
  10
2.33311
  20
20.75722
  30
0.0
  70
0
  0
VERTEX
  8
a
  10
2.39421
  20
20.76409
  30
0.0
  70
0
  0
VERTEX
  8
a
  10
2.45064
  20
21.0483
  30
0.0
  70
0
  0
SEQEND
  0
CIRCLE
  8
a
  10
21.22491
  20
21.22491
  30
0.0
  40
0.5
 0
LINE
 8
c
 10
2.50769
 20
22.69798
 30
0
 11
0.06543
 21
22.89019
 31
 0
 0
LINE
 8
c
 10
2.96857
 20
25.60787
 30
0
 11
0.58645
 21
26.17976
 31
 0
 0
LINE
 8
c
 10
3.87898
 20
28.40982
 30
0
 11
1.61565
 21
29.34733
 31
 0
 0
LINE
 8
c
 10
5.21651
 20
31.03487
 30
0
 11
3.1277
 21
32.31489
 31
 0
 0
LINE
 8
c
 10
6.94821
 20
33.41835
 30
0
 11
5.08536
 21
35.00938
 31
 0
 0
LINE
 8
c
 10
9.03146
 20
35.5016
 30
0
 11
7.44043
 21
37.36445
 31
 0
 0
LINE
 8
c
 10
11.41495
 20
37.23331
 30
0
 11
10.13492
 21
39.32212
 31
 0
 0
LINE
 8
c
 10
14.03999
 20
38.57083
 30
0
 11
13.10249
 21
40.83416
 31
 0
 0
LINE
 8
c
 10
16.84195
 20
39.48124
 30
0
 11
16.27005
 21
41.86337
 31
 0
 0
LINE
 8
c
 10
19.75183
 20
39.94212
 30
0
 11
19.55962
 21
42.38438
 31
 0
 0
LINE
 8
c
 10
22.69798
 20
39.94212
 30
0
 11
22.89019
 21
42.38438
 31
 0
 0
LINE
 8
c
 10
25.60787
 20
39.48124
 30
0
 11
26.17976
 21
41.86337
 31
 0
 0
LINE
 8
c
 10
28.40982
 20
38.57083
 30
0
 11
29.34733
 21
40.83416
 31
 0
 0
LINE
 8
c
 10
31.03487
 20
37.23331
 30
0
 11
32.31489
 21
39.32212
 31
 0
 0
LINE
 8
c
 10
33.41835
 20
35.5016
 30
0
 11
35.00938
 21
37.36445
 31
 0
 0
LINE
 8
c
 10
35.5016
 20
33.41835
 30
0
 11
37.36445
 21
35.00938
 31
 0
 0
LINE
 8
c
 10
37.23331
 20
31.03487
 30
0
 11
39.32212
 21
32.31489
 31
 0
 0
LINE
 8
c
 10
38.57083
 20
28.40982
 30
0
 11
40.83416
 21
29.34733
 31
 0
 0
LINE
 8
c
 10
39.48124
 20
25.60787
 30
0
 11
41.86337
 21
26.17976
 31
 0
 0
LINE
 8
c
 10
39.94212
 20
22.69798
 30
0
 11
42.38438
 21
22.89019
 31
 0
 0
LINE
 8
c
 10
39.94212
 20
19.75183
 30
0
 11
42.38438
 21
19.55962
 31
 0
 0
LINE
 8
c
 10
39.48124
 20
16.84195
 30
0
 11
41.86337
 21
16.27005
 31
 0
 0
LINE
 8
c
 10
38.57083
 20
14.03999
 30
0
 11
40.83416
 21
13.10249
 31
 0
 0
LINE
 8
c
 10
37.23331
 20
11.41495
 30
0
 11
39.32212
 21
10.13492
 31
 0
 0
LINE
 8
c
 10
35.5016
 20
9.03146
 30
0
 11
37.36445
 21
7.44043
 31
 0
 0
LINE
 8
c
 10
33.41835
 20
6.94821
 30
0
 11
35.00938
 21
5.08536
 31
 0
 0
LINE
 8
c
 10
31.03487
 20
5.21651
 30
0
 11
32.31489
 21
3.1277
 31
 0
 0
LINE
 8
c
 10
28.40982
 20
3.87898
 30
0
 11
29.34733
 21
1.61565
 31
 0
 0
LINE
 8
c
 10
25.60787
 20
2.96857
 30
0
 11
26.17976
 21
0.58645
 31
 0
 0
LINE
 8
c
 10
22.69798
 20
2.50769
 30
0
 11
22.89019
 21
0.06543
 31
 0
 0
LINE
 8
c
 10
19.75183
 20
2.50769
 30
0
 11
19.55962
 21
0.06543
 31
 0
 0
LINE
 8
c
 10
16.84195
 20
2.96857
 30
0
 11
16.27005
 21
0.58645
 31
 0
 0
LINE
 8
c
 10
14.03999
 20
3.87898
 30
0
 11
13.10249
 21
1.61565
 31
 0
 0
LINE
 8
c
 10
11.41495
 20
5.21651
 30
0
 11
10.13492
 21
3.1277
 31
 0
 0
LINE
 8
c
 10
9.03146
 20
6.94821
 30
0
 11
7.44043
 21
5.08536
 31
 0
 0
LINE
 8
c
 10
6.94821
 20
9.03146
 30
0
 11
5.08536
 21
7.44043
 31
 0
 0
LINE
 8
c
 10
5.21651
 20
11.41495
 30
0
 11
3.1277
 21
10.13492
 31
 0
 0
LINE
 8
c
 10
3.87898
 20
14.03999
 30
0
 11
1.61565
 21
13.10249
 31
 0
 0
LINE
 8
c
 10
2.96857
 20
16.84195
 30
0
 11
0.58645
 21
16.27005
 31
 0
 0
LINE
 8
c
 10
2.50769
 20
19.75183
 30
0
 11
0.06543
 21
19.55962
 31
 0
  0
CIRCLE
  8
c
  10
21.22491
  20
21.22491
  30
0.0
  40
20
 0
LINE
 8
a
 10
14.14994
 20
21.22491
 30
0
 11
28.29988
 21
21.22491
 31
 0
 0
LINE
 8
a
 10
21.22491
 20
14.14994
 30
0
 11
21.22491
 21
28.29988
 31
 0
  0
TEXT
  8
labels
  10
0.0
  20
0.0
  30
0.0
  40
0.1
  1
G2:Toothspacing=3.14  Teeth=40  Spur gear  Angle=20.0  Addendum=.4
  41
1.0
  7
ARIAL
  0
ENDSEC
  0
EOF
