  999
DXF file created by gear template generator. 2019-01-25T12:00:30
  999
G2:Toothspacing=3.14  Teeth=60  Spur gear  Angle=20.0  Addendum=.4
  0
SECTION
  2
HEADER
  9
$MEASUREMENT
  70
1
  0
ENDSEC
  0
SECTION
  2
TABLES
  0
TABLE
  2
LTYPE
  70
1
  0
LTYPE
  2
Continuous
  3
_
  70
0
  72
65
  73
0
  40
0.0
  0
ENDTAB
  0
TABLE
  2
LAYER
  70
4
  0
LAYER
  2
profile
  70
0
  62
7
  6
Continuous
  0
LAYER
  2
construction
  70
0
  62
5
  6
Continuous
  0
LAYER
  2
grid
  70
0
  62
3
  6
Continuous
  0
LAYER
  2
labels
  70
0
  62
1
  6
Continuous
  0
ENDTAB
  0
TABLE
  2
STYLE
  70
1
  0
STYLE
  2
ARIAL
  3
Arial.ttf
  70
0
  40
0.0
  41
1.0
  50
0.0
  71
0
  42
1.0
  0
ENDTAB
  0
ENDSEC
  0
SECTION
  2
ENTITIES
 0
LINE
 8
b
 10
0.22491
 20
0
 30
0
 11
0.22491
 21
62.44981
 31
 0
 0
LINE
 8
b
 10
1.22491
 20
0
 30
0
 11
1.22491
 21
62.44981
 31
 0
 0
LINE
 8
b
 10
2.22491
 20
0
 30
0
 11
2.22491
 21
62.44981
 31
 0
 0
LINE
 8
b
 10
3.22491
 20
0
 30
0
 11
3.22491
 21
62.44981
 31
 0
 0
LINE
 8
b
 10
4.22491
 20
0
 30
0
 11
4.22491
 21
62.44981
 31
 0
 0
LINE
 8
b
 10
5.22491
 20
0
 30
0
 11
5.22491
 21
62.44981
 31
 0
 0
LINE
 8
b
 10
6.22491
 20
0
 30
0
 11
6.22491
 21
62.44981
 31
 0
 0
LINE
 8
b
 10
7.22491
 20
0
 30
0
 11
7.22491
 21
62.44981
 31
 0
 0
LINE
 8
b
 10
8.22491
 20
0
 30
0
 11
8.22491
 21
62.44981
 31
 0
 0
LINE
 8
b
 10
9.22491
 20
0
 30
0
 11
9.22491
 21
62.44981
 31
 0
 0
LINE
 8
b
 10
10.22491
 20
0
 30
0
 11
10.22491
 21
62.44981
 31
 0
 0
LINE
 8
b
 10
11.22491
 20
0
 30
0
 11
11.22491
 21
62.44981
 31
 0
 0
LINE
 8
b
 10
12.22491
 20
0
 30
0
 11
12.22491
 21
62.44981
 31
 0
 0
LINE
 8
b
 10
13.22491
 20
0
 30
0
 11
13.22491
 21
62.44981
 31
 0
 0
LINE
 8
b
 10
14.22491
 20
0
 30
0
 11
14.22491
 21
62.44981
 31
 0
 0
LINE
 8
b
 10
15.22491
 20
0
 30
0
 11
15.22491
 21
62.44981
 31
 0
 0
LINE
 8
b
 10
16.22491
 20
0
 30
0
 11
16.22491
 21
62.44981
 31
 0
 0
LINE
 8
b
 10
17.22491
 20
0
 30
0
 11
17.22491
 21
62.44981
 31
 0
 0
LINE
 8
b
 10
18.22491
 20
0
 30
0
 11
18.22491
 21
62.44981
 31
 0
 0
LINE
 8
b
 10
19.22491
 20
0
 30
0
 11
19.22491
 21
62.44981
 31
 0
 0
LINE
 8
b
 10
20.22491
 20
0
 30
0
 11
20.22491
 21
62.44981
 31
 0
 0
LINE
 8
b
 10
21.22491
 20
0
 30
0
 11
21.22491
 21
62.44981
 31
 0
 0
LINE
 8
b
 10
22.22491
 20
0
 30
0
 11
22.22491
 21
62.44981
 31
 0
 0
LINE
 8
b
 10
23.22491
 20
0
 30
0
 11
23.22491
 21
62.44981
 31
 0
 0
LINE
 8
b
 10
24.22491
 20
0
 30
0
 11
24.22491
 21
62.44981
 31
 0
 0
LINE
 8
b
 10
25.22491
 20
0
 30
0
 11
25.22491
 21
62.44981
 31
 0
 0
LINE
 8
b
 10
26.22491
 20
0
 30
0
 11
26.22491
 21
62.44981
 31
 0
 0
LINE
 8
b
 10
27.22491
 20
0
 30
0
 11
27.22491
 21
62.44981
 31
 0
 0
LINE
 8
b
 10
28.22491
 20
0
 30
0
 11
28.22491
 21
62.44981
 31
 0
 0
LINE
 8
b
 10
29.22491
 20
0
 30
0
 11
29.22491
 21
62.44981
 31
 0
 0
LINE
 8
b
 10
30.22491
 20
0
 30
0
 11
30.22491
 21
62.44981
 31
 0
 0
LINE
 8
b
 10
31.22491
 20
0
 30
0
 11
31.22491
 21
62.44981
 31
 0
 0
LINE
 8
b
 10
32.22491
 20
0
 30
0
 11
32.22491
 21
62.44981
 31
 0
 0
LINE
 8
b
 10
33.22491
 20
0
 30
0
 11
33.22491
 21
62.44981
 31
 0
 0
LINE
 8
b
 10
34.22491
 20
0
 30
0
 11
34.22491
 21
62.44981
 31
 0
 0
LINE
 8
b
 10
35.22491
 20
0
 30
0
 11
35.22491
 21
62.44981
 31
 0
 0
LINE
 8
b
 10
36.22491
 20
0
 30
0
 11
36.22491
 21
62.44981
 31
 0
 0
LINE
 8
b
 10
37.22491
 20
0
 30
0
 11
37.22491
 21
62.44981
 31
 0
 0
LINE
 8
b
 10
38.22491
 20
0
 30
0
 11
38.22491
 21
62.44981
 31
 0
 0
LINE
 8
b
 10
39.22491
 20
0
 30
0
 11
39.22491
 21
62.44981
 31
 0
 0
LINE
 8
b
 10
40.22491
 20
0
 30
0
 11
40.22491
 21
62.44981
 31
 0
 0
LINE
 8
b
 10
41.22491
 20
0
 30
0
 11
41.22491
 21
62.44981
 31
 0
 0
LINE
 8
b
 10
42.22491
 20
0
 30
0
 11
42.22491
 21
62.44981
 31
 0
 0
LINE
 8
b
 10
43.22491
 20
0
 30
0
 11
43.22491
 21
62.44981
 31
 0
 0
LINE
 8
b
 10
44.22491
 20
0
 30
0
 11
44.22491
 21
62.44981
 31
 0
 0
LINE
 8
b
 10
45.22491
 20
0
 30
0
 11
45.22491
 21
62.44981
 31
 0
 0
LINE
 8
b
 10
46.22491
 20
0
 30
0
 11
46.22491
 21
62.44981
 31
 0
 0
LINE
 8
b
 10
47.22491
 20
0
 30
0
 11
47.22491
 21
62.44981
 31
 0
 0
LINE
 8
b
 10
48.22491
 20
0
 30
0
 11
48.22491
 21
62.44981
 31
 0
 0
LINE
 8
b
 10
49.22491
 20
0
 30
0
 11
49.22491
 21
62.44981
 31
 0
 0
LINE
 8
b
 10
50.22491
 20
0
 30
0
 11
50.22491
 21
62.44981
 31
 0
 0
LINE
 8
b
 10
51.22491
 20
0
 30
0
 11
51.22491
 21
62.44981
 31
 0
 0
LINE
 8
b
 10
52.22491
 20
0
 30
0
 11
52.22491
 21
62.44981
 31
 0
 0
LINE
 8
b
 10
53.22491
 20
0
 30
0
 11
53.22491
 21
62.44981
 31
 0
 0
LINE
 8
b
 10
54.22491
 20
0
 30
0
 11
54.22491
 21
62.44981
 31
 0
 0
LINE
 8
b
 10
55.22491
 20
0
 30
0
 11
55.22491
 21
62.44981
 31
 0
 0
LINE
 8
b
 10
56.22491
 20
0
 30
0
 11
56.22491
 21
62.44981
 31
 0
 0
LINE
 8
b
 10
57.22491
 20
0
 30
0
 11
57.22491
 21
62.44981
 31
 0
 0
LINE
 8
b
 10
58.22491
 20
0
 30
0
 11
58.22491
 21
62.44981
 31
 0
 0
LINE
 8
b
 10
59.22491
 20
0
 30
0
 11
59.22491
 21
62.44981
 31
 0
 0
LINE
 8
b
 10
60.22491
 20
0
 30
0
 11
60.22491
 21
62.44981
 31
 0
 0
LINE
 8
b
 10
61.22491
 20
0
 30
0
 11
61.22491
 21
62.44981
 31
 0
 0
LINE
 8
b
 10
62.22491
 20
0
 30
0
 11
62.22491
 21
62.44981
 31
 0
 0
LINE
 8
b
 10
0
 20
0.22491
 30
0
 11
62.44981
 21
0.22491
 31
 0
 0
LINE
 8
b
 10
0
 20
1.22491
 30
0
 11
62.44981
 21
1.22491
 31
 0
 0
LINE
 8
b
 10
0
 20
2.22491
 30
0
 11
62.44981
 21
2.22491
 31
 0
 0
LINE
 8
b
 10
0
 20
3.22491
 30
0
 11
62.44981
 21
3.22491
 31
 0
 0
LINE
 8
b
 10
0
 20
4.22491
 30
0
 11
62.44981
 21
4.22491
 31
 0
 0
LINE
 8
b
 10
0
 20
5.22491
 30
0
 11
62.44981
 21
5.22491
 31
 0
 0
LINE
 8
b
 10
0
 20
6.22491
 30
0
 11
62.44981
 21
6.22491
 31
 0
 0
LINE
 8
b
 10
0
 20
7.22491
 30
0
 11
62.44981
 21
7.22491
 31
 0
 0
LINE
 8
b
 10
0
 20
8.22491
 30
0
 11
62.44981
 21
8.22491
 31
 0
 0
LINE
 8
b
 10
0
 20
9.22491
 30
0
 11
62.44981
 21
9.22491
 31
 0
 0
LINE
 8
b
 10
0
 20
10.22491
 30
0
 11
62.44981
 21
10.22491
 31
 0
 0
LINE
 8
b
 10
0
 20
11.22491
 30
0
 11
62.44981
 21
11.22491
 31
 0
 0
LINE
 8
b
 10
0
 20
12.22491
 30
0
 11
62.44981
 21
12.22491
 31
 0
 0
LINE
 8
b
 10
0
 20
13.22491
 30
0
 11
62.44981
 21
13.22491
 31
 0
 0
LINE
 8
b
 10
0
 20
14.22491
 30
0
 11
62.44981
 21
14.22491
 31
 0
 0
LINE
 8
b
 10
0
 20
15.22491
 30
0
 11
62.44981
 21
15.22491
 31
 0
 0
LINE
 8
b
 10
0
 20
16.22491
 30
0
 11
62.44981
 21
16.22491
 31
 0
 0
LINE
 8
b
 10
0
 20
17.22491
 30
0
 11
62.44981
 21
17.22491
 31
 0
 0
LINE
 8
b
 10
0
 20
18.22491
 30
0
 11
62.44981
 21
18.22491
 31
 0
 0
LINE
 8
b
 10
0
 20
19.22491
 30
0
 11
62.44981
 21
19.22491
 31
 0
 0
LINE
 8
b
 10
0
 20
20.22491
 30
0
 11
62.44981
 21
20.22491
 31
 0
 0
LINE
 8
b
 10
0
 20
21.22491
 30
0
 11
62.44981
 21
21.22491
 31
 0
 0
LINE
 8
b
 10
0
 20
22.22491
 30
0
 11
62.44981
 21
22.22491
 31
 0
 0
LINE
 8
b
 10
0
 20
23.22491
 30
0
 11
62.44981
 21
23.22491
 31
 0
 0
LINE
 8
b
 10
0
 20
24.22491
 30
0
 11
62.44981
 21
24.22491
 31
 0
 0
LINE
 8
b
 10
0
 20
25.22491
 30
0
 11
62.44981
 21
25.22491
 31
 0
 0
LINE
 8
b
 10
0
 20
26.22491
 30
0
 11
62.44981
 21
26.22491
 31
 0
 0
LINE
 8
b
 10
0
 20
27.22491
 30
0
 11
62.44981
 21
27.22491
 31
 0
 0
LINE
 8
b
 10
0
 20
28.22491
 30
0
 11
62.44981
 21
28.22491
 31
 0
 0
LINE
 8
b
 10
0
 20
29.22491
 30
0
 11
62.44981
 21
29.22491
 31
 0
 0
LINE
 8
b
 10
0
 20
30.22491
 30
0
 11
62.44981
 21
30.22491
 31
 0
 0
LINE
 8
b
 10
0
 20
31.22491
 30
0
 11
62.44981
 21
31.22491
 31
 0
 0
LINE
 8
b
 10
0
 20
32.22491
 30
0
 11
62.44981
 21
32.22491
 31
 0
 0
LINE
 8
b
 10
0
 20
33.22491
 30
0
 11
62.44981
 21
33.22491
 31
 0
 0
LINE
 8
b
 10
0
 20
34.22491
 30
0
 11
62.44981
 21
34.22491
 31
 0
 0
LINE
 8
b
 10
0
 20
35.22491
 30
0
 11
62.44981
 21
35.22491
 31
 0
 0
LINE
 8
b
 10
0
 20
36.22491
 30
0
 11
62.44981
 21
36.22491
 31
 0
 0
LINE
 8
b
 10
0
 20
37.22491
 30
0
 11
62.44981
 21
37.22491
 31
 0
 0
LINE
 8
b
 10
0
 20
38.22491
 30
0
 11
62.44981
 21
38.22491
 31
 0
 0
LINE
 8
b
 10
0
 20
39.22491
 30
0
 11
62.44981
 21
39.22491
 31
 0
 0
LINE
 8
b
 10
0
 20
40.22491
 30
0
 11
62.44981
 21
40.22491
 31
 0
 0
LINE
 8
b
 10
0
 20
41.22491
 30
0
 11
62.44981
 21
41.22491
 31
 0
 0
LINE
 8
b
 10
0
 20
42.22491
 30
0
 11
62.44981
 21
42.22491
 31
 0
 0
LINE
 8
b
 10
0
 20
43.22491
 30
0
 11
62.44981
 21
43.22491
 31
 0
 0
LINE
 8
b
 10
0
 20
44.22491
 30
0
 11
62.44981
 21
44.22491
 31
 0
 0
LINE
 8
b
 10
0
 20
45.22491
 30
0
 11
62.44981
 21
45.22491
 31
 0
 0
LINE
 8
b
 10
0
 20
46.22491
 30
0
 11
62.44981
 21
46.22491
 31
 0
 0
LINE
 8
b
 10
0
 20
47.22491
 30
0
 11
62.44981
 21
47.22491
 31
 0
 0
LINE
 8
b
 10
0
 20
48.22491
 30
0
 11
62.44981
 21
48.22491
 31
 0
 0
LINE
 8
b
 10
0
 20
49.22491
 30
0
 11
62.44981
 21
49.22491
 31
 0
 0
LINE
 8
b
 10
0
 20
50.22491
 30
0
 11
62.44981
 21
50.22491
 31
 0
 0
LINE
 8
b
 10
0
 20
51.22491
 30
0
 11
62.44981
 21
51.22491
 31
 0
 0
LINE
 8
b
 10
0
 20
52.22491
 30
0
 11
62.44981
 21
52.22491
 31
 0
 0
LINE
 8
b
 10
0
 20
53.22491
 30
0
 11
62.44981
 21
53.22491
 31
 0
 0
LINE
 8
b
 10
0
 20
54.22491
 30
0
 11
62.44981
 21
54.22491
 31
 0
 0
LINE
 8
b
 10
0
 20
55.22491
 30
0
 11
62.44981
 21
55.22491
 31
 0
 0
LINE
 8
b
 10
0
 20
56.22491
 30
0
 11
62.44981
 21
56.22491
 31
 0
 0
LINE
 8
b
 10
0
 20
57.22491
 30
0
 11
62.44981
 21
57.22491
 31
 0
 0
LINE
 8
b
 10
0
 20
58.22491
 30
0
 11
62.44981
 21
58.22491
 31
 0
 0
LINE
 8
b
 10
0
 20
59.22491
 30
0
 11
62.44981
 21
59.22491
 31
 0
 0
LINE
 8
b
 10
0
 20
60.22491
 30
0
 11
62.44981
 21
60.22491
 31
 0
 0
LINE
 8
b
 10
0
 20
61.22491
 30
0
 11
62.44981
 21
61.22491
 31
 0
 0
LINE
 8
b
 10
0
 20
62.22491
 30
0
 11
62.44981
 21
62.22491
 31
 0
  0
POLYLINE
  8
a
  66
1
  10
0.0
  20
0.0
  70
1
  0
VERTEX
  8
a
  10
2.45266
  20
31.62956
  30
0.0
  70
0
  0
VERTEX
  8
a
  10
2.35091
  20
31.65282
  30
0.0
  70
0
  0
VERTEX
  8
a
  10
2.2492
  20
31.67787
  30
0.0
  70
0
  0
VERTEX
  8
a
  10
2.04593
  20
31.73292
  30
0.0
  70
0
  0
VERTEX
  8
a
  10
1.64004
  20
31.8609
  30
0.0
  70
0
  0
VERTEX
  8
a
  10
1.23519
  20
32.01022
  30
0.0
  70
0
  0
VERTEX
  8
a
  10
0.83157
  20
32.17886
  30
0.0
  70
0
  0
VERTEX
  8
a
  10
0.42942
  20
32.3655
  30
0.0
  70
0
  0
VERTEX
  8
a
  10
0.02895
  20
32.56913
  30
0.0
  70
0
  0
VERTEX
  8
a
  10
0.05933
  20
33.14891
  30
0.0
  70
0
  0
VERTEX
  8
a
  10
0.47889
  20
33.30957
  30
0.0
  70
0
  0
VERTEX
  8
a
  10
0.89835
  20
33.45314
  30
0.0
  70
0
  0
VERTEX
  8
a
  10
1.31739
  20
33.57868
  30
0.0
  70
0
  0
VERTEX
  8
a
  10
1.73563
  20
33.68486
  30
0.0
  70
0
  0
VERTEX
  8
a
  10
2.15268
  20
33.76971
  30
0.0
  70
0
  0
VERTEX
  8
a
  10
2.36059
  20
33.80322
  30
0.0
  70
0
  0
VERTEX
  8
a
  10
2.46435
  20
33.81749
  30
0.0
  70
0
  0
VERTEX
  8
a
  10
2.56798
  20
33.82999
  30
0.0
  70
0
  0
VERTEX
  8
a
  10
2.65257
  20
34.63486
  30
0.0
  70
0
  0
VERTEX
  8
a
  10
2.55381
  20
34.66863
  30
0.0
  70
0
  0
VERTEX
  8
a
  10
2.45528
  20
34.70417
  30
0.0
  70
0
  0
VERTEX
  8
a
  10
2.25888
  20
34.78017
  30
0.0
  70
0
  0
VERTEX
  8
a
  10
1.86859
  20
34.94988
  30
0.0
  70
0
  0
VERTEX
  8
a
  10
1.48156
  20
35.14069
  30
0.0
  70
0
  0
VERTEX
  8
a
  10
1.09779
  20
35.35061
  30
0.0
  70
0
  0
VERTEX
  8
a
  10
0.71734
  20
35.57826
  30
0.0
  70
0
  0
VERTEX
  8
a
  10
0.34035
  20
35.82263
  30
0.0
  70
0
  0
VERTEX
  8
a
  10
0.43117
  20
36.39606
  30
0.0
  70
0
  0
VERTEX
  8
a
  10
0.86523
  20
36.51198
  30
0.0
  70
0
  0
VERTEX
  8
a
  10
1.2974
  20
36.61092
  30
0.0
  70
0
  0
VERTEX
  8
a
  10
1.72726
  20
36.69197
  30
0.0
  70
0
  0
VERTEX
  8
a
  10
2.15431
  20
36.75385
  30
0.0
  70
0
  0
VERTEX
  8
a
  10
2.57794
  20
36.79465
  30
0.0
  70
0
  0
VERTEX
  8
a
  10
2.78822
  20
36.80623
  30
0.0
  70
0
  0
VERTEX
  8
a
  10
2.89291
  20
36.80959
  30
0.0
  70
0
  0
VERTEX
  8
a
  10
2.99727
  20
36.81118
  30
0.0
  70
0
  0
VERTEX
  8
a
  10
3.16553
  20
37.6028
  30
0.0
  70
0
  0
VERTEX
  8
a
  10
3.07084
  20
37.64671
  30
0.0
  70
0
  0
VERTEX
  8
a
  10
2.97657
  20
37.69235
  30
0.0
  70
0
  0
VERTEX
  8
a
  10
2.78919
  20
37.78847
  30
0.0
  70
0
  0
VERTEX
  8
a
  10
2.41878
  20
37.99804
  30
0.0
  70
0
  0
VERTEX
  8
a
  10
2.05381
  20
38.22827
  30
0.0
  70
0
  0
VERTEX
  8
a
  10
1.69408
  20
38.47715
  30
0.0
  70
0
  0
VERTEX
  8
a
  10
1.33952
  20
38.74332
  30
0.0
  70
0
  0
VERTEX
  8
a
  10
0.99013
  20
39.02576
  30
0.0
  70
0
  0
VERTEX
  8
a
  10
1.1404
  20
39.58656
  30
0.0
  70
0
  0
VERTEX
  8
a
  10
1.58419
  20
39.65647
  30
0.0
  70
0
  0
VERTEX
  8
a
  10
2.02434
  20
39.7097
  30
0.0
  70
0
  0
VERTEX
  8
a
  10
2.46031
  20
39.74537
  30
0.0
  70
0
  0
VERTEX
  8
a
  10
2.8915
  20
39.76226
  30
0.0
  70
0
  0
VERTEX
  8
a
  10
3.31707
  20
39.75856
  30
0.0
  70
0
  0
VERTEX
  8
a
  10
3.5274
  20
39.7481
  30
0.0
  70
0
  0
VERTEX
  8
a
  10
3.63187
  20
39.74049
  30
0.0
  70
0
  0
VERTEX
  8
a
  10
3.73583
  20
39.73117
  30
0.0
  70
0
  0
VERTEX
  8
a
  10
3.98592
  20
40.50087
  30
0.0
  70
0
  0
VERTEX
  8
a
  10
3.89634
  20
40.55443
  30
0.0
  70
0
  0
VERTEX
  8
a
  10
3.80735
  20
40.60968
  30
0.0
  70
0
  0
VERTEX
  8
a
  10
3.63104
  20
40.72485
  30
0.0
  70
0
  0
VERTEX
  8
a
  10
3.28456
  20
40.972
  30
0.0
  70
0
  0
VERTEX
  8
a
  10
2.94566
  20
41.23911
  30
0.0
  70
0
  0
VERTEX
  8
a
  10
2.61392
  20
41.52423
  30
0.0
  70
0
  0
VERTEX
  8
a
  10
2.28912
  20
41.826
  30
0.0
  70
0
  0
VERTEX
  8
a
  10
1.97117
  20
42.14342
  30
0.0
  70
0
  0
VERTEX
  8
a
  10
2.17924
  20
42.68544
  30
0.0
  70
0
  0
VERTEX
  8
a
  10
2.62791
  20
42.70858
  30
0.0
  70
0
  0
VERTEX
  8
a
  10
3.0712
  20
42.71551
  30
0.0
  70
0
  0
VERTEX
  8
a
  10
3.50852
  20
42.70541
  30
0.0
  70
0
  0
VERTEX
  8
a
  10
3.93911
  20
42.67714
  30
0.0
  70
0
  0
VERTEX
  8
a
  10
4.36196
  20
42.62897
  30
0.0
  70
0
  0
VERTEX
  8
a
  10
4.57005
  20
42.59659
  30
0.0
  70
0
  0
VERTEX
  8
a
  10
4.67315
  20
42.5781
  30
0.0
  70
0
  0
VERTEX
  8
a
  10
4.77556
  20
42.55797
  30
0.0
  70
0
  0
VERTEX
  8
a
  10
5.10474
  20
43.2973
  30
0.0
  70
0
  0
VERTEX
  8
a
  10
5.02124
  20
43.35994
  30
0.0
  70
0
  0
VERTEX
  8
a
  10
4.93852
  20
43.42419
  30
0.0
  70
0
  0
VERTEX
  8
a
  10
4.77522
  20
43.55716
  30
0.0
  70
0
  0
VERTEX
  8
a
  10
4.45647
  20
43.83917
  30
0.0
  70
0
  0
VERTEX
  8
a
  10
4.14735
  20
44.14024
  30
0.0
  70
0
  0
VERTEX
  8
a
  10
3.84722
  20
44.45847
  30
0.0
  70
0
  0
VERTEX
  8
a
  10
3.55575
  20
44.79254
  30
0.0
  70
0
  0
VERTEX
  8
a
  10
3.27272
  20
45.14145
  30
0.0
  70
0
  0
VERTEX
  8
a
  10
3.5363
  20
45.65876
  30
0.0
  70
0
  0
VERTEX
  8
a
  10
3.98493
  20
45.63487
  30
0.0
  70
0
  0
VERTEX
  8
a
  10
4.42653
  20
45.59542
  30
0.0
  70
0
  0
VERTEX
  8
a
  10
4.86039
  20
45.53967
  30
0.0
  70
0
  0
VERTEX
  8
a
  10
5.28567
  20
45.46655
  30
0.0
  70
0
  0
VERTEX
  8
a
  10
5.70117
  20
45.37444
  30
0.0
  70
0
  0
VERTEX
  8
a
  10
5.90473
  20
45.32049
  30
0.0
  70
0
  0
VERTEX
  8
a
  10
6.00534
  20
45.29132
  30
0.0
  70
0
  0
VERTEX
  8
a
  10
6.10508
  20
45.26059
  30
0.0
  70
0
  0
VERTEX
  8
a
  10
6.50974
  20
45.96147
  30
0.0
  70
0
  0
VERTEX
  8
a
  10
6.43325
  20
46.03249
  30
0.0
  70
0
  0
VERTEX
  8
a
  10
6.35769
  20
46.10503
  30
0.0
  70
0
  0
VERTEX
  8
a
  10
6.20918
  20
46.25434
  30
0.0
  70
0
  0
VERTEX
  8
a
  10
5.92166
  20
46.56813
  30
0.0
  70
0
  0
VERTEX
  8
a
  10
5.6457
  20
46.89986
  30
0.0
  70
0
  0
VERTEX
  8
a
  10
5.38049
  20
47.24773
  30
0.0
  70
0
  0
VERTEX
  8
a
  10
5.12553
  20
47.61043
  30
0.0
  70
0
  0
VERTEX
  8
a
  10
4.88052
  20
47.98702
  30
0.0
  70
0
  0
VERTEX
  8
a
  10
5.19673
  20
48.47393
  30
0.0
  70
0
  0
VERTEX
  8
a
  10
5.64041
  20
48.40328
  30
0.0
  70
0
  0
VERTEX
  8
a
  10
6.07546
  20
48.31789
  30
0.0
  70
0
  0
VERTEX
  8
a
  10
6.50112
  20
48.21709
  30
0.0
  70
0
  0
VERTEX
  8
a
  10
6.91642
  20
48.09992
  30
0.0
  70
0
  0
VERTEX
  8
a
  10
7.32002
  20
47.96489
  30
0.0
  70
0
  0
VERTEX
  8
a
  10
7.51683
  20
47.88995
  30
0.0
  70
0
  0
VERTEX
  8
a
  10
7.61383
  20
47.85043
  30
0.0
  70
0
  0
VERTEX
  8
a
  10
7.70982
  20
47.80944
  30
0.0
  70
0
  0
VERTEX
  8
a
  10
8.18552
  20
48.46418
  30
0.0
  70
0
  0
VERTEX
  8
a
  10
8.11687
  20
48.54281
  30
0.0
  70
0
  0
VERTEX
  8
a
  10
8.04931
  20
48.62285
  30
0.0
  70
0
  0
VERTEX
  8
a
  10
7.91722
  20
48.78687
  30
0.0
  70
0
  0
VERTEX
  8
a
  10
7.66408
  20
49.12898
  30
0.0
  70
0
  0
VERTEX
  8
a
  10
7.42431
  20
49.48775
  30
0.0
  70
0
  0
VERTEX
  8
a
  10
7.1969
  20
49.86143
  30
0.0
  70
0
  0
VERTEX
  8
a
  10
6.98126
  20
50.2488
  30
0.0
  70
0
  0
VERTEX
  8
a
  10
6.77696
  20
50.64893
  30
0.0
  70
0
  0
VERTEX
  8
a
  10
7.14233
  20
51.10013
  30
0.0
  70
0
  0
VERTEX
  8
a
  10
7.57619
  20
50.98349
  30
0.0
  70
0
  0
VERTEX
  8
a
  10
7.99993
  20
50.85309
  30
0.0
  70
0
  0
VERTEX
  8
a
  10
8.41273
  20
50.70835
  30
0.0
  70
0
  0
VERTEX
  8
a
  10
8.81351
  20
50.54841
  30
0.0
  70
0
  0
VERTEX
  8
a
  10
9.20078
  20
50.37193
  30
0.0
  70
0
  0
VERTEX
  8
a
  10
9.38867
  20
50.27682
  30
0.0
  70
0
  0
VERTEX
  8
a
  10
9.48102
  20
50.22738
  30
0.0
  70
0
  0
VERTEX
  8
a
  10
9.57219
  20
50.17658
  30
0.0
  70
0
  0
VERTEX
  8
a
  10
10.11373
  20
50.77801
  30
0.0
  70
0
  0
VERTEX
  8
a
  10
10.05367
  20
50.86338
  30
0.0
  70
0
  0
VERTEX
  8
a
  10
9.99485
  20
50.95005
  30
0.0
  70
0
  0
VERTEX
  8
a
  10
9.88063
  20
51.12698
  30
0.0
  70
0
  0
VERTEX
  8
a
  10
9.66463
  20
51.49368
  30
0.0
  70
0
  0
VERTEX
  8
a
  10
9.46368
  20
51.87554
  30
0.0
  70
0
  0
VERTEX
  8
a
  10
9.27658
  20
52.27095
  30
0.0
  70
0
  0
VERTEX
  8
a
  10
9.1026
  20
52.67874
  30
0.0
  70
0
  0
VERTEX
  8
a
  10
8.94125
  20
53.09803
  30
0.0
  70
0
  0
VERTEX
  8
a
  10
9.35178
  20
53.50856
  30
0.0
  70
0
  0
VERTEX
  8
a
  10
9.77108
  20
53.34721
  30
0.0
  70
0
  0
VERTEX
  8
a
  10
10.17887
  20
53.17323
  30
0.0
  70
0
  0
VERTEX
  8
a
  10
10.57427
  20
52.98614
  30
0.0
  70
0
  0
VERTEX
  8
a
  10
10.95613
  20
52.78518
  30
0.0
  70
0
  0
VERTEX
  8
a
  10
11.32284
  20
52.56918
  30
0.0
  70
0
  0
VERTEX
  8
a
  10
11.49976
  20
52.45496
  30
0.0
  70
0
  0
VERTEX
  8
a
  10
11.58643
  20
52.39614
  30
0.0
  70
0
  0
VERTEX
  8
a
  10
11.6718
  20
52.33609
  30
0.0
  70
0
  0
VERTEX
  8
a
  10
12.27323
  20
52.87762
  30
0.0
  70
0
  0
VERTEX
  8
a
  10
12.22243
  20
52.9688
  30
0.0
  70
0
  0
VERTEX
  8
a
  10
12.17299
  20
53.06114
  30
0.0
  70
0
  0
VERTEX
  8
a
  10
12.07789
  20
53.24904
  30
0.0
  70
0
  0
VERTEX
  8
a
  10
11.90141
  20
53.63631
  30
0.0
  70
0
  0
VERTEX
  8
a
  10
11.74147
  20
54.03709
  30
0.0
  70
0
  0
VERTEX
  8
a
  10
11.59673
  20
54.44988
  30
0.0
  70
0
  0
VERTEX
  8
a
  10
11.46633
  20
54.87362
  30
0.0
  70
0
  0
VERTEX
  8
a
  10
11.34969
  20
55.30748
  30
0.0
  70
0
  0
VERTEX
  8
a
  10
11.80088
  20
55.67285
  30
0.0
  70
0
  0
VERTEX
  8
a
  10
12.20101
  20
55.46856
  30
0.0
  70
0
  0
VERTEX
  8
a
  10
12.58838
  20
55.25291
  30
0.0
  70
0
  0
VERTEX
  8
a
  10
12.96206
  20
55.02551
  30
0.0
  70
0
  0
VERTEX
  8
a
  10
13.32083
  20
54.78573
  30
0.0
  70
0
  0
VERTEX
  8
a
  10
13.66295
  20
54.53259
  30
0.0
  70
0
  0
VERTEX
  8
a
  10
13.82696
  20
54.4005
  30
0.0
  70
0
  0
VERTEX
  8
a
  10
13.90701
  20
54.33294
  30
0.0
  70
0
  0
VERTEX
  8
a
  10
13.98563
  20
54.26429
  30
0.0
  70
0
  0
VERTEX
  8
a
  10
14.64038
  20
54.73999
  30
0.0
  70
0
  0
VERTEX
  8
a
  10
14.59939
  20
54.83598
  30
0.0
  70
0
  0
VERTEX
  8
a
  10
14.55987
  20
54.93299
  30
0.0
  70
0
  0
VERTEX
  8
a
  10
14.48493
  20
55.12979
  30
0.0
  70
0
  0
VERTEX
  8
a
  10
14.34989
  20
55.53339
  30
0.0
  70
0
  0
VERTEX
  8
a
  10
14.23272
  20
55.94869
  30
0.0
  70
0
  0
VERTEX
  8
a
  10
14.13192
  20
56.37435
  30
0.0
  70
0
  0
VERTEX
  8
a
  10
14.04653
  20
56.8094
  30
0.0
  70
0
  0
VERTEX
  8
a
  10
13.97588
  20
57.25308
  30
0.0
  70
0
  0
VERTEX
  8
a
  10
14.4628
  20
57.56929
  30
0.0
  70
0
  0
VERTEX
  8
a
  10
14.83938
  20
57.32429
  30
0.0
  70
0
  0
VERTEX
  8
a
  10
15.20209
  20
57.06933
  30
0.0
  70
0
  0
VERTEX
  8
a
  10
15.54995
  20
56.80411
  30
0.0
  70
0
  0
VERTEX
  8
a
  10
15.88169
  20
56.52815
  30
0.0
  70
0
  0
VERTEX
  8
a
  10
16.19547
  20
56.24063
  30
0.0
  70
0
  0
VERTEX
  8
a
  10
16.34478
  20
56.09212
  30
0.0
  70
0
  0
VERTEX
  8
a
  10
16.41733
  20
56.01657
  30
0.0
  70
0
  0
VERTEX
  8
a
  10
16.48834
  20
55.94008
  30
0.0
  70
0
  0
VERTEX
  8
a
  10
17.18922
  20
56.34473
  30
0.0
  70
0
  0
VERTEX
  8
a
  10
17.15849
  20
56.44448
  30
0.0
  70
0
  0
VERTEX
  8
a
  10
17.12933
  20
56.54508
  30
0.0
  70
0
  0
VERTEX
  8
a
  10
17.07537
  20
56.74864
  30
0.0
  70
0
  0
VERTEX
  8
a
  10
16.98326
  20
57.16415
  30
0.0
  70
0
  0
VERTEX
  8
a
  10
16.91014
  20
57.58942
  30
0.0
  70
0
  0
VERTEX
  8
a
  10
16.85439
  20
58.02329
  30
0.0
  70
0
  0
VERTEX
  8
a
  10
16.81494
  20
58.46488
  30
0.0
  70
0
  0
VERTEX
  8
a
  10
16.79106
  20
58.91351
  30
0.0
  70
0
  0
VERTEX
  8
a
  10
17.30836
  20
59.17709
  30
0.0
  70
0
  0
VERTEX
  8
a
  10
17.65727
  20
58.89407
  30
0.0
  70
0
  0
VERTEX
  8
a
  10
17.99134
  20
58.60259
  30
0.0
  70
0
  0
VERTEX
  8
a
  10
18.30957
  20
58.30247
  30
0.0
  70
0
  0
VERTEX
  8
a
  10
18.61065
  20
57.99334
  30
0.0
  70
0
  0
VERTEX
  8
a
  10
18.89266
  20
57.6746
  30
0.0
  70
0
  0
VERTEX
  8
a
  10
19.02563
  20
57.51129
  30
0.0
  70
0
  0
VERTEX
  8
a
  10
19.08988
  20
57.42857
  30
0.0
  70
0
  0
VERTEX
  8
a
  10
19.15251
  20
57.34508
  30
0.0
  70
0
  0
VERTEX
  8
a
  10
19.89185
  20
57.67425
  30
0.0
  70
0
  0
VERTEX
  8
a
  10
19.87171
  20
57.77666
  30
0.0
  70
0
  0
VERTEX
  8
a
  10
19.85322
  20
57.87976
  30
0.0
  70
0
  0
VERTEX
  8
a
  10
19.82084
  20
58.08785
  30
0.0
  70
0
  0
VERTEX
  8
a
  10
19.77267
  20
58.51071
  30
0.0
  70
0
  0
VERTEX
  8
a
  10
19.7444
  20
58.94129
  30
0.0
  70
0
  0
VERTEX
  8
a
  10
19.73431
  20
59.37861
  30
0.0
  70
0
  0
VERTEX
  8
a
  10
19.74124
  20
59.82191
  30
0.0
  70
0
  0
VERTEX
  8
a
  10
19.76438
  20
60.27058
  30
0.0
  70
0
  0
VERTEX
  8
a
  10
20.30639
  20
60.47864
  30
0.0
  70
0
  0
VERTEX
  8
a
  10
20.62381
  20
60.1607
  30
0.0
  70
0
  0
VERTEX
  8
a
  10
20.92558
  20
59.8359
  30
0.0
  70
0
  0
VERTEX
  8
a
  10
21.2107
  20
59.50415
  30
0.0
  70
0
  0
VERTEX
  8
a
  10
21.47781
  20
59.16525
  30
0.0
  70
0
  0
VERTEX
  8
a
  10
21.72496
  20
58.81878
  30
0.0
  70
0
  0
VERTEX
  8
a
  10
21.84013
  20
58.64247
  30
0.0
  70
0
  0
VERTEX
  8
a
  10
21.89538
  20
58.55348
  30
0.0
  70
0
  0
VERTEX
  8
a
  10
21.94895
  20
58.4639
  30
0.0
  70
0
  0
VERTEX
  8
a
  10
22.71864
  20
58.71399
  30
0.0
  70
0
  0
VERTEX
  8
a
  10
22.70932
  20
58.81794
  30
0.0
  70
0
  0
VERTEX
  8
a
  10
22.70171
  20
58.92241
  30
0.0
  70
0
  0
VERTEX
  8
a
  10
22.69126
  20
59.13274
  30
0.0
  70
0
  0
VERTEX
  8
a
  10
22.68755
  20
59.55832
  30
0.0
  70
0
  0
VERTEX
  8
a
  10
22.70445
  20
59.9895
  30
0.0
  70
0
  0
VERTEX
  8
a
  10
22.74012
  20
60.42548
  30
0.0
  70
0
  0
VERTEX
  8
a
  10
22.79334
  20
60.86562
  30
0.0
  70
0
  0
VERTEX
  8
a
  10
22.86326
  20
61.30941
  30
0.0
  70
0
  0
VERTEX
  8
a
  10
23.42405
  20
61.45968
  30
0.0
  70
0
  0
VERTEX
  8
a
  10
23.7065
  20
61.1103
  30
0.0
  70
0
  0
VERTEX
  8
a
  10
23.97267
  20
60.75574
  30
0.0
  70
0
  0
VERTEX
  8
a
  10
24.22155
  20
60.396
  30
0.0
  70
0
  0
VERTEX
  8
a
  10
24.45177
  20
60.03104
  30
0.0
  70
0
  0
VERTEX
  8
a
  10
24.66135
  20
59.66063
  30
0.0
  70
0
  0
VERTEX
  8
a
  10
24.75746
  20
59.47325
  30
0.0
  70
0
  0
VERTEX
  8
a
  10
24.8031
  20
59.37897
  30
0.0
  70
0
  0
VERTEX
  8
a
  10
24.84701
  20
59.28428
  30
0.0
  70
0
  0
VERTEX
  8
a
  10
25.63863
  20
59.45254
  30
0.0
  70
0
  0
VERTEX
  8
a
  10
25.64023
  20
59.55691
  30
0.0
  70
0
  0
VERTEX
  8
a
  10
25.64358
  20
59.6616
  30
0.0
  70
0
  0
VERTEX
  8
a
  10
25.65517
  20
59.87187
  30
0.0
  70
0
  0
VERTEX
  8
a
  10
25.69597
  20
60.2955
  30
0.0
  70
0
  0
VERTEX
  8
a
  10
25.75784
  20
60.72255
  30
0.0
  70
0
  0
VERTEX
  8
a
  10
25.83889
  20
61.15241
  30
0.0
  70
0
  0
VERTEX
  8
a
  10
25.93783
  20
61.58458
  30
0.0
  70
0
  0
VERTEX
  8
a
  10
26.05375
  20
62.01864
  30
0.0
  70
0
  0
VERTEX
  8
a
  10
26.62718
  20
62.10946
  30
0.0
  70
0
  0
VERTEX
  8
a
  10
26.87156
  20
61.73247
  30
0.0
  70
0
  0
VERTEX
  8
a
  10
27.09921
  20
61.35203
  30
0.0
  70
0
  0
VERTEX
  8
a
  10
27.30912
  20
60.96825
  30
0.0
  70
0
  0
VERTEX
  8
a
  10
27.49994
  20
60.58122
  30
0.0
  70
0
  0
VERTEX
  8
a
  10
27.66965
  20
60.19093
  30
0.0
  70
0
  0
VERTEX
  8
a
  10
27.74564
  20
59.99453
  30
0.0
  70
0
  0
VERTEX
  8
a
  10
27.78118
  20
59.896
  30
0.0
  70
0
  0
VERTEX
  8
a
  10
27.81495
  20
59.79724
  30
0.0
  70
0
  0
VERTEX
  8
a
  10
28.61982
  20
59.88184
  30
0.0
  70
0
  0
VERTEX
  8
a
  10
28.63232
  20
59.98546
  30
0.0
  70
0
  0
VERTEX
  8
a
  10
28.6466
  20
60.08923
  30
0.0
  70
0
  0
VERTEX
  8
a
  10
28.6801
  20
60.29714
  30
0.0
  70
0
  0
VERTEX
  8
a
  10
28.76496
  20
60.71418
  30
0.0
  70
0
  0
VERTEX
  8
a
  10
28.87113
  20
61.13243
  30
0.0
  70
0
  0
VERTEX
  8
a
  10
28.99667
  20
61.55146
  30
0.0
  70
0
  0
VERTEX
  8
a
  10
29.14025
  20
61.97092
  30
0.0
  70
0
  0
VERTEX
  8
a
  10
29.3009
  20
62.39048
  30
0.0
  70
0
  0
VERTEX
  8
a
  10
29.88068
  20
62.42087
  30
0.0
  70
0
  0
VERTEX
  8
a
  10
30.08432
  20
62.0204
  30
0.0
  70
0
  0
VERTEX
  8
a
  10
30.27095
  20
61.61824
  30
0.0
  70
0
  0
VERTEX
  8
a
  10
30.4396
  20
61.21463
  30
0.0
  70
0
  0
VERTEX
  8
a
  10
30.58891
  20
60.80977
  30
0.0
  70
0
  0
VERTEX
  8
a
  10
30.7169
  20
60.40388
  30
0.0
  70
0
  0
VERTEX
  8
a
  10
30.77195
  20
60.20061
  30
0.0
  70
0
  0
VERTEX
  8
a
  10
30.79699
  20
60.0989
  30
0.0
  70
0
  0
VERTEX
  8
a
  10
30.82025
  20
59.99715
  30
0.0
  70
0
  0
VERTEX
  8
a
  10
31.62956
  20
59.99715
  30
0.0
  70
0
  0
VERTEX
  8
a
  10
31.65282
  20
60.0989
  30
0.0
  70
0
  0
VERTEX
  8
a
  10
31.67787
  20
60.20061
  30
0.0
  70
0
  0
VERTEX
  8
a
  10
31.73292
  20
60.40388
  30
0.0
  70
0
  0
VERTEX
  8
a
  10
31.8609
  20
60.80977
  30
0.0
  70
0
  0
VERTEX
  8
a
  10
32.01022
  20
61.21463
  30
0.0
  70
0
  0
VERTEX
  8
a
  10
32.17886
  20
61.61824
  30
0.0
  70
0
  0
VERTEX
  8
a
  10
32.3655
  20
62.0204
  30
0.0
  70
0
  0
VERTEX
  8
a
  10
32.56913
  20
62.42087
  30
0.0
  70
0
  0
VERTEX
  8
a
  10
33.14891
  20
62.39048
  30
0.0
  70
0
  0
VERTEX
  8
a
  10
33.30957
  20
61.97092
  30
0.0
  70
0
  0
VERTEX
  8
a
  10
33.45314
  20
61.55146
  30
0.0
  70
0
  0
VERTEX
  8
a
  10
33.57868
  20
61.13243
  30
0.0
  70
0
  0
VERTEX
  8
a
  10
33.68486
  20
60.71418
  30
0.0
  70
0
  0
VERTEX
  8
a
  10
33.76971
  20
60.29714
  30
0.0
  70
0
  0
VERTEX
  8
a
  10
33.80322
  20
60.08923
  30
0.0
  70
0
  0
VERTEX
  8
a
  10
33.81749
  20
59.98546
  30
0.0
  70
0
  0
VERTEX
  8
a
  10
33.82999
  20
59.88184
  30
0.0
  70
0
  0
VERTEX
  8
a
  10
34.63486
  20
59.79724
  30
0.0
  70
0
  0
VERTEX
  8
a
  10
34.66863
  20
59.896
  30
0.0
  70
0
  0
VERTEX
  8
a
  10
34.70417
  20
59.99453
  30
0.0
  70
0
  0
VERTEX
  8
a
  10
34.78017
  20
60.19093
  30
0.0
  70
0
  0
VERTEX
  8
a
  10
34.94988
  20
60.58122
  30
0.0
  70
0
  0
VERTEX
  8
a
  10
35.14069
  20
60.96825
  30
0.0
  70
0
  0
VERTEX
  8
a
  10
35.35061
  20
61.35203
  30
0.0
  70
0
  0
VERTEX
  8
a
  10
35.57826
  20
61.73247
  30
0.0
  70
0
  0
VERTEX
  8
a
  10
35.82263
  20
62.10946
  30
0.0
  70
0
  0
VERTEX
  8
a
  10
36.39606
  20
62.01864
  30
0.0
  70
0
  0
VERTEX
  8
a
  10
36.51198
  20
61.58458
  30
0.0
  70
0
  0
VERTEX
  8
a
  10
36.61092
  20
61.15241
  30
0.0
  70
0
  0
VERTEX
  8
a
  10
36.69197
  20
60.72255
  30
0.0
  70
0
  0
VERTEX
  8
a
  10
36.75385
  20
60.2955
  30
0.0
  70
0
  0
VERTEX
  8
a
  10
36.79465
  20
59.87187
  30
0.0
  70
0
  0
VERTEX
  8
a
  10
36.80623
  20
59.6616
  30
0.0
  70
0
  0
VERTEX
  8
a
  10
36.80959
  20
59.55691
  30
0.0
  70
0
  0
VERTEX
  8
a
  10
36.81118
  20
59.45254
  30
0.0
  70
0
  0
VERTEX
  8
a
  10
37.6028
  20
59.28428
  30
0.0
  70
0
  0
VERTEX
  8
a
  10
37.64671
  20
59.37897
  30
0.0
  70
0
  0
VERTEX
  8
a
  10
37.69235
  20
59.47325
  30
0.0
  70
0
  0
VERTEX
  8
a
  10
37.78847
  20
59.66063
  30
0.0
  70
0
  0
VERTEX
  8
a
  10
37.99804
  20
60.03104
  30
0.0
  70
0
  0
VERTEX
  8
a
  10
38.22827
  20
60.396
  30
0.0
  70
0
  0
VERTEX
  8
a
  10
38.47715
  20
60.75574
  30
0.0
  70
0
  0
VERTEX
  8
a
  10
38.74332
  20
61.1103
  30
0.0
  70
0
  0
VERTEX
  8
a
  10
39.02576
  20
61.45968
  30
0.0
  70
0
  0
VERTEX
  8
a
  10
39.58656
  20
61.30941
  30
0.0
  70
0
  0
VERTEX
  8
a
  10
39.65647
  20
60.86562
  30
0.0
  70
0
  0
VERTEX
  8
a
  10
39.7097
  20
60.42548
  30
0.0
  70
0
  0
VERTEX
  8
a
  10
39.74537
  20
59.9895
  30
0.0
  70
0
  0
VERTEX
  8
a
  10
39.76226
  20
59.55832
  30
0.0
  70
0
  0
VERTEX
  8
a
  10
39.75856
  20
59.13274
  30
0.0
  70
0
  0
VERTEX
  8
a
  10
39.7481
  20
58.92241
  30
0.0
  70
0
  0
VERTEX
  8
a
  10
39.74049
  20
58.81794
  30
0.0
  70
0
  0
VERTEX
  8
a
  10
39.73117
  20
58.71399
  30
0.0
  70
0
  0
VERTEX
  8
a
  10
40.50087
  20
58.4639
  30
0.0
  70
0
  0
VERTEX
  8
a
  10
40.55443
  20
58.55348
  30
0.0
  70
0
  0
VERTEX
  8
a
  10
40.60968
  20
58.64247
  30
0.0
  70
0
  0
VERTEX
  8
a
  10
40.72485
  20
58.81878
  30
0.0
  70
0
  0
VERTEX
  8
a
  10
40.972
  20
59.16525
  30
0.0
  70
0
  0
VERTEX
  8
a
  10
41.23911
  20
59.50415
  30
0.0
  70
0
  0
VERTEX
  8
a
  10
41.52423
  20
59.8359
  30
0.0
  70
0
  0
VERTEX
  8
a
  10
41.826
  20
60.1607
  30
0.0
  70
0
  0
VERTEX
  8
a
  10
42.14342
  20
60.47864
  30
0.0
  70
0
  0
VERTEX
  8
a
  10
42.68544
  20
60.27058
  30
0.0
  70
0
  0
VERTEX
  8
a
  10
42.70858
  20
59.82191
  30
0.0
  70
0
  0
VERTEX
  8
a
  10
42.71551
  20
59.37861
  30
0.0
  70
0
  0
VERTEX
  8
a
  10
42.70541
  20
58.94129
  30
0.0
  70
0
  0
VERTEX
  8
a
  10
42.67714
  20
58.51071
  30
0.0
  70
0
  0
VERTEX
  8
a
  10
42.62897
  20
58.08785
  30
0.0
  70
0
  0
VERTEX
  8
a
  10
42.59659
  20
57.87976
  30
0.0
  70
0
  0
VERTEX
  8
a
  10
42.5781
  20
57.77666
  30
0.0
  70
0
  0
VERTEX
  8
a
  10
42.55797
  20
57.67425
  30
0.0
  70
0
  0
VERTEX
  8
a
  10
43.2973
  20
57.34508
  30
0.0
  70
0
  0
VERTEX
  8
a
  10
43.35994
  20
57.42857
  30
0.0
  70
0
  0
VERTEX
  8
a
  10
43.42419
  20
57.51129
  30
0.0
  70
0
  0
VERTEX
  8
a
  10
43.55716
  20
57.6746
  30
0.0
  70
0
  0
VERTEX
  8
a
  10
43.83917
  20
57.99334
  30
0.0
  70
0
  0
VERTEX
  8
a
  10
44.14024
  20
58.30247
  30
0.0
  70
0
  0
VERTEX
  8
a
  10
44.45847
  20
58.60259
  30
0.0
  70
0
  0
VERTEX
  8
a
  10
44.79254
  20
58.89407
  30
0.0
  70
0
  0
VERTEX
  8
a
  10
45.14145
  20
59.17709
  30
0.0
  70
0
  0
VERTEX
  8
a
  10
45.65876
  20
58.91351
  30
0.0
  70
0
  0
VERTEX
  8
a
  10
45.63487
  20
58.46488
  30
0.0
  70
0
  0
VERTEX
  8
a
  10
45.59542
  20
58.02329
  30
0.0
  70
0
  0
VERTEX
  8
a
  10
45.53967
  20
57.58942
  30
0.0
  70
0
  0
VERTEX
  8
a
  10
45.46655
  20
57.16415
  30
0.0
  70
0
  0
VERTEX
  8
a
  10
45.37444
  20
56.74864
  30
0.0
  70
0
  0
VERTEX
  8
a
  10
45.32049
  20
56.54508
  30
0.0
  70
0
  0
VERTEX
  8
a
  10
45.29132
  20
56.44448
  30
0.0
  70
0
  0
VERTEX
  8
a
  10
45.26059
  20
56.34473
  30
0.0
  70
0
  0
VERTEX
  8
a
  10
45.96147
  20
55.94008
  30
0.0
  70
0
  0
VERTEX
  8
a
  10
46.03249
  20
56.01657
  30
0.0
  70
0
  0
VERTEX
  8
a
  10
46.10503
  20
56.09212
  30
0.0
  70
0
  0
VERTEX
  8
a
  10
46.25434
  20
56.24063
  30
0.0
  70
0
  0
VERTEX
  8
a
  10
46.56813
  20
56.52815
  30
0.0
  70
0
  0
VERTEX
  8
a
  10
46.89986
  20
56.80411
  30
0.0
  70
0
  0
VERTEX
  8
a
  10
47.24773
  20
57.06933
  30
0.0
  70
0
  0
VERTEX
  8
a
  10
47.61043
  20
57.32429
  30
0.0
  70
0
  0
VERTEX
  8
a
  10
47.98702
  20
57.56929
  30
0.0
  70
0
  0
VERTEX
  8
a
  10
48.47393
  20
57.25308
  30
0.0
  70
0
  0
VERTEX
  8
a
  10
48.40328
  20
56.8094
  30
0.0
  70
0
  0
VERTEX
  8
a
  10
48.31789
  20
56.37435
  30
0.0
  70
0
  0
VERTEX
  8
a
  10
48.21709
  20
55.94869
  30
0.0
  70
0
  0
VERTEX
  8
a
  10
48.09992
  20
55.53339
  30
0.0
  70
0
  0
VERTEX
  8
a
  10
47.96489
  20
55.12979
  30
0.0
  70
0
  0
VERTEX
  8
a
  10
47.88995
  20
54.93299
  30
0.0
  70
0
  0
VERTEX
  8
a
  10
47.85043
  20
54.83598
  30
0.0
  70
0
  0
VERTEX
  8
a
  10
47.80944
  20
54.73999
  30
0.0
  70
0
  0
VERTEX
  8
a
  10
48.46418
  20
54.26429
  30
0.0
  70
0
  0
VERTEX
  8
a
  10
48.54281
  20
54.33294
  30
0.0
  70
0
  0
VERTEX
  8
a
  10
48.62285
  20
54.4005
  30
0.0
  70
0
  0
VERTEX
  8
a
  10
48.78687
  20
54.53259
  30
0.0
  70
0
  0
VERTEX
  8
a
  10
49.12898
  20
54.78573
  30
0.0
  70
0
  0
VERTEX
  8
a
  10
49.48775
  20
55.02551
  30
0.0
  70
0
  0
VERTEX
  8
a
  10
49.86143
  20
55.25291
  30
0.0
  70
0
  0
VERTEX
  8
a
  10
50.2488
  20
55.46856
  30
0.0
  70
0
  0
VERTEX
  8
a
  10
50.64893
  20
55.67285
  30
0.0
  70
0
  0
VERTEX
  8
a
  10
51.10013
  20
55.30748
  30
0.0
  70
0
  0
VERTEX
  8
a
  10
50.98349
  20
54.87362
  30
0.0
  70
0
  0
VERTEX
  8
a
  10
50.85309
  20
54.44988
  30
0.0
  70
0
  0
VERTEX
  8
a
  10
50.70835
  20
54.03709
  30
0.0
  70
0
  0
VERTEX
  8
a
  10
50.54841
  20
53.63631
  30
0.0
  70
0
  0
VERTEX
  8
a
  10
50.37193
  20
53.24904
  30
0.0
  70
0
  0
VERTEX
  8
a
  10
50.27682
  20
53.06114
  30
0.0
  70
0
  0
VERTEX
  8
a
  10
50.22738
  20
52.9688
  30
0.0
  70
0
  0
VERTEX
  8
a
  10
50.17658
  20
52.87762
  30
0.0
  70
0
  0
VERTEX
  8
a
  10
50.77801
  20
52.33609
  30
0.0
  70
0
  0
VERTEX
  8
a
  10
50.86338
  20
52.39614
  30
0.0
  70
0
  0
VERTEX
  8
a
  10
50.95005
  20
52.45496
  30
0.0
  70
0
  0
VERTEX
  8
a
  10
51.12698
  20
52.56918
  30
0.0
  70
0
  0
VERTEX
  8
a
  10
51.49368
  20
52.78518
  30
0.0
  70
0
  0
VERTEX
  8
a
  10
51.87554
  20
52.98614
  30
0.0
  70
0
  0
VERTEX
  8
a
  10
52.27095
  20
53.17323
  30
0.0
  70
0
  0
VERTEX
  8
a
  10
52.67874
  20
53.34721
  30
0.0
  70
0
  0
VERTEX
  8
a
  10
53.09803
  20
53.50856
  30
0.0
  70
0
  0
VERTEX
  8
a
  10
53.50856
  20
53.09803
  30
0.0
  70
0
  0
VERTEX
  8
a
  10
53.34721
  20
52.67874
  30
0.0
  70
0
  0
VERTEX
  8
a
  10
53.17323
  20
52.27095
  30
0.0
  70
0
  0
VERTEX
  8
a
  10
52.98614
  20
51.87554
  30
0.0
  70
0
  0
VERTEX
  8
a
  10
52.78518
  20
51.49368
  30
0.0
  70
0
  0
VERTEX
  8
a
  10
52.56918
  20
51.12698
  30
0.0
  70
0
  0
VERTEX
  8
a
  10
52.45496
  20
50.95005
  30
0.0
  70
0
  0
VERTEX
  8
a
  10
52.39614
  20
50.86338
  30
0.0
  70
0
  0
VERTEX
  8
a
  10
52.33609
  20
50.77801
  30
0.0
  70
0
  0
VERTEX
  8
a
  10
52.87762
  20
50.17658
  30
0.0
  70
0
  0
VERTEX
  8
a
  10
52.9688
  20
50.22738
  30
0.0
  70
0
  0
VERTEX
  8
a
  10
53.06114
  20
50.27682
  30
0.0
  70
0
  0
VERTEX
  8
a
  10
53.24904
  20
50.37193
  30
0.0
  70
0
  0
VERTEX
  8
a
  10
53.63631
  20
50.54841
  30
0.0
  70
0
  0
VERTEX
  8
a
  10
54.03709
  20
50.70835
  30
0.0
  70
0
  0
VERTEX
  8
a
  10
54.44988
  20
50.85309
  30
0.0
  70
0
  0
VERTEX
  8
a
  10
54.87362
  20
50.98349
  30
0.0
  70
0
  0
VERTEX
  8
a
  10
55.30748
  20
51.10013
  30
0.0
  70
0
  0
VERTEX
  8
a
  10
55.67285
  20
50.64893
  30
0.0
  70
0
  0
VERTEX
  8
a
  10
55.46856
  20
50.2488
  30
0.0
  70
0
  0
VERTEX
  8
a
  10
55.25291
  20
49.86143
  30
0.0
  70
0
  0
VERTEX
  8
a
  10
55.02551
  20
49.48775
  30
0.0
  70
0
  0
VERTEX
  8
a
  10
54.78573
  20
49.12898
  30
0.0
  70
0
  0
VERTEX
  8
a
  10
54.53259
  20
48.78687
  30
0.0
  70
0
  0
VERTEX
  8
a
  10
54.4005
  20
48.62285
  30
0.0
  70
0
  0
VERTEX
  8
a
  10
54.33294
  20
48.54281
  30
0.0
  70
0
  0
VERTEX
  8
a
  10
54.26429
  20
48.46418
  30
0.0
  70
0
  0
VERTEX
  8
a
  10
54.73999
  20
47.80944
  30
0.0
  70
0
  0
VERTEX
  8
a
  10
54.83598
  20
47.85043
  30
0.0
  70
0
  0
VERTEX
  8
a
  10
54.93299
  20
47.88995
  30
0.0
  70
0
  0
VERTEX
  8
a
  10
55.12979
  20
47.96489
  30
0.0
  70
0
  0
VERTEX
  8
a
  10
55.53339
  20
48.09992
  30
0.0
  70
0
  0
VERTEX
  8
a
  10
55.94869
  20
48.21709
  30
0.0
  70
0
  0
VERTEX
  8
a
  10
56.37435
  20
48.31789
  30
0.0
  70
0
  0
VERTEX
  8
a
  10
56.8094
  20
48.40328
  30
0.0
  70
0
  0
VERTEX
  8
a
  10
57.25308
  20
48.47393
  30
0.0
  70
0
  0
VERTEX
  8
a
  10
57.56929
  20
47.98702
  30
0.0
  70
0
  0
VERTEX
  8
a
  10
57.32429
  20
47.61043
  30
0.0
  70
0
  0
VERTEX
  8
a
  10
57.06933
  20
47.24773
  30
0.0
  70
0
  0
VERTEX
  8
a
  10
56.80411
  20
46.89986
  30
0.0
  70
0
  0
VERTEX
  8
a
  10
56.52815
  20
46.56813
  30
0.0
  70
0
  0
VERTEX
  8
a
  10
56.24063
  20
46.25434
  30
0.0
  70
0
  0
VERTEX
  8
a
  10
56.09212
  20
46.10503
  30
0.0
  70
0
  0
VERTEX
  8
a
  10
56.01657
  20
46.03249
  30
0.0
  70
0
  0
VERTEX
  8
a
  10
55.94008
  20
45.96147
  30
0.0
  70
0
  0
VERTEX
  8
a
  10
56.34473
  20
45.26059
  30
0.0
  70
0
  0
VERTEX
  8
a
  10
56.44448
  20
45.29132
  30
0.0
  70
0
  0
VERTEX
  8
a
  10
56.54508
  20
45.32049
  30
0.0
  70
0
  0
VERTEX
  8
a
  10
56.74864
  20
45.37444
  30
0.0
  70
0
  0
VERTEX
  8
a
  10
57.16415
  20
45.46655
  30
0.0
  70
0
  0
VERTEX
  8
a
  10
57.58942
  20
45.53967
  30
0.0
  70
0
  0
VERTEX
  8
a
  10
58.02329
  20
45.59542
  30
0.0
  70
0
  0
VERTEX
  8
a
  10
58.46488
  20
45.63487
  30
0.0
  70
0
  0
VERTEX
  8
a
  10
58.91351
  20
45.65876
  30
0.0
  70
0
  0
VERTEX
  8
a
  10
59.17709
  20
45.14145
  30
0.0
  70
0
  0
VERTEX
  8
a
  10
58.89407
  20
44.79254
  30
0.0
  70
0
  0
VERTEX
  8
a
  10
58.60259
  20
44.45847
  30
0.0
  70
0
  0
VERTEX
  8
a
  10
58.30247
  20
44.14024
  30
0.0
  70
0
  0
VERTEX
  8
a
  10
57.99334
  20
43.83917
  30
0.0
  70
0
  0
VERTEX
  8
a
  10
57.6746
  20
43.55716
  30
0.0
  70
0
  0
VERTEX
  8
a
  10
57.51129
  20
43.42419
  30
0.0
  70
0
  0
VERTEX
  8
a
  10
57.42857
  20
43.35994
  30
0.0
  70
0
  0
VERTEX
  8
a
  10
57.34508
  20
43.2973
  30
0.0
  70
0
  0
VERTEX
  8
a
  10
57.67425
  20
42.55797
  30
0.0
  70
0
  0
VERTEX
  8
a
  10
57.77666
  20
42.5781
  30
0.0
  70
0
  0
VERTEX
  8
a
  10
57.87976
  20
42.59659
  30
0.0
  70
0
  0
VERTEX
  8
a
  10
58.08785
  20
42.62897
  30
0.0
  70
0
  0
VERTEX
  8
a
  10
58.51071
  20
42.67714
  30
0.0
  70
0
  0
VERTEX
  8
a
  10
58.94129
  20
42.70541
  30
0.0
  70
0
  0
VERTEX
  8
a
  10
59.37861
  20
42.71551
  30
0.0
  70
0
  0
VERTEX
  8
a
  10
59.82191
  20
42.70858
  30
0.0
  70
0
  0
VERTEX
  8
a
  10
60.27058
  20
42.68544
  30
0.0
  70
0
  0
VERTEX
  8
a
  10
60.47864
  20
42.14342
  30
0.0
  70
0
  0
VERTEX
  8
a
  10
60.1607
  20
41.826
  30
0.0
  70
0
  0
VERTEX
  8
a
  10
59.8359
  20
41.52423
  30
0.0
  70
0
  0
VERTEX
  8
a
  10
59.50415
  20
41.23911
  30
0.0
  70
0
  0
VERTEX
  8
a
  10
59.16525
  20
40.972
  30
0.0
  70
0
  0
VERTEX
  8
a
  10
58.81878
  20
40.72485
  30
0.0
  70
0
  0
VERTEX
  8
a
  10
58.64247
  20
40.60968
  30
0.0
  70
0
  0
VERTEX
  8
a
  10
58.55348
  20
40.55443
  30
0.0
  70
0
  0
VERTEX
  8
a
  10
58.4639
  20
40.50087
  30
0.0
  70
0
  0
VERTEX
  8
a
  10
58.71399
  20
39.73117
  30
0.0
  70
0
  0
VERTEX
  8
a
  10
58.81794
  20
39.74049
  30
0.0
  70
0
  0
VERTEX
  8
a
  10
58.92241
  20
39.7481
  30
0.0
  70
0
  0
VERTEX
  8
a
  10
59.13274
  20
39.75856
  30
0.0
  70
0
  0
VERTEX
  8
a
  10
59.55832
  20
39.76226
  30
0.0
  70
0
  0
VERTEX
  8
a
  10
59.9895
  20
39.74537
  30
0.0
  70
0
  0
VERTEX
  8
a
  10
60.42548
  20
39.7097
  30
0.0
  70
0
  0
VERTEX
  8
a
  10
60.86562
  20
39.65647
  30
0.0
  70
0
  0
VERTEX
  8
a
  10
61.30941
  20
39.58656
  30
0.0
  70
0
  0
VERTEX
  8
a
  10
61.45968
  20
39.02576
  30
0.0
  70
0
  0
VERTEX
  8
a
  10
61.1103
  20
38.74332
  30
0.0
  70
0
  0
VERTEX
  8
a
  10
60.75574
  20
38.47715
  30
0.0
  70
0
  0
VERTEX
  8
a
  10
60.396
  20
38.22827
  30
0.0
  70
0
  0
VERTEX
  8
a
  10
60.03104
  20
37.99804
  30
0.0
  70
0
  0
VERTEX
  8
a
  10
59.66063
  20
37.78847
  30
0.0
  70
0
  0
VERTEX
  8
a
  10
59.47325
  20
37.69235
  30
0.0
  70
0
  0
VERTEX
  8
a
  10
59.37897
  20
37.64671
  30
0.0
  70
0
  0
VERTEX
  8
a
  10
59.28428
  20
37.6028
  30
0.0
  70
0
  0
VERTEX
  8
a
  10
59.45254
  20
36.81118
  30
0.0
  70
0
  0
VERTEX
  8
a
  10
59.55691
  20
36.80959
  30
0.0
  70
0
  0
VERTEX
  8
a
  10
59.6616
  20
36.80623
  30
0.0
  70
0
  0
VERTEX
  8
a
  10
59.87187
  20
36.79465
  30
0.0
  70
0
  0
VERTEX
  8
a
  10
60.2955
  20
36.75385
  30
0.0
  70
0
  0
VERTEX
  8
a
  10
60.72255
  20
36.69197
  30
0.0
  70
0
  0
VERTEX
  8
a
  10
61.15241
  20
36.61092
  30
0.0
  70
0
  0
VERTEX
  8
a
  10
61.58458
  20
36.51198
  30
0.0
  70
0
  0
VERTEX
  8
a
  10
62.01864
  20
36.39606
  30
0.0
  70
0
  0
VERTEX
  8
a
  10
62.10946
  20
35.82263
  30
0.0
  70
0
  0
VERTEX
  8
a
  10
61.73247
  20
35.57826
  30
0.0
  70
0
  0
VERTEX
  8
a
  10
61.35203
  20
35.35061
  30
0.0
  70
0
  0
VERTEX
  8
a
  10
60.96825
  20
35.14069
  30
0.0
  70
0
  0
VERTEX
  8
a
  10
60.58122
  20
34.94988
  30
0.0
  70
0
  0
VERTEX
  8
a
  10
60.19093
  20
34.78017
  30
0.0
  70
0
  0
VERTEX
  8
a
  10
59.99453
  20
34.70417
  30
0.0
  70
0
  0
VERTEX
  8
a
  10
59.896
  20
34.66863
  30
0.0
  70
0
  0
VERTEX
  8
a
  10
59.79724
  20
34.63486
  30
0.0
  70
0
  0
VERTEX
  8
a
  10
59.88184
  20
33.82999
  30
0.0
  70
0
  0
VERTEX
  8
a
  10
59.98546
  20
33.81749
  30
0.0
  70
0
  0
VERTEX
  8
a
  10
60.08923
  20
33.80322
  30
0.0
  70
0
  0
VERTEX
  8
a
  10
60.29714
  20
33.76971
  30
0.0
  70
0
  0
VERTEX
  8
a
  10
60.71418
  20
33.68486
  30
0.0
  70
0
  0
VERTEX
  8
a
  10
61.13243
  20
33.57868
  30
0.0
  70
0
  0
VERTEX
  8
a
  10
61.55146
  20
33.45314
  30
0.0
  70
0
  0
VERTEX
  8
a
  10
61.97092
  20
33.30957
  30
0.0
  70
0
  0
VERTEX
  8
a
  10
62.39048
  20
33.14891
  30
0.0
  70
0
  0
VERTEX
  8
a
  10
62.42087
  20
32.56913
  30
0.0
  70
0
  0
VERTEX
  8
a
  10
62.0204
  20
32.3655
  30
0.0
  70
0
  0
VERTEX
  8
a
  10
61.61824
  20
32.17886
  30
0.0
  70
0
  0
VERTEX
  8
a
  10
61.21463
  20
32.01022
  30
0.0
  70
0
  0
VERTEX
  8
a
  10
60.80977
  20
31.8609
  30
0.0
  70
0
  0
VERTEX
  8
a
  10
60.40388
  20
31.73292
  30
0.0
  70
0
  0
VERTEX
  8
a
  10
60.20061
  20
31.67787
  30
0.0
  70
0
  0
VERTEX
  8
a
  10
60.0989
  20
31.65282
  30
0.0
  70
0
  0
VERTEX
  8
a
  10
59.99715
  20
31.62956
  30
0.0
  70
0
  0
VERTEX
  8
a
  10
59.99715
  20
30.82025
  30
0.0
  70
0
  0
VERTEX
  8
a
  10
60.0989
  20
30.79699
  30
0.0
  70
0
  0
VERTEX
  8
a
  10
60.20061
  20
30.77195
  30
0.0
  70
0
  0
VERTEX
  8
a
  10
60.40388
  20
30.7169
  30
0.0
  70
0
  0
VERTEX
  8
a
  10
60.80977
  20
30.58891
  30
0.0
  70
0
  0
VERTEX
  8
a
  10
61.21463
  20
30.4396
  30
0.0
  70
0
  0
VERTEX
  8
a
  10
61.61824
  20
30.27095
  30
0.0
  70
0
  0
VERTEX
  8
a
  10
62.0204
  20
30.08432
  30
0.0
  70
0
  0
VERTEX
  8
a
  10
62.42087
  20
29.88068
  30
0.0
  70
0
  0
VERTEX
  8
a
  10
62.39048
  20
29.3009
  30
0.0
  70
0
  0
VERTEX
  8
a
  10
61.97092
  20
29.14025
  30
0.0
  70
0
  0
VERTEX
  8
a
  10
61.55146
  20
28.99667
  30
0.0
  70
0
  0
VERTEX
  8
a
  10
61.13243
  20
28.87113
  30
0.0
  70
0
  0
VERTEX
  8
a
  10
60.71418
  20
28.76496
  30
0.0
  70
0
  0
VERTEX
  8
a
  10
60.29714
  20
28.6801
  30
0.0
  70
0
  0
VERTEX
  8
a
  10
60.08923
  20
28.6466
  30
0.0
  70
0
  0
VERTEX
  8
a
  10
59.98546
  20
28.63232
  30
0.0
  70
0
  0
VERTEX
  8
a
  10
59.88184
  20
28.61982
  30
0.0
  70
0
  0
VERTEX
  8
a
  10
59.79724
  20
27.81495
  30
0.0
  70
0
  0
VERTEX
  8
a
  10
59.896
  20
27.78118
  30
0.0
  70
0
  0
VERTEX
  8
a
  10
59.99453
  20
27.74564
  30
0.0
  70
0
  0
VERTEX
  8
a
  10
60.19093
  20
27.66965
  30
0.0
  70
0
  0
VERTEX
  8
a
  10
60.58122
  20
27.49994
  30
0.0
  70
0
  0
VERTEX
  8
a
  10
60.96825
  20
27.30912
  30
0.0
  70
0
  0
VERTEX
  8
a
  10
61.35203
  20
27.09921
  30
0.0
  70
0
  0
VERTEX
  8
a
  10
61.73247
  20
26.87156
  30
0.0
  70
0
  0
VERTEX
  8
a
  10
62.10946
  20
26.62718
  30
0.0
  70
0
  0
VERTEX
  8
a
  10
62.01864
  20
26.05375
  30
0.0
  70
0
  0
VERTEX
  8
a
  10
61.58458
  20
25.93783
  30
0.0
  70
0
  0
VERTEX
  8
a
  10
61.15241
  20
25.83889
  30
0.0
  70
0
  0
VERTEX
  8
a
  10
60.72255
  20
25.75784
  30
0.0
  70
0
  0
VERTEX
  8
a
  10
60.2955
  20
25.69597
  30
0.0
  70
0
  0
VERTEX
  8
a
  10
59.87187
  20
25.65517
  30
0.0
  70
0
  0
VERTEX
  8
a
  10
59.6616
  20
25.64358
  30
0.0
  70
0
  0
VERTEX
  8
a
  10
59.55691
  20
25.64023
  30
0.0
  70
0
  0
VERTEX
  8
a
  10
59.45254
  20
25.63863
  30
0.0
  70
0
  0
VERTEX
  8
a
  10
59.28428
  20
24.84701
  30
0.0
  70
0
  0
VERTEX
  8
a
  10
59.37897
  20
24.8031
  30
0.0
  70
0
  0
VERTEX
  8
a
  10
59.47325
  20
24.75746
  30
0.0
  70
0
  0
VERTEX
  8
a
  10
59.66063
  20
24.66135
  30
0.0
  70
0
  0
VERTEX
  8
a
  10
60.03104
  20
24.45177
  30
0.0
  70
0
  0
VERTEX
  8
a
  10
60.396
  20
24.22155
  30
0.0
  70
0
  0
VERTEX
  8
a
  10
60.75574
  20
23.97267
  30
0.0
  70
0
  0
VERTEX
  8
a
  10
61.1103
  20
23.7065
  30
0.0
  70
0
  0
VERTEX
  8
a
  10
61.45968
  20
23.42405
  30
0.0
  70
0
  0
VERTEX
  8
a
  10
61.30941
  20
22.86326
  30
0.0
  70
0
  0
VERTEX
  8
a
  10
60.86562
  20
22.79334
  30
0.0
  70
0
  0
VERTEX
  8
a
  10
60.42548
  20
22.74012
  30
0.0
  70
0
  0
VERTEX
  8
a
  10
59.9895
  20
22.70445
  30
0.0
  70
0
  0
VERTEX
  8
a
  10
59.55832
  20
22.68755
  30
0.0
  70
0
  0
VERTEX
  8
a
  10
59.13274
  20
22.69126
  30
0.0
  70
0
  0
VERTEX
  8
a
  10
58.92241
  20
22.70171
  30
0.0
  70
0
  0
VERTEX
  8
a
  10
58.81794
  20
22.70932
  30
0.0
  70
0
  0
VERTEX
  8
a
  10
58.71399
  20
22.71864
  30
0.0
  70
0
  0
VERTEX
  8
a
  10
58.4639
  20
21.94895
  30
0.0
  70
0
  0
VERTEX
  8
a
  10
58.55348
  20
21.89538
  30
0.0
  70
0
  0
VERTEX
  8
a
  10
58.64247
  20
21.84013
  30
0.0
  70
0
  0
VERTEX
  8
a
  10
58.81878
  20
21.72496
  30
0.0
  70
0
  0
VERTEX
  8
a
  10
59.16525
  20
21.47781
  30
0.0
  70
0
  0
VERTEX
  8
a
  10
59.50415
  20
21.2107
  30
0.0
  70
0
  0
VERTEX
  8
a
  10
59.8359
  20
20.92558
  30
0.0
  70
0
  0
VERTEX
  8
a
  10
60.1607
  20
20.62381
  30
0.0
  70
0
  0
VERTEX
  8
a
  10
60.47864
  20
20.30639
  30
0.0
  70
0
  0
VERTEX
  8
a
  10
60.27058
  20
19.76438
  30
0.0
  70
0
  0
VERTEX
  8
a
  10
59.82191
  20
19.74124
  30
0.0
  70
0
  0
VERTEX
  8
a
  10
59.37861
  20
19.73431
  30
0.0
  70
0
  0
VERTEX
  8
a
  10
58.94129
  20
19.7444
  30
0.0
  70
0
  0
VERTEX
  8
a
  10
58.51071
  20
19.77267
  30
0.0
  70
0
  0
VERTEX
  8
a
  10
58.08785
  20
19.82084
  30
0.0
  70
0
  0
VERTEX
  8
a
  10
57.87976
  20
19.85322
  30
0.0
  70
0
  0
VERTEX
  8
a
  10
57.77666
  20
19.87171
  30
0.0
  70
0
  0
VERTEX
  8
a
  10
57.67425
  20
19.89185
  30
0.0
  70
0
  0
VERTEX
  8
a
  10
57.34508
  20
19.15251
  30
0.0
  70
0
  0
VERTEX
  8
a
  10
57.42857
  20
19.08988
  30
0.0
  70
0
  0
VERTEX
  8
a
  10
57.51129
  20
19.02563
  30
0.0
  70
0
  0
VERTEX
  8
a
  10
57.6746
  20
18.89266
  30
0.0
  70
0
  0
VERTEX
  8
a
  10
57.99334
  20
18.61065
  30
0.0
  70
0
  0
VERTEX
  8
a
  10
58.30247
  20
18.30957
  30
0.0
  70
0
  0
VERTEX
  8
a
  10
58.60259
  20
17.99134
  30
0.0
  70
0
  0
VERTEX
  8
a
  10
58.89407
  20
17.65727
  30
0.0
  70
0
  0
VERTEX
  8
a
  10
59.17709
  20
17.30836
  30
0.0
  70
0
  0
VERTEX
  8
a
  10
58.91351
  20
16.79106
  30
0.0
  70
0
  0
VERTEX
  8
a
  10
58.46488
  20
16.81494
  30
0.0
  70
0
  0
VERTEX
  8
a
  10
58.02329
  20
16.85439
  30
0.0
  70
0
  0
VERTEX
  8
a
  10
57.58942
  20
16.91014
  30
0.0
  70
0
  0
VERTEX
  8
a
  10
57.16415
  20
16.98326
  30
0.0
  70
0
  0
VERTEX
  8
a
  10
56.74864
  20
17.07537
  30
0.0
  70
0
  0
VERTEX
  8
a
  10
56.54508
  20
17.12933
  30
0.0
  70
0
  0
VERTEX
  8
a
  10
56.44448
  20
17.15849
  30
0.0
  70
0
  0
VERTEX
  8
a
  10
56.34473
  20
17.18922
  30
0.0
  70
0
  0
VERTEX
  8
a
  10
55.94008
  20
16.48834
  30
0.0
  70
0
  0
VERTEX
  8
a
  10
56.01657
  20
16.41733
  30
0.0
  70
0
  0
VERTEX
  8
a
  10
56.09212
  20
16.34478
  30
0.0
  70
0
  0
VERTEX
  8
a
  10
56.24063
  20
16.19547
  30
0.0
  70
0
  0
VERTEX
  8
a
  10
56.52815
  20
15.88169
  30
0.0
  70
0
  0
VERTEX
  8
a
  10
56.80411
  20
15.54995
  30
0.0
  70
0
  0
VERTEX
  8
a
  10
57.06933
  20
15.20209
  30
0.0
  70
0
  0
VERTEX
  8
a
  10
57.32429
  20
14.83938
  30
0.0
  70
0
  0
VERTEX
  8
a
  10
57.56929
  20
14.4628
  30
0.0
  70
0
  0
VERTEX
  8
a
  10
57.25308
  20
13.97588
  30
0.0
  70
0
  0
VERTEX
  8
a
  10
56.8094
  20
14.04653
  30
0.0
  70
0
  0
VERTEX
  8
a
  10
56.37435
  20
14.13192
  30
0.0
  70
0
  0
VERTEX
  8
a
  10
55.94869
  20
14.23272
  30
0.0
  70
0
  0
VERTEX
  8
a
  10
55.53339
  20
14.34989
  30
0.0
  70
0
  0
VERTEX
  8
a
  10
55.12979
  20
14.48493
  30
0.0
  70
0
  0
VERTEX
  8
a
  10
54.93299
  20
14.55987
  30
0.0
  70
0
  0
VERTEX
  8
a
  10
54.83598
  20
14.59939
  30
0.0
  70
0
  0
VERTEX
  8
a
  10
54.73999
  20
14.64038
  30
0.0
  70
0
  0
VERTEX
  8
a
  10
54.26429
  20
13.98563
  30
0.0
  70
0
  0
VERTEX
  8
a
  10
54.33294
  20
13.90701
  30
0.0
  70
0
  0
VERTEX
  8
a
  10
54.4005
  20
13.82696
  30
0.0
  70
0
  0
VERTEX
  8
a
  10
54.53259
  20
13.66295
  30
0.0
  70
0
  0
VERTEX
  8
a
  10
54.78573
  20
13.32083
  30
0.0
  70
0
  0
VERTEX
  8
a
  10
55.02551
  20
12.96206
  30
0.0
  70
0
  0
VERTEX
  8
a
  10
55.25291
  20
12.58838
  30
0.0
  70
0
  0
VERTEX
  8
a
  10
55.46856
  20
12.20101
  30
0.0
  70
0
  0
VERTEX
  8
a
  10
55.67285
  20
11.80088
  30
0.0
  70
0
  0
VERTEX
  8
a
  10
55.30748
  20
11.34969
  30
0.0
  70
0
  0
VERTEX
  8
a
  10
54.87362
  20
11.46633
  30
0.0
  70
0
  0
VERTEX
  8
a
  10
54.44988
  20
11.59673
  30
0.0
  70
0
  0
VERTEX
  8
a
  10
54.03709
  20
11.74147
  30
0.0
  70
0
  0
VERTEX
  8
a
  10
53.63631
  20
11.90141
  30
0.0
  70
0
  0
VERTEX
  8
a
  10
53.24904
  20
12.07789
  30
0.0
  70
0
  0
VERTEX
  8
a
  10
53.06114
  20
12.17299
  30
0.0
  70
0
  0
VERTEX
  8
a
  10
52.9688
  20
12.22243
  30
0.0
  70
0
  0
VERTEX
  8
a
  10
52.87762
  20
12.27323
  30
0.0
  70
0
  0
VERTEX
  8
a
  10
52.33609
  20
11.6718
  30
0.0
  70
0
  0
VERTEX
  8
a
  10
52.39614
  20
11.58643
  30
0.0
  70
0
  0
VERTEX
  8
a
  10
52.45496
  20
11.49976
  30
0.0
  70
0
  0
VERTEX
  8
a
  10
52.56918
  20
11.32284
  30
0.0
  70
0
  0
VERTEX
  8
a
  10
52.78518
  20
10.95613
  30
0.0
  70
0
  0
VERTEX
  8
a
  10
52.98614
  20
10.57427
  30
0.0
  70
0
  0
VERTEX
  8
a
  10
53.17323
  20
10.17887
  30
0.0
  70
0
  0
VERTEX
  8
a
  10
53.34721
  20
9.77108
  30
0.0
  70
0
  0
VERTEX
  8
a
  10
53.50856
  20
9.35178
  30
0.0
  70
0
  0
VERTEX
  8
a
  10
53.09803
  20
8.94125
  30
0.0
  70
0
  0
VERTEX
  8
a
  10
52.67874
  20
9.1026
  30
0.0
  70
0
  0
VERTEX
  8
a
  10
52.27095
  20
9.27658
  30
0.0
  70
0
  0
VERTEX
  8
a
  10
51.87554
  20
9.46368
  30
0.0
  70
0
  0
VERTEX
  8
a
  10
51.49368
  20
9.66463
  30
0.0
  70
0
  0
VERTEX
  8
a
  10
51.12698
  20
9.88063
  30
0.0
  70
0
  0
VERTEX
  8
a
  10
50.95005
  20
9.99485
  30
0.0
  70
0
  0
VERTEX
  8
a
  10
50.86338
  20
10.05367
  30
0.0
  70
0
  0
VERTEX
  8
a
  10
50.77801
  20
10.11373
  30
0.0
  70
0
  0
VERTEX
  8
a
  10
50.17658
  20
9.57219
  30
0.0
  70
0
  0
VERTEX
  8
a
  10
50.22738
  20
9.48102
  30
0.0
  70
0
  0
VERTEX
  8
a
  10
50.27682
  20
9.38867
  30
0.0
  70
0
  0
VERTEX
  8
a
  10
50.37193
  20
9.20078
  30
0.0
  70
0
  0
VERTEX
  8
a
  10
50.54841
  20
8.81351
  30
0.0
  70
0
  0
VERTEX
  8
a
  10
50.70835
  20
8.41273
  30
0.0
  70
0
  0
VERTEX
  8
a
  10
50.85309
  20
7.99993
  30
0.0
  70
0
  0
VERTEX
  8
a
  10
50.98349
  20
7.57619
  30
0.0
  70
0
  0
VERTEX
  8
a
  10
51.10013
  20
7.14233
  30
0.0
  70
0
  0
VERTEX
  8
a
  10
50.64893
  20
6.77696
  30
0.0
  70
0
  0
VERTEX
  8
a
  10
50.2488
  20
6.98126
  30
0.0
  70
0
  0
VERTEX
  8
a
  10
49.86143
  20
7.1969
  30
0.0
  70
0
  0
VERTEX
  8
a
  10
49.48775
  20
7.42431
  30
0.0
  70
0
  0
VERTEX
  8
a
  10
49.12898
  20
7.66408
  30
0.0
  70
0
  0
VERTEX
  8
a
  10
48.78687
  20
7.91722
  30
0.0
  70
0
  0
VERTEX
  8
a
  10
48.62285
  20
8.04931
  30
0.0
  70
0
  0
VERTEX
  8
a
  10
48.54281
  20
8.11687
  30
0.0
  70
0
  0
VERTEX
  8
a
  10
48.46418
  20
8.18552
  30
0.0
  70
0
  0
VERTEX
  8
a
  10
47.80944
  20
7.70982
  30
0.0
  70
0
  0
VERTEX
  8
a
  10
47.85043
  20
7.61383
  30
0.0
  70
0
  0
VERTEX
  8
a
  10
47.88995
  20
7.51683
  30
0.0
  70
0
  0
VERTEX
  8
a
  10
47.96489
  20
7.32002
  30
0.0
  70
0
  0
VERTEX
  8
a
  10
48.09992
  20
6.91642
  30
0.0
  70
0
  0
VERTEX
  8
a
  10
48.21709
  20
6.50112
  30
0.0
  70
0
  0
VERTEX
  8
a
  10
48.31789
  20
6.07546
  30
0.0
  70
0
  0
VERTEX
  8
a
  10
48.40328
  20
5.64041
  30
0.0
  70
0
  0
VERTEX
  8
a
  10
48.47393
  20
5.19673
  30
0.0
  70
0
  0
VERTEX
  8
a
  10
47.98702
  20
4.88052
  30
0.0
  70
0
  0
VERTEX
  8
a
  10
47.61043
  20
5.12553
  30
0.0
  70
0
  0
VERTEX
  8
a
  10
47.24773
  20
5.38049
  30
0.0
  70
0
  0
VERTEX
  8
a
  10
46.89986
  20
5.6457
  30
0.0
  70
0
  0
VERTEX
  8
a
  10
46.56813
  20
5.92166
  30
0.0
  70
0
  0
VERTEX
  8
a
  10
46.25434
  20
6.20918
  30
0.0
  70
0
  0
VERTEX
  8
a
  10
46.10503
  20
6.35769
  30
0.0
  70
0
  0
VERTEX
  8
a
  10
46.03249
  20
6.43325
  30
0.0
  70
0
  0
VERTEX
  8
a
  10
45.96147
  20
6.50974
  30
0.0
  70
0
  0
VERTEX
  8
a
  10
45.26059
  20
6.10508
  30
0.0
  70
0
  0
VERTEX
  8
a
  10
45.29132
  20
6.00534
  30
0.0
  70
0
  0
VERTEX
  8
a
  10
45.32049
  20
5.90473
  30
0.0
  70
0
  0
VERTEX
  8
a
  10
45.37444
  20
5.70117
  30
0.0
  70
0
  0
VERTEX
  8
a
  10
45.46655
  20
5.28567
  30
0.0
  70
0
  0
VERTEX
  8
a
  10
45.53967
  20
4.86039
  30
0.0
  70
0
  0
VERTEX
  8
a
  10
45.59542
  20
4.42653
  30
0.0
  70
0
  0
VERTEX
  8
a
  10
45.63487
  20
3.98493
  30
0.0
  70
0
  0
VERTEX
  8
a
  10
45.65876
  20
3.5363
  30
0.0
  70
0
  0
VERTEX
  8
a
  10
45.14145
  20
3.27272
  30
0.0
  70
0
  0
VERTEX
  8
a
  10
44.79254
  20
3.55575
  30
0.0
  70
0
  0
VERTEX
  8
a
  10
44.45847
  20
3.84722
  30
0.0
  70
0
  0
VERTEX
  8
a
  10
44.14024
  20
4.14735
  30
0.0
  70
0
  0
VERTEX
  8
a
  10
43.83917
  20
4.45647
  30
0.0
  70
0
  0
VERTEX
  8
a
  10
43.55716
  20
4.77522
  30
0.0
  70
0
  0
VERTEX
  8
a
  10
43.42419
  20
4.93852
  30
0.0
  70
0
  0
VERTEX
  8
a
  10
43.35994
  20
5.02124
  30
0.0
  70
0
  0
VERTEX
  8
a
  10
43.2973
  20
5.10474
  30
0.0
  70
0
  0
VERTEX
  8
a
  10
42.55797
  20
4.77556
  30
0.0
  70
0
  0
VERTEX
  8
a
  10
42.5781
  20
4.67315
  30
0.0
  70
0
  0
VERTEX
  8
a
  10
42.59659
  20
4.57005
  30
0.0
  70
0
  0
VERTEX
  8
a
  10
42.62897
  20
4.36196
  30
0.0
  70
0
  0
VERTEX
  8
a
  10
42.67714
  20
3.93911
  30
0.0
  70
0
  0
VERTEX
  8
a
  10
42.70541
  20
3.50852
  30
0.0
  70
0
  0
VERTEX
  8
a
  10
42.71551
  20
3.0712
  30
0.0
  70
0
  0
VERTEX
  8
a
  10
42.70858
  20
2.62791
  30
0.0
  70
0
  0
VERTEX
  8
a
  10
42.68544
  20
2.17924
  30
0.0
  70
0
  0
VERTEX
  8
a
  10
42.14342
  20
1.97117
  30
0.0
  70
0
  0
VERTEX
  8
a
  10
41.826
  20
2.28912
  30
0.0
  70
0
  0
VERTEX
  8
a
  10
41.52423
  20
2.61392
  30
0.0
  70
0
  0
VERTEX
  8
a
  10
41.23911
  20
2.94566
  30
0.0
  70
0
  0
VERTEX
  8
a
  10
40.972
  20
3.28456
  30
0.0
  70
0
  0
VERTEX
  8
a
  10
40.72485
  20
3.63104
  30
0.0
  70
0
  0
VERTEX
  8
a
  10
40.60968
  20
3.80735
  30
0.0
  70
0
  0
VERTEX
  8
a
  10
40.55443
  20
3.89634
  30
0.0
  70
0
  0
VERTEX
  8
a
  10
40.50087
  20
3.98592
  30
0.0
  70
0
  0
VERTEX
  8
a
  10
39.73117
  20
3.73583
  30
0.0
  70
0
  0
VERTEX
  8
a
  10
39.74049
  20
3.63187
  30
0.0
  70
0
  0
VERTEX
  8
a
  10
39.7481
  20
3.5274
  30
0.0
  70
0
  0
VERTEX
  8
a
  10
39.75856
  20
3.31707
  30
0.0
  70
0
  0
VERTEX
  8
a
  10
39.76226
  20
2.8915
  30
0.0
  70
0
  0
VERTEX
  8
a
  10
39.74537
  20
2.46031
  30
0.0
  70
0
  0
VERTEX
  8
a
  10
39.7097
  20
2.02434
  30
0.0
  70
0
  0
VERTEX
  8
a
  10
39.65647
  20
1.58419
  30
0.0
  70
0
  0
VERTEX
  8
a
  10
39.58656
  20
1.1404
  30
0.0
  70
0
  0
VERTEX
  8
a
  10
39.02576
  20
0.99013
  30
0.0
  70
0
  0
VERTEX
  8
a
  10
38.74332
  20
1.33952
  30
0.0
  70
0
  0
VERTEX
  8
a
  10
38.47715
  20
1.69408
  30
0.0
  70
0
  0
VERTEX
  8
a
  10
38.22827
  20
2.05381
  30
0.0
  70
0
  0
VERTEX
  8
a
  10
37.99804
  20
2.41878
  30
0.0
  70
0
  0
VERTEX
  8
a
  10
37.78847
  20
2.78919
  30
0.0
  70
0
  0
VERTEX
  8
a
  10
37.69235
  20
2.97657
  30
0.0
  70
0
  0
VERTEX
  8
a
  10
37.64671
  20
3.07084
  30
0.0
  70
0
  0
VERTEX
  8
a
  10
37.6028
  20
3.16553
  30
0.0
  70
0
  0
VERTEX
  8
a
  10
36.81118
  20
2.99727
  30
0.0
  70
0
  0
VERTEX
  8
a
  10
36.80959
  20
2.89291
  30
0.0
  70
0
  0
VERTEX
  8
a
  10
36.80623
  20
2.78822
  30
0.0
  70
0
  0
VERTEX
  8
a
  10
36.79465
  20
2.57794
  30
0.0
  70
0
  0
VERTEX
  8
a
  10
36.75385
  20
2.15431
  30
0.0
  70
0
  0
VERTEX
  8
a
  10
36.69197
  20
1.72726
  30
0.0
  70
0
  0
VERTEX
  8
a
  10
36.61092
  20
1.2974
  30
0.0
  70
0
  0
VERTEX
  8
a
  10
36.51198
  20
0.86523
  30
0.0
  70
0
  0
VERTEX
  8
a
  10
36.39606
  20
0.43117
  30
0.0
  70
0
  0
VERTEX
  8
a
  10
35.82263
  20
0.34035
  30
0.0
  70
0
  0
VERTEX
  8
a
  10
35.57826
  20
0.71734
  30
0.0
  70
0
  0
VERTEX
  8
a
  10
35.35061
  20
1.09779
  30
0.0
  70
0
  0
VERTEX
  8
a
  10
35.14069
  20
1.48156
  30
0.0
  70
0
  0
VERTEX
  8
a
  10
34.94988
  20
1.86859
  30
0.0
  70
0
  0
VERTEX
  8
a
  10
34.78017
  20
2.25888
  30
0.0
  70
0
  0
VERTEX
  8
a
  10
34.70417
  20
2.45528
  30
0.0
  70
0
  0
VERTEX
  8
a
  10
34.66863
  20
2.55381
  30
0.0
  70
0
  0
VERTEX
  8
a
  10
34.63486
  20
2.65257
  30
0.0
  70
0
  0
VERTEX
  8
a
  10
33.82999
  20
2.56798
  30
0.0
  70
0
  0
VERTEX
  8
a
  10
33.81749
  20
2.46435
  30
0.0
  70
0
  0
VERTEX
  8
a
  10
33.80322
  20
2.36059
  30
0.0
  70
0
  0
VERTEX
  8
a
  10
33.76971
  20
2.15268
  30
0.0
  70
0
  0
VERTEX
  8
a
  10
33.68486
  20
1.73563
  30
0.0
  70
0
  0
VERTEX
  8
a
  10
33.57868
  20
1.31739
  30
0.0
  70
0
  0
VERTEX
  8
a
  10
33.45314
  20
0.89835
  30
0.0
  70
0
  0
VERTEX
  8
a
  10
33.30957
  20
0.47889
  30
0.0
  70
0
  0
VERTEX
  8
a
  10
33.14891
  20
0.05933
  30
0.0
  70
0
  0
VERTEX
  8
a
  10
32.56913
  20
0.02895
  30
0.0
  70
0
  0
VERTEX
  8
a
  10
32.3655
  20
0.42942
  30
0.0
  70
0
  0
VERTEX
  8
a
  10
32.17886
  20
0.83157
  30
0.0
  70
0
  0
VERTEX
  8
a
  10
32.01022
  20
1.23519
  30
0.0
  70
0
  0
VERTEX
  8
a
  10
31.8609
  20
1.64004
  30
0.0
  70
0
  0
VERTEX
  8
a
  10
31.73292
  20
2.04593
  30
0.0
  70
0
  0
VERTEX
  8
a
  10
31.67787
  20
2.2492
  30
0.0
  70
0
  0
VERTEX
  8
a
  10
31.65282
  20
2.35091
  30
0.0
  70
0
  0
VERTEX
  8
a
  10
31.62956
  20
2.45266
  30
0.0
  70
0
  0
VERTEX
  8
a
  10
30.82025
  20
2.45266
  30
0.0
  70
0
  0
VERTEX
  8
a
  10
30.79699
  20
2.35091
  30
0.0
  70
0
  0
VERTEX
  8
a
  10
30.77195
  20
2.2492
  30
0.0
  70
0
  0
VERTEX
  8
a
  10
30.7169
  20
2.04593
  30
0.0
  70
0
  0
VERTEX
  8
a
  10
30.58891
  20
1.64004
  30
0.0
  70
0
  0
VERTEX
  8
a
  10
30.4396
  20
1.23519
  30
0.0
  70
0
  0
VERTEX
  8
a
  10
30.27095
  20
0.83157
  30
0.0
  70
0
  0
VERTEX
  8
a
  10
30.08432
  20
0.42942
  30
0.0
  70
0
  0
VERTEX
  8
a
  10
29.88068
  20
0.02895
  30
0.0
  70
0
  0
VERTEX
  8
a
  10
29.3009
  20
0.05933
  30
0.0
  70
0
  0
VERTEX
  8
a
  10
29.14025
  20
0.47889
  30
0.0
  70
0
  0
VERTEX
  8
a
  10
28.99667
  20
0.89835
  30
0.0
  70
0
  0
VERTEX
  8
a
  10
28.87113
  20
1.31739
  30
0.0
  70
0
  0
VERTEX
  8
a
  10
28.76496
  20
1.73563
  30
0.0
  70
0
  0
VERTEX
  8
a
  10
28.6801
  20
2.15268
  30
0.0
  70
0
  0
VERTEX
  8
a
  10
28.6466
  20
2.36059
  30
0.0
  70
0
  0
VERTEX
  8
a
  10
28.63232
  20
2.46435
  30
0.0
  70
0
  0
VERTEX
  8
a
  10
28.61982
  20
2.56798
  30
0.0
  70
0
  0
VERTEX
  8
a
  10
27.81495
  20
2.65257
  30
0.0
  70
0
  0
VERTEX
  8
a
  10
27.78118
  20
2.55381
  30
0.0
  70
0
  0
VERTEX
  8
a
  10
27.74564
  20
2.45528
  30
0.0
  70
0
  0
VERTEX
  8
a
  10
27.66965
  20
2.25888
  30
0.0
  70
0
  0
VERTEX
  8
a
  10
27.49994
  20
1.86859
  30
0.0
  70
0
  0
VERTEX
  8
a
  10
27.30912
  20
1.48156
  30
0.0
  70
0
  0
VERTEX
  8
a
  10
27.09921
  20
1.09779
  30
0.0
  70
0
  0
VERTEX
  8
a
  10
26.87156
  20
0.71734
  30
0.0
  70
0
  0
VERTEX
  8
a
  10
26.62718
  20
0.34035
  30
0.0
  70
0
  0
VERTEX
  8
a
  10
26.05375
  20
0.43117
  30
0.0
  70
0
  0
VERTEX
  8
a
  10
25.93783
  20
0.86523
  30
0.0
  70
0
  0
VERTEX
  8
a
  10
25.83889
  20
1.2974
  30
0.0
  70
0
  0
VERTEX
  8
a
  10
25.75784
  20
1.72726
  30
0.0
  70
0
  0
VERTEX
  8
a
  10
25.69597
  20
2.15431
  30
0.0
  70
0
  0
VERTEX
  8
a
  10
25.65517
  20
2.57794
  30
0.0
  70
0
  0
VERTEX
  8
a
  10
25.64358
  20
2.78822
  30
0.0
  70
0
  0
VERTEX
  8
a
  10
25.64023
  20
2.89291
  30
0.0
  70
0
  0
VERTEX
  8
a
  10
25.63863
  20
2.99727
  30
0.0
  70
0
  0
VERTEX
  8
a
  10
24.84701
  20
3.16553
  30
0.0
  70
0
  0
VERTEX
  8
a
  10
24.8031
  20
3.07084
  30
0.0
  70
0
  0
VERTEX
  8
a
  10
24.75746
  20
2.97657
  30
0.0
  70
0
  0
VERTEX
  8
a
  10
24.66135
  20
2.78919
  30
0.0
  70
0
  0
VERTEX
  8
a
  10
24.45177
  20
2.41878
  30
0.0
  70
0
  0
VERTEX
  8
a
  10
24.22155
  20
2.05381
  30
0.0
  70
0
  0
VERTEX
  8
a
  10
23.97267
  20
1.69408
  30
0.0
  70
0
  0
VERTEX
  8
a
  10
23.7065
  20
1.33952
  30
0.0
  70
0
  0
VERTEX
  8
a
  10
23.42405
  20
0.99013
  30
0.0
  70
0
  0
VERTEX
  8
a
  10
22.86326
  20
1.1404
  30
0.0
  70
0
  0
VERTEX
  8
a
  10
22.79334
  20
1.58419
  30
0.0
  70
0
  0
VERTEX
  8
a
  10
22.74012
  20
2.02434
  30
0.0
  70
0
  0
VERTEX
  8
a
  10
22.70445
  20
2.46031
  30
0.0
  70
0
  0
VERTEX
  8
a
  10
22.68755
  20
2.8915
  30
0.0
  70
0
  0
VERTEX
  8
a
  10
22.69126
  20
3.31707
  30
0.0
  70
0
  0
VERTEX
  8
a
  10
22.70171
  20
3.5274
  30
0.0
  70
0
  0
VERTEX
  8
a
  10
22.70932
  20
3.63187
  30
0.0
  70
0
  0
VERTEX
  8
a
  10
22.71864
  20
3.73583
  30
0.0
  70
0
  0
VERTEX
  8
a
  10
21.94895
  20
3.98592
  30
0.0
  70
0
  0
VERTEX
  8
a
  10
21.89538
  20
3.89634
  30
0.0
  70
0
  0
VERTEX
  8
a
  10
21.84013
  20
3.80735
  30
0.0
  70
0
  0
VERTEX
  8
a
  10
21.72496
  20
3.63104
  30
0.0
  70
0
  0
VERTEX
  8
a
  10
21.47781
  20
3.28456
  30
0.0
  70
0
  0
VERTEX
  8
a
  10
21.2107
  20
2.94566
  30
0.0
  70
0
  0
VERTEX
  8
a
  10
20.92558
  20
2.61392
  30
0.0
  70
0
  0
VERTEX
  8
a
  10
20.62381
  20
2.28912
  30
0.0
  70
0
  0
VERTEX
  8
a
  10
20.30639
  20
1.97117
  30
0.0
  70
0
  0
VERTEX
  8
a
  10
19.76438
  20
2.17924
  30
0.0
  70
0
  0
VERTEX
  8
a
  10
19.74124
  20
2.62791
  30
0.0
  70
0
  0
VERTEX
  8
a
  10
19.73431
  20
3.0712
  30
0.0
  70
0
  0
VERTEX
  8
a
  10
19.7444
  20
3.50852
  30
0.0
  70
0
  0
VERTEX
  8
a
  10
19.77267
  20
3.93911
  30
0.0
  70
0
  0
VERTEX
  8
a
  10
19.82084
  20
4.36196
  30
0.0
  70
0
  0
VERTEX
  8
a
  10
19.85322
  20
4.57005
  30
0.0
  70
0
  0
VERTEX
  8
a
  10
19.87171
  20
4.67315
  30
0.0
  70
0
  0
VERTEX
  8
a
  10
19.89185
  20
4.77556
  30
0.0
  70
0
  0
VERTEX
  8
a
  10
19.15251
  20
5.10474
  30
0.0
  70
0
  0
VERTEX
  8
a
  10
19.08988
  20
5.02124
  30
0.0
  70
0
  0
VERTEX
  8
a
  10
19.02563
  20
4.93852
  30
0.0
  70
0
  0
VERTEX
  8
a
  10
18.89266
  20
4.77522
  30
0.0
  70
0
  0
VERTEX
  8
a
  10
18.61065
  20
4.45647
  30
0.0
  70
0
  0
VERTEX
  8
a
  10
18.30957
  20
4.14735
  30
0.0
  70
0
  0
VERTEX
  8
a
  10
17.99134
  20
3.84722
  30
0.0
  70
0
  0
VERTEX
  8
a
  10
17.65727
  20
3.55575
  30
0.0
  70
0
  0
VERTEX
  8
a
  10
17.30836
  20
3.27272
  30
0.0
  70
0
  0
VERTEX
  8
a
  10
16.79106
  20
3.5363
  30
0.0
  70
0
  0
VERTEX
  8
a
  10
16.81494
  20
3.98493
  30
0.0
  70
0
  0
VERTEX
  8
a
  10
16.85439
  20
4.42653
  30
0.0
  70
0
  0
VERTEX
  8
a
  10
16.91014
  20
4.86039
  30
0.0
  70
0
  0
VERTEX
  8
a
  10
16.98326
  20
5.28567
  30
0.0
  70
0
  0
VERTEX
  8
a
  10
17.07537
  20
5.70117
  30
0.0
  70
0
  0
VERTEX
  8
a
  10
17.12933
  20
5.90473
  30
0.0
  70
0
  0
VERTEX
  8
a
  10
17.15849
  20
6.00534
  30
0.0
  70
0
  0
VERTEX
  8
a
  10
17.18922
  20
6.10508
  30
0.0
  70
0
  0
VERTEX
  8
a
  10
16.48834
  20
6.50974
  30
0.0
  70
0
  0
VERTEX
  8
a
  10
16.41733
  20
6.43325
  30
0.0
  70
0
  0
VERTEX
  8
a
  10
16.34478
  20
6.35769
  30
0.0
  70
0
  0
VERTEX
  8
a
  10
16.19547
  20
6.20918
  30
0.0
  70
0
  0
VERTEX
  8
a
  10
15.88169
  20
5.92166
  30
0.0
  70
0
  0
VERTEX
  8
a
  10
15.54995
  20
5.6457
  30
0.0
  70
0
  0
VERTEX
  8
a
  10
15.20209
  20
5.38049
  30
0.0
  70
0
  0
VERTEX
  8
a
  10
14.83938
  20
5.12553
  30
0.0
  70
0
  0
VERTEX
  8
a
  10
14.4628
  20
4.88052
  30
0.0
  70
0
  0
VERTEX
  8
a
  10
13.97588
  20
5.19673
  30
0.0
  70
0
  0
VERTEX
  8
a
  10
14.04653
  20
5.64041
  30
0.0
  70
0
  0
VERTEX
  8
a
  10
14.13192
  20
6.07546
  30
0.0
  70
0
  0
VERTEX
  8
a
  10
14.23272
  20
6.50112
  30
0.0
  70
0
  0
VERTEX
  8
a
  10
14.34989
  20
6.91642
  30
0.0
  70
0
  0
VERTEX
  8
a
  10
14.48493
  20
7.32002
  30
0.0
  70
0
  0
VERTEX
  8
a
  10
14.55987
  20
7.51683
  30
0.0
  70
0
  0
VERTEX
  8
a
  10
14.59939
  20
7.61383
  30
0.0
  70
0
  0
VERTEX
  8
a
  10
14.64038
  20
7.70982
  30
0.0
  70
0
  0
VERTEX
  8
a
  10
13.98563
  20
8.18552
  30
0.0
  70
0
  0
VERTEX
  8
a
  10
13.90701
  20
8.11687
  30
0.0
  70
0
  0
VERTEX
  8
a
  10
13.82696
  20
8.04931
  30
0.0
  70
0
  0
VERTEX
  8
a
  10
13.66295
  20
7.91722
  30
0.0
  70
0
  0
VERTEX
  8
a
  10
13.32083
  20
7.66408
  30
0.0
  70
0
  0
VERTEX
  8
a
  10
12.96206
  20
7.42431
  30
0.0
  70
0
  0
VERTEX
  8
a
  10
12.58838
  20
7.1969
  30
0.0
  70
0
  0
VERTEX
  8
a
  10
12.20101
  20
6.98126
  30
0.0
  70
0
  0
VERTEX
  8
a
  10
11.80088
  20
6.77696
  30
0.0
  70
0
  0
VERTEX
  8
a
  10
11.34969
  20
7.14233
  30
0.0
  70
0
  0
VERTEX
  8
a
  10
11.46633
  20
7.57619
  30
0.0
  70
0
  0
VERTEX
  8
a
  10
11.59673
  20
7.99993
  30
0.0
  70
0
  0
VERTEX
  8
a
  10
11.74147
  20
8.41273
  30
0.0
  70
0
  0
VERTEX
  8
a
  10
11.90141
  20
8.81351
  30
0.0
  70
0
  0
VERTEX
  8
a
  10
12.07789
  20
9.20078
  30
0.0
  70
0
  0
VERTEX
  8
a
  10
12.17299
  20
9.38867
  30
0.0
  70
0
  0
VERTEX
  8
a
  10
12.22243
  20
9.48102
  30
0.0
  70
0
  0
VERTEX
  8
a
  10
12.27323
  20
9.57219
  30
0.0
  70
0
  0
VERTEX
  8
a
  10
11.6718
  20
10.11373
  30
0.0
  70
0
  0
VERTEX
  8
a
  10
11.58643
  20
10.05367
  30
0.0
  70
0
  0
VERTEX
  8
a
  10
11.49976
  20
9.99485
  30
0.0
  70
0
  0
VERTEX
  8
a
  10
11.32284
  20
9.88063
  30
0.0
  70
0
  0
VERTEX
  8
a
  10
10.95613
  20
9.66463
  30
0.0
  70
0
  0
VERTEX
  8
a
  10
10.57427
  20
9.46368
  30
0.0
  70
0
  0
VERTEX
  8
a
  10
10.17887
  20
9.27658
  30
0.0
  70
0
  0
VERTEX
  8
a
  10
9.77108
  20
9.1026
  30
0.0
  70
0
  0
VERTEX
  8
a
  10
9.35178
  20
8.94125
  30
0.0
  70
0
  0
VERTEX
  8
a
  10
8.94125
  20
9.35178
  30
0.0
  70
0
  0
VERTEX
  8
a
  10
9.1026
  20
9.77108
  30
0.0
  70
0
  0
VERTEX
  8
a
  10
9.27658
  20
10.17887
  30
0.0
  70
0
  0
VERTEX
  8
a
  10
9.46368
  20
10.57427
  30
0.0
  70
0
  0
VERTEX
  8
a
  10
9.66463
  20
10.95613
  30
0.0
  70
0
  0
VERTEX
  8
a
  10
9.88063
  20
11.32284
  30
0.0
  70
0
  0
VERTEX
  8
a
  10
9.99485
  20
11.49976
  30
0.0
  70
0
  0
VERTEX
  8
a
  10
10.05367
  20
11.58643
  30
0.0
  70
0
  0
VERTEX
  8
a
  10
10.11373
  20
11.6718
  30
0.0
  70
0
  0
VERTEX
  8
a
  10
9.57219
  20
12.27323
  30
0.0
  70
0
  0
VERTEX
  8
a
  10
9.48102
  20
12.22243
  30
0.0
  70
0
  0
VERTEX
  8
a
  10
9.38867
  20
12.17299
  30
0.0
  70
0
  0
VERTEX
  8
a
  10
9.20078
  20
12.07789
  30
0.0
  70
0
  0
VERTEX
  8
a
  10
8.81351
  20
11.90141
  30
0.0
  70
0
  0
VERTEX
  8
a
  10
8.41273
  20
11.74147
  30
0.0
  70
0
  0
VERTEX
  8
a
  10
7.99993
  20
11.59673
  30
0.0
  70
0
  0
VERTEX
  8
a
  10
7.57619
  20
11.46633
  30
0.0
  70
0
  0
VERTEX
  8
a
  10
7.14233
  20
11.34969
  30
0.0
  70
0
  0
VERTEX
  8
a
  10
6.77696
  20
11.80088
  30
0.0
  70
0
  0
VERTEX
  8
a
  10
6.98126
  20
12.20101
  30
0.0
  70
0
  0
VERTEX
  8
a
  10
7.1969
  20
12.58838
  30
0.0
  70
0
  0
VERTEX
  8
a
  10
7.42431
  20
12.96206
  30
0.0
  70
0
  0
VERTEX
  8
a
  10
7.66408
  20
13.32083
  30
0.0
  70
0
  0
VERTEX
  8
a
  10
7.91722
  20
13.66295
  30
0.0
  70
0
  0
VERTEX
  8
a
  10
8.04931
  20
13.82696
  30
0.0
  70
0
  0
VERTEX
  8
a
  10
8.11687
  20
13.90701
  30
0.0
  70
0
  0
VERTEX
  8
a
  10
8.18552
  20
13.98563
  30
0.0
  70
0
  0
VERTEX
  8
a
  10
7.70982
  20
14.64038
  30
0.0
  70
0
  0
VERTEX
  8
a
  10
7.61383
  20
14.59939
  30
0.0
  70
0
  0
VERTEX
  8
a
  10
7.51683
  20
14.55987
  30
0.0
  70
0
  0
VERTEX
  8
a
  10
7.32002
  20
14.48493
  30
0.0
  70
0
  0
VERTEX
  8
a
  10
6.91642
  20
14.34989
  30
0.0
  70
0
  0
VERTEX
  8
a
  10
6.50112
  20
14.23272
  30
0.0
  70
0
  0
VERTEX
  8
a
  10
6.07546
  20
14.13192
  30
0.0
  70
0
  0
VERTEX
  8
a
  10
5.64041
  20
14.04653
  30
0.0
  70
0
  0
VERTEX
  8
a
  10
5.19673
  20
13.97588
  30
0.0
  70
0
  0
VERTEX
  8
a
  10
4.88052
  20
14.4628
  30
0.0
  70
0
  0
VERTEX
  8
a
  10
5.12553
  20
14.83938
  30
0.0
  70
0
  0
VERTEX
  8
a
  10
5.38049
  20
15.20209
  30
0.0
  70
0
  0
VERTEX
  8
a
  10
5.6457
  20
15.54995
  30
0.0
  70
0
  0
VERTEX
  8
a
  10
5.92166
  20
15.88169
  30
0.0
  70
0
  0
VERTEX
  8
a
  10
6.20918
  20
16.19547
  30
0.0
  70
0
  0
VERTEX
  8
a
  10
6.35769
  20
16.34478
  30
0.0
  70
0
  0
VERTEX
  8
a
  10
6.43325
  20
16.41733
  30
0.0
  70
0
  0
VERTEX
  8
a
  10
6.50974
  20
16.48834
  30
0.0
  70
0
  0
VERTEX
  8
a
  10
6.10508
  20
17.18922
  30
0.0
  70
0
  0
VERTEX
  8
a
  10
6.00534
  20
17.15849
  30
0.0
  70
0
  0
VERTEX
  8
a
  10
5.90473
  20
17.12933
  30
0.0
  70
0
  0
VERTEX
  8
a
  10
5.70117
  20
17.07537
  30
0.0
  70
0
  0
VERTEX
  8
a
  10
5.28567
  20
16.98326
  30
0.0
  70
0
  0
VERTEX
  8
a
  10
4.86039
  20
16.91014
  30
0.0
  70
0
  0
VERTEX
  8
a
  10
4.42653
  20
16.85439
  30
0.0
  70
0
  0
VERTEX
  8
a
  10
3.98493
  20
16.81494
  30
0.0
  70
0
  0
VERTEX
  8
a
  10
3.5363
  20
16.79106
  30
0.0
  70
0
  0
VERTEX
  8
a
  10
3.27272
  20
17.30836
  30
0.0
  70
0
  0
VERTEX
  8
a
  10
3.55575
  20
17.65727
  30
0.0
  70
0
  0
VERTEX
  8
a
  10
3.84722
  20
17.99134
  30
0.0
  70
0
  0
VERTEX
  8
a
  10
4.14735
  20
18.30957
  30
0.0
  70
0
  0
VERTEX
  8
a
  10
4.45647
  20
18.61065
  30
0.0
  70
0
  0
VERTEX
  8
a
  10
4.77522
  20
18.89266
  30
0.0
  70
0
  0
VERTEX
  8
a
  10
4.93852
  20
19.02563
  30
0.0
  70
0
  0
VERTEX
  8
a
  10
5.02124
  20
19.08988
  30
0.0
  70
0
  0
VERTEX
  8
a
  10
5.10474
  20
19.15251
  30
0.0
  70
0
  0
VERTEX
  8
a
  10
4.77556
  20
19.89185
  30
0.0
  70
0
  0
VERTEX
  8
a
  10
4.67315
  20
19.87171
  30
0.0
  70
0
  0
VERTEX
  8
a
  10
4.57005
  20
19.85322
  30
0.0
  70
0
  0
VERTEX
  8
a
  10
4.36196
  20
19.82084
  30
0.0
  70
0
  0
VERTEX
  8
a
  10
3.93911
  20
19.77267
  30
0.0
  70
0
  0
VERTEX
  8
a
  10
3.50852
  20
19.7444
  30
0.0
  70
0
  0
VERTEX
  8
a
  10
3.0712
  20
19.73431
  30
0.0
  70
0
  0
VERTEX
  8
a
  10
2.62791
  20
19.74124
  30
0.0
  70
0
  0
VERTEX
  8
a
  10
2.17924
  20
19.76438
  30
0.0
  70
0
  0
VERTEX
  8
a
  10
1.97117
  20
20.30639
  30
0.0
  70
0
  0
VERTEX
  8
a
  10
2.28912
  20
20.62381
  30
0.0
  70
0
  0
VERTEX
  8
a
  10
2.61392
  20
20.92558
  30
0.0
  70
0
  0
VERTEX
  8
a
  10
2.94566
  20
21.2107
  30
0.0
  70
0
  0
VERTEX
  8
a
  10
3.28456
  20
21.47781
  30
0.0
  70
0
  0
VERTEX
  8
a
  10
3.63104
  20
21.72496
  30
0.0
  70
0
  0
VERTEX
  8
a
  10
3.80735
  20
21.84013
  30
0.0
  70
0
  0
VERTEX
  8
a
  10
3.89634
  20
21.89538
  30
0.0
  70
0
  0
VERTEX
  8
a
  10
3.98592
  20
21.94895
  30
0.0
  70
0
  0
VERTEX
  8
a
  10
3.73583
  20
22.71864
  30
0.0
  70
0
  0
VERTEX
  8
a
  10
3.63187
  20
22.70932
  30
0.0
  70
0
  0
VERTEX
  8
a
  10
3.5274
  20
22.70171
  30
0.0
  70
0
  0
VERTEX
  8
a
  10
3.31707
  20
22.69126
  30
0.0
  70
0
  0
VERTEX
  8
a
  10
2.8915
  20
22.68755
  30
0.0
  70
0
  0
VERTEX
  8
a
  10
2.46031
  20
22.70445
  30
0.0
  70
0
  0
VERTEX
  8
a
  10
2.02434
  20
22.74012
  30
0.0
  70
0
  0
VERTEX
  8
a
  10
1.58419
  20
22.79334
  30
0.0
  70
0
  0
VERTEX
  8
a
  10
1.1404
  20
22.86326
  30
0.0
  70
0
  0
VERTEX
  8
a
  10
0.99013
  20
23.42405
  30
0.0
  70
0
  0
VERTEX
  8
a
  10
1.33952
  20
23.7065
  30
0.0
  70
0
  0
VERTEX
  8
a
  10
1.69408
  20
23.97267
  30
0.0
  70
0
  0
VERTEX
  8
a
  10
2.05381
  20
24.22155
  30
0.0
  70
0
  0
VERTEX
  8
a
  10
2.41878
  20
24.45177
  30
0.0
  70
0
  0
VERTEX
  8
a
  10
2.78919
  20
24.66135
  30
0.0
  70
0
  0
VERTEX
  8
a
  10
2.97657
  20
24.75746
  30
0.0
  70
0
  0
VERTEX
  8
a
  10
3.07084
  20
24.8031
  30
0.0
  70
0
  0
VERTEX
  8
a
  10
3.16553
  20
24.84701
  30
0.0
  70
0
  0
VERTEX
  8
a
  10
2.99727
  20
25.63863
  30
0.0
  70
0
  0
VERTEX
  8
a
  10
2.89291
  20
25.64023
  30
0.0
  70
0
  0
VERTEX
  8
a
  10
2.78822
  20
25.64358
  30
0.0
  70
0
  0
VERTEX
  8
a
  10
2.57794
  20
25.65517
  30
0.0
  70
0
  0
VERTEX
  8
a
  10
2.15431
  20
25.69597
  30
0.0
  70
0
  0
VERTEX
  8
a
  10
1.72726
  20
25.75784
  30
0.0
  70
0
  0
VERTEX
  8
a
  10
1.2974
  20
25.83889
  30
0.0
  70
0
  0
VERTEX
  8
a
  10
0.86523
  20
25.93783
  30
0.0
  70
0
  0
VERTEX
  8
a
  10
0.43117
  20
26.05375
  30
0.0
  70
0
  0
VERTEX
  8
a
  10
0.34035
  20
26.62718
  30
0.0
  70
0
  0
VERTEX
  8
a
  10
0.71734
  20
26.87156
  30
0.0
  70
0
  0
VERTEX
  8
a
  10
1.09779
  20
27.09921
  30
0.0
  70
0
  0
VERTEX
  8
a
  10
1.48156
  20
27.30912
  30
0.0
  70
0
  0
VERTEX
  8
a
  10
1.86859
  20
27.49994
  30
0.0
  70
0
  0
VERTEX
  8
a
  10
2.25888
  20
27.66965
  30
0.0
  70
0
  0
VERTEX
  8
a
  10
2.45528
  20
27.74564
  30
0.0
  70
0
  0
VERTEX
  8
a
  10
2.55381
  20
27.78118
  30
0.0
  70
0
  0
VERTEX
  8
a
  10
2.65257
  20
27.81495
  30
0.0
  70
0
  0
VERTEX
  8
a
  10
2.56798
  20
28.61982
  30
0.0
  70
0
  0
VERTEX
  8
a
  10
2.46435
  20
28.63232
  30
0.0
  70
0
  0
VERTEX
  8
a
  10
2.36059
  20
28.6466
  30
0.0
  70
0
  0
VERTEX
  8
a
  10
2.15268
  20
28.6801
  30
0.0
  70
0
  0
VERTEX
  8
a
  10
1.73563
  20
28.76496
  30
0.0
  70
0
  0
VERTEX
  8
a
  10
1.31739
  20
28.87113
  30
0.0
  70
0
  0
VERTEX
  8
a
  10
0.89835
  20
28.99667
  30
0.0
  70
0
  0
VERTEX
  8
a
  10
0.47889
  20
29.14025
  30
0.0
  70
0
  0
VERTEX
  8
a
  10
0.05933
  20
29.3009
  30
0.0
  70
0
  0
VERTEX
  8
a
  10
0.02895
  20
29.88068
  30
0.0
  70
0
  0
VERTEX
  8
a
  10
0.42942
  20
30.08432
  30
0.0
  70
0
  0
VERTEX
  8
a
  10
0.83157
  20
30.27095
  30
0.0
  70
0
  0
VERTEX
  8
a
  10
1.23519
  20
30.4396
  30
0.0
  70
0
  0
VERTEX
  8
a
  10
1.64004
  20
30.58891
  30
0.0
  70
0
  0
VERTEX
  8
a
  10
2.04593
  20
30.7169
  30
0.0
  70
0
  0
VERTEX
  8
a
  10
2.2492
  20
30.77195
  30
0.0
  70
0
  0
VERTEX
  8
a
  10
2.35091
  20
30.79699
  30
0.0
  70
0
  0
VERTEX
  8
a
  10
2.45266
  20
30.82025
  30
0.0
  70
0
  0
SEQEND
  0
CIRCLE
  8
a
  10
31.22491
  20
31.22491
  30
0.0
  40
0.5
 0
LINE
 8
c
 10
2.48925
 20
32.73088
 30
0
 11
0.04279
 21
32.85909
 31
 0
 0
LINE
 8
c
 10
2.80408
 20
35.72632
 30
0
 11
0.38443
 21
36.10956
 31
 0
 0
LINE
 8
c
 10
3.4303
 20
38.67245
 30
0
 11
1.06396
 21
39.30651
 31
 0
 0
LINE
 8
c
 10
4.36104
 20
41.53698
 30
0
 11
2.07395
 21
42.41491
 31
 0
 0
LINE
 8
c
 10
5.58611
 20
44.28853
 30
0
 11
3.40331
 21
45.40072
 31
 0
 0
LINE
 8
c
 10
7.09208
 20
46.89695
 30
0
 11
5.0375
 21
48.23121
 31
 0
 0
LINE
 8
c
 10
8.86246
 20
49.33366
 30
0
 11
6.9586
 21
50.87538
 31
 0
 0
LINE
 8
c
 10
10.87784
 20
51.57197
 30
0
 11
9.14556
 21
53.30425
 31
 0
 0
LINE
 8
c
 10
13.11615
 20
53.58735
 30
0
 11
11.57444
 21
55.49122
 31
 0
 0
LINE
 8
c
 10
15.55287
 20
55.35773
 30
0
 11
14.2186
 21
57.41232
 31
 0
 0
LINE
 8
c
 10
18.16129
 20
56.8637
 30
0
 11
17.0491
 21
59.0465
 31
 0
 0
LINE
 8
c
 10
20.91284
 20
58.08877
 30
0
 11
20.0349
 21
60.37587
 31
 0
 0
LINE
 8
c
 10
23.77736
 20
59.01951
 30
0
 11
23.14331
 21
61.38585
 31
 0
 0
LINE
 8
c
 10
26.72349
 20
59.64573
 30
0
 11
26.34026
 21
62.06538
 31
 0
 0
LINE
 8
c
 10
29.71893
 20
59.96056
 30
0
 11
29.59072
 21
62.40702
 31
 0
 0
LINE
 8
c
 10
32.73088
 20
59.96056
 30
0
 11
32.85909
 21
62.40702
 31
 0
 0
LINE
 8
c
 10
35.72632
 20
59.64573
 30
0
 11
36.10956
 21
62.06538
 31
 0
 0
LINE
 8
c
 10
38.67245
 20
59.01951
 30
0
 11
39.30651
 21
61.38585
 31
 0
 0
LINE
 8
c
 10
41.53698
 20
58.08877
 30
0
 11
42.41491
 21
60.37587
 31
 0
 0
LINE
 8
c
 10
44.28853
 20
56.8637
 30
0
 11
45.40072
 21
59.0465
 31
 0
 0
LINE
 8
c
 10
46.89695
 20
55.35773
 30
0
 11
48.23121
 21
57.41232
 31
 0
 0
LINE
 8
c
 10
49.33366
 20
53.58735
 30
0
 11
50.87538
 21
55.49122
 31
 0
 0
LINE
 8
c
 10
51.57197
 20
51.57197
 30
0
 11
53.30425
 21
53.30425
 31
 0
 0
LINE
 8
c
 10
53.58735
 20
49.33366
 30
0
 11
55.49122
 21
50.87538
 31
 0
 0
LINE
 8
c
 10
55.35773
 20
46.89695
 30
0
 11
57.41232
 21
48.23121
 31
 0
 0
LINE
 8
c
 10
56.8637
 20
44.28853
 30
0
 11
59.0465
 21
45.40072
 31
 0
 0
LINE
 8
c
 10
58.08877
 20
41.53698
 30
0
 11
60.37587
 21
42.41491
 31
 0
 0
LINE
 8
c
 10
59.01951
 20
38.67245
 30
0
 11
61.38585
 21
39.30651
 31
 0
 0
LINE
 8
c
 10
59.64573
 20
35.72632
 30
0
 11
62.06538
 21
36.10956
 31
 0
 0
LINE
 8
c
 10
59.96056
 20
32.73088
 30
0
 11
62.40702
 21
32.85909
 31
 0
 0
LINE
 8
c
 10
59.96056
 20
29.71893
 30
0
 11
62.40702
 21
29.59072
 31
 0
 0
LINE
 8
c
 10
59.64573
 20
26.72349
 30
0
 11
62.06538
 21
26.34026
 31
 0
 0
LINE
 8
c
 10
59.01951
 20
23.77736
 30
0
 11
61.38585
 21
23.14331
 31
 0
 0
LINE
 8
c
 10
58.08877
 20
20.91284
 30
0
 11
60.37587
 21
20.0349
 31
 0
 0
LINE
 8
c
 10
56.8637
 20
18.16129
 30
0
 11
59.0465
 21
17.0491
 31
 0
 0
LINE
 8
c
 10
55.35773
 20
15.55287
 30
0
 11
57.41232
 21
14.2186
 31
 0
 0
LINE
 8
c
 10
53.58735
 20
13.11615
 30
0
 11
55.49122
 21
11.57444
 31
 0
 0
LINE
 8
c
 10
51.57197
 20
10.87784
 30
0
 11
53.30425
 21
9.14556
 31
 0
 0
LINE
 8
c
 10
49.33366
 20
8.86246
 30
0
 11
50.87538
 21
6.9586
 31
 0
 0
LINE
 8
c
 10
46.89695
 20
7.09208
 30
0
 11
48.23121
 21
5.0375
 31
 0
 0
LINE
 8
c
 10
44.28853
 20
5.58611
 30
0
 11
45.40072
 21
3.40331
 31
 0
 0
LINE
 8
c
 10
41.53698
 20
4.36104
 30
0
 11
42.41491
 21
2.07395
 31
 0
 0
LINE
 8
c
 10
38.67245
 20
3.4303
 30
0
 11
39.30651
 21
1.06396
 31
 0
 0
LINE
 8
c
 10
35.72632
 20
2.80408
 30
0
 11
36.10956
 21
0.38443
 31
 0
 0
LINE
 8
c
 10
32.73088
 20
2.48925
 30
0
 11
32.85909
 21
0.04279
 31
 0
 0
LINE
 8
c
 10
29.71893
 20
2.48925
 30
0
 11
29.59072
 21
0.04279
 31
 0
 0
LINE
 8
c
 10
26.72349
 20
2.80408
 30
0
 11
26.34026
 21
0.38443
 31
 0
 0
LINE
 8
c
 10
23.77736
 20
3.4303
 30
0
 11
23.14331
 21
1.06396
 31
 0
 0
LINE
 8
c
 10
20.91284
 20
4.36104
 30
0
 11
20.0349
 21
2.07395
 31
 0
 0
LINE
 8
c
 10
18.16129
 20
5.58611
 30
0
 11
17.0491
 21
3.40331
 31
 0
 0
LINE
 8
c
 10
15.55287
 20
7.09208
 30
0
 11
14.2186
 21
5.0375
 31
 0
 0
LINE
 8
c
 10
13.11615
 20
8.86246
 30
0
 11
11.57444
 21
6.9586
 31
 0
 0
LINE
 8
c
 10
10.87784
 20
10.87784
 30
0
 11
9.14556
 21
9.14556
 31
 0
 0
LINE
 8
c
 10
8.86246
 20
13.11615
 30
0
 11
6.9586
 21
11.57444
 31
 0
 0
LINE
 8
c
 10
7.09208
 20
15.55287
 30
0
 11
5.0375
 21
14.2186
 31
 0
 0
LINE
 8
c
 10
5.58611
 20
18.16129
 30
0
 11
3.40331
 21
17.0491
 31
 0
 0
LINE
 8
c
 10
4.36104
 20
20.91284
 30
0
 11
2.07395
 21
20.0349
 31
 0
 0
LINE
 8
c
 10
3.4303
 20
23.77736
 30
0
 11
1.06396
 21
23.14331
 31
 0
 0
LINE
 8
c
 10
2.80408
 20
26.72349
 30
0
 11
0.38443
 21
26.34026
 31
 0
 0
LINE
 8
c
 10
2.48925
 20
29.71893
 30
0
 11
0.04279
 21
29.59072
 31
 0
  0
CIRCLE
  8
c
  10
31.22491
  20
31.22491
  30
0.0
  40
30
 0
LINE
 8
a
 10
20.8166
 20
31.22491
 30
0
 11
41.63321
 21
31.22491
 31
 0
 0
LINE
 8
a
 10
31.22491
 20
20.8166
 30
0
 11
31.22491
 21
41.63321
 31
 0
  0
TEXT
  8
labels
  10
0.0
  20
0.0
  30
0.0
  40
0.1
  1
G2:Toothspacing=3.14  Teeth=60  Spur gear  Angle=20.0  Addendum=.4
  41
1.0
  7
ARIAL
  0
ENDSEC
  0
EOF
