  999
DXF file created by gear template generator. 2018-12-28T18:12:53
  999
G2:Toothspacing=3.14  Teeth=40  Spur gear  Angle=20.0  Addendum=.2
  0
SECTION
  2
HEADER
  9
$MEASUREMENT
  70
1
  0
ENDSEC
  0
SECTION
  2
TABLES
  0
TABLE
  2
LTYPE
  70
1
  0
LTYPE
  2
Continuous
  3
_
  70
0
  72
65
  73
0
  40
0.0
  0
ENDTAB
  0
TABLE
  2
LAYER
  70
4
  0
LAYER
  2
profile
  70
0
  62
7
  6
Continuous
  0
LAYER
  2
construction
  70
0
  62
5
  6
Continuous
  0
LAYER
  2
grid
  70
0
  62
3
  6
Continuous
  0
LAYER
  2
labels
  70
0
  62
1
  6
Continuous
  0
ENDTAB
  0
TABLE
  2
STYLE
  70
1
  0
STYLE
  2
ARIAL
  3
Arial.ttf
  70
0
  40
0.0
  41
1.0
  50
0.0
  71
0
  42
1.0
  0
ENDTAB
  0
ENDSEC
  0
SECTION
  2
ENTITIES
 0
LINE
 8
b
 10
0.75367
 20
0
 30
0
 11
0.75367
 21
41.50734
 31
 0
 0
LINE
 8
b
 10
1.75367
 20
0
 30
0
 11
1.75367
 21
41.50734
 31
 0
 0
LINE
 8
b
 10
2.75367
 20
0
 30
0
 11
2.75367
 21
41.50734
 31
 0
 0
LINE
 8
b
 10
3.75367
 20
0
 30
0
 11
3.75367
 21
41.50734
 31
 0
 0
LINE
 8
b
 10
4.75367
 20
0
 30
0
 11
4.75367
 21
41.50734
 31
 0
 0
LINE
 8
b
 10
5.75367
 20
0
 30
0
 11
5.75367
 21
41.50734
 31
 0
 0
LINE
 8
b
 10
6.75367
 20
0
 30
0
 11
6.75367
 21
41.50734
 31
 0
 0
LINE
 8
b
 10
7.75367
 20
0
 30
0
 11
7.75367
 21
41.50734
 31
 0
 0
LINE
 8
b
 10
8.75367
 20
0
 30
0
 11
8.75367
 21
41.50734
 31
 0
 0
LINE
 8
b
 10
9.75367
 20
0
 30
0
 11
9.75367
 21
41.50734
 31
 0
 0
LINE
 8
b
 10
10.75367
 20
0
 30
0
 11
10.75367
 21
41.50734
 31
 0
 0
LINE
 8
b
 10
11.75367
 20
0
 30
0
 11
11.75367
 21
41.50734
 31
 0
 0
LINE
 8
b
 10
12.75367
 20
0
 30
0
 11
12.75367
 21
41.50734
 31
 0
 0
LINE
 8
b
 10
13.75367
 20
0
 30
0
 11
13.75367
 21
41.50734
 31
 0
 0
LINE
 8
b
 10
14.75367
 20
0
 30
0
 11
14.75367
 21
41.50734
 31
 0
 0
LINE
 8
b
 10
15.75367
 20
0
 30
0
 11
15.75367
 21
41.50734
 31
 0
 0
LINE
 8
b
 10
16.75367
 20
0
 30
0
 11
16.75367
 21
41.50734
 31
 0
 0
LINE
 8
b
 10
17.75367
 20
0
 30
0
 11
17.75367
 21
41.50734
 31
 0
 0
LINE
 8
b
 10
18.75367
 20
0
 30
0
 11
18.75367
 21
41.50734
 31
 0
 0
LINE
 8
b
 10
19.75367
 20
0
 30
0
 11
19.75367
 21
41.50734
 31
 0
 0
LINE
 8
b
 10
20.75367
 20
0
 30
0
 11
20.75367
 21
41.50734
 31
 0
 0
LINE
 8
b
 10
21.75367
 20
0
 30
0
 11
21.75367
 21
41.50734
 31
 0
 0
LINE
 8
b
 10
22.75367
 20
0
 30
0
 11
22.75367
 21
41.50734
 31
 0
 0
LINE
 8
b
 10
23.75367
 20
0
 30
0
 11
23.75367
 21
41.50734
 31
 0
 0
LINE
 8
b
 10
24.75367
 20
0
 30
0
 11
24.75367
 21
41.50734
 31
 0
 0
LINE
 8
b
 10
25.75367
 20
0
 30
0
 11
25.75367
 21
41.50734
 31
 0
 0
LINE
 8
b
 10
26.75367
 20
0
 30
0
 11
26.75367
 21
41.50734
 31
 0
 0
LINE
 8
b
 10
27.75367
 20
0
 30
0
 11
27.75367
 21
41.50734
 31
 0
 0
LINE
 8
b
 10
28.75367
 20
0
 30
0
 11
28.75367
 21
41.50734
 31
 0
 0
LINE
 8
b
 10
29.75367
 20
0
 30
0
 11
29.75367
 21
41.50734
 31
 0
 0
LINE
 8
b
 10
30.75367
 20
0
 30
0
 11
30.75367
 21
41.50734
 31
 0
 0
LINE
 8
b
 10
31.75367
 20
0
 30
0
 11
31.75367
 21
41.50734
 31
 0
 0
LINE
 8
b
 10
32.75367
 20
0
 30
0
 11
32.75367
 21
41.50734
 31
 0
 0
LINE
 8
b
 10
33.75367
 20
0
 30
0
 11
33.75367
 21
41.50734
 31
 0
 0
LINE
 8
b
 10
34.75367
 20
0
 30
0
 11
34.75367
 21
41.50734
 31
 0
 0
LINE
 8
b
 10
35.75367
 20
0
 30
0
 11
35.75367
 21
41.50734
 31
 0
 0
LINE
 8
b
 10
36.75367
 20
0
 30
0
 11
36.75367
 21
41.50734
 31
 0
 0
LINE
 8
b
 10
37.75367
 20
0
 30
0
 11
37.75367
 21
41.50734
 31
 0
 0
LINE
 8
b
 10
38.75367
 20
0
 30
0
 11
38.75367
 21
41.50734
 31
 0
 0
LINE
 8
b
 10
39.75367
 20
0
 30
0
 11
39.75367
 21
41.50734
 31
 0
 0
LINE
 8
b
 10
40.75367
 20
0
 30
0
 11
40.75367
 21
41.50734
 31
 0
 0
LINE
 8
b
 10
0
 20
0.75367
 30
0
 11
41.50734
 21
0.75367
 31
 0
 0
LINE
 8
b
 10
0
 20
1.75367
 30
0
 11
41.50734
 21
1.75367
 31
 0
 0
LINE
 8
b
 10
0
 20
2.75367
 30
0
 11
41.50734
 21
2.75367
 31
 0
 0
LINE
 8
b
 10
0
 20
3.75367
 30
0
 11
41.50734
 21
3.75367
 31
 0
 0
LINE
 8
b
 10
0
 20
4.75367
 30
0
 11
41.50734
 21
4.75367
 31
 0
 0
LINE
 8
b
 10
0
 20
5.75367
 30
0
 11
41.50734
 21
5.75367
 31
 0
 0
LINE
 8
b
 10
0
 20
6.75367
 30
0
 11
41.50734
 21
6.75367
 31
 0
 0
LINE
 8
b
 10
0
 20
7.75367
 30
0
 11
41.50734
 21
7.75367
 31
 0
 0
LINE
 8
b
 10
0
 20
8.75367
 30
0
 11
41.50734
 21
8.75367
 31
 0
 0
LINE
 8
b
 10
0
 20
9.75367
 30
0
 11
41.50734
 21
9.75367
 31
 0
 0
LINE
 8
b
 10
0
 20
10.75367
 30
0
 11
41.50734
 21
10.75367
 31
 0
 0
LINE
 8
b
 10
0
 20
11.75367
 30
0
 11
41.50734
 21
11.75367
 31
 0
 0
LINE
 8
b
 10
0
 20
12.75367
 30
0
 11
41.50734
 21
12.75367
 31
 0
 0
LINE
 8
b
 10
0
 20
13.75367
 30
0
 11
41.50734
 21
13.75367
 31
 0
 0
LINE
 8
b
 10
0
 20
14.75367
 30
0
 11
41.50734
 21
14.75367
 31
 0
 0
LINE
 8
b
 10
0
 20
15.75367
 30
0
 11
41.50734
 21
15.75367
 31
 0
 0
LINE
 8
b
 10
0
 20
16.75367
 30
0
 11
41.50734
 21
16.75367
 31
 0
 0
LINE
 8
b
 10
0
 20
17.75367
 30
0
 11
41.50734
 21
17.75367
 31
 0
 0
LINE
 8
b
 10
0
 20
18.75367
 30
0
 11
41.50734
 21
18.75367
 31
 0
 0
LINE
 8
b
 10
0
 20
19.75367
 30
0
 11
41.50734
 21
19.75367
 31
 0
 0
LINE
 8
b
 10
0
 20
20.75367
 30
0
 11
41.50734
 21
20.75367
 31
 0
 0
LINE
 8
b
 10
0
 20
21.75367
 30
0
 11
41.50734
 21
21.75367
 31
 0
 0
LINE
 8
b
 10
0
 20
22.75367
 30
0
 11
41.50734
 21
22.75367
 31
 0
 0
LINE
 8
b
 10
0
 20
23.75367
 30
0
 11
41.50734
 21
23.75367
 31
 0
 0
LINE
 8
b
 10
0
 20
24.75367
 30
0
 11
41.50734
 21
24.75367
 31
 0
 0
LINE
 8
b
 10
0
 20
25.75367
 30
0
 11
41.50734
 21
25.75367
 31
 0
 0
LINE
 8
b
 10
0
 20
26.75367
 30
0
 11
41.50734
 21
26.75367
 31
 0
 0
LINE
 8
b
 10
0
 20
27.75367
 30
0
 11
41.50734
 21
27.75367
 31
 0
 0
LINE
 8
b
 10
0
 20
28.75367
 30
0
 11
41.50734
 21
28.75367
 31
 0
 0
LINE
 8
b
 10
0
 20
29.75367
 30
0
 11
41.50734
 21
29.75367
 31
 0
 0
LINE
 8
b
 10
0
 20
30.75367
 30
0
 11
41.50734
 21
30.75367
 31
 0
 0
LINE
 8
b
 10
0
 20
31.75367
 30
0
 11
41.50734
 21
31.75367
 31
 0
 0
LINE
 8
b
 10
0
 20
32.75367
 30
0
 11
41.50734
 21
32.75367
 31
 0
 0
LINE
 8
b
 10
0
 20
33.75367
 30
0
 11
41.50734
 21
33.75367
 31
 0
 0
LINE
 8
b
 10
0
 20
34.75367
 30
0
 11
41.50734
 21
34.75367
 31
 0
 0
LINE
 8
b
 10
0
 20
35.75367
 30
0
 11
41.50734
 21
35.75367
 31
 0
 0
LINE
 8
b
 10
0
 20
36.75367
 30
0
 11
41.50734
 21
36.75367
 31
 0
 0
LINE
 8
b
 10
0
 20
37.75367
 30
0
 11
41.50734
 21
37.75367
 31
 0
 0
LINE
 8
b
 10
0
 20
38.75367
 30
0
 11
41.50734
 21
38.75367
 31
 0
 0
LINE
 8
b
 10
0
 20
39.75367
 30
0
 11
41.50734
 21
39.75367
 31
 0
 0
LINE
 8
b
 10
0
 20
40.75367
 30
0
 11
41.50734
 21
40.75367
 31
 0
  0
POLYLINE
  8
a
  66
1
  10
0.0
  20
0.0
  70
1
  0
VERTEX
  8
a
  10
1.62446
  20
18.63357
  30
0.0
  70
0
  0
VERTEX
  8
a
  10
1.56046
  20
18.64093
  30
0.0
  70
0
  0
VERTEX
  8
a
  10
1.49637
  20
18.64925
  30
0.0
  70
0
  0
VERTEX
  8
a
  10
1.36792
  20
18.66858
  30
0.0
  70
0
  0
VERTEX
  8
a
  10
1.11018
  20
18.71715
  30
0.0
  70
0
  0
VERTEX
  8
a
  10
0.85152
  20
18.77769
  30
0.0
  70
0
  0
VERTEX
  8
a
  10
0.59219
  20
18.84922
  30
0.0
  70
0
  0
VERTEX
  8
a
  10
0.3324
  20
18.93102
  30
0.0
  70
0
  0
VERTEX
  8
a
  10
0.07232
  20
19.0226
  30
0.0
  70
0
  0
VERTEX
  8
a
  10
0.01335
  20
20.00933
  30
0.0
  70
0
  0
VERTEX
  8
a
  10
0.26067
  20
20.13123
  30
0.0
  70
0
  0
VERTEX
  8
a
  10
0.50888
  20
20.24339
  30
0.0
  70
0
  0
VERTEX
  8
a
  10
0.75784
  20
20.34529
  30
0.0
  70
0
  0
VERTEX
  8
a
  10
1.00744
  20
20.43621
  30
0.0
  70
0
  0
VERTEX
  8
a
  10
1.25757
  20
20.51513
  30
0.0
  70
0
  0
VERTEX
  8
a
  10
1.3828
  20
20.54962
  30
0.0
  70
0
  0
VERTEX
  8
a
  10
1.44545
  20
20.56552
  30
0.0
  70
0
  0
VERTEX
  8
a
  10
1.50812
  20
20.58044
  30
0.0
  70
0
  0
VERTEX
  8
a
  10
1.52832
  20
21.65214
  30
0.0
  70
0
  0
VERTEX
  8
a
  10
1.46626
  20
21.66942
  30
0.0
  70
0
  0
VERTEX
  8
a
  10
1.40425
  20
21.68766
  30
0.0
  70
0
  0
VERTEX
  8
a
  10
1.28042
  20
21.72685
  30
0.0
  70
0
  0
VERTEX
  8
a
  10
1.03344
  20
21.81514
  30
0.0
  70
0
  0
VERTEX
  8
a
  10
0.78744
  20
21.9154
  30
0.0
  70
0
  0
VERTEX
  8
a
  10
0.54249
  20
22.02661
  30
0.0
  70
0
  0
VERTEX
  8
a
  10
0.29869
  20
22.14805
  30
0.0
  70
0
  0
VERTEX
  8
a
  10
0.05614
  20
22.27918
  30
0.0
  70
0
  0
VERTEX
  8
a
  10
0.15226
  20
23.26299
  30
0.0
  70
0
  0
VERTEX
  8
a
  10
0.4156
  20
23.3447
  30
0.0
  70
0
  0
VERTEX
  8
a
  10
0.6783
  20
23.41666
  30
0.0
  70
0
  0
VERTEX
  8
a
  10
0.94014
  20
23.47835
  30
0.0
  70
0
  0
VERTEX
  8
a
  10
1.20089
  20
23.52911
  30
0.0
  70
0
  0
VERTEX
  8
a
  10
1.46029
  20
23.56792
  30
0.0
  70
0
  0
VERTEX
  8
a
  10
1.58937
  20
23.58241
  30
0.0
  70
0
  0
VERTEX
  8
a
  10
1.65373
  20
23.5883
  30
0.0
  70
0
  0
VERTEX
  8
a
  10
1.71796
  20
23.59324
  30
0.0
  70
0
  0
VERTEX
  8
a
  10
1.90557
  20
24.64858
  30
0.0
  70
0
  0
VERTEX
  8
a
  10
1.84697
  20
24.67536
  30
0.0
  70
0
  0
VERTEX
  8
a
  10
1.78859
  20
24.70308
  30
0.0
  70
0
  0
VERTEX
  8
a
  10
1.6724
  20
24.76116
  30
0.0
  70
0
  0
VERTEX
  8
a
  10
1.44228
  20
24.887
  30
0.0
  70
0
  0
VERTEX
  8
a
  10
1.21499
  20
25.02451
  30
0.0
  70
0
  0
VERTEX
  8
a
  10
0.99046
  20
25.17267
  30
0.0
  70
0
  0
VERTEX
  8
a
  10
0.76866
  20
25.33075
  30
0.0
  70
0
  0
VERTEX
  8
a
  10
0.54961
  20
25.49821
  30
0.0
  70
0
  0
VERTEX
  8
a
  10
0.79844
  20
26.45487
  30
0.0
  70
0
  0
VERTEX
  8
a
  10
1.07133
  20
26.49437
  30
0.0
  70
0
  0
VERTEX
  8
a
  10
1.34204
  20
26.52435
  30
0.0
  70
0
  0
VERTEX
  8
a
  10
1.61031
  20
26.54433
  30
0.0
  70
0
  0
VERTEX
  8
a
  10
1.87579
  20
26.55367
  30
0.0
  70
0
  0
VERTEX
  8
a
  10
2.13807
  20
26.55143
  30
0.0
  70
0
  0
VERTEX
  8
a
  10
2.26782
  20
26.54554
  30
0.0
  70
0
  0
VERTEX
  8
a
  10
2.33232
  20
26.54129
  30
0.0
  70
0
  0
VERTEX
  8
a
  10
2.39653
  20
26.53612
  30
0.0
  70
0
  0
VERTEX
  8
a
  10
2.74692
  20
27.54912
  30
0.0
  70
0
  0
VERTEX
  8
a
  10
2.69323
  20
27.58474
  30
0.0
  70
0
  0
VERTEX
  8
a
  10
2.6399
  20
27.62125
  30
0.0
  70
0
  0
VERTEX
  8
a
  10
2.53423
  20
27.69679
  30
0.0
  70
0
  0
VERTEX
  8
a
  10
2.32663
  20
27.85708
  30
0.0
  70
0
  0
VERTEX
  8
a
  10
2.12365
  20
28.02845
  30
0.0
  70
0
  0
VERTEX
  8
a
  10
1.92506
  20
28.20991
  30
0.0
  70
0
  0
VERTEX
  8
a
  10
1.73072
  20
28.40074
  30
0.0
  70
0
  0
VERTEX
  8
a
  10
1.54056
  20
28.60041
  30
0.0
  70
0
  0
VERTEX
  8
a
  10
1.93599
  20
29.50636
  30
0.0
  70
0
  0
VERTEX
  8
a
  10
2.21169
  20
29.50269
  30
0.0
  70
0
  0
VERTEX
  8
a
  10
2.48376
  20
29.48995
  30
0.0
  70
0
  0
VERTEX
  8
a
  10
2.75185
  20
29.46772
  30
0.0
  70
0
  0
VERTEX
  8
a
  10
3.01553
  20
29.43541
  30
0.0
  70
0
  0
VERTEX
  8
a
  10
3.27422
  20
29.39217
  30
0.0
  70
0
  0
VERTEX
  8
a
  10
3.40146
  20
29.36605
  30
0.0
  70
0
  0
VERTEX
  8
a
  10
3.4645
  20
29.35177
  30
0.0
  70
0
  0
VERTEX
  8
a
  10
3.52711
  20
29.33662
  30
0.0
  70
0
  0
VERTEX
  8
a
  10
4.03165
  20
30.28234
  30
0.0
  70
0
  0
VERTEX
  8
a
  10
3.9842
  20
30.32591
  30
0.0
  70
0
  0
VERTEX
  8
a
  10
3.93724
  20
30.37031
  30
0.0
  70
0
  0
VERTEX
  8
a
  10
3.84469
  20
30.46145
  30
0.0
  70
0
  0
VERTEX
  8
a
  10
3.66471
  20
30.65224
  30
0.0
  70
0
  0
VERTEX
  8
a
  10
3.49104
  20
30.85326
  30
0.0
  70
0
  0
VERTEX
  8
a
  10
3.32328
  20
31.06355
  30
0.0
  70
0
  0
VERTEX
  8
a
  10
3.16119
  20
31.28244
  30
0.0
  70
0
  0
VERTEX
  8
a
  10
3.00461
  20
31.50939
  30
0.0
  70
0
  0
VERTEX
  8
a
  10
3.53689
  20
32.34234
  30
0.0
  70
0
  0
VERTEX
  8
a
  10
3.80862
  20
32.29558
  30
0.0
  70
0
  0
VERTEX
  8
a
  10
4.07535
  20
32.24044
  30
0.0
  70
0
  0
VERTEX
  8
a
  10
4.33666
  20
32.17654
  30
0.0
  70
0
  0
VERTEX
  8
a
  10
4.59204
  20
32.10338
  30
0.0
  70
0
  0
VERTEX
  8
a
  10
4.84078
  20
32.0202
  30
0.0
  70
0
  0
VERTEX
  8
a
  10
4.96237
  20
31.9745
  30
0.0
  70
0
  0
VERTEX
  8
a
  10
5.0224
  20
31.95054
  30
0.0
  70
0
  0
VERTEX
  8
a
  10
5.08187
  20
31.92578
  30
0.0
  70
0
  0
VERTEX
  8
a
  10
5.72814
  20
32.78092
  30
0.0
  70
0
  0
VERTEX
  8
a
  10
5.68809
  20
32.83138
  30
0.0
  70
0
  0
VERTEX
  8
a
  10
5.64865
  20
32.88258
  30
0.0
  70
0
  0
VERTEX
  8
a
  10
5.5715
  20
32.98708
  30
0.0
  70
0
  0
VERTEX
  8
a
  10
5.42358
  20
33.20368
  30
0.0
  70
0
  0
VERTEX
  8
a
  10
5.2835
  20
33.42939
  30
0.0
  70
0
  0
VERTEX
  8
a
  10
5.1507
  20
33.66333
  30
0.0
  70
0
  0
VERTEX
  8
a
  10
5.02485
  20
33.90488
  30
0.0
  70
0
  0
VERTEX
  8
a
  10
4.90569
  20
34.15354
  30
0.0
  70
0
  0
VERTEX
  8
a
  10
5.56172
  20
34.89296
  30
0.0
  70
0
  0
VERTEX
  8
a
  10
5.8228
  20
34.80427
  30
0.0
  70
0
  0
VERTEX
  8
a
  10
6.07762
  20
34.70808
  30
0.0
  70
0
  0
VERTEX
  8
a
  10
6.32571
  20
34.60409
  30
0.0
  70
0
  0
VERTEX
  8
a
  10
6.5665
  20
34.49188
  30
0.0
  70
0
  0
VERTEX
  8
a
  10
6.79917
  20
34.37082
  30
0.0
  70
0
  0
VERTEX
  8
a
  10
6.91211
  20
34.30666
  30
0.0
  70
0
  0
VERTEX
  8
a
  10
6.96765
  20
34.2736
  30
0.0
  70
0
  0
VERTEX
  8
a
  10
7.02252
  20
34.23984
  30
0.0
  70
0
  0
VERTEX
  8
a
  10
7.79461
  20
34.98336
  30
0.0
  70
0
  0
VERTEX
  8
a
  10
7.76294
  20
35.03946
  30
0.0
  70
0
  0
VERTEX
  8
a
  10
7.732
  20
35.0962
  30
0.0
  70
0
  0
VERTEX
  8
a
  10
7.67214
  20
35.21148
  30
0.0
  70
0
  0
VERTEX
  8
a
  10
7.55993
  20
35.44855
  30
0.0
  70
0
  0
VERTEX
  8
a
  10
7.45688
  20
35.6934
  30
0.0
  70
0
  0
VERTEX
  8
a
  10
7.36232
  20
35.94524
  30
0.0
  70
0
  0
VERTEX
  8
a
  10
7.2758
  20
36.2035
  30
0.0
  70
0
  0
VERTEX
  8
a
  10
7.19701
  20
36.46773
  30
0.0
  70
0
  0
VERTEX
  8
a
  10
7.96063
  20
37.09542
  30
0.0
  70
0
  0
VERTEX
  8
a
  10
8.20462
  20
36.96699
  30
0.0
  70
0
  0
VERTEX
  8
a
  10
8.44125
  20
36.83212
  30
0.0
  70
0
  0
VERTEX
  8
a
  10
8.67003
  20
36.6906
  30
0.0
  70
0
  0
VERTEX
  8
a
  10
8.8903
  20
36.5421
  30
0.0
  70
0
  0
VERTEX
  8
a
  10
9.10117
  20
36.38613
  30
0.0
  70
0
  0
VERTEX
  8
a
  10
9.20268
  20
36.3051
  30
0.0
  70
0
  0
VERTEX
  8
a
  10
9.25236
  20
36.26375
  30
0.0
  70
0
  0
VERTEX
  8
a
  10
9.30127
  20
36.22183
  30
0.0
  70
0
  0
VERTEX
  8
a
  10
10.18017
  20
36.83541
  30
0.0
  70
0
  0
VERTEX
  8
a
  10
10.15767
  20
36.89577
  30
0.0
  70
0
  0
VERTEX
  8
a
  10
10.13598
  20
36.95666
  30
0.0
  70
0
  0
VERTEX
  8
a
  10
10.0949
  20
37.07988
  30
0.0
  70
0
  0
VERTEX
  8
a
  10
10.02116
  20
37.33159
  30
0.0
  70
0
  0
VERTEX
  8
a
  10
9.95768
  20
37.58954
  30
0.0
  70
0
  0
VERTEX
  8
a
  10
9.90367
  20
37.85307
  30
0.0
  70
0
  0
VERTEX
  8
a
  10
9.85862
  20
38.12169
  30
0.0
  70
0
  0
VERTEX
  8
a
  10
9.82214
  20
38.39499
  30
0.0
  70
0
  0
VERTEX
  8
a
  10
10.67455
  20
38.8955
  30
0.0
  70
0
  0
VERTEX
  8
a
  10
10.89544
  20
38.73048
  30
0.0
  70
0
  0
VERTEX
  8
a
  10
11.10806
  20
38.56025
  30
0.0
  70
0
  0
VERTEX
  8
a
  10
11.31188
  20
38.38468
  30
0.0
  70
0
  0
VERTEX
  8
a
  10
11.50621
  20
38.20356
  30
0.0
  70
0
  0
VERTEX
  8
a
  10
11.69008
  20
38.01652
  30
0.0
  70
0
  0
VERTEX
  8
a
  10
11.77767
  20
37.9206
  30
0.0
  70
0
  0
VERTEX
  8
a
  10
11.82027
  20
37.872
  30
0.0
  70
0
  0
VERTEX
  8
a
  10
11.86203
  20
37.82294
  30
0.0
  70
0
  0
VERTEX
  8
a
  10
12.82608
  20
38.29148
  30
0.0
  70
0
  0
VERTEX
  8
a
  10
12.81331
  20
38.35462
  30
0.0
  70
0
  0
VERTEX
  8
a
  10
12.80141
  20
38.41815
  30
0.0
  70
0
  0
VERTEX
  8
a
  10
12.78011
  20
38.54628
  30
0.0
  70
0
  0
VERTEX
  8
a
  10
12.74665
  20
38.80642
  30
0.0
  70
0
  0
VERTEX
  8
a
  10
12.7243
  20
39.07113
  30
0.0
  70
0
  0
VERTEX
  8
a
  10
12.71219
  20
39.33986
  30
0.0
  70
0
  0
VERTEX
  8
a
  10
12.70971
  20
39.61222
  30
0.0
  70
0
  0
VERTEX
  8
a
  10
12.71643
  20
39.88787
  30
0.0
  70
0
  0
VERTEX
  8
a
  10
13.63665
  20
40.24887
  30
0.0
  70
0
  0
VERTEX
  8
a
  10
13.82901
  20
40.05132
  30
0.0
  70
0
  0
VERTEX
  8
a
  10
14.01238
  20
39.84993
  30
0.0
  70
0
  0
VERTEX
  8
a
  10
14.18623
  20
39.64464
  30
0.0
  70
0
  0
VERTEX
  8
a
  10
14.34983
  20
39.43534
  30
0.0
  70
0
  0
VERTEX
  8
a
  10
14.50218
  20
39.22184
  30
0.0
  70
0
  0
VERTEX
  8
a
  10
14.57368
  20
39.11341
  30
0.0
  70
0
  0
VERTEX
  8
a
  10
14.60816
  20
39.05873
  30
0.0
  70
0
  0
VERTEX
  8
a
  10
14.64172
  20
39.00375
  30
0.0
  70
0
  0
VERTEX
  8
a
  10
15.6672
  20
39.3157
  30
0.0
  70
0
  0
VERTEX
  8
a
  10
15.66446
  20
39.38007
  30
0.0
  70
0
  0
VERTEX
  8
a
  10
15.66265
  20
39.44467
  30
0.0
  70
0
  0
VERTEX
  8
a
  10
15.66165
  20
39.57456
  30
0.0
  70
0
  0
VERTEX
  8
a
  10
15.6693
  20
39.83673
  30
0.0
  70
0
  0
VERTEX
  8
a
  10
15.68864
  20
40.10168
  30
0.0
  70
0
  0
VERTEX
  8
a
  10
15.71871
  20
40.369
  30
0.0
  70
0
  0
VERTEX
  8
a
  10
15.75887
  20
40.63839
  30
0.0
  70
0
  0
VERTEX
  8
a
  10
15.80863
  20
40.90959
  30
0.0
  70
0
  0
VERTEX
  8
a
  10
16.77399
  20
41.1222
  30
0.0
  70
0
  0
VERTEX
  8
a
  10
16.93308
  20
40.89699
  30
0.0
  70
0
  0
VERTEX
  8
a
  10
17.08269
  20
40.66939
  30
0.0
  70
0
  0
VERTEX
  8
a
  10
17.22228
  20
40.43943
  30
0.0
  70
0
  0
VERTEX
  8
a
  10
17.35113
  20
40.20712
  30
0.0
  70
0
  0
VERTEX
  8
a
  10
17.4682
  20
39.97242
  30
0.0
  70
0
  0
VERTEX
  8
a
  10
17.52186
  20
39.85413
  30
0.0
  70
0
  0
VERTEX
  8
a
  10
17.54736
  20
39.79474
  30
0.0
  70
0
  0
VERTEX
  8
a
  10
17.57191
  20
39.73518
  30
0.0
  70
0
  0
VERTEX
  8
a
  10
18.63357
  20
39.88287
  30
0.0
  70
0
  0
VERTEX
  8
a
  10
18.64093
  20
39.94687
  30
0.0
  70
0
  0
VERTEX
  8
a
  10
18.64925
  20
40.01097
  30
0.0
  70
0
  0
VERTEX
  8
a
  10
18.66858
  20
40.13941
  30
0.0
  70
0
  0
VERTEX
  8
a
  10
18.71715
  20
40.39716
  30
0.0
  70
0
  0
VERTEX
  8
a
  10
18.77769
  20
40.65582
  30
0.0
  70
0
  0
VERTEX
  8
a
  10
18.84922
  20
40.91514
  30
0.0
  70
0
  0
VERTEX
  8
a
  10
18.93102
  20
41.17494
  30
0.0
  70
0
  0
VERTEX
  8
a
  10
19.0226
  20
41.43502
  30
0.0
  70
0
  0
VERTEX
  8
a
  10
20.00933
  20
41.49398
  30
0.0
  70
0
  0
VERTEX
  8
a
  10
20.13123
  20
41.24666
  30
0.0
  70
0
  0
VERTEX
  8
a
  10
20.24339
  20
40.99846
  30
0.0
  70
0
  0
VERTEX
  8
a
  10
20.34529
  20
40.7495
  30
0.0
  70
0
  0
VERTEX
  8
a
  10
20.43621
  20
40.49989
  30
0.0
  70
0
  0
VERTEX
  8
a
  10
20.51513
  20
40.24976
  30
0.0
  70
0
  0
VERTEX
  8
a
  10
20.54962
  20
40.12454
  30
0.0
  70
0
  0
VERTEX
  8
a
  10
20.56552
  20
40.06189
  30
0.0
  70
0
  0
VERTEX
  8
a
  10
20.58044
  20
39.99922
  30
0.0
  70
0
  0
VERTEX
  8
a
  10
21.65214
  20
39.97902
  30
0.0
  70
0
  0
VERTEX
  8
a
  10
21.66942
  20
40.04108
  30
0.0
  70
0
  0
VERTEX
  8
a
  10
21.68766
  20
40.10308
  30
0.0
  70
0
  0
VERTEX
  8
a
  10
21.72685
  20
40.22692
  30
0.0
  70
0
  0
VERTEX
  8
a
  10
21.81514
  20
40.4739
  30
0.0
  70
0
  0
VERTEX
  8
a
  10
21.9154
  20
40.7199
  30
0.0
  70
0
  0
VERTEX
  8
a
  10
22.02661
  20
40.96484
  30
0.0
  70
0
  0
VERTEX
  8
a
  10
22.14805
  20
41.20864
  30
0.0
  70
0
  0
VERTEX
  8
a
  10
22.27918
  20
41.45119
  30
0.0
  70
0
  0
VERTEX
  8
a
  10
23.26299
  20
41.35508
  30
0.0
  70
0
  0
VERTEX
  8
a
  10
23.3447
  20
41.09173
  30
0.0
  70
0
  0
VERTEX
  8
a
  10
23.41666
  20
40.82904
  30
0.0
  70
0
  0
VERTEX
  8
a
  10
23.47835
  20
40.5672
  30
0.0
  70
0
  0
VERTEX
  8
a
  10
23.52911
  20
40.30645
  30
0.0
  70
0
  0
VERTEX
  8
a
  10
23.56792
  20
40.04705
  30
0.0
  70
0
  0
VERTEX
  8
a
  10
23.58241
  20
39.91797
  30
0.0
  70
0
  0
VERTEX
  8
a
  10
23.5883
  20
39.85361
  30
0.0
  70
0
  0
VERTEX
  8
a
  10
23.59324
  20
39.78937
  30
0.0
  70
0
  0
VERTEX
  8
a
  10
24.64858
  20
39.60177
  30
0.0
  70
0
  0
VERTEX
  8
a
  10
24.67536
  20
39.66036
  30
0.0
  70
0
  0
VERTEX
  8
a
  10
24.70308
  20
39.71875
  30
0.0
  70
0
  0
VERTEX
  8
a
  10
24.76116
  20
39.83493
  30
0.0
  70
0
  0
VERTEX
  8
a
  10
24.887
  20
40.06506
  30
0.0
  70
0
  0
VERTEX
  8
a
  10
25.02451
  20
40.29235
  30
0.0
  70
0
  0
VERTEX
  8
a
  10
25.17267
  20
40.51688
  30
0.0
  70
0
  0
VERTEX
  8
a
  10
25.33075
  20
40.73868
  30
0.0
  70
0
  0
VERTEX
  8
a
  10
25.49821
  20
40.95773
  30
0.0
  70
0
  0
VERTEX
  8
a
  10
26.45487
  20
40.70889
  30
0.0
  70
0
  0
VERTEX
  8
a
  10
26.49437
  20
40.43601
  30
0.0
  70
0
  0
VERTEX
  8
a
  10
26.52435
  20
40.16529
  30
0.0
  70
0
  0
VERTEX
  8
a
  10
26.54433
  20
39.89703
  30
0.0
  70
0
  0
VERTEX
  8
a
  10
26.55367
  20
39.63155
  30
0.0
  70
0
  0
VERTEX
  8
a
  10
26.55143
  20
39.36927
  30
0.0
  70
0
  0
VERTEX
  8
a
  10
26.54554
  20
39.23951
  30
0.0
  70
0
  0
VERTEX
  8
a
  10
26.54129
  20
39.17502
  30
0.0
  70
0
  0
VERTEX
  8
a
  10
26.53612
  20
39.11081
  30
0.0
  70
0
  0
VERTEX
  8
a
  10
27.54912
  20
38.76042
  30
0.0
  70
0
  0
VERTEX
  8
a
  10
27.58474
  20
38.8141
  30
0.0
  70
0
  0
VERTEX
  8
a
  10
27.62125
  20
38.86744
  30
0.0
  70
0
  0
VERTEX
  8
a
  10
27.69679
  20
38.9731
  30
0.0
  70
0
  0
VERTEX
  8
a
  10
27.85708
  20
39.18071
  30
0.0
  70
0
  0
VERTEX
  8
a
  10
28.02845
  20
39.38369
  30
0.0
  70
0
  0
VERTEX
  8
a
  10
28.20991
  20
39.58228
  30
0.0
  70
0
  0
VERTEX
  8
a
  10
28.40074
  20
39.77662
  30
0.0
  70
0
  0
VERTEX
  8
a
  10
28.60041
  20
39.96677
  30
0.0
  70
0
  0
VERTEX
  8
a
  10
29.50636
  20
39.57135
  30
0.0
  70
0
  0
VERTEX
  8
a
  10
29.50269
  20
39.29564
  30
0.0
  70
0
  0
VERTEX
  8
a
  10
29.48995
  20
39.02357
  30
0.0
  70
0
  0
VERTEX
  8
a
  10
29.46772
  20
38.75548
  30
0.0
  70
0
  0
VERTEX
  8
a
  10
29.43541
  20
38.49181
  30
0.0
  70
0
  0
VERTEX
  8
a
  10
29.39217
  20
38.23311
  30
0.0
  70
0
  0
VERTEX
  8
a
  10
29.36605
  20
38.10587
  30
0.0
  70
0
  0
VERTEX
  8
a
  10
29.35177
  20
38.04284
  30
0.0
  70
0
  0
VERTEX
  8
a
  10
29.33662
  20
37.98022
  30
0.0
  70
0
  0
VERTEX
  8
a
  10
30.28234
  20
37.47568
  30
0.0
  70
0
  0
VERTEX
  8
a
  10
30.32591
  20
37.52313
  30
0.0
  70
0
  0
VERTEX
  8
a
  10
30.37031
  20
37.5701
  30
0.0
  70
0
  0
VERTEX
  8
a
  10
30.46145
  20
37.66265
  30
0.0
  70
0
  0
VERTEX
  8
a
  10
30.65224
  20
37.84262
  30
0.0
  70
0
  0
VERTEX
  8
a
  10
30.85326
  20
38.01629
  30
0.0
  70
0
  0
VERTEX
  8
a
  10
31.06355
  20
38.18405
  30
0.0
  70
0
  0
VERTEX
  8
a
  10
31.28244
  20
38.34615
  30
0.0
  70
0
  0
VERTEX
  8
a
  10
31.50939
  20
38.50273
  30
0.0
  70
0
  0
VERTEX
  8
a
  10
32.34234
  20
37.97045
  30
0.0
  70
0
  0
VERTEX
  8
a
  10
32.29558
  20
37.69871
  30
0.0
  70
0
  0
VERTEX
  8
a
  10
32.24044
  20
37.43198
  30
0.0
  70
0
  0
VERTEX
  8
a
  10
32.17654
  20
37.17067
  30
0.0
  70
0
  0
VERTEX
  8
a
  10
32.10338
  20
36.9153
  30
0.0
  70
0
  0
VERTEX
  8
a
  10
32.0202
  20
36.66655
  30
0.0
  70
0
  0
VERTEX
  8
a
  10
31.9745
  20
36.54496
  30
0.0
  70
0
  0
VERTEX
  8
a
  10
31.95054
  20
36.48494
  30
0.0
  70
0
  0
VERTEX
  8
a
  10
31.92578
  20
36.42547
  30
0.0
  70
0
  0
VERTEX
  8
a
  10
32.78092
  20
35.77919
  30
0.0
  70
0
  0
VERTEX
  8
a
  10
32.83138
  20
35.81925
  30
0.0
  70
0
  0
VERTEX
  8
a
  10
32.88258
  20
35.85869
  30
0.0
  70
0
  0
VERTEX
  8
a
  10
32.98708
  20
35.93584
  30
0.0
  70
0
  0
VERTEX
  8
a
  10
33.20368
  20
36.08375
  30
0.0
  70
0
  0
VERTEX
  8
a
  10
33.42939
  20
36.22384
  30
0.0
  70
0
  0
VERTEX
  8
a
  10
33.66333
  20
36.35663
  30
0.0
  70
0
  0
VERTEX
  8
a
  10
33.90488
  20
36.48249
  30
0.0
  70
0
  0
VERTEX
  8
a
  10
34.15354
  20
36.60164
  30
0.0
  70
0
  0
VERTEX
  8
a
  10
34.89296
  20
35.94561
  30
0.0
  70
0
  0
VERTEX
  8
a
  10
34.80427
  20
35.68454
  30
0.0
  70
0
  0
VERTEX
  8
a
  10
34.70808
  20
35.42972
  30
0.0
  70
0
  0
VERTEX
  8
a
  10
34.60409
  20
35.18162
  30
0.0
  70
0
  0
VERTEX
  8
a
  10
34.49188
  20
34.94084
  30
0.0
  70
0
  0
VERTEX
  8
a
  10
34.37082
  20
34.70816
  30
0.0
  70
0
  0
VERTEX
  8
a
  10
34.30666
  20
34.59522
  30
0.0
  70
0
  0
VERTEX
  8
a
  10
34.2736
  20
34.53969
  30
0.0
  70
0
  0
VERTEX
  8
a
  10
34.23984
  20
34.48482
  30
0.0
  70
0
  0
VERTEX
  8
a
  10
34.98336
  20
33.71273
  30
0.0
  70
0
  0
VERTEX
  8
a
  10
35.03946
  20
33.74439
  30
0.0
  70
0
  0
VERTEX
  8
a
  10
35.0962
  20
33.77534
  30
0.0
  70
0
  0
VERTEX
  8
a
  10
35.21148
  20
33.83519
  30
0.0
  70
0
  0
VERTEX
  8
a
  10
35.44855
  20
33.9474
  30
0.0
  70
0
  0
VERTEX
  8
a
  10
35.6934
  20
34.05045
  30
0.0
  70
0
  0
VERTEX
  8
a
  10
35.94524
  20
34.14502
  30
0.0
  70
0
  0
VERTEX
  8
a
  10
36.2035
  20
34.23154
  30
0.0
  70
0
  0
VERTEX
  8
a
  10
36.46773
  20
34.31033
  30
0.0
  70
0
  0
VERTEX
  8
a
  10
37.09542
  20
33.5467
  30
0.0
  70
0
  0
VERTEX
  8
a
  10
36.96699
  20
33.30271
  30
0.0
  70
0
  0
VERTEX
  8
a
  10
36.83212
  20
33.06608
  30
0.0
  70
0
  0
VERTEX
  8
a
  10
36.6906
  20
32.83731
  30
0.0
  70
0
  0
VERTEX
  8
a
  10
36.5421
  20
32.61704
  30
0.0
  70
0
  0
VERTEX
  8
a
  10
36.38613
  20
32.40617
  30
0.0
  70
0
  0
VERTEX
  8
a
  10
36.3051
  20
32.30466
  30
0.0
  70
0
  0
VERTEX
  8
a
  10
36.26375
  20
32.25497
  30
0.0
  70
0
  0
VERTEX
  8
a
  10
36.22183
  20
32.20606
  30
0.0
  70
0
  0
VERTEX
  8
a
  10
36.83541
  20
31.32717
  30
0.0
  70
0
  0
VERTEX
  8
a
  10
36.89577
  20
31.34967
  30
0.0
  70
0
  0
VERTEX
  8
a
  10
36.95666
  20
31.37135
  30
0.0
  70
0
  0
VERTEX
  8
a
  10
37.07988
  20
31.41244
  30
0.0
  70
0
  0
VERTEX
  8
a
  10
37.33159
  20
31.48618
  30
0.0
  70
0
  0
VERTEX
  8
a
  10
37.58954
  20
31.54966
  30
0.0
  70
0
  0
VERTEX
  8
a
  10
37.85307
  20
31.60366
  30
0.0
  70
0
  0
VERTEX
  8
a
  10
38.12169
  20
31.64872
  30
0.0
  70
0
  0
VERTEX
  8
a
  10
38.39499
  20
31.6852
  30
0.0
  70
0
  0
VERTEX
  8
a
  10
38.8955
  20
30.83279
  30
0.0
  70
0
  0
VERTEX
  8
a
  10
38.73048
  20
30.61189
  30
0.0
  70
0
  0
VERTEX
  8
a
  10
38.56025
  20
30.39927
  30
0.0
  70
0
  0
VERTEX
  8
a
  10
38.38468
  20
30.19545
  30
0.0
  70
0
  0
VERTEX
  8
a
  10
38.20356
  20
30.00113
  30
0.0
  70
0
  0
VERTEX
  8
a
  10
38.01652
  20
29.81725
  30
0.0
  70
0
  0
VERTEX
  8
a
  10
37.9206
  20
29.72966
  30
0.0
  70
0
  0
VERTEX
  8
a
  10
37.872
  20
29.68706
  30
0.0
  70
0
  0
VERTEX
  8
a
  10
37.82294
  20
29.64531
  30
0.0
  70
0
  0
VERTEX
  8
a
  10
38.29148
  20
28.68125
  30
0.0
  70
0
  0
VERTEX
  8
a
  10
38.35462
  20
28.69403
  30
0.0
  70
0
  0
VERTEX
  8
a
  10
38.41815
  20
28.70593
  30
0.0
  70
0
  0
VERTEX
  8
a
  10
38.54628
  20
28.72723
  30
0.0
  70
0
  0
VERTEX
  8
a
  10
38.80642
  20
28.76069
  30
0.0
  70
0
  0
VERTEX
  8
a
  10
39.07113
  20
28.78303
  30
0.0
  70
0
  0
VERTEX
  8
a
  10
39.33986
  20
28.79515
  30
0.0
  70
0
  0
VERTEX
  8
a
  10
39.61222
  20
28.79763
  30
0.0
  70
0
  0
VERTEX
  8
a
  10
39.88787
  20
28.7909
  30
0.0
  70
0
  0
VERTEX
  8
a
  10
40.24887
  20
27.87069
  30
0.0
  70
0
  0
VERTEX
  8
a
  10
40.05132
  20
27.67833
  30
0.0
  70
0
  0
VERTEX
  8
a
  10
39.84993
  20
27.49496
  30
0.0
  70
0
  0
VERTEX
  8
a
  10
39.64464
  20
27.32111
  30
0.0
  70
0
  0
VERTEX
  8
a
  10
39.43534
  20
27.15751
  30
0.0
  70
0
  0
VERTEX
  8
a
  10
39.22184
  20
27.00516
  30
0.0
  70
0
  0
VERTEX
  8
a
  10
39.11341
  20
26.93365
  30
0.0
  70
0
  0
VERTEX
  8
a
  10
39.05873
  20
26.89918
  30
0.0
  70
0
  0
VERTEX
  8
a
  10
39.00375
  20
26.86562
  30
0.0
  70
0
  0
VERTEX
  8
a
  10
39.3157
  20
25.84013
  30
0.0
  70
0
  0
VERTEX
  8
a
  10
39.38007
  20
25.84288
  30
0.0
  70
0
  0
VERTEX
  8
a
  10
39.44467
  20
25.84469
  30
0.0
  70
0
  0
VERTEX
  8
a
  10
39.57456
  20
25.84568
  30
0.0
  70
0
  0
VERTEX
  8
a
  10
39.83673
  20
25.83803
  30
0.0
  70
0
  0
VERTEX
  8
a
  10
40.10168
  20
25.8187
  30
0.0
  70
0
  0
VERTEX
  8
a
  10
40.369
  20
25.78862
  30
0.0
  70
0
  0
VERTEX
  8
a
  10
40.63839
  20
25.74846
  30
0.0
  70
0
  0
VERTEX
  8
a
  10
40.90959
  20
25.6987
  30
0.0
  70
0
  0
VERTEX
  8
a
  10
41.1222
  20
24.73334
  30
0.0
  70
0
  0
VERTEX
  8
a
  10
40.89699
  20
24.57426
  30
0.0
  70
0
  0
VERTEX
  8
a
  10
40.66939
  20
24.42465
  30
0.0
  70
0
  0
VERTEX
  8
a
  10
40.43943
  20
24.28506
  30
0.0
  70
0
  0
VERTEX
  8
a
  10
40.20712
  20
24.15621
  30
0.0
  70
0
  0
VERTEX
  8
a
  10
39.97242
  20
24.03913
  30
0.0
  70
0
  0
VERTEX
  8
a
  10
39.85413
  20
23.98547
  30
0.0
  70
0
  0
VERTEX
  8
a
  10
39.79474
  20
23.95998
  30
0.0
  70
0
  0
VERTEX
  8
a
  10
39.73518
  20
23.93543
  30
0.0
  70
0
  0
VERTEX
  8
a
  10
39.88287
  20
22.87377
  30
0.0
  70
0
  0
VERTEX
  8
a
  10
39.94687
  20
22.86641
  30
0.0
  70
0
  0
VERTEX
  8
a
  10
40.01097
  20
22.85809
  30
0.0
  70
0
  0
VERTEX
  8
a
  10
40.13941
  20
22.83875
  30
0.0
  70
0
  0
VERTEX
  8
a
  10
40.39716
  20
22.79019
  30
0.0
  70
0
  0
VERTEX
  8
a
  10
40.65582
  20
22.72964
  30
0.0
  70
0
  0
VERTEX
  8
a
  10
40.91514
  20
22.65812
  30
0.0
  70
0
  0
VERTEX
  8
a
  10
41.17494
  20
22.57631
  30
0.0
  70
0
  0
VERTEX
  8
a
  10
41.43502
  20
22.48474
  30
0.0
  70
0
  0
VERTEX
  8
a
  10
41.49398
  20
21.49801
  30
0.0
  70
0
  0
VERTEX
  8
a
  10
41.24666
  20
21.37611
  30
0.0
  70
0
  0
VERTEX
  8
a
  10
40.99846
  20
21.26395
  30
0.0
  70
0
  0
VERTEX
  8
a
  10
40.7495
  20
21.16205
  30
0.0
  70
0
  0
VERTEX
  8
a
  10
40.49989
  20
21.07113
  30
0.0
  70
0
  0
VERTEX
  8
a
  10
40.24976
  20
20.99221
  30
0.0
  70
0
  0
VERTEX
  8
a
  10
40.12454
  20
20.95771
  30
0.0
  70
0
  0
VERTEX
  8
a
  10
40.06189
  20
20.94182
  30
0.0
  70
0
  0
VERTEX
  8
a
  10
39.99922
  20
20.92689
  30
0.0
  70
0
  0
VERTEX
  8
a
  10
39.97902
  20
19.8552
  30
0.0
  70
0
  0
VERTEX
  8
a
  10
40.04108
  20
19.83792
  30
0.0
  70
0
  0
VERTEX
  8
a
  10
40.10308
  20
19.81968
  30
0.0
  70
0
  0
VERTEX
  8
a
  10
40.22692
  20
19.78048
  30
0.0
  70
0
  0
VERTEX
  8
a
  10
40.4739
  20
19.6922
  30
0.0
  70
0
  0
VERTEX
  8
a
  10
40.7199
  20
19.59193
  30
0.0
  70
0
  0
VERTEX
  8
a
  10
40.96484
  20
19.48072
  30
0.0
  70
0
  0
VERTEX
  8
a
  10
41.20864
  20
19.35928
  30
0.0
  70
0
  0
VERTEX
  8
a
  10
41.45119
  20
19.22815
  30
0.0
  70
0
  0
VERTEX
  8
a
  10
41.35508
  20
18.24434
  30
0.0
  70
0
  0
VERTEX
  8
a
  10
41.09173
  20
18.16264
  30
0.0
  70
0
  0
VERTEX
  8
a
  10
40.82904
  20
18.09068
  30
0.0
  70
0
  0
VERTEX
  8
a
  10
40.5672
  20
18.02898
  30
0.0
  70
0
  0
VERTEX
  8
a
  10
40.30645
  20
17.97823
  30
0.0
  70
0
  0
VERTEX
  8
a
  10
40.04705
  20
17.93941
  30
0.0
  70
0
  0
VERTEX
  8
a
  10
39.91797
  20
17.92493
  30
0.0
  70
0
  0
VERTEX
  8
a
  10
39.85361
  20
17.91903
  30
0.0
  70
0
  0
VERTEX
  8
a
  10
39.78937
  20
17.91409
  30
0.0
  70
0
  0
VERTEX
  8
a
  10
39.60177
  20
16.85875
  30
0.0
  70
0
  0
VERTEX
  8
a
  10
39.66036
  20
16.83198
  30
0.0
  70
0
  0
VERTEX
  8
a
  10
39.71875
  20
16.80426
  30
0.0
  70
0
  0
VERTEX
  8
a
  10
39.83493
  20
16.74618
  30
0.0
  70
0
  0
VERTEX
  8
a
  10
40.06506
  20
16.62034
  30
0.0
  70
0
  0
VERTEX
  8
a
  10
40.29235
  20
16.48283
  30
0.0
  70
0
  0
VERTEX
  8
a
  10
40.51688
  20
16.33467
  30
0.0
  70
0
  0
VERTEX
  8
a
  10
40.73868
  20
16.17659
  30
0.0
  70
0
  0
VERTEX
  8
a
  10
40.95773
  20
16.00913
  30
0.0
  70
0
  0
VERTEX
  8
a
  10
40.70889
  20
15.05247
  30
0.0
  70
0
  0
VERTEX
  8
a
  10
40.43601
  20
15.01296
  30
0.0
  70
0
  0
VERTEX
  8
a
  10
40.16529
  20
14.98299
  30
0.0
  70
0
  0
VERTEX
  8
a
  10
39.89703
  20
14.96301
  30
0.0
  70
0
  0
VERTEX
  8
a
  10
39.63155
  20
14.95367
  30
0.0
  70
0
  0
VERTEX
  8
a
  10
39.36927
  20
14.95591
  30
0.0
  70
0
  0
VERTEX
  8
a
  10
39.23951
  20
14.9618
  30
0.0
  70
0
  0
VERTEX
  8
a
  10
39.17502
  20
14.96604
  30
0.0
  70
0
  0
VERTEX
  8
a
  10
39.11081
  20
14.97121
  30
0.0
  70
0
  0
VERTEX
  8
a
  10
38.76042
  20
13.95821
  30
0.0
  70
0
  0
VERTEX
  8
a
  10
38.8141
  20
13.9226
  30
0.0
  70
0
  0
VERTEX
  8
a
  10
38.86744
  20
13.88609
  30
0.0
  70
0
  0
VERTEX
  8
a
  10
38.9731
  20
13.81055
  30
0.0
  70
0
  0
VERTEX
  8
a
  10
39.18071
  20
13.65026
  30
0.0
  70
0
  0
VERTEX
  8
a
  10
39.38369
  20
13.47889
  30
0.0
  70
0
  0
VERTEX
  8
a
  10
39.58228
  20
13.29743
  30
0.0
  70
0
  0
VERTEX
  8
a
  10
39.77662
  20
13.10659
  30
0.0
  70
0
  0
VERTEX
  8
a
  10
39.96677
  20
12.90693
  30
0.0
  70
0
  0
VERTEX
  8
a
  10
39.57135
  20
12.00097
  30
0.0
  70
0
  0
VERTEX
  8
a
  10
39.29564
  20
12.00464
  30
0.0
  70
0
  0
VERTEX
  8
a
  10
39.02357
  20
12.01739
  30
0.0
  70
0
  0
VERTEX
  8
a
  10
38.75548
  20
12.03962
  30
0.0
  70
0
  0
VERTEX
  8
a
  10
38.49181
  20
12.07193
  30
0.0
  70
0
  0
VERTEX
  8
a
  10
38.23311
  20
12.11517
  30
0.0
  70
0
  0
VERTEX
  8
a
  10
38.10587
  20
12.14128
  30
0.0
  70
0
  0
VERTEX
  8
a
  10
38.04284
  20
12.15556
  30
0.0
  70
0
  0
VERTEX
  8
a
  10
37.98022
  20
12.17071
  30
0.0
  70
0
  0
VERTEX
  8
a
  10
37.47568
  20
11.225
  30
0.0
  70
0
  0
VERTEX
  8
a
  10
37.52313
  20
11.18143
  30
0.0
  70
0
  0
VERTEX
  8
a
  10
37.5701
  20
11.13702
  30
0.0
  70
0
  0
VERTEX
  8
a
  10
37.66265
  20
11.04588
  30
0.0
  70
0
  0
VERTEX
  8
a
  10
37.84262
  20
10.85509
  30
0.0
  70
0
  0
VERTEX
  8
a
  10
38.01629
  20
10.65408
  30
0.0
  70
0
  0
VERTEX
  8
a
  10
38.18405
  20
10.44378
  30
0.0
  70
0
  0
VERTEX
  8
a
  10
38.34615
  20
10.2249
  30
0.0
  70
0
  0
VERTEX
  8
a
  10
38.50273
  20
9.99794
  30
0.0
  70
0
  0
VERTEX
  8
a
  10
37.97045
  20
9.165
  30
0.0
  70
0
  0
VERTEX
  8
a
  10
37.69871
  20
9.21175
  30
0.0
  70
0
  0
VERTEX
  8
a
  10
37.43198
  20
9.2669
  30
0.0
  70
0
  0
VERTEX
  8
a
  10
37.17067
  20
9.3308
  30
0.0
  70
0
  0
VERTEX
  8
a
  10
36.9153
  20
9.40396
  30
0.0
  70
0
  0
VERTEX
  8
a
  10
36.66655
  20
9.48713
  30
0.0
  70
0
  0
VERTEX
  8
a
  10
36.54496
  20
9.53283
  30
0.0
  70
0
  0
VERTEX
  8
a
  10
36.48494
  20
9.5568
  30
0.0
  70
0
  0
VERTEX
  8
a
  10
36.42547
  20
9.58156
  30
0.0
  70
0
  0
VERTEX
  8
a
  10
35.77919
  20
8.72641
  30
0.0
  70
0
  0
VERTEX
  8
a
  10
35.81925
  20
8.67596
  30
0.0
  70
0
  0
VERTEX
  8
a
  10
35.85869
  20
8.62475
  30
0.0
  70
0
  0
VERTEX
  8
a
  10
35.93584
  20
8.52026
  30
0.0
  70
0
  0
VERTEX
  8
a
  10
36.08375
  20
8.30366
  30
0.0
  70
0
  0
VERTEX
  8
a
  10
36.22384
  20
8.07795
  30
0.0
  70
0
  0
VERTEX
  8
a
  10
36.35663
  20
7.844
  30
0.0
  70
0
  0
VERTEX
  8
a
  10
36.48249
  20
7.60246
  30
0.0
  70
0
  0
VERTEX
  8
a
  10
36.60164
  20
7.3538
  30
0.0
  70
0
  0
VERTEX
  8
a
  10
35.94561
  20
6.61438
  30
0.0
  70
0
  0
VERTEX
  8
a
  10
35.68454
  20
6.70307
  30
0.0
  70
0
  0
VERTEX
  8
a
  10
35.42972
  20
6.79926
  30
0.0
  70
0
  0
VERTEX
  8
a
  10
35.18162
  20
6.90325
  30
0.0
  70
0
  0
VERTEX
  8
a
  10
34.94084
  20
7.01546
  30
0.0
  70
0
  0
VERTEX
  8
a
  10
34.70816
  20
7.13652
  30
0.0
  70
0
  0
VERTEX
  8
a
  10
34.59522
  20
7.20068
  30
0.0
  70
0
  0
VERTEX
  8
a
  10
34.53969
  20
7.23374
  30
0.0
  70
0
  0
VERTEX
  8
a
  10
34.48482
  20
7.2675
  30
0.0
  70
0
  0
VERTEX
  8
a
  10
33.71273
  20
6.52398
  30
0.0
  70
0
  0
VERTEX
  8
a
  10
33.74439
  20
6.46788
  30
0.0
  70
0
  0
VERTEX
  8
a
  10
33.77534
  20
6.41113
  30
0.0
  70
0
  0
VERTEX
  8
a
  10
33.83519
  20
6.29586
  30
0.0
  70
0
  0
VERTEX
  8
a
  10
33.9474
  20
6.05878
  30
0.0
  70
0
  0
VERTEX
  8
a
  10
34.05045
  20
5.81394
  30
0.0
  70
0
  0
VERTEX
  8
a
  10
34.14502
  20
5.5621
  30
0.0
  70
0
  0
VERTEX
  8
a
  10
34.23154
  20
5.30384
  30
0.0
  70
0
  0
VERTEX
  8
a
  10
34.31033
  20
5.03961
  30
0.0
  70
0
  0
VERTEX
  8
a
  10
33.5467
  20
4.41191
  30
0.0
  70
0
  0
VERTEX
  8
a
  10
33.30271
  20
4.54035
  30
0.0
  70
0
  0
VERTEX
  8
a
  10
33.06608
  20
4.67522
  30
0.0
  70
0
  0
VERTEX
  8
a
  10
32.83731
  20
4.81674
  30
0.0
  70
0
  0
VERTEX
  8
a
  10
32.61704
  20
4.96523
  30
0.0
  70
0
  0
VERTEX
  8
a
  10
32.40617
  20
5.12121
  30
0.0
  70
0
  0
VERTEX
  8
a
  10
32.30466
  20
5.20224
  30
0.0
  70
0
  0
VERTEX
  8
a
  10
32.25497
  20
5.24358
  30
0.0
  70
0
  0
VERTEX
  8
a
  10
32.20606
  20
5.28551
  30
0.0
  70
0
  0
VERTEX
  8
a
  10
31.32717
  20
4.67193
  30
0.0
  70
0
  0
VERTEX
  8
a
  10
31.34967
  20
4.61156
  30
0.0
  70
0
  0
VERTEX
  8
a
  10
31.37135
  20
4.55068
  30
0.0
  70
0
  0
VERTEX
  8
a
  10
31.41244
  20
4.42745
  30
0.0
  70
0
  0
VERTEX
  8
a
  10
31.48618
  20
4.17575
  30
0.0
  70
0
  0
VERTEX
  8
a
  10
31.54966
  20
3.9178
  30
0.0
  70
0
  0
VERTEX
  8
a
  10
31.60366
  20
3.65426
  30
0.0
  70
0
  0
VERTEX
  8
a
  10
31.64872
  20
3.38565
  30
0.0
  70
0
  0
VERTEX
  8
a
  10
31.6852
  20
3.11234
  30
0.0
  70
0
  0
VERTEX
  8
a
  10
30.83279
  20
2.61183
  30
0.0
  70
0
  0
VERTEX
  8
a
  10
30.61189
  20
2.77686
  30
0.0
  70
0
  0
VERTEX
  8
a
  10
30.39927
  20
2.94709
  30
0.0
  70
0
  0
VERTEX
  8
a
  10
30.19545
  20
3.12265
  30
0.0
  70
0
  0
VERTEX
  8
a
  10
30.00113
  20
3.30378
  30
0.0
  70
0
  0
VERTEX
  8
a
  10
29.81725
  20
3.49082
  30
0.0
  70
0
  0
VERTEX
  8
a
  10
29.72966
  20
3.58673
  30
0.0
  70
0
  0
VERTEX
  8
a
  10
29.68706
  20
3.63534
  30
0.0
  70
0
  0
VERTEX
  8
a
  10
29.64531
  20
3.6844
  30
0.0
  70
0
  0
VERTEX
  8
a
  10
28.68125
  20
3.21586
  30
0.0
  70
0
  0
VERTEX
  8
a
  10
28.69403
  20
3.15272
  30
0.0
  70
0
  0
VERTEX
  8
a
  10
28.70593
  20
3.08919
  30
0.0
  70
0
  0
VERTEX
  8
a
  10
28.72723
  20
2.96106
  30
0.0
  70
0
  0
VERTEX
  8
a
  10
28.76069
  20
2.70092
  30
0.0
  70
0
  0
VERTEX
  8
a
  10
28.78303
  20
2.43621
  30
0.0
  70
0
  0
VERTEX
  8
a
  10
28.79515
  20
2.16747
  30
0.0
  70
0
  0
VERTEX
  8
a
  10
28.79763
  20
1.89512
  30
0.0
  70
0
  0
VERTEX
  8
a
  10
28.7909
  20
1.61947
  30
0.0
  70
0
  0
VERTEX
  8
a
  10
27.87069
  20
1.25847
  30
0.0
  70
0
  0
VERTEX
  8
a
  10
27.67833
  20
1.45602
  30
0.0
  70
0
  0
VERTEX
  8
a
  10
27.49496
  20
1.65741
  30
0.0
  70
0
  0
VERTEX
  8
a
  10
27.32111
  20
1.8627
  30
0.0
  70
0
  0
VERTEX
  8
a
  10
27.15751
  20
2.07199
  30
0.0
  70
0
  0
VERTEX
  8
a
  10
27.00516
  20
2.28549
  30
0.0
  70
0
  0
VERTEX
  8
a
  10
26.93365
  20
2.39393
  30
0.0
  70
0
  0
VERTEX
  8
a
  10
26.89918
  20
2.4486
  30
0.0
  70
0
  0
VERTEX
  8
a
  10
26.86562
  20
2.50359
  30
0.0
  70
0
  0
VERTEX
  8
a
  10
25.84013
  20
2.19163
  30
0.0
  70
0
  0
VERTEX
  8
a
  10
25.84288
  20
2.12727
  30
0.0
  70
0
  0
VERTEX
  8
a
  10
25.84469
  20
2.06266
  30
0.0
  70
0
  0
VERTEX
  8
a
  10
25.84568
  20
1.93277
  30
0.0
  70
0
  0
VERTEX
  8
a
  10
25.83803
  20
1.6706
  30
0.0
  70
0
  0
VERTEX
  8
a
  10
25.8187
  20
1.40566
  30
0.0
  70
0
  0
VERTEX
  8
a
  10
25.78862
  20
1.13834
  30
0.0
  70
0
  0
VERTEX
  8
a
  10
25.74846
  20
0.86894
  30
0.0
  70
0
  0
VERTEX
  8
a
  10
25.6987
  20
0.59774
  30
0.0
  70
0
  0
VERTEX
  8
a
  10
24.73334
  20
0.38514
  30
0.0
  70
0
  0
VERTEX
  8
a
  10
24.57426
  20
0.61035
  30
0.0
  70
0
  0
VERTEX
  8
a
  10
24.42465
  20
0.83795
  30
0.0
  70
0
  0
VERTEX
  8
a
  10
24.28506
  20
1.0679
  30
0.0
  70
0
  0
VERTEX
  8
a
  10
24.15621
  20
1.30021
  30
0.0
  70
0
  0
VERTEX
  8
a
  10
24.03913
  20
1.53492
  30
0.0
  70
0
  0
VERTEX
  8
a
  10
23.98547
  20
1.65321
  30
0.0
  70
0
  0
VERTEX
  8
a
  10
23.95998
  20
1.7126
  30
0.0
  70
0
  0
VERTEX
  8
a
  10
23.93543
  20
1.77216
  30
0.0
  70
0
  0
VERTEX
  8
a
  10
22.87377
  20
1.62446
  30
0.0
  70
0
  0
VERTEX
  8
a
  10
22.86641
  20
1.56046
  30
0.0
  70
0
  0
VERTEX
  8
a
  10
22.85809
  20
1.49637
  30
0.0
  70
0
  0
VERTEX
  8
a
  10
22.83875
  20
1.36792
  30
0.0
  70
0
  0
VERTEX
  8
a
  10
22.79019
  20
1.11018
  30
0.0
  70
0
  0
VERTEX
  8
a
  10
22.72964
  20
0.85152
  30
0.0
  70
0
  0
VERTEX
  8
a
  10
22.65812
  20
0.59219
  30
0.0
  70
0
  0
VERTEX
  8
a
  10
22.57631
  20
0.3324
  30
0.0
  70
0
  0
VERTEX
  8
a
  10
22.48474
  20
0.07232
  30
0.0
  70
0
  0
VERTEX
  8
a
  10
21.49801
  20
0.01335
  30
0.0
  70
0
  0
VERTEX
  8
a
  10
21.37611
  20
0.26067
  30
0.0
  70
0
  0
VERTEX
  8
a
  10
21.26395
  20
0.50888
  30
0.0
  70
0
  0
VERTEX
  8
a
  10
21.16205
  20
0.75784
  30
0.0
  70
0
  0
VERTEX
  8
a
  10
21.07113
  20
1.00744
  30
0.0
  70
0
  0
VERTEX
  8
a
  10
20.99221
  20
1.25757
  30
0.0
  70
0
  0
VERTEX
  8
a
  10
20.95771
  20
1.3828
  30
0.0
  70
0
  0
VERTEX
  8
a
  10
20.94182
  20
1.44545
  30
0.0
  70
0
  0
VERTEX
  8
a
  10
20.92689
  20
1.50812
  30
0.0
  70
0
  0
VERTEX
  8
a
  10
19.8552
  20
1.52832
  30
0.0
  70
0
  0
VERTEX
  8
a
  10
19.83792
  20
1.46626
  30
0.0
  70
0
  0
VERTEX
  8
a
  10
19.81968
  20
1.40425
  30
0.0
  70
0
  0
VERTEX
  8
a
  10
19.78048
  20
1.28042
  30
0.0
  70
0
  0
VERTEX
  8
a
  10
19.6922
  20
1.03344
  30
0.0
  70
0
  0
VERTEX
  8
a
  10
19.59193
  20
0.78744
  30
0.0
  70
0
  0
VERTEX
  8
a
  10
19.48072
  20
0.54249
  30
0.0
  70
0
  0
VERTEX
  8
a
  10
19.35928
  20
0.29869
  30
0.0
  70
0
  0
VERTEX
  8
a
  10
19.22815
  20
0.05614
  30
0.0
  70
0
  0
VERTEX
  8
a
  10
18.24434
  20
0.15226
  30
0.0
  70
0
  0
VERTEX
  8
a
  10
18.16264
  20
0.4156
  30
0.0
  70
0
  0
VERTEX
  8
a
  10
18.09068
  20
0.6783
  30
0.0
  70
0
  0
VERTEX
  8
a
  10
18.02898
  20
0.94014
  30
0.0
  70
0
  0
VERTEX
  8
a
  10
17.97823
  20
1.20089
  30
0.0
  70
0
  0
VERTEX
  8
a
  10
17.93941
  20
1.46029
  30
0.0
  70
0
  0
VERTEX
  8
a
  10
17.92493
  20
1.58937
  30
0.0
  70
0
  0
VERTEX
  8
a
  10
17.91903
  20
1.65373
  30
0.0
  70
0
  0
VERTEX
  8
a
  10
17.91409
  20
1.71796
  30
0.0
  70
0
  0
VERTEX
  8
a
  10
16.85875
  20
1.90557
  30
0.0
  70
0
  0
VERTEX
  8
a
  10
16.83198
  20
1.84697
  30
0.0
  70
0
  0
VERTEX
  8
a
  10
16.80426
  20
1.78859
  30
0.0
  70
0
  0
VERTEX
  8
a
  10
16.74618
  20
1.6724
  30
0.0
  70
0
  0
VERTEX
  8
a
  10
16.62034
  20
1.44228
  30
0.0
  70
0
  0
VERTEX
  8
a
  10
16.48283
  20
1.21499
  30
0.0
  70
0
  0
VERTEX
  8
a
  10
16.33467
  20
0.99046
  30
0.0
  70
0
  0
VERTEX
  8
a
  10
16.17659
  20
0.76866
  30
0.0
  70
0
  0
VERTEX
  8
a
  10
16.00913
  20
0.54961
  30
0.0
  70
0
  0
VERTEX
  8
a
  10
15.05247
  20
0.79844
  30
0.0
  70
0
  0
VERTEX
  8
a
  10
15.01296
  20
1.07133
  30
0.0
  70
0
  0
VERTEX
  8
a
  10
14.98299
  20
1.34204
  30
0.0
  70
0
  0
VERTEX
  8
a
  10
14.96301
  20
1.61031
  30
0.0
  70
0
  0
VERTEX
  8
a
  10
14.95367
  20
1.87579
  30
0.0
  70
0
  0
VERTEX
  8
a
  10
14.95591
  20
2.13807
  30
0.0
  70
0
  0
VERTEX
  8
a
  10
14.9618
  20
2.26782
  30
0.0
  70
0
  0
VERTEX
  8
a
  10
14.96604
  20
2.33232
  30
0.0
  70
0
  0
VERTEX
  8
a
  10
14.97121
  20
2.39653
  30
0.0
  70
0
  0
VERTEX
  8
a
  10
13.95821
  20
2.74692
  30
0.0
  70
0
  0
VERTEX
  8
a
  10
13.9226
  20
2.69323
  30
0.0
  70
0
  0
VERTEX
  8
a
  10
13.88609
  20
2.6399
  30
0.0
  70
0
  0
VERTEX
  8
a
  10
13.81055
  20
2.53423
  30
0.0
  70
0
  0
VERTEX
  8
a
  10
13.65026
  20
2.32663
  30
0.0
  70
0
  0
VERTEX
  8
a
  10
13.47889
  20
2.12365
  30
0.0
  70
0
  0
VERTEX
  8
a
  10
13.29743
  20
1.92506
  30
0.0
  70
0
  0
VERTEX
  8
a
  10
13.10659
  20
1.73072
  30
0.0
  70
0
  0
VERTEX
  8
a
  10
12.90693
  20
1.54056
  30
0.0
  70
0
  0
VERTEX
  8
a
  10
12.00097
  20
1.93599
  30
0.0
  70
0
  0
VERTEX
  8
a
  10
12.00464
  20
2.21169
  30
0.0
  70
0
  0
VERTEX
  8
a
  10
12.01739
  20
2.48376
  30
0.0
  70
0
  0
VERTEX
  8
a
  10
12.03962
  20
2.75185
  30
0.0
  70
0
  0
VERTEX
  8
a
  10
12.07193
  20
3.01553
  30
0.0
  70
0
  0
VERTEX
  8
a
  10
12.11517
  20
3.27422
  30
0.0
  70
0
  0
VERTEX
  8
a
  10
12.14128
  20
3.40146
  30
0.0
  70
0
  0
VERTEX
  8
a
  10
12.15556
  20
3.4645
  30
0.0
  70
0
  0
VERTEX
  8
a
  10
12.17071
  20
3.52711
  30
0.0
  70
0
  0
VERTEX
  8
a
  10
11.225
  20
4.03165
  30
0.0
  70
0
  0
VERTEX
  8
a
  10
11.18143
  20
3.9842
  30
0.0
  70
0
  0
VERTEX
  8
a
  10
11.13702
  20
3.93724
  30
0.0
  70
0
  0
VERTEX
  8
a
  10
11.04588
  20
3.84469
  30
0.0
  70
0
  0
VERTEX
  8
a
  10
10.85509
  20
3.66471
  30
0.0
  70
0
  0
VERTEX
  8
a
  10
10.65408
  20
3.49104
  30
0.0
  70
0
  0
VERTEX
  8
a
  10
10.44378
  20
3.32328
  30
0.0
  70
0
  0
VERTEX
  8
a
  10
10.2249
  20
3.16119
  30
0.0
  70
0
  0
VERTEX
  8
a
  10
9.99794
  20
3.00461
  30
0.0
  70
0
  0
VERTEX
  8
a
  10
9.165
  20
3.53689
  30
0.0
  70
0
  0
VERTEX
  8
a
  10
9.21175
  20
3.80862
  30
0.0
  70
0
  0
VERTEX
  8
a
  10
9.2669
  20
4.07535
  30
0.0
  70
0
  0
VERTEX
  8
a
  10
9.3308
  20
4.33666
  30
0.0
  70
0
  0
VERTEX
  8
a
  10
9.40396
  20
4.59204
  30
0.0
  70
0
  0
VERTEX
  8
a
  10
9.48713
  20
4.84078
  30
0.0
  70
0
  0
VERTEX
  8
a
  10
9.53283
  20
4.96237
  30
0.0
  70
0
  0
VERTEX
  8
a
  10
9.5568
  20
5.0224
  30
0.0
  70
0
  0
VERTEX
  8
a
  10
9.58156
  20
5.08187
  30
0.0
  70
0
  0
VERTEX
  8
a
  10
8.72641
  20
5.72814
  30
0.0
  70
0
  0
VERTEX
  8
a
  10
8.67596
  20
5.68809
  30
0.0
  70
0
  0
VERTEX
  8
a
  10
8.62475
  20
5.64865
  30
0.0
  70
0
  0
VERTEX
  8
a
  10
8.52026
  20
5.5715
  30
0.0
  70
0
  0
VERTEX
  8
a
  10
8.30366
  20
5.42358
  30
0.0
  70
0
  0
VERTEX
  8
a
  10
8.07795
  20
5.2835
  30
0.0
  70
0
  0
VERTEX
  8
a
  10
7.844
  20
5.1507
  30
0.0
  70
0
  0
VERTEX
  8
a
  10
7.60246
  20
5.02485
  30
0.0
  70
0
  0
VERTEX
  8
a
  10
7.3538
  20
4.90569
  30
0.0
  70
0
  0
VERTEX
  8
a
  10
6.61438
  20
5.56172
  30
0.0
  70
0
  0
VERTEX
  8
a
  10
6.70307
  20
5.8228
  30
0.0
  70
0
  0
VERTEX
  8
a
  10
6.79926
  20
6.07762
  30
0.0
  70
0
  0
VERTEX
  8
a
  10
6.90325
  20
6.32571
  30
0.0
  70
0
  0
VERTEX
  8
a
  10
7.01546
  20
6.5665
  30
0.0
  70
0
  0
VERTEX
  8
a
  10
7.13652
  20
6.79917
  30
0.0
  70
0
  0
VERTEX
  8
a
  10
7.20068
  20
6.91211
  30
0.0
  70
0
  0
VERTEX
  8
a
  10
7.23374
  20
6.96765
  30
0.0
  70
0
  0
VERTEX
  8
a
  10
7.2675
  20
7.02252
  30
0.0
  70
0
  0
VERTEX
  8
a
  10
6.52398
  20
7.79461
  30
0.0
  70
0
  0
VERTEX
  8
a
  10
6.46788
  20
7.76294
  30
0.0
  70
0
  0
VERTEX
  8
a
  10
6.41113
  20
7.732
  30
0.0
  70
0
  0
VERTEX
  8
a
  10
6.29586
  20
7.67214
  30
0.0
  70
0
  0
VERTEX
  8
a
  10
6.05878
  20
7.55993
  30
0.0
  70
0
  0
VERTEX
  8
a
  10
5.81394
  20
7.45688
  30
0.0
  70
0
  0
VERTEX
  8
a
  10
5.5621
  20
7.36232
  30
0.0
  70
0
  0
VERTEX
  8
a
  10
5.30384
  20
7.2758
  30
0.0
  70
0
  0
VERTEX
  8
a
  10
5.03961
  20
7.19701
  30
0.0
  70
0
  0
VERTEX
  8
a
  10
4.41191
  20
7.96063
  30
0.0
  70
0
  0
VERTEX
  8
a
  10
4.54035
  20
8.20462
  30
0.0
  70
0
  0
VERTEX
  8
a
  10
4.67522
  20
8.44125
  30
0.0
  70
0
  0
VERTEX
  8
a
  10
4.81674
  20
8.67003
  30
0.0
  70
0
  0
VERTEX
  8
a
  10
4.96523
  20
8.8903
  30
0.0
  70
0
  0
VERTEX
  8
a
  10
5.12121
  20
9.10117
  30
0.0
  70
0
  0
VERTEX
  8
a
  10
5.20224
  20
9.20268
  30
0.0
  70
0
  0
VERTEX
  8
a
  10
5.24358
  20
9.25236
  30
0.0
  70
0
  0
VERTEX
  8
a
  10
5.28551
  20
9.30127
  30
0.0
  70
0
  0
VERTEX
  8
a
  10
4.67193
  20
10.18017
  30
0.0
  70
0
  0
VERTEX
  8
a
  10
4.61156
  20
10.15767
  30
0.0
  70
0
  0
VERTEX
  8
a
  10
4.55068
  20
10.13598
  30
0.0
  70
0
  0
VERTEX
  8
a
  10
4.42745
  20
10.0949
  30
0.0
  70
0
  0
VERTEX
  8
a
  10
4.17575
  20
10.02116
  30
0.0
  70
0
  0
VERTEX
  8
a
  10
3.9178
  20
9.95768
  30
0.0
  70
0
  0
VERTEX
  8
a
  10
3.65426
  20
9.90367
  30
0.0
  70
0
  0
VERTEX
  8
a
  10
3.38565
  20
9.85862
  30
0.0
  70
0
  0
VERTEX
  8
a
  10
3.11234
  20
9.82214
  30
0.0
  70
0
  0
VERTEX
  8
a
  10
2.61183
  20
10.67455
  30
0.0
  70
0
  0
VERTEX
  8
a
  10
2.77686
  20
10.89544
  30
0.0
  70
0
  0
VERTEX
  8
a
  10
2.94709
  20
11.10806
  30
0.0
  70
0
  0
VERTEX
  8
a
  10
3.12265
  20
11.31188
  30
0.0
  70
0
  0
VERTEX
  8
a
  10
3.30378
  20
11.50621
  30
0.0
  70
0
  0
VERTEX
  8
a
  10
3.49082
  20
11.69008
  30
0.0
  70
0
  0
VERTEX
  8
a
  10
3.58673
  20
11.77767
  30
0.0
  70
0
  0
VERTEX
  8
a
  10
3.63534
  20
11.82027
  30
0.0
  70
0
  0
VERTEX
  8
a
  10
3.6844
  20
11.86203
  30
0.0
  70
0
  0
VERTEX
  8
a
  10
3.21586
  20
12.82608
  30
0.0
  70
0
  0
VERTEX
  8
a
  10
3.15272
  20
12.81331
  30
0.0
  70
0
  0
VERTEX
  8
a
  10
3.08919
  20
12.80141
  30
0.0
  70
0
  0
VERTEX
  8
a
  10
2.96106
  20
12.78011
  30
0.0
  70
0
  0
VERTEX
  8
a
  10
2.70092
  20
12.74665
  30
0.0
  70
0
  0
VERTEX
  8
a
  10
2.43621
  20
12.7243
  30
0.0
  70
0
  0
VERTEX
  8
a
  10
2.16747
  20
12.71219
  30
0.0
  70
0
  0
VERTEX
  8
a
  10
1.89512
  20
12.70971
  30
0.0
  70
0
  0
VERTEX
  8
a
  10
1.61947
  20
12.71643
  30
0.0
  70
0
  0
VERTEX
  8
a
  10
1.25847
  20
13.63665
  30
0.0
  70
0
  0
VERTEX
  8
a
  10
1.45602
  20
13.82901
  30
0.0
  70
0
  0
VERTEX
  8
a
  10
1.65741
  20
14.01238
  30
0.0
  70
0
  0
VERTEX
  8
a
  10
1.8627
  20
14.18623
  30
0.0
  70
0
  0
VERTEX
  8
a
  10
2.07199
  20
14.34983
  30
0.0
  70
0
  0
VERTEX
  8
a
  10
2.28549
  20
14.50218
  30
0.0
  70
0
  0
VERTEX
  8
a
  10
2.39393
  20
14.57368
  30
0.0
  70
0
  0
VERTEX
  8
a
  10
2.4486
  20
14.60816
  30
0.0
  70
0
  0
VERTEX
  8
a
  10
2.50359
  20
14.64172
  30
0.0
  70
0
  0
VERTEX
  8
a
  10
2.19163
  20
15.6672
  30
0.0
  70
0
  0
VERTEX
  8
a
  10
2.12727
  20
15.66446
  30
0.0
  70
0
  0
VERTEX
  8
a
  10
2.06266
  20
15.66265
  30
0.0
  70
0
  0
VERTEX
  8
a
  10
1.93277
  20
15.66165
  30
0.0
  70
0
  0
VERTEX
  8
a
  10
1.6706
  20
15.6693
  30
0.0
  70
0
  0
VERTEX
  8
a
  10
1.40566
  20
15.68864
  30
0.0
  70
0
  0
VERTEX
  8
a
  10
1.13834
  20
15.71871
  30
0.0
  70
0
  0
VERTEX
  8
a
  10
0.86894
  20
15.75887
  30
0.0
  70
0
  0
VERTEX
  8
a
  10
0.59774
  20
15.80863
  30
0.0
  70
0
  0
VERTEX
  8
a
  10
0.38514
  20
16.77399
  30
0.0
  70
0
  0
VERTEX
  8
a
  10
0.61035
  20
16.93308
  30
0.0
  70
0
  0
VERTEX
  8
a
  10
0.83795
  20
17.08269
  30
0.0
  70
0
  0
VERTEX
  8
a
  10
1.0679
  20
17.22228
  30
0.0
  70
0
  0
VERTEX
  8
a
  10
1.30021
  20
17.35113
  30
0.0
  70
0
  0
VERTEX
  8
a
  10
1.53492
  20
17.4682
  30
0.0
  70
0
  0
VERTEX
  8
a
  10
1.65321
  20
17.52186
  30
0.0
  70
0
  0
VERTEX
  8
a
  10
1.7126
  20
17.54736
  30
0.0
  70
0
  0
VERTEX
  8
a
  10
1.77216
  20
17.57191
  30
0.0
  70
0
  0
SEQEND
  0
CIRCLE
  8
a
  10
20.75367
  20
20.75367
  30
0.0
  40
0.5
 0
LINE
 8
c
 10
1.54161
 20
19.60553
 30
0
 11
0.03696
 21
19.51561
 31
 0
 0
LINE
 8
c
 10
1.59854
 20
22.62509
 30
0
 11
0.09834
 21
22.77166
 31
 0
 0
LINE
 8
c
 10
2.12712
 20
25.59858
 30
0
 11
0.66833
 21
25.97802
 31
 0
 0
LINE
 8
c
 10
3.11436
 20
28.45276
 30
0
 11
1.73288
 21
29.05574
 31
 0
 0
LINE
 8
c
 10
4.53593
 20
31.11737
 30
0
 11
3.26579
 21
31.92903
 31
 0
 0
LINE
 8
c
 10
6.35684
 20
33.52679
 30
0
 11
5.22931
 21
34.52715
 31
 0
 0
LINE
 8
c
 10
8.53224
 20
35.62169
 30
0
 11
7.57508
 21
36.78612
 31
 0
 0
LINE
 8
c
 10
11.00858
 20
37.35049
 30
0
 11
10.24536
 21
38.65032
 31
 0
 0
LINE
 8
c
 10
13.72487
 20
38.67062
 30
0
 11
13.17439
 21
40.07385
 31
 0
 0
LINE
 8
c
 10
16.61424
 20
39.54958
 30
0
 11
16.29005
 21
41.02164
 31
 0
 0
LINE
 8
c
 10
19.60553
 20
39.96572
 30
0
 11
19.51561
 21
41.47038
 31
 0
 0
LINE
 8
c
 10
22.62509
 20
39.9088
 30
0
 11
22.77166
 21
41.40899
 31
 0
 0
LINE
 8
c
 10
25.59858
 20
39.38021
 30
0
 11
25.97802
 21
40.83901
 31
 0
 0
LINE
 8
c
 10
28.45276
 20
38.39298
 30
0
 11
29.05574
 21
39.77446
 31
 0
 0
LINE
 8
c
 10
31.11737
 20
36.97141
 30
0
 11
31.92903
 21
38.24155
 31
 0
 0
LINE
 8
c
 10
33.52679
 20
35.1505
 30
0
 11
34.52715
 21
36.27803
 31
 0
 0
LINE
 8
c
 10
35.62169
 20
32.97509
 30
0
 11
36.78612
 21
33.93225
 31
 0
 0
LINE
 8
c
 10
37.35049
 20
30.49876
 30
0
 11
38.65032
 21
31.26197
 31
 0
 0
LINE
 8
c
 10
38.67062
 20
27.78246
 30
0
 11
40.07385
 21
28.33294
 31
 0
 0
LINE
 8
c
 10
39.54958
 20
24.8931
 30
0
 11
41.02164
 21
25.21729
 31
 0
 0
LINE
 8
c
 10
39.96572
 20
21.9018
 30
0
 11
41.47038
 21
21.99172
 31
 0
 0
LINE
 8
c
 10
39.9088
 20
18.88224
 30
0
 11
41.40899
 21
18.73567
 31
 0
 0
LINE
 8
c
 10
39.38021
 20
15.90876
 30
0
 11
40.83901
 21
15.52932
 31
 0
 0
LINE
 8
c
 10
38.39298
 20
13.05457
 30
0
 11
39.77446
 21
12.4516
 31
 0
 0
LINE
 8
c
 10
36.97141
 20
10.38997
 30
0
 11
38.24155
 21
9.5783
 31
 0
 0
LINE
 8
c
 10
35.1505
 20
7.98055
 30
0
 11
36.27803
 21
6.98018
 31
 0
 0
LINE
 8
c
 10
32.97509
 20
5.88565
 30
0
 11
33.93225
 21
4.72121
 31
 0
 0
LINE
 8
c
 10
30.49876
 20
4.15684
 30
0
 11
31.26197
 21
2.85701
 31
 0
 0
LINE
 8
c
 10
27.78246
 20
2.83671
 30
0
 11
28.33294
 21
1.43349
 31
 0
 0
LINE
 8
c
 10
24.8931
 20
1.95775
 30
0
 11
25.21729
 21
0.48569
 31
 0
 0
LINE
 8
c
 10
21.9018
 20
1.54161
 30
0
 11
21.99172
 21
0.03696
 31
 0
 0
LINE
 8
c
 10
18.88224
 20
1.59854
 30
0
 11
18.73567
 21
0.09834
 31
 0
 0
LINE
 8
c
 10
15.90876
 20
2.12712
 30
0
 11
15.52932
 21
0.66833
 31
 0
 0
LINE
 8
c
 10
13.05457
 20
3.11436
 30
0
 11
12.4516
 21
1.73288
 31
 0
 0
LINE
 8
c
 10
10.38997
 20
4.53593
 30
0
 11
9.5783
 21
3.26579
 31
 0
 0
LINE
 8
c
 10
7.98055
 20
6.35684
 30
0
 11
6.98018
 21
5.22931
 31
 0
 0
LINE
 8
c
 10
5.88565
 20
8.53224
 30
0
 11
4.72121
 21
7.57508
 31
 0
 0
LINE
 8
c
 10
4.15684
 20
11.00858
 30
0
 11
2.85701
 21
10.24536
 31
 0
 0
LINE
 8
c
 10
2.83671
 20
13.72487
 30
0
 11
1.43349
 21
13.17439
 31
 0
 0
LINE
 8
c
 10
1.95775
 20
16.61424
 30
0
 11
0.48569
 21
16.29005
 31
 0
  0
CIRCLE
  8
c
  10
20.75367
  20
20.75367
  30
0.0
  40
20
 0
LINE
 8
a
 10
13.83578
 20
20.75367
 30
0
 11
27.67156
 21
20.75367
 31
 0
 0
LINE
 8
a
 10
20.75367
 20
13.83578
 30
0
 11
20.75367
 21
27.67156
 31
 0
  0
TEXT
  8
labels
  10
0.0
  20
0.0
  30
0.0
  40
0.1
  1
G2:Toothspacing=3.14  Teeth=40  Spur gear  Angle=20.0  Addendum=.2
  41
1.0
  7
ARIAL
  0
ENDSEC
  0
EOF
