  999
DXF file created by gear template generator. 2019-01-23T10:31:52
  999
G1:Toothspacing=3.14  Teeth=20  Spur gear  Angle=20.0  Addendum=.2
  0
SECTION
  2
HEADER
  9
$MEASUREMENT
  70
1
  0
ENDSEC
  0
SECTION
  2
TABLES
  0
TABLE
  2
LTYPE
  70
1
  0
LTYPE
  2
Continuous
  3
_
  70
0
  72
65
  73
0
  40
0.0
  0
ENDTAB
  0
TABLE
  2
LAYER
  70
4
  0
LAYER
  2
profile
  70
0
  62
7
  6
Continuous
  0
LAYER
  2
construction
  70
0
  62
5
  6
Continuous
  0
LAYER
  2
grid
  70
0
  62
3
  6
Continuous
  0
LAYER
  2
labels
  70
0
  62
1
  6
Continuous
  0
ENDTAB
  0
TABLE
  2
STYLE
  70
1
  0
STYLE
  2
ARIAL
  3
Arial.ttf
  70
0
  40
0.0
  41
1.0
  50
0.0
  71
0
  42
1.0
  0
ENDTAB
  0
ENDSEC
  0
SECTION
  2
ENTITIES
 0
LINE
 8
b
 10
0.75367
 20
0
 30
0
 11
0.75367
 21
21.50734
 31
 0
 0
LINE
 8
b
 10
1.75367
 20
0
 30
0
 11
1.75367
 21
21.50734
 31
 0
 0
LINE
 8
b
 10
2.75367
 20
0
 30
0
 11
2.75367
 21
21.50734
 31
 0
 0
LINE
 8
b
 10
3.75367
 20
0
 30
0
 11
3.75367
 21
21.50734
 31
 0
 0
LINE
 8
b
 10
4.75367
 20
0
 30
0
 11
4.75367
 21
21.50734
 31
 0
 0
LINE
 8
b
 10
5.75367
 20
0
 30
0
 11
5.75367
 21
21.50734
 31
 0
 0
LINE
 8
b
 10
6.75367
 20
0
 30
0
 11
6.75367
 21
21.50734
 31
 0
 0
LINE
 8
b
 10
7.75367
 20
0
 30
0
 11
7.75367
 21
21.50734
 31
 0
 0
LINE
 8
b
 10
8.75367
 20
0
 30
0
 11
8.75367
 21
21.50734
 31
 0
 0
LINE
 8
b
 10
9.75367
 20
0
 30
0
 11
9.75367
 21
21.50734
 31
 0
 0
LINE
 8
b
 10
10.75367
 20
0
 30
0
 11
10.75367
 21
21.50734
 31
 0
 0
LINE
 8
b
 10
11.75367
 20
0
 30
0
 11
11.75367
 21
21.50734
 31
 0
 0
LINE
 8
b
 10
12.75367
 20
0
 30
0
 11
12.75367
 21
21.50734
 31
 0
 0
LINE
 8
b
 10
13.75367
 20
0
 30
0
 11
13.75367
 21
21.50734
 31
 0
 0
LINE
 8
b
 10
14.75367
 20
0
 30
0
 11
14.75367
 21
21.50734
 31
 0
 0
LINE
 8
b
 10
15.75367
 20
0
 30
0
 11
15.75367
 21
21.50734
 31
 0
 0
LINE
 8
b
 10
16.75367
 20
0
 30
0
 11
16.75367
 21
21.50734
 31
 0
 0
LINE
 8
b
 10
17.75367
 20
0
 30
0
 11
17.75367
 21
21.50734
 31
 0
 0
LINE
 8
b
 10
18.75367
 20
0
 30
0
 11
18.75367
 21
21.50734
 31
 0
 0
LINE
 8
b
 10
19.75367
 20
0
 30
0
 11
19.75367
 21
21.50734
 31
 0
 0
LINE
 8
b
 10
20.75367
 20
0
 30
0
 11
20.75367
 21
21.50734
 31
 0
 0
LINE
 8
b
 10
0
 20
0.75367
 30
0
 11
21.50734
 21
0.75367
 31
 0
 0
LINE
 8
b
 10
0
 20
1.75367
 30
0
 11
21.50734
 21
1.75367
 31
 0
 0
LINE
 8
b
 10
0
 20
2.75367
 30
0
 11
21.50734
 21
2.75367
 31
 0
 0
LINE
 8
b
 10
0
 20
3.75367
 30
0
 11
21.50734
 21
3.75367
 31
 0
 0
LINE
 8
b
 10
0
 20
4.75367
 30
0
 11
21.50734
 21
4.75367
 31
 0
 0
LINE
 8
b
 10
0
 20
5.75367
 30
0
 11
21.50734
 21
5.75367
 31
 0
 0
LINE
 8
b
 10
0
 20
6.75367
 30
0
 11
21.50734
 21
6.75367
 31
 0
 0
LINE
 8
b
 10
0
 20
7.75367
 30
0
 11
21.50734
 21
7.75367
 31
 0
 0
LINE
 8
b
 10
0
 20
8.75367
 30
0
 11
21.50734
 21
8.75367
 31
 0
 0
LINE
 8
b
 10
0
 20
9.75367
 30
0
 11
21.50734
 21
9.75367
 31
 0
 0
LINE
 8
b
 10
0
 20
10.75367
 30
0
 11
21.50734
 21
10.75367
 31
 0
 0
LINE
 8
b
 10
0
 20
11.75367
 30
0
 11
21.50734
 21
11.75367
 31
 0
 0
LINE
 8
b
 10
0
 20
12.75367
 30
0
 11
21.50734
 21
12.75367
 31
 0
 0
LINE
 8
b
 10
0
 20
13.75367
 30
0
 11
21.50734
 21
13.75367
 31
 0
 0
LINE
 8
b
 10
0
 20
14.75367
 30
0
 11
21.50734
 21
14.75367
 31
 0
 0
LINE
 8
b
 10
0
 20
15.75367
 30
0
 11
21.50734
 21
15.75367
 31
 0
 0
LINE
 8
b
 10
0
 20
16.75367
 30
0
 11
21.50734
 21
16.75367
 31
 0
 0
LINE
 8
b
 10
0
 20
17.75367
 30
0
 11
21.50734
 21
17.75367
 31
 0
 0
LINE
 8
b
 10
0
 20
18.75367
 30
0
 11
21.50734
 21
18.75367
 31
 0
 0
LINE
 8
b
 10
0
 20
19.75367
 30
0
 11
21.50734
 21
19.75367
 31
 0
 0
LINE
 8
b
 10
0
 20
20.75367
 30
0
 11
21.50734
 21
20.75367
 31
 0
  0
POLYLINE
  8
a
  66
1
  10
0.0
  20
0.0
  70
1
  0
VERTEX
  8
a
  10
19.88616
  20
12.20011
  30
0.0
  70
0
  0
VERTEX
  8
a
  10
19.9899
  20
11.69442
  30
0.0
  70
0
  0
VERTEX
  8
a
  10
20.03013
  20
11.67088
  30
0.0
  70
0
  0
VERTEX
  8
a
  10
20.06949
  20
11.65563
  30
0.0
  70
0
  0
VERTEX
  8
a
  10
20.14747
  20
11.63175
  30
0.0
  70
0
  0
VERTEX
  8
a
  10
20.22339
  20
11.6293
  30
0.0
  70
0
  0
VERTEX
  8
a
  10
20.29967
  20
11.62272
  30
0.0
  70
0
  0
VERTEX
  8
a
  10
20.45299
  20
11.60041
  30
0.0
  70
0
  0
VERTEX
  8
a
  10
20.60701
  20
11.56814
  30
0.0
  70
0
  0
VERTEX
  8
a
  10
20.76149
  20
11.5273
  30
0.0
  70
0
  0
VERTEX
  8
a
  10
20.91625
  20
11.47871
  30
0.0
  70
0
  0
VERTEX
  8
a
  10
21.07114
  20
11.42291
  30
0.0
  70
0
  0
VERTEX
  8
a
  10
21.226
  20
11.36028
  30
0.0
  70
0
  0
VERTEX
  8
a
  10
21.3807
  20
11.29111
  30
0.0
  70
0
  0
VERTEX
  8
a
  10
21.49656
  20
11.23508
  30
0.0
  70
0
  0
VERTEX
  8
a
  10
21.49656
  20
10.27226
  30
0.0
  70
0
  0
VERTEX
  8
a
  10
21.3807
  20
10.21623
  30
0.0
  70
0
  0
VERTEX
  8
a
  10
21.226
  20
10.14706
  30
0.0
  70
0
  0
VERTEX
  8
a
  10
21.07114
  20
10.08443
  30
0.0
  70
0
  0
VERTEX
  8
a
  10
20.91625
  20
10.02863
  30
0.0
  70
0
  0
VERTEX
  8
a
  10
20.76149
  20
9.98004
  30
0.0
  70
0
  0
VERTEX
  8
a
  10
20.60701
  20
9.9392
  30
0.0
  70
0
  0
VERTEX
  8
a
  10
20.45299
  20
9.90693
  30
0.0
  70
0
  0
VERTEX
  8
a
  10
20.29967
  20
9.88461
  30
0.0
  70
0
  0
VERTEX
  8
a
  10
20.22339
  20
9.87803
  30
0.0
  70
0
  0
VERTEX
  8
a
  10
20.14747
  20
9.87559
  30
0.0
  70
0
  0
VERTEX
  8
a
  10
20.06949
  20
9.8517
  30
0.0
  70
0
  0
VERTEX
  8
a
  10
20.03013
  20
9.83646
  30
0.0
  70
0
  0
VERTEX
  8
a
  10
19.9899
  20
9.81291
  30
0.0
  70
0
  0
VERTEX
  8
a
  10
19.88616
  20
9.30722
  30
0.0
  70
0
  0
VERTEX
  8
a
  10
19.88616
  20
9.30722
  30
0.0
  70
0
  0
VERTEX
  8
a
  10
19.82855
  20
8.79423
  30
0.0
  70
0
  0
VERTEX
  8
a
  10
19.85954
  20
8.7594
  30
0.0
  70
0
  0
VERTEX
  8
a
  10
19.89226
  20
8.73274
  30
0.0
  70
0
  0
VERTEX
  8
a
  10
19.95904
  20
8.68593
  30
0.0
  70
0
  0
VERTEX
  8
a
  10
20.03049
  20
8.66014
  30
0.0
  70
0
  0
VERTEX
  8
a
  10
20.10101
  20
8.63031
  30
0.0
  70
0
  0
VERTEX
  8
a
  10
20.23993
  20
8.56171
  30
0.0
  70
0
  0
VERTEX
  8
a
  10
20.37644
  20
8.48342
  30
0.0
  70
0
  0
VERTEX
  8
a
  10
20.51074
  20
8.39684
  30
0.0
  70
0
  0
VERTEX
  8
a
  10
20.64291
  20
8.30281
  30
0.0
  70
0
  0
VERTEX
  8
a
  10
20.77297
  20
8.20188
  30
0.0
  70
0
  0
VERTEX
  8
a
  10
20.9009
  20
8.09446
  30
0.0
  70
0
  0
VERTEX
  8
a
  10
21.02666
  20
7.98087
  30
0.0
  70
0
  0
VERTEX
  8
a
  10
21.11952
  20
7.89178
  30
0.0
  70
0
  0
VERTEX
  8
a
  10
20.822
  20
6.97609
  30
0.0
  70
0
  0
VERTEX
  8
a
  10
20.6945
  20
6.9586
  30
0.0
  70
0
  0
VERTEX
  8
a
  10
20.52599
  20
6.94062
  30
0.0
  70
0
  0
VERTEX
  8
a
  10
20.35936
  20
6.92891
  30
0.0
  70
0
  0
VERTEX
  8
a
  10
20.19481
  20
6.9237
  30
0.0
  70
0
  0
VERTEX
  8
a
  10
20.03261
  20
6.92531
  30
0.0
  70
0
  0
VERTEX
  8
a
  10
19.87307
  20
6.93421
  30
0.0
  70
0
  0
VERTEX
  8
a
  10
19.71662
  20
6.95111
  30
0.0
  70
0
  0
VERTEX
  8
a
  10
19.56391
  20
6.97727
  30
0.0
  70
0
  0
VERTEX
  8
a
  10
19.48932
  20
6.99459
  30
0.0
  70
0
  0
VERTEX
  8
a
  10
19.41636
  20
7.01572
  30
0.0
  70
0
  0
VERTEX
  8
a
  10
19.33482
  20
7.0171
  30
0.0
  70
0
  0
VERTEX
  8
a
  10
19.29268
  20
7.01477
  30
0.0
  70
0
  0
VERTEX
  8
a
  10
19.24713
  20
7.00481
  30
0.0
  70
0
  0
VERTEX
  8
a
  10
18.99221
  20
6.55592
  30
0.0
  70
0
  0
VERTEX
  8
a
  10
18.99221
  20
6.55592
  30
0.0
  70
0
  0
VERTEX
  8
a
  10
18.7789
  20
6.08584
  30
0.0
  70
0
  0
VERTEX
  8
a
  10
18.79761
  20
6.04314
  30
0.0
  70
0
  0
VERTEX
  8
a
  10
18.82049
  20
6.00767
  30
0.0
  70
0
  0
VERTEX
  8
a
  10
18.86954
  20
5.94252
  30
0.0
  70
0
  0
VERTEX
  8
a
  10
18.92952
  20
5.89591
  30
0.0
  70
0
  0
VERTEX
  8
a
  10
18.98737
  20
5.84575
  30
0.0
  70
0
  0
VERTEX
  8
a
  10
19.09829
  20
5.73758
  30
0.0
  70
0
  0
VERTEX
  8
a
  10
19.20392
  20
5.62093
  30
0.0
  70
0
  0
VERTEX
  8
a
  10
19.3049
  20
5.49709
  30
0.0
  70
0
  0
VERTEX
  8
a
  10
19.40154
  20
5.36682
  30
0.0
  70
0
  0
VERTEX
  8
a
  10
19.49404
  20
5.23064
  30
0.0
  70
0
  0
VERTEX
  8
a
  10
19.58252
  20
5.08894
  30
0.0
  70
0
  0
VERTEX
  8
a
  10
19.66702
  20
4.94205
  30
0.0
  70
0
  0
VERTEX
  8
a
  10
19.72781
  20
4.82862
  30
0.0
  70
0
  0
VERTEX
  8
a
  10
19.16188
  20
4.04969
  30
0.0
  70
0
  0
VERTEX
  8
a
  10
19.03522
  20
4.07245
  30
0.0
  70
0
  0
VERTEX
  8
a
  10
18.8694
  20
4.10743
  30
0.0
  70
0
  0
VERTEX
  8
a
  10
18.70731
  20
4.14779
  30
0.0
  70
0
  0
VERTEX
  8
a
  10
18.5492
  20
4.19368
  30
0.0
  70
0
  0
VERTEX
  8
a
  10
18.39544
  20
4.24534
  30
0.0
  70
0
  0
VERTEX
  8
a
  10
18.24646
  20
4.3031
  30
0.0
  70
0
  0
VERTEX
  8
a
  10
18.10289
  20
4.36752
  30
0.0
  70
0
  0
VERTEX
  8
a
  10
17.96573
  20
4.43959
  30
0.0
  70
0
  0
VERTEX
  8
a
  10
17.90015
  20
4.4791
  30
0.0
  70
0
  0
VERTEX
  8
a
  10
17.83729
  20
4.52175
  30
0.0
  70
0
  0
VERTEX
  8
a
  10
17.76016
  20
4.54826
  30
0.0
  70
0
  0
VERTEX
  8
a
  10
17.71936
  20
4.55906
  30
0.0
  70
0
  0
VERTEX
  8
a
  10
17.67297
  20
4.56366
  30
0.0
  70
0
  0
VERTEX
  8
a
  10
17.29181
  20
4.21552
  30
0.0
  70
0
  0
VERTEX
  8
a
  10
17.29181
  20
4.21552
  30
0.0
  70
0
  0
VERTEX
  8
a
  10
16.94367
  20
3.83436
  30
0.0
  70
0
  0
VERTEX
  8
a
  10
16.94827
  20
3.78797
  30
0.0
  70
0
  0
VERTEX
  8
a
  10
16.95907
  20
3.74717
  30
0.0
  70
0
  0
VERTEX
  8
a
  10
16.98559
  20
3.67005
  30
0.0
  70
0
  0
VERTEX
  8
a
  10
17.02823
  20
3.60719
  30
0.0
  70
0
  0
VERTEX
  8
a
  10
17.06775
  20
3.5416
  30
0.0
  70
0
  0
VERTEX
  8
a
  10
17.13982
  20
3.40445
  30
0.0
  70
0
  0
VERTEX
  8
a
  10
17.20424
  20
3.26088
  30
0.0
  70
0
  0
VERTEX
  8
a
  10
17.262
  20
3.11189
  30
0.0
  70
0
  0
VERTEX
  8
a
  10
17.31366
  20
2.95813
  30
0.0
  70
0
  0
VERTEX
  8
a
  10
17.35955
  20
2.80003
  30
0.0
  70
0
  0
VERTEX
  8
a
  10
17.39991
  20
2.63793
  30
0.0
  70
0
  0
VERTEX
  8
a
  10
17.43488
  20
2.47211
  30
0.0
  70
0
  0
VERTEX
  8
a
  10
17.45765
  20
2.34545
  30
0.0
  70
0
  0
VERTEX
  8
a
  10
16.67871
  20
1.77953
  30
0.0
  70
0
  0
VERTEX
  8
a
  10
16.56529
  20
1.84032
  30
0.0
  70
0
  0
VERTEX
  8
a
  10
16.41839
  20
1.92482
  30
0.0
  70
0
  0
VERTEX
  8
a
  10
16.2767
  20
2.01329
  30
0.0
  70
0
  0
VERTEX
  8
a
  10
16.14052
  20
2.10579
  30
0.0
  70
0
  0
VERTEX
  8
a
  10
16.01024
  20
2.20244
  30
0.0
  70
0
  0
VERTEX
  8
a
  10
15.8864
  20
2.30341
  30
0.0
  70
0
  0
VERTEX
  8
a
  10
15.76976
  20
2.40905
  30
0.0
  70
0
  0
VERTEX
  8
a
  10
15.66159
  20
2.51997
  30
0.0
  70
0
  0
VERTEX
  8
a
  10
15.61143
  20
2.57782
  30
0.0
  70
0
  0
VERTEX
  8
a
  10
15.56482
  20
2.6378
  30
0.0
  70
0
  0
VERTEX
  8
a
  10
15.49966
  20
2.68685
  30
0.0
  70
0
  0
VERTEX
  8
a
  10
15.4642
  20
2.70973
  30
0.0
  70
0
  0
VERTEX
  8
a
  10
15.4215
  20
2.72844
  30
0.0
  70
0
  0
VERTEX
  8
a
  10
14.95141
  20
2.51513
  30
0.0
  70
0
  0
VERTEX
  8
a
  10
14.95141
  20
2.51513
  30
0.0
  70
0
  0
VERTEX
  8
a
  10
14.50253
  20
2.2602
  30
0.0
  70
0
  0
VERTEX
  8
a
  10
14.49257
  20
2.21466
  30
0.0
  70
0
  0
VERTEX
  8
a
  10
14.49023
  20
2.17252
  30
0.0
  70
0
  0
VERTEX
  8
a
  10
14.49162
  20
2.09098
  30
0.0
  70
0
  0
VERTEX
  8
a
  10
14.51275
  20
2.01802
  30
0.0
  70
0
  0
VERTEX
  8
a
  10
14.53007
  20
1.94343
  30
0.0
  70
0
  0
VERTEX
  8
a
  10
14.55622
  20
1.79072
  30
0.0
  70
0
  0
VERTEX
  8
a
  10
14.57312
  20
1.63426
  30
0.0
  70
0
  0
VERTEX
  8
a
  10
14.58202
  20
1.47472
  30
0.0
  70
0
  0
VERTEX
  8
a
  10
14.58363
  20
1.31252
  30
0.0
  70
0
  0
VERTEX
  8
a
  10
14.57843
  20
1.14798
  30
0.0
  70
0
  0
VERTEX
  8
a
  10
14.56672
  20
0.98134
  30
0.0
  70
0
  0
VERTEX
  8
a
  10
14.54874
  20
0.81283
  30
0.0
  70
0
  0
VERTEX
  8
a
  10
14.53125
  20
0.68534
  30
0.0
  70
0
  0
VERTEX
  8
a
  10
13.61556
  20
0.38781
  30
0.0
  70
0
  0
VERTEX
  8
a
  10
13.52647
  20
0.48068
  30
0.0
  70
0
  0
VERTEX
  8
a
  10
13.41288
  20
0.60644
  30
0.0
  70
0
  0
VERTEX
  8
a
  10
13.30546
  20
0.73437
  30
0.0
  70
0
  0
VERTEX
  8
a
  10
13.20452
  20
0.86442
  30
0.0
  70
0
  0
VERTEX
  8
a
  10
13.11049
  20
0.9966
  30
0.0
  70
0
  0
VERTEX
  8
a
  10
13.02392
  20
1.1309
  30
0.0
  70
0
  0
VERTEX
  8
a
  10
12.94563
  20
1.2674
  30
0.0
  70
0
  0
VERTEX
  8
a
  10
12.87703
  20
1.40632
  30
0.0
  70
0
  0
VERTEX
  8
a
  10
12.84719
  20
1.47684
  30
0.0
  70
0
  0
VERTEX
  8
a
  10
12.82141
  20
1.54829
  30
0.0
  70
0
  0
VERTEX
  8
a
  10
12.77459
  20
1.61507
  30
0.0
  70
0
  0
VERTEX
  8
a
  10
12.74794
  20
1.64779
  30
0.0
  70
0
  0
VERTEX
  8
a
  10
12.71311
  20
1.67878
  30
0.0
  70
0
  0
VERTEX
  8
a
  10
12.20011
  20
1.62117
  30
0.0
  70
0
  0
VERTEX
  8
a
  10
12.20011
  20
1.62117
  30
0.0
  70
0
  0
VERTEX
  8
a
  10
11.69442
  20
1.51744
  30
0.0
  70
0
  0
VERTEX
  8
a
  10
11.67088
  20
1.4772
  30
0.0
  70
0
  0
VERTEX
  8
a
  10
11.65563
  20
1.43785
  30
0.0
  70
0
  0
VERTEX
  8
a
  10
11.63175
  20
1.35987
  30
0.0
  70
0
  0
VERTEX
  8
a
  10
11.6293
  20
1.28395
  30
0.0
  70
0
  0
VERTEX
  8
a
  10
11.62272
  20
1.20766
  30
0.0
  70
0
  0
VERTEX
  8
a
  10
11.60041
  20
1.05434
  30
0.0
  70
0
  0
VERTEX
  8
a
  10
11.56814
  20
0.90032
  30
0.0
  70
0
  0
VERTEX
  8
a
  10
11.5273
  20
0.74584
  30
0.0
  70
0
  0
VERTEX
  8
a
  10
11.47871
  20
0.59108
  30
0.0
  70
0
  0
VERTEX
  8
a
  10
11.42291
  20
0.4362
  30
0.0
  70
0
  0
VERTEX
  8
a
  10
11.36028
  20
0.28134
  30
0.0
  70
0
  0
VERTEX
  8
a
  10
11.29111
  20
0.12663
  30
0.0
  70
0
  0
VERTEX
  8
a
  10
11.23508
  20
0.01078
  30
0.0
  70
0
  0
VERTEX
  8
a
  10
10.27226
  20
0.01078
  30
0.0
  70
0
  0
VERTEX
  8
a
  10
10.21623
  20
0.12663
  30
0.0
  70
0
  0
VERTEX
  8
a
  10
10.14706
  20
0.28134
  30
0.0
  70
0
  0
VERTEX
  8
a
  10
10.08443
  20
0.4362
  30
0.0
  70
0
  0
VERTEX
  8
a
  10
10.02863
  20
0.59108
  30
0.0
  70
0
  0
VERTEX
  8
a
  10
9.98004
  20
0.74584
  30
0.0
  70
0
  0
VERTEX
  8
a
  10
9.9392
  20
0.90032
  30
0.0
  70
0
  0
VERTEX
  8
a
  10
9.90693
  20
1.05434
  30
0.0
  70
0
  0
VERTEX
  8
a
  10
9.88461
  20
1.20766
  30
0.0
  70
0
  0
VERTEX
  8
a
  10
9.87803
  20
1.28395
  30
0.0
  70
0
  0
VERTEX
  8
a
  10
9.87559
  20
1.35987
  30
0.0
  70
0
  0
VERTEX
  8
a
  10
9.8517
  20
1.43785
  30
0.0
  70
0
  0
VERTEX
  8
a
  10
9.83646
  20
1.4772
  30
0.0
  70
0
  0
VERTEX
  8
a
  10
9.81291
  20
1.51744
  30
0.0
  70
0
  0
VERTEX
  8
a
  10
9.30722
  20
1.62117
  30
0.0
  70
0
  0
VERTEX
  8
a
  10
9.30722
  20
1.62117
  30
0.0
  70
0
  0
VERTEX
  8
a
  10
8.79423
  20
1.67878
  30
0.0
  70
0
  0
VERTEX
  8
a
  10
8.7594
  20
1.64779
  30
0.0
  70
0
  0
VERTEX
  8
a
  10
8.73274
  20
1.61507
  30
0.0
  70
0
  0
VERTEX
  8
a
  10
8.68593
  20
1.54829
  30
0.0
  70
0
  0
VERTEX
  8
a
  10
8.66014
  20
1.47684
  30
0.0
  70
0
  0
VERTEX
  8
a
  10
8.63031
  20
1.40632
  30
0.0
  70
0
  0
VERTEX
  8
a
  10
8.56171
  20
1.2674
  30
0.0
  70
0
  0
VERTEX
  8
a
  10
8.48342
  20
1.1309
  30
0.0
  70
0
  0
VERTEX
  8
a
  10
8.39684
  20
0.9966
  30
0.0
  70
0
  0
VERTEX
  8
a
  10
8.30281
  20
0.86442
  30
0.0
  70
0
  0
VERTEX
  8
a
  10
8.20188
  20
0.73437
  30
0.0
  70
0
  0
VERTEX
  8
a
  10
8.09446
  20
0.60644
  30
0.0
  70
0
  0
VERTEX
  8
a
  10
7.98087
  20
0.48068
  30
0.0
  70
0
  0
VERTEX
  8
a
  10
7.89178
  20
0.38781
  30
0.0
  70
0
  0
VERTEX
  8
a
  10
6.97609
  20
0.68534
  30
0.0
  70
0
  0
VERTEX
  8
a
  10
6.9586
  20
0.81283
  30
0.0
  70
0
  0
VERTEX
  8
a
  10
6.94062
  20
0.98134
  30
0.0
  70
0
  0
VERTEX
  8
a
  10
6.92891
  20
1.14798
  30
0.0
  70
0
  0
VERTEX
  8
a
  10
6.9237
  20
1.31252
  30
0.0
  70
0
  0
VERTEX
  8
a
  10
6.92531
  20
1.47472
  30
0.0
  70
0
  0
VERTEX
  8
a
  10
6.93421
  20
1.63426
  30
0.0
  70
0
  0
VERTEX
  8
a
  10
6.95111
  20
1.79072
  30
0.0
  70
0
  0
VERTEX
  8
a
  10
6.97727
  20
1.94343
  30
0.0
  70
0
  0
VERTEX
  8
a
  10
6.99459
  20
2.01802
  30
0.0
  70
0
  0
VERTEX
  8
a
  10
7.01572
  20
2.09098
  30
0.0
  70
0
  0
VERTEX
  8
a
  10
7.0171
  20
2.17252
  30
0.0
  70
0
  0
VERTEX
  8
a
  10
7.01477
  20
2.21466
  30
0.0
  70
0
  0
VERTEX
  8
a
  10
7.00481
  20
2.2602
  30
0.0
  70
0
  0
VERTEX
  8
a
  10
6.55592
  20
2.51513
  30
0.0
  70
0
  0
VERTEX
  8
a
  10
6.55592
  20
2.51513
  30
0.0
  70
0
  0
VERTEX
  8
a
  10
6.08584
  20
2.72844
  30
0.0
  70
0
  0
VERTEX
  8
a
  10
6.04314
  20
2.70973
  30
0.0
  70
0
  0
VERTEX
  8
a
  10
6.00767
  20
2.68685
  30
0.0
  70
0
  0
VERTEX
  8
a
  10
5.94252
  20
2.6378
  30
0.0
  70
0
  0
VERTEX
  8
a
  10
5.89591
  20
2.57782
  30
0.0
  70
0
  0
VERTEX
  8
a
  10
5.84575
  20
2.51997
  30
0.0
  70
0
  0
VERTEX
  8
a
  10
5.73758
  20
2.40905
  30
0.0
  70
0
  0
VERTEX
  8
a
  10
5.62093
  20
2.30341
  30
0.0
  70
0
  0
VERTEX
  8
a
  10
5.49709
  20
2.20244
  30
0.0
  70
0
  0
VERTEX
  8
a
  10
5.36682
  20
2.10579
  30
0.0
  70
0
  0
VERTEX
  8
a
  10
5.23064
  20
2.01329
  30
0.0
  70
0
  0
VERTEX
  8
a
  10
5.08894
  20
1.92482
  30
0.0
  70
0
  0
VERTEX
  8
a
  10
4.94205
  20
1.84032
  30
0.0
  70
0
  0
VERTEX
  8
a
  10
4.82862
  20
1.77953
  30
0.0
  70
0
  0
VERTEX
  8
a
  10
4.04969
  20
2.34545
  30
0.0
  70
0
  0
VERTEX
  8
a
  10
4.07245
  20
2.47211
  30
0.0
  70
0
  0
VERTEX
  8
a
  10
4.10743
  20
2.63793
  30
0.0
  70
0
  0
VERTEX
  8
a
  10
4.14779
  20
2.80003
  30
0.0
  70
0
  0
VERTEX
  8
a
  10
4.19368
  20
2.95813
  30
0.0
  70
0
  0
VERTEX
  8
a
  10
4.24534
  20
3.11189
  30
0.0
  70
0
  0
VERTEX
  8
a
  10
4.3031
  20
3.26088
  30
0.0
  70
0
  0
VERTEX
  8
a
  10
4.36752
  20
3.40445
  30
0.0
  70
0
  0
VERTEX
  8
a
  10
4.43959
  20
3.5416
  30
0.0
  70
0
  0
VERTEX
  8
a
  10
4.4791
  20
3.60719
  30
0.0
  70
0
  0
VERTEX
  8
a
  10
4.52175
  20
3.67005
  30
0.0
  70
0
  0
VERTEX
  8
a
  10
4.54826
  20
3.74717
  30
0.0
  70
0
  0
VERTEX
  8
a
  10
4.55906
  20
3.78797
  30
0.0
  70
0
  0
VERTEX
  8
a
  10
4.56366
  20
3.83436
  30
0.0
  70
0
  0
VERTEX
  8
a
  10
4.21552
  20
4.21552
  30
0.0
  70
0
  0
VERTEX
  8
a
  10
4.21552
  20
4.21552
  30
0.0
  70
0
  0
VERTEX
  8
a
  10
3.83436
  20
4.56366
  30
0.0
  70
0
  0
VERTEX
  8
a
  10
3.78797
  20
4.55906
  30
0.0
  70
0
  0
VERTEX
  8
a
  10
3.74717
  20
4.54826
  30
0.0
  70
0
  0
VERTEX
  8
a
  10
3.67005
  20
4.52175
  30
0.0
  70
0
  0
VERTEX
  8
a
  10
3.60719
  20
4.4791
  30
0.0
  70
0
  0
VERTEX
  8
a
  10
3.5416
  20
4.43959
  30
0.0
  70
0
  0
VERTEX
  8
a
  10
3.40445
  20
4.36752
  30
0.0
  70
0
  0
VERTEX
  8
a
  10
3.26088
  20
4.3031
  30
0.0
  70
0
  0
VERTEX
  8
a
  10
3.11189
  20
4.24534
  30
0.0
  70
0
  0
VERTEX
  8
a
  10
2.95813
  20
4.19368
  30
0.0
  70
0
  0
VERTEX
  8
a
  10
2.80003
  20
4.14779
  30
0.0
  70
0
  0
VERTEX
  8
a
  10
2.63793
  20
4.10743
  30
0.0
  70
0
  0
VERTEX
  8
a
  10
2.47211
  20
4.07245
  30
0.0
  70
0
  0
VERTEX
  8
a
  10
2.34545
  20
4.04969
  30
0.0
  70
0
  0
VERTEX
  8
a
  10
1.77953
  20
4.82862
  30
0.0
  70
0
  0
VERTEX
  8
a
  10
1.84032
  20
4.94205
  30
0.0
  70
0
  0
VERTEX
  8
a
  10
1.92482
  20
5.08894
  30
0.0
  70
0
  0
VERTEX
  8
a
  10
2.01329
  20
5.23064
  30
0.0
  70
0
  0
VERTEX
  8
a
  10
2.10579
  20
5.36682
  30
0.0
  70
0
  0
VERTEX
  8
a
  10
2.20244
  20
5.49709
  30
0.0
  70
0
  0
VERTEX
  8
a
  10
2.30341
  20
5.62093
  30
0.0
  70
0
  0
VERTEX
  8
a
  10
2.40905
  20
5.73758
  30
0.0
  70
0
  0
VERTEX
  8
a
  10
2.51997
  20
5.84575
  30
0.0
  70
0
  0
VERTEX
  8
a
  10
2.57782
  20
5.89591
  30
0.0
  70
0
  0
VERTEX
  8
a
  10
2.6378
  20
5.94252
  30
0.0
  70
0
  0
VERTEX
  8
a
  10
2.68685
  20
6.00767
  30
0.0
  70
0
  0
VERTEX
  8
a
  10
2.70973
  20
6.04314
  30
0.0
  70
0
  0
VERTEX
  8
a
  10
2.72844
  20
6.08584
  30
0.0
  70
0
  0
VERTEX
  8
a
  10
2.51513
  20
6.55592
  30
0.0
  70
0
  0
VERTEX
  8
a
  10
2.51513
  20
6.55592
  30
0.0
  70
0
  0
VERTEX
  8
a
  10
2.2602
  20
7.00481
  30
0.0
  70
0
  0
VERTEX
  8
a
  10
2.21466
  20
7.01477
  30
0.0
  70
0
  0
VERTEX
  8
a
  10
2.17252
  20
7.0171
  30
0.0
  70
0
  0
VERTEX
  8
a
  10
2.09098
  20
7.01572
  30
0.0
  70
0
  0
VERTEX
  8
a
  10
2.01802
  20
6.99459
  30
0.0
  70
0
  0
VERTEX
  8
a
  10
1.94343
  20
6.97727
  30
0.0
  70
0
  0
VERTEX
  8
a
  10
1.79072
  20
6.95111
  30
0.0
  70
0
  0
VERTEX
  8
a
  10
1.63426
  20
6.93421
  30
0.0
  70
0
  0
VERTEX
  8
a
  10
1.47472
  20
6.92531
  30
0.0
  70
0
  0
VERTEX
  8
a
  10
1.31252
  20
6.9237
  30
0.0
  70
0
  0
VERTEX
  8
a
  10
1.14798
  20
6.92891
  30
0.0
  70
0
  0
VERTEX
  8
a
  10
0.98134
  20
6.94062
  30
0.0
  70
0
  0
VERTEX
  8
a
  10
0.81283
  20
6.9586
  30
0.0
  70
0
  0
VERTEX
  8
a
  10
0.68534
  20
6.97609
  30
0.0
  70
0
  0
VERTEX
  8
a
  10
0.38781
  20
7.89178
  30
0.0
  70
0
  0
VERTEX
  8
a
  10
0.48068
  20
7.98087
  30
0.0
  70
0
  0
VERTEX
  8
a
  10
0.60644
  20
8.09446
  30
0.0
  70
0
  0
VERTEX
  8
a
  10
0.73437
  20
8.20188
  30
0.0
  70
0
  0
VERTEX
  8
a
  10
0.86442
  20
8.30281
  30
0.0
  70
0
  0
VERTEX
  8
a
  10
0.9966
  20
8.39684
  30
0.0
  70
0
  0
VERTEX
  8
a
  10
1.1309
  20
8.48342
  30
0.0
  70
0
  0
VERTEX
  8
a
  10
1.2674
  20
8.56171
  30
0.0
  70
0
  0
VERTEX
  8
a
  10
1.40632
  20
8.63031
  30
0.0
  70
0
  0
VERTEX
  8
a
  10
1.47684
  20
8.66014
  30
0.0
  70
0
  0
VERTEX
  8
a
  10
1.54829
  20
8.68593
  30
0.0
  70
0
  0
VERTEX
  8
a
  10
1.61507
  20
8.73274
  30
0.0
  70
0
  0
VERTEX
  8
a
  10
1.64779
  20
8.7594
  30
0.0
  70
0
  0
VERTEX
  8
a
  10
1.67878
  20
8.79423
  30
0.0
  70
0
  0
VERTEX
  8
a
  10
1.62117
  20
9.30722
  30
0.0
  70
0
  0
VERTEX
  8
a
  10
1.62117
  20
9.30722
  30
0.0
  70
0
  0
VERTEX
  8
a
  10
1.51744
  20
9.81291
  30
0.0
  70
0
  0
VERTEX
  8
a
  10
1.4772
  20
9.83646
  30
0.0
  70
0
  0
VERTEX
  8
a
  10
1.43785
  20
9.8517
  30
0.0
  70
0
  0
VERTEX
  8
a
  10
1.35987
  20
9.87559
  30
0.0
  70
0
  0
VERTEX
  8
a
  10
1.28395
  20
9.87803
  30
0.0
  70
0
  0
VERTEX
  8
a
  10
1.20766
  20
9.88461
  30
0.0
  70
0
  0
VERTEX
  8
a
  10
1.05434
  20
9.90693
  30
0.0
  70
0
  0
VERTEX
  8
a
  10
0.90032
  20
9.9392
  30
0.0
  70
0
  0
VERTEX
  8
a
  10
0.74584
  20
9.98004
  30
0.0
  70
0
  0
VERTEX
  8
a
  10
0.59108
  20
10.02863
  30
0.0
  70
0
  0
VERTEX
  8
a
  10
0.4362
  20
10.08443
  30
0.0
  70
0
  0
VERTEX
  8
a
  10
0.28134
  20
10.14706
  30
0.0
  70
0
  0
VERTEX
  8
a
  10
0.12663
  20
10.21623
  30
0.0
  70
0
  0
VERTEX
  8
a
  10
0.01078
  20
10.27226
  30
0.0
  70
0
  0
VERTEX
  8
a
  10
0.01078
  20
11.23508
  30
0.0
  70
0
  0
VERTEX
  8
a
  10
0.12663
  20
11.29111
  30
0.0
  70
0
  0
VERTEX
  8
a
  10
0.28134
  20
11.36028
  30
0.0
  70
0
  0
VERTEX
  8
a
  10
0.4362
  20
11.42291
  30
0.0
  70
0
  0
VERTEX
  8
a
  10
0.59108
  20
11.47871
  30
0.0
  70
0
  0
VERTEX
  8
a
  10
0.74584
  20
11.5273
  30
0.0
  70
0
  0
VERTEX
  8
a
  10
0.90032
  20
11.56814
  30
0.0
  70
0
  0
VERTEX
  8
a
  10
1.05434
  20
11.60041
  30
0.0
  70
0
  0
VERTEX
  8
a
  10
1.20766
  20
11.62272
  30
0.0
  70
0
  0
VERTEX
  8
a
  10
1.28395
  20
11.6293
  30
0.0
  70
0
  0
VERTEX
  8
a
  10
1.35987
  20
11.63175
  30
0.0
  70
0
  0
VERTEX
  8
a
  10
1.43785
  20
11.65563
  30
0.0
  70
0
  0
VERTEX
  8
a
  10
1.4772
  20
11.67088
  30
0.0
  70
0
  0
VERTEX
  8
a
  10
1.51744
  20
11.69442
  30
0.0
  70
0
  0
VERTEX
  8
a
  10
1.62117
  20
12.20011
  30
0.0
  70
0
  0
VERTEX
  8
a
  10
1.62117
  20
12.20011
  30
0.0
  70
0
  0
VERTEX
  8
a
  10
1.67878
  20
12.71311
  30
0.0
  70
0
  0
VERTEX
  8
a
  10
1.64779
  20
12.74794
  30
0.0
  70
0
  0
VERTEX
  8
a
  10
1.61507
  20
12.77459
  30
0.0
  70
0
  0
VERTEX
  8
a
  10
1.54829
  20
12.82141
  30
0.0
  70
0
  0
VERTEX
  8
a
  10
1.47684
  20
12.84719
  30
0.0
  70
0
  0
VERTEX
  8
a
  10
1.40632
  20
12.87703
  30
0.0
  70
0
  0
VERTEX
  8
a
  10
1.2674
  20
12.94563
  30
0.0
  70
0
  0
VERTEX
  8
a
  10
1.1309
  20
13.02392
  30
0.0
  70
0
  0
VERTEX
  8
a
  10
0.9966
  20
13.11049
  30
0.0
  70
0
  0
VERTEX
  8
a
  10
0.86442
  20
13.20452
  30
0.0
  70
0
  0
VERTEX
  8
a
  10
0.73437
  20
13.30546
  30
0.0
  70
0
  0
VERTEX
  8
a
  10
0.60644
  20
13.41288
  30
0.0
  70
0
  0
VERTEX
  8
a
  10
0.48068
  20
13.52647
  30
0.0
  70
0
  0
VERTEX
  8
a
  10
0.38781
  20
13.61556
  30
0.0
  70
0
  0
VERTEX
  8
a
  10
0.68534
  20
14.53125
  30
0.0
  70
0
  0
VERTEX
  8
a
  10
0.81283
  20
14.54874
  30
0.0
  70
0
  0
VERTEX
  8
a
  10
0.98134
  20
14.56672
  30
0.0
  70
0
  0
VERTEX
  8
a
  10
1.14798
  20
14.57843
  30
0.0
  70
0
  0
VERTEX
  8
a
  10
1.31252
  20
14.58363
  30
0.0
  70
0
  0
VERTEX
  8
a
  10
1.47472
  20
14.58202
  30
0.0
  70
0
  0
VERTEX
  8
a
  10
1.63426
  20
14.57312
  30
0.0
  70
0
  0
VERTEX
  8
a
  10
1.79072
  20
14.55622
  30
0.0
  70
0
  0
VERTEX
  8
a
  10
1.94343
  20
14.53007
  30
0.0
  70
0
  0
VERTEX
  8
a
  10
2.01802
  20
14.51275
  30
0.0
  70
0
  0
VERTEX
  8
a
  10
2.09098
  20
14.49162
  30
0.0
  70
0
  0
VERTEX
  8
a
  10
2.17252
  20
14.49023
  30
0.0
  70
0
  0
VERTEX
  8
a
  10
2.21466
  20
14.49257
  30
0.0
  70
0
  0
VERTEX
  8
a
  10
2.2602
  20
14.50253
  30
0.0
  70
0
  0
VERTEX
  8
a
  10
2.51513
  20
14.95141
  30
0.0
  70
0
  0
VERTEX
  8
a
  10
2.51513
  20
14.95141
  30
0.0
  70
0
  0
VERTEX
  8
a
  10
2.72844
  20
15.4215
  30
0.0
  70
0
  0
VERTEX
  8
a
  10
2.70973
  20
15.4642
  30
0.0
  70
0
  0
VERTEX
  8
a
  10
2.68685
  20
15.49966
  30
0.0
  70
0
  0
VERTEX
  8
a
  10
2.6378
  20
15.56482
  30
0.0
  70
0
  0
VERTEX
  8
a
  10
2.57782
  20
15.61143
  30
0.0
  70
0
  0
VERTEX
  8
a
  10
2.51997
  20
15.66159
  30
0.0
  70
0
  0
VERTEX
  8
a
  10
2.40905
  20
15.76976
  30
0.0
  70
0
  0
VERTEX
  8
a
  10
2.30341
  20
15.8864
  30
0.0
  70
0
  0
VERTEX
  8
a
  10
2.20244
  20
16.01024
  30
0.0
  70
0
  0
VERTEX
  8
a
  10
2.10579
  20
16.14052
  30
0.0
  70
0
  0
VERTEX
  8
a
  10
2.01329
  20
16.2767
  30
0.0
  70
0
  0
VERTEX
  8
a
  10
1.92482
  20
16.41839
  30
0.0
  70
0
  0
VERTEX
  8
a
  10
1.84032
  20
16.56529
  30
0.0
  70
0
  0
VERTEX
  8
a
  10
1.77953
  20
16.67871
  30
0.0
  70
0
  0
VERTEX
  8
a
  10
2.34545
  20
17.45765
  30
0.0
  70
0
  0
VERTEX
  8
a
  10
2.47211
  20
17.43488
  30
0.0
  70
0
  0
VERTEX
  8
a
  10
2.63793
  20
17.39991
  30
0.0
  70
0
  0
VERTEX
  8
a
  10
2.80003
  20
17.35955
  30
0.0
  70
0
  0
VERTEX
  8
a
  10
2.95813
  20
17.31366
  30
0.0
  70
0
  0
VERTEX
  8
a
  10
3.11189
  20
17.262
  30
0.0
  70
0
  0
VERTEX
  8
a
  10
3.26088
  20
17.20424
  30
0.0
  70
0
  0
VERTEX
  8
a
  10
3.40445
  20
17.13982
  30
0.0
  70
0
  0
VERTEX
  8
a
  10
3.5416
  20
17.06775
  30
0.0
  70
0
  0
VERTEX
  8
a
  10
3.60719
  20
17.02823
  30
0.0
  70
0
  0
VERTEX
  8
a
  10
3.67005
  20
16.98559
  30
0.0
  70
0
  0
VERTEX
  8
a
  10
3.74717
  20
16.95907
  30
0.0
  70
0
  0
VERTEX
  8
a
  10
3.78797
  20
16.94827
  30
0.0
  70
0
  0
VERTEX
  8
a
  10
3.83436
  20
16.94367
  30
0.0
  70
0
  0
VERTEX
  8
a
  10
4.21552
  20
17.29181
  30
0.0
  70
0
  0
VERTEX
  8
a
  10
4.21552
  20
17.29181
  30
0.0
  70
0
  0
VERTEX
  8
a
  10
4.56366
  20
17.67297
  30
0.0
  70
0
  0
VERTEX
  8
a
  10
4.55906
  20
17.71936
  30
0.0
  70
0
  0
VERTEX
  8
a
  10
4.54826
  20
17.76016
  30
0.0
  70
0
  0
VERTEX
  8
a
  10
4.52175
  20
17.83729
  30
0.0
  70
0
  0
VERTEX
  8
a
  10
4.4791
  20
17.90015
  30
0.0
  70
0
  0
VERTEX
  8
a
  10
4.43959
  20
17.96573
  30
0.0
  70
0
  0
VERTEX
  8
a
  10
4.36752
  20
18.10289
  30
0.0
  70
0
  0
VERTEX
  8
a
  10
4.3031
  20
18.24646
  30
0.0
  70
0
  0
VERTEX
  8
a
  10
4.24534
  20
18.39544
  30
0.0
  70
0
  0
VERTEX
  8
a
  10
4.19368
  20
18.5492
  30
0.0
  70
0
  0
VERTEX
  8
a
  10
4.14779
  20
18.70731
  30
0.0
  70
0
  0
VERTEX
  8
a
  10
4.10743
  20
18.8694
  30
0.0
  70
0
  0
VERTEX
  8
a
  10
4.07245
  20
19.03522
  30
0.0
  70
0
  0
VERTEX
  8
a
  10
4.04969
  20
19.16188
  30
0.0
  70
0
  0
VERTEX
  8
a
  10
4.82862
  20
19.72781
  30
0.0
  70
0
  0
VERTEX
  8
a
  10
4.94205
  20
19.66702
  30
0.0
  70
0
  0
VERTEX
  8
a
  10
5.08894
  20
19.58252
  30
0.0
  70
0
  0
VERTEX
  8
a
  10
5.23064
  20
19.49404
  30
0.0
  70
0
  0
VERTEX
  8
a
  10
5.36682
  20
19.40154
  30
0.0
  70
0
  0
VERTEX
  8
a
  10
5.49709
  20
19.3049
  30
0.0
  70
0
  0
VERTEX
  8
a
  10
5.62093
  20
19.20392
  30
0.0
  70
0
  0
VERTEX
  8
a
  10
5.73758
  20
19.09829
  30
0.0
  70
0
  0
VERTEX
  8
a
  10
5.84575
  20
18.98737
  30
0.0
  70
0
  0
VERTEX
  8
a
  10
5.89591
  20
18.92952
  30
0.0
  70
0
  0
VERTEX
  8
a
  10
5.94252
  20
18.86954
  30
0.0
  70
0
  0
VERTEX
  8
a
  10
6.00767
  20
18.82049
  30
0.0
  70
0
  0
VERTEX
  8
a
  10
6.04314
  20
18.79761
  30
0.0
  70
0
  0
VERTEX
  8
a
  10
6.08584
  20
18.7789
  30
0.0
  70
0
  0
VERTEX
  8
a
  10
6.55592
  20
18.99221
  30
0.0
  70
0
  0
VERTEX
  8
a
  10
6.55592
  20
18.99221
  30
0.0
  70
0
  0
VERTEX
  8
a
  10
7.00481
  20
19.24713
  30
0.0
  70
0
  0
VERTEX
  8
a
  10
7.01477
  20
19.29268
  30
0.0
  70
0
  0
VERTEX
  8
a
  10
7.0171
  20
19.33482
  30
0.0
  70
0
  0
VERTEX
  8
a
  10
7.01572
  20
19.41636
  30
0.0
  70
0
  0
VERTEX
  8
a
  10
6.99459
  20
19.48932
  30
0.0
  70
0
  0
VERTEX
  8
a
  10
6.97727
  20
19.56391
  30
0.0
  70
0
  0
VERTEX
  8
a
  10
6.95111
  20
19.71662
  30
0.0
  70
0
  0
VERTEX
  8
a
  10
6.93421
  20
19.87307
  30
0.0
  70
0
  0
VERTEX
  8
a
  10
6.92531
  20
20.03261
  30
0.0
  70
0
  0
VERTEX
  8
a
  10
6.9237
  20
20.19481
  30
0.0
  70
0
  0
VERTEX
  8
a
  10
6.92891
  20
20.35936
  30
0.0
  70
0
  0
VERTEX
  8
a
  10
6.94062
  20
20.52599
  30
0.0
  70
0
  0
VERTEX
  8
a
  10
6.9586
  20
20.6945
  30
0.0
  70
0
  0
VERTEX
  8
a
  10
6.97609
  20
20.822
  30
0.0
  70
0
  0
VERTEX
  8
a
  10
7.89178
  20
21.11952
  30
0.0
  70
0
  0
VERTEX
  8
a
  10
7.98087
  20
21.02666
  30
0.0
  70
0
  0
VERTEX
  8
a
  10
8.09446
  20
20.9009
  30
0.0
  70
0
  0
VERTEX
  8
a
  10
8.20188
  20
20.77297
  30
0.0
  70
0
  0
VERTEX
  8
a
  10
8.30281
  20
20.64291
  30
0.0
  70
0
  0
VERTEX
  8
a
  10
8.39684
  20
20.51074
  30
0.0
  70
0
  0
VERTEX
  8
a
  10
8.48342
  20
20.37644
  30
0.0
  70
0
  0
VERTEX
  8
a
  10
8.56171
  20
20.23993
  30
0.0
  70
0
  0
VERTEX
  8
a
  10
8.63031
  20
20.10101
  30
0.0
  70
0
  0
VERTEX
  8
a
  10
8.66014
  20
20.03049
  30
0.0
  70
0
  0
VERTEX
  8
a
  10
8.68593
  20
19.95904
  30
0.0
  70
0
  0
VERTEX
  8
a
  10
8.73274
  20
19.89226
  30
0.0
  70
0
  0
VERTEX
  8
a
  10
8.7594
  20
19.85954
  30
0.0
  70
0
  0
VERTEX
  8
a
  10
8.79423
  20
19.82855
  30
0.0
  70
0
  0
VERTEX
  8
a
  10
9.30722
  20
19.88616
  30
0.0
  70
0
  0
VERTEX
  8
a
  10
9.30722
  20
19.88616
  30
0.0
  70
0
  0
VERTEX
  8
a
  10
9.81291
  20
19.9899
  30
0.0
  70
0
  0
VERTEX
  8
a
  10
9.83646
  20
20.03013
  30
0.0
  70
0
  0
VERTEX
  8
a
  10
9.8517
  20
20.06949
  30
0.0
  70
0
  0
VERTEX
  8
a
  10
9.87559
  20
20.14747
  30
0.0
  70
0
  0
VERTEX
  8
a
  10
9.87803
  20
20.22339
  30
0.0
  70
0
  0
VERTEX
  8
a
  10
9.88461
  20
20.29967
  30
0.0
  70
0
  0
VERTEX
  8
a
  10
9.90693
  20
20.45299
  30
0.0
  70
0
  0
VERTEX
  8
a
  10
9.9392
  20
20.60701
  30
0.0
  70
0
  0
VERTEX
  8
a
  10
9.98004
  20
20.76149
  30
0.0
  70
0
  0
VERTEX
  8
a
  10
10.02863
  20
20.91625
  30
0.0
  70
0
  0
VERTEX
  8
a
  10
10.08443
  20
21.07114
  30
0.0
  70
0
  0
VERTEX
  8
a
  10
10.14706
  20
21.226
  30
0.0
  70
0
  0
VERTEX
  8
a
  10
10.21623
  20
21.3807
  30
0.0
  70
0
  0
VERTEX
  8
a
  10
10.27226
  20
21.49656
  30
0.0
  70
0
  0
VERTEX
  8
a
  10
11.23508
  20
21.49656
  30
0.0
  70
0
  0
VERTEX
  8
a
  10
11.29111
  20
21.3807
  30
0.0
  70
0
  0
VERTEX
  8
a
  10
11.36028
  20
21.226
  30
0.0
  70
0
  0
VERTEX
  8
a
  10
11.42291
  20
21.07114
  30
0.0
  70
0
  0
VERTEX
  8
a
  10
11.47871
  20
20.91625
  30
0.0
  70
0
  0
VERTEX
  8
a
  10
11.5273
  20
20.76149
  30
0.0
  70
0
  0
VERTEX
  8
a
  10
11.56814
  20
20.60701
  30
0.0
  70
0
  0
VERTEX
  8
a
  10
11.60041
  20
20.45299
  30
0.0
  70
0
  0
VERTEX
  8
a
  10
11.62272
  20
20.29967
  30
0.0
  70
0
  0
VERTEX
  8
a
  10
11.6293
  20
20.22339
  30
0.0
  70
0
  0
VERTEX
  8
a
  10
11.63175
  20
20.14747
  30
0.0
  70
0
  0
VERTEX
  8
a
  10
11.65563
  20
20.06949
  30
0.0
  70
0
  0
VERTEX
  8
a
  10
11.67088
  20
20.03013
  30
0.0
  70
0
  0
VERTEX
  8
a
  10
11.69442
  20
19.9899
  30
0.0
  70
0
  0
VERTEX
  8
a
  10
12.20011
  20
19.88616
  30
0.0
  70
0
  0
VERTEX
  8
a
  10
12.20011
  20
19.88616
  30
0.0
  70
0
  0
VERTEX
  8
a
  10
12.71311
  20
19.82855
  30
0.0
  70
0
  0
VERTEX
  8
a
  10
12.74794
  20
19.85954
  30
0.0
  70
0
  0
VERTEX
  8
a
  10
12.77459
  20
19.89226
  30
0.0
  70
0
  0
VERTEX
  8
a
  10
12.82141
  20
19.95904
  30
0.0
  70
0
  0
VERTEX
  8
a
  10
12.84719
  20
20.03049
  30
0.0
  70
0
  0
VERTEX
  8
a
  10
12.87703
  20
20.10101
  30
0.0
  70
0
  0
VERTEX
  8
a
  10
12.94563
  20
20.23993
  30
0.0
  70
0
  0
VERTEX
  8
a
  10
13.02392
  20
20.37644
  30
0.0
  70
0
  0
VERTEX
  8
a
  10
13.11049
  20
20.51074
  30
0.0
  70
0
  0
VERTEX
  8
a
  10
13.20452
  20
20.64291
  30
0.0
  70
0
  0
VERTEX
  8
a
  10
13.30546
  20
20.77297
  30
0.0
  70
0
  0
VERTEX
  8
a
  10
13.41288
  20
20.9009
  30
0.0
  70
0
  0
VERTEX
  8
a
  10
13.52647
  20
21.02666
  30
0.0
  70
0
  0
VERTEX
  8
a
  10
13.61556
  20
21.11952
  30
0.0
  70
0
  0
VERTEX
  8
a
  10
14.53125
  20
20.822
  30
0.0
  70
0
  0
VERTEX
  8
a
  10
14.54874
  20
20.6945
  30
0.0
  70
0
  0
VERTEX
  8
a
  10
14.56672
  20
20.52599
  30
0.0
  70
0
  0
VERTEX
  8
a
  10
14.57843
  20
20.35936
  30
0.0
  70
0
  0
VERTEX
  8
a
  10
14.58363
  20
20.19481
  30
0.0
  70
0
  0
VERTEX
  8
a
  10
14.58202
  20
20.03261
  30
0.0
  70
0
  0
VERTEX
  8
a
  10
14.57312
  20
19.87307
  30
0.0
  70
0
  0
VERTEX
  8
a
  10
14.55622
  20
19.71662
  30
0.0
  70
0
  0
VERTEX
  8
a
  10
14.53007
  20
19.56391
  30
0.0
  70
0
  0
VERTEX
  8
a
  10
14.51275
  20
19.48932
  30
0.0
  70
0
  0
VERTEX
  8
a
  10
14.49162
  20
19.41636
  30
0.0
  70
0
  0
VERTEX
  8
a
  10
14.49023
  20
19.33482
  30
0.0
  70
0
  0
VERTEX
  8
a
  10
14.49257
  20
19.29268
  30
0.0
  70
0
  0
VERTEX
  8
a
  10
14.50253
  20
19.24713
  30
0.0
  70
0
  0
VERTEX
  8
a
  10
14.95141
  20
18.99221
  30
0.0
  70
0
  0
VERTEX
  8
a
  10
14.95141
  20
18.99221
  30
0.0
  70
0
  0
VERTEX
  8
a
  10
15.4215
  20
18.7789
  30
0.0
  70
0
  0
VERTEX
  8
a
  10
15.4642
  20
18.79761
  30
0.0
  70
0
  0
VERTEX
  8
a
  10
15.49966
  20
18.82049
  30
0.0
  70
0
  0
VERTEX
  8
a
  10
15.56482
  20
18.86954
  30
0.0
  70
0
  0
VERTEX
  8
a
  10
15.61143
  20
18.92952
  30
0.0
  70
0
  0
VERTEX
  8
a
  10
15.66159
  20
18.98737
  30
0.0
  70
0
  0
VERTEX
  8
a
  10
15.76976
  20
19.09829
  30
0.0
  70
0
  0
VERTEX
  8
a
  10
15.8864
  20
19.20392
  30
0.0
  70
0
  0
VERTEX
  8
a
  10
16.01024
  20
19.3049
  30
0.0
  70
0
  0
VERTEX
  8
a
  10
16.14052
  20
19.40154
  30
0.0
  70
0
  0
VERTEX
  8
a
  10
16.2767
  20
19.49404
  30
0.0
  70
0
  0
VERTEX
  8
a
  10
16.41839
  20
19.58252
  30
0.0
  70
0
  0
VERTEX
  8
a
  10
16.56529
  20
19.66702
  30
0.0
  70
0
  0
VERTEX
  8
a
  10
16.67871
  20
19.72781
  30
0.0
  70
0
  0
VERTEX
  8
a
  10
17.45765
  20
19.16188
  30
0.0
  70
0
  0
VERTEX
  8
a
  10
17.43488
  20
19.03522
  30
0.0
  70
0
  0
VERTEX
  8
a
  10
17.39991
  20
18.8694
  30
0.0
  70
0
  0
VERTEX
  8
a
  10
17.35955
  20
18.70731
  30
0.0
  70
0
  0
VERTEX
  8
a
  10
17.31366
  20
18.5492
  30
0.0
  70
0
  0
VERTEX
  8
a
  10
17.262
  20
18.39544
  30
0.0
  70
0
  0
VERTEX
  8
a
  10
17.20424
  20
18.24646
  30
0.0
  70
0
  0
VERTEX
  8
a
  10
17.13982
  20
18.10289
  30
0.0
  70
0
  0
VERTEX
  8
a
  10
17.06775
  20
17.96573
  30
0.0
  70
0
  0
VERTEX
  8
a
  10
17.02823
  20
17.90015
  30
0.0
  70
0
  0
VERTEX
  8
a
  10
16.98559
  20
17.83729
  30
0.0
  70
0
  0
VERTEX
  8
a
  10
16.95907
  20
17.76016
  30
0.0
  70
0
  0
VERTEX
  8
a
  10
16.94827
  20
17.71936
  30
0.0
  70
0
  0
VERTEX
  8
a
  10
16.94367
  20
17.67297
  30
0.0
  70
0
  0
VERTEX
  8
a
  10
17.29181
  20
17.29181
  30
0.0
  70
0
  0
VERTEX
  8
a
  10
17.29181
  20
17.29181
  30
0.0
  70
0
  0
VERTEX
  8
a
  10
17.67297
  20
16.94367
  30
0.0
  70
0
  0
VERTEX
  8
a
  10
17.71936
  20
16.94827
  30
0.0
  70
0
  0
VERTEX
  8
a
  10
17.76016
  20
16.95907
  30
0.0
  70
0
  0
VERTEX
  8
a
  10
17.83729
  20
16.98559
  30
0.0
  70
0
  0
VERTEX
  8
a
  10
17.90015
  20
17.02823
  30
0.0
  70
0
  0
VERTEX
  8
a
  10
17.96573
  20
17.06775
  30
0.0
  70
0
  0
VERTEX
  8
a
  10
18.10289
  20
17.13982
  30
0.0
  70
0
  0
VERTEX
  8
a
  10
18.24646
  20
17.20424
  30
0.0
  70
0
  0
VERTEX
  8
a
  10
18.39544
  20
17.262
  30
0.0
  70
0
  0
VERTEX
  8
a
  10
18.5492
  20
17.31366
  30
0.0
  70
0
  0
VERTEX
  8
a
  10
18.70731
  20
17.35955
  30
0.0
  70
0
  0
VERTEX
  8
a
  10
18.8694
  20
17.39991
  30
0.0
  70
0
  0
VERTEX
  8
a
  10
19.03522
  20
17.43488
  30
0.0
  70
0
  0
VERTEX
  8
a
  10
19.16188
  20
17.45765
  30
0.0
  70
0
  0
VERTEX
  8
a
  10
19.72781
  20
16.67871
  30
0.0
  70
0
  0
VERTEX
  8
a
  10
19.66702
  20
16.56529
  30
0.0
  70
0
  0
VERTEX
  8
a
  10
19.58252
  20
16.41839
  30
0.0
  70
0
  0
VERTEX
  8
a
  10
19.49404
  20
16.2767
  30
0.0
  70
0
  0
VERTEX
  8
a
  10
19.40154
  20
16.14052
  30
0.0
  70
0
  0
VERTEX
  8
a
  10
19.3049
  20
16.01024
  30
0.0
  70
0
  0
VERTEX
  8
a
  10
19.20392
  20
15.8864
  30
0.0
  70
0
  0
VERTEX
  8
a
  10
19.09829
  20
15.76976
  30
0.0
  70
0
  0
VERTEX
  8
a
  10
18.98737
  20
15.66159
  30
0.0
  70
0
  0
VERTEX
  8
a
  10
18.92952
  20
15.61143
  30
0.0
  70
0
  0
VERTEX
  8
a
  10
18.86954
  20
15.56482
  30
0.0
  70
0
  0
VERTEX
  8
a
  10
18.82049
  20
15.49966
  30
0.0
  70
0
  0
VERTEX
  8
a
  10
18.79761
  20
15.4642
  30
0.0
  70
0
  0
VERTEX
  8
a
  10
18.7789
  20
15.4215
  30
0.0
  70
0
  0
VERTEX
  8
a
  10
18.99221
  20
14.95141
  30
0.0
  70
0
  0
VERTEX
  8
a
  10
18.99221
  20
14.95141
  30
0.0
  70
0
  0
VERTEX
  8
a
  10
19.24713
  20
14.50253
  30
0.0
  70
0
  0
VERTEX
  8
a
  10
19.29268
  20
14.49257
  30
0.0
  70
0
  0
VERTEX
  8
a
  10
19.33482
  20
14.49023
  30
0.0
  70
0
  0
VERTEX
  8
a
  10
19.41636
  20
14.49162
  30
0.0
  70
0
  0
VERTEX
  8
a
  10
19.48932
  20
14.51275
  30
0.0
  70
0
  0
VERTEX
  8
a
  10
19.56391
  20
14.53007
  30
0.0
  70
0
  0
VERTEX
  8
a
  10
19.71662
  20
14.55622
  30
0.0
  70
0
  0
VERTEX
  8
a
  10
19.87307
  20
14.57312
  30
0.0
  70
0
  0
VERTEX
  8
a
  10
20.03261
  20
14.58202
  30
0.0
  70
0
  0
VERTEX
  8
a
  10
20.19481
  20
14.58363
  30
0.0
  70
0
  0
VERTEX
  8
a
  10
20.35936
  20
14.57843
  30
0.0
  70
0
  0
VERTEX
  8
a
  10
20.52599
  20
14.56672
  30
0.0
  70
0
  0
VERTEX
  8
a
  10
20.6945
  20
14.54874
  30
0.0
  70
0
  0
VERTEX
  8
a
  10
20.822
  20
14.53125
  30
0.0
  70
0
  0
VERTEX
  8
a
  10
21.11952
  20
13.61556
  30
0.0
  70
0
  0
VERTEX
  8
a
  10
21.02666
  20
13.52647
  30
0.0
  70
0
  0
VERTEX
  8
a
  10
20.9009
  20
13.41288
  30
0.0
  70
0
  0
VERTEX
  8
a
  10
20.77297
  20
13.30546
  30
0.0
  70
0
  0
VERTEX
  8
a
  10
20.64291
  20
13.20452
  30
0.0
  70
0
  0
VERTEX
  8
a
  10
20.51074
  20
13.11049
  30
0.0
  70
0
  0
VERTEX
  8
a
  10
20.37644
  20
13.02392
  30
0.0
  70
0
  0
VERTEX
  8
a
  10
20.23993
  20
12.94563
  30
0.0
  70
0
  0
VERTEX
  8
a
  10
20.10101
  20
12.87703
  30
0.0
  70
0
  0
VERTEX
  8
a
  10
20.03049
  20
12.84719
  30
0.0
  70
0
  0
VERTEX
  8
a
  10
19.95904
  20
12.82141
  30
0.0
  70
0
  0
VERTEX
  8
a
  10
19.89226
  20
12.77459
  30
0.0
  70
0
  0
VERTEX
  8
a
  10
19.85954
  20
12.74794
  30
0.0
  70
0
  0
VERTEX
  8
a
  10
19.82855
  20
12.71311
  30
0.0
  70
0
  0
VERTEX
  8
a
  10
19.88616
  20
12.20011
  30
0.0
  70
0
  0
SEQEND
  0
POLYLINE
  8
a
  66
1
  10
0.0
  20
0.0
  70
1
  0
VERTEX
  8
a
  10
13.43772
  20
11.69615
  30
0.0
  70
0
  0
VERTEX
  8
a
  10
18.05813
  20
11.69615
  30
0.0
  70
0
  0
VERTEX
  8
a
  10
18.45765
  20
12.16738
  30
0.0
  70
0
  0
VERTEX
  8
a
  10
18.34234
  20
12.69323
  30
0.0
  70
0
  0
VERTEX
  8
a
  10
18.19119
  20
13.20991
  30
0.0
  70
0
  0
VERTEX
  8
a
  10
18.00491
  20
13.71499
  30
0.0
  70
0
  0
VERTEX
  8
a
  10
17.78437
  20
14.20607
  30
0.0
  70
0
  0
VERTEX
  8
a
  10
17.53062
  20
14.68085
  30
0.0
  70
0
  0
VERTEX
  8
a
  10
17.24486
  20
15.13708
  30
0.0
  70
0
  0
VERTEX
  8
a
  10
16.92843
  20
15.57261
  30
0.0
  70
0
  0
VERTEX
  8
a
  10
16.58284
  20
15.98536
  30
0.0
  70
0
  0
VERTEX
  8
a
  10
16.20971
  20
16.37341
  30
0.0
  70
0
  0
VERTEX
  8
a
  10
15.8108
  20
16.73491
  30
0.0
  70
0
  0
VERTEX
  8
a
  10
15.38801
  20
17.06815
  30
0.0
  70
0
  0
VERTEX
  8
a
  10
14.94333
  20
17.37157
  30
0.0
  70
0
  0
VERTEX
  8
a
  10
14.47885
  20
17.64372
  30
0.0
  70
0
  0
VERTEX
  8
a
  10
13.90722
  20
17.40939
  30
0.0
  70
0
  0
VERTEX
  8
a
  10
12.47943
  20
13.01511
  30
0.0
  70
0
  0
VERTEX
  8
a
  10
12.69948
  20
12.16738
  30
0.0
  70
0
  0
SEQEND
  0
POLYLINE
  8
a
  66
1
  10
0.0
  20
0.0
  70
1
  0
VERTEX
  8
a
  10
10.68673
  20
13.59759
  30
0.0
  70
0
  0
VERTEX
  8
a
  10
12.11452
  20
17.99187
  30
0.0
  70
0
  0
VERTEX
  8
a
  10
11.7898
  20
18.51745
  30
0.0
  70
0
  0
VERTEX
  8
a
  10
11.25407
  20
18.57028
  30
0.0
  70
0
  0
VERTEX
  8
a
  10
10.71597
  20
18.58619
  30
0.0
  70
0
  0
VERTEX
  8
a
  10
10.17804
  20
18.5651
  30
0.0
  70
0
  0
VERTEX
  8
a
  10
9.64284
  20
18.50711
  30
0.0
  70
0
  0
VERTEX
  8
a
  10
9.11289
  20
18.4125
  30
0.0
  70
0
  0
VERTEX
  8
a
  10
8.59068
  20
18.28171
  30
0.0
  70
0
  0
VERTEX
  8
a
  10
8.07869
  20
18.11535
  30
0.0
  70
0
  0
VERTEX
  8
a
  10
7.57934
  20
17.91422
  30
0.0
  70
0
  0
VERTEX
  8
a
  10
7.09498
  20
17.67927
  30
0.0
  70
0
  0
VERTEX
  8
a
  10
6.62791
  20
17.4116
  30
0.0
  70
0
  0
VERTEX
  8
a
  10
6.18033
  20
17.11247
  30
0.0
  70
0
  0
VERTEX
  8
a
  10
5.75435
  20
16.78331
  30
0.0
  70
0
  0
VERTEX
  8
a
  10
5.35198
  20
16.42567
  30
0.0
  70
0
  0
VERTEX
  8
a
  10
5.3982
  20
15.80961
  30
0.0
  70
0
  0
VERTEX
  8
a
  10
9.1362
  20
13.09379
  30
0.0
  70
0
  0
VERTEX
  8
a
  10
10.01043
  20
13.04111
  30
0.0
  70
0
  0
SEQEND
  0
POLYLINE
  8
a
  66
1
  10
0.0
  20
0.0
  70
1
  0
VERTEX
  8
a
  10
8.02825
  20
11.56883
  30
0.0
  70
0
  0
VERTEX
  8
a
  10
4.29026
  20
14.28465
  30
0.0
  70
0
  0
VERTEX
  8
a
  10
3.69006
  20
14.13823
  30
0.0
  70
0
  0
VERTEX
  8
a
  10
3.47426
  20
13.64504
  30
0.0
  70
0
  0
VERTEX
  8
a
  10
3.29284
  20
13.13819
  30
0.0
  70
0
  0
VERTEX
  8
a
  10
3.14667
  20
12.62008
  30
0.0
  70
0
  0
VERTEX
  8
a
  10
3.03644
  20
12.09316
  30
0.0
  70
0
  0
VERTEX
  8
a
  10
2.96266
  20
11.5599
  30
0.0
  70
0
  0
VERTEX
  8
a
  10
2.92568
  20
11.02284
  30
0.0
  70
0
  0
VERTEX
  8
a
  10
2.92568
  20
10.4845
  30
0.0
  70
0
  0
VERTEX
  8
a
  10
2.96266
  20
9.94744
  30
0.0
  70
0
  0
VERTEX
  8
a
  10
3.03644
  20
9.41418
  30
0.0
  70
0
  0
VERTEX
  8
a
  10
3.14667
  20
8.88725
  30
0.0
  70
0
  0
VERTEX
  8
a
  10
3.29284
  20
8.36914
  30
0.0
  70
0
  0
VERTEX
  8
a
  10
3.47426
  20
7.86229
  30
0.0
  70
0
  0
VERTEX
  8
a
  10
3.69006
  20
7.3691
  30
0.0
  70
0
  0
VERTEX
  8
a
  10
4.29026
  20
7.22269
  30
0.0
  70
0
  0
VERTEX
  8
a
  10
8.02825
  20
9.9385
  30
0.0
  70
0
  0
VERTEX
  8
a
  10
8.34851
  20
10.75367
  30
0.0
  70
0
  0
SEQEND
  0
POLYLINE
  8
a
  66
1
  10
0.0
  20
0.0
  70
1
  0
VERTEX
  8
a
  10
9.1362
  20
8.41354
  30
0.0
  70
0
  0
VERTEX
  8
a
  10
5.3982
  20
5.69773
  30
0.0
  70
0
  0
VERTEX
  8
a
  10
5.35198
  20
5.08166
  30
0.0
  70
0
  0
VERTEX
  8
a
  10
5.75435
  20
4.72402
  30
0.0
  70
0
  0
VERTEX
  8
a
  10
6.18033
  20
4.39486
  30
0.0
  70
0
  0
VERTEX
  8
a
  10
6.62791
  20
4.09574
  30
0.0
  70
0
  0
VERTEX
  8
a
  10
7.09498
  20
3.82807
  30
0.0
  70
0
  0
VERTEX
  8
a
  10
7.57934
  20
3.59312
  30
0.0
  70
0
  0
VERTEX
  8
a
  10
8.07869
  20
3.39199
  30
0.0
  70
0
  0
VERTEX
  8
a
  10
8.59068
  20
3.22563
  30
0.0
  70
0
  0
VERTEX
  8
a
  10
9.11289
  20
3.09484
  30
0.0
  70
0
  0
VERTEX
  8
a
  10
9.64284
  20
3.00022
  30
0.0
  70
0
  0
VERTEX
  8
a
  10
10.17804
  20
2.94223
  30
0.0
  70
0
  0
VERTEX
  8
a
  10
10.71597
  20
2.92114
  30
0.0
  70
0
  0
VERTEX
  8
a
  10
11.25407
  20
2.93705
  30
0.0
  70
0
  0
VERTEX
  8
a
  10
11.7898
  20
2.98989
  30
0.0
  70
0
  0
VERTEX
  8
a
  10
12.11452
  20
3.51547
  30
0.0
  70
0
  0
VERTEX
  8
a
  10
10.68673
  20
7.90975
  30
0.0
  70
0
  0
VERTEX
  8
a
  10
10.01043
  20
8.46623
  30
0.0
  70
0
  0
SEQEND
  0
POLYLINE
  8
a
  66
1
  10
0.0
  20
0.0
  70
1
  0
VERTEX
  8
a
  10
12.47943
  20
8.49223
  30
0.0
  70
0
  0
VERTEX
  8
a
  10
13.90722
  20
4.09795
  30
0.0
  70
0
  0
VERTEX
  8
a
  10
14.47885
  20
3.86361
  30
0.0
  70
0
  0
VERTEX
  8
a
  10
14.94333
  20
4.13577
  30
0.0
  70
0
  0
VERTEX
  8
a
  10
15.38801
  20
4.43918
  30
0.0
  70
0
  0
VERTEX
  8
a
  10
15.8108
  20
4.77243
  30
0.0
  70
0
  0
VERTEX
  8
a
  10
16.20971
  20
5.13393
  30
0.0
  70
0
  0
VERTEX
  8
a
  10
16.58284
  20
5.52197
  30
0.0
  70
0
  0
VERTEX
  8
a
  10
16.92843
  20
5.93473
  30
0.0
  70
0
  0
VERTEX
  8
a
  10
17.24486
  20
6.37025
  30
0.0
  70
0
  0
VERTEX
  8
a
  10
17.53062
  20
6.82648
  30
0.0
  70
0
  0
VERTEX
  8
a
  10
17.78437
  20
7.30126
  30
0.0
  70
0
  0
VERTEX
  8
a
  10
18.00491
  20
7.79235
  30
0.0
  70
0
  0
VERTEX
  8
a
  10
18.19119
  20
8.29743
  30
0.0
  70
0
  0
VERTEX
  8
a
  10
18.34234
  20
8.81411
  30
0.0
  70
0
  0
VERTEX
  8
a
  10
18.45765
  20
9.33995
  30
0.0
  70
0
  0
VERTEX
  8
a
  10
18.05813
  20
9.81119
  30
0.0
  70
0
  0
VERTEX
  8
a
  10
13.43772
  20
9.81119
  30
0.0
  70
0
  0
VERTEX
  8
a
  10
12.69948
  20
9.33995
  30
0.0
  70
0
  0
SEQEND
  0
CIRCLE
  8
a
  10
10.75367
  20
10.75367
  30
0.0
  40
0.5
 0
LINE
 8
c
 10
19.88616
 20
9.30722
 30
0
 11
21.37494
 21
9.07142
 31
 0
 0
LINE
 8
c
 10
18.99221
 20
6.55592
 30
0
 11
20.33526
 21
5.8716
 31
 0
 0
LINE
 8
c
 10
17.29181
 20
4.21552
 30
0
 11
18.35766
 21
3.14968
 31
 0
 0
LINE
 8
c
 10
14.95141
 20
2.51513
 30
0
 11
15.63573
 21
1.17208
 31
 0
 0
LINE
 8
c
 10
12.20011
 20
1.62117
 30
0
 11
12.43591
 21
0.1324
 31
 0
 0
LINE
 8
c
 10
9.30722
 20
1.62117
 30
0
 11
9.07142
 21
0.1324
 31
 0
 0
LINE
 8
c
 10
6.55592
 20
2.51513
 30
0
 11
5.8716
 21
1.17208
 31
 0
 0
LINE
 8
c
 10
4.21552
 20
4.21552
 30
0
 11
3.14968
 21
3.14968
 31
 0
 0
LINE
 8
c
 10
2.51513
 20
6.55592
 30
0
 11
1.17208
 21
5.8716
 31
 0
 0
LINE
 8
c
 10
1.62117
 20
9.30722
 30
0
 11
0.1324
 21
9.07142
 31
 0
 0
LINE
 8
c
 10
1.62117
 20
12.20011
 30
0
 11
0.1324
 21
12.43591
 31
 0
 0
LINE
 8
c
 10
2.51513
 20
14.95141
 30
0
 11
1.17208
 21
15.63573
 31
 0
 0
LINE
 8
c
 10
4.21552
 20
17.29181
 30
0
 11
3.14968
 21
18.35766
 31
 0
 0
LINE
 8
c
 10
6.55592
 20
18.99221
 30
0
 11
5.8716
 21
20.33526
 31
 0
 0
LINE
 8
c
 10
9.30722
 20
19.88616
 30
0
 11
9.07142
 21
21.37494
 31
 0
 0
LINE
 8
c
 10
12.20011
 20
19.88616
 30
0
 11
12.43591
 21
21.37494
 31
 0
 0
LINE
 8
c
 10
14.95141
 20
18.99221
 30
0
 11
15.63573
 21
20.33526
 31
 0
 0
LINE
 8
c
 10
17.29181
 20
17.29181
 30
0
 11
18.35766
 21
18.35766
 31
 0
 0
LINE
 8
c
 10
18.99221
 20
14.95141
 30
0
 11
20.33526
 21
15.63573
 31
 0
 0
LINE
 8
c
 10
19.88616
 20
12.20011
 30
0
 11
21.37494
 21
12.43591
 31
 0
  0
CIRCLE
  8
c
  10
10.75367
  20
10.75367
  30
0.0
  40
10
 0
LINE
 8
a
 10
7.16911
 20
10.75367
 30
0
 11
14.33822
 21
10.75367
 31
 0
 0
LINE
 8
a
 10
10.75367
 20
7.16911
 30
0
 11
10.75367
 21
14.33822
 31
 0
  0
TEXT
  8
labels
  10
0.0
  20
0.0
  30
0.0
  40
0.1
  1
G1:Toothspacing=3.14  Teeth=20  Spur gear  Angle=20.0  Addendum=.2
  41
1.0
  7
ARIAL
  0
ENDSEC
  0
EOF
