  999
DXF file created by gear template generator. 2018-12-28T18:13:23
  999
G2:Toothspacing=3.14  Teeth=60  Spur gear  Angle=20.0  Addendum=.2
  0
SECTION
  2
HEADER
  9
$MEASUREMENT
  70
1
  0
ENDSEC
  0
SECTION
  2
TABLES
  0
TABLE
  2
LTYPE
  70
1
  0
LTYPE
  2
Continuous
  3
_
  70
0
  72
65
  73
0
  40
0.0
  0
ENDTAB
  0
TABLE
  2
LAYER
  70
4
  0
LAYER
  2
profile
  70
0
  62
7
  6
Continuous
  0
LAYER
  2
construction
  70
0
  62
5
  6
Continuous
  0
LAYER
  2
grid
  70
0
  62
3
  6
Continuous
  0
LAYER
  2
labels
  70
0
  62
1
  6
Continuous
  0
ENDTAB
  0
TABLE
  2
STYLE
  70
1
  0
STYLE
  2
ARIAL
  3
Arial.ttf
  70
0
  40
0.0
  41
1.0
  50
0.0
  71
0
  42
1.0
  0
ENDTAB
  0
ENDSEC
  0
SECTION
  2
ENTITIES
 0
LINE
 8
b
 10
0.75367
 20
0
 30
0
 11
0.75367
 21
61.50734
 31
 0
 0
LINE
 8
b
 10
1.75367
 20
0
 30
0
 11
1.75367
 21
61.50734
 31
 0
 0
LINE
 8
b
 10
2.75367
 20
0
 30
0
 11
2.75367
 21
61.50734
 31
 0
 0
LINE
 8
b
 10
3.75367
 20
0
 30
0
 11
3.75367
 21
61.50734
 31
 0
 0
LINE
 8
b
 10
4.75367
 20
0
 30
0
 11
4.75367
 21
61.50734
 31
 0
 0
LINE
 8
b
 10
5.75367
 20
0
 30
0
 11
5.75367
 21
61.50734
 31
 0
 0
LINE
 8
b
 10
6.75367
 20
0
 30
0
 11
6.75367
 21
61.50734
 31
 0
 0
LINE
 8
b
 10
7.75367
 20
0
 30
0
 11
7.75367
 21
61.50734
 31
 0
 0
LINE
 8
b
 10
8.75367
 20
0
 30
0
 11
8.75367
 21
61.50734
 31
 0
 0
LINE
 8
b
 10
9.75367
 20
0
 30
0
 11
9.75367
 21
61.50734
 31
 0
 0
LINE
 8
b
 10
10.75367
 20
0
 30
0
 11
10.75367
 21
61.50734
 31
 0
 0
LINE
 8
b
 10
11.75367
 20
0
 30
0
 11
11.75367
 21
61.50734
 31
 0
 0
LINE
 8
b
 10
12.75367
 20
0
 30
0
 11
12.75367
 21
61.50734
 31
 0
 0
LINE
 8
b
 10
13.75367
 20
0
 30
0
 11
13.75367
 21
61.50734
 31
 0
 0
LINE
 8
b
 10
14.75367
 20
0
 30
0
 11
14.75367
 21
61.50734
 31
 0
 0
LINE
 8
b
 10
15.75367
 20
0
 30
0
 11
15.75367
 21
61.50734
 31
 0
 0
LINE
 8
b
 10
16.75367
 20
0
 30
0
 11
16.75367
 21
61.50734
 31
 0
 0
LINE
 8
b
 10
17.75367
 20
0
 30
0
 11
17.75367
 21
61.50734
 31
 0
 0
LINE
 8
b
 10
18.75367
 20
0
 30
0
 11
18.75367
 21
61.50734
 31
 0
 0
LINE
 8
b
 10
19.75367
 20
0
 30
0
 11
19.75367
 21
61.50734
 31
 0
 0
LINE
 8
b
 10
20.75367
 20
0
 30
0
 11
20.75367
 21
61.50734
 31
 0
 0
LINE
 8
b
 10
21.75367
 20
0
 30
0
 11
21.75367
 21
61.50734
 31
 0
 0
LINE
 8
b
 10
22.75367
 20
0
 30
0
 11
22.75367
 21
61.50734
 31
 0
 0
LINE
 8
b
 10
23.75367
 20
0
 30
0
 11
23.75367
 21
61.50734
 31
 0
 0
LINE
 8
b
 10
24.75367
 20
0
 30
0
 11
24.75367
 21
61.50734
 31
 0
 0
LINE
 8
b
 10
25.75367
 20
0
 30
0
 11
25.75367
 21
61.50734
 31
 0
 0
LINE
 8
b
 10
26.75367
 20
0
 30
0
 11
26.75367
 21
61.50734
 31
 0
 0
LINE
 8
b
 10
27.75367
 20
0
 30
0
 11
27.75367
 21
61.50734
 31
 0
 0
LINE
 8
b
 10
28.75367
 20
0
 30
0
 11
28.75367
 21
61.50734
 31
 0
 0
LINE
 8
b
 10
29.75367
 20
0
 30
0
 11
29.75367
 21
61.50734
 31
 0
 0
LINE
 8
b
 10
30.75367
 20
0
 30
0
 11
30.75367
 21
61.50734
 31
 0
 0
LINE
 8
b
 10
31.75367
 20
0
 30
0
 11
31.75367
 21
61.50734
 31
 0
 0
LINE
 8
b
 10
32.75367
 20
0
 30
0
 11
32.75367
 21
61.50734
 31
 0
 0
LINE
 8
b
 10
33.75367
 20
0
 30
0
 11
33.75367
 21
61.50734
 31
 0
 0
LINE
 8
b
 10
34.75367
 20
0
 30
0
 11
34.75367
 21
61.50734
 31
 0
 0
LINE
 8
b
 10
35.75367
 20
0
 30
0
 11
35.75367
 21
61.50734
 31
 0
 0
LINE
 8
b
 10
36.75367
 20
0
 30
0
 11
36.75367
 21
61.50734
 31
 0
 0
LINE
 8
b
 10
37.75367
 20
0
 30
0
 11
37.75367
 21
61.50734
 31
 0
 0
LINE
 8
b
 10
38.75367
 20
0
 30
0
 11
38.75367
 21
61.50734
 31
 0
 0
LINE
 8
b
 10
39.75367
 20
0
 30
0
 11
39.75367
 21
61.50734
 31
 0
 0
LINE
 8
b
 10
40.75367
 20
0
 30
0
 11
40.75367
 21
61.50734
 31
 0
 0
LINE
 8
b
 10
41.75367
 20
0
 30
0
 11
41.75367
 21
61.50734
 31
 0
 0
LINE
 8
b
 10
42.75367
 20
0
 30
0
 11
42.75367
 21
61.50734
 31
 0
 0
LINE
 8
b
 10
43.75367
 20
0
 30
0
 11
43.75367
 21
61.50734
 31
 0
 0
LINE
 8
b
 10
44.75367
 20
0
 30
0
 11
44.75367
 21
61.50734
 31
 0
 0
LINE
 8
b
 10
45.75367
 20
0
 30
0
 11
45.75367
 21
61.50734
 31
 0
 0
LINE
 8
b
 10
46.75367
 20
0
 30
0
 11
46.75367
 21
61.50734
 31
 0
 0
LINE
 8
b
 10
47.75367
 20
0
 30
0
 11
47.75367
 21
61.50734
 31
 0
 0
LINE
 8
b
 10
48.75367
 20
0
 30
0
 11
48.75367
 21
61.50734
 31
 0
 0
LINE
 8
b
 10
49.75367
 20
0
 30
0
 11
49.75367
 21
61.50734
 31
 0
 0
LINE
 8
b
 10
50.75367
 20
0
 30
0
 11
50.75367
 21
61.50734
 31
 0
 0
LINE
 8
b
 10
51.75367
 20
0
 30
0
 11
51.75367
 21
61.50734
 31
 0
 0
LINE
 8
b
 10
52.75367
 20
0
 30
0
 11
52.75367
 21
61.50734
 31
 0
 0
LINE
 8
b
 10
53.75367
 20
0
 30
0
 11
53.75367
 21
61.50734
 31
 0
 0
LINE
 8
b
 10
54.75367
 20
0
 30
0
 11
54.75367
 21
61.50734
 31
 0
 0
LINE
 8
b
 10
55.75367
 20
0
 30
0
 11
55.75367
 21
61.50734
 31
 0
 0
LINE
 8
b
 10
56.75367
 20
0
 30
0
 11
56.75367
 21
61.50734
 31
 0
 0
LINE
 8
b
 10
57.75367
 20
0
 30
0
 11
57.75367
 21
61.50734
 31
 0
 0
LINE
 8
b
 10
58.75367
 20
0
 30
0
 11
58.75367
 21
61.50734
 31
 0
 0
LINE
 8
b
 10
59.75367
 20
0
 30
0
 11
59.75367
 21
61.50734
 31
 0
 0
LINE
 8
b
 10
60.75367
 20
0
 30
0
 11
60.75367
 21
61.50734
 31
 0
 0
LINE
 8
b
 10
0
 20
0.75367
 30
0
 11
61.50734
 21
0.75367
 31
 0
 0
LINE
 8
b
 10
0
 20
1.75367
 30
0
 11
61.50734
 21
1.75367
 31
 0
 0
LINE
 8
b
 10
0
 20
2.75367
 30
0
 11
61.50734
 21
2.75367
 31
 0
 0
LINE
 8
b
 10
0
 20
3.75367
 30
0
 11
61.50734
 21
3.75367
 31
 0
 0
LINE
 8
b
 10
0
 20
4.75367
 30
0
 11
61.50734
 21
4.75367
 31
 0
 0
LINE
 8
b
 10
0
 20
5.75367
 30
0
 11
61.50734
 21
5.75367
 31
 0
 0
LINE
 8
b
 10
0
 20
6.75367
 30
0
 11
61.50734
 21
6.75367
 31
 0
 0
LINE
 8
b
 10
0
 20
7.75367
 30
0
 11
61.50734
 21
7.75367
 31
 0
 0
LINE
 8
b
 10
0
 20
8.75367
 30
0
 11
61.50734
 21
8.75367
 31
 0
 0
LINE
 8
b
 10
0
 20
9.75367
 30
0
 11
61.50734
 21
9.75367
 31
 0
 0
LINE
 8
b
 10
0
 20
10.75367
 30
0
 11
61.50734
 21
10.75367
 31
 0
 0
LINE
 8
b
 10
0
 20
11.75367
 30
0
 11
61.50734
 21
11.75367
 31
 0
 0
LINE
 8
b
 10
0
 20
12.75367
 30
0
 11
61.50734
 21
12.75367
 31
 0
 0
LINE
 8
b
 10
0
 20
13.75367
 30
0
 11
61.50734
 21
13.75367
 31
 0
 0
LINE
 8
b
 10
0
 20
14.75367
 30
0
 11
61.50734
 21
14.75367
 31
 0
 0
LINE
 8
b
 10
0
 20
15.75367
 30
0
 11
61.50734
 21
15.75367
 31
 0
 0
LINE
 8
b
 10
0
 20
16.75367
 30
0
 11
61.50734
 21
16.75367
 31
 0
 0
LINE
 8
b
 10
0
 20
17.75367
 30
0
 11
61.50734
 21
17.75367
 31
 0
 0
LINE
 8
b
 10
0
 20
18.75367
 30
0
 11
61.50734
 21
18.75367
 31
 0
 0
LINE
 8
b
 10
0
 20
19.75367
 30
0
 11
61.50734
 21
19.75367
 31
 0
 0
LINE
 8
b
 10
0
 20
20.75367
 30
0
 11
61.50734
 21
20.75367
 31
 0
 0
LINE
 8
b
 10
0
 20
21.75367
 30
0
 11
61.50734
 21
21.75367
 31
 0
 0
LINE
 8
b
 10
0
 20
22.75367
 30
0
 11
61.50734
 21
22.75367
 31
 0
 0
LINE
 8
b
 10
0
 20
23.75367
 30
0
 11
61.50734
 21
23.75367
 31
 0
 0
LINE
 8
b
 10
0
 20
24.75367
 30
0
 11
61.50734
 21
24.75367
 31
 0
 0
LINE
 8
b
 10
0
 20
25.75367
 30
0
 11
61.50734
 21
25.75367
 31
 0
 0
LINE
 8
b
 10
0
 20
26.75367
 30
0
 11
61.50734
 21
26.75367
 31
 0
 0
LINE
 8
b
 10
0
 20
27.75367
 30
0
 11
61.50734
 21
27.75367
 31
 0
 0
LINE
 8
b
 10
0
 20
28.75367
 30
0
 11
61.50734
 21
28.75367
 31
 0
 0
LINE
 8
b
 10
0
 20
29.75367
 30
0
 11
61.50734
 21
29.75367
 31
 0
 0
LINE
 8
b
 10
0
 20
30.75367
 30
0
 11
61.50734
 21
30.75367
 31
 0
 0
LINE
 8
b
 10
0
 20
31.75367
 30
0
 11
61.50734
 21
31.75367
 31
 0
 0
LINE
 8
b
 10
0
 20
32.75367
 30
0
 11
61.50734
 21
32.75367
 31
 0
 0
LINE
 8
b
 10
0
 20
33.75367
 30
0
 11
61.50734
 21
33.75367
 31
 0
 0
LINE
 8
b
 10
0
 20
34.75367
 30
0
 11
61.50734
 21
34.75367
 31
 0
 0
LINE
 8
b
 10
0
 20
35.75367
 30
0
 11
61.50734
 21
35.75367
 31
 0
 0
LINE
 8
b
 10
0
 20
36.75367
 30
0
 11
61.50734
 21
36.75367
 31
 0
 0
LINE
 8
b
 10
0
 20
37.75367
 30
0
 11
61.50734
 21
37.75367
 31
 0
 0
LINE
 8
b
 10
0
 20
38.75367
 30
0
 11
61.50734
 21
38.75367
 31
 0
 0
LINE
 8
b
 10
0
 20
39.75367
 30
0
 11
61.50734
 21
39.75367
 31
 0
 0
LINE
 8
b
 10
0
 20
40.75367
 30
0
 11
61.50734
 21
40.75367
 31
 0
 0
LINE
 8
b
 10
0
 20
41.75367
 30
0
 11
61.50734
 21
41.75367
 31
 0
 0
LINE
 8
b
 10
0
 20
42.75367
 30
0
 11
61.50734
 21
42.75367
 31
 0
 0
LINE
 8
b
 10
0
 20
43.75367
 30
0
 11
61.50734
 21
43.75367
 31
 0
 0
LINE
 8
b
 10
0
 20
44.75367
 30
0
 11
61.50734
 21
44.75367
 31
 0
 0
LINE
 8
b
 10
0
 20
45.75367
 30
0
 11
61.50734
 21
45.75367
 31
 0
 0
LINE
 8
b
 10
0
 20
46.75367
 30
0
 11
61.50734
 21
46.75367
 31
 0
 0
LINE
 8
b
 10
0
 20
47.75367
 30
0
 11
61.50734
 21
47.75367
 31
 0
 0
LINE
 8
b
 10
0
 20
48.75367
 30
0
 11
61.50734
 21
48.75367
 31
 0
 0
LINE
 8
b
 10
0
 20
49.75367
 30
0
 11
61.50734
 21
49.75367
 31
 0
 0
LINE
 8
b
 10
0
 20
50.75367
 30
0
 11
61.50734
 21
50.75367
 31
 0
 0
LINE
 8
b
 10
0
 20
51.75367
 30
0
 11
61.50734
 21
51.75367
 31
 0
 0
LINE
 8
b
 10
0
 20
52.75367
 30
0
 11
61.50734
 21
52.75367
 31
 0
 0
LINE
 8
b
 10
0
 20
53.75367
 30
0
 11
61.50734
 21
53.75367
 31
 0
 0
LINE
 8
b
 10
0
 20
54.75367
 30
0
 11
61.50734
 21
54.75367
 31
 0
 0
LINE
 8
b
 10
0
 20
55.75367
 30
0
 11
61.50734
 21
55.75367
 31
 0
 0
LINE
 8
b
 10
0
 20
56.75367
 30
0
 11
61.50734
 21
56.75367
 31
 0
 0
LINE
 8
b
 10
0
 20
57.75367
 30
0
 11
61.50734
 21
57.75367
 31
 0
 0
LINE
 8
b
 10
0
 20
58.75367
 30
0
 11
61.50734
 21
58.75367
 31
 0
 0
LINE
 8
b
 10
0
 20
59.75367
 30
0
 11
61.50734
 21
59.75367
 31
 0
 0
LINE
 8
b
 10
0
 20
60.75367
 30
0
 11
61.50734
 21
60.75367
 31
 0
  0
POLYLINE
  8
a
  66
1
  10
0.0
  20
0.0
  70
1
  0
VERTEX
  8
a
  10
1.58772
  20
28.58677
  30
0.0
  70
0
  0
VERTEX
  8
a
  10
1.49181
  20
28.60637
  30
0.0
  70
0
  0
VERTEX
  8
a
  10
1.2998
  20
28.64919
  30
0.0
  70
0
  0
VERTEX
  8
a
  10
0.91518
  20
28.74841
  30
0.0
  70
0
  0
VERTEX
  8
a
  10
0.53003
  20
28.86446
  30
0.0
  70
0
  0
VERTEX
  8
a
  10
0.14462
  20
28.99618
  30
0.0
  70
0
  0
VERTEX
  8
a
  10
0.04826
  20
29.03145
  30
0.0
  70
0
  0
VERTEX
  8
a
  10
0.00853
  20
30.02926
  30
0.0
  70
0
  0
VERTEX
  8
a
  10
0.10179
  20
30.07209
  30
0.0
  70
0
  0
VERTEX
  8
a
  10
0.4755
  20
30.23403
  30
0.0
  70
0
  0
VERTEX
  8
a
  10
0.85021
  20
30.38032
  30
0.0
  70
0
  0
VERTEX
  8
a
  10
1.22572
  20
30.50982
  30
0.0
  70
0
  0
VERTEX
  8
a
  10
1.41372
  20
30.56776
  30
0.0
  70
0
  0
VERTEX
  8
a
  10
1.50777
  20
30.59492
  30
0.0
  70
0
  0
VERTEX
  8
a
  10
1.52099
  20
31.64732
  30
0.0
  70
0
  0
VERTEX
  8
a
  10
1.42765
  20
31.67683
  30
0.0
  70
0
  0
VERTEX
  8
a
  10
1.24117
  20
31.73948
  30
0.0
  70
0
  0
VERTEX
  8
a
  10
0.86903
  20
31.87837
  30
0.0
  70
0
  0
VERTEX
  8
a
  10
0.49812
  20
32.03404
  30
0.0
  70
0
  0
VERTEX
  8
a
  10
0.12859
  20
32.20532
  30
0.0
  70
0
  0
VERTEX
  8
a
  10
0.03645
  20
32.25047
  30
0.0
  70
0
  0
VERTEX
  8
a
  10
0.10124
  20
33.24697
  30
0.0
  70
0
  0
VERTEX
  8
a
  10
0.19845
  20
33.27981
  30
0.0
  70
0
  0
VERTEX
  8
a
  10
0.58705
  20
33.4018
  30
0.0
  70
0
  0
VERTEX
  8
a
  10
0.975
  20
33.50813
  30
0.0
  70
0
  0
VERTEX
  8
a
  10
1.36199
  20
33.59766
  30
0.0
  70
0
  0
VERTEX
  8
a
  10
1.55501
  20
33.63564
  30
0.0
  70
0
  0
VERTEX
  8
a
  10
1.65139
  20
33.65282
  30
0.0
  70
0
  0
VERTEX
  8
a
  10
1.77454
  20
34.69807
  30
0.0
  70
0
  0
VERTEX
  8
a
  10
1.6848
  20
34.73717
  30
0.0
  70
0
  0
VERTEX
  8
a
  10
1.50589
  20
34.81898
  30
0.0
  70
0
  0
VERTEX
  8
a
  10
1.15031
  20
34.996
  30
0.0
  70
0
  0
VERTEX
  8
a
  10
0.7977
  20
35.18959
  30
0.0
  70
0
  0
VERTEX
  8
a
  10
0.4481
  20
35.39856
  30
0.0
  70
0
  0
VERTEX
  8
a
  10
0.36118
  20
35.4531
  30
0.0
  70
0
  0
VERTEX
  8
a
  10
0.52978
  20
36.43736
  30
0.0
  70
0
  0
VERTEX
  8
a
  10
0.62989
  20
36.45986
  30
0.0
  70
0
  0
VERTEX
  8
a
  10
1.02911
  20
36.54057
  30
0.0
  70
0
  0
VERTEX
  8
a
  10
1.42605
  20
36.60576
  30
0.0
  70
0
  0
VERTEX
  8
a
  10
1.82027
  20
36.65435
  30
0.0
  70
0
  0
VERTEX
  8
a
  10
2.01621
  20
36.67195
  30
0.0
  70
0
  0
VERTEX
  8
a
  10
2.11385
  20
36.67896
  30
0.0
  70
0
  0
VERTEX
  8
a
  10
2.3456
  20
37.7056
  30
0.0
  70
0
  0
VERTEX
  8
a
  10
2.26043
  20
37.75388
  30
0.0
  70
0
  0
VERTEX
  8
a
  10
2.09105
  20
37.85393
  30
0.0
  70
0
  0
VERTEX
  8
a
  10
1.75592
  20
38.06716
  30
0.0
  70
0
  0
VERTEX
  8
a
  10
1.42548
  20
38.29654
  30
0.0
  70
0
  0
VERTEX
  8
a
  10
1.09964
  20
38.54091
  30
0.0
  70
0
  0
VERTEX
  8
a
  10
1.0189
  20
38.60423
  30
0.0
  70
0
  0
VERTEX
  8
a
  10
1.28945
  20
39.56549
  30
0.0
  70
0
  0
VERTEX
  8
a
  10
1.39137
  20
39.5774
  30
0.0
  70
0
  0
VERTEX
  8
a
  10
1.79684
  20
39.61593
  30
0.0
  70
0
  0
VERTEX
  8
a
  10
2.19842
  20
39.63928
  30
0.0
  70
0
  0
VERTEX
  8
a
  10
2.59556
  20
39.64639
  30
0.0
  70
0
  0
VERTEX
  8
a
  10
2.79227
  20
39.64341
  30
0.0
  70
0
  0
VERTEX
  8
a
  10
2.89011
  20
39.64017
  30
0.0
  70
0
  0
VERTEX
  8
a
  10
3.22789
  20
40.63697
  30
0.0
  70
0
  0
VERTEX
  8
a
  10
3.14824
  20
40.69388
  30
0.0
  70
0
  0
VERTEX
  8
a
  10
2.99025
  20
40.8111
  30
0.0
  70
0
  0
VERTEX
  8
a
  10
2.67924
  20
41.05818
  30
0.0
  70
0
  0
VERTEX
  8
a
  10
2.37459
  20
41.32085
  30
0.0
  70
0
  0
VERTEX
  8
a
  10
2.07608
  20
41.59794
  30
0.0
  70
0
  0
VERTEX
  8
a
  10
2.00239
  20
41.66936
  30
0.0
  70
0
  0
VERTEX
  8
a
  10
2.37195
  20
42.59706
  30
0.0
  70
0
  0
VERTEX
  8
a
  10
2.47456
  20
42.59826
  30
0.0
  70
0
  0
VERTEX
  8
a
  10
2.88183
  20
42.59419
  30
0.0
  70
0
  0
VERTEX
  8
a
  10
3.28364
  20
42.57544
  30
0.0
  70
0
  0
VERTEX
  8
a
  10
3.67936
  20
42.541
  30
0.0
  70
0
  0
VERTEX
  8
a
  10
3.87467
  20
42.51747
  30
0.0
  70
0
  0
VERTEX
  8
a
  10
3.97164
  20
42.50403
  30
0.0
  70
0
  0
VERTEX
  8
a
  10
4.41177
  20
43.46006
  30
0.0
  70
0
  0
VERTEX
  8
a
  10
4.3385
  20
43.52498
  30
0.0
  70
0
  0
VERTEX
  8
a
  10
4.19363
  20
43.65807
  30
0.0
  70
0
  0
VERTEX
  8
a
  10
3.91015
  20
43.93631
  30
0.0
  70
0
  0
VERTEX
  8
a
  10
3.63463
  20
44.22938
  30
0.0
  70
0
  0
VERTEX
  8
a
  10
3.36671
  20
44.53616
  30
0.0
  70
0
  0
VERTEX
  8
a
  10
3.3009
  20
44.61489
  30
0.0
  70
0
  0
VERTEX
  8
a
  10
3.7654
  20
45.49888
  30
0.0
  70
0
  0
VERTEX
  8
a
  10
3.86757
  20
45.48934
  30
0.0
  70
0
  0
VERTEX
  8
a
  10
4.27219
  20
45.44273
  30
0.0
  70
0
  0
VERTEX
  8
a
  10
4.66984
  20
45.38207
  30
0.0
  70
0
  0
VERTEX
  8
a
  10
5.05979
  20
45.30646
  30
0.0
  70
0
  0
VERTEX
  8
a
  10
5.25157
  20
45.26265
  30
0.0
  70
0
  0
VERTEX
  8
a
  10
5.3466
  20
45.23914
  30
0.0
  70
0
  0
VERTEX
  8
a
  10
5.88425
  20
46.14393
  30
0.0
  70
0
  0
VERTEX
  8
a
  10
5.81818
  20
46.21616
  30
0.0
  70
0
  0
VERTEX
  8
a
  10
5.688
  20
46.36366
  30
0.0
  70
0
  0
VERTEX
  8
a
  10
5.43517
  20
46.67001
  30
0.0
  70
0
  0
VERTEX
  8
a
  10
5.19178
  20
46.99027
  30
0.0
  70
0
  0
VERTEX
  8
a
  10
4.9574
  20
47.32337
  30
0.0
  70
0
  0
VERTEX
  8
a
  10
4.90018
  20
47.40855
  30
0.0
  70
0
  0
VERTEX
  8
a
  10
5.45454
  20
48.23915
  30
0.0
  70
0
  0
VERTEX
  8
a
  10
5.55515
  20
48.21898
  30
0.0
  70
0
  0
VERTEX
  8
a
  10
5.95268
  20
48.13033
  30
0.0
  70
0
  0
VERTEX
  8
a
  10
6.34181
  20
48.02844
  30
0.0
  70
0
  0
VERTEX
  8
a
  10
6.72172
  20
47.91248
  30
0.0
  70
0
  0
VERTEX
  8
a
  10
6.90788
  20
47.84886
  30
0.0
  70
0
  0
VERTEX
  8
a
  10
6.99993
  20
47.81555
  30
0.0
  70
0
  0
VERTEX
  8
a
  10
7.62921
  20
48.65918
  30
0.0
  70
0
  0
VERTEX
  8
a
  10
7.57104
  20
48.73792
  30
0.0
  70
0
  0
VERTEX
  8
a
  10
7.457
  20
48.89822
  30
0.0
  70
0
  0
VERTEX
  8
a
  10
7.23757
  20
49.22932
  30
0.0
  70
0
  0
VERTEX
  8
a
  10
7.029
  20
49.57327
  30
0.0
  70
0
  0
VERTEX
  8
a
  10
6.83072
  20
49.92905
  30
0.0
  70
0
  0
VERTEX
  8
a
  10
6.78271
  20
50.01974
  30
0.0
  70
0
  0
VERTEX
  8
a
  10
7.42086
  20
50.78784
  30
0.0
  70
0
  0
VERTEX
  8
a
  10
7.51881
  20
50.75727
  30
0.0
  70
0
  0
VERTEX
  8
a
  10
7.9049
  20
50.62755
  30
0.0
  70
0
  0
VERTEX
  8
a
  10
8.28125
  20
50.48554
  30
0.0
  70
0
  0
VERTEX
  8
a
  10
8.64696
  20
50.33051
  30
0.0
  70
0
  0
VERTEX
  8
a
  10
8.82544
  20
50.24777
  30
0.0
  70
0
  0
VERTEX
  8
a
  10
8.91351
  20
50.20502
  30
0.0
  70
0
  0
VERTEX
  8
a
  10
9.62752
  20
50.97826
  30
0.0
  70
0
  0
VERTEX
  8
a
  10
9.57791
  20
51.06264
  30
0.0
  70
0
  0
VERTEX
  8
a
  10
9.48125
  20
51.23399
  30
0.0
  70
0
  0
VERTEX
  8
a
  10
9.29763
  20
51.58621
  30
0.0
  70
0
  0
VERTEX
  8
a
  10
9.12615
  20
51.95008
  30
0.0
  70
0
  0
VERTEX
  8
a
  10
8.96615
  20
52.32463
  30
0.0
  70
0
  0
VERTEX
  8
a
  10
8.92788
  20
52.41984
  30
0.0
  70
0
  0
VERTEX
  8
a
  10
9.64282
  20
53.11703
  30
0.0
  70
0
  0
VERTEX
  8
a
  10
9.73704
  20
53.07639
  30
0.0
  70
0
  0
VERTEX
  8
a
  10
10.10745
  20
52.90702
  30
0.0
  70
0
  0
VERTEX
  8
a
  10
10.4669
  20
52.72646
  30
0.0
  70
0
  0
VERTEX
  8
a
  10
10.8144
  20
52.53404
  30
0.0
  70
0
  0
VERTEX
  8
a
  10
10.98326
  20
52.43311
  30
0.0
  70
0
  0
VERTEX
  8
a
  10
11.06637
  20
52.38139
  30
0.0
  70
0
  0
VERTEX
  8
a
  10
11.8573
  20
53.07575
  30
0.0
  70
0
  0
VERTEX
  8
a
  10
11.81678
  20
53.16486
  30
0.0
  70
0
  0
VERTEX
  8
a
  10
11.73856
  20
53.34537
  30
0.0
  70
0
  0
VERTEX
  8
a
  10
11.59276
  20
53.71485
  30
0.0
  70
0
  0
VERTEX
  8
a
  10
11.46026
  20
54.09466
  30
0.0
  70
0
  0
VERTEX
  8
a
  10
11.34028
  20
54.48388
  30
0.0
  70
0
  0
VERTEX
  8
a
  10
11.31218
  20
54.58257
  30
0.0
  70
0
  0
VERTEX
  8
a
  10
12.09607
  20
55.20121
  30
0.0
  70
0
  0
VERTEX
  8
a
  10
12.18553
  20
55.15094
  30
0.0
  70
0
  0
VERTEX
  8
a
  10
12.53621
  20
54.94378
  30
0.0
  70
0
  0
VERTEX
  8
a
  10
12.87481
  20
54.72663
  30
0.0
  70
0
  0
VERTEX
  8
a
  10
13.2003
  20
54.49895
  30
0.0
  70
0
  0
VERTEX
  8
a
  10
13.35768
  20
54.38092
  30
0.0
  70
0
  0
VERTEX
  8
a
  10
13.43493
  20
54.32079
  30
0.0
  70
0
  0
VERTEX
  8
a
  10
14.29411
  20
54.92867
  30
0.0
  70
0
  0
VERTEX
  8
a
  10
14.26312
  20
55.02153
  30
0.0
  70
0
  0
VERTEX
  8
a
  10
14.2042
  20
55.20923
  30
0.0
  70
0
  0
VERTEX
  8
a
  10
14.09782
  20
55.59193
  30
0.0
  70
0
  0
VERTEX
  8
a
  10
14.00575
  20
55.9835
  30
0.0
  70
0
  0
VERTEX
  8
a
  10
13.92711
  20
56.38313
  30
0.0
  70
0
  0
VERTEX
  8
a
  10
13.90948
  20
56.48422
  30
0.0
  70
0
  0
VERTEX
  8
a
  10
14.75375
  20
57.01753
  30
0.0
  70
0
  0
VERTEX
  8
a
  10
14.83746
  20
56.95819
  30
0.0
  70
0
  0
VERTEX
  8
a
  10
15.16456
  20
56.71551
  30
0.0
  70
0
  0
VERTEX
  8
a
  10
15.47861
  20
56.46415
  30
0.0
  70
0
  0
VERTEX
  8
a
  10
15.77851
  20
56.2037
  30
0.0
  70
0
  0
VERTEX
  8
a
  10
15.92269
  20
56.06986
  30
0.0
  70
0
  0
VERTEX
  8
a
  10
15.99324
  20
56.00199
  30
0.0
  70
0
  0
VERTEX
  8
a
  10
16.91125
  20
56.51673
  30
0.0
  70
0
  0
VERTEX
  8
a
  10
16.89014
  20
56.61232
  30
0.0
  70
0
  0
VERTEX
  8
a
  10
16.85116
  20
56.80515
  30
0.0
  70
0
  0
VERTEX
  8
a
  10
16.78537
  20
57.19687
  30
0.0
  70
0
  0
VERTEX
  8
a
  10
16.73473
  20
57.59592
  30
0.0
  70
0
  0
VERTEX
  8
a
  10
16.6983
  20
58.00159
  30
0.0
  70
0
  0
VERTEX
  8
a
  10
16.69133
  20
58.10396
  30
0.0
  70
0
  0
VERTEX
  8
a
  10
17.58672
  20
58.5461
  30
0.0
  70
0
  0
VERTEX
  8
a
  10
17.66377
  20
58.47833
  30
0.0
  70
0
  0
VERTEX
  8
a
  10
17.96371
  20
58.20279
  30
0.0
  70
0
  0
VERTEX
  8
a
  10
18.24977
  20
57.91999
  30
0.0
  70
0
  0
VERTEX
  8
a
  10
18.5208
  20
57.62961
  30
0.0
  70
0
  0
VERTEX
  8
a
  10
18.6502
  20
57.48143
  30
0.0
  70
0
  0
VERTEX
  8
a
  10
18.71327
  20
57.40656
  30
0.0
  70
0
  0
VERTEX
  8
a
  10
19.68006
  20
57.82253
  30
0.0
  70
0
  0
VERTEX
  8
a
  10
19.66905
  20
57.9198
  30
0.0
  70
0
  0
VERTEX
  8
a
  10
19.65044
  20
58.11564
  30
0.0
  70
0
  0
VERTEX
  8
a
  10
19.62596
  20
58.5121
  30
0.0
  70
0
  0
VERTEX
  8
a
  10
19.61731
  20
58.91426
  30
0.0
  70
0
  0
VERTEX
  8
a
  10
19.62348
  20
59.32151
  30
0.0
  70
0
  0
VERTEX
  8
a
  10
19.62725
  20
59.42405
  30
0.0
  70
0
  0
VERTEX
  8
a
  10
20.56395
  20
59.77018
  30
0.0
  70
0
  0
VERTEX
  8
a
  10
20.63349
  20
59.69472
  30
0.0
  70
0
  0
VERTEX
  8
a
  10
20.90299
  20
59.38934
  30
0.0
  70
0
  0
VERTEX
  8
a
  10
21.15792
  20
59.07818
  30
0.0
  70
0
  0
VERTEX
  8
a
  10
21.39711
  20
58.76106
  30
0.0
  70
0
  0
VERTEX
  8
a
  10
21.51032
  20
58.60017
  30
0.0
  70
0
  0
VERTEX
  8
a
  10
21.56521
  20
58.51912
  30
0.0
  70
0
  0
VERTEX
  8
a
  10
22.57018
  20
58.83175
  30
0.0
  70
0
  0
VERTEX
  8
a
  10
22.56941
  20
58.92964
  30
0.0
  70
0
  0
VERTEX
  8
a
  10
22.57137
  20
59.12635
  30
0.0
  70
0
  0
VERTEX
  8
a
  10
22.58846
  20
59.5232
  30
0.0
  70
0
  0
VERTEX
  8
a
  10
22.6219
  20
59.92406
  30
0.0
  70
0
  0
VERTEX
  8
a
  10
22.6706
  20
60.32843
  30
0.0
  70
0
  0
VERTEX
  8
a
  10
22.68507
  20
60.43002
  30
0.0
  70
0
  0
VERTEX
  8
a
  10
23.65282
  20
60.67634
  30
0.0
  70
0
  0
VERTEX
  8
a
  10
23.7141
  20
60.59402
  30
0.0
  70
0
  0
VERTEX
  8
a
  10
23.9502
  20
60.26214
  30
0.0
  70
0
  0
VERTEX
  8
a
  10
24.1712
  20
59.92604
  30
0.0
  70
0
  0
VERTEX
  8
a
  10
24.37594
  20
59.58566
  30
0.0
  70
0
  0
VERTEX
  8
a
  10
24.47171
  20
59.41382
  30
0.0
  70
0
  0
VERTEX
  8
a
  10
24.51783
  20
59.32747
  30
0.0
  70
0
  0
VERTEX
  8
a
  10
25.54997
  20
59.53334
  30
0.0
  70
0
  0
VERTEX
  8
a
  10
25.55943
  20
59.63077
  30
0.0
  70
0
  0
VERTEX
  8
a
  10
25.58195
  20
59.82621
  30
0.0
  70
0
  0
VERTEX
  8
a
  10
25.64043
  20
60.21909
  30
0.0
  70
0
  0
VERTEX
  8
a
  10
25.71558
  20
60.61426
  30
0.0
  70
0
  0
VERTEX
  8
a
  10
25.80629
  20
61.01133
  30
0.0
  70
0
  0
VERTEX
  8
a
  10
25.8313
  20
61.11085
  30
0.0
  70
0
  0
VERTEX
  8
a
  10
26.81949
  20
61.25466
  30
0.0
  70
0
  0
VERTEX
  8
a
  10
26.87183
  20
61.16639
  30
0.0
  70
0
  0
VERTEX
  8
a
  10
27.07194
  20
60.81165
  30
0.0
  70
0
  0
VERTEX
  8
a
  10
27.25661
  20
60.45429
  30
0.0
  70
0
  0
VERTEX
  8
a
  10
27.42464
  20
60.09437
  30
0.0
  70
0
  0
VERTEX
  8
a
  10
27.50192
  20
59.91346
  30
0.0
  70
0
  0
VERTEX
  8
a
  10
27.53876
  20
59.82276
  30
0.0
  70
0
  0
VERTEX
  8
a
  10
28.58677
  20
59.91962
  30
0.0
  70
0
  0
VERTEX
  8
a
  10
28.60637
  20
60.01553
  30
0.0
  70
0
  0
VERTEX
  8
a
  10
28.64919
  20
60.20754
  30
0.0
  70
0
  0
VERTEX
  8
a
  10
28.74841
  20
60.59216
  30
0.0
  70
0
  0
VERTEX
  8
a
  10
28.86446
  20
60.97731
  30
0.0
  70
0
  0
VERTEX
  8
a
  10
28.99618
  20
61.36271
  30
0.0
  70
0
  0
VERTEX
  8
a
  10
29.03145
  20
61.45908
  30
0.0
  70
0
  0
VERTEX
  8
a
  10
30.02926
  20
61.4988
  30
0.0
  70
0
  0
VERTEX
  8
a
  10
30.07209
  20
61.40555
  30
0.0
  70
0
  0
VERTEX
  8
a
  10
30.23403
  20
61.03183
  30
0.0
  70
0
  0
VERTEX
  8
a
  10
30.38032
  20
60.65713
  30
0.0
  70
0
  0
VERTEX
  8
a
  10
30.50982
  20
60.28162
  30
0.0
  70
0
  0
VERTEX
  8
a
  10
30.56776
  20
60.09362
  30
0.0
  70
0
  0
VERTEX
  8
a
  10
30.59492
  20
59.99957
  30
0.0
  70
0
  0
VERTEX
  8
a
  10
31.64732
  20
59.98634
  30
0.0
  70
0
  0
VERTEX
  8
a
  10
31.67683
  20
60.07968
  30
0.0
  70
0
  0
VERTEX
  8
a
  10
31.73948
  20
60.26617
  30
0.0
  70
0
  0
VERTEX
  8
a
  10
31.87837
  20
60.6383
  30
0.0
  70
0
  0
VERTEX
  8
a
  10
32.03404
  20
61.00921
  30
0.0
  70
0
  0
VERTEX
  8
a
  10
32.20532
  20
61.37874
  30
0.0
  70
0
  0
VERTEX
  8
a
  10
32.25047
  20
61.47089
  30
0.0
  70
0
  0
VERTEX
  8
a
  10
33.24697
  20
61.4061
  30
0.0
  70
0
  0
VERTEX
  8
a
  10
33.27981
  20
61.30888
  30
0.0
  70
0
  0
VERTEX
  8
a
  10
33.4018
  20
60.92029
  30
0.0
  70
0
  0
VERTEX
  8
a
  10
33.50813
  20
60.53234
  30
0.0
  70
0
  0
VERTEX
  8
a
  10
33.59766
  20
60.14535
  30
0.0
  70
0
  0
VERTEX
  8
a
  10
33.63564
  20
59.95232
  30
0.0
  70
0
  0
VERTEX
  8
a
  10
33.65282
  20
59.85595
  30
0.0
  70
0
  0
VERTEX
  8
a
  10
34.69807
  20
59.73279
  30
0.0
  70
0
  0
VERTEX
  8
a
  10
34.73717
  20
59.82253
  30
0.0
  70
0
  0
VERTEX
  8
a
  10
34.81898
  20
60.00145
  30
0.0
  70
0
  0
VERTEX
  8
a
  10
34.996
  20
60.35703
  30
0.0
  70
0
  0
VERTEX
  8
a
  10
35.18959
  20
60.70964
  30
0.0
  70
0
  0
VERTEX
  8
a
  10
35.39856
  20
61.05924
  30
0.0
  70
0
  0
VERTEX
  8
a
  10
35.4531
  20
61.14616
  30
0.0
  70
0
  0
VERTEX
  8
a
  10
36.43736
  20
60.97756
  30
0.0
  70
0
  0
VERTEX
  8
a
  10
36.45986
  20
60.87744
  30
0.0
  70
0
  0
VERTEX
  8
a
  10
36.54057
  20
60.47822
  30
0.0
  70
0
  0
VERTEX
  8
a
  10
36.60576
  20
60.08129
  30
0.0
  70
0
  0
VERTEX
  8
a
  10
36.65435
  20
59.68706
  30
0.0
  70
0
  0
VERTEX
  8
a
  10
36.67195
  20
59.49112
  30
0.0
  70
0
  0
VERTEX
  8
a
  10
36.67896
  20
59.39348
  30
0.0
  70
0
  0
VERTEX
  8
a
  10
37.7056
  20
59.16174
  30
0.0
  70
0
  0
VERTEX
  8
a
  10
37.75388
  20
59.2469
  30
0.0
  70
0
  0
VERTEX
  8
a
  10
37.85393
  20
59.41628
  30
0.0
  70
0
  0
VERTEX
  8
a
  10
38.06716
  20
59.75141
  30
0.0
  70
0
  0
VERTEX
  8
a
  10
38.29654
  20
60.08185
  30
0.0
  70
0
  0
VERTEX
  8
a
  10
38.54091
  20
60.4077
  30
0.0
  70
0
  0
VERTEX
  8
a
  10
38.60423
  20
60.48844
  30
0.0
  70
0
  0
VERTEX
  8
a
  10
39.56549
  20
60.21788
  30
0.0
  70
0
  0
VERTEX
  8
a
  10
39.5774
  20
60.11596
  30
0.0
  70
0
  0
VERTEX
  8
a
  10
39.61593
  20
59.71049
  30
0.0
  70
0
  0
VERTEX
  8
a
  10
39.63928
  20
59.30892
  30
0.0
  70
0
  0
VERTEX
  8
a
  10
39.64639
  20
58.91177
  30
0.0
  70
0
  0
VERTEX
  8
a
  10
39.64341
  20
58.71507
  30
0.0
  70
0
  0
VERTEX
  8
a
  10
39.64017
  20
58.61723
  30
0.0
  70
0
  0
VERTEX
  8
a
  10
40.63697
  20
58.27944
  30
0.0
  70
0
  0
VERTEX
  8
a
  10
40.69388
  20
58.35909
  30
0.0
  70
0
  0
VERTEX
  8
a
  10
40.8111
  20
58.51709
  30
0.0
  70
0
  0
VERTEX
  8
a
  10
41.05818
  20
58.82809
  30
0.0
  70
0
  0
VERTEX
  8
a
  10
41.32085
  20
59.13275
  30
0.0
  70
0
  0
VERTEX
  8
a
  10
41.59794
  20
59.43126
  30
0.0
  70
0
  0
VERTEX
  8
a
  10
41.66936
  20
59.50494
  30
0.0
  70
0
  0
VERTEX
  8
a
  10
42.59706
  20
59.13539
  30
0.0
  70
0
  0
VERTEX
  8
a
  10
42.59826
  20
59.03278
  30
0.0
  70
0
  0
VERTEX
  8
a
  10
42.59419
  20
58.62551
  30
0.0
  70
0
  0
VERTEX
  8
a
  10
42.57544
  20
58.22369
  30
0.0
  70
0
  0
VERTEX
  8
a
  10
42.541
  20
57.82798
  30
0.0
  70
0
  0
VERTEX
  8
a
  10
42.51747
  20
57.63266
  30
0.0
  70
0
  0
VERTEX
  8
a
  10
42.50403
  20
57.5357
  30
0.0
  70
0
  0
VERTEX
  8
a
  10
43.46006
  20
57.09557
  30
0.0
  70
0
  0
VERTEX
  8
a
  10
43.52498
  20
57.16883
  30
0.0
  70
0
  0
VERTEX
  8
a
  10
43.65807
  20
57.31371
  30
0.0
  70
0
  0
VERTEX
  8
a
  10
43.93631
  20
57.59718
  30
0.0
  70
0
  0
VERTEX
  8
a
  10
44.22938
  20
57.87271
  30
0.0
  70
0
  0
VERTEX
  8
a
  10
44.53616
  20
58.14063
  30
0.0
  70
0
  0
VERTEX
  8
a
  10
44.61489
  20
58.20644
  30
0.0
  70
0
  0
VERTEX
  8
a
  10
45.49888
  20
57.74194
  30
0.0
  70
0
  0
VERTEX
  8
a
  10
45.48934
  20
57.63977
  30
0.0
  70
0
  0
VERTEX
  8
a
  10
45.44273
  20
57.23515
  30
0.0
  70
0
  0
VERTEX
  8
a
  10
45.38207
  20
56.8375
  30
0.0
  70
0
  0
VERTEX
  8
a
  10
45.30646
  20
56.44755
  30
0.0
  70
0
  0
VERTEX
  8
a
  10
45.26265
  20
56.25576
  30
0.0
  70
0
  0
VERTEX
  8
a
  10
45.23914
  20
56.16073
  30
0.0
  70
0
  0
VERTEX
  8
a
  10
46.14393
  20
55.62308
  30
0.0
  70
0
  0
VERTEX
  8
a
  10
46.21616
  20
55.68916
  30
0.0
  70
0
  0
VERTEX
  8
a
  10
46.36366
  20
55.81933
  30
0.0
  70
0
  0
VERTEX
  8
a
  10
46.67001
  20
56.07217
  30
0.0
  70
0
  0
VERTEX
  8
a
  10
46.99027
  20
56.31555
  30
0.0
  70
0
  0
VERTEX
  8
a
  10
47.32337
  20
56.54993
  30
0.0
  70
0
  0
VERTEX
  8
a
  10
47.40855
  20
56.60716
  30
0.0
  70
0
  0
VERTEX
  8
a
  10
48.23915
  20
56.0528
  30
0.0
  70
0
  0
VERTEX
  8
a
  10
48.21898
  20
55.95219
  30
0.0
  70
0
  0
VERTEX
  8
a
  10
48.13033
  20
55.55466
  30
0.0
  70
0
  0
VERTEX
  8
a
  10
48.02844
  20
55.16552
  30
0.0
  70
0
  0
VERTEX
  8
a
  10
47.91248
  20
54.78561
  30
0.0
  70
0
  0
VERTEX
  8
a
  10
47.84886
  20
54.59946
  30
0.0
  70
0
  0
VERTEX
  8
a
  10
47.81555
  20
54.50741
  30
0.0
  70
0
  0
VERTEX
  8
a
  10
48.65918
  20
53.87813
  30
0.0
  70
0
  0
VERTEX
  8
a
  10
48.73792
  20
53.93629
  30
0.0
  70
0
  0
VERTEX
  8
a
  10
48.89822
  20
54.05033
  30
0.0
  70
0
  0
VERTEX
  8
a
  10
49.22932
  20
54.26976
  30
0.0
  70
0
  0
VERTEX
  8
a
  10
49.57327
  20
54.47834
  30
0.0
  70
0
  0
VERTEX
  8
a
  10
49.92905
  20
54.67661
  30
0.0
  70
0
  0
VERTEX
  8
a
  10
50.01974
  20
54.72462
  30
0.0
  70
0
  0
VERTEX
  8
a
  10
50.78784
  20
54.08648
  30
0.0
  70
0
  0
VERTEX
  8
a
  10
50.75727
  20
53.98852
  30
0.0
  70
0
  0
VERTEX
  8
a
  10
50.62755
  20
53.60244
  30
0.0
  70
0
  0
VERTEX
  8
a
  10
50.48554
  20
53.22609
  30
0.0
  70
0
  0
VERTEX
  8
a
  10
50.33051
  20
52.86038
  30
0.0
  70
0
  0
VERTEX
  8
a
  10
50.24777
  20
52.6819
  30
0.0
  70
0
  0
VERTEX
  8
a
  10
50.20502
  20
52.59383
  30
0.0
  70
0
  0
VERTEX
  8
a
  10
50.97826
  20
51.87981
  30
0.0
  70
0
  0
VERTEX
  8
a
  10
51.06264
  20
51.92943
  30
0.0
  70
0
  0
VERTEX
  8
a
  10
51.23399
  20
52.02609
  30
0.0
  70
0
  0
VERTEX
  8
a
  10
51.58621
  20
52.20971
  30
0.0
  70
0
  0
VERTEX
  8
a
  10
51.95008
  20
52.38119
  30
0.0
  70
0
  0
VERTEX
  8
a
  10
52.32463
  20
52.54119
  30
0.0
  70
0
  0
VERTEX
  8
a
  10
52.41984
  20
52.57945
  30
0.0
  70
0
  0
VERTEX
  8
a
  10
53.11703
  20
51.86452
  30
0.0
  70
0
  0
VERTEX
  8
a
  10
53.07639
  20
51.7703
  30
0.0
  70
0
  0
VERTEX
  8
a
  10
52.90702
  20
51.39989
  30
0.0
  70
0
  0
VERTEX
  8
a
  10
52.72646
  20
51.04044
  30
0.0
  70
0
  0
VERTEX
  8
a
  10
52.53404
  20
50.69294
  30
0.0
  70
0
  0
VERTEX
  8
a
  10
52.43311
  20
50.52408
  30
0.0
  70
0
  0
VERTEX
  8
a
  10
52.38139
  20
50.44097
  30
0.0
  70
0
  0
VERTEX
  8
a
  10
53.07575
  20
49.65004
  30
0.0
  70
0
  0
VERTEX
  8
a
  10
53.16486
  20
49.69056
  30
0.0
  70
0
  0
VERTEX
  8
a
  10
53.34537
  20
49.76878
  30
0.0
  70
0
  0
VERTEX
  8
a
  10
53.71485
  20
49.91458
  30
0.0
  70
0
  0
VERTEX
  8
a
  10
54.09466
  20
50.04708
  30
0.0
  70
0
  0
VERTEX
  8
a
  10
54.48388
  20
50.16705
  30
0.0
  70
0
  0
VERTEX
  8
a
  10
54.58257
  20
50.19516
  30
0.0
  70
0
  0
VERTEX
  8
a
  10
55.20121
  20
49.41126
  30
0.0
  70
0
  0
VERTEX
  8
a
  10
55.15094
  20
49.3218
  30
0.0
  70
0
  0
VERTEX
  8
a
  10
54.94378
  20
48.97113
  30
0.0
  70
0
  0
VERTEX
  8
a
  10
54.72663
  20
48.63252
  30
0.0
  70
0
  0
VERTEX
  8
a
  10
54.49895
  20
48.30704
  30
0.0
  70
0
  0
VERTEX
  8
a
  10
54.38092
  20
48.14966
  30
0.0
  70
0
  0
VERTEX
  8
a
  10
54.32079
  20
48.07241
  30
0.0
  70
0
  0
VERTEX
  8
a
  10
54.92867
  20
47.21323
  30
0.0
  70
0
  0
VERTEX
  8
a
  10
55.02153
  20
47.24421
  30
0.0
  70
0
  0
VERTEX
  8
a
  10
55.20923
  20
47.30314
  30
0.0
  70
0
  0
VERTEX
  8
a
  10
55.59193
  20
47.40951
  30
0.0
  70
0
  0
VERTEX
  8
a
  10
55.9835
  20
47.50159
  30
0.0
  70
0
  0
VERTEX
  8
a
  10
56.38313
  20
47.58022
  30
0.0
  70
0
  0
VERTEX
  8
a
  10
56.48422
  20
47.59786
  30
0.0
  70
0
  0
VERTEX
  8
a
  10
57.01753
  20
46.75359
  30
0.0
  70
0
  0
VERTEX
  8
a
  10
56.95819
  20
46.66988
  30
0.0
  70
0
  0
VERTEX
  8
a
  10
56.71551
  20
46.34277
  30
0.0
  70
0
  0
VERTEX
  8
a
  10
56.46415
  20
46.02872
  30
0.0
  70
0
  0
VERTEX
  8
a
  10
56.2037
  20
45.72882
  30
0.0
  70
0
  0
VERTEX
  8
a
  10
56.06986
  20
45.58464
  30
0.0
  70
0
  0
VERTEX
  8
a
  10
56.00199
  20
45.5141
  30
0.0
  70
0
  0
VERTEX
  8
a
  10
56.51673
  20
44.59608
  30
0.0
  70
0
  0
VERTEX
  8
a
  10
56.61232
  20
44.61719
  30
0.0
  70
0
  0
VERTEX
  8
a
  10
56.80515
  20
44.65618
  30
0.0
  70
0
  0
VERTEX
  8
a
  10
57.19687
  20
44.72197
  30
0.0
  70
0
  0
VERTEX
  8
a
  10
57.59592
  20
44.77261
  30
0.0
  70
0
  0
VERTEX
  8
a
  10
58.00159
  20
44.80904
  30
0.0
  70
0
  0
VERTEX
  8
a
  10
58.10396
  20
44.81601
  30
0.0
  70
0
  0
VERTEX
  8
a
  10
58.5461
  20
43.92062
  30
0.0
  70
0
  0
VERTEX
  8
a
  10
58.47833
  20
43.84357
  30
0.0
  70
0
  0
VERTEX
  8
a
  10
58.20279
  20
43.54362
  30
0.0
  70
0
  0
VERTEX
  8
a
  10
57.91999
  20
43.25757
  30
0.0
  70
0
  0
VERTEX
  8
a
  10
57.62961
  20
42.98654
  30
0.0
  70
0
  0
VERTEX
  8
a
  10
57.48143
  20
42.85713
  30
0.0
  70
0
  0
VERTEX
  8
a
  10
57.40656
  20
42.79407
  30
0.0
  70
0
  0
VERTEX
  8
a
  10
57.82253
  20
41.82728
  30
0.0
  70
0
  0
VERTEX
  8
a
  10
57.9198
  20
41.83828
  30
0.0
  70
0
  0
VERTEX
  8
a
  10
58.11564
  20
41.8569
  30
0.0
  70
0
  0
VERTEX
  8
a
  10
58.5121
  20
41.88138
  30
0.0
  70
0
  0
VERTEX
  8
a
  10
58.91426
  20
41.89003
  30
0.0
  70
0
  0
VERTEX
  8
a
  10
59.32151
  20
41.88386
  30
0.0
  70
0
  0
VERTEX
  8
a
  10
59.42405
  20
41.88009
  30
0.0
  70
0
  0
VERTEX
  8
a
  10
59.77018
  20
40.94339
  30
0.0
  70
0
  0
VERTEX
  8
a
  10
59.69472
  20
40.87384
  30
0.0
  70
0
  0
VERTEX
  8
a
  10
59.38934
  20
40.60434
  30
0.0
  70
0
  0
VERTEX
  8
a
  10
59.07818
  20
40.34942
  30
0.0
  70
0
  0
VERTEX
  8
a
  10
58.76106
  20
40.11022
  30
0.0
  70
0
  0
VERTEX
  8
a
  10
58.60017
  20
39.99702
  30
0.0
  70
0
  0
VERTEX
  8
a
  10
58.51912
  20
39.94213
  30
0.0
  70
0
  0
VERTEX
  8
a
  10
58.83175
  20
38.93715
  30
0.0
  70
0
  0
VERTEX
  8
a
  10
58.92964
  20
38.93793
  30
0.0
  70
0
  0
VERTEX
  8
a
  10
59.12635
  20
38.93597
  30
0.0
  70
0
  0
VERTEX
  8
a
  10
59.5232
  20
38.91887
  30
0.0
  70
0
  0
VERTEX
  8
a
  10
59.92406
  20
38.88544
  30
0.0
  70
0
  0
VERTEX
  8
a
  10
60.32843
  20
38.83673
  30
0.0
  70
0
  0
VERTEX
  8
a
  10
60.43002
  20
38.82226
  30
0.0
  70
0
  0
VERTEX
  8
a
  10
60.67634
  20
37.85452
  30
0.0
  70
0
  0
VERTEX
  8
a
  10
60.59402
  20
37.79324
  30
0.0
  70
0
  0
VERTEX
  8
a
  10
60.26214
  20
37.55714
  30
0.0
  70
0
  0
VERTEX
  8
a
  10
59.92604
  20
37.33613
  30
0.0
  70
0
  0
VERTEX
  8
a
  10
59.58566
  20
37.1314
  30
0.0
  70
0
  0
VERTEX
  8
a
  10
59.41382
  20
37.03563
  30
0.0
  70
0
  0
VERTEX
  8
a
  10
59.32747
  20
36.98951
  30
0.0
  70
0
  0
VERTEX
  8
a
  10
59.53334
  20
35.95736
  30
0.0
  70
0
  0
VERTEX
  8
a
  10
59.63077
  20
35.9479
  30
0.0
  70
0
  0
VERTEX
  8
a
  10
59.82621
  20
35.92539
  30
0.0
  70
0
  0
VERTEX
  8
a
  10
60.21909
  20
35.86691
  30
0.0
  70
0
  0
VERTEX
  8
a
  10
60.61426
  20
35.79176
  30
0.0
  70
0
  0
VERTEX
  8
a
  10
61.01133
  20
35.70105
  30
0.0
  70
0
  0
VERTEX
  8
a
  10
61.11085
  20
35.67604
  30
0.0
  70
0
  0
VERTEX
  8
a
  10
61.25466
  20
34.68785
  30
0.0
  70
0
  0
VERTEX
  8
a
  10
61.16639
  20
34.63551
  30
0.0
  70
0
  0
VERTEX
  8
a
  10
60.81165
  20
34.43539
  30
0.0
  70
0
  0
VERTEX
  8
a
  10
60.45429
  20
34.25073
  30
0.0
  70
0
  0
VERTEX
  8
a
  10
60.09437
  20
34.08269
  30
0.0
  70
0
  0
VERTEX
  8
a
  10
59.91346
  20
34.00541
  30
0.0
  70
0
  0
VERTEX
  8
a
  10
59.82276
  20
33.96857
  30
0.0
  70
0
  0
VERTEX
  8
a
  10
59.91962
  20
32.92056
  30
0.0
  70
0
  0
VERTEX
  8
a
  10
60.01553
  20
32.90097
  30
0.0
  70
0
  0
VERTEX
  8
a
  10
60.20754
  20
32.85815
  30
0.0
  70
0
  0
VERTEX
  8
a
  10
60.59216
  20
32.75892
  30
0.0
  70
0
  0
VERTEX
  8
a
  10
60.97731
  20
32.64288
  30
0.0
  70
0
  0
VERTEX
  8
a
  10
61.36271
  20
32.51116
  30
0.0
  70
0
  0
VERTEX
  8
a
  10
61.45908
  20
32.47589
  30
0.0
  70
0
  0
VERTEX
  8
a
  10
61.4988
  20
31.47807
  30
0.0
  70
0
  0
VERTEX
  8
a
  10
61.40555
  20
31.43525
  30
0.0
  70
0
  0
VERTEX
  8
a
  10
61.03183
  20
31.27331
  30
0.0
  70
0
  0
VERTEX
  8
a
  10
60.65713
  20
31.12701
  30
0.0
  70
0
  0
VERTEX
  8
a
  10
60.28162
  20
30.99752
  30
0.0
  70
0
  0
VERTEX
  8
a
  10
60.09362
  20
30.93957
  30
0.0
  70
0
  0
VERTEX
  8
a
  10
59.99957
  20
30.91241
  30
0.0
  70
0
  0
VERTEX
  8
a
  10
59.98634
  20
29.86002
  30
0.0
  70
0
  0
VERTEX
  8
a
  10
60.07968
  20
29.83051
  30
0.0
  70
0
  0
VERTEX
  8
a
  10
60.26617
  20
29.76785
  30
0.0
  70
0
  0
VERTEX
  8
a
  10
60.6383
  20
29.62897
  30
0.0
  70
0
  0
VERTEX
  8
a
  10
61.00921
  20
29.4733
  30
0.0
  70
0
  0
VERTEX
  8
a
  10
61.37874
  20
29.30202
  30
0.0
  70
0
  0
VERTEX
  8
a
  10
61.47089
  20
29.25686
  30
0.0
  70
0
  0
VERTEX
  8
a
  10
61.4061
  20
28.26036
  30
0.0
  70
0
  0
VERTEX
  8
a
  10
61.30888
  20
28.22752
  30
0.0
  70
0
  0
VERTEX
  8
a
  10
60.92029
  20
28.10553
  30
0.0
  70
0
  0
VERTEX
  8
a
  10
60.53234
  20
27.9992
  30
0.0
  70
0
  0
VERTEX
  8
a
  10
60.14535
  20
27.90967
  30
0.0
  70
0
  0
VERTEX
  8
a
  10
59.95232
  20
27.87169
  30
0.0
  70
0
  0
VERTEX
  8
a
  10
59.85595
  20
27.85452
  30
0.0
  70
0
  0
VERTEX
  8
a
  10
59.73279
  20
26.80927
  30
0.0
  70
0
  0
VERTEX
  8
a
  10
59.82253
  20
26.77016
  30
0.0
  70
0
  0
VERTEX
  8
a
  10
60.00145
  20
26.68836
  30
0.0
  70
0
  0
VERTEX
  8
a
  10
60.35703
  20
26.51133
  30
0.0
  70
0
  0
VERTEX
  8
a
  10
60.70964
  20
26.31775
  30
0.0
  70
0
  0
VERTEX
  8
a
  10
61.05924
  20
26.10878
  30
0.0
  70
0
  0
VERTEX
  8
a
  10
61.14616
  20
26.05424
  30
0.0
  70
0
  0
VERTEX
  8
a
  10
60.97756
  20
25.06997
  30
0.0
  70
0
  0
VERTEX
  8
a
  10
60.87744
  20
25.04747
  30
0.0
  70
0
  0
VERTEX
  8
a
  10
60.47822
  20
24.96677
  30
0.0
  70
0
  0
VERTEX
  8
a
  10
60.08129
  20
24.90157
  30
0.0
  70
0
  0
VERTEX
  8
a
  10
59.68706
  20
24.85298
  30
0.0
  70
0
  0
VERTEX
  8
a
  10
59.49112
  20
24.83539
  30
0.0
  70
0
  0
VERTEX
  8
a
  10
59.39348
  20
24.82838
  30
0.0
  70
0
  0
VERTEX
  8
a
  10
59.16174
  20
23.80173
  30
0.0
  70
0
  0
VERTEX
  8
a
  10
59.2469
  20
23.75346
  30
0.0
  70
0
  0
VERTEX
  8
a
  10
59.41628
  20
23.6534
  30
0.0
  70
0
  0
VERTEX
  8
a
  10
59.75141
  20
23.44018
  30
0.0
  70
0
  0
VERTEX
  8
a
  10
60.08185
  20
23.21079
  30
0.0
  70
0
  0
VERTEX
  8
a
  10
60.4077
  20
22.96643
  30
0.0
  70
0
  0
VERTEX
  8
a
  10
60.48844
  20
22.9031
  30
0.0
  70
0
  0
VERTEX
  8
a
  10
60.21788
  20
21.94185
  30
0.0
  70
0
  0
VERTEX
  8
a
  10
60.11596
  20
21.92994
  30
0.0
  70
0
  0
VERTEX
  8
a
  10
59.71049
  20
21.89141
  30
0.0
  70
0
  0
VERTEX
  8
a
  10
59.30892
  20
21.86806
  30
0.0
  70
0
  0
VERTEX
  8
a
  10
58.91177
  20
21.86094
  30
0.0
  70
0
  0
VERTEX
  8
a
  10
58.71507
  20
21.86393
  30
0.0
  70
0
  0
VERTEX
  8
a
  10
58.61723
  20
21.86716
  30
0.0
  70
0
  0
VERTEX
  8
a
  10
58.27944
  20
20.87036
  30
0.0
  70
0
  0
VERTEX
  8
a
  10
58.35909
  20
20.81345
  30
0.0
  70
0
  0
VERTEX
  8
a
  10
58.51709
  20
20.69624
  30
0.0
  70
0
  0
VERTEX
  8
a
  10
58.82809
  20
20.44915
  30
0.0
  70
0
  0
VERTEX
  8
a
  10
59.13275
  20
20.18649
  30
0.0
  70
0
  0
VERTEX
  8
a
  10
59.43126
  20
19.9094
  30
0.0
  70
0
  0
VERTEX
  8
a
  10
59.50494
  20
19.83798
  30
0.0
  70
0
  0
VERTEX
  8
a
  10
59.13539
  20
18.91027
  30
0.0
  70
0
  0
VERTEX
  8
a
  10
59.03278
  20
18.90908
  30
0.0
  70
0
  0
VERTEX
  8
a
  10
58.62551
  20
18.91314
  30
0.0
  70
0
  0
VERTEX
  8
a
  10
58.22369
  20
18.9319
  30
0.0
  70
0
  0
VERTEX
  8
a
  10
57.82798
  20
18.96634
  30
0.0
  70
0
  0
VERTEX
  8
a
  10
57.63266
  20
18.98987
  30
0.0
  70
0
  0
VERTEX
  8
a
  10
57.5357
  20
19.00331
  30
0.0
  70
0
  0
VERTEX
  8
a
  10
57.09557
  20
18.04728
  30
0.0
  70
0
  0
VERTEX
  8
a
  10
57.16883
  20
17.98235
  30
0.0
  70
0
  0
VERTEX
  8
a
  10
57.31371
  20
17.84927
  30
0.0
  70
0
  0
VERTEX
  8
a
  10
57.59718
  20
17.57103
  30
0.0
  70
0
  0
VERTEX
  8
a
  10
57.87271
  20
17.27795
  30
0.0
  70
0
  0
VERTEX
  8
a
  10
58.14063
  20
16.97118
  30
0.0
  70
0
  0
VERTEX
  8
a
  10
58.20644
  20
16.89245
  30
0.0
  70
0
  0
VERTEX
  8
a
  10
57.74194
  20
16.00845
  30
0.0
  70
0
  0
VERTEX
  8
a
  10
57.63977
  20
16.01799
  30
0.0
  70
0
  0
VERTEX
  8
a
  10
57.23515
  20
16.06461
  30
0.0
  70
0
  0
VERTEX
  8
a
  10
56.8375
  20
16.12526
  30
0.0
  70
0
  0
VERTEX
  8
a
  10
56.44755
  20
16.20087
  30
0.0
  70
0
  0
VERTEX
  8
a
  10
56.25576
  20
16.24469
  30
0.0
  70
0
  0
VERTEX
  8
a
  10
56.16073
  20
16.2682
  30
0.0
  70
0
  0
VERTEX
  8
a
  10
55.62308
  20
15.36341
  30
0.0
  70
0
  0
VERTEX
  8
a
  10
55.68916
  20
15.29118
  30
0.0
  70
0
  0
VERTEX
  8
a
  10
55.81933
  20
15.14368
  30
0.0
  70
0
  0
VERTEX
  8
a
  10
56.07217
  20
14.83733
  30
0.0
  70
0
  0
VERTEX
  8
a
  10
56.31555
  20
14.51706
  30
0.0
  70
0
  0
VERTEX
  8
a
  10
56.54993
  20
14.18396
  30
0.0
  70
0
  0
VERTEX
  8
a
  10
56.60716
  20
14.09879
  30
0.0
  70
0
  0
VERTEX
  8
a
  10
56.0528
  20
13.26819
  30
0.0
  70
0
  0
VERTEX
  8
a
  10
55.95219
  20
13.28836
  30
0.0
  70
0
  0
VERTEX
  8
a
  10
55.55466
  20
13.37701
  30
0.0
  70
0
  0
VERTEX
  8
a
  10
55.16552
  20
13.4789
  30
0.0
  70
0
  0
VERTEX
  8
a
  10
54.78561
  20
13.59485
  30
0.0
  70
0
  0
VERTEX
  8
a
  10
54.59946
  20
13.65848
  30
0.0
  70
0
  0
VERTEX
  8
a
  10
54.50741
  20
13.69179
  30
0.0
  70
0
  0
VERTEX
  8
a
  10
53.87813
  20
12.84816
  30
0.0
  70
0
  0
VERTEX
  8
a
  10
53.93629
  20
12.76942
  30
0.0
  70
0
  0
VERTEX
  8
a
  10
54.05033
  20
12.60912
  30
0.0
  70
0
  0
VERTEX
  8
a
  10
54.26976
  20
12.27802
  30
0.0
  70
0
  0
VERTEX
  8
a
  10
54.47834
  20
11.93406
  30
0.0
  70
0
  0
VERTEX
  8
a
  10
54.67661
  20
11.57829
  30
0.0
  70
0
  0
VERTEX
  8
a
  10
54.72462
  20
11.4876
  30
0.0
  70
0
  0
VERTEX
  8
a
  10
54.08648
  20
10.7195
  30
0.0
  70
0
  0
VERTEX
  8
a
  10
53.98852
  20
10.75007
  30
0.0
  70
0
  0
VERTEX
  8
a
  10
53.60244
  20
10.87979
  30
0.0
  70
0
  0
VERTEX
  8
a
  10
53.22609
  20
11.0218
  30
0.0
  70
0
  0
VERTEX
  8
a
  10
52.86038
  20
11.17683
  30
0.0
  70
0
  0
VERTEX
  8
a
  10
52.6819
  20
11.25956
  30
0.0
  70
0
  0
VERTEX
  8
a
  10
52.59383
  20
11.30231
  30
0.0
  70
0
  0
VERTEX
  8
a
  10
51.87981
  20
10.52908
  30
0.0
  70
0
  0
VERTEX
  8
a
  10
51.92943
  20
10.44469
  30
0.0
  70
0
  0
VERTEX
  8
a
  10
52.02609
  20
10.27335
  30
0.0
  70
0
  0
VERTEX
  8
a
  10
52.20971
  20
9.92113
  30
0.0
  70
0
  0
VERTEX
  8
a
  10
52.38119
  20
9.55726
  30
0.0
  70
0
  0
VERTEX
  8
a
  10
52.54119
  20
9.18271
  30
0.0
  70
0
  0
VERTEX
  8
a
  10
52.57945
  20
9.08749
  30
0.0
  70
0
  0
VERTEX
  8
a
  10
51.86452
  20
8.3903
  30
0.0
  70
0
  0
VERTEX
  8
a
  10
51.7703
  20
8.43095
  30
0.0
  70
0
  0
VERTEX
  8
a
  10
51.39989
  20
8.60031
  30
0.0
  70
0
  0
VERTEX
  8
a
  10
51.04044
  20
8.78088
  30
0.0
  70
0
  0
VERTEX
  8
a
  10
50.69294
  20
8.97329
  30
0.0
  70
0
  0
VERTEX
  8
a
  10
50.52408
  20
9.07423
  30
0.0
  70
0
  0
VERTEX
  8
a
  10
50.44097
  20
9.12595
  30
0.0
  70
0
  0
VERTEX
  8
a
  10
49.65004
  20
8.43159
  30
0.0
  70
0
  0
VERTEX
  8
a
  10
49.69056
  20
8.34248
  30
0.0
  70
0
  0
VERTEX
  8
a
  10
49.76878
  20
8.16197
  30
0.0
  70
0
  0
VERTEX
  8
a
  10
49.91458
  20
7.79248
  30
0.0
  70
0
  0
VERTEX
  8
a
  10
50.04708
  20
7.41268
  30
0.0
  70
0
  0
VERTEX
  8
a
  10
50.16705
  20
7.02346
  30
0.0
  70
0
  0
VERTEX
  8
a
  10
50.19516
  20
6.92477
  30
0.0
  70
0
  0
VERTEX
  8
a
  10
49.41126
  20
6.30613
  30
0.0
  70
0
  0
VERTEX
  8
a
  10
49.3218
  20
6.3564
  30
0.0
  70
0
  0
VERTEX
  8
a
  10
48.97113
  20
6.56355
  30
0.0
  70
0
  0
VERTEX
  8
a
  10
48.63252
  20
6.78071
  30
0.0
  70
0
  0
VERTEX
  8
a
  10
48.30704
  20
7.00839
  30
0.0
  70
0
  0
VERTEX
  8
a
  10
48.14966
  20
7.12642
  30
0.0
  70
0
  0
VERTEX
  8
a
  10
48.07241
  20
7.18655
  30
0.0
  70
0
  0
VERTEX
  8
a
  10
47.21323
  20
6.57866
  30
0.0
  70
0
  0
VERTEX
  8
a
  10
47.24421
  20
6.4858
  30
0.0
  70
0
  0
VERTEX
  8
a
  10
47.30314
  20
6.29811
  30
0.0
  70
0
  0
VERTEX
  8
a
  10
47.40951
  20
5.91541
  30
0.0
  70
0
  0
VERTEX
  8
a
  10
47.50159
  20
5.52383
  30
0.0
  70
0
  0
VERTEX
  8
a
  10
47.58022
  20
5.1242
  30
0.0
  70
0
  0
VERTEX
  8
a
  10
47.59786
  20
5.02311
  30
0.0
  70
0
  0
VERTEX
  8
a
  10
46.75359
  20
4.4898
  30
0.0
  70
0
  0
VERTEX
  8
a
  10
46.66988
  20
4.54915
  30
0.0
  70
0
  0
VERTEX
  8
a
  10
46.34277
  20
4.79183
  30
0.0
  70
0
  0
VERTEX
  8
a
  10
46.02872
  20
5.04318
  30
0.0
  70
0
  0
VERTEX
  8
a
  10
45.72882
  20
5.30364
  30
0.0
  70
0
  0
VERTEX
  8
a
  10
45.58464
  20
5.43748
  30
0.0
  70
0
  0
VERTEX
  8
a
  10
45.5141
  20
5.50535
  30
0.0
  70
0
  0
VERTEX
  8
a
  10
44.59608
  20
4.9906
  30
0.0
  70
0
  0
VERTEX
  8
a
  10
44.61719
  20
4.89501
  30
0.0
  70
0
  0
VERTEX
  8
a
  10
44.65618
  20
4.70219
  30
0.0
  70
0
  0
VERTEX
  8
a
  10
44.72197
  20
4.31046
  30
0.0
  70
0
  0
VERTEX
  8
a
  10
44.77261
  20
3.91141
  30
0.0
  70
0
  0
VERTEX
  8
a
  10
44.80904
  20
3.50575
  30
0.0
  70
0
  0
VERTEX
  8
a
  10
44.81601
  20
3.40337
  30
0.0
  70
0
  0
VERTEX
  8
a
  10
43.92062
  20
2.96123
  30
0.0
  70
0
  0
VERTEX
  8
a
  10
43.84357
  20
3.029
  30
0.0
  70
0
  0
VERTEX
  8
a
  10
43.54362
  20
3.30454
  30
0.0
  70
0
  0
VERTEX
  8
a
  10
43.25757
  20
3.58735
  30
0.0
  70
0
  0
VERTEX
  8
a
  10
42.98654
  20
3.87773
  30
0.0
  70
0
  0
VERTEX
  8
a
  10
42.85713
  20
4.0259
  30
0.0
  70
0
  0
VERTEX
  8
a
  10
42.79407
  20
4.10078
  30
0.0
  70
0
  0
VERTEX
  8
a
  10
41.82728
  20
3.68481
  30
0.0
  70
0
  0
VERTEX
  8
a
  10
41.83828
  20
3.58754
  30
0.0
  70
0
  0
VERTEX
  8
a
  10
41.8569
  20
3.39169
  30
0.0
  70
0
  0
VERTEX
  8
a
  10
41.88138
  20
2.99524
  30
0.0
  70
0
  0
VERTEX
  8
a
  10
41.89003
  20
2.59308
  30
0.0
  70
0
  0
VERTEX
  8
a
  10
41.88386
  20
2.18583
  30
0.0
  70
0
  0
VERTEX
  8
a
  10
41.88009
  20
2.08328
  30
0.0
  70
0
  0
VERTEX
  8
a
  10
40.94339
  20
1.73716
  30
0.0
  70
0
  0
VERTEX
  8
a
  10
40.87384
  20
1.81262
  30
0.0
  70
0
  0
VERTEX
  8
a
  10
40.60434
  20
2.118
  30
0.0
  70
0
  0
VERTEX
  8
a
  10
40.34942
  20
2.42916
  30
0.0
  70
0
  0
VERTEX
  8
a
  10
40.11022
  20
2.74627
  30
0.0
  70
0
  0
VERTEX
  8
a
  10
39.99702
  20
2.90716
  30
0.0
  70
0
  0
VERTEX
  8
a
  10
39.94213
  20
2.98822
  30
0.0
  70
0
  0
VERTEX
  8
a
  10
38.93715
  20
2.67559
  30
0.0
  70
0
  0
VERTEX
  8
a
  10
38.93793
  20
2.5777
  30
0.0
  70
0
  0
VERTEX
  8
a
  10
38.93597
  20
2.38098
  30
0.0
  70
0
  0
VERTEX
  8
a
  10
38.91887
  20
1.98414
  30
0.0
  70
0
  0
VERTEX
  8
a
  10
38.88544
  20
1.58328
  30
0.0
  70
0
  0
VERTEX
  8
a
  10
38.83673
  20
1.17891
  30
0.0
  70
0
  0
VERTEX
  8
a
  10
38.82226
  20
1.07732
  30
0.0
  70
0
  0
VERTEX
  8
a
  10
37.85452
  20
0.831
  30
0.0
  70
0
  0
VERTEX
  8
a
  10
37.79324
  20
0.91331
  30
0.0
  70
0
  0
VERTEX
  8
a
  10
37.55714
  20
1.24519
  30
0.0
  70
0
  0
VERTEX
  8
a
  10
37.33613
  20
1.58129
  30
0.0
  70
0
  0
VERTEX
  8
a
  10
37.1314
  20
1.92167
  30
0.0
  70
0
  0
VERTEX
  8
a
  10
37.03563
  20
2.09352
  30
0.0
  70
0
  0
VERTEX
  8
a
  10
36.98951
  20
2.17987
  30
0.0
  70
0
  0
VERTEX
  8
a
  10
35.95736
  20
1.974
  30
0.0
  70
0
  0
VERTEX
  8
a
  10
35.9479
  20
1.87656
  30
0.0
  70
0
  0
VERTEX
  8
a
  10
35.92539
  20
1.68113
  30
0.0
  70
0
  0
VERTEX
  8
a
  10
35.86691
  20
1.28825
  30
0.0
  70
0
  0
VERTEX
  8
a
  10
35.79176
  20
0.89307
  30
0.0
  70
0
  0
VERTEX
  8
a
  10
35.70105
  20
0.49601
  30
0.0
  70
0
  0
VERTEX
  8
a
  10
35.67604
  20
0.39649
  30
0.0
  70
0
  0
VERTEX
  8
a
  10
34.68785
  20
0.25268
  30
0.0
  70
0
  0
VERTEX
  8
a
  10
34.63551
  20
0.34094
  30
0.0
  70
0
  0
VERTEX
  8
a
  10
34.43539
  20
0.69569
  30
0.0
  70
0
  0
VERTEX
  8
a
  10
34.25073
  20
1.05305
  30
0.0
  70
0
  0
VERTEX
  8
a
  10
34.08269
  20
1.41296
  30
0.0
  70
0
  0
VERTEX
  8
a
  10
34.00541
  20
1.59388
  30
0.0
  70
0
  0
VERTEX
  8
a
  10
33.96857
  20
1.68457
  30
0.0
  70
0
  0
VERTEX
  8
a
  10
32.92056
  20
1.58772
  30
0.0
  70
0
  0
VERTEX
  8
a
  10
32.90097
  20
1.49181
  30
0.0
  70
0
  0
VERTEX
  8
a
  10
32.85815
  20
1.2998
  30
0.0
  70
0
  0
VERTEX
  8
a
  10
32.75892
  20
0.91518
  30
0.0
  70
0
  0
VERTEX
  8
a
  10
32.64288
  20
0.53003
  30
0.0
  70
0
  0
VERTEX
  8
a
  10
32.51116
  20
0.14462
  30
0.0
  70
0
  0
VERTEX
  8
a
  10
32.47589
  20
0.04826
  30
0.0
  70
0
  0
VERTEX
  8
a
  10
31.47807
  20
0.00853
  30
0.0
  70
0
  0
VERTEX
  8
a
  10
31.43525
  20
0.10179
  30
0.0
  70
0
  0
VERTEX
  8
a
  10
31.27331
  20
0.4755
  30
0.0
  70
0
  0
VERTEX
  8
a
  10
31.12701
  20
0.85021
  30
0.0
  70
0
  0
VERTEX
  8
a
  10
30.99752
  20
1.22572
  30
0.0
  70
0
  0
VERTEX
  8
a
  10
30.93957
  20
1.41372
  30
0.0
  70
0
  0
VERTEX
  8
a
  10
30.91241
  20
1.50777
  30
0.0
  70
0
  0
VERTEX
  8
a
  10
29.86002
  20
1.52099
  30
0.0
  70
0
  0
VERTEX
  8
a
  10
29.83051
  20
1.42765
  30
0.0
  70
0
  0
VERTEX
  8
a
  10
29.76785
  20
1.24117
  30
0.0
  70
0
  0
VERTEX
  8
a
  10
29.62897
  20
0.86903
  30
0.0
  70
0
  0
VERTEX
  8
a
  10
29.4733
  20
0.49812
  30
0.0
  70
0
  0
VERTEX
  8
a
  10
29.30202
  20
0.12859
  30
0.0
  70
0
  0
VERTEX
  8
a
  10
29.25686
  20
0.03645
  30
0.0
  70
0
  0
VERTEX
  8
a
  10
28.26036
  20
0.10124
  30
0.0
  70
0
  0
VERTEX
  8
a
  10
28.22752
  20
0.19845
  30
0.0
  70
0
  0
VERTEX
  8
a
  10
28.10553
  20
0.58705
  30
0.0
  70
0
  0
VERTEX
  8
a
  10
27.9992
  20
0.975
  30
0.0
  70
0
  0
VERTEX
  8
a
  10
27.90967
  20
1.36199
  30
0.0
  70
0
  0
VERTEX
  8
a
  10
27.87169
  20
1.55501
  30
0.0
  70
0
  0
VERTEX
  8
a
  10
27.85452
  20
1.65139
  30
0.0
  70
0
  0
VERTEX
  8
a
  10
26.80927
  20
1.77454
  30
0.0
  70
0
  0
VERTEX
  8
a
  10
26.77016
  20
1.6848
  30
0.0
  70
0
  0
VERTEX
  8
a
  10
26.68836
  20
1.50589
  30
0.0
  70
0
  0
VERTEX
  8
a
  10
26.51133
  20
1.15031
  30
0.0
  70
0
  0
VERTEX
  8
a
  10
26.31775
  20
0.7977
  30
0.0
  70
0
  0
VERTEX
  8
a
  10
26.10878
  20
0.4481
  30
0.0
  70
0
  0
VERTEX
  8
a
  10
26.05424
  20
0.36118
  30
0.0
  70
0
  0
VERTEX
  8
a
  10
25.06997
  20
0.52978
  30
0.0
  70
0
  0
VERTEX
  8
a
  10
25.04747
  20
0.62989
  30
0.0
  70
0
  0
VERTEX
  8
a
  10
24.96677
  20
1.02911
  30
0.0
  70
0
  0
VERTEX
  8
a
  10
24.90157
  20
1.42605
  30
0.0
  70
0
  0
VERTEX
  8
a
  10
24.85298
  20
1.82027
  30
0.0
  70
0
  0
VERTEX
  8
a
  10
24.83539
  20
2.01621
  30
0.0
  70
0
  0
VERTEX
  8
a
  10
24.82838
  20
2.11385
  30
0.0
  70
0
  0
VERTEX
  8
a
  10
23.80173
  20
2.3456
  30
0.0
  70
0
  0
VERTEX
  8
a
  10
23.75346
  20
2.26043
  30
0.0
  70
0
  0
VERTEX
  8
a
  10
23.6534
  20
2.09105
  30
0.0
  70
0
  0
VERTEX
  8
a
  10
23.44018
  20
1.75592
  30
0.0
  70
0
  0
VERTEX
  8
a
  10
23.21079
  20
1.42548
  30
0.0
  70
0
  0
VERTEX
  8
a
  10
22.96643
  20
1.09964
  30
0.0
  70
0
  0
VERTEX
  8
a
  10
22.9031
  20
1.0189
  30
0.0
  70
0
  0
VERTEX
  8
a
  10
21.94185
  20
1.28945
  30
0.0
  70
0
  0
VERTEX
  8
a
  10
21.92994
  20
1.39137
  30
0.0
  70
0
  0
VERTEX
  8
a
  10
21.89141
  20
1.79684
  30
0.0
  70
0
  0
VERTEX
  8
a
  10
21.86806
  20
2.19842
  30
0.0
  70
0
  0
VERTEX
  8
a
  10
21.86094
  20
2.59556
  30
0.0
  70
0
  0
VERTEX
  8
a
  10
21.86393
  20
2.79227
  30
0.0
  70
0
  0
VERTEX
  8
a
  10
21.86716
  20
2.89011
  30
0.0
  70
0
  0
VERTEX
  8
a
  10
20.87036
  20
3.22789
  30
0.0
  70
0
  0
VERTEX
  8
a
  10
20.81345
  20
3.14824
  30
0.0
  70
0
  0
VERTEX
  8
a
  10
20.69624
  20
2.99025
  30
0.0
  70
0
  0
VERTEX
  8
a
  10
20.44915
  20
2.67924
  30
0.0
  70
0
  0
VERTEX
  8
a
  10
20.18649
  20
2.37459
  30
0.0
  70
0
  0
VERTEX
  8
a
  10
19.9094
  20
2.07608
  30
0.0
  70
0
  0
VERTEX
  8
a
  10
19.83798
  20
2.00239
  30
0.0
  70
0
  0
VERTEX
  8
a
  10
18.91027
  20
2.37195
  30
0.0
  70
0
  0
VERTEX
  8
a
  10
18.90908
  20
2.47456
  30
0.0
  70
0
  0
VERTEX
  8
a
  10
18.91314
  20
2.88183
  30
0.0
  70
0
  0
VERTEX
  8
a
  10
18.9319
  20
3.28364
  30
0.0
  70
0
  0
VERTEX
  8
a
  10
18.96634
  20
3.67936
  30
0.0
  70
0
  0
VERTEX
  8
a
  10
18.98987
  20
3.87467
  30
0.0
  70
0
  0
VERTEX
  8
a
  10
19.00331
  20
3.97164
  30
0.0
  70
0
  0
VERTEX
  8
a
  10
18.04728
  20
4.41177
  30
0.0
  70
0
  0
VERTEX
  8
a
  10
17.98235
  20
4.3385
  30
0.0
  70
0
  0
VERTEX
  8
a
  10
17.84927
  20
4.19363
  30
0.0
  70
0
  0
VERTEX
  8
a
  10
17.57103
  20
3.91015
  30
0.0
  70
0
  0
VERTEX
  8
a
  10
17.27795
  20
3.63463
  30
0.0
  70
0
  0
VERTEX
  8
a
  10
16.97118
  20
3.36671
  30
0.0
  70
0
  0
VERTEX
  8
a
  10
16.89245
  20
3.3009
  30
0.0
  70
0
  0
VERTEX
  8
a
  10
16.00845
  20
3.7654
  30
0.0
  70
0
  0
VERTEX
  8
a
  10
16.01799
  20
3.86757
  30
0.0
  70
0
  0
VERTEX
  8
a
  10
16.06461
  20
4.27219
  30
0.0
  70
0
  0
VERTEX
  8
a
  10
16.12526
  20
4.66984
  30
0.0
  70
0
  0
VERTEX
  8
a
  10
16.20087
  20
5.05979
  30
0.0
  70
0
  0
VERTEX
  8
a
  10
16.24469
  20
5.25157
  30
0.0
  70
0
  0
VERTEX
  8
a
  10
16.2682
  20
5.3466
  30
0.0
  70
0
  0
VERTEX
  8
a
  10
15.36341
  20
5.88425
  30
0.0
  70
0
  0
VERTEX
  8
a
  10
15.29118
  20
5.81818
  30
0.0
  70
0
  0
VERTEX
  8
a
  10
15.14368
  20
5.688
  30
0.0
  70
0
  0
VERTEX
  8
a
  10
14.83733
  20
5.43517
  30
0.0
  70
0
  0
VERTEX
  8
a
  10
14.51706
  20
5.19178
  30
0.0
  70
0
  0
VERTEX
  8
a
  10
14.18396
  20
4.9574
  30
0.0
  70
0
  0
VERTEX
  8
a
  10
14.09879
  20
4.90018
  30
0.0
  70
0
  0
VERTEX
  8
a
  10
13.26819
  20
5.45454
  30
0.0
  70
0
  0
VERTEX
  8
a
  10
13.28836
  20
5.55515
  30
0.0
  70
0
  0
VERTEX
  8
a
  10
13.37701
  20
5.95268
  30
0.0
  70
0
  0
VERTEX
  8
a
  10
13.4789
  20
6.34181
  30
0.0
  70
0
  0
VERTEX
  8
a
  10
13.59485
  20
6.72172
  30
0.0
  70
0
  0
VERTEX
  8
a
  10
13.65848
  20
6.90788
  30
0.0
  70
0
  0
VERTEX
  8
a
  10
13.69179
  20
6.99993
  30
0.0
  70
0
  0
VERTEX
  8
a
  10
12.84816
  20
7.62921
  30
0.0
  70
0
  0
VERTEX
  8
a
  10
12.76942
  20
7.57104
  30
0.0
  70
0
  0
VERTEX
  8
a
  10
12.60912
  20
7.457
  30
0.0
  70
0
  0
VERTEX
  8
a
  10
12.27802
  20
7.23757
  30
0.0
  70
0
  0
VERTEX
  8
a
  10
11.93406
  20
7.029
  30
0.0
  70
0
  0
VERTEX
  8
a
  10
11.57829
  20
6.83072
  30
0.0
  70
0
  0
VERTEX
  8
a
  10
11.4876
  20
6.78271
  30
0.0
  70
0
  0
VERTEX
  8
a
  10
10.7195
  20
7.42086
  30
0.0
  70
0
  0
VERTEX
  8
a
  10
10.75007
  20
7.51881
  30
0.0
  70
0
  0
VERTEX
  8
a
  10
10.87979
  20
7.9049
  30
0.0
  70
0
  0
VERTEX
  8
a
  10
11.0218
  20
8.28125
  30
0.0
  70
0
  0
VERTEX
  8
a
  10
11.17683
  20
8.64696
  30
0.0
  70
0
  0
VERTEX
  8
a
  10
11.25956
  20
8.82544
  30
0.0
  70
0
  0
VERTEX
  8
a
  10
11.30231
  20
8.91351
  30
0.0
  70
0
  0
VERTEX
  8
a
  10
10.52908
  20
9.62752
  30
0.0
  70
0
  0
VERTEX
  8
a
  10
10.44469
  20
9.57791
  30
0.0
  70
0
  0
VERTEX
  8
a
  10
10.27335
  20
9.48125
  30
0.0
  70
0
  0
VERTEX
  8
a
  10
9.92113
  20
9.29763
  30
0.0
  70
0
  0
VERTEX
  8
a
  10
9.55726
  20
9.12615
  30
0.0
  70
0
  0
VERTEX
  8
a
  10
9.18271
  20
8.96615
  30
0.0
  70
0
  0
VERTEX
  8
a
  10
9.08749
  20
8.92788
  30
0.0
  70
0
  0
VERTEX
  8
a
  10
8.3903
  20
9.64282
  30
0.0
  70
0
  0
VERTEX
  8
a
  10
8.43095
  20
9.73704
  30
0.0
  70
0
  0
VERTEX
  8
a
  10
8.60031
  20
10.10745
  30
0.0
  70
0
  0
VERTEX
  8
a
  10
8.78088
  20
10.4669
  30
0.0
  70
0
  0
VERTEX
  8
a
  10
8.97329
  20
10.8144
  30
0.0
  70
0
  0
VERTEX
  8
a
  10
9.07423
  20
10.98326
  30
0.0
  70
0
  0
VERTEX
  8
a
  10
9.12595
  20
11.06637
  30
0.0
  70
0
  0
VERTEX
  8
a
  10
8.43159
  20
11.8573
  30
0.0
  70
0
  0
VERTEX
  8
a
  10
8.34248
  20
11.81678
  30
0.0
  70
0
  0
VERTEX
  8
a
  10
8.16197
  20
11.73856
  30
0.0
  70
0
  0
VERTEX
  8
a
  10
7.79248
  20
11.59276
  30
0.0
  70
0
  0
VERTEX
  8
a
  10
7.41268
  20
11.46026
  30
0.0
  70
0
  0
VERTEX
  8
a
  10
7.02346
  20
11.34028
  30
0.0
  70
0
  0
VERTEX
  8
a
  10
6.92477
  20
11.31218
  30
0.0
  70
0
  0
VERTEX
  8
a
  10
6.30613
  20
12.09607
  30
0.0
  70
0
  0
VERTEX
  8
a
  10
6.3564
  20
12.18553
  30
0.0
  70
0
  0
VERTEX
  8
a
  10
6.56355
  20
12.53621
  30
0.0
  70
0
  0
VERTEX
  8
a
  10
6.78071
  20
12.87481
  30
0.0
  70
0
  0
VERTEX
  8
a
  10
7.00839
  20
13.2003
  30
0.0
  70
0
  0
VERTEX
  8
a
  10
7.12642
  20
13.35768
  30
0.0
  70
0
  0
VERTEX
  8
a
  10
7.18655
  20
13.43493
  30
0.0
  70
0
  0
VERTEX
  8
a
  10
6.57866
  20
14.29411
  30
0.0
  70
0
  0
VERTEX
  8
a
  10
6.4858
  20
14.26312
  30
0.0
  70
0
  0
VERTEX
  8
a
  10
6.29811
  20
14.2042
  30
0.0
  70
0
  0
VERTEX
  8
a
  10
5.91541
  20
14.09782
  30
0.0
  70
0
  0
VERTEX
  8
a
  10
5.52383
  20
14.00575
  30
0.0
  70
0
  0
VERTEX
  8
a
  10
5.1242
  20
13.92711
  30
0.0
  70
0
  0
VERTEX
  8
a
  10
5.02311
  20
13.90948
  30
0.0
  70
0
  0
VERTEX
  8
a
  10
4.4898
  20
14.75375
  30
0.0
  70
0
  0
VERTEX
  8
a
  10
4.54915
  20
14.83746
  30
0.0
  70
0
  0
VERTEX
  8
a
  10
4.79183
  20
15.16456
  30
0.0
  70
0
  0
VERTEX
  8
a
  10
5.04318
  20
15.47861
  30
0.0
  70
0
  0
VERTEX
  8
a
  10
5.30364
  20
15.77851
  30
0.0
  70
0
  0
VERTEX
  8
a
  10
5.43748
  20
15.92269
  30
0.0
  70
0
  0
VERTEX
  8
a
  10
5.50535
  20
15.99324
  30
0.0
  70
0
  0
VERTEX
  8
a
  10
4.9906
  20
16.91125
  30
0.0
  70
0
  0
VERTEX
  8
a
  10
4.89501
  20
16.89014
  30
0.0
  70
0
  0
VERTEX
  8
a
  10
4.70219
  20
16.85116
  30
0.0
  70
0
  0
VERTEX
  8
a
  10
4.31046
  20
16.78537
  30
0.0
  70
0
  0
VERTEX
  8
a
  10
3.91141
  20
16.73473
  30
0.0
  70
0
  0
VERTEX
  8
a
  10
3.50575
  20
16.6983
  30
0.0
  70
0
  0
VERTEX
  8
a
  10
3.40337
  20
16.69133
  30
0.0
  70
0
  0
VERTEX
  8
a
  10
2.96123
  20
17.58672
  30
0.0
  70
0
  0
VERTEX
  8
a
  10
3.029
  20
17.66377
  30
0.0
  70
0
  0
VERTEX
  8
a
  10
3.30454
  20
17.96371
  30
0.0
  70
0
  0
VERTEX
  8
a
  10
3.58735
  20
18.24977
  30
0.0
  70
0
  0
VERTEX
  8
a
  10
3.87773
  20
18.5208
  30
0.0
  70
0
  0
VERTEX
  8
a
  10
4.0259
  20
18.6502
  30
0.0
  70
0
  0
VERTEX
  8
a
  10
4.10078
  20
18.71327
  30
0.0
  70
0
  0
VERTEX
  8
a
  10
3.68481
  20
19.68006
  30
0.0
  70
0
  0
VERTEX
  8
a
  10
3.58754
  20
19.66905
  30
0.0
  70
0
  0
VERTEX
  8
a
  10
3.39169
  20
19.65044
  30
0.0
  70
0
  0
VERTEX
  8
a
  10
2.99524
  20
19.62596
  30
0.0
  70
0
  0
VERTEX
  8
a
  10
2.59308
  20
19.61731
  30
0.0
  70
0
  0
VERTEX
  8
a
  10
2.18583
  20
19.62348
  30
0.0
  70
0
  0
VERTEX
  8
a
  10
2.08328
  20
19.62725
  30
0.0
  70
0
  0
VERTEX
  8
a
  10
1.73716
  20
20.56395
  30
0.0
  70
0
  0
VERTEX
  8
a
  10
1.81262
  20
20.63349
  30
0.0
  70
0
  0
VERTEX
  8
a
  10
2.118
  20
20.90299
  30
0.0
  70
0
  0
VERTEX
  8
a
  10
2.42916
  20
21.15792
  30
0.0
  70
0
  0
VERTEX
  8
a
  10
2.74627
  20
21.39711
  30
0.0
  70
0
  0
VERTEX
  8
a
  10
2.90716
  20
21.51032
  30
0.0
  70
0
  0
VERTEX
  8
a
  10
2.98822
  20
21.56521
  30
0.0
  70
0
  0
VERTEX
  8
a
  10
2.67559
  20
22.57018
  30
0.0
  70
0
  0
VERTEX
  8
a
  10
2.5777
  20
22.56941
  30
0.0
  70
0
  0
VERTEX
  8
a
  10
2.38098
  20
22.57137
  30
0.0
  70
0
  0
VERTEX
  8
a
  10
1.98414
  20
22.58846
  30
0.0
  70
0
  0
VERTEX
  8
a
  10
1.58328
  20
22.6219
  30
0.0
  70
0
  0
VERTEX
  8
a
  10
1.17891
  20
22.6706
  30
0.0
  70
0
  0
VERTEX
  8
a
  10
1.07732
  20
22.68507
  30
0.0
  70
0
  0
VERTEX
  8
a
  10
0.831
  20
23.65282
  30
0.0
  70
0
  0
VERTEX
  8
a
  10
0.91331
  20
23.7141
  30
0.0
  70
0
  0
VERTEX
  8
a
  10
1.24519
  20
23.9502
  30
0.0
  70
0
  0
VERTEX
  8
a
  10
1.58129
  20
24.1712
  30
0.0
  70
0
  0
VERTEX
  8
a
  10
1.92167
  20
24.37594
  30
0.0
  70
0
  0
VERTEX
  8
a
  10
2.09352
  20
24.47171
  30
0.0
  70
0
  0
VERTEX
  8
a
  10
2.17987
  20
24.51783
  30
0.0
  70
0
  0
VERTEX
  8
a
  10
1.974
  20
25.54997
  30
0.0
  70
0
  0
VERTEX
  8
a
  10
1.87656
  20
25.55943
  30
0.0
  70
0
  0
VERTEX
  8
a
  10
1.68113
  20
25.58195
  30
0.0
  70
0
  0
VERTEX
  8
a
  10
1.28825
  20
25.64043
  30
0.0
  70
0
  0
VERTEX
  8
a
  10
0.89307
  20
25.71558
  30
0.0
  70
0
  0
VERTEX
  8
a
  10
0.49601
  20
25.80629
  30
0.0
  70
0
  0
VERTEX
  8
a
  10
0.39649
  20
25.8313
  30
0.0
  70
0
  0
VERTEX
  8
a
  10
0.25268
  20
26.81949
  30
0.0
  70
0
  0
VERTEX
  8
a
  10
0.34094
  20
26.87183
  30
0.0
  70
0
  0
VERTEX
  8
a
  10
0.69569
  20
27.07194
  30
0.0
  70
0
  0
VERTEX
  8
a
  10
1.05305
  20
27.25661
  30
0.0
  70
0
  0
VERTEX
  8
a
  10
1.41296
  20
27.42464
  30
0.0
  70
0
  0
VERTEX
  8
a
  10
1.59388
  20
27.50192
  30
0.0
  70
0
  0
VERTEX
  8
a
  10
1.68457
  20
27.53876
  30
0.0
  70
0
  0
SEQEND
  0
CIRCLE
  8
a
  10
30.75367
  20
30.75367
  30
0.0
  40
0.5
 0
LINE
 8
c
 10
1.53049
 20
29.59016
 30
0
 11
0.02435
 21
29.53019
 31
 0
 0
LINE
 8
c
 10
1.56896
 20
32.65119
 30
0
 11
0.0648
 21
32.74899
 31
 0
 0
LINE
 8
c
 10
1.92718
 20
35.69143
 30
0
 11
0.44148
 21
35.94592
 31
 0
 0
LINE
 8
c
 10
2.60123
 20
38.67757
 30
0
 11
1.15027
 21
39.08596
 31
 0
 0
LINE
 8
c
 10
3.58372
 20
41.57689
 30
0
 11
2.1834
 21
42.13471
 31
 0
 0
LINE
 8
c
 10
4.8639
 20
44.35763
 30
0
 11
3.52956
 21
45.05877
 31
 0
 0
LINE
 8
c
 10
6.42773
 20
46.98932
 30
0
 11
5.17398
 21
47.8261
 31
 0
 0
LINE
 8
c
 10
8.25808
 20
49.44314
 30
0
 11
7.09867
 21
50.40638
 31
 0
 0
LINE
 8
c
 10
10.33489
 20
51.69218
 30
0
 11
9.28252
 21
52.77134
 31
 0
 0
LINE
 8
c
 10
12.63542
 20
53.71182
 30
0
 11
11.70162
 21
54.89507
 31
 0
 0
LINE
 8
c
 10
15.13445
 20
55.47993
 30
0
 11
14.32945
 21
56.7543
 31
 0
 0
LINE
 8
c
 10
17.80461
 20
56.97713
 30
0
 11
17.13723
 21
58.32867
 31
 0
 0
LINE
 8
c
 10
20.61665
 20
58.18702
 30
0
 11
20.09419
 21
59.60092
 31
 0
 0
LINE
 8
c
 10
23.53975
 20
59.09634
 30
0
 11
23.16795
 21
60.55711
 31
 0
 0
LINE
 8
c
 10
26.54188
 20
59.69514
 30
0
 11
26.32481
 21
61.18676
 31
 0
 0
LINE
 8
c
 10
29.59016
 20
59.97685
 30
0
 11
29.53019
 21
61.48299
 31
 0
 0
LINE
 8
c
 10
32.65119
 20
59.93838
 30
0
 11
32.74899
 21
61.44254
 31
 0
 0
LINE
 8
c
 10
35.69143
 20
59.58016
 30
0
 11
35.94592
 21
61.06585
 31
 0
 0
LINE
 8
c
 10
38.67757
 20
58.90611
 30
0
 11
39.08596
 21
60.35706
 31
 0
 0
LINE
 8
c
 10
41.57689
 20
57.92361
 30
0
 11
42.13471
 21
59.32393
 31
 0
 0
LINE
 8
c
 10
44.35763
 20
56.64344
 30
0
 11
45.05877
 21
57.97778
 31
 0
 0
LINE
 8
c
 10
46.98932
 20
55.07961
 30
0
 11
47.8261
 21
56.33335
 31
 0
 0
LINE
 8
c
 10
49.44314
 20
53.24926
 30
0
 11
50.40638
 21
54.40867
 31
 0
 0
LINE
 8
c
 10
51.69218
 20
51.17245
 30
0
 11
52.77134
 21
52.22482
 31
 0
 0
LINE
 8
c
 10
53.71182
 20
48.87192
 30
0
 11
54.89507
 21
49.80572
 31
 0
 0
LINE
 8
c
 10
55.47993
 20
46.37288
 30
0
 11
56.7543
 21
47.17789
 31
 0
 0
LINE
 8
c
 10
56.97713
 20
43.70272
 30
0
 11
58.32867
 21
44.37011
 31
 0
 0
LINE
 8
c
 10
58.18702
 20
40.89069
 30
0
 11
59.60092
 21
41.41314
 31
 0
 0
LINE
 8
c
 10
59.09634
 20
37.96759
 30
0
 11
60.55711
 21
38.33939
 31
 0
 0
LINE
 8
c
 10
59.69514
 20
34.96546
 30
0
 11
61.18676
 21
35.18253
 31
 0
 0
LINE
 8
c
 10
59.97685
 20
31.91718
 30
0
 11
61.48299
 21
31.97714
 31
 0
 0
LINE
 8
c
 10
59.93838
 20
28.85615
 30
0
 11
61.44254
 21
28.75835
 31
 0
 0
LINE
 8
c
 10
59.58016
 20
25.81591
 30
0
 11
61.06585
 21
25.56142
 31
 0
 0
LINE
 8
c
 10
58.90611
 20
22.82977
 30
0
 11
60.35706
 21
22.42138
 31
 0
 0
LINE
 8
c
 10
57.92361
 20
19.93045
 30
0
 11
59.32393
 21
19.37263
 31
 0
 0
LINE
 8
c
 10
56.64344
 20
17.14971
 30
0
 11
57.97778
 21
16.44857
 31
 0
 0
LINE
 8
c
 10
55.07961
 20
14.51801
 30
0
 11
56.33335
 21
13.68124
 31
 0
 0
LINE
 8
c
 10
53.24926
 20
12.0642
 30
0
 11
54.40867
 21
11.10096
 31
 0
 0
LINE
 8
c
 10
51.17245
 20
9.81515
 30
0
 11
52.22482
 21
8.736
 31
 0
 0
LINE
 8
c
 10
48.87192
 20
7.79551
 30
0
 11
49.80572
 21
6.61226
 31
 0
 0
LINE
 8
c
 10
46.37288
 20
6.02741
 30
0
 11
47.17789
 21
4.75303
 31
 0
 0
LINE
 8
c
 10
43.70272
 20
4.53021
 30
0
 11
44.37011
 21
3.17867
 31
 0
 0
LINE
 8
c
 10
40.89069
 20
3.32032
 30
0
 11
41.41314
 21
1.90642
 31
 0
 0
LINE
 8
c
 10
37.96759
 20
2.41099
 30
0
 11
38.33939
 21
0.95023
 31
 0
 0
LINE
 8
c
 10
34.96546
 20
1.8122
 30
0
 11
35.18253
 21
0.32057
 31
 0
 0
LINE
 8
c
 10
31.91718
 20
1.53049
 30
0
 11
31.97714
 21
0.02435
 31
 0
 0
LINE
 8
c
 10
28.85615
 20
1.56896
 30
0
 11
28.75835
 21
0.0648
 31
 0
 0
LINE
 8
c
 10
25.81591
 20
1.92718
 30
0
 11
25.56142
 21
0.44148
 31
 0
 0
LINE
 8
c
 10
22.82977
 20
2.60123
 30
0
 11
22.42138
 21
1.15027
 31
 0
 0
LINE
 8
c
 10
19.93045
 20
3.58372
 30
0
 11
19.37263
 21
2.1834
 31
 0
 0
LINE
 8
c
 10
17.14971
 20
4.8639
 30
0
 11
16.44857
 21
3.52956
 31
 0
 0
LINE
 8
c
 10
14.51801
 20
6.42773
 30
0
 11
13.68124
 21
5.17398
 31
 0
 0
LINE
 8
c
 10
12.0642
 20
8.25808
 30
0
 11
11.10096
 21
7.09867
 31
 0
 0
LINE
 8
c
 10
9.81515
 20
10.33489
 30
0
 11
8.736
 21
9.28252
 31
 0
 0
LINE
 8
c
 10
7.79551
 20
12.63542
 30
0
 11
6.61226
 21
11.70162
 31
 0
 0
LINE
 8
c
 10
6.02741
 20
15.13445
 30
0
 11
4.75303
 21
14.32945
 31
 0
 0
LINE
 8
c
 10
4.53021
 20
17.80461
 30
0
 11
3.17867
 21
17.13723
 31
 0
 0
LINE
 8
c
 10
3.32032
 20
20.61665
 30
0
 11
1.90642
 21
20.09419
 31
 0
 0
LINE
 8
c
 10
2.41099
 20
23.53975
 30
0
 11
0.95023
 21
23.16795
 31
 0
 0
LINE
 8
c
 10
1.8122
 20
26.54188
 30
0
 11
0.32057
 21
26.32481
 31
 0
  0
CIRCLE
  8
c
  10
30.75367
  20
30.75367
  30
0.0
  40
30
 0
LINE
 8
a
 10
20.50245
 20
30.75367
 30
0
 11
41.00489
 21
30.75367
 31
 0
 0
LINE
 8
a
 10
30.75367
 20
20.50245
 30
0
 11
30.75367
 21
41.00489
 31
 0
  0
TEXT
  8
labels
  10
0.0
  20
0.0
  30
0.0
  40
0.1
  1
G2:Toothspacing=3.14  Teeth=60  Spur gear  Angle=20.0  Addendum=.2
  41
1.0
  7
ARIAL
  0
ENDSEC
  0
EOF
