  999
DXF file created by gear template generator. 2019-01-23T10:42:57
  999
G1:Toothspacing=3.14  Teeth=20  Spur gear  Angle=20.0  Addendum=.2
  0
SECTION
  2
HEADER
  9
$MEASUREMENT
  70
1
  0
ENDSEC
  0
SECTION
  2
TABLES
  0
TABLE
  2
LTYPE
  70
1
  0
LTYPE
  2
Continuous
  3
_
  70
0
  72
65
  73
0
  40
0.0
  0
ENDTAB
  0
TABLE
  2
LAYER
  70
4
  0
LAYER
  2
profile
  70
0
  62
7
  6
Continuous
  0
LAYER
  2
construction
  70
0
  62
5
  6
Continuous
  0
LAYER
  2
grid
  70
0
  62
3
  6
Continuous
  0
LAYER
  2
labels
  70
0
  62
1
  6
Continuous
  0
ENDTAB
  0
TABLE
  2
STYLE
  70
1
  0
STYLE
  2
ARIAL
  3
Arial.ttf
  70
0
  40
0.0
  41
1.0
  50
0.0
  71
0
  42
1.0
  0
ENDTAB
  0
ENDSEC
  0
SECTION
  2
ENTITIES
 0
LINE
 8
b
 10
0.75367
 20
0
 30
0
 11
0.75367
 21
125.66371
 31
 0
 0
LINE
 8
b
 10
1.75367
 20
0
 30
0
 11
1.75367
 21
125.66371
 31
 0
 0
LINE
 8
b
 10
2.75367
 20
0
 30
0
 11
2.75367
 21
125.66371
 31
 0
 0
LINE
 8
b
 10
3.75367
 20
0
 30
0
 11
3.75367
 21
125.66371
 31
 0
 0
LINE
 8
b
 10
4.75367
 20
0
 30
0
 11
4.75367
 21
125.66371
 31
 0
 0
LINE
 8
b
 10
5.75367
 20
0
 30
0
 11
5.75367
 21
125.66371
 31
 0
 0
LINE
 8
b
 10
6.75367
 20
0
 30
0
 11
6.75367
 21
125.66371
 31
 0
 0
LINE
 8
b
 10
7.75367
 20
0
 30
0
 11
7.75367
 21
125.66371
 31
 0
 0
LINE
 8
b
 10
8.75367
 20
0
 30
0
 11
8.75367
 21
125.66371
 31
 0
 0
LINE
 8
b
 10
9.75367
 20
0
 30
0
 11
9.75367
 21
125.66371
 31
 0
 0
LINE
 8
b
 10
10.75367
 20
0
 30
0
 11
10.75367
 21
125.66371
 31
 0
 0
LINE
 8
b
 10
11.75367
 20
0
 30
0
 11
11.75367
 21
125.66371
 31
 0
 0
LINE
 8
b
 10
12.75367
 20
0
 30
0
 11
12.75367
 21
125.66371
 31
 0
 0
LINE
 8
b
 10
13.75367
 20
0
 30
0
 11
13.75367
 21
125.66371
 31
 0
 0
LINE
 8
b
 10
14.75367
 20
0
 30
0
 11
14.75367
 21
125.66371
 31
 0
 0
LINE
 8
b
 10
15.75367
 20
0
 30
0
 11
15.75367
 21
125.66371
 31
 0
 0
LINE
 8
b
 10
16.75367
 20
0
 30
0
 11
16.75367
 21
125.66371
 31
 0
 0
LINE
 8
b
 10
17.75367
 20
0
 30
0
 11
17.75367
 21
125.66371
 31
 0
 0
LINE
 8
b
 10
18.75367
 20
0
 30
0
 11
18.75367
 21
125.66371
 31
 0
 0
LINE
 8
b
 10
19.75367
 20
0
 30
0
 11
19.75367
 21
125.66371
 31
 0
 0
LINE
 8
b
 10
20.75367
 20
0
 30
0
 11
20.75367
 21
125.66371
 31
 0
 0
LINE
 8
b
 10
0
 20
0.83185
 30
0
 11
21.53907
 21
0.83185
 31
 0
 0
LINE
 8
b
 10
0
 20
1.83185
 30
0
 11
21.53907
 21
1.83185
 31
 0
 0
LINE
 8
b
 10
0
 20
2.83185
 30
0
 11
21.53907
 21
2.83185
 31
 0
 0
LINE
 8
b
 10
0
 20
3.83185
 30
0
 11
21.53907
 21
3.83185
 31
 0
 0
LINE
 8
b
 10
0
 20
4.83185
 30
0
 11
21.53907
 21
4.83185
 31
 0
 0
LINE
 8
b
 10
0
 20
5.83185
 30
0
 11
21.53907
 21
5.83185
 31
 0
 0
LINE
 8
b
 10
0
 20
6.83185
 30
0
 11
21.53907
 21
6.83185
 31
 0
 0
LINE
 8
b
 10
0
 20
7.83185
 30
0
 11
21.53907
 21
7.83185
 31
 0
 0
LINE
 8
b
 10
0
 20
8.83185
 30
0
 11
21.53907
 21
8.83185
 31
 0
 0
LINE
 8
b
 10
0
 20
9.83185
 30
0
 11
21.53907
 21
9.83185
 31
 0
 0
LINE
 8
b
 10
0
 20
10.83185
 30
0
 11
21.53907
 21
10.83185
 31
 0
 0
LINE
 8
b
 10
0
 20
11.83185
 30
0
 11
21.53907
 21
11.83185
 31
 0
 0
LINE
 8
b
 10
0
 20
12.83185
 30
0
 11
21.53907
 21
12.83185
 31
 0
 0
LINE
 8
b
 10
0
 20
13.83185
 30
0
 11
21.53907
 21
13.83185
 31
 0
 0
LINE
 8
b
 10
0
 20
14.83185
 30
0
 11
21.53907
 21
14.83185
 31
 0
 0
LINE
 8
b
 10
0
 20
15.83185
 30
0
 11
21.53907
 21
15.83185
 31
 0
 0
LINE
 8
b
 10
0
 20
16.83185
 30
0
 11
21.53907
 21
16.83185
 31
 0
 0
LINE
 8
b
 10
0
 20
17.83185
 30
0
 11
21.53907
 21
17.83185
 31
 0
 0
LINE
 8
b
 10
0
 20
18.83185
 30
0
 11
21.53907
 21
18.83185
 31
 0
 0
LINE
 8
b
 10
0
 20
19.83185
 30
0
 11
21.53907
 21
19.83185
 31
 0
 0
LINE
 8
b
 10
0
 20
20.83185
 30
0
 11
21.53907
 21
20.83185
 31
 0
 0
LINE
 8
b
 10
0
 20
21.83185
 30
0
 11
21.53907
 21
21.83185
 31
 0
 0
LINE
 8
b
 10
0
 20
22.83185
 30
0
 11
21.53907
 21
22.83185
 31
 0
 0
LINE
 8
b
 10
0
 20
23.83185
 30
0
 11
21.53907
 21
23.83185
 31
 0
 0
LINE
 8
b
 10
0
 20
24.83185
 30
0
 11
21.53907
 21
24.83185
 31
 0
 0
LINE
 8
b
 10
0
 20
25.83185
 30
0
 11
21.53907
 21
25.83185
 31
 0
 0
LINE
 8
b
 10
0
 20
26.83185
 30
0
 11
21.53907
 21
26.83185
 31
 0
 0
LINE
 8
b
 10
0
 20
27.83185
 30
0
 11
21.53907
 21
27.83185
 31
 0
 0
LINE
 8
b
 10
0
 20
28.83185
 30
0
 11
21.53907
 21
28.83185
 31
 0
 0
LINE
 8
b
 10
0
 20
29.83185
 30
0
 11
21.53907
 21
29.83185
 31
 0
 0
LINE
 8
b
 10
0
 20
30.83185
 30
0
 11
21.53907
 21
30.83185
 31
 0
 0
LINE
 8
b
 10
0
 20
31.83185
 30
0
 11
21.53907
 21
31.83185
 31
 0
 0
LINE
 8
b
 10
0
 20
32.83185
 30
0
 11
21.53907
 21
32.83185
 31
 0
 0
LINE
 8
b
 10
0
 20
33.83185
 30
0
 11
21.53907
 21
33.83185
 31
 0
 0
LINE
 8
b
 10
0
 20
34.83185
 30
0
 11
21.53907
 21
34.83185
 31
 0
 0
LINE
 8
b
 10
0
 20
35.83185
 30
0
 11
21.53907
 21
35.83185
 31
 0
 0
LINE
 8
b
 10
0
 20
36.83185
 30
0
 11
21.53907
 21
36.83185
 31
 0
 0
LINE
 8
b
 10
0
 20
37.83185
 30
0
 11
21.53907
 21
37.83185
 31
 0
 0
LINE
 8
b
 10
0
 20
38.83185
 30
0
 11
21.53907
 21
38.83185
 31
 0
 0
LINE
 8
b
 10
0
 20
39.83185
 30
0
 11
21.53907
 21
39.83185
 31
 0
 0
LINE
 8
b
 10
0
 20
40.83185
 30
0
 11
21.53907
 21
40.83185
 31
 0
 0
LINE
 8
b
 10
0
 20
41.83185
 30
0
 11
21.53907
 21
41.83185
 31
 0
 0
LINE
 8
b
 10
0
 20
42.83185
 30
0
 11
21.53907
 21
42.83185
 31
 0
 0
LINE
 8
b
 10
0
 20
43.83185
 30
0
 11
21.53907
 21
43.83185
 31
 0
 0
LINE
 8
b
 10
0
 20
44.83185
 30
0
 11
21.53907
 21
44.83185
 31
 0
 0
LINE
 8
b
 10
0
 20
45.83185
 30
0
 11
21.53907
 21
45.83185
 31
 0
 0
LINE
 8
b
 10
0
 20
46.83185
 30
0
 11
21.53907
 21
46.83185
 31
 0
 0
LINE
 8
b
 10
0
 20
47.83185
 30
0
 11
21.53907
 21
47.83185
 31
 0
 0
LINE
 8
b
 10
0
 20
48.83185
 30
0
 11
21.53907
 21
48.83185
 31
 0
 0
LINE
 8
b
 10
0
 20
49.83185
 30
0
 11
21.53907
 21
49.83185
 31
 0
 0
LINE
 8
b
 10
0
 20
50.83185
 30
0
 11
21.53907
 21
50.83185
 31
 0
 0
LINE
 8
b
 10
0
 20
51.83185
 30
0
 11
21.53907
 21
51.83185
 31
 0
 0
LINE
 8
b
 10
0
 20
52.83185
 30
0
 11
21.53907
 21
52.83185
 31
 0
 0
LINE
 8
b
 10
0
 20
53.83185
 30
0
 11
21.53907
 21
53.83185
 31
 0
 0
LINE
 8
b
 10
0
 20
54.83185
 30
0
 11
21.53907
 21
54.83185
 31
 0
 0
LINE
 8
b
 10
0
 20
55.83185
 30
0
 11
21.53907
 21
55.83185
 31
 0
 0
LINE
 8
b
 10
0
 20
56.83185
 30
0
 11
21.53907
 21
56.83185
 31
 0
 0
LINE
 8
b
 10
0
 20
57.83185
 30
0
 11
21.53907
 21
57.83185
 31
 0
 0
LINE
 8
b
 10
0
 20
58.83185
 30
0
 11
21.53907
 21
58.83185
 31
 0
 0
LINE
 8
b
 10
0
 20
59.83185
 30
0
 11
21.53907
 21
59.83185
 31
 0
 0
LINE
 8
b
 10
0
 20
60.83185
 30
0
 11
21.53907
 21
60.83185
 31
 0
 0
LINE
 8
b
 10
0
 20
61.83185
 30
0
 11
21.53907
 21
61.83185
 31
 0
 0
LINE
 8
b
 10
0
 20
62.83185
 30
0
 11
21.53907
 21
62.83185
 31
 0
 0
LINE
 8
b
 10
0
 20
63.83185
 30
0
 11
21.53907
 21
63.83185
 31
 0
 0
LINE
 8
b
 10
0
 20
64.83185
 30
0
 11
21.53907
 21
64.83185
 31
 0
 0
LINE
 8
b
 10
0
 20
65.83185
 30
0
 11
21.53907
 21
65.83185
 31
 0
 0
LINE
 8
b
 10
0
 20
66.83185
 30
0
 11
21.53907
 21
66.83185
 31
 0
 0
LINE
 8
b
 10
0
 20
67.83185
 30
0
 11
21.53907
 21
67.83185
 31
 0
 0
LINE
 8
b
 10
0
 20
68.83185
 30
0
 11
21.53907
 21
68.83185
 31
 0
 0
LINE
 8
b
 10
0
 20
69.83185
 30
0
 11
21.53907
 21
69.83185
 31
 0
 0
LINE
 8
b
 10
0
 20
70.83185
 30
0
 11
21.53907
 21
70.83185
 31
 0
 0
LINE
 8
b
 10
0
 20
71.83185
 30
0
 11
21.53907
 21
71.83185
 31
 0
 0
LINE
 8
b
 10
0
 20
72.83185
 30
0
 11
21.53907
 21
72.83185
 31
 0
 0
LINE
 8
b
 10
0
 20
73.83185
 30
0
 11
21.53907
 21
73.83185
 31
 0
 0
LINE
 8
b
 10
0
 20
74.83185
 30
0
 11
21.53907
 21
74.83185
 31
 0
 0
LINE
 8
b
 10
0
 20
75.83185
 30
0
 11
21.53907
 21
75.83185
 31
 0
 0
LINE
 8
b
 10
0
 20
76.83185
 30
0
 11
21.53907
 21
76.83185
 31
 0
 0
LINE
 8
b
 10
0
 20
77.83185
 30
0
 11
21.53907
 21
77.83185
 31
 0
 0
LINE
 8
b
 10
0
 20
78.83185
 30
0
 11
21.53907
 21
78.83185
 31
 0
 0
LINE
 8
b
 10
0
 20
79.83185
 30
0
 11
21.53907
 21
79.83185
 31
 0
 0
LINE
 8
b
 10
0
 20
80.83185
 30
0
 11
21.53907
 21
80.83185
 31
 0
 0
LINE
 8
b
 10
0
 20
81.83185
 30
0
 11
21.53907
 21
81.83185
 31
 0
 0
LINE
 8
b
 10
0
 20
82.83185
 30
0
 11
21.53907
 21
82.83185
 31
 0
 0
LINE
 8
b
 10
0
 20
83.83185
 30
0
 11
21.53907
 21
83.83185
 31
 0
 0
LINE
 8
b
 10
0
 20
84.83185
 30
0
 11
21.53907
 21
84.83185
 31
 0
 0
LINE
 8
b
 10
0
 20
85.83185
 30
0
 11
21.53907
 21
85.83185
 31
 0
 0
LINE
 8
b
 10
0
 20
86.83185
 30
0
 11
21.53907
 21
86.83185
 31
 0
 0
LINE
 8
b
 10
0
 20
87.83185
 30
0
 11
21.53907
 21
87.83185
 31
 0
 0
LINE
 8
b
 10
0
 20
88.83185
 30
0
 11
21.53907
 21
88.83185
 31
 0
 0
LINE
 8
b
 10
0
 20
89.83185
 30
0
 11
21.53907
 21
89.83185
 31
 0
 0
LINE
 8
b
 10
0
 20
90.83185
 30
0
 11
21.53907
 21
90.83185
 31
 0
 0
LINE
 8
b
 10
0
 20
91.83185
 30
0
 11
21.53907
 21
91.83185
 31
 0
 0
LINE
 8
b
 10
0
 20
92.83185
 30
0
 11
21.53907
 21
92.83185
 31
 0
 0
LINE
 8
b
 10
0
 20
93.83185
 30
0
 11
21.53907
 21
93.83185
 31
 0
 0
LINE
 8
b
 10
0
 20
94.83185
 30
0
 11
21.53907
 21
94.83185
 31
 0
 0
LINE
 8
b
 10
0
 20
95.83185
 30
0
 11
21.53907
 21
95.83185
 31
 0
 0
LINE
 8
b
 10
0
 20
96.83185
 30
0
 11
21.53907
 21
96.83185
 31
 0
 0
LINE
 8
b
 10
0
 20
97.83185
 30
0
 11
21.53907
 21
97.83185
 31
 0
 0
LINE
 8
b
 10
0
 20
98.83185
 30
0
 11
21.53907
 21
98.83185
 31
 0
 0
LINE
 8
b
 10
0
 20
99.83185
 30
0
 11
21.53907
 21
99.83185
 31
 0
 0
LINE
 8
b
 10
0
 20
100.83185
 30
0
 11
21.53907
 21
100.83185
 31
 0
 0
LINE
 8
b
 10
0
 20
101.83185
 30
0
 11
21.53907
 21
101.83185
 31
 0
 0
LINE
 8
b
 10
0
 20
102.83185
 30
0
 11
21.53907
 21
102.83185
 31
 0
 0
LINE
 8
b
 10
0
 20
103.83185
 30
0
 11
21.53907
 21
103.83185
 31
 0
 0
LINE
 8
b
 10
0
 20
104.83185
 30
0
 11
21.53907
 21
104.83185
 31
 0
 0
LINE
 8
b
 10
0
 20
105.83185
 30
0
 11
21.53907
 21
105.83185
 31
 0
 0
LINE
 8
b
 10
0
 20
106.83185
 30
0
 11
21.53907
 21
106.83185
 31
 0
 0
LINE
 8
b
 10
0
 20
107.83185
 30
0
 11
21.53907
 21
107.83185
 31
 0
 0
LINE
 8
b
 10
0
 20
108.83185
 30
0
 11
21.53907
 21
108.83185
 31
 0
 0
LINE
 8
b
 10
0
 20
109.83185
 30
0
 11
21.53907
 21
109.83185
 31
 0
 0
LINE
 8
b
 10
0
 20
110.83185
 30
0
 11
21.53907
 21
110.83185
 31
 0
 0
LINE
 8
b
 10
0
 20
111.83185
 30
0
 11
21.53907
 21
111.83185
 31
 0
 0
LINE
 8
b
 10
0
 20
112.83185
 30
0
 11
21.53907
 21
112.83185
 31
 0
 0
LINE
 8
b
 10
0
 20
113.83185
 30
0
 11
21.53907
 21
113.83185
 31
 0
 0
LINE
 8
b
 10
0
 20
114.83185
 30
0
 11
21.53907
 21
114.83185
 31
 0
 0
LINE
 8
b
 10
0
 20
115.83185
 30
0
 11
21.53907
 21
115.83185
 31
 0
 0
LINE
 8
b
 10
0
 20
116.83185
 30
0
 11
21.53907
 21
116.83185
 31
 0
 0
LINE
 8
b
 10
0
 20
117.83185
 30
0
 11
21.53907
 21
117.83185
 31
 0
 0
LINE
 8
b
 10
0
 20
118.83185
 30
0
 11
21.53907
 21
118.83185
 31
 0
 0
LINE
 8
b
 10
0
 20
119.83185
 30
0
 11
21.53907
 21
119.83185
 31
 0
 0
LINE
 8
b
 10
0
 20
120.83185
 30
0
 11
21.53907
 21
120.83185
 31
 0
 0
LINE
 8
b
 10
0
 20
121.83185
 30
0
 11
21.53907
 21
121.83185
 31
 0
 0
LINE
 8
b
 10
0
 20
122.83185
 30
0
 11
21.53907
 21
122.83185
 31
 0
 0
LINE
 8
b
 10
0
 20
123.83185
 30
0
 11
21.53907
 21
123.83185
 31
 0
 0
LINE
 8
b
 10
0
 20
124.83185
 30
0
 11
21.53907
 21
124.83185
 31
 0
  0
POLYLINE
  8
a
  66
1
  10
0.0
  20
0.0
  70
1
  0
VERTEX
  8
a
  10
19.91545
  20
63.81709
  30
0.0
  70
0
  0
VERTEX
  8
a
  10
19.96034
  20
63.75742
  30
0.0
  70
0
  0
VERTEX
  8
a
  10
20.00094
  20
63.73793
  30
0.0
  70
0
  0
VERTEX
  8
a
  10
20.04077
  20
63.72588
  30
0.0
  70
0
  0
VERTEX
  8
a
  10
20.11964
  20
63.70929
  30
0.0
  70
0
  0
VERTEX
  8
a
  10
20.19697
  20
63.70888
  30
0.0
  70
0
  0
VERTEX
  8
a
  10
20.27475
  20
63.70344
  30
0.0
  70
0
  0
VERTEX
  8
a
  10
20.43116
  20
63.68242
  30
0.0
  70
0
  0
VERTEX
  8
a
  10
20.58834
  20
63.6507
  30
0.0
  70
0
  0
VERTEX
  8
a
  10
20.74603
  20
63.60993
  30
0.0
  70
0
  0
VERTEX
  8
a
  10
20.90403
  20
63.561
  30
0.0
  70
0
  0
VERTEX
  8
a
  10
21.06217
  20
63.50451
  30
0.0
  70
0
  0
VERTEX
  8
a
  10
21.2203
  20
63.44089
  30
0.0
  70
0
  0
VERTEX
  8
a
  10
21.37826
  20
63.37043
  30
0.0
  70
0
  0
VERTEX
  8
a
  10
21.49656
  20
63.31326
  30
0.0
  70
0
  0
VERTEX
  8
a
  10
21.49656
  20
62.35045
  30
0.0
  70
0
  0
VERTEX
  8
a
  10
21.37826
  20
62.29327
  30
0.0
  70
0
  0
VERTEX
  8
a
  10
21.2203
  20
62.22282
  30
0.0
  70
0
  0
VERTEX
  8
a
  10
21.06217
  20
62.15919
  30
0.0
  70
0
  0
VERTEX
  8
a
  10
20.90403
  20
62.10271
  30
0.0
  70
0
  0
VERTEX
  8
a
  10
20.74603
  20
62.05378
  30
0.0
  70
0
  0
VERTEX
  8
a
  10
20.58834
  20
62.013
  30
0.0
  70
0
  0
VERTEX
  8
a
  10
20.43116
  20
61.98129
  30
0.0
  70
0
  0
VERTEX
  8
a
  10
20.27475
  20
61.96027
  30
0.0
  70
0
  0
VERTEX
  8
a
  10
20.19697
  20
61.95482
  30
0.0
  70
0
  0
VERTEX
  8
a
  10
20.11964
  20
61.95441
  30
0.0
  70
0
  0
VERTEX
  8
a
  10
20.04077
  20
61.93782
  30
0.0
  70
0
  0
VERTEX
  8
a
  10
20.00094
  20
61.92578
  30
0.0
  70
0
  0
VERTEX
  8
a
  10
19.96034
  20
61.90629
  30
0.0
  70
0
  0
VERTEX
  8
a
  10
19.91545
  20
61.84662
  30
0.0
  70
0
  0
VERTEX
  8
a
  10
19.77149
  20
60.93772
  30
0.0
  70
0
  0
VERTEX
  8
a
  10
19.79575
  20
60.8671
  30
0.0
  70
0
  0
VERTEX
  8
a
  10
19.82834
  20
60.83602
  30
0.0
  70
0
  0
VERTEX
  8
a
  10
19.86249
  20
60.81225
  30
0.0
  70
0
  0
VERTEX
  8
a
  10
19.93238
  20
60.7721
  30
0.0
  70
0
  0
VERTEX
  8
a
  10
20.0058
  20
60.74782
  30
0.0
  70
0
  0
VERTEX
  8
a
  10
20.07809
  20
60.7186
  30
0.0
  70
0
  0
VERTEX
  8
a
  10
20.22035
  20
60.65028
  30
0.0
  70
0
  0
VERTEX
  8
a
  10
20.36004
  20
60.57154
  30
0.0
  70
0
  0
VERTEX
  8
a
  10
20.49741
  20
60.48403
  30
0.0
  70
0
  0
VERTEX
  8
a
  10
20.63256
  20
60.38868
  30
0.0
  70
0
  0
VERTEX
  8
a
  10
20.7655
  20
60.28609
  30
0.0
  70
0
  0
VERTEX
  8
a
  10
20.89622
  20
60.17671
  30
0.0
  70
0
  0
VERTEX
  8
a
  10
21.02469
  20
60.06089
  30
0.0
  70
0
  0
VERTEX
  8
a
  10
21.11952
  20
59.96996
  30
0.0
  70
0
  0
VERTEX
  8
a
  10
20.822
  20
59.05427
  30
0.0
  70
0
  0
VERTEX
  8
a
  10
20.69183
  20
59.03645
  30
0.0
  70
0
  0
VERTEX
  8
a
  10
20.51982
  20
59.01826
  30
0.0
  70
0
  0
VERTEX
  8
a
  10
20.34977
  20
59.00661
  30
0.0
  70
0
  0
VERTEX
  8
a
  10
20.18192
  20
59.00176
  30
0.0
  70
0
  0
VERTEX
  8
a
  10
20.01653
  20
59.00405
  30
0.0
  70
0
  0
VERTEX
  8
a
  10
19.85396
  20
59.014
  30
0.0
  70
0
  0
VERTEX
  8
a
  10
19.69467
  20
59.03241
  30
0.0
  70
0
  0
VERTEX
  8
a
  10
19.53942
  20
59.06075
  30
0.0
  70
0
  0
VERTEX
  8
a
  10
19.46376
  20
59.07961
  30
0.0
  70
0
  0
VERTEX
  8
a
  10
19.39009
  20
59.10311
  30
0.0
  70
0
  0
VERTEX
  8
a
  10
19.30995
  20
59.11171
  30
0.0
  70
0
  0
VERTEX
  8
a
  10
19.26835
  20
59.11256
  30
0.0
  70
0
  0
VERTEX
  8
a
  10
19.22372
  20
59.10657
  30
0.0
  70
0
  0
VERTEX
  8
a
  10
19.16258
  20
59.06369
  30
0.0
  70
0
  0
VERTEX
  8
a
  10
18.74481
  20
58.24377
  30
0.0
  70
0
  0
VERTEX
  8
a
  10
18.74605
  20
58.1691
  30
0.0
  70
0
  0
VERTEX
  8
a
  10
18.76745
  20
58.12947
  30
0.0
  70
0
  0
VERTEX
  8
a
  10
18.79259
  20
58.09632
  30
0.0
  70
0
  0
VERTEX
  8
a
  10
18.84665
  20
58.03654
  30
0.0
  70
0
  0
VERTEX
  8
a
  10
18.90896
  20
57.99075
  30
0.0
  70
0
  0
VERTEX
  8
a
  10
18.96869
  20
57.94063
  30
0.0
  70
0
  0
VERTEX
  8
a
  10
19.08287
  20
57.83169
  30
0.0
  70
0
  0
VERTEX
  8
a
  10
19.19139
  20
57.71364
  30
0.0
  70
0
  0
VERTEX
  8
a
  10
19.295
  20
57.58796
  30
0.0
  70
0
  0
VERTEX
  8
a
  10
19.39406
  20
57.45551
  30
0.0
  70
0
  0
VERTEX
  8
a
  10
19.4888
  20
57.31686
  30
0.0
  70
0
  0
VERTEX
  8
a
  10
19.57933
  20
57.17244
  30
0.0
  70
0
  0
VERTEX
  8
a
  10
19.66572
  20
57.02259
  30
0.0
  70
0
  0
VERTEX
  8
a
  10
19.72781
  20
56.90681
  30
0.0
  70
0
  0
VERTEX
  8
a
  10
19.16188
  20
56.12788
  30
0.0
  70
0
  0
VERTEX
  8
a
  10
19.03258
  20
56.15115
  30
0.0
  70
0
  0
VERTEX
  8
a
  10
18.86337
  20
56.187
  30
0.0
  70
0
  0
VERTEX
  8
a
  10
18.69804
  20
56.22847
  30
0.0
  70
0
  0
VERTEX
  8
a
  10
18.5369
  20
56.27573
  30
0.0
  70
0
  0
VERTEX
  8
a
  10
18.38032
  20
56.32902
  30
0.0
  70
0
  0
VERTEX
  8
a
  10
18.22878
  20
56.38871
  30
0.0
  70
0
  0
VERTEX
  8
a
  10
18.08297
  20
56.45545
  30
0.0
  70
0
  0
VERTEX
  8
a
  10
17.94408
  20
56.53038
  30
0.0
  70
0
  0
VERTEX
  8
a
  10
17.87795
  20
56.57169
  30
0.0
  70
0
  0
VERTEX
  8
a
  10
17.81515
  20
56.61681
  30
0.0
  70
0
  0
VERTEX
  8
a
  10
17.74159
  20
56.64975
  30
0.0
  70
0
  0
VERTEX
  8
a
  10
17.70229
  20
56.66341
  30
0.0
  70
0
  0
VERTEX
  8
a
  10
17.65799
  20
56.67151
  30
0.0
  70
0
  0
VERTEX
  8
a
  10
17.5866
  20
56.64962
  30
0.0
  70
0
  0
VERTEX
  8
a
  10
16.9359
  20
55.99893
  30
0.0
  70
0
  0
VERTEX
  8
a
  10
16.91401
  20
55.92753
  30
0.0
  70
0
  0
VERTEX
  8
a
  10
16.92211
  20
55.88323
  30
0.0
  70
0
  0
VERTEX
  8
a
  10
16.93577
  20
55.84393
  30
0.0
  70
0
  0
VERTEX
  8
a
  10
16.96871
  20
55.77037
  30
0.0
  70
0
  0
VERTEX
  8
a
  10
17.01383
  20
55.70757
  30
0.0
  70
0
  0
VERTEX
  8
a
  10
17.05514
  20
55.64144
  30
0.0
  70
0
  0
VERTEX
  8
a
  10
17.13008
  20
55.50255
  30
0.0
  70
0
  0
VERTEX
  8
a
  10
17.19681
  20
55.35674
  30
0.0
  70
0
  0
VERTEX
  8
a
  10
17.25651
  20
55.2052
  30
0.0
  70
0
  0
VERTEX
  8
a
  10
17.30979
  20
55.04862
  30
0.0
  70
0
  0
VERTEX
  8
a
  10
17.35705
  20
54.88748
  30
0.0
  70
0
  0
VERTEX
  8
a
  10
17.39852
  20
54.72216
  30
0.0
  70
0
  0
VERTEX
  8
a
  10
17.43437
  20
54.55294
  30
0.0
  70
0
  0
VERTEX
  8
a
  10
17.45765
  20
54.42364
  30
0.0
  70
0
  0
VERTEX
  8
a
  10
16.67871
  20
53.85771
  30
0.0
  70
0
  0
VERTEX
  8
a
  10
16.56293
  20
53.9198
  30
0.0
  70
0
  0
VERTEX
  8
a
  10
16.41308
  20
54.00619
  30
0.0
  70
0
  0
VERTEX
  8
a
  10
16.26866
  20
54.09672
  30
0.0
  70
0
  0
VERTEX
  8
a
  10
16.13001
  20
54.19146
  30
0.0
  70
0
  0
VERTEX
  8
a
  10
15.99756
  20
54.29052
  30
0.0
  70
0
  0
VERTEX
  8
a
  10
15.87188
  20
54.39413
  30
0.0
  70
0
  0
VERTEX
  8
a
  10
15.75383
  20
54.50265
  30
0.0
  70
0
  0
VERTEX
  8
a
  10
15.64489
  20
54.61683
  30
0.0
  70
0
  0
VERTEX
  8
a
  10
15.59477
  20
54.67656
  30
0.0
  70
0
  0
VERTEX
  8
a
  10
15.54899
  20
54.73887
  30
0.0
  70
0
  0
VERTEX
  8
a
  10
15.4892
  20
54.79293
  30
0.0
  70
0
  0
VERTEX
  8
a
  10
15.45605
  20
54.81808
  30
0.0
  70
0
  0
VERTEX
  8
a
  10
15.41642
  20
54.83947
  30
0.0
  70
0
  0
VERTEX
  8
a
  10
15.34175
  20
54.84071
  30
0.0
  70
0
  0
VERTEX
  8
a
  10
14.52183
  20
54.42294
  30
0.0
  70
0
  0
VERTEX
  8
a
  10
14.47895
  20
54.3618
  30
0.0
  70
0
  0
VERTEX
  8
a
  10
14.47296
  20
54.31717
  30
0.0
  70
0
  0
VERTEX
  8
a
  10
14.47381
  20
54.27557
  30
0.0
  70
0
  0
VERTEX
  8
a
  10
14.48241
  20
54.19543
  30
0.0
  70
0
  0
VERTEX
  8
a
  10
14.50591
  20
54.12176
  30
0.0
  70
0
  0
VERTEX
  8
a
  10
14.52477
  20
54.0461
  30
0.0
  70
0
  0
VERTEX
  8
a
  10
14.55311
  20
53.89085
  30
0.0
  70
0
  0
VERTEX
  8
a
  10
14.57152
  20
53.73156
  30
0.0
  70
0
  0
VERTEX
  8
a
  10
14.58147
  20
53.56899
  30
0.0
  70
0
  0
VERTEX
  8
a
  10
14.58376
  20
53.4036
  30
0.0
  70
0
  0
VERTEX
  8
a
  10
14.57891
  20
53.23575
  30
0.0
  70
0
  0
VERTEX
  8
a
  10
14.56726
  20
53.0657
  30
0.0
  70
0
  0
VERTEX
  8
a
  10
14.54907
  20
52.89369
  30
0.0
  70
0
  0
VERTEX
  8
a
  10
14.53125
  20
52.76352
  30
0.0
  70
0
  0
VERTEX
  8
a
  10
13.61556
  20
52.466
  30
0.0
  70
0
  0
VERTEX
  8
a
  10
13.52463
  20
52.56083
  30
0.0
  70
0
  0
VERTEX
  8
a
  10
13.40881
  20
52.6893
  30
0.0
  70
0
  0
VERTEX
  8
a
  10
13.29943
  20
52.82002
  30
0.0
  70
0
  0
VERTEX
  8
a
  10
13.19685
  20
52.95297
  30
0.0
  70
0
  0
VERTEX
  8
a
  10
13.10149
  20
53.08811
  30
0.0
  70
0
  0
VERTEX
  8
a
  10
13.01398
  20
53.22548
  30
0.0
  70
0
  0
VERTEX
  8
a
  10
12.93524
  20
53.36517
  30
0.0
  70
0
  0
VERTEX
  8
a
  10
12.86692
  20
53.50743
  30
0.0
  70
0
  0
VERTEX
  8
a
  10
12.8377
  20
53.57972
  30
0.0
  70
0
  0
VERTEX
  8
a
  10
12.81342
  20
53.65314
  30
0.0
  70
0
  0
VERTEX
  8
a
  10
12.77327
  20
53.72303
  30
0.0
  70
0
  0
VERTEX
  8
a
  10
12.7495
  20
53.75718
  30
0.0
  70
0
  0
VERTEX
  8
a
  10
12.71842
  20
53.78977
  30
0.0
  70
0
  0
VERTEX
  8
a
  10
12.6478
  20
53.81403
  30
0.0
  70
0
  0
VERTEX
  8
a
  10
11.7389
  20
53.67007
  30
0.0
  70
0
  0
VERTEX
  8
a
  10
11.67923
  20
53.62518
  30
0.0
  70
0
  0
VERTEX
  8
a
  10
11.65974
  20
53.58458
  30
0.0
  70
0
  0
VERTEX
  8
a
  10
11.6477
  20
53.54475
  30
0.0
  70
0
  0
VERTEX
  8
a
  10
11.63111
  20
53.46588
  30
0.0
  70
0
  0
VERTEX
  8
a
  10
11.6307
  20
53.38855
  30
0.0
  70
0
  0
VERTEX
  8
a
  10
11.62525
  20
53.31077
  30
0.0
  70
0
  0
VERTEX
  8
a
  10
11.60423
  20
53.15436
  30
0.0
  70
0
  0
VERTEX
  8
a
  10
11.57252
  20
52.99718
  30
0.0
  70
0
  0
VERTEX
  8
a
  10
11.53174
  20
52.83949
  30
0.0
  70
0
  0
VERTEX
  8
a
  10
11.48281
  20
52.68149
  30
0.0
  70
0
  0
VERTEX
  8
a
  10
11.42633
  20
52.52335
  30
0.0
  70
0
  0
VERTEX
  8
a
  10
11.3627
  20
52.36523
  30
0.0
  70
0
  0
VERTEX
  8
a
  10
11.29225
  20
52.20726
  30
0.0
  70
0
  0
VERTEX
  8
a
  10
11.23508
  20
52.08897
  30
0.0
  70
0
  0
VERTEX
  8
a
  10
10.27226
  20
52.08897
  30
0.0
  70
0
  0
VERTEX
  8
a
  10
10.21509
  20
52.20726
  30
0.0
  70
0
  0
VERTEX
  8
a
  10
10.14463
  20
52.36523
  30
0.0
  70
0
  0
VERTEX
  8
a
  10
10.08101
  20
52.52335
  30
0.0
  70
0
  0
VERTEX
  8
a
  10
10.02452
  20
52.68149
  30
0.0
  70
0
  0
VERTEX
  8
a
  10
9.9756
  20
52.83949
  30
0.0
  70
0
  0
VERTEX
  8
a
  10
9.93482
  20
52.99718
  30
0.0
  70
0
  0
VERTEX
  8
a
  10
9.9031
  20
53.15436
  30
0.0
  70
0
  0
VERTEX
  8
a
  10
9.88209
  20
53.31077
  30
0.0
  70
0
  0
VERTEX
  8
a
  10
9.87664
  20
53.38855
  30
0.0
  70
0
  0
VERTEX
  8
a
  10
9.87623
  20
53.46588
  30
0.0
  70
0
  0
VERTEX
  8
a
  10
9.85964
  20
53.54475
  30
0.0
  70
0
  0
VERTEX
  8
a
  10
9.84759
  20
53.58458
  30
0.0
  70
0
  0
VERTEX
  8
a
  10
9.82811
  20
53.62518
  30
0.0
  70
0
  0
VERTEX
  8
a
  10
9.76843
  20
53.67007
  30
0.0
  70
0
  0
VERTEX
  8
a
  10
8.85954
  20
53.81403
  30
0.0
  70
0
  0
VERTEX
  8
a
  10
8.78891
  20
53.78977
  30
0.0
  70
0
  0
VERTEX
  8
a
  10
8.75783
  20
53.75718
  30
0.0
  70
0
  0
VERTEX
  8
a
  10
8.73407
  20
53.72303
  30
0.0
  70
0
  0
VERTEX
  8
a
  10
8.69392
  20
53.65314
  30
0.0
  70
0
  0
VERTEX
  8
a
  10
8.66963
  20
53.57972
  30
0.0
  70
0
  0
VERTEX
  8
a
  10
8.64042
  20
53.50743
  30
0.0
  70
0
  0
VERTEX
  8
a
  10
8.57209
  20
53.36517
  30
0.0
  70
0
  0
VERTEX
  8
a
  10
8.49336
  20
53.22548
  30
0.0
  70
0
  0
VERTEX
  8
a
  10
8.40585
  20
53.08811
  30
0.0
  70
0
  0
VERTEX
  8
a
  10
8.31049
  20
52.95297
  30
0.0
  70
0
  0
VERTEX
  8
a
  10
8.2079
  20
52.82002
  30
0.0
  70
0
  0
VERTEX
  8
a
  10
8.09853
  20
52.6893
  30
0.0
  70
0
  0
VERTEX
  8
a
  10
7.98271
  20
52.56083
  30
0.0
  70
0
  0
VERTEX
  8
a
  10
7.89178
  20
52.466
  30
0.0
  70
0
  0
VERTEX
  8
a
  10
6.97609
  20
52.76352
  30
0.0
  70
0
  0
VERTEX
  8
a
  10
6.95827
  20
52.89369
  30
0.0
  70
0
  0
VERTEX
  8
a
  10
6.94008
  20
53.0657
  30
0.0
  70
0
  0
VERTEX
  8
a
  10
6.92843
  20
53.23575
  30
0.0
  70
0
  0
VERTEX
  8
a
  10
6.92358
  20
53.4036
  30
0.0
  70
0
  0
VERTEX
  8
a
  10
6.92587
  20
53.56899
  30
0.0
  70
0
  0
VERTEX
  8
a
  10
6.93581
  20
53.73156
  30
0.0
  70
0
  0
VERTEX
  8
a
  10
6.95422
  20
53.89085
  30
0.0
  70
0
  0
VERTEX
  8
a
  10
6.98257
  20
54.0461
  30
0.0
  70
0
  0
VERTEX
  8
a
  10
7.00142
  20
54.12176
  30
0.0
  70
0
  0
VERTEX
  8
a
  10
7.02493
  20
54.19543
  30
0.0
  70
0
  0
VERTEX
  8
a
  10
7.03352
  20
54.27557
  30
0.0
  70
0
  0
VERTEX
  8
a
  10
7.03437
  20
54.31717
  30
0.0
  70
0
  0
VERTEX
  8
a
  10
7.02839
  20
54.3618
  30
0.0
  70
0
  0
VERTEX
  8
a
  10
6.98551
  20
54.42294
  30
0.0
  70
0
  0
VERTEX
  8
a
  10
6.16558
  20
54.84071
  30
0.0
  70
0
  0
VERTEX
  8
a
  10
6.09092
  20
54.83947
  30
0.0
  70
0
  0
VERTEX
  8
a
  10
6.05129
  20
54.81808
  30
0.0
  70
0
  0
VERTEX
  8
a
  10
6.01813
  20
54.79293
  30
0.0
  70
0
  0
VERTEX
  8
a
  10
5.95835
  20
54.73887
  30
0.0
  70
0
  0
VERTEX
  8
a
  10
5.91257
  20
54.67656
  30
0.0
  70
0
  0
VERTEX
  8
a
  10
5.86244
  20
54.61683
  30
0.0
  70
0
  0
VERTEX
  8
a
  10
5.7535
  20
54.50265
  30
0.0
  70
0
  0
VERTEX
  8
a
  10
5.63545
  20
54.39413
  30
0.0
  70
0
  0
VERTEX
  8
a
  10
5.50978
  20
54.29052
  30
0.0
  70
0
  0
VERTEX
  8
a
  10
5.37732
  20
54.19146
  30
0.0
  70
0
  0
VERTEX
  8
a
  10
5.23868
  20
54.09672
  30
0.0
  70
0
  0
VERTEX
  8
a
  10
5.09426
  20
54.00619
  30
0.0
  70
0
  0
VERTEX
  8
a
  10
4.94441
  20
53.9198
  30
0.0
  70
0
  0
VERTEX
  8
a
  10
4.82862
  20
53.85771
  30
0.0
  70
0
  0
VERTEX
  8
a
  10
4.04969
  20
54.42364
  30
0.0
  70
0
  0
VERTEX
  8
a
  10
4.07297
  20
54.55294
  30
0.0
  70
0
  0
VERTEX
  8
a
  10
4.10882
  20
54.72216
  30
0.0
  70
0
  0
VERTEX
  8
a
  10
4.15029
  20
54.88748
  30
0.0
  70
0
  0
VERTEX
  8
a
  10
4.19754
  20
55.04862
  30
0.0
  70
0
  0
VERTEX
  8
a
  10
4.25083
  20
55.2052
  30
0.0
  70
0
  0
VERTEX
  8
a
  10
4.31053
  20
55.35674
  30
0.0
  70
0
  0
VERTEX
  8
a
  10
4.37726
  20
55.50255
  30
0.0
  70
0
  0
VERTEX
  8
a
  10
4.45219
  20
55.64144
  30
0.0
  70
0
  0
VERTEX
  8
a
  10
4.4935
  20
55.70757
  30
0.0
  70
0
  0
VERTEX
  8
a
  10
4.53862
  20
55.77037
  30
0.0
  70
0
  0
VERTEX
  8
a
  10
4.57156
  20
55.84393
  30
0.0
  70
0
  0
VERTEX
  8
a
  10
4.58523
  20
55.88323
  30
0.0
  70
0
  0
VERTEX
  8
a
  10
4.59333
  20
55.92753
  30
0.0
  70
0
  0
VERTEX
  8
a
  10
4.57144
  20
55.99893
  30
0.0
  70
0
  0
VERTEX
  8
a
  10
3.92074
  20
56.64962
  30
0.0
  70
0
  0
VERTEX
  8
a
  10
3.84935
  20
56.67151
  30
0.0
  70
0
  0
VERTEX
  8
a
  10
3.80505
  20
56.66341
  30
0.0
  70
0
  0
VERTEX
  8
a
  10
3.76574
  20
56.64975
  30
0.0
  70
0
  0
VERTEX
  8
a
  10
3.69218
  20
56.61681
  30
0.0
  70
0
  0
VERTEX
  8
a
  10
3.62938
  20
56.57169
  30
0.0
  70
0
  0
VERTEX
  8
a
  10
3.56325
  20
56.53038
  30
0.0
  70
0
  0
VERTEX
  8
a
  10
3.42436
  20
56.45545
  30
0.0
  70
0
  0
VERTEX
  8
a
  10
3.27856
  20
56.38871
  30
0.0
  70
0
  0
VERTEX
  8
a
  10
3.12701
  20
56.32902
  30
0.0
  70
0
  0
VERTEX
  8
a
  10
2.97043
  20
56.27573
  30
0.0
  70
0
  0
VERTEX
  8
a
  10
2.80929
  20
56.22847
  30
0.0
  70
0
  0
VERTEX
  8
a
  10
2.64397
  20
56.187
  30
0.0
  70
0
  0
VERTEX
  8
a
  10
2.47476
  20
56.15115
  30
0.0
  70
0
  0
VERTEX
  8
a
  10
2.34545
  20
56.12788
  30
0.0
  70
0
  0
VERTEX
  8
a
  10
1.77953
  20
56.90681
  30
0.0
  70
0
  0
VERTEX
  8
a
  10
1.84162
  20
57.02259
  30
0.0
  70
0
  0
VERTEX
  8
a
  10
1.92801
  20
57.17244
  30
0.0
  70
0
  0
VERTEX
  8
a
  10
2.01854
  20
57.31686
  30
0.0
  70
0
  0
VERTEX
  8
a
  10
2.11327
  20
57.45551
  30
0.0
  70
0
  0
VERTEX
  8
a
  10
2.21234
  20
57.58796
  30
0.0
  70
0
  0
VERTEX
  8
a
  10
2.31594
  20
57.71364
  30
0.0
  70
0
  0
VERTEX
  8
a
  10
2.42446
  20
57.83169
  30
0.0
  70
0
  0
VERTEX
  8
a
  10
2.53865
  20
57.94063
  30
0.0
  70
0
  0
VERTEX
  8
a
  10
2.59837
  20
57.99075
  30
0.0
  70
0
  0
VERTEX
  8
a
  10
2.66069
  20
58.03654
  30
0.0
  70
0
  0
VERTEX
  8
a
  10
2.71475
  20
58.09632
  30
0.0
  70
0
  0
VERTEX
  8
a
  10
2.73989
  20
58.12947
  30
0.0
  70
0
  0
VERTEX
  8
a
  10
2.76128
  20
58.1691
  30
0.0
  70
0
  0
VERTEX
  8
a
  10
2.76253
  20
58.24377
  30
0.0
  70
0
  0
VERTEX
  8
a
  10
2.34475
  20
59.06369
  30
0.0
  70
0
  0
VERTEX
  8
a
  10
2.28362
  20
59.10657
  30
0.0
  70
0
  0
VERTEX
  8
a
  10
2.23898
  20
59.11256
  30
0.0
  70
0
  0
VERTEX
  8
a
  10
2.19738
  20
59.11171
  30
0.0
  70
0
  0
VERTEX
  8
a
  10
2.11724
  20
59.10311
  30
0.0
  70
0
  0
VERTEX
  8
a
  10
2.04357
  20
59.07961
  30
0.0
  70
0
  0
VERTEX
  8
a
  10
1.96792
  20
59.06075
  30
0.0
  70
0
  0
VERTEX
  8
a
  10
1.81267
  20
59.03241
  30
0.0
  70
0
  0
VERTEX
  8
a
  10
1.65338
  20
59.014
  30
0.0
  70
0
  0
VERTEX
  8
a
  10
1.4908
  20
59.00405
  30
0.0
  70
0
  0
VERTEX
  8
a
  10
1.32542
  20
59.00176
  30
0.0
  70
0
  0
VERTEX
  8
a
  10
1.15756
  20
59.00661
  30
0.0
  70
0
  0
VERTEX
  8
a
  10
0.98752
  20
59.01826
  30
0.0
  70
0
  0
VERTEX
  8
a
  10
0.81551
  20
59.03645
  30
0.0
  70
0
  0
VERTEX
  8
a
  10
0.68534
  20
59.05427
  30
0.0
  70
0
  0
VERTEX
  8
a
  10
0.38781
  20
59.96996
  30
0.0
  70
0
  0
VERTEX
  8
a
  10
0.48265
  20
60.06089
  30
0.0
  70
0
  0
VERTEX
  8
a
  10
0.61111
  20
60.17671
  30
0.0
  70
0
  0
VERTEX
  8
a
  10
0.74184
  20
60.28609
  30
0.0
  70
0
  0
VERTEX
  8
a
  10
0.87478
  20
60.38868
  30
0.0
  70
0
  0
VERTEX
  8
a
  10
1.00993
  20
60.48403
  30
0.0
  70
0
  0
VERTEX
  8
a
  10
1.1473
  20
60.57154
  30
0.0
  70
0
  0
VERTEX
  8
a
  10
1.28699
  20
60.65028
  30
0.0
  70
0
  0
VERTEX
  8
a
  10
1.42925
  20
60.7186
  30
0.0
  70
0
  0
VERTEX
  8
a
  10
1.50154
  20
60.74782
  30
0.0
  70
0
  0
VERTEX
  8
a
  10
1.57495
  20
60.7721
  30
0.0
  70
0
  0
VERTEX
  8
a
  10
1.64484
  20
60.81225
  30
0.0
  70
0
  0
VERTEX
  8
a
  10
1.679
  20
60.83602
  30
0.0
  70
0
  0
VERTEX
  8
a
  10
1.71159
  20
60.8671
  30
0.0
  70
0
  0
VERTEX
  8
a
  10
1.73584
  20
60.93772
  30
0.0
  70
0
  0
VERTEX
  8
a
  10
1.59189
  20
61.84662
  30
0.0
  70
0
  0
VERTEX
  8
a
  10
1.547
  20
61.90629
  30
0.0
  70
0
  0
VERTEX
  8
a
  10
1.5064
  20
61.92578
  30
0.0
  70
0
  0
VERTEX
  8
a
  10
1.46657
  20
61.93782
  30
0.0
  70
0
  0
VERTEX
  8
a
  10
1.38769
  20
61.95441
  30
0.0
  70
0
  0
VERTEX
  8
a
  10
1.31037
  20
61.95482
  30
0.0
  70
0
  0
VERTEX
  8
a
  10
1.23259
  20
61.96027
  30
0.0
  70
0
  0
VERTEX
  8
a
  10
1.07618
  20
61.98129
  30
0.0
  70
0
  0
VERTEX
  8
a
  10
0.91899
  20
62.013
  30
0.0
  70
0
  0
VERTEX
  8
a
  10
0.7613
  20
62.05378
  30
0.0
  70
0
  0
VERTEX
  8
a
  10
0.6033
  20
62.10271
  30
0.0
  70
0
  0
VERTEX
  8
a
  10
0.44517
  20
62.15919
  30
0.0
  70
0
  0
VERTEX
  8
a
  10
0.28704
  20
62.22282
  30
0.0
  70
0
  0
VERTEX
  8
a
  10
0.12907
  20
62.29327
  30
0.0
  70
0
  0
VERTEX
  8
a
  10
0.01078
  20
62.35045
  30
0.0
  70
0
  0
VERTEX
  8
a
  10
0.01078
  20
63.31326
  30
0.0
  70
0
  0
VERTEX
  8
a
  10
0.12907
  20
63.37043
  30
0.0
  70
0
  0
VERTEX
  8
a
  10
0.28704
  20
63.44089
  30
0.0
  70
0
  0
VERTEX
  8
a
  10
0.44517
  20
63.50451
  30
0.0
  70
0
  0
VERTEX
  8
a
  10
0.6033
  20
63.561
  30
0.0
  70
0
  0
VERTEX
  8
a
  10
0.7613
  20
63.60993
  30
0.0
  70
0
  0
VERTEX
  8
a
  10
0.91899
  20
63.6507
  30
0.0
  70
0
  0
VERTEX
  8
a
  10
1.07618
  20
63.68242
  30
0.0
  70
0
  0
VERTEX
  8
a
  10
1.23259
  20
63.70344
  30
0.0
  70
0
  0
VERTEX
  8
a
  10
1.31037
  20
63.70888
  30
0.0
  70
0
  0
VERTEX
  8
a
  10
1.38769
  20
63.70929
  30
0.0
  70
0
  0
VERTEX
  8
a
  10
1.46657
  20
63.72588
  30
0.0
  70
0
  0
VERTEX
  8
a
  10
1.5064
  20
63.73793
  30
0.0
  70
0
  0
VERTEX
  8
a
  10
1.547
  20
63.75742
  30
0.0
  70
0
  0
VERTEX
  8
a
  10
1.59189
  20
63.81709
  30
0.0
  70
0
  0
VERTEX
  8
a
  10
1.73584
  20
64.72598
  30
0.0
  70
0
  0
VERTEX
  8
a
  10
1.71159
  20
64.79661
  30
0.0
  70
0
  0
VERTEX
  8
a
  10
1.679
  20
64.82769
  30
0.0
  70
0
  0
VERTEX
  8
a
  10
1.64484
  20
64.85145
  30
0.0
  70
0
  0
VERTEX
  8
a
  10
1.57495
  20
64.8916
  30
0.0
  70
0
  0
VERTEX
  8
a
  10
1.50154
  20
64.91589
  30
0.0
  70
0
  0
VERTEX
  8
a
  10
1.42925
  20
64.9451
  30
0.0
  70
0
  0
VERTEX
  8
a
  10
1.28699
  20
65.01343
  30
0.0
  70
0
  0
VERTEX
  8
a
  10
1.1473
  20
65.09216
  30
0.0
  70
0
  0
VERTEX
  8
a
  10
1.00993
  20
65.17967
  30
0.0
  70
0
  0
VERTEX
  8
a
  10
0.87478
  20
65.27503
  30
0.0
  70
0
  0
VERTEX
  8
a
  10
0.74184
  20
65.37762
  30
0.0
  70
0
  0
VERTEX
  8
a
  10
0.61111
  20
65.48699
  30
0.0
  70
0
  0
VERTEX
  8
a
  10
0.48265
  20
65.60281
  30
0.0
  70
0
  0
VERTEX
  8
a
  10
0.38781
  20
65.69374
  30
0.0
  70
0
  0
VERTEX
  8
a
  10
0.68534
  20
66.60943
  30
0.0
  70
0
  0
VERTEX
  8
a
  10
0.81551
  20
66.62725
  30
0.0
  70
0
  0
VERTEX
  8
a
  10
0.98752
  20
66.64544
  30
0.0
  70
0
  0
VERTEX
  8
a
  10
1.15756
  20
66.65709
  30
0.0
  70
0
  0
VERTEX
  8
a
  10
1.32542
  20
66.66195
  30
0.0
  70
0
  0
VERTEX
  8
a
  10
1.4908
  20
66.65965
  30
0.0
  70
0
  0
VERTEX
  8
a
  10
1.65338
  20
66.64971
  30
0.0
  70
0
  0
VERTEX
  8
a
  10
1.81267
  20
66.6313
  30
0.0
  70
0
  0
VERTEX
  8
a
  10
1.96792
  20
66.60295
  30
0.0
  70
0
  0
VERTEX
  8
a
  10
2.04357
  20
66.5841
  30
0.0
  70
0
  0
VERTEX
  8
a
  10
2.11724
  20
66.56059
  30
0.0
  70
0
  0
VERTEX
  8
a
  10
2.19738
  20
66.552
  30
0.0
  70
0
  0
VERTEX
  8
a
  10
2.23898
  20
66.55115
  30
0.0
  70
0
  0
VERTEX
  8
a
  10
2.28362
  20
66.55713
  30
0.0
  70
0
  0
VERTEX
  8
a
  10
2.34475
  20
66.60001
  30
0.0
  70
0
  0
VERTEX
  8
a
  10
2.76253
  20
67.41994
  30
0.0
  70
0
  0
VERTEX
  8
a
  10
2.76128
  20
67.4946
  30
0.0
  70
0
  0
VERTEX
  8
a
  10
2.73989
  20
67.53423
  30
0.0
  70
0
  0
VERTEX
  8
a
  10
2.71475
  20
67.56739
  30
0.0
  70
0
  0
VERTEX
  8
a
  10
2.66069
  20
67.62717
  30
0.0
  70
0
  0
VERTEX
  8
a
  10
2.59837
  20
67.67295
  30
0.0
  70
0
  0
VERTEX
  8
a
  10
2.53865
  20
67.72308
  30
0.0
  70
0
  0
VERTEX
  8
a
  10
2.42446
  20
67.83202
  30
0.0
  70
0
  0
VERTEX
  8
a
  10
2.31594
  20
67.95007
  30
0.0
  70
0
  0
VERTEX
  8
a
  10
2.21234
  20
68.07574
  30
0.0
  70
0
  0
VERTEX
  8
a
  10
2.11327
  20
68.2082
  30
0.0
  70
0
  0
VERTEX
  8
a
  10
2.01854
  20
68.34685
  30
0.0
  70
0
  0
VERTEX
  8
a
  10
1.92801
  20
68.49126
  30
0.0
  70
0
  0
VERTEX
  8
a
  10
1.84162
  20
68.64111
  30
0.0
  70
0
  0
VERTEX
  8
a
  10
1.77953
  20
68.7569
  30
0.0
  70
0
  0
VERTEX
  8
a
  10
2.34545
  20
69.53583
  30
0.0
  70
0
  0
VERTEX
  8
a
  10
2.47476
  20
69.51256
  30
0.0
  70
0
  0
VERTEX
  8
a
  10
2.64397
  20
69.4767
  30
0.0
  70
0
  0
VERTEX
  8
a
  10
2.80929
  20
69.43523
  30
0.0
  70
0
  0
VERTEX
  8
a
  10
2.97043
  20
69.38798
  30
0.0
  70
0
  0
VERTEX
  8
a
  10
3.12701
  20
69.33469
  30
0.0
  70
0
  0
VERTEX
  8
a
  10
3.27856
  20
69.27499
  30
0.0
  70
0
  0
VERTEX
  8
a
  10
3.42436
  20
69.20826
  30
0.0
  70
0
  0
VERTEX
  8
a
  10
3.56325
  20
69.13333
  30
0.0
  70
0
  0
VERTEX
  8
a
  10
3.62938
  20
69.09202
  30
0.0
  70
0
  0
VERTEX
  8
a
  10
3.69218
  20
69.0469
  30
0.0
  70
0
  0
VERTEX
  8
a
  10
3.76574
  20
69.01396
  30
0.0
  70
0
  0
VERTEX
  8
a
  10
3.80505
  20
69.00029
  30
0.0
  70
0
  0
VERTEX
  8
a
  10
3.84935
  20
68.99219
  30
0.0
  70
0
  0
VERTEX
  8
a
  10
3.92074
  20
69.01408
  30
0.0
  70
0
  0
VERTEX
  8
a
  10
4.57144
  20
69.66478
  30
0.0
  70
0
  0
VERTEX
  8
a
  10
4.59333
  20
69.73617
  30
0.0
  70
0
  0
VERTEX
  8
a
  10
4.58523
  20
69.78047
  30
0.0
  70
0
  0
VERTEX
  8
a
  10
4.57156
  20
69.81978
  30
0.0
  70
0
  0
VERTEX
  8
a
  10
4.53862
  20
69.89334
  30
0.0
  70
0
  0
VERTEX
  8
a
  10
4.4935
  20
69.95614
  30
0.0
  70
0
  0
VERTEX
  8
a
  10
4.45219
  20
70.02227
  30
0.0
  70
0
  0
VERTEX
  8
a
  10
4.37726
  20
70.16116
  30
0.0
  70
0
  0
VERTEX
  8
a
  10
4.31053
  20
70.30696
  30
0.0
  70
0
  0
VERTEX
  8
a
  10
4.25083
  20
70.45851
  30
0.0
  70
0
  0
VERTEX
  8
a
  10
4.19754
  20
70.61509
  30
0.0
  70
0
  0
VERTEX
  8
a
  10
4.15029
  20
70.77623
  30
0.0
  70
0
  0
VERTEX
  8
a
  10
4.10882
  20
70.94155
  30
0.0
  70
0
  0
VERTEX
  8
a
  10
4.07297
  20
71.11076
  30
0.0
  70
0
  0
VERTEX
  8
a
  10
4.04969
  20
71.24007
  30
0.0
  70
0
  0
VERTEX
  8
a
  10
4.82862
  20
71.806
  30
0.0
  70
0
  0
VERTEX
  8
a
  10
4.94441
  20
71.7439
  30
0.0
  70
0
  0
VERTEX
  8
a
  10
5.09426
  20
71.65751
  30
0.0
  70
0
  0
VERTEX
  8
a
  10
5.23868
  20
71.56699
  30
0.0
  70
0
  0
VERTEX
  8
a
  10
5.37732
  20
71.47225
  30
0.0
  70
0
  0
VERTEX
  8
a
  10
5.50978
  20
71.37318
  30
0.0
  70
0
  0
VERTEX
  8
a
  10
5.63545
  20
71.26958
  30
0.0
  70
0
  0
VERTEX
  8
a
  10
5.7535
  20
71.16106
  30
0.0
  70
0
  0
VERTEX
  8
a
  10
5.86244
  20
71.04687
  30
0.0
  70
0
  0
VERTEX
  8
a
  10
5.91257
  20
70.98715
  30
0.0
  70
0
  0
VERTEX
  8
a
  10
5.95835
  20
70.92483
  30
0.0
  70
0
  0
VERTEX
  8
a
  10
6.01813
  20
70.87077
  30
0.0
  70
0
  0
VERTEX
  8
a
  10
6.05129
  20
70.84563
  30
0.0
  70
0
  0
VERTEX
  8
a
  10
6.09092
  20
70.82424
  30
0.0
  70
0
  0
VERTEX
  8
a
  10
6.16558
  20
70.823
  30
0.0
  70
0
  0
VERTEX
  8
a
  10
6.98551
  20
71.24077
  30
0.0
  70
0
  0
VERTEX
  8
a
  10
7.02839
  20
71.3019
  30
0.0
  70
0
  0
VERTEX
  8
a
  10
7.03437
  20
71.34654
  30
0.0
  70
0
  0
VERTEX
  8
a
  10
7.03352
  20
71.38814
  30
0.0
  70
0
  0
VERTEX
  8
a
  10
7.02493
  20
71.46828
  30
0.0
  70
0
  0
VERTEX
  8
a
  10
7.00142
  20
71.54195
  30
0.0
  70
0
  0
VERTEX
  8
a
  10
6.98257
  20
71.61761
  30
0.0
  70
0
  0
VERTEX
  8
a
  10
6.95422
  20
71.77286
  30
0.0
  70
0
  0
VERTEX
  8
a
  10
6.93581
  20
71.93215
  30
0.0
  70
0
  0
VERTEX
  8
a
  10
6.92587
  20
72.09472
  30
0.0
  70
0
  0
VERTEX
  8
a
  10
6.92358
  20
72.2601
  30
0.0
  70
0
  0
VERTEX
  8
a
  10
6.92843
  20
72.42796
  30
0.0
  70
0
  0
VERTEX
  8
a
  10
6.94008
  20
72.59801
  30
0.0
  70
0
  0
VERTEX
  8
a
  10
6.95827
  20
72.77001
  30
0.0
  70
0
  0
VERTEX
  8
a
  10
6.97609
  20
72.90018
  30
0.0
  70
0
  0
VERTEX
  8
a
  10
7.89178
  20
73.19771
  30
0.0
  70
0
  0
VERTEX
  8
a
  10
7.98271
  20
73.10288
  30
0.0
  70
0
  0
VERTEX
  8
a
  10
8.09853
  20
72.97441
  30
0.0
  70
0
  0
VERTEX
  8
a
  10
8.2079
  20
72.84368
  30
0.0
  70
0
  0
VERTEX
  8
a
  10
8.31049
  20
72.71074
  30
0.0
  70
0
  0
VERTEX
  8
a
  10
8.40585
  20
72.57559
  30
0.0
  70
0
  0
VERTEX
  8
a
  10
8.49336
  20
72.43822
  30
0.0
  70
0
  0
VERTEX
  8
a
  10
8.57209
  20
72.29853
  30
0.0
  70
0
  0
VERTEX
  8
a
  10
8.64042
  20
72.15627
  30
0.0
  70
0
  0
VERTEX
  8
a
  10
8.66963
  20
72.08398
  30
0.0
  70
0
  0
VERTEX
  8
a
  10
8.69392
  20
72.01057
  30
0.0
  70
0
  0
VERTEX
  8
a
  10
8.73407
  20
71.94068
  30
0.0
  70
0
  0
VERTEX
  8
a
  10
8.75783
  20
71.90652
  30
0.0
  70
0
  0
VERTEX
  8
a
  10
8.78891
  20
71.87393
  30
0.0
  70
0
  0
VERTEX
  8
a
  10
8.85954
  20
71.84968
  30
0.0
  70
0
  0
VERTEX
  8
a
  10
9.76843
  20
71.99363
  30
0.0
  70
0
  0
VERTEX
  8
a
  10
9.82811
  20
72.03852
  30
0.0
  70
0
  0
VERTEX
  8
a
  10
9.84759
  20
72.07912
  30
0.0
  70
0
  0
VERTEX
  8
a
  10
9.85964
  20
72.11895
  30
0.0
  70
0
  0
VERTEX
  8
a
  10
9.87623
  20
72.19783
  30
0.0
  70
0
  0
VERTEX
  8
a
  10
9.87664
  20
72.27515
  30
0.0
  70
0
  0
VERTEX
  8
a
  10
9.88209
  20
72.35293
  30
0.0
  70
0
  0
VERTEX
  8
a
  10
9.9031
  20
72.50934
  30
0.0
  70
0
  0
VERTEX
  8
a
  10
9.93482
  20
72.66653
  30
0.0
  70
0
  0
VERTEX
  8
a
  10
9.9756
  20
72.82422
  30
0.0
  70
0
  0
VERTEX
  8
a
  10
10.02452
  20
72.98222
  30
0.0
  70
0
  0
VERTEX
  8
a
  10
10.08101
  20
73.14035
  30
0.0
  70
0
  0
VERTEX
  8
a
  10
10.14463
  20
73.29848
  30
0.0
  70
0
  0
VERTEX
  8
a
  10
10.21509
  20
73.45645
  30
0.0
  70
0
  0
VERTEX
  8
a
  10
10.27226
  20
73.57474
  30
0.0
  70
0
  0
VERTEX
  8
a
  10
11.23508
  20
73.57474
  30
0.0
  70
0
  0
VERTEX
  8
a
  10
11.29225
  20
73.45645
  30
0.0
  70
0
  0
VERTEX
  8
a
  10
11.3627
  20
73.29848
  30
0.0
  70
0
  0
VERTEX
  8
a
  10
11.42633
  20
73.14035
  30
0.0
  70
0
  0
VERTEX
  8
a
  10
11.48281
  20
72.98222
  30
0.0
  70
0
  0
VERTEX
  8
a
  10
11.53174
  20
72.82422
  30
0.0
  70
0
  0
VERTEX
  8
a
  10
11.57252
  20
72.66653
  30
0.0
  70
0
  0
VERTEX
  8
a
  10
11.60423
  20
72.50934
  30
0.0
  70
0
  0
VERTEX
  8
a
  10
11.62525
  20
72.35293
  30
0.0
  70
0
  0
VERTEX
  8
a
  10
11.6307
  20
72.27515
  30
0.0
  70
0
  0
VERTEX
  8
a
  10
11.63111
  20
72.19783
  30
0.0
  70
0
  0
VERTEX
  8
a
  10
11.6477
  20
72.11895
  30
0.0
  70
0
  0
VERTEX
  8
a
  10
11.65974
  20
72.07912
  30
0.0
  70
0
  0
VERTEX
  8
a
  10
11.67923
  20
72.03852
  30
0.0
  70
0
  0
VERTEX
  8
a
  10
11.7389
  20
71.99363
  30
0.0
  70
0
  0
VERTEX
  8
a
  10
12.6478
  20
71.84968
  30
0.0
  70
0
  0
VERTEX
  8
a
  10
12.71842
  20
71.87393
  30
0.0
  70
0
  0
VERTEX
  8
a
  10
12.7495
  20
71.90652
  30
0.0
  70
0
  0
VERTEX
  8
a
  10
12.77327
  20
71.94068
  30
0.0
  70
0
  0
VERTEX
  8
a
  10
12.81342
  20
72.01057
  30
0.0
  70
0
  0
VERTEX
  8
a
  10
12.8377
  20
72.08398
  30
0.0
  70
0
  0
VERTEX
  8
a
  10
12.86692
  20
72.15627
  30
0.0
  70
0
  0
VERTEX
  8
a
  10
12.93524
  20
72.29853
  30
0.0
  70
0
  0
VERTEX
  8
a
  10
13.01398
  20
72.43822
  30
0.0
  70
0
  0
VERTEX
  8
a
  10
13.10149
  20
72.57559
  30
0.0
  70
0
  0
VERTEX
  8
a
  10
13.19685
  20
72.71074
  30
0.0
  70
0
  0
VERTEX
  8
a
  10
13.29943
  20
72.84368
  30
0.0
  70
0
  0
VERTEX
  8
a
  10
13.40881
  20
72.97441
  30
0.0
  70
0
  0
VERTEX
  8
a
  10
13.52463
  20
73.10288
  30
0.0
  70
0
  0
VERTEX
  8
a
  10
13.61556
  20
73.19771
  30
0.0
  70
0
  0
VERTEX
  8
a
  10
14.53125
  20
72.90018
  30
0.0
  70
0
  0
VERTEX
  8
a
  10
14.54907
  20
72.77001
  30
0.0
  70
0
  0
VERTEX
  8
a
  10
14.56726
  20
72.59801
  30
0.0
  70
0
  0
VERTEX
  8
a
  10
14.57891
  20
72.42796
  30
0.0
  70
0
  0
VERTEX
  8
a
  10
14.58376
  20
72.2601
  30
0.0
  70
0
  0
VERTEX
  8
a
  10
14.58147
  20
72.09472
  30
0.0
  70
0
  0
VERTEX
  8
a
  10
14.57152
  20
71.93215
  30
0.0
  70
0
  0
VERTEX
  8
a
  10
14.55311
  20
71.77286
  30
0.0
  70
0
  0
VERTEX
  8
a
  10
14.52477
  20
71.61761
  30
0.0
  70
0
  0
VERTEX
  8
a
  10
14.50591
  20
71.54195
  30
0.0
  70
0
  0
VERTEX
  8
a
  10
14.48241
  20
71.46828
  30
0.0
  70
0
  0
VERTEX
  8
a
  10
14.47381
  20
71.38814
  30
0.0
  70
0
  0
VERTEX
  8
a
  10
14.47296
  20
71.34654
  30
0.0
  70
0
  0
VERTEX
  8
a
  10
14.47895
  20
71.3019
  30
0.0
  70
0
  0
VERTEX
  8
a
  10
14.52183
  20
71.24077
  30
0.0
  70
0
  0
VERTEX
  8
a
  10
15.34175
  20
70.823
  30
0.0
  70
0
  0
VERTEX
  8
a
  10
15.41642
  20
70.82424
  30
0.0
  70
0
  0
VERTEX
  8
a
  10
15.45605
  20
70.84563
  30
0.0
  70
0
  0
VERTEX
  8
a
  10
15.4892
  20
70.87077
  30
0.0
  70
0
  0
VERTEX
  8
a
  10
15.54899
  20
70.92483
  30
0.0
  70
0
  0
VERTEX
  8
a
  10
15.59477
  20
70.98715
  30
0.0
  70
0
  0
VERTEX
  8
a
  10
15.64489
  20
71.04687
  30
0.0
  70
0
  0
VERTEX
  8
a
  10
15.75383
  20
71.16106
  30
0.0
  70
0
  0
VERTEX
  8
a
  10
15.87188
  20
71.26958
  30
0.0
  70
0
  0
VERTEX
  8
a
  10
15.99756
  20
71.37318
  30
0.0
  70
0
  0
VERTEX
  8
a
  10
16.13001
  20
71.47225
  30
0.0
  70
0
  0
VERTEX
  8
a
  10
16.26866
  20
71.56699
  30
0.0
  70
0
  0
VERTEX
  8
a
  10
16.41308
  20
71.65751
  30
0.0
  70
0
  0
VERTEX
  8
a
  10
16.56293
  20
71.7439
  30
0.0
  70
0
  0
VERTEX
  8
a
  10
16.67871
  20
71.806
  30
0.0
  70
0
  0
VERTEX
  8
a
  10
17.45765
  20
71.24007
  30
0.0
  70
0
  0
VERTEX
  8
a
  10
17.43437
  20
71.11076
  30
0.0
  70
0
  0
VERTEX
  8
a
  10
17.39852
  20
70.94155
  30
0.0
  70
0
  0
VERTEX
  8
a
  10
17.35705
  20
70.77623
  30
0.0
  70
0
  0
VERTEX
  8
a
  10
17.30979
  20
70.61509
  30
0.0
  70
0
  0
VERTEX
  8
a
  10
17.25651
  20
70.45851
  30
0.0
  70
0
  0
VERTEX
  8
a
  10
17.19681
  20
70.30696
  30
0.0
  70
0
  0
VERTEX
  8
a
  10
17.13008
  20
70.16116
  30
0.0
  70
0
  0
VERTEX
  8
a
  10
17.05514
  20
70.02227
  30
0.0
  70
0
  0
VERTEX
  8
a
  10
17.01383
  20
69.95614
  30
0.0
  70
0
  0
VERTEX
  8
a
  10
16.96871
  20
69.89334
  30
0.0
  70
0
  0
VERTEX
  8
a
  10
16.93577
  20
69.81978
  30
0.0
  70
0
  0
VERTEX
  8
a
  10
16.92211
  20
69.78047
  30
0.0
  70
0
  0
VERTEX
  8
a
  10
16.91401
  20
69.73617
  30
0.0
  70
0
  0
VERTEX
  8
a
  10
16.9359
  20
69.66478
  30
0.0
  70
0
  0
VERTEX
  8
a
  10
17.5866
  20
69.01408
  30
0.0
  70
0
  0
VERTEX
  8
a
  10
17.65799
  20
68.99219
  30
0.0
  70
0
  0
VERTEX
  8
a
  10
17.70229
  20
69.00029
  30
0.0
  70
0
  0
VERTEX
  8
a
  10
17.74159
  20
69.01396
  30
0.0
  70
0
  0
VERTEX
  8
a
  10
17.81515
  20
69.0469
  30
0.0
  70
0
  0
VERTEX
  8
a
  10
17.87795
  20
69.09202
  30
0.0
  70
0
  0
VERTEX
  8
a
  10
17.94408
  20
69.13333
  30
0.0
  70
0
  0
VERTEX
  8
a
  10
18.08297
  20
69.20826
  30
0.0
  70
0
  0
VERTEX
  8
a
  10
18.22878
  20
69.27499
  30
0.0
  70
0
  0
VERTEX
  8
a
  10
18.38032
  20
69.33469
  30
0.0
  70
0
  0
VERTEX
  8
a
  10
18.5369
  20
69.38798
  30
0.0
  70
0
  0
VERTEX
  8
a
  10
18.69804
  20
69.43523
  30
0.0
  70
0
  0
VERTEX
  8
a
  10
18.86337
  20
69.4767
  30
0.0
  70
0
  0
VERTEX
  8
a
  10
19.03258
  20
69.51256
  30
0.0
  70
0
  0
VERTEX
  8
a
  10
19.16188
  20
69.53583
  30
0.0
  70
0
  0
VERTEX
  8
a
  10
19.72781
  20
68.7569
  30
0.0
  70
0
  0
VERTEX
  8
a
  10
19.66572
  20
68.64111
  30
0.0
  70
0
  0
VERTEX
  8
a
  10
19.57933
  20
68.49126
  30
0.0
  70
0
  0
VERTEX
  8
a
  10
19.4888
  20
68.34685
  30
0.0
  70
0
  0
VERTEX
  8
a
  10
19.39406
  20
68.2082
  30
0.0
  70
0
  0
VERTEX
  8
a
  10
19.295
  20
68.07574
  30
0.0
  70
0
  0
VERTEX
  8
a
  10
19.19139
  20
67.95007
  30
0.0
  70
0
  0
VERTEX
  8
a
  10
19.08287
  20
67.83202
  30
0.0
  70
0
  0
VERTEX
  8
a
  10
18.96869
  20
67.72308
  30
0.0
  70
0
  0
VERTEX
  8
a
  10
18.90896
  20
67.67295
  30
0.0
  70
0
  0
VERTEX
  8
a
  10
18.84665
  20
67.62717
  30
0.0
  70
0
  0
VERTEX
  8
a
  10
18.79259
  20
67.56739
  30
0.0
  70
0
  0
VERTEX
  8
a
  10
18.76745
  20
67.53423
  30
0.0
  70
0
  0
VERTEX
  8
a
  10
18.74605
  20
67.4946
  30
0.0
  70
0
  0
VERTEX
  8
a
  10
18.74481
  20
67.41994
  30
0.0
  70
0
  0
VERTEX
  8
a
  10
19.16258
  20
66.60001
  30
0.0
  70
0
  0
VERTEX
  8
a
  10
19.22372
  20
66.55713
  30
0.0
  70
0
  0
VERTEX
  8
a
  10
19.26835
  20
66.55115
  30
0.0
  70
0
  0
VERTEX
  8
a
  10
19.30995
  20
66.552
  30
0.0
  70
0
  0
VERTEX
  8
a
  10
19.39009
  20
66.56059
  30
0.0
  70
0
  0
VERTEX
  8
a
  10
19.46376
  20
66.5841
  30
0.0
  70
0
  0
VERTEX
  8
a
  10
19.53942
  20
66.60295
  30
0.0
  70
0
  0
VERTEX
  8
a
  10
19.69467
  20
66.6313
  30
0.0
  70
0
  0
VERTEX
  8
a
  10
19.85396
  20
66.64971
  30
0.0
  70
0
  0
VERTEX
  8
a
  10
20.01653
  20
66.65965
  30
0.0
  70
0
  0
VERTEX
  8
a
  10
20.18192
  20
66.66195
  30
0.0
  70
0
  0
VERTEX
  8
a
  10
20.34977
  20
66.65709
  30
0.0
  70
0
  0
VERTEX
  8
a
  10
20.51982
  20
66.64544
  30
0.0
  70
0
  0
VERTEX
  8
a
  10
20.69183
  20
66.62725
  30
0.0
  70
0
  0
VERTEX
  8
a
  10
20.822
  20
66.60943
  30
0.0
  70
0
  0
VERTEX
  8
a
  10
21.11952
  20
65.69374
  30
0.0
  70
0
  0
VERTEX
  8
a
  10
21.02469
  20
65.60281
  30
0.0
  70
0
  0
VERTEX
  8
a
  10
20.89622
  20
65.48699
  30
0.0
  70
0
  0
VERTEX
  8
a
  10
20.7655
  20
65.37762
  30
0.0
  70
0
  0
VERTEX
  8
a
  10
20.63256
  20
65.27503
  30
0.0
  70
0
  0
VERTEX
  8
a
  10
20.49741
  20
65.17967
  30
0.0
  70
0
  0
VERTEX
  8
a
  10
20.36004
  20
65.09216
  30
0.0
  70
0
  0
VERTEX
  8
a
  10
20.22035
  20
65.01343
  30
0.0
  70
0
  0
VERTEX
  8
a
  10
20.07809
  20
64.9451
  30
0.0
  70
0
  0
VERTEX
  8
a
  10
20.0058
  20
64.91589
  30
0.0
  70
0
  0
VERTEX
  8
a
  10
19.93238
  20
64.8916
  30
0.0
  70
0
  0
VERTEX
  8
a
  10
19.86249
  20
64.85145
  30
0.0
  70
0
  0
VERTEX
  8
a
  10
19.82834
  20
64.82769
  30
0.0
  70
0
  0
VERTEX
  8
a
  10
19.79575
  20
64.79661
  30
0.0
  70
0
  0
VERTEX
  8
a
  10
19.77149
  20
64.72598
  30
0.0
  70
0
  0
SEQEND
  0
CIRCLE
  8
a
  10
10.75367
  20
62.83185
  30
0.0
  40
0.5
 0
LINE
 8
c
 10
19.85482
 20
61.39037
 30
0
 11
21.37494
 21
61.14961
 31
 0
 0
LINE
 8
c
 10
18.96394
 20
58.64851
 30
0
 11
20.33526
 21
57.94979
 31
 0
 0
LINE
 8
c
 10
17.26938
 20
56.31615
 30
0
 11
18.35766
 21
55.22786
 31
 0
 0
LINE
 8
c
 10
14.93701
 20
54.62158
 30
0
 11
15.63573
 21
53.25026
 31
 0
 0
LINE
 8
c
 10
12.19515
 20
53.7307
 30
0
 11
12.43591
 21
52.21058
 31
 0
 0
LINE
 8
c
 10
9.31219
 20
53.7307
 30
0
 11
9.07142
 21
52.21058
 31
 0
 0
LINE
 8
c
 10
6.57033
 20
54.62158
 30
0
 11
5.8716
 21
53.25026
 31
 0
 0
LINE
 8
c
 10
4.23796
 20
56.31615
 30
0
 11
3.14968
 21
55.22786
 31
 0
 0
LINE
 8
c
 10
2.5434
 20
58.64851
 30
0
 11
1.17208
 21
57.94979
 31
 0
 0
LINE
 8
c
 10
1.65251
 20
61.39037
 30
0
 11
0.1324
 21
61.14961
 31
 0
 0
LINE
 8
c
 10
1.65251
 20
64.27333
 30
0
 11
0.1324
 21
64.5141
 31
 0
 0
LINE
 8
c
 10
2.5434
 20
67.01519
 30
0
 11
1.17208
 21
67.71392
 31
 0
 0
LINE
 8
c
 10
4.23796
 20
69.34756
 30
0
 11
3.14968
 21
70.43584
 31
 0
 0
LINE
 8
c
 10
6.57033
 20
71.04212
 30
0
 11
5.8716
 21
72.41344
 31
 0
 0
LINE
 8
c
 10
9.31219
 20
71.93301
 30
0
 11
9.07142
 21
73.45313
 31
 0
 0
LINE
 8
c
 10
12.19515
 20
71.93301
 30
0
 11
12.43591
 21
73.45313
 31
 0
 0
LINE
 8
c
 10
14.93701
 20
71.04212
 30
0
 11
15.63573
 21
72.41344
 31
 0
 0
LINE
 8
c
 10
17.26938
 20
69.34756
 30
0
 11
18.35766
 21
70.43584
 31
 0
 0
LINE
 8
c
 10
18.96394
 20
67.01519
 30
0
 11
20.33526
 21
67.71392
 31
 0
 0
LINE
 8
c
 10
19.85482
 20
64.27333
 30
0
 11
21.37494
 21
64.5141
 31
 0
  0
CIRCLE
  8
c
  10
10.75367
  20
62.83185
  30
0.0
  40
10
 0
LINE
 8
a
 10
7.16911
 20
62.83185
 30
0
 11
14.33822
 21
62.83185
 31
 0
 0
LINE
 8
a
 10
10.75367
 20
59.2473
 30
0
 11
10.75367
 21
66.41641
 31
 0
 0
LINE
 8
c
 10
19.18287
 20
1.5708
 30
0
 11
22.32446
 21
1.5708
 31
 0
 0
LINE
 8
c
 10
19.18287
 20
4.71239
 30
0
 11
22.32446
 21
4.71239
 31
 0
 0
LINE
 8
c
 10
19.18287
 20
7.85398
 30
0
 11
22.32446
 21
7.85398
 31
 0
 0
LINE
 8
c
 10
19.18287
 20
10.99557
 30
0
 11
22.32446
 21
10.99557
 31
 0
 0
LINE
 8
c
 10
19.18287
 20
14.13717
 30
0
 11
22.32446
 21
14.13717
 31
 0
 0
LINE
 8
c
 10
19.18287
 20
17.27876
 30
0
 11
22.32446
 21
17.27876
 31
 0
 0
LINE
 8
c
 10
19.18287
 20
20.42035
 30
0
 11
22.32446
 21
20.42035
 31
 0
 0
LINE
 8
c
 10
19.18287
 20
23.56194
 30
0
 11
22.32446
 21
23.56194
 31
 0
 0
LINE
 8
c
 10
19.18287
 20
26.70354
 30
0
 11
22.32446
 21
26.70354
 31
 0
 0
LINE
 8
c
 10
19.18287
 20
29.84513
 30
0
 11
22.32446
 21
29.84513
 31
 0
 0
LINE
 8
c
 10
19.18287
 20
32.98672
 30
0
 11
22.32446
 21
32.98672
 31
 0
 0
LINE
 8
c
 10
19.18287
 20
36.12832
 30
0
 11
22.32446
 21
36.12832
 31
 0
 0
LINE
 8
c
 10
19.18287
 20
39.26991
 30
0
 11
22.32446
 21
39.26991
 31
 0
 0
LINE
 8
c
 10
19.18287
 20
42.4115
 30
0
 11
22.32446
 21
42.4115
 31
 0
 0
LINE
 8
c
 10
19.18287
 20
45.55309
 30
0
 11
22.32446
 21
45.55309
 31
 0
 0
LINE
 8
c
 10
19.18287
 20
48.69469
 30
0
 11
22.32446
 21
48.69469
 31
 0
 0
LINE
 8
c
 10
19.18287
 20
51.83628
 30
0
 11
22.32446
 21
51.83628
 31
 0
 0
LINE
 8
c
 10
19.18287
 20
54.97787
 30
0
 11
22.32446
 21
54.97787
 31
 0
 0
LINE
 8
c
 10
19.18287
 20
58.11946
 30
0
 11
22.32446
 21
58.11946
 31
 0
 0
LINE
 8
c
 10
19.18287
 20
61.26106
 30
0
 11
22.32446
 21
61.26106
 31
 0
 0
LINE
 8
c
 10
19.18287
 20
64.40265
 30
0
 11
22.32446
 21
64.40265
 31
 0
 0
LINE
 8
c
 10
19.18287
 20
67.54424
 30
0
 11
22.32446
 21
67.54424
 31
 0
 0
LINE
 8
c
 10
19.18287
 20
70.68583
 30
0
 11
22.32446
 21
70.68583
 31
 0
 0
LINE
 8
c
 10
19.18287
 20
73.82743
 30
0
 11
22.32446
 21
73.82743
 31
 0
 0
LINE
 8
c
 10
19.18287
 20
76.96902
 30
0
 11
22.32446
 21
76.96902
 31
 0
 0
LINE
 8
c
 10
19.18287
 20
80.11061
 30
0
 11
22.32446
 21
80.11061
 31
 0
 0
LINE
 8
c
 10
19.18287
 20
83.25221
 30
0
 11
22.32446
 21
83.25221
 31
 0
 0
LINE
 8
c
 10
19.18287
 20
86.3938
 30
0
 11
22.32446
 21
86.3938
 31
 0
 0
LINE
 8
c
 10
19.18287
 20
89.53539
 30
0
 11
22.32446
 21
89.53539
 31
 0
 0
LINE
 8
c
 10
19.18287
 20
92.67698
 30
0
 11
22.32446
 21
92.67698
 31
 0
 0
LINE
 8
c
 10
19.18287
 20
95.81858
 30
0
 11
22.32446
 21
95.81858
 31
 0
 0
LINE
 8
c
 10
19.18287
 20
98.96017
 30
0
 11
22.32446
 21
98.96017
 31
 0
 0
LINE
 8
c
 10
19.18287
 20
102.10176
 30
0
 11
22.32446
 21
102.10176
 31
 0
 0
LINE
 8
c
 10
19.18287
 20
105.24335
 30
0
 11
22.32446
 21
105.24335
 31
 0
 0
LINE
 8
c
 10
19.18287
 20
108.38495
 30
0
 11
22.32446
 21
108.38495
 31
 0
 0
LINE
 8
c
 10
19.18287
 20
111.52654
 30
0
 11
22.32446
 21
111.52654
 31
 0
 0
LINE
 8
c
 10
19.18287
 20
114.66813
 30
0
 11
22.32446
 21
114.66813
 31
 0
 0
LINE
 8
c
 10
19.18287
 20
117.80972
 30
0
 11
22.32446
 21
117.80972
 31
 0
 0
LINE
 8
c
 10
19.18287
 20
120.95132
 30
0
 11
22.32446
 21
120.95132
 31
 0
 0
LINE
 8
c
 10
19.18287
 20
124.09291
 30
0
 11
22.32446
 21
124.09291
 31
 0
 0
LINE
 8
c
 10
19.18287
 20
127.2345
 30
0
 11
22.32446
 21
127.2345
 31
 0
 0
LINE
 8
c
 10
20.75367
 20
0
 30
0
 11
20.75367
 21
125.66371
 31
 0
 0
LINE
 8
a
 10
19.96827
 20
2.07033
 30
0
 11
19.96827
 21
1.07126
 31
 0
 0
LINE
 8
a
 10
19.96827
 20
1.07126
 30
0
 11
21.50734
 21
0.51109
 31
 0
 0
LINE
 8
a
 10
21.50734
 20
0.51109
 30
0
 11
21.50734
 21
-0.51109
 31
 0
 0
LINE
 8
a
 10
21.50734
 20
-0.51109
 30
0
 11
19.96827
 21
-1.07126
 31
 0
 0
LINE
 8
a
 10
19.96827
 20
5.21193
 30
0
 11
19.96827
 21
4.21285
 31
 0
 0
LINE
 8
a
 10
19.96827
 20
4.21285
 30
0
 11
21.50734
 21
3.65268
 31
 0
 0
LINE
 8
a
 10
21.50734
 20
3.65268
 30
0
 11
21.50734
 21
2.63051
 31
 0
 0
LINE
 8
a
 10
21.50734
 20
2.63051
 30
0
 11
19.96827
 21
2.07033
 31
 0
 0
LINE
 8
a
 10
19.96827
 20
8.35352
 30
0
 11
19.96827
 21
7.35445
 31
 0
 0
LINE
 8
a
 10
19.96827
 20
7.35445
 30
0
 11
21.50734
 21
6.79427
 31
 0
 0
LINE
 8
a
 10
21.50734
 20
6.79427
 30
0
 11
21.50734
 21
5.7721
 31
 0
 0
LINE
 8
a
 10
21.50734
 20
5.7721
 30
0
 11
19.96827
 21
5.21193
 31
 0
 0
LINE
 8
a
 10
19.96827
 20
11.49511
 30
0
 11
19.96827
 21
10.49604
 31
 0
 0
LINE
 8
a
 10
19.96827
 20
10.49604
 30
0
 11
21.50734
 21
9.93586
 31
 0
 0
LINE
 8
a
 10
21.50734
 20
9.93586
 30
0
 11
21.50734
 21
8.91369
 31
 0
 0
LINE
 8
a
 10
21.50734
 20
8.91369
 30
0
 11
19.96827
 21
8.35352
 31
 0
 0
LINE
 8
a
 10
19.96827
 20
14.6367
 30
0
 11
19.96827
 21
13.63763
 31
 0
 0
LINE
 8
a
 10
19.96827
 20
13.63763
 30
0
 11
21.50734
 21
13.07746
 31
 0
 0
LINE
 8
a
 10
21.50734
 20
13.07746
 30
0
 11
21.50734
 21
12.05529
 31
 0
 0
LINE
 8
a
 10
21.50734
 20
12.05529
 30
0
 11
19.96827
 21
11.49511
 31
 0
 0
LINE
 8
a
 10
19.96827
 20
17.7783
 30
0
 11
19.96827
 21
16.77922
 31
 0
 0
LINE
 8
a
 10
19.96827
 20
16.77922
 30
0
 11
21.50734
 21
16.21905
 31
 0
 0
LINE
 8
a
 10
21.50734
 20
16.21905
 30
0
 11
21.50734
 21
15.19688
 31
 0
 0
LINE
 8
a
 10
21.50734
 20
15.19688
 30
0
 11
19.96827
 21
14.6367
 31
 0
 0
LINE
 8
a
 10
19.96827
 20
20.91989
 30
0
 11
19.96827
 21
19.92082
 31
 0
 0
LINE
 8
a
 10
19.96827
 20
19.92082
 30
0
 11
21.50734
 21
19.36064
 31
 0
 0
LINE
 8
a
 10
21.50734
 20
19.36064
 30
0
 11
21.50734
 21
18.33847
 31
 0
 0
LINE
 8
a
 10
21.50734
 20
18.33847
 30
0
 11
19.96827
 21
17.7783
 31
 0
 0
LINE
 8
a
 10
19.96827
 20
24.06148
 30
0
 11
19.96827
 21
23.06241
 31
 0
 0
LINE
 8
a
 10
19.96827
 20
23.06241
 30
0
 11
21.50734
 21
22.50223
 31
 0
 0
LINE
 8
a
 10
21.50734
 20
22.50223
 30
0
 11
21.50734
 21
21.48006
 31
 0
 0
LINE
 8
a
 10
21.50734
 20
21.48006
 30
0
 11
19.96827
 21
20.91989
 31
 0
 0
LINE
 8
a
 10
19.96827
 20
27.20307
 30
0
 11
19.96827
 21
26.204
 31
 0
 0
LINE
 8
a
 10
19.96827
 20
26.204
 30
0
 11
21.50734
 21
25.64383
 31
 0
 0
LINE
 8
a
 10
21.50734
 20
25.64383
 30
0
 11
21.50734
 21
24.62166
 31
 0
 0
LINE
 8
a
 10
21.50734
 20
24.62166
 30
0
 11
19.96827
 21
24.06148
 31
 0
 0
LINE
 8
a
 10
19.96827
 20
30.34467
 30
0
 11
19.96827
 21
29.34559
 31
 0
 0
LINE
 8
a
 10
19.96827
 20
29.34559
 30
0
 11
21.50734
 21
28.78542
 31
 0
 0
LINE
 8
a
 10
21.50734
 20
28.78542
 30
0
 11
21.50734
 21
27.76325
 31
 0
 0
LINE
 8
a
 10
21.50734
 20
27.76325
 30
0
 11
19.96827
 21
27.20307
 31
 0
 0
LINE
 8
a
 10
19.96827
 20
33.48626
 30
0
 11
19.96827
 21
32.48719
 31
 0
 0
LINE
 8
a
 10
19.96827
 20
32.48719
 30
0
 11
21.50734
 21
31.92701
 31
 0
 0
LINE
 8
a
 10
21.50734
 20
31.92701
 30
0
 11
21.50734
 21
30.90484
 31
 0
 0
LINE
 8
a
 10
21.50734
 20
30.90484
 30
0
 11
19.96827
 21
30.34467
 31
 0
 0
LINE
 8
a
 10
19.96827
 20
36.62785
 30
0
 11
19.96827
 21
35.62878
 31
 0
 0
LINE
 8
a
 10
19.96827
 20
35.62878
 30
0
 11
21.50734
 21
35.0686
 31
 0
 0
LINE
 8
a
 10
21.50734
 20
35.0686
 30
0
 11
21.50734
 21
34.04643
 31
 0
 0
LINE
 8
a
 10
21.50734
 20
34.04643
 30
0
 11
19.96827
 21
33.48626
 31
 0
 0
LINE
 8
a
 10
19.96827
 20
39.76944
 30
0
 11
19.96827
 21
38.77037
 31
 0
 0
LINE
 8
a
 10
19.96827
 20
38.77037
 30
0
 11
21.50734
 21
38.2102
 31
 0
 0
LINE
 8
a
 10
21.50734
 20
38.2102
 30
0
 11
21.50734
 21
37.18803
 31
 0
 0
LINE
 8
a
 10
21.50734
 20
37.18803
 30
0
 11
19.96827
 21
36.62785
 31
 0
 0
LINE
 8
a
 10
19.96827
 20
42.91104
 30
0
 11
19.96827
 21
41.91196
 31
 0
 0
LINE
 8
a
 10
19.96827
 20
41.91196
 30
0
 11
21.50734
 21
41.35179
 31
 0
 0
LINE
 8
a
 10
21.50734
 20
41.35179
 30
0
 11
21.50734
 21
40.32962
 31
 0
 0
LINE
 8
a
 10
21.50734
 20
40.32962
 30
0
 11
19.96827
 21
39.76944
 31
 0
 0
LINE
 8
a
 10
19.96827
 20
46.05263
 30
0
 11
19.96827
 21
45.05356
 31
 0
 0
LINE
 8
a
 10
19.96827
 20
45.05356
 30
0
 11
21.50734
 21
44.49338
 31
 0
 0
LINE
 8
a
 10
21.50734
 20
44.49338
 30
0
 11
21.50734
 21
43.47121
 31
 0
 0
LINE
 8
a
 10
21.50734
 20
43.47121
 30
0
 11
19.96827
 21
42.91104
 31
 0
 0
LINE
 8
a
 10
19.96827
 20
49.19422
 30
0
 11
19.96827
 21
48.19515
 31
 0
 0
LINE
 8
a
 10
19.96827
 20
48.19515
 30
0
 11
21.50734
 21
47.63498
 31
 0
 0
LINE
 8
a
 10
21.50734
 20
47.63498
 30
0
 11
21.50734
 21
46.6128
 31
 0
 0
LINE
 8
a
 10
21.50734
 20
46.6128
 30
0
 11
19.96827
 21
46.05263
 31
 0
 0
LINE
 8
a
 10
19.96827
 20
52.33582
 30
0
 11
19.96827
 21
51.33674
 31
 0
 0
LINE
 8
a
 10
19.96827
 20
51.33674
 30
0
 11
21.50734
 21
50.77657
 31
 0
 0
LINE
 8
a
 10
21.50734
 20
50.77657
 30
0
 11
21.50734
 21
49.7544
 31
 0
 0
LINE
 8
a
 10
21.50734
 20
49.7544
 30
0
 11
19.96827
 21
49.19422
 31
 0
 0
LINE
 8
a
 10
19.96827
 20
55.47741
 30
0
 11
19.96827
 21
54.47833
 31
 0
 0
LINE
 8
a
 10
19.96827
 20
54.47833
 30
0
 11
21.50734
 21
53.91816
 31
 0
 0
LINE
 8
a
 10
21.50734
 20
53.91816
 30
0
 11
21.50734
 21
52.89599
 31
 0
 0
LINE
 8
a
 10
21.50734
 20
52.89599
 30
0
 11
19.96827
 21
52.33582
 31
 0
 0
LINE
 8
a
 10
19.96827
 20
58.619
 30
0
 11
19.96827
 21
57.61993
 31
 0
 0
LINE
 8
a
 10
19.96827
 20
57.61993
 30
0
 11
21.50734
 21
57.05975
 31
 0
 0
LINE
 8
a
 10
21.50734
 20
57.05975
 30
0
 11
21.50734
 21
56.03758
 31
 0
 0
LINE
 8
a
 10
21.50734
 20
56.03758
 30
0
 11
19.96827
 21
55.47741
 31
 0
 0
LINE
 8
a
 10
19.96827
 20
61.76059
 30
0
 11
19.96827
 21
60.76152
 31
 0
 0
LINE
 8
a
 10
19.96827
 20
60.76152
 30
0
 11
21.50734
 21
60.20135
 31
 0
 0
LINE
 8
a
 10
21.50734
 20
60.20135
 30
0
 11
21.50734
 21
59.17918
 31
 0
 0
LINE
 8
a
 10
21.50734
 20
59.17918
 30
0
 11
19.96827
 21
58.619
 31
 0
 0
LINE
 8
a
 10
19.96827
 20
64.90219
 30
0
 11
19.96827
 21
63.90311
 31
 0
 0
LINE
 8
a
 10
19.96827
 20
63.90311
 30
0
 11
21.50734
 21
63.34294
 31
 0
 0
LINE
 8
a
 10
21.50734
 20
63.34294
 30
0
 11
21.50734
 21
62.32077
 31
 0
 0
LINE
 8
a
 10
21.50734
 20
62.32077
 30
0
 11
19.96827
 21
61.76059
 31
 0
 0
LINE
 8
a
 10
19.96827
 20
68.04378
 30
0
 11
19.96827
 21
67.04471
 31
 0
 0
LINE
 8
a
 10
19.96827
 20
67.04471
 30
0
 11
21.50734
 21
66.48453
 31
 0
 0
LINE
 8
a
 10
21.50734
 20
66.48453
 30
0
 11
21.50734
 21
65.46236
 31
 0
 0
LINE
 8
a
 10
21.50734
 20
65.46236
 30
0
 11
19.96827
 21
64.90219
 31
 0
 0
LINE
 8
a
 10
19.96827
 20
71.18537
 30
0
 11
19.96827
 21
70.1863
 31
 0
 0
LINE
 8
a
 10
19.96827
 20
70.1863
 30
0
 11
21.50734
 21
69.62612
 31
 0
 0
LINE
 8
a
 10
21.50734
 20
69.62612
 30
0
 11
21.50734
 21
68.60395
 31
 0
 0
LINE
 8
a
 10
21.50734
 20
68.60395
 30
0
 11
19.96827
 21
68.04378
 31
 0
 0
LINE
 8
a
 10
19.96827
 20
74.32696
 30
0
 11
19.96827
 21
73.32789
 31
 0
 0
LINE
 8
a
 10
19.96827
 20
73.32789
 30
0
 11
21.50734
 21
72.76772
 31
 0
 0
LINE
 8
a
 10
21.50734
 20
72.76772
 30
0
 11
21.50734
 21
71.74555
 31
 0
 0
LINE
 8
a
 10
21.50734
 20
71.74555
 30
0
 11
19.96827
 21
71.18537
 31
 0
 0
LINE
 8
a
 10
19.96827
 20
77.46856
 30
0
 11
19.96827
 21
76.46948
 31
 0
 0
LINE
 8
a
 10
19.96827
 20
76.46948
 30
0
 11
21.50734
 21
75.90931
 31
 0
 0
LINE
 8
a
 10
21.50734
 20
75.90931
 30
0
 11
21.50734
 21
74.88714
 31
 0
 0
LINE
 8
a
 10
21.50734
 20
74.88714
 30
0
 11
19.96827
 21
74.32696
 31
 0
 0
LINE
 8
a
 10
19.96827
 20
80.61015
 30
0
 11
19.96827
 21
79.61108
 31
 0
 0
LINE
 8
a
 10
19.96827
 20
79.61108
 30
0
 11
21.50734
 21
79.0509
 31
 0
 0
LINE
 8
a
 10
21.50734
 20
79.0509
 30
0
 11
21.50734
 21
78.02873
 31
 0
 0
LINE
 8
a
 10
21.50734
 20
78.02873
 30
0
 11
19.96827
 21
77.46856
 31
 0
 0
LINE
 8
a
 10
19.96827
 20
83.75174
 30
0
 11
19.96827
 21
82.75267
 31
 0
 0
LINE
 8
a
 10
19.96827
 20
82.75267
 30
0
 11
21.50734
 21
82.19249
 31
 0
 0
LINE
 8
a
 10
21.50734
 20
82.19249
 30
0
 11
21.50734
 21
81.17032
 31
 0
 0
LINE
 8
a
 10
21.50734
 20
81.17032
 30
0
 11
19.96827
 21
80.61015
 31
 0
 0
LINE
 8
a
 10
19.96827
 20
86.89333
 30
0
 11
19.96827
 21
85.89426
 31
 0
 0
LINE
 8
a
 10
19.96827
 20
85.89426
 30
0
 11
21.50734
 21
85.33409
 31
 0
 0
LINE
 8
a
 10
21.50734
 20
85.33409
 30
0
 11
21.50734
 21
84.31192
 31
 0
 0
LINE
 8
a
 10
21.50734
 20
84.31192
 30
0
 11
19.96827
 21
83.75174
 31
 0
 0
LINE
 8
a
 10
19.96827
 20
90.03493
 30
0
 11
19.96827
 21
89.03585
 31
 0
 0
LINE
 8
a
 10
19.96827
 20
89.03585
 30
0
 11
21.50734
 21
88.47568
 31
 0
 0
LINE
 8
a
 10
21.50734
 20
88.47568
 30
0
 11
21.50734
 21
87.45351
 31
 0
 0
LINE
 8
a
 10
21.50734
 20
87.45351
 30
0
 11
19.96827
 21
86.89333
 31
 0
 0
LINE
 8
a
 10
19.96827
 20
93.17652
 30
0
 11
19.96827
 21
92.17745
 31
 0
 0
LINE
 8
a
 10
19.96827
 20
92.17745
 30
0
 11
21.50734
 21
91.61727
 31
 0
 0
LINE
 8
a
 10
21.50734
 20
91.61727
 30
0
 11
21.50734
 21
90.5951
 31
 0
 0
LINE
 8
a
 10
21.50734
 20
90.5951
 30
0
 11
19.96827
 21
90.03493
 31
 0
 0
LINE
 8
a
 10
19.96827
 20
96.31811
 30
0
 11
19.96827
 21
95.31904
 31
 0
 0
LINE
 8
a
 10
19.96827
 20
95.31904
 30
0
 11
21.50734
 21
94.75887
 31
 0
 0
LINE
 8
a
 10
21.50734
 20
94.75887
 30
0
 11
21.50734
 21
93.73669
 31
 0
 0
LINE
 8
a
 10
21.50734
 20
93.73669
 30
0
 11
19.96827
 21
93.17652
 31
 0
 0
LINE
 8
a
 10
19.96827
 20
99.45971
 30
0
 11
19.96827
 21
98.46063
 31
 0
 0
LINE
 8
a
 10
19.96827
 20
98.46063
 30
0
 11
21.50734
 21
97.90046
 31
 0
 0
LINE
 8
a
 10
21.50734
 20
97.90046
 30
0
 11
21.50734
 21
96.87829
 31
 0
 0
LINE
 8
a
 10
21.50734
 20
96.87829
 30
0
 11
19.96827
 21
96.31811
 31
 0
 0
LINE
 8
a
 10
19.96827
 20
102.6013
 30
0
 11
19.96827
 21
101.60222
 31
 0
 0
LINE
 8
a
 10
19.96827
 20
101.60222
 30
0
 11
21.50734
 21
101.04205
 31
 0
 0
LINE
 8
a
 10
21.50734
 20
101.04205
 30
0
 11
21.50734
 21
100.01988
 31
 0
 0
LINE
 8
a
 10
21.50734
 20
100.01988
 30
0
 11
19.96827
 21
99.45971
 31
 0
 0
LINE
 8
a
 10
19.96827
 20
105.74289
 30
0
 11
19.96827
 21
104.74382
 31
 0
 0
LINE
 8
a
 10
19.96827
 20
104.74382
 30
0
 11
21.50734
 21
104.18364
 31
 0
 0
LINE
 8
a
 10
21.50734
 20
104.18364
 30
0
 11
21.50734
 21
103.16147
 31
 0
 0
LINE
 8
a
 10
21.50734
 20
103.16147
 30
0
 11
19.96827
 21
102.6013
 31
 0
 0
LINE
 8
a
 10
19.96827
 20
108.88448
 30
0
 11
19.96827
 21
107.88541
 31
 0
 0
LINE
 8
a
 10
19.96827
 20
107.88541
 30
0
 11
21.50734
 21
107.32524
 31
 0
 0
LINE
 8
a
 10
21.50734
 20
107.32524
 30
0
 11
21.50734
 21
106.30306
 31
 0
 0
LINE
 8
a
 10
21.50734
 20
106.30306
 30
0
 11
19.96827
 21
105.74289
 31
 0
 0
LINE
 8
a
 10
19.96827
 20
112.02608
 30
0
 11
19.96827
 21
111.027
 31
 0
 0
LINE
 8
a
 10
19.96827
 20
111.027
 30
0
 11
21.50734
 21
110.46683
 31
 0
 0
LINE
 8
a
 10
21.50734
 20
110.46683
 30
0
 11
21.50734
 21
109.44466
 31
 0
 0
LINE
 8
a
 10
21.50734
 20
109.44466
 30
0
 11
19.96827
 21
108.88448
 31
 0
 0
LINE
 8
a
 10
19.96827
 20
115.16767
 30
0
 11
19.96827
 21
114.1686
 31
 0
 0
LINE
 8
a
 10
19.96827
 20
114.1686
 30
0
 11
21.50734
 21
113.60842
 31
 0
 0
LINE
 8
a
 10
21.50734
 20
113.60842
 30
0
 11
21.50734
 21
112.58625
 31
 0
 0
LINE
 8
a
 10
21.50734
 20
112.58625
 30
0
 11
19.96827
 21
112.02608
 31
 0
 0
LINE
 8
a
 10
19.96827
 20
118.30926
 30
0
 11
19.96827
 21
117.31019
 31
 0
 0
LINE
 8
a
 10
19.96827
 20
117.31019
 30
0
 11
21.50734
 21
116.75001
 31
 0
 0
LINE
 8
a
 10
21.50734
 20
116.75001
 30
0
 11
21.50734
 21
115.72784
 31
 0
 0
LINE
 8
a
 10
21.50734
 20
115.72784
 30
0
 11
19.96827
 21
115.16767
 31
 0
 0
LINE
 8
a
 10
19.96827
 20
121.45085
 30
0
 11
19.96827
 21
120.45178
 31
 0
 0
LINE
 8
a
 10
19.96827
 20
120.45178
 30
0
 11
21.50734
 21
119.89161
 31
 0
 0
LINE
 8
a
 10
21.50734
 20
119.89161
 30
0
 11
21.50734
 21
118.86944
 31
 0
 0
LINE
 8
a
 10
21.50734
 20
118.86944
 30
0
 11
19.96827
 21
118.30926
 31
 0
 0
LINE
 8
a
 10
19.96827
 20
124.59245
 30
0
 11
19.96827
 21
123.59337
 31
 0
 0
LINE
 8
a
 10
19.96827
 20
123.59337
 30
0
 11
21.50734
 21
123.0332
 31
 0
 0
LINE
 8
a
 10
21.50734
 20
123.0332
 30
0
 11
21.50734
 21
122.01103
 31
 0
 0
LINE
 8
a
 10
21.50734
 20
122.01103
 30
0
 11
19.96827
 21
121.45085
 31
 0
 0
LINE
 8
a
 10
19.96827
 20
127.73404
 30
0
 11
19.96827
 21
126.73497
 31
 0
 0
LINE
 8
a
 10
19.96827
 20
126.73497
 30
0
 11
21.50734
 21
126.17479
 31
 0
 0
LINE
 8
a
 10
21.50734
 20
126.17479
 30
0
 11
21.50734
 21
125.15262
 31
 0
 0
LINE
 8
a
 10
21.50734
 20
125.15262
 30
0
 11
19.96827
 21
124.59245
 31
 0
  0
TEXT
  8
labels
  10
0.0
  20
0.0
  30
0.0
  40
0.1
  1
G1:Toothspacing=3.14  Teeth=20  Spur gear  Angle=20.0  Addendum=.2
  41
1.0
  7
ARIAL
  0
ENDSEC
  0
EOF
