  999
DXF file created by gear template generator. 2019-01-25T12:18:52
  0
SECTION
  2
HEADER
  9
$MEASUREMENT
  70
1
  0
ENDSEC
  0
SECTION
  2
TABLES
  0
TABLE
  2
LTYPE
  70
1
  0
LTYPE
  2
Continuous
  3
_
  70
0
  72
65
  73
0
  40
0.0
  0
ENDTAB
  0
TABLE
  2
LAYER
  70
4
  0
LAYER
  2
profile
  70
0
  62
7
  6
Continuous
  0
LAYER
  2
construction
  70
0
  62
5
  6
Continuous
  0
LAYER
  2
grid
  70
0
  62
3
  6
Continuous
  0
LAYER
  2
labels
  70
0
  62
1
  6
Continuous
  0
ENDTAB
  0
TABLE
  2
STYLE
  70
1
  0
STYLE
  2
ARIAL
  3
Arial.ttf
  70
0
  40
0.0
  41
1.0
  50
0.0
  71
0
  42
1.0
  0
ENDTAB
  0
ENDSEC
  0
SECTION
  2
ENTITIES
 0
LINE
 8
b
 10
0.51327
 20
0
 30
0
 11
0.51327
 21
125.66371
 31
 0
 0
LINE
 8
b
 10
1.51327
 20
0
 30
0
 11
1.51327
 21
125.66371
 31
 0
 0
LINE
 8
b
 10
2.51327
 20
0
 30
0
 11
2.51327
 21
125.66371
 31
 0
 0
LINE
 8
b
 10
3.51327
 20
0
 30
0
 11
3.51327
 21
125.66371
 31
 0
 0
LINE
 8
b
 10
4.51327
 20
0
 30
0
 11
4.51327
 21
125.66371
 31
 0
 0
LINE
 8
b
 10
0
 20
0.83185
 30
0
 11
5.02655
 21
0.83185
 31
 0
 0
LINE
 8
b
 10
0
 20
1.83185
 30
0
 11
5.02655
 21
1.83185
 31
 0
 0
LINE
 8
b
 10
0
 20
2.83185
 30
0
 11
5.02655
 21
2.83185
 31
 0
 0
LINE
 8
b
 10
0
 20
3.83185
 30
0
 11
5.02655
 21
3.83185
 31
 0
 0
LINE
 8
b
 10
0
 20
4.83185
 30
0
 11
5.02655
 21
4.83185
 31
 0
 0
LINE
 8
b
 10
0
 20
5.83185
 30
0
 11
5.02655
 21
5.83185
 31
 0
 0
LINE
 8
b
 10
0
 20
6.83185
 30
0
 11
5.02655
 21
6.83185
 31
 0
 0
LINE
 8
b
 10
0
 20
7.83185
 30
0
 11
5.02655
 21
7.83185
 31
 0
 0
LINE
 8
b
 10
0
 20
8.83185
 30
0
 11
5.02655
 21
8.83185
 31
 0
 0
LINE
 8
b
 10
0
 20
9.83185
 30
0
 11
5.02655
 21
9.83185
 31
 0
 0
LINE
 8
b
 10
0
 20
10.83185
 30
0
 11
5.02655
 21
10.83185
 31
 0
 0
LINE
 8
b
 10
0
 20
11.83185
 30
0
 11
5.02655
 21
11.83185
 31
 0
 0
LINE
 8
b
 10
0
 20
12.83185
 30
0
 11
5.02655
 21
12.83185
 31
 0
 0
LINE
 8
b
 10
0
 20
13.83185
 30
0
 11
5.02655
 21
13.83185
 31
 0
 0
LINE
 8
b
 10
0
 20
14.83185
 30
0
 11
5.02655
 21
14.83185
 31
 0
 0
LINE
 8
b
 10
0
 20
15.83185
 30
0
 11
5.02655
 21
15.83185
 31
 0
 0
LINE
 8
b
 10
0
 20
16.83185
 30
0
 11
5.02655
 21
16.83185
 31
 0
 0
LINE
 8
b
 10
0
 20
17.83185
 30
0
 11
5.02655
 21
17.83185
 31
 0
 0
LINE
 8
b
 10
0
 20
18.83185
 30
0
 11
5.02655
 21
18.83185
 31
 0
 0
LINE
 8
b
 10
0
 20
19.83185
 30
0
 11
5.02655
 21
19.83185
 31
 0
 0
LINE
 8
b
 10
0
 20
20.83185
 30
0
 11
5.02655
 21
20.83185
 31
 0
 0
LINE
 8
b
 10
0
 20
21.83185
 30
0
 11
5.02655
 21
21.83185
 31
 0
 0
LINE
 8
b
 10
0
 20
22.83185
 30
0
 11
5.02655
 21
22.83185
 31
 0
 0
LINE
 8
b
 10
0
 20
23.83185
 30
0
 11
5.02655
 21
23.83185
 31
 0
 0
LINE
 8
b
 10
0
 20
24.83185
 30
0
 11
5.02655
 21
24.83185
 31
 0
 0
LINE
 8
b
 10
0
 20
25.83185
 30
0
 11
5.02655
 21
25.83185
 31
 0
 0
LINE
 8
b
 10
0
 20
26.83185
 30
0
 11
5.02655
 21
26.83185
 31
 0
 0
LINE
 8
b
 10
0
 20
27.83185
 30
0
 11
5.02655
 21
27.83185
 31
 0
 0
LINE
 8
b
 10
0
 20
28.83185
 30
0
 11
5.02655
 21
28.83185
 31
 0
 0
LINE
 8
b
 10
0
 20
29.83185
 30
0
 11
5.02655
 21
29.83185
 31
 0
 0
LINE
 8
b
 10
0
 20
30.83185
 30
0
 11
5.02655
 21
30.83185
 31
 0
 0
LINE
 8
b
 10
0
 20
31.83185
 30
0
 11
5.02655
 21
31.83185
 31
 0
 0
LINE
 8
b
 10
0
 20
32.83185
 30
0
 11
5.02655
 21
32.83185
 31
 0
 0
LINE
 8
b
 10
0
 20
33.83185
 30
0
 11
5.02655
 21
33.83185
 31
 0
 0
LINE
 8
b
 10
0
 20
34.83185
 30
0
 11
5.02655
 21
34.83185
 31
 0
 0
LINE
 8
b
 10
0
 20
35.83185
 30
0
 11
5.02655
 21
35.83185
 31
 0
 0
LINE
 8
b
 10
0
 20
36.83185
 30
0
 11
5.02655
 21
36.83185
 31
 0
 0
LINE
 8
b
 10
0
 20
37.83185
 30
0
 11
5.02655
 21
37.83185
 31
 0
 0
LINE
 8
b
 10
0
 20
38.83185
 30
0
 11
5.02655
 21
38.83185
 31
 0
 0
LINE
 8
b
 10
0
 20
39.83185
 30
0
 11
5.02655
 21
39.83185
 31
 0
 0
LINE
 8
b
 10
0
 20
40.83185
 30
0
 11
5.02655
 21
40.83185
 31
 0
 0
LINE
 8
b
 10
0
 20
41.83185
 30
0
 11
5.02655
 21
41.83185
 31
 0
 0
LINE
 8
b
 10
0
 20
42.83185
 30
0
 11
5.02655
 21
42.83185
 31
 0
 0
LINE
 8
b
 10
0
 20
43.83185
 30
0
 11
5.02655
 21
43.83185
 31
 0
 0
LINE
 8
b
 10
0
 20
44.83185
 30
0
 11
5.02655
 21
44.83185
 31
 0
 0
LINE
 8
b
 10
0
 20
45.83185
 30
0
 11
5.02655
 21
45.83185
 31
 0
 0
LINE
 8
b
 10
0
 20
46.83185
 30
0
 11
5.02655
 21
46.83185
 31
 0
 0
LINE
 8
b
 10
0
 20
47.83185
 30
0
 11
5.02655
 21
47.83185
 31
 0
 0
LINE
 8
b
 10
0
 20
48.83185
 30
0
 11
5.02655
 21
48.83185
 31
 0
 0
LINE
 8
b
 10
0
 20
49.83185
 30
0
 11
5.02655
 21
49.83185
 31
 0
 0
LINE
 8
b
 10
0
 20
50.83185
 30
0
 11
5.02655
 21
50.83185
 31
 0
 0
LINE
 8
b
 10
0
 20
51.83185
 30
0
 11
5.02655
 21
51.83185
 31
 0
 0
LINE
 8
b
 10
0
 20
52.83185
 30
0
 11
5.02655
 21
52.83185
 31
 0
 0
LINE
 8
b
 10
0
 20
53.83185
 30
0
 11
5.02655
 21
53.83185
 31
 0
 0
LINE
 8
b
 10
0
 20
54.83185
 30
0
 11
5.02655
 21
54.83185
 31
 0
 0
LINE
 8
b
 10
0
 20
55.83185
 30
0
 11
5.02655
 21
55.83185
 31
 0
 0
LINE
 8
b
 10
0
 20
56.83185
 30
0
 11
5.02655
 21
56.83185
 31
 0
 0
LINE
 8
b
 10
0
 20
57.83185
 30
0
 11
5.02655
 21
57.83185
 31
 0
 0
LINE
 8
b
 10
0
 20
58.83185
 30
0
 11
5.02655
 21
58.83185
 31
 0
 0
LINE
 8
b
 10
0
 20
59.83185
 30
0
 11
5.02655
 21
59.83185
 31
 0
 0
LINE
 8
b
 10
0
 20
60.83185
 30
0
 11
5.02655
 21
60.83185
 31
 0
 0
LINE
 8
b
 10
0
 20
61.83185
 30
0
 11
5.02655
 21
61.83185
 31
 0
 0
LINE
 8
b
 10
0
 20
62.83185
 30
0
 11
5.02655
 21
62.83185
 31
 0
 0
LINE
 8
b
 10
0
 20
63.83185
 30
0
 11
5.02655
 21
63.83185
 31
 0
 0
LINE
 8
b
 10
0
 20
64.83185
 30
0
 11
5.02655
 21
64.83185
 31
 0
 0
LINE
 8
b
 10
0
 20
65.83185
 30
0
 11
5.02655
 21
65.83185
 31
 0
 0
LINE
 8
b
 10
0
 20
66.83185
 30
0
 11
5.02655
 21
66.83185
 31
 0
 0
LINE
 8
b
 10
0
 20
67.83185
 30
0
 11
5.02655
 21
67.83185
 31
 0
 0
LINE
 8
b
 10
0
 20
68.83185
 30
0
 11
5.02655
 21
68.83185
 31
 0
 0
LINE
 8
b
 10
0
 20
69.83185
 30
0
 11
5.02655
 21
69.83185
 31
 0
 0
LINE
 8
b
 10
0
 20
70.83185
 30
0
 11
5.02655
 21
70.83185
 31
 0
 0
LINE
 8
b
 10
0
 20
71.83185
 30
0
 11
5.02655
 21
71.83185
 31
 0
 0
LINE
 8
b
 10
0
 20
72.83185
 30
0
 11
5.02655
 21
72.83185
 31
 0
 0
LINE
 8
b
 10
0
 20
73.83185
 30
0
 11
5.02655
 21
73.83185
 31
 0
 0
LINE
 8
b
 10
0
 20
74.83185
 30
0
 11
5.02655
 21
74.83185
 31
 0
 0
LINE
 8
b
 10
0
 20
75.83185
 30
0
 11
5.02655
 21
75.83185
 31
 0
 0
LINE
 8
b
 10
0
 20
76.83185
 30
0
 11
5.02655
 21
76.83185
 31
 0
 0
LINE
 8
b
 10
0
 20
77.83185
 30
0
 11
5.02655
 21
77.83185
 31
 0
 0
LINE
 8
b
 10
0
 20
78.83185
 30
0
 11
5.02655
 21
78.83185
 31
 0
 0
LINE
 8
b
 10
0
 20
79.83185
 30
0
 11
5.02655
 21
79.83185
 31
 0
 0
LINE
 8
b
 10
0
 20
80.83185
 30
0
 11
5.02655
 21
80.83185
 31
 0
 0
LINE
 8
b
 10
0
 20
81.83185
 30
0
 11
5.02655
 21
81.83185
 31
 0
 0
LINE
 8
b
 10
0
 20
82.83185
 30
0
 11
5.02655
 21
82.83185
 31
 0
 0
LINE
 8
b
 10
0
 20
83.83185
 30
0
 11
5.02655
 21
83.83185
 31
 0
 0
LINE
 8
b
 10
0
 20
84.83185
 30
0
 11
5.02655
 21
84.83185
 31
 0
 0
LINE
 8
b
 10
0
 20
85.83185
 30
0
 11
5.02655
 21
85.83185
 31
 0
 0
LINE
 8
b
 10
0
 20
86.83185
 30
0
 11
5.02655
 21
86.83185
 31
 0
 0
LINE
 8
b
 10
0
 20
87.83185
 30
0
 11
5.02655
 21
87.83185
 31
 0
 0
LINE
 8
b
 10
0
 20
88.83185
 30
0
 11
5.02655
 21
88.83185
 31
 0
 0
LINE
 8
b
 10
0
 20
89.83185
 30
0
 11
5.02655
 21
89.83185
 31
 0
 0
LINE
 8
b
 10
0
 20
90.83185
 30
0
 11
5.02655
 21
90.83185
 31
 0
 0
LINE
 8
b
 10
0
 20
91.83185
 30
0
 11
5.02655
 21
91.83185
 31
 0
 0
LINE
 8
b
 10
0
 20
92.83185
 30
0
 11
5.02655
 21
92.83185
 31
 0
 0
LINE
 8
b
 10
0
 20
93.83185
 30
0
 11
5.02655
 21
93.83185
 31
 0
 0
LINE
 8
b
 10
0
 20
94.83185
 30
0
 11
5.02655
 21
94.83185
 31
 0
 0
LINE
 8
b
 10
0
 20
95.83185
 30
0
 11
5.02655
 21
95.83185
 31
 0
 0
LINE
 8
b
 10
0
 20
96.83185
 30
0
 11
5.02655
 21
96.83185
 31
 0
 0
LINE
 8
b
 10
0
 20
97.83185
 30
0
 11
5.02655
 21
97.83185
 31
 0
 0
LINE
 8
b
 10
0
 20
98.83185
 30
0
 11
5.02655
 21
98.83185
 31
 0
 0
LINE
 8
b
 10
0
 20
99.83185
 30
0
 11
5.02655
 21
99.83185
 31
 0
 0
LINE
 8
b
 10
0
 20
100.83185
 30
0
 11
5.02655
 21
100.83185
 31
 0
 0
LINE
 8
b
 10
0
 20
101.83185
 30
0
 11
5.02655
 21
101.83185
 31
 0
 0
LINE
 8
b
 10
0
 20
102.83185
 30
0
 11
5.02655
 21
102.83185
 31
 0
 0
LINE
 8
b
 10
0
 20
103.83185
 30
0
 11
5.02655
 21
103.83185
 31
 0
 0
LINE
 8
b
 10
0
 20
104.83185
 30
0
 11
5.02655
 21
104.83185
 31
 0
 0
LINE
 8
b
 10
0
 20
105.83185
 30
0
 11
5.02655
 21
105.83185
 31
 0
 0
LINE
 8
b
 10
0
 20
106.83185
 30
0
 11
5.02655
 21
106.83185
 31
 0
 0
LINE
 8
b
 10
0
 20
107.83185
 30
0
 11
5.02655
 21
107.83185
 31
 0
 0
LINE
 8
b
 10
0
 20
108.83185
 30
0
 11
5.02655
 21
108.83185
 31
 0
 0
LINE
 8
b
 10
0
 20
109.83185
 30
0
 11
5.02655
 21
109.83185
 31
 0
 0
LINE
 8
b
 10
0
 20
110.83185
 30
0
 11
5.02655
 21
110.83185
 31
 0
 0
LINE
 8
b
 10
0
 20
111.83185
 30
0
 11
5.02655
 21
111.83185
 31
 0
 0
LINE
 8
b
 10
0
 20
112.83185
 30
0
 11
5.02655
 21
112.83185
 31
 0
 0
LINE
 8
b
 10
0
 20
113.83185
 30
0
 11
5.02655
 21
113.83185
 31
 0
 0
LINE
 8
b
 10
0
 20
114.83185
 30
0
 11
5.02655
 21
114.83185
 31
 0
 0
LINE
 8
b
 10
0
 20
115.83185
 30
0
 11
5.02655
 21
115.83185
 31
 0
 0
LINE
 8
b
 10
0
 20
116.83185
 30
0
 11
5.02655
 21
116.83185
 31
 0
 0
LINE
 8
b
 10
0
 20
117.83185
 30
0
 11
5.02655
 21
117.83185
 31
 0
 0
LINE
 8
b
 10
0
 20
118.83185
 30
0
 11
5.02655
 21
118.83185
 31
 0
 0
LINE
 8
b
 10
0
 20
119.83185
 30
0
 11
5.02655
 21
119.83185
 31
 0
 0
LINE
 8
b
 10
0
 20
120.83185
 30
0
 11
5.02655
 21
120.83185
 31
 0
 0
LINE
 8
b
 10
0
 20
121.83185
 30
0
 11
5.02655
 21
121.83185
 31
 0
 0
LINE
 8
b
 10
0
 20
122.83185
 30
0
 11
5.02655
 21
122.83185
 31
 0
 0
LINE
 8
b
 10
0
 20
123.83185
 30
0
 11
5.02655
 21
123.83185
 31
 0
 0
LINE
 8
b
 10
0
 20
124.83185
 30
0
 11
5.02655
 21
124.83185
 31
 0
 0
LINE
 8
c
 10
0.94248
 20
1.5708
 30
0
 11
4.08407
 21
1.5708
 31
 0
 0
LINE
 8
c
 10
0.94248
 20
4.71239
 30
0
 11
4.08407
 21
4.71239
 31
 0
 0
LINE
 8
c
 10
0.94248
 20
7.85398
 30
0
 11
4.08407
 21
7.85398
 31
 0
 0
LINE
 8
c
 10
0.94248
 20
10.99557
 30
0
 11
4.08407
 21
10.99557
 31
 0
 0
LINE
 8
c
 10
0.94248
 20
14.13717
 30
0
 11
4.08407
 21
14.13717
 31
 0
 0
LINE
 8
c
 10
0.94248
 20
17.27876
 30
0
 11
4.08407
 21
17.27876
 31
 0
 0
LINE
 8
c
 10
0.94248
 20
20.42035
 30
0
 11
4.08407
 21
20.42035
 31
 0
 0
LINE
 8
c
 10
0.94248
 20
23.56194
 30
0
 11
4.08407
 21
23.56194
 31
 0
 0
LINE
 8
c
 10
0.94248
 20
26.70354
 30
0
 11
4.08407
 21
26.70354
 31
 0
 0
LINE
 8
c
 10
0.94248
 20
29.84513
 30
0
 11
4.08407
 21
29.84513
 31
 0
 0
LINE
 8
c
 10
0.94248
 20
32.98672
 30
0
 11
4.08407
 21
32.98672
 31
 0
 0
LINE
 8
c
 10
0.94248
 20
36.12832
 30
0
 11
4.08407
 21
36.12832
 31
 0
 0
LINE
 8
c
 10
0.94248
 20
39.26991
 30
0
 11
4.08407
 21
39.26991
 31
 0
 0
LINE
 8
c
 10
0.94248
 20
42.4115
 30
0
 11
4.08407
 21
42.4115
 31
 0
 0
LINE
 8
c
 10
0.94248
 20
45.55309
 30
0
 11
4.08407
 21
45.55309
 31
 0
 0
LINE
 8
c
 10
0.94248
 20
48.69469
 30
0
 11
4.08407
 21
48.69469
 31
 0
 0
LINE
 8
c
 10
0.94248
 20
51.83628
 30
0
 11
4.08407
 21
51.83628
 31
 0
 0
LINE
 8
c
 10
0.94248
 20
54.97787
 30
0
 11
4.08407
 21
54.97787
 31
 0
 0
LINE
 8
c
 10
0.94248
 20
58.11946
 30
0
 11
4.08407
 21
58.11946
 31
 0
 0
LINE
 8
c
 10
0.94248
 20
61.26106
 30
0
 11
4.08407
 21
61.26106
 31
 0
 0
LINE
 8
c
 10
0.94248
 20
64.40265
 30
0
 11
4.08407
 21
64.40265
 31
 0
 0
LINE
 8
c
 10
0.94248
 20
67.54424
 30
0
 11
4.08407
 21
67.54424
 31
 0
 0
LINE
 8
c
 10
0.94248
 20
70.68583
 30
0
 11
4.08407
 21
70.68583
 31
 0
 0
LINE
 8
c
 10
0.94248
 20
73.82743
 30
0
 11
4.08407
 21
73.82743
 31
 0
 0
LINE
 8
c
 10
0.94248
 20
76.96902
 30
0
 11
4.08407
 21
76.96902
 31
 0
 0
LINE
 8
c
 10
0.94248
 20
80.11061
 30
0
 11
4.08407
 21
80.11061
 31
 0
 0
LINE
 8
c
 10
0.94248
 20
83.25221
 30
0
 11
4.08407
 21
83.25221
 31
 0
 0
LINE
 8
c
 10
0.94248
 20
86.3938
 30
0
 11
4.08407
 21
86.3938
 31
 0
 0
LINE
 8
c
 10
0.94248
 20
89.53539
 30
0
 11
4.08407
 21
89.53539
 31
 0
 0
LINE
 8
c
 10
0.94248
 20
92.67698
 30
0
 11
4.08407
 21
92.67698
 31
 0
 0
LINE
 8
c
 10
0.94248
 20
95.81858
 30
0
 11
4.08407
 21
95.81858
 31
 0
 0
LINE
 8
c
 10
0.94248
 20
98.96017
 30
0
 11
4.08407
 21
98.96017
 31
 0
 0
LINE
 8
c
 10
0.94248
 20
102.10176
 30
0
 11
4.08407
 21
102.10176
 31
 0
 0
LINE
 8
c
 10
0.94248
 20
105.24335
 30
0
 11
4.08407
 21
105.24335
 31
 0
 0
LINE
 8
c
 10
0.94248
 20
108.38495
 30
0
 11
4.08407
 21
108.38495
 31
 0
 0
LINE
 8
c
 10
0.94248
 20
111.52654
 30
0
 11
4.08407
 21
111.52654
 31
 0
 0
LINE
 8
c
 10
0.94248
 20
114.66813
 30
0
 11
4.08407
 21
114.66813
 31
 0
 0
LINE
 8
c
 10
0.94248
 20
117.80972
 30
0
 11
4.08407
 21
117.80972
 31
 0
 0
LINE
 8
c
 10
0.94248
 20
120.95132
 30
0
 11
4.08407
 21
120.95132
 31
 0
 0
LINE
 8
c
 10
0.94248
 20
124.09291
 30
0
 11
4.08407
 21
124.09291
 31
 0
 0
LINE
 8
c
 10
0.94248
 20
127.2345
 30
0
 11
4.08407
 21
127.2345
 31
 0
 0
LINE
 8
c
 10
2.51327
 20
0
 30
0
 11
2.51327
 21
125.66371
 31
 0
 0
LINE
 8
a
 10
1.25664
 20
1.89882
 30
0
 11
1.25664
 21
1.24278
 31
 0
 0
LINE
 8
a
 10
1.25664
 20
1.24278
 30
0
 11
3.73818
 21
0.33957
 31
 0
 0
LINE
 8
a
 10
3.73818
 20
0.33957
 30
0
 11
3.73818
 21
-0.33957
 31
 0
 0
LINE
 8
a
 10
3.73818
 20
-0.33957
 30
0
 11
1.25664
 21
-1.24278
 31
 0
 0
LINE
 8
a
 10
1.25664
 20
5.04041
 30
0
 11
1.25664
 21
4.38437
 31
 0
 0
LINE
 8
a
 10
1.25664
 20
4.38437
 30
0
 11
3.73818
 21
3.48116
 31
 0
 0
LINE
 8
a
 10
3.73818
 20
3.48116
 30
0
 11
3.73818
 21
2.80202
 31
 0
 0
LINE
 8
a
 10
3.73818
 20
2.80202
 30
0
 11
1.25664
 21
1.89882
 31
 0
 0
LINE
 8
a
 10
1.25664
 20
8.182
 30
0
 11
1.25664
 21
7.52596
 31
 0
 0
LINE
 8
a
 10
1.25664
 20
7.52596
 30
0
 11
3.73818
 21
6.62275
 31
 0
 0
LINE
 8
a
 10
3.73818
 20
6.62275
 30
0
 11
3.73818
 21
5.94362
 31
 0
 0
LINE
 8
a
 10
3.73818
 20
5.94362
 30
0
 11
1.25664
 21
5.04041
 31
 0
 0
LINE
 8
a
 10
1.25664
 20
11.32359
 30
0
 11
1.25664
 21
10.66755
 31
 0
 0
LINE
 8
a
 10
1.25664
 20
10.66755
 30
0
 11
3.73818
 21
9.76435
 31
 0
 0
LINE
 8
a
 10
3.73818
 20
9.76435
 30
0
 11
3.73818
 21
9.08521
 31
 0
 0
LINE
 8
a
 10
3.73818
 20
9.08521
 30
0
 11
1.25664
 21
8.182
 31
 0
 0
LINE
 8
a
 10
1.25664
 20
14.46519
 30
0
 11
1.25664
 21
13.80915
 31
 0
 0
LINE
 8
a
 10
1.25664
 20
13.80915
 30
0
 11
3.73818
 21
12.90594
 31
 0
 0
LINE
 8
a
 10
3.73818
 20
12.90594
 30
0
 11
3.73818
 21
12.2268
 31
 0
 0
LINE
 8
a
 10
3.73818
 20
12.2268
 30
0
 11
1.25664
 21
11.32359
 31
 0
 0
LINE
 8
a
 10
1.25664
 20
17.60678
 30
0
 11
1.25664
 21
16.95074
 31
 0
 0
LINE
 8
a
 10
1.25664
 20
16.95074
 30
0
 11
3.73818
 21
16.04753
 31
 0
 0
LINE
 8
a
 10
3.73818
 20
16.04753
 30
0
 11
3.73818
 21
15.36839
 31
 0
 0
LINE
 8
a
 10
3.73818
 20
15.36839
 30
0
 11
1.25664
 21
14.46519
 31
 0
 0
LINE
 8
a
 10
1.25664
 20
20.74837
 30
0
 11
1.25664
 21
20.09233
 31
 0
 0
LINE
 8
a
 10
1.25664
 20
20.09233
 30
0
 11
3.73818
 21
19.18912
 31
 0
 0
LINE
 8
a
 10
3.73818
 20
19.18912
 30
0
 11
3.73818
 21
18.50999
 31
 0
 0
LINE
 8
a
 10
3.73818
 20
18.50999
 30
0
 11
1.25664
 21
17.60678
 31
 0
 0
LINE
 8
a
 10
1.25664
 20
23.88996
 30
0
 11
1.25664
 21
23.23393
 31
 0
 0
LINE
 8
a
 10
1.25664
 20
23.23393
 30
0
 11
3.73818
 21
22.33072
 31
 0
 0
LINE
 8
a
 10
3.73818
 20
22.33072
 30
0
 11
3.73818
 21
21.65158
 31
 0
 0
LINE
 8
a
 10
3.73818
 20
21.65158
 30
0
 11
1.25664
 21
20.74837
 31
 0
 0
LINE
 8
a
 10
1.25664
 20
27.03156
 30
0
 11
1.25664
 21
26.37552
 31
 0
 0
LINE
 8
a
 10
1.25664
 20
26.37552
 30
0
 11
3.73818
 21
25.47231
 31
 0
 0
LINE
 8
a
 10
3.73818
 20
25.47231
 30
0
 11
3.73818
 21
24.79317
 31
 0
 0
LINE
 8
a
 10
3.73818
 20
24.79317
 30
0
 11
1.25664
 21
23.88996
 31
 0
 0
LINE
 8
a
 10
1.25664
 20
30.17315
 30
0
 11
1.25664
 21
29.51711
 31
 0
 0
LINE
 8
a
 10
1.25664
 20
29.51711
 30
0
 11
3.73818
 21
28.6139
 31
 0
 0
LINE
 8
a
 10
3.73818
 20
28.6139
 30
0
 11
3.73818
 21
27.93477
 31
 0
 0
LINE
 8
a
 10
3.73818
 20
27.93477
 30
0
 11
1.25664
 21
27.03156
 31
 0
 0
LINE
 8
a
 10
1.25664
 20
33.31474
 30
0
 11
1.25664
 21
32.6587
 31
 0
 0
LINE
 8
a
 10
1.25664
 20
32.6587
 30
0
 11
3.73818
 21
31.7555
 31
 0
 0
LINE
 8
a
 10
3.73818
 20
31.7555
 30
0
 11
3.73818
 21
31.07636
 31
 0
 0
LINE
 8
a
 10
3.73818
 20
31.07636
 30
0
 11
1.25664
 21
30.17315
 31
 0
 0
LINE
 8
a
 10
1.25664
 20
36.45634
 30
0
 11
1.25664
 21
35.8003
 31
 0
 0
LINE
 8
a
 10
1.25664
 20
35.8003
 30
0
 11
3.73818
 21
34.89709
 31
 0
 0
LINE
 8
a
 10
3.73818
 20
34.89709
 30
0
 11
3.73818
 21
34.21795
 31
 0
 0
LINE
 8
a
 10
3.73818
 20
34.21795
 30
0
 11
1.25664
 21
33.31474
 31
 0
 0
LINE
 8
a
 10
1.25664
 20
39.59793
 30
0
 11
1.25664
 21
38.94189
 31
 0
 0
LINE
 8
a
 10
1.25664
 20
38.94189
 30
0
 11
3.73818
 21
38.03868
 31
 0
 0
LINE
 8
a
 10
3.73818
 20
38.03868
 30
0
 11
3.73818
 21
37.35954
 31
 0
 0
LINE
 8
a
 10
3.73818
 20
37.35954
 30
0
 11
1.25664
 21
36.45634
 31
 0
 0
LINE
 8
a
 10
1.25664
 20
42.73952
 30
0
 11
1.25664
 21
42.08348
 31
 0
 0
LINE
 8
a
 10
1.25664
 20
42.08348
 30
0
 11
3.73818
 21
41.18027
 31
 0
 0
LINE
 8
a
 10
3.73818
 20
41.18027
 30
0
 11
3.73818
 21
40.50114
 31
 0
 0
LINE
 8
a
 10
3.73818
 20
40.50114
 30
0
 11
1.25664
 21
39.59793
 31
 0
 0
LINE
 8
a
 10
1.25664
 20
45.88111
 30
0
 11
1.25664
 21
45.22507
 31
 0
 0
LINE
 8
a
 10
1.25664
 20
45.22507
 30
0
 11
3.73818
 21
44.32187
 31
 0
 0
LINE
 8
a
 10
3.73818
 20
44.32187
 30
0
 11
3.73818
 21
43.64273
 31
 0
 0
LINE
 8
a
 10
3.73818
 20
43.64273
 30
0
 11
1.25664
 21
42.73952
 31
 0
 0
LINE
 8
a
 10
1.25664
 20
49.02271
 30
0
 11
1.25664
 21
48.36667
 31
 0
 0
LINE
 8
a
 10
1.25664
 20
48.36667
 30
0
 11
3.73818
 21
47.46346
 31
 0
 0
LINE
 8
a
 10
3.73818
 20
47.46346
 30
0
 11
3.73818
 21
46.78432
 31
 0
 0
LINE
 8
a
 10
3.73818
 20
46.78432
 30
0
 11
1.25664
 21
45.88111
 31
 0
 0
LINE
 8
a
 10
1.25664
 20
52.1643
 30
0
 11
1.25664
 21
51.50826
 31
 0
 0
LINE
 8
a
 10
1.25664
 20
51.50826
 30
0
 11
3.73818
 21
50.60505
 31
 0
 0
LINE
 8
a
 10
3.73818
 20
50.60505
 30
0
 11
3.73818
 21
49.92591
 31
 0
 0
LINE
 8
a
 10
3.73818
 20
49.92591
 30
0
 11
1.25664
 21
49.02271
 31
 0
 0
LINE
 8
a
 10
1.25664
 20
55.30589
 30
0
 11
1.25664
 21
54.64985
 31
 0
 0
LINE
 8
a
 10
1.25664
 20
54.64985
 30
0
 11
3.73818
 21
53.74664
 31
 0
 0
LINE
 8
a
 10
3.73818
 20
53.74664
 30
0
 11
3.73818
 21
53.06751
 31
 0
 0
LINE
 8
a
 10
3.73818
 20
53.06751
 30
0
 11
1.25664
 21
52.1643
 31
 0
 0
LINE
 8
a
 10
1.25664
 20
58.44748
 30
0
 11
1.25664
 21
57.79144
 31
 0
 0
LINE
 8
a
 10
1.25664
 20
57.79144
 30
0
 11
3.73818
 21
56.88824
 31
 0
 0
LINE
 8
a
 10
3.73818
 20
56.88824
 30
0
 11
3.73818
 21
56.2091
 31
 0
 0
LINE
 8
a
 10
3.73818
 20
56.2091
 30
0
 11
1.25664
 21
55.30589
 31
 0
 0
LINE
 8
a
 10
1.25664
 20
61.58908
 30
0
 11
1.25664
 21
60.93304
 31
 0
 0
LINE
 8
a
 10
1.25664
 20
60.93304
 30
0
 11
3.73818
 21
60.02983
 31
 0
 0
LINE
 8
a
 10
3.73818
 20
60.02983
 30
0
 11
3.73818
 21
59.35069
 31
 0
 0
LINE
 8
a
 10
3.73818
 20
59.35069
 30
0
 11
1.25664
 21
58.44748
 31
 0
 0
LINE
 8
a
 10
1.25664
 20
64.73067
 30
0
 11
1.25664
 21
64.07463
 31
 0
 0
LINE
 8
a
 10
1.25664
 20
64.07463
 30
0
 11
3.73818
 21
63.17142
 31
 0
 0
LINE
 8
a
 10
3.73818
 20
63.17142
 30
0
 11
3.73818
 21
62.49228
 31
 0
 0
LINE
 8
a
 10
3.73818
 20
62.49228
 30
0
 11
1.25664
 21
61.58908
 31
 0
 0
LINE
 8
a
 10
1.25664
 20
67.87226
 30
0
 11
1.25664
 21
67.21622
 31
 0
 0
LINE
 8
a
 10
1.25664
 20
67.21622
 30
0
 11
3.73818
 21
66.31301
 31
 0
 0
LINE
 8
a
 10
3.73818
 20
66.31301
 30
0
 11
3.73818
 21
65.63388
 31
 0
 0
LINE
 8
a
 10
3.73818
 20
65.63388
 30
0
 11
1.25664
 21
64.73067
 31
 0
 0
LINE
 8
a
 10
1.25664
 20
71.01385
 30
0
 11
1.25664
 21
70.35782
 31
 0
 0
LINE
 8
a
 10
1.25664
 20
70.35782
 30
0
 11
3.73818
 21
69.45461
 31
 0
 0
LINE
 8
a
 10
3.73818
 20
69.45461
 30
0
 11
3.73818
 21
68.77547
 31
 0
 0
LINE
 8
a
 10
3.73818
 20
68.77547
 30
0
 11
1.25664
 21
67.87226
 31
 0
 0
LINE
 8
a
 10
1.25664
 20
74.15545
 30
0
 11
1.25664
 21
73.49941
 31
 0
 0
LINE
 8
a
 10
1.25664
 20
73.49941
 30
0
 11
3.73818
 21
72.5962
 31
 0
 0
LINE
 8
a
 10
3.73818
 20
72.5962
 30
0
 11
3.73818
 21
71.91706
 31
 0
 0
LINE
 8
a
 10
3.73818
 20
71.91706
 30
0
 11
1.25664
 21
71.01385
 31
 0
 0
LINE
 8
a
 10
1.25664
 20
77.29704
 30
0
 11
1.25664
 21
76.641
 31
 0
 0
LINE
 8
a
 10
1.25664
 20
76.641
 30
0
 11
3.73818
 21
75.73779
 31
 0
 0
LINE
 8
a
 10
3.73818
 20
75.73779
 30
0
 11
3.73818
 21
75.05866
 31
 0
 0
LINE
 8
a
 10
3.73818
 20
75.05866
 30
0
 11
1.25664
 21
74.15545
 31
 0
 0
LINE
 8
a
 10
1.25664
 20
80.43863
 30
0
 11
1.25664
 21
79.78259
 31
 0
 0
LINE
 8
a
 10
1.25664
 20
79.78259
 30
0
 11
3.73818
 21
78.87938
 31
 0
 0
LINE
 8
a
 10
3.73818
 20
78.87938
 30
0
 11
3.73818
 21
78.20025
 31
 0
 0
LINE
 8
a
 10
3.73818
 20
78.20025
 30
0
 11
1.25664
 21
77.29704
 31
 0
 0
LINE
 8
a
 10
1.25664
 20
83.58022
 30
0
 11
1.25664
 21
82.92419
 31
 0
 0
LINE
 8
a
 10
1.25664
 20
82.92419
 30
0
 11
3.73818
 21
82.02098
 31
 0
 0
LINE
 8
a
 10
3.73818
 20
82.02098
 30
0
 11
3.73818
 21
81.34184
 31
 0
 0
LINE
 8
a
 10
3.73818
 20
81.34184
 30
0
 11
1.25664
 21
80.43863
 31
 0
 0
LINE
 8
a
 10
1.25664
 20
86.72182
 30
0
 11
1.25664
 21
86.06578
 31
 0
 0
LINE
 8
a
 10
1.25664
 20
86.06578
 30
0
 11
3.73818
 21
85.16257
 31
 0
 0
LINE
 8
a
 10
3.73818
 20
85.16257
 30
0
 11
3.73818
 21
84.48343
 31
 0
 0
LINE
 8
a
 10
3.73818
 20
84.48343
 30
0
 11
1.25664
 21
83.58022
 31
 0
 0
LINE
 8
a
 10
1.25664
 20
89.86341
 30
0
 11
1.25664
 21
89.20737
 31
 0
 0
LINE
 8
a
 10
1.25664
 20
89.20737
 30
0
 11
3.73818
 21
88.30416
 31
 0
 0
LINE
 8
a
 10
3.73818
 20
88.30416
 30
0
 11
3.73818
 21
87.62503
 31
 0
 0
LINE
 8
a
 10
3.73818
 20
87.62503
 30
0
 11
1.25664
 21
86.72182
 31
 0
 0
LINE
 8
a
 10
1.25664
 20
93.005
 30
0
 11
1.25664
 21
92.34896
 31
 0
 0
LINE
 8
a
 10
1.25664
 20
92.34896
 30
0
 11
3.73818
 21
91.44576
 31
 0
 0
LINE
 8
a
 10
3.73818
 20
91.44576
 30
0
 11
3.73818
 21
90.76662
 31
 0
 0
LINE
 8
a
 10
3.73818
 20
90.76662
 30
0
 11
1.25664
 21
89.86341
 31
 0
 0
LINE
 8
a
 10
1.25664
 20
96.1466
 30
0
 11
1.25664
 21
95.49056
 31
 0
 0
LINE
 8
a
 10
1.25664
 20
95.49056
 30
0
 11
3.73818
 21
94.58735
 31
 0
 0
LINE
 8
a
 10
3.73818
 20
94.58735
 30
0
 11
3.73818
 21
93.90821
 31
 0
 0
LINE
 8
a
 10
3.73818
 20
93.90821
 30
0
 11
1.25664
 21
93.005
 31
 0
 0
LINE
 8
a
 10
1.25664
 20
99.28819
 30
0
 11
1.25664
 21
98.63215
 31
 0
 0
LINE
 8
a
 10
1.25664
 20
98.63215
 30
0
 11
3.73818
 21
97.72894
 31
 0
 0
LINE
 8
a
 10
3.73818
 20
97.72894
 30
0
 11
3.73818
 21
97.0498
 31
 0
 0
LINE
 8
a
 10
3.73818
 20
97.0498
 30
0
 11
1.25664
 21
96.1466
 31
 0
 0
LINE
 8
a
 10
1.25664
 20
102.42978
 30
0
 11
1.25664
 21
101.77374
 31
 0
 0
LINE
 8
a
 10
1.25664
 20
101.77374
 30
0
 11
3.73818
 21
100.87053
 31
 0
 0
LINE
 8
a
 10
3.73818
 20
100.87053
 30
0
 11
3.73818
 21
100.1914
 31
 0
 0
LINE
 8
a
 10
3.73818
 20
100.1914
 30
0
 11
1.25664
 21
99.28819
 31
 0
 0
LINE
 8
a
 10
1.25664
 20
105.57137
 30
0
 11
1.25664
 21
104.91533
 31
 0
 0
LINE
 8
a
 10
1.25664
 20
104.91533
 30
0
 11
3.73818
 21
104.01213
 31
 0
 0
LINE
 8
a
 10
3.73818
 20
104.01213
 30
0
 11
3.73818
 21
103.33299
 31
 0
 0
LINE
 8
a
 10
3.73818
 20
103.33299
 30
0
 11
1.25664
 21
102.42978
 31
 0
 0
LINE
 8
a
 10
1.25664
 20
108.71297
 30
0
 11
1.25664
 21
108.05693
 31
 0
 0
LINE
 8
a
 10
1.25664
 20
108.05693
 30
0
 11
3.73818
 21
107.15372
 31
 0
 0
LINE
 8
a
 10
3.73818
 20
107.15372
 30
0
 11
3.73818
 21
106.47458
 31
 0
 0
LINE
 8
a
 10
3.73818
 20
106.47458
 30
0
 11
1.25664
 21
105.57137
 31
 0
 0
LINE
 8
a
 10
1.25664
 20
111.85456
 30
0
 11
1.25664
 21
111.19852
 31
 0
 0
LINE
 8
a
 10
1.25664
 20
111.19852
 30
0
 11
3.73818
 21
110.29531
 31
 0
 0
LINE
 8
a
 10
3.73818
 20
110.29531
 30
0
 11
3.73818
 21
109.61617
 31
 0
 0
LINE
 8
a
 10
3.73818
 20
109.61617
 30
0
 11
1.25664
 21
108.71297
 31
 0
 0
LINE
 8
a
 10
1.25664
 20
114.99615
 30
0
 11
1.25664
 21
114.34011
 31
 0
 0
LINE
 8
a
 10
1.25664
 20
114.34011
 30
0
 11
3.73818
 21
113.4369
 31
 0
 0
LINE
 8
a
 10
3.73818
 20
113.4369
 30
0
 11
3.73818
 21
112.75777
 31
 0
 0
LINE
 8
a
 10
3.73818
 20
112.75777
 30
0
 11
1.25664
 21
111.85456
 31
 0
 0
LINE
 8
a
 10
1.25664
 20
118.13774
 30
0
 11
1.25664
 21
117.4817
 31
 0
 0
LINE
 8
a
 10
1.25664
 20
117.4817
 30
0
 11
3.73818
 21
116.5785
 31
 0
 0
LINE
 8
a
 10
3.73818
 20
116.5785
 30
0
 11
3.73818
 21
115.89936
 31
 0
 0
LINE
 8
a
 10
3.73818
 20
115.89936
 30
0
 11
1.25664
 21
114.99615
 31
 0
 0
LINE
 8
a
 10
1.25664
 20
121.27934
 30
0
 11
1.25664
 21
120.6233
 31
 0
 0
LINE
 8
a
 10
1.25664
 20
120.6233
 30
0
 11
3.73818
 21
119.72009
 31
 0
 0
LINE
 8
a
 10
3.73818
 20
119.72009
 30
0
 11
3.73818
 21
119.04095
 31
 0
 0
LINE
 8
a
 10
3.73818
 20
119.04095
 30
0
 11
1.25664
 21
118.13774
 31
 0
 0
LINE
 8
a
 10
1.25664
 20
124.42093
 30
0
 11
1.25664
 21
123.76489
 31
 0
 0
LINE
 8
a
 10
1.25664
 20
123.76489
 30
0
 11
3.73818
 21
122.86168
 31
 0
 0
LINE
 8
a
 10
3.73818
 20
122.86168
 30
0
 11
3.73818
 21
122.18255
 31
 0
 0
LINE
 8
a
 10
3.73818
 20
122.18255
 30
0
 11
1.25664
 21
121.27934
 31
 0
 0
LINE
 8
a
 10
1.25664
 20
127.56252
 30
0
 11
1.25664
 21
126.90648
 31
 0
 0
LINE
 8
a
 10
1.25664
 20
126.90648
 30
0
 11
3.73818
 21
126.00327
 31
 0
 0
LINE
 8
a
 10
3.73818
 20
126.00327
 30
0
 11
3.73818
 21
125.32414
 31
 0
 0
LINE
 8
a
 10
3.73818
 20
125.32414
 30
0
 11
1.25664
 21
124.42093
 31
 0
  0
ENDSEC
  0
EOF
